<svg xmlns="http://www.w3.org/2000/svg" width="66" height="99" viewBox="0 0 65.17 98.48"><defs><style>.cls-1{isolation:isolate;}.cls-2{fill:#d80;}.cls-3{fill:#4f3b21;}.cls-4{fill:#ffcd7d;}.cls-5,.cls-7{fill:#ffa300;}.cls-6,.cls-8{fill:#77624f;}.cls-7{opacity:0.36;}.cls-7,.cls-8{mix-blend-mode:multiply;}.cls-8{opacity:0.3;}</style></defs><title>balloon</title><g class="cls-1"><g><rect class="cls-2" x="25.87" y="78.24" width="13.42" height="5.19"/><rect class="cls-3" x="31.05" y="88.35" width="3.07" height="4.11"/><path class="cls-4" d="M65.49,32.52A32.59,32.59,0,1,1,32.9,0,32.58,32.58,0,0,1,65.49,32.52Z" transform="translate(-0.32 0.05)"/><polygon class="cls-5" points="43.07 80.84 21.84 80.84 2.17 44.27 63 44.27 43.07 80.84"/><path class="cls-6" d="M24.45,89.64v5.24A3.54,3.54,0,0,0,28,98.43h9.83a3.54,3.54,0,0,0,3.55-3.55V89.64Z" transform="translate(-0.32 0.05)"/><path class="cls-5" d="M65,26.92A32.51,32.51,0,0,0,56.11,9.7H9.66A32.74,32.74,0,0,0,.84,26.92Z" transform="translate(-0.32 0.05)"/><path class="cls-7" d="M65.49,32.52a33.32,33.32,0,0,0-.52-5.6,0,0,0,0,0,0,0,32.92,32.92,0,0,0-3.13-9.35h0a32.51,32.51,0,0,0-2.45-4,2.73,2.73,0,0,0-.33-.43A32.42,32.42,0,0,0,32.9,0V83.38h6.71V80.79h3.78l16-29.27a32.07,32.07,0,0,0,3.84-7.11l.12-.19h0A33.09,33.09,0,0,0,65.49,32.52Z" transform="translate(-0.32 0.05)"/><path class="cls-8" d="M34.44,89.64V88.3H32.9V98.43h4.92a3.54,3.54,0,0,0,3.55-3.55V89.64Z" transform="translate(-0.32 0.05)"/></g></g></svg>