<svg xmlns="http://www.w3.org/2000/svg" viewBox="0 0 30 30" width="50" height="50"><defs><style>.cls-1{fill:#9c161e;}.cls-2{fill:#fff;}</style></defs><title>gotop</title><circle class="cls-1" cx="15" cy="15" r="15"/><polygon class="cls-2" points="15 4.92 9.93 13.7 20.07 13.7 15 4.92"/><path class="cls-2" d="M11.64,17.78H9.9V23H9V17.78H7.22V17h4.42Z" transform="translate(0 0)"/><path class="cls-2" d="M11.76,20.08a3.31,3.31,0,0,1,.81-2.32,2.75,2.75,0,0,1,2.16-.88,2.62,2.62,0,0,1,2.06.86,3.19,3.19,0,0,1,.77,2.2,3.31,3.31,0,0,1-.79,2.31,2.71,2.71,0,0,1-2.13.89,2.73,2.73,0,0,1-2.08-.85A3.12,3.12,0,0,1,11.76,20.08Zm1-.06a2.62,2.62,0,0,0,.51,1.65,1.66,1.66,0,0,0,1.38.64,1.76,1.76,0,0,0,1.43-.61A2.54,2.54,0,0,0,16.58,20a2.7,2.7,0,0,0-.49-1.69,1.68,1.68,0,0,0-1.4-.63,1.73,1.73,0,0,0-1.41.65A2.49,2.49,0,0,0,12.75,20Z" transform="translate(0 0)"/><path class="cls-2" d="M19.63,20.82V23h-.94V17h1.83a2.38,2.38,0,0,1,1.58.47,1.75,1.75,0,0,1,.54,1.38A1.82,1.82,0,0,1,22,20.3a2.27,2.27,0,0,1-1.61.52Zm0-3.06V20h.67c.91,0,1.36-.39,1.36-1.17s-.44-1.11-1.3-1.11Z" transform="translate(0 0)"/></svg>