<?xml version="1.0" encoding="utf-8"?>
<!-- Generator: Adobe Illustrator 24.0.3, SVG Export Plug-In . SVG Version: 6.00 Build 0)  -->
<svg version="1.1" id="圖層_1" xmlns="http://www.w3.org/2000/svg" xmlns:xlink="http://www.w3.org/1999/xlink" x="0px" y="0px"
	 viewBox="0 0 60 60" style="enable-background:new 0 0 60 60;" xml:space="preserve">
<style type="text/css">
	.st0{opacity:0.6;}
	.st1{fill:#75DBFF;}
	.st2{fill:#68C9F2;}
	.st3{fill:#5C87FF;}
	.st4{fill:#3E74E9;}
	.st5{fill:#FFFFFF;}
</style>
<g id="XMLID_92_" class="st0">
	<image style="overflow:visible;" width="134" height="86" xlink:href="53AE746CEADF8DC6.png"  transform="matrix(1 0 0 1 -37 9)">
	</image>
</g>
<path id="XMLID_91_" class="st1" d="M29.9,53.2c0,0-18-5-21.1-18.5C8,30.8,7.3,9.9,7.3,9.9s12.9-3.2,22.7-8.5V53.2z"/>
<path id="XMLID_90_" class="st2" d="M29.9,53.2c0,0,18-5,21.1-18.5c0.9-3.9,1.6-24.7,1.6-24.7S39.8,6.7,29.9,1.4V53.2z"/>
<path id="XMLID_89_" class="st3" d="M29.9,49.1c0,0-15.2-4.2-17.8-15.6c-0.8-3.3-1.3-20.9-1.3-20.9S21.7,10,29.9,5.4V49.1z"/>
<path id="XMLID_88_" class="st4" d="M29.9,49.1c0,0,15.2-4.2,17.8-15.6c0.8-3.3,1.3-20.9,1.3-20.9S38.2,10,29.9,5.4V49.1z"/>
<path class="st5" d="M30.5,37.2v2.2h-1.8v-2.1c-1.9-0.1-3.3-0.7-4.3-1.9c-1.1-1.2-1.6-2.7-1.6-4.7h2.9c0.1,2.4,1.1,3.7,3,3.9V28
	c-1.7-0.7-3-1.3-3.7-1.9c-1.2-0.9-1.8-2.2-1.8-3.6c0-1.6,0.5-2.9,1.6-3.9c1-0.9,2.3-1.5,3.9-1.7v-2.2h1.8v2.1c1.6,0.2,3,0.7,4,1.6
	c1.1,1,1.6,2.4,1.6,4.2h-2.9c-0.1-1.8-1-2.9-2.8-3.2v6.2c1.9,0.7,3.3,1.4,4,1.9c1.3,1,1.9,2.2,1.9,3.8
	C36.4,34.9,34.4,36.8,30.5,37.2z M28.7,19.6c-1.7,0.4-2.6,1.3-2.6,2.7c0,1.1,0.9,2,2.6,2.7V19.6z M30.5,28.7v5.9
	c0.9-0.1,1.6-0.5,2.1-1c0.6-0.5,0.9-1.2,0.9-2.1C33.5,30.4,32.5,29.4,30.5,28.7z"/>
</svg>
