<svg version="1.1" xmlns="http://www.w3.org/2000/svg" xmlns:xlink="http://www.w3.org/1999/xlink" x="0px" y="0px"
	 width="148.339px" height="53.912px" viewBox="0 0 148.339 53.912" enable-background="new 0 0 148.339 53.912"
	 xml:space="preserve">
<g>
	<g>
		<defs>
			<path id="SVGID_1_" d="M145.839,43.408c0,4.87-3.134,8.004-8.004,8.004H16.281c-2.2,0-5.219-1.324-6.708-2.943l-4.365-4.745
				C3.719,42.104,2.5,38.98,2.5,36.78V6.5c0-2.2,1.8-4,4-4h125.558c2.2,0,5.272,1.273,6.828,2.829l4.125,4.124
				c1.556,1.556,2.828,4.628,2.828,6.829V43.408z"/>
		</defs>
		<use xlink:href="#SVGID_1_"  overflow="visible" fill="#FFFFFF"/>
		<clipPath id="SVGID_2_">
			<use xlink:href="#SVGID_1_"  overflow="visible"/>
		</clipPath>
	</g>
	<g>
		<defs>
			<path id="SVGID_3_" d="M145.839,43.408c0,4.87-3.134,8.004-8.004,8.004H16.281c-2.2,0-5.219-1.324-6.708-2.943l-4.365-4.745
				C3.719,42.104,2.5,38.98,2.5,36.78V6.5c0-2.2,1.8-4,4-4h125.558c2.2,0,5.272,1.273,6.828,2.829l4.125,4.124
				c1.556,1.556,2.828,4.628,2.828,6.829V43.408z"/>
		</defs>
		<clipPath id="SVGID_4_">
			<use xlink:href="#SVGID_3_"  overflow="visible"/>
		</clipPath>
		
			<use xlink:href="#SVGID_3_" class="tabPath" overflow="visible" fill="none" stroke="#000000" stroke-width="5" stroke-linecap="round" stroke-linejoin="round" stroke-miterlimit="10"/>
	</g>
	<g>
		<path fill="none" class="tabPath" d="M136.058,34.78c0,3.3-2.7,6-6,6H8.5c-3.3,0-6-2.7-6-6V8.5c0-3.3,2.7-6,6-6h121.558c3.3,0,6,2.7,6,6V34.78z"/>
		<path fill="none" stroke="#000000" stroke-width="4" stroke-linecap="round" stroke-linejoin="round" stroke-miterlimit="10" d="
			M136.058,34.78c0,3.3-2.7,6-6,6H8.5c-3.3,0-6-2.7-6-6V8.5c0-3.3,2.7-6,6-6h121.558c3.3,0,6,2.7,6,6V34.78z"/>
	</g>
</g>
<g>
	<g>
		<g>
			<circle cx="140.43" cy="45.676" r="1.22"/>
			<circle cx="140.43" cy="40.854" r="1.15"/>
			<circle cx="140.43" cy="36.034" r="1.08"/>
			<circle cx="140.43" cy="31.215" r="1.011"/>
			<circle cx="140.43" cy="26.395" r="0.94"/>
			<circle cx="140.43" cy="21.574" r="0.869"/>
			<circle cx="140.43" cy="16.753" r="0.799"/>
			<circle cx="140.43" cy="11.934" r="0.729"/>
		</g>
		<g>
			<circle cx="135.389" cy="45.676" r="1.22"/>
			<circle cx="135.389" cy="40.854" r="1.15"/>
		</g>
		<g>
			<circle cx="130.346" cy="45.676" r="1.22"/>
		</g>
		<g>
			<circle cx="125.303" cy="45.676" r="1.22"/>
		</g>
		<g>
			<circle cx="120.261" cy="45.676" r="1.22"/>
		</g>
		<g>
			<circle cx="115.219" cy="45.676" r="1.22"/>
		</g>
		<g>
			<circle cx="110.177" cy="45.676" r="1.22"/>
		</g>
		<g>
			<circle cx="105.134" cy="45.676" r="1.22"/>
		</g>
		<g>
			<circle cx="100.092" cy="45.676" r="1.22"/>
		</g>
		<g>
			<circle cx="95.049" cy="45.676" r="1.22"/>
		</g>
		<g>
			<circle cx="90.008" cy="45.676" r="1.22"/>
		</g>
		<g>
			<circle cx="84.964" cy="45.676" r="1.22"/>
		</g>
		<g>
			<circle cx="79.922" cy="45.676" r="1.22"/>
		</g>
		<g>
			<circle cx="74.88" cy="45.676" r="1.22"/>
		</g>
		<g>
			<circle cx="69.838" cy="45.676" r="1.22"/>
		</g>
		<g>
			<circle cx="64.795" cy="45.676" r="1.22"/>
		</g>
		<g>
			<circle cx="59.753" cy="45.676" r="1.22"/>
		</g>
		<g>
			<circle cx="54.711" cy="45.676" r="1.22"/>
		</g>
		<g>
			<circle cx="49.669" cy="45.676" r="1.22"/>
		</g>
		<g>
			<circle cx="44.625" cy="45.676" r="1.22"/>
		</g>
		<g>
			<circle cx="39.584" cy="45.676" r="1.22"/>
		</g>
		<g>
			<circle cx="34.541" cy="45.676" r="1.22"/>
		</g>
		<g>
			<circle cx="29.499" cy="45.676" r="1.22"/>
		</g>
		<g>
			<circle cx="24.456" cy="45.676" r="1.22"/>
		</g>
		<g>
			<circle cx="19.414" cy="45.676" r="1.22"/>
		</g>
		<g>
			<circle cx="14.372" cy="45.676" r="1.22"/>
		</g>
		<g>
			<circle cx="9.33" cy="45.676" r="1.22"/>
		</g>
	</g>
</g>
</svg>
