<svg version="1.1" xmlns="http://www.w3.org/2000/svg" xmlns:xlink="http://www.w3.org/1999/xlink" x="0px" y="0px"
	 width="43.499px" height="33.414px" viewBox="0 0 43.499 33.414" enable-background="new 0 0 43.499 33.414" xml:space="preserve">
<g>
	<path fill="#F8EB4D" d="M19.53,31.038c-1.167,1.168-3.075,1.168-4.242,0L2.375,18.126c-1.167-1.168-1.166-3.076,0-4.243
		l2.828-2.828c1.166-1.167,3.076-1.167,4.242,0l5.843,5.842c1.166,1.167,3.075,1.167,4.242,0L34.054,2.374
		c1.167-1.166,3.075-1.166,4.242,0l2.828,2.828c1.167,1.166,1.167,3.076,0,4.242L19.53,31.038z"/>
	<path fill="none" stroke="#000000" stroke-width="3" stroke-linecap="round" stroke-linejoin="round" stroke-miterlimit="10" d="
		M19.53,31.038c-1.167,1.168-3.075,1.168-4.242,0L2.375,18.126c-1.167-1.168-1.166-3.076,0-4.243l2.828-2.828
		c1.166-1.167,3.076-1.167,4.242,0l5.843,5.842c1.166,1.167,3.075,1.167,4.242,0L34.054,2.374c1.167-1.166,3.075-1.166,4.242,0
		l2.828,2.828c1.167,1.166,1.167,3.076,0,4.242L19.53,31.038z"/>
</g>
</svg>
