<svg version="1.1" xmlns="http://www.w3.org/2000/svg" xmlns:xlink="http://www.w3.org/1999/xlink" x="0px" y="0px"
	 width="541.253px" height="542.574px" viewBox="0 0 541.253 542.574" enable-background="new 0 0 541.253 542.574"
	 xml:space="preserve">
<g class="cityword1" transform="translate(0,-350)">
	<path fill="#FF0000" stroke="#000000" stroke-width="6" stroke-miterlimit="10" d="M171.315,259.418
		c-4.459,0-8.909-1.766-12.213-5.262c-6.366-6.742-6.062-17.371,0.676-23.74c24.042-22.706,55.076-65.757,70.221-110.758
		c2.956-8.789,12.474-13.521,21.271-10.56c8.789,2.957,13.516,12.48,10.559,21.271c-16.99,50.49-51.914,98.893-78.986,124.463
		C179.597,257.896,175.452,259.418,171.315,259.418z"/>
	<circle cx="251.768" cy="112.244" r="1.979"/>
	<circle cx="243.947" cy="112.244" r="1.866"/>
	<circle cx="236.127" cy="112.244" r="1.752"/>
	<circle cx="259.587" cy="120.424" r="2.094"/>
	<circle cx="251.768" cy="120.424" r="1.979"/>
	<circle cx="243.947" cy="120.424" r="1.866"/>
	<circle cx="236.127" cy="120.424" r="1.752"/>
	<circle cx="228.308" cy="120.424" r="1.639"/>
	<circle cx="259.587" cy="128.604" r="2.094"/>
	<circle cx="251.768" cy="128.604" r="1.979"/>
	<circle cx="243.947" cy="128.604" r="1.866"/>
	<circle cx="236.127" cy="128.604" r="1.752"/>
	<circle cx="228.308" cy="128.604" r="1.639"/>
	<circle cx="259.587" cy="136.784" r="2.094"/>
	<circle cx="251.768" cy="136.784" r="1.979"/>
	<circle cx="243.947" cy="136.784" r="1.866"/>
	<circle cx="236.127" cy="136.784" r="1.752"/>
	<circle cx="228.308" cy="136.784" r="1.639"/>
	<circle cx="251.768" cy="144.964" r="1.979"/>
	<circle cx="243.947" cy="144.964" r="1.866"/>
	<circle cx="236.127" cy="144.964" r="1.752"/>
	<circle cx="228.308" cy="144.964" r="1.639"/>
	<circle cx="220.487" cy="144.964" r="1.525"/>
	<circle cx="251.768" cy="153.145" r="1.979"/>
	<circle cx="243.947" cy="153.145" r="1.866"/>
	<circle cx="236.127" cy="153.145" r="1.752"/>
	<circle cx="228.308" cy="153.145" r="1.639"/>
	<circle cx="220.487" cy="153.145" r="1.525"/>
	<circle cx="243.947" cy="161.325" r="1.866"/>
	<circle cx="236.127" cy="161.325" r="1.752"/>
	<circle cx="228.308" cy="161.325" r="1.639"/>
	<circle cx="220.487" cy="161.325" r="1.525"/>
	<circle cx="212.667" cy="161.325" r="1.41"/>
	<circle cx="243.947" cy="169.504" r="1.866"/>
	<circle cx="236.127" cy="169.504" r="1.752"/>
	<circle cx="228.308" cy="169.504" r="1.639"/>
	<circle cx="220.487" cy="169.504" r="1.525"/>
	<circle cx="212.667" cy="169.504" r="1.41"/>
	<circle cx="236.127" cy="177.685" r="1.752"/>
	<circle cx="220.487" cy="177.685" r="1.525"/>
	<circle cx="212.667" cy="177.685" r="1.41"/>
	<circle cx="204.847" cy="177.685" r="1.297"/>
	<circle cx="236.127" cy="185.866" r="1.752"/>
	<circle cx="220.487" cy="185.866" r="1.525"/>
	<circle cx="212.667" cy="185.866" r="1.41"/>
	<circle cx="204.847" cy="185.866" r="1.297"/>
	<circle cx="228.308" cy="194.045" r="1.639"/>
	<circle cx="220.487" cy="194.045" r="1.525"/>
	<circle cx="212.667" cy="194.045" r="1.41"/>
	<circle cx="204.847" cy="194.045" r="1.297"/>
	<circle cx="197.027" cy="194.045" r="1.183"/>
	<circle cx="220.487" cy="202.225" r="1.525"/>
	<circle cx="212.667" cy="202.225" r="1.41"/>
	<circle cx="204.847" cy="202.225" r="1.297"/>
	<circle cx="197.027" cy="202.225" r="1.183"/>
	<circle cx="189.207" cy="202.225" r="1.069"/>
	<circle cx="220.487" cy="210.406" r="1.525"/>
	<circle cx="212.667" cy="210.406" r="1.41"/>
	<circle cx="204.847" cy="210.406" r="1.297"/>
	<circle cx="197.027" cy="210.406" r="1.183"/>
	<circle cx="189.207" cy="210.406" r="1.069"/>
	<circle cx="181.387" cy="210.406" r="0.955"/>
	<circle cx="212.667" cy="218.586" r="1.41"/>
	<circle cx="204.847" cy="218.586" r="1.297"/>
	<circle cx="197.027" cy="218.586" r="1.183"/>
	<circle cx="189.207" cy="218.586" r="1.069"/>
	<circle cx="181.387" cy="218.586" r="0.955"/>
	<circle cx="173.567" cy="218.586" r="0.841"/>
	<circle cx="204.847" cy="226.766" r="1.297"/>
	<circle cx="197.027" cy="226.766" r="1.183"/>
	<circle cx="189.207" cy="226.766" r="1.069"/>
	<circle cx="181.387" cy="226.766" r="0.955"/>
	<circle cx="173.567" cy="226.766" r="0.841"/>
	<circle cx="165.747" cy="226.766" r="0.728"/>
	<circle cx="197.027" cy="234.946" r="1.183"/>
	<circle cx="189.207" cy="234.946" r="1.069"/>
	<circle cx="181.387" cy="234.946" r="0.955"/>
	<circle cx="173.567" cy="234.946" r="0.841"/>
	<circle cx="189.207" cy="243.126" r="1.069"/>
	<circle cx="228.308" cy="177.685" r="1.639"/>
	<circle cx="228.308" cy="185.865" r="1.639"/>
	<path fill="#FF0000" stroke="#000000" stroke-width="6" stroke-miterlimit="10" d="M159.103,254.156
		c6.352,6.762,15.222,8.744,19.814,4.434c4.595-4.314,3.168-13.291-3.183-20.049c-6.347-6.762-15.217-8.746-19.81-4.434
		S152.756,247.396,159.103,254.156z"/>
	<animateMotion from="0,0" to="0,350" begin="1.5s" dur="0.3s" fill="freeze" />
</g>
<g class="cityword2" transform="translate(-150,150)">
	<path fill="#FF0000" stroke="#000000" stroke-width="6" stroke-miterlimit="10" d="M20.694,224.512
		c-6.894,0-13.357-4.277-15.812-11.145c-3.121-8.734,1.428-18.343,10.161-21.468l62.698-22.41
		c8.726-3.117,18.341,1.426,21.465,10.16c3.12,8.733-1.427,18.342-10.161,21.466l-62.696,22.411
		C24.479,224.195,22.572,224.512,20.694,224.512z"/>
	
		<ellipse transform="matrix(-0.8974 0.4412 -0.4412 -0.8974 122.4544 391.1902)" fill="#FF0000" stroke="#000000" stroke-width="5.7791" stroke-miterlimit="10" cx="15.749" cy="209.831" rx="10.987" ry="16.175"/>
	<animateMotion from="0,0" to="150,-150" begin="1.5s" dur="0.3s" fill="freeze" />
</g>
<g class="cityword3" transform="translate(300,80)">
	<path fill="#FF0000" stroke="#000000" stroke-width="6" stroke-miterlimit="10" d="M321.89,295.539c-2.316,0-11.174,0-13.491,0
		c-17.351,0-31.422,14.068-31.422,31.424s14.071,31.426,31.422,31.426c2.317,0,11.175,0,13.491,0
		c17.358,0,31.426-14.07,31.426-31.426S339.248,295.539,321.89,295.539z"/>
	<path fill="#FF0000" stroke="#000000" stroke-width="6" stroke-miterlimit="10" d="M339.824,326.963
		c0,17.355-14.067,31.426-31.426,31.426c-17.351,0-31.422-14.07-31.422-31.426s14.071-31.424,31.422-31.424
		C325.757,295.539,339.824,309.607,339.824,326.963z"/>
	<animateMotion from="0,0" to="-300,-80" begin="1.5s" dur="0.3s" fill="freeze" />
</g>
<g class="cityword4" transform="translate(-150,0)">
	<path fill="#FF0000" stroke="#000000" stroke-width="6" stroke-miterlimit="10" d="M85.036,501.967H26.86
		c-9.275,0-16.792-7.518-16.792-16.791V392.35c0-9.275,7.517-16.793,16.792-16.793h52.588v-37.096H22.459
		c-9.273,0-16.791-7.52-16.791-16.793s7.518-16.793,16.791-16.793H96.24c9.273,0,16.794,7.52,16.794,16.793v70.682
		c0,9.273-7.521,16.791-16.794,16.791H43.652v59.242h41.384c3.714,0,9.599-7.178,11.566-11.086
		c4.173-8.285,14.267-11.617,22.553-7.443c8.282,4.172,11.615,14.268,7.445,22.551C125.076,475.43,110.963,501.967,85.036,501.967z"
		/>
	<g>
		<path fill="#FF0000" d="M14.931,336.4c-4.903,0-9.046-6.747-9.046-14.732c0-7.987,4.143-14.734,9.046-14.734
			c4.904,0,9.047,6.747,9.047,14.734C23.978,329.653,19.834,336.4,14.931,336.4z"/>
		<path d="M14.931,309.934c2.465,0,6.047,4.571,6.047,11.734c0,7.162-3.582,11.732-6.047,11.732s-6.046-4.57-6.046-11.732
			C8.885,314.505,12.465,309.934,14.931,309.934 M14.931,303.934c-6.653,0-12.046,7.939-12.046,17.734S8.277,339.4,14.931,339.4
			c6.655,0,12.047-7.938,12.047-17.732S21.586,303.934,14.931,303.934L14.931,303.934z"/>
	</g>
	<path fill="#FF0000" stroke="#000000" stroke-width="6" stroke-miterlimit="10" d="M119.943,450.514
		c-7.891-4.873-16.97-4.477-20.279,0.887c-3.311,5.359,0.405,13.654,8.295,18.525c7.894,4.871,16.974,4.477,20.284-0.885
		C131.553,463.682,127.837,455.385,119.943,450.514z"/>
	<animateMotion from="0,0" to="150,0" begin="1.5s" dur="0.3s" fill="freeze" />
</g>
<g class="cityword5" transform="translate(-300,-150)">
	<path fill="#FF0000" stroke="#000000" stroke-width="6" stroke-miterlimit="10" d="M406.759,90.866h-96.899
	c-9.659,0-17.493-7.834-17.493-17.494c0-9.661,7.834-17.493,17.493-17.493h96.899c9.66,0,15.489,7.832,15.489,17.493
	C422.248,83.032,416.419,90.866,406.759,90.866z"/>
	<animateMotion from="0,0" to="300,150" begin="1.5s" dur="0.3s" fill="freeze" />
</g>
<g class="cityword6" transform="translate(0,-150)">
	<path fill="#FF0000" stroke="#000000" stroke-width="6" stroke-miterlimit="10" d="M414.409,133.701
		c-9.661,0-17.495-7.831-17.495-17.491V28.39c0-9.662,7.834-17.494,17.495-17.494c9.66,0,17.492,7.832,17.492,17.494v87.819
		C431.901,125.87,424.069,133.701,414.409,133.701z"/>
	<g>
		<g>
			<circle cx="425.929" cy="14.082" r="1.069"/>
			<circle cx="418.108" cy="14.082" r="0.955"/>
			<circle cx="410.289" cy="14.082" r="0.841"/>
			<circle cx="402.468" cy="14.082" r="0.728"/>
		</g>
		<g>
			<circle cx="425.929" cy="22.262" r="1.069"/>
			<circle cx="418.108" cy="22.262" r="0.955"/>
			<circle cx="410.289" cy="22.262" r="0.841"/>
			<circle cx="402.468" cy="22.262" r="0.728"/>
		</g>
		<g>
			<circle cx="425.929" cy="30.442" r="1.069"/>
			<circle cx="418.108" cy="30.442" r="0.955"/>
			<circle cx="410.289" cy="30.442" r="0.841"/>
			<circle cx="402.468" cy="30.442" r="0.728"/>
		</g>
		<g>
			<circle cx="425.929" cy="38.622" r="1.069"/>
			<circle cx="418.108" cy="38.622" r="0.955"/>
			<circle cx="410.289" cy="38.622" r="0.841"/>
			<circle cx="402.468" cy="38.622" r="0.728"/>
		</g>
		<g>
			<circle cx="425.929" cy="46.802" r="1.069"/>
			<circle cx="418.108" cy="46.802" r="0.955"/>
			<circle cx="410.289" cy="46.802" r="0.841"/>
			<circle cx="402.468" cy="46.802" r="0.728"/>
		</g>
		<g>
			<circle cx="425.929" cy="54.983" r="1.069"/>
			<circle cx="418.108" cy="54.983" r="0.955"/>
			<circle cx="410.289" cy="54.983" r="0.841"/>
			<circle cx="402.468" cy="54.983" r="0.728"/>
		</g>
		<circle cx="425.929" cy="63.163" r="1.069"/>
		<circle cx="418.108" cy="63.163" r="0.955"/>
		<circle cx="410.289" cy="63.163" r="0.841"/>
		<circle cx="402.468" cy="63.163" r="0.728"/>
		<g>
			<circle cx="425.929" cy="71.342" r="1.069"/>
			<circle cx="410.289" cy="71.342" r="0.841"/>
			<circle cx="402.468" cy="71.342" r="0.728"/>
		</g>
		<g>
			<circle cx="425.929" cy="79.523" r="1.069"/>
			<circle cx="410.289" cy="79.523" r="0.841"/>
			<circle cx="402.468" cy="79.523" r="0.728"/>
		</g>
		<g>
			<circle cx="425.929" cy="87.704" r="1.069"/>
			<circle cx="418.108" cy="87.704" r="0.955"/>
			<circle cx="410.289" cy="87.704" r="0.841"/>
			<circle cx="402.468" cy="87.704" r="0.728"/>
		</g>
		<g>
			<g>
				<circle cx="425.929" cy="95.883" r="1.069"/>
				<circle cx="418.108" cy="95.883" r="0.955"/>
				<circle cx="410.289" cy="95.883" r="0.841"/>
				<circle cx="402.468" cy="95.883" r="0.728"/>
			</g>
			<g>
				<circle cx="425.929" cy="104.063" r="1.069"/>
				<circle cx="418.108" cy="104.063" r="0.955"/>
				<circle cx="410.289" cy="104.063" r="0.841"/>
				<circle cx="402.468" cy="104.063" r="0.728"/>
			</g>
		</g>
		<g>
			<circle cx="425.929" cy="120.424" r="1.069"/>
			<circle cx="418.108" cy="120.424" r="0.955"/>
			<circle cx="410.289" cy="120.424" r="0.841"/>
			<circle cx="402.468" cy="120.424" r="0.728"/>
		</g>
		<g>
			<circle cx="425.929" cy="128.604" r="1.069"/>
			<circle cx="418.108" cy="128.604" r="0.955"/>
			<circle cx="410.289" cy="128.604" r="0.841"/>
			<circle cx="402.468" cy="128.604" r="0.728"/>
		</g>
		<circle cx="410.289" cy="71.342" r="0.841"/>
		<circle cx="410.289" cy="79.523" r="0.841"/>
		<circle cx="418.108" cy="71.342" r="0.842"/>
		<circle cx="418.108" cy="79.523" r="0.842"/>
		<circle cx="418.108" cy="71.342" r="0.842"/>
		<circle cx="418.108" cy="79.523" r="0.842"/>
		<g>
			<g>
				<circle cx="425.929" cy="112.243" r="1.069"/>
				<circle cx="418.108" cy="112.243" r="0.955"/>
				<circle cx="410.289" cy="112.243" r="0.841"/>
				<circle cx="402.468" cy="112.243" r="0.728"/>
			</g>
		</g>
	</g>
	<animateMotion from="0,0" to="0,150" begin="1.5s" dur="0.3s" fill="freeze" />
</g>
<g class="cityword7" transform="translate(300,-150)">
	<g>
		<path fill="#FF0000" stroke="#000000" stroke-width="6" stroke-miterlimit="10" d="M523.764,90.866h-90.768
			c-9.659,0-15.489-7.834-15.489-17.494c0-9.661,5.83-17.493,15.489-17.493h90.768c9.66,0,14.489,7.832,14.489,17.493
			C538.253,83.032,533.424,90.866,523.764,90.866z"/>
		
			<ellipse fill="#FF0000" stroke="#000000" stroke-width="6" stroke-miterlimit="10" cx="526.845" cy="73.372" rx="11.408" ry="16.793"/>
	</g>
	<g>
		<g>
			<circle cx="511.949" cy="63.163" r="2.321"/>
			<circle cx="504.13" cy="63.163" r="2.208"/>
			<circle cx="496.309" cy="63.163" r="2.094"/>
			<circle cx="488.489" cy="63.163" r="1.979"/>
			<circle cx="480.669" cy="63.163" r="1.866"/>
			<circle cx="472.849" cy="63.163" r="1.752"/>
			<circle cx="465.029" cy="63.163" r="1.639"/>
			<circle cx="457.209" cy="63.163" r="1.525"/>
			<circle cx="449.389" cy="63.163" r="1.41"/>
			<circle cx="441.568" cy="63.163" r="1.297"/>
			<circle cx="433.749" cy="63.163" r="1.183"/>
			<circle cx="425.929" cy="63.163" r="1.069"/>
		</g>
		<g>
			<circle cx="511.949" cy="71.342" r="2.321"/>
			<circle cx="504.13" cy="71.342" r="2.208"/>
			<circle cx="496.309" cy="71.342" r="2.094"/>
			<circle cx="488.489" cy="71.342" r="1.979"/>
			<circle cx="480.669" cy="71.342" r="1.866"/>
			<circle cx="472.849" cy="71.342" r="1.752"/>
			<circle cx="465.029" cy="71.342" r="1.639"/>
			<circle cx="457.209" cy="71.342" r="1.525"/>
			<circle cx="449.389" cy="71.342" r="1.41"/>
			<circle cx="441.568" cy="71.342" r="1.297"/>
			<circle cx="433.749" cy="71.342" r="1.183"/>
			<circle cx="425.929" cy="71.342" r="1.069"/>
		</g>
		<g>
			<circle cx="511.949" cy="79.523" r="2.321"/>
			<circle cx="504.13" cy="79.523" r="2.208"/>
			<circle cx="496.309" cy="79.523" r="2.094"/>
			<circle cx="488.489" cy="79.523" r="1.979"/>
			<circle cx="480.669" cy="79.523" r="1.866"/>
			<circle cx="472.849" cy="79.523" r="1.752"/>
			<circle cx="465.029" cy="79.523" r="1.639"/>
			<circle cx="457.209" cy="79.523" r="1.525"/>
			<circle cx="449.389" cy="79.523" r="1.41"/>
			<circle cx="441.568" cy="79.523" r="1.297"/>
			<circle cx="433.749" cy="79.523" r="1.183"/>
			<circle cx="425.929" cy="79.523" r="1.069"/>
		</g>
		<g>
			<circle cx="511.949" cy="87.704" r="2.321"/>
			<circle cx="504.13" cy="87.704" r="2.208"/>
			<circle cx="496.309" cy="87.704" r="2.094"/>
			<circle cx="488.489" cy="87.704" r="1.979"/>
			<circle cx="480.669" cy="87.704" r="1.866"/>
			<circle cx="472.849" cy="87.704" r="1.752"/>
			<circle cx="465.029" cy="87.704" r="1.639"/>
			<circle cx="457.209" cy="87.704" r="1.525"/>
			<circle cx="449.389" cy="87.704" r="1.41"/>
			<circle cx="441.568" cy="87.704" r="1.297"/>
			<circle cx="433.749" cy="87.704" r="1.183"/>
		</g>
	</g>
	<animateMotion from="0,0" to="-300,150" begin="1.5s" dur="0.3s" fill="freeze" />
</g>
<g class="cityword8" transform="translate(-150,-150)">
	<g>
		<path fill="#FF0000" stroke="#000000" stroke-width="6" stroke-miterlimit="10" d="M86.998,110.68H68.836
		c-9.271,0-16.792-7.518-16.792-16.792c0-9.274,7.521-16.793,16.792-16.793h18.162c9.272,0,16.793,7.52,16.793,16.793
		C103.791,103.163,96.271,110.68,86.998,110.68z"/>
	</g>
	<g>
		<path fill="#FF0000" stroke="#000000" stroke-width="6" stroke-miterlimit="10" d="M52.046,193.96
			c-9.275,0-16.794-5.516-16.794-14.788V32.59c0-9.274,7.519-13.793,16.794-13.793c9.272,0,16.791,4.519,16.791,13.793v146.582
			C68.837,188.444,61.318,193.96,52.046,193.96z"/>
		
			<ellipse fill="#FF0000" stroke="#000000" stroke-width="6" stroke-miterlimit="10" cx="52.046" cy="30.205" rx="16.794" ry="11.408"/>
	</g>
	<g>
		<path fill="#FF0000" stroke="#000000" stroke-width="6" stroke-miterlimit="10" d="M37.377,110.68H16.791
			C7.519,110.68,3,103.163,3,93.888c0-9.274,4.519-16.793,13.791-16.793h20.586c9.272,0,14.792,7.52,14.792,16.793
			C52.169,103.163,46.649,110.68,37.377,110.68z"/>
		
			<ellipse fill="#FF0000" stroke="#000000" stroke-width="5.5704" stroke-miterlimit="10" cx="13.59" cy="93.888" rx="10.59" ry="15.59"/>
	</g>
	<animateMotion from="0,0" to="150,150" begin="1.5s" dur="0.3s" fill="freeze" />
</g>
<g class="cityword9" transform="translate(150,-300)">
	<path fill="#FF0000" stroke="#000000" stroke-width="6" stroke-miterlimit="10" d="M251.212,271.451
		c-1.874,0-3.823-0.223-5.855-0.697c-28.4-6.623-46.864-47.02-59.864-130.988c-8.571-55.353-11.136-108.358-11.238-110.586
		c-0.435-9.265,6.72-17.127,15.984-17.563c9.253-0.438,17.128,6.719,17.563,15.981c0.027,0.532,2.602,53.662,10.917,107.262
		c4.795,30.902,10.501,55.788,16.961,73.973c5.099,14.353,9.874,22.078,13.211,25.919c2.802-5.383,6.07-14.217,7.965-22.061
		c2.173-9.009,11.227-14.557,20.25-12.396c9.009,2.167,14.566,11.214,12.411,20.226
		C285.697,236.482,274.645,271.451,251.212,271.451z"/>
	<g>
		<g>
			<circle cx="197.027" cy="14.082" r="1.183"/>
			<circle cx="189.207" cy="14.082" r="1.069"/>
			<circle cx="181.387" cy="14.082" r="0.955"/>
		</g>
		<g>
			<circle cx="204.847" cy="22.262" r="1.297"/>
			<circle cx="197.027" cy="22.262" r="1.183"/>
			<circle cx="189.207" cy="22.262" r="1.069"/>
			<circle cx="181.387" cy="22.262" r="0.955"/>
		</g>
		<g>
			<circle cx="204.847" cy="30.442" r="1.297"/>
			<circle cx="197.027" cy="30.442" r="1.183"/>
			<circle cx="189.207" cy="30.442" r="1.069"/>
			<circle cx="181.387" cy="30.442" r="0.955"/>
		</g>
		<g>
			<circle cx="204.847" cy="38.622" r="1.297"/>
			<circle cx="197.027" cy="38.622" r="1.183"/>
			<circle cx="189.207" cy="38.622" r="1.069"/>
			<circle cx="181.387" cy="38.622" r="0.955"/>
		</g>
		<g>
			<circle cx="204.847" cy="46.802" r="1.297"/>
			<circle cx="197.027" cy="46.802" r="1.183"/>
			<circle cx="189.207" cy="46.802" r="1.069"/>
			<circle cx="181.387" cy="46.802" r="0.955"/>
		</g>
		<g>
			<circle cx="204.847" cy="54.983" r="1.297"/>
			<circle cx="197.027" cy="54.983" r="1.183"/>
			<circle cx="189.207" cy="54.983" r="1.069"/>
			<circle cx="181.387" cy="54.983" r="0.955"/>
		</g>
		<g>
			<circle cx="204.847" cy="63.163" r="1.297"/>
			<circle cx="197.027" cy="63.163" r="1.183"/>
			<circle cx="189.207" cy="63.163" r="1.069"/>
			<circle cx="181.387" cy="63.163" r="0.955"/>
		</g>
		<g>
			<circle cx="204.847" cy="71.342" r="1.297"/>
			<circle cx="197.027" cy="71.342" r="1.183"/>
			<circle cx="189.207" cy="71.342" r="1.069"/>
			<circle cx="181.387" cy="71.342" r="0.955"/>
		</g>
		<g>
			<circle cx="204.847" cy="79.523" r="1.297"/>
			<circle cx="197.027" cy="79.523" r="1.183"/>
			<circle cx="189.207" cy="79.523" r="1.069"/>
			<circle cx="181.387" cy="79.523" r="0.955"/>
		</g>
		<g>
			<circle cx="212.667" cy="87.704" r="1.41"/>
			<circle cx="204.847" cy="87.704" r="1.297"/>
			<circle cx="197.027" cy="87.704" r="1.183"/>
			<circle cx="189.207" cy="87.704" r="1.069"/>
			<circle cx="181.387" cy="87.704" r="0.955"/>
		</g>
		<g>
			<circle cx="204.847" cy="95.883" r="1.297"/>
			<circle cx="197.027" cy="95.883" r="1.183"/>
			<circle cx="189.207" cy="95.883" r="1.069"/>
		</g>
		<g>
			<circle cx="212.667" cy="104.063" r="1.41"/>
			<circle cx="204.847" cy="104.063" r="1.297"/>
			<circle cx="197.027" cy="104.063" r="1.183"/>
			<circle cx="189.207" cy="104.063" r="1.069"/>
		</g>
		<g>
			<circle cx="212.667" cy="112.244" r="1.41"/>
			<circle cx="204.847" cy="112.244" r="1.297"/>
			<circle cx="197.027" cy="112.244" r="1.183"/>
			<circle cx="189.207" cy="112.244" r="1.069"/>
		</g>
		<g>
			<circle cx="212.667" cy="120.424" r="1.41"/>
			<circle cx="204.847" cy="120.424" r="1.297"/>
			<circle cx="197.027" cy="120.424" r="1.183"/>
			<circle cx="189.207" cy="120.424" r="1.069"/>
		</g>
		<g>
			<circle cx="212.667" cy="128.604" r="1.41"/>
			<circle cx="204.847" cy="128.604" r="1.297"/>
			<circle cx="197.027" cy="128.604" r="1.183"/>
			<circle cx="189.207" cy="128.604" r="1.069"/>
		</g>
		<g>
			<circle cx="212.667" cy="136.784" r="1.41"/>
			<circle cx="204.847" cy="136.784" r="1.297"/>
			<circle cx="197.027" cy="136.784" r="1.183"/>
			<circle cx="189.207" cy="136.784" r="1.069"/>
		</g>
		<g>
			<circle cx="212.667" cy="144.964" r="1.41"/>
			<circle cx="204.847" cy="144.964" r="1.297"/>
			<circle cx="197.027" cy="144.964" r="1.183"/>
			<circle cx="189.207" cy="144.964" r="1.069"/>
		</g>
		<g>
			<circle cx="220.487" cy="153.145" r="1.525"/>
			<circle cx="212.667" cy="153.145" r="1.41"/>
			<circle cx="204.847" cy="153.145" r="1.297"/>
			<circle cx="197.027" cy="153.145" r="1.183"/>
			<circle cx="189.207" cy="153.145" r="1.069"/>
		</g>
		<g>
			<circle cx="220.487" cy="161.325" r="1.525"/>
			<circle cx="212.667" cy="161.325" r="1.41"/>
			<circle cx="204.847" cy="161.325" r="1.297"/>
			<circle cx="197.027" cy="161.325" r="1.183"/>
		</g>
		<g>
			<circle cx="220.487" cy="169.504" r="1.525"/>
			<circle cx="212.667" cy="169.504" r="1.41"/>
			<circle cx="204.847" cy="169.504" r="1.297"/>
			<circle cx="197.027" cy="169.504" r="1.183"/>
		</g>
		<g>
			<circle cx="220.487" cy="177.685" r="1.525"/>
			<circle cx="212.667" cy="177.685" r="1.41"/>
			<circle cx="204.847" cy="177.685" r="1.297"/>
			<circle cx="197.027" cy="177.685" r="1.183"/>
		</g>
		<g>
			<circle cx="220.487" cy="185.866" r="1.525"/>
			<circle cx="212.667" cy="185.866" r="1.41"/>
			<circle cx="204.847" cy="185.866" r="1.297"/>
			<circle cx="197.027" cy="185.866" r="1.183"/>
		</g>
		<g>
			<circle cx="228.308" cy="194.045" r="1.639"/>
			<circle cx="220.487" cy="194.045" r="1.525"/>
			<circle cx="212.667" cy="194.045" r="1.41"/>
			<circle cx="204.847" cy="194.045" r="1.297"/>
		</g>
		<g>
			<circle cx="228.308" cy="202.225" r="1.639"/>
			<circle cx="220.487" cy="202.225" r="1.525"/>
			<circle cx="212.667" cy="202.225" r="1.41"/>
			<circle cx="204.847" cy="202.225" r="1.297"/>
		</g>
		<g>
			<circle cx="228.308" cy="210.406" r="1.639"/>
			<circle cx="220.487" cy="210.406" r="1.525"/>
			<circle cx="212.667" cy="210.406" r="1.41"/>
			<circle cx="204.847" cy="210.406" r="1.297"/>
		</g>
		<g>
			<circle cx="259.587" cy="218.586" r="2.094"/>
			<circle cx="236.127" cy="218.586" r="1.752"/>
			<circle cx="228.308" cy="218.586" r="1.639"/>
			<circle cx="220.487" cy="218.586" r="1.525"/>
			<circle cx="212.667" cy="218.586" r="1.41"/>
		</g>
		<g>
			<circle cx="283.048" cy="226.766" r="2.436"/>
			<circle cx="275.228" cy="226.766" r="2.321"/>
			<circle cx="267.408" cy="226.766" r="2.208"/>
			<circle cx="259.587" cy="226.766" r="2.094"/>
			<circle cx="251.768" cy="226.766" r="1.979"/>
			<circle cx="236.127" cy="226.766" r="1.752"/>
			<circle cx="228.308" cy="226.766" r="1.639"/>
			<circle cx="220.487" cy="226.766" r="1.525"/>
			<circle cx="212.667" cy="226.766" r="1.41"/>
		</g>
		<g>
			<circle cx="283.048" cy="234.946" r="2.436"/>
			<circle cx="275.228" cy="234.946" r="2.321"/>
			<circle cx="267.408" cy="234.946" r="2.208"/>
			<circle cx="259.587" cy="234.946" r="2.094"/>
			<circle cx="251.768" cy="234.946" r="1.979"/>
			<circle cx="243.947" cy="234.946" r="1.866"/>
			<circle cx="236.127" cy="234.946" r="1.752"/>
			<circle cx="228.308" cy="234.946" r="1.639"/>
			<circle cx="220.487" cy="234.946" r="1.525"/>
			<circle cx="212.667" cy="234.946" r="1.41"/>
		</g>
		<g>
			<circle cx="283.048" cy="243.126" r="2.436"/>
			<circle cx="275.228" cy="243.126" r="2.321"/>
			<circle cx="267.408" cy="243.126" r="2.208"/>
			<circle cx="259.587" cy="243.126" r="2.094"/>
			<circle cx="251.768" cy="243.126" r="1.979"/>
			<circle cx="243.947" cy="243.126" r="1.866"/>
			<circle cx="236.127" cy="243.126" r="1.752"/>
			<circle cx="228.308" cy="243.126" r="1.639"/>
			<circle cx="220.487" cy="243.126" r="1.525"/>
		</g>
		<g>
			<circle cx="275.228" cy="251.307" r="2.321"/>
			<circle cx="267.408" cy="251.307" r="2.208"/>
			<circle cx="259.587" cy="251.307" r="2.094"/>
			<circle cx="251.768" cy="251.307" r="1.979"/>
			<circle cx="243.947" cy="251.307" r="1.866"/>
			<circle cx="236.127" cy="251.307" r="1.752"/>
			<circle cx="228.308" cy="251.307" r="1.639"/>
		</g>
		<g>
			<circle cx="267.408" cy="259.487" r="2.208"/>
			<circle cx="259.587" cy="259.487" r="2.094"/>
			<circle cx="251.768" cy="259.487" r="1.979"/>
			<circle cx="243.947" cy="259.487" r="1.866"/>
			<circle cx="236.127" cy="259.487" r="1.752"/>
			<circle cx="228.308" cy="259.487" r="1.639"/>
		</g>
		<g>
			<circle cx="259.587" cy="267.667" r="2.094"/>
			<circle cx="251.768" cy="267.667" r="1.979"/>
			<circle cx="243.947" cy="267.667" r="1.866"/>
		</g>
		<circle cx="228.308" cy="177.685" r="1.639"/>
		<circle cx="228.308" cy="185.865" r="1.639"/>
	</g>
	
	<ellipse transform="matrix(0.316 -0.9488 0.9488 0.316 -12.9896 405.0283)" fill="#FF0000" stroke="#000000" stroke-width="6" stroke-miterlimit="10" cx="274.4" cy="211.523" rx="11.407" ry="16.792"/>
	<animateMotion from="0,0" to="-150,300" begin="1.5s" dur="0.3s" fill="freeze" />
</g>
<g class="cityword10" transform="translate(-200,300)">
	<g>
		<path fill="#FF0000" stroke="#000000" stroke-width="6" stroke-miterlimit="10" d="M257.2,503.812
			c-62.194-31.311-85.673-106.234-89.741-145.57c-0.422-4.061-2.258-7.629-4.965-10.273c6.488-15.662,11.887-32.707,15.054-50.543
			c1.62-9.135-4.468-17.848-13.601-19.471c-9.135-1.615-17.847,4.467-19.47,13.6c-9.028,50.848-39.766,95.359-54.762,111.799
			c-6.254,6.848-5.768,17.469,1.087,23.721c3.218,2.939,7.272,4.387,11.313,4.387c4.557,0,9.096-1.844,12.409-5.475
			c6.851-7.51,15.833-19.072,24.955-33.6c3.878,15.988,10.267,35.807,20.779,56.475c19.847,39.021,47.38,67.604,81.836,84.951
			c2.423,1.217,4.999,1.795,7.536,1.795c6.146,0,12.062-3.381,15.017-9.244C268.816,518.078,265.481,507.982,257.2,503.812z"/>
		<g>
			<circle cx="165.747" cy="283.075" r="0.728"/>
			<circle cx="157.927" cy="283.075" r="0.614"/>
		</g>
		<g>
			<circle cx="173.567" cy="291.256" r="0.841"/>
			<circle cx="165.747" cy="291.256" r="0.728"/>
			<circle cx="157.927" cy="291.256" r="0.614"/>
		</g>
		<g>
			<circle cx="173.567" cy="299.436" r="0.841"/>
			<circle cx="165.747" cy="299.436" r="0.728"/>
			<circle cx="157.927" cy="299.436" r="0.614"/>
		</g>
		<g>
			<circle cx="165.747" cy="307.615" r="0.728"/>
			<circle cx="157.927" cy="307.615" r="0.614"/>
		</g>
		<circle cx="165.747" cy="315.796" r="0.728"/>
		<circle cx="157.927" cy="315.796" r="0.614"/>
		<circle cx="165.747" cy="323.977" r="0.728"/>
		<circle cx="157.927" cy="323.977" r="0.614"/>
		<circle cx="165.747" cy="332.156" r="0.728"/>
		<circle cx="157.927" cy="332.156" r="0.614"/>
		<circle cx="165.747" cy="340.336" r="0.728"/>
		<circle cx="157.927" cy="340.336" r="0.614"/>
		<circle cx="165.747" cy="348.517" r="0.728"/>
		<circle cx="157.927" cy="348.517" r="0.614"/>
		<circle cx="165.747" cy="356.697" r="0.728"/>
		<circle cx="157.927" cy="356.697" r="0.614"/>
		<circle cx="165.747" cy="364.877" r="0.728"/>
		<circle cx="157.927" cy="364.877" r="0.614"/>
		<circle cx="165.747" cy="373.057" r="0.728"/>
		<circle cx="157.927" cy="373.057" r="0.614"/>
		<circle cx="165.747" cy="381.237" r="0.728"/>
		<circle cx="157.927" cy="381.237" r="0.614"/>
		<circle cx="165.747" cy="389.418" r="0.728"/>
		<circle cx="157.927" cy="389.418" r="0.614"/>
		<circle cx="165.747" cy="397.598" r="0.728"/>
		<circle cx="157.927" cy="397.598" r="0.614"/>
		<circle cx="173.567" cy="405.777" r="0.841"/>
		<circle cx="165.747" cy="405.777" r="0.728"/>
		<circle cx="157.927" cy="405.777" r="0.614"/>
		<circle cx="173.567" cy="413.958" r="0.841"/>
		<circle cx="165.747" cy="413.958" r="0.728"/>
		<circle cx="157.927" cy="413.958" r="0.614"/>
		<circle cx="181.387" cy="422.139" r="0.955"/>
		<circle cx="173.567" cy="422.139" r="0.841"/>
		<circle cx="165.747" cy="422.139" r="0.728"/>
		<circle cx="157.927" cy="422.139" r="0.614"/>
		<circle cx="181.387" cy="430.318" r="0.955"/>
		<circle cx="173.567" cy="430.318" r="0.841"/>
		<circle cx="165.747" cy="430.318" r="0.728"/>
		<circle cx="157.927" cy="430.318" r="0.614"/>
		<g>
			<circle cx="189.207" cy="438.498" r="1.069"/>
			<circle cx="181.387" cy="438.498" r="0.955"/>
			<circle cx="173.567" cy="438.498" r="0.841"/>
			<circle cx="165.747" cy="438.498" r="0.728"/>
		</g>
		<g>
			<circle cx="189.207" cy="446.679" r="1.069"/>
			<circle cx="173.567" cy="446.679" r="0.841"/>
			<circle cx="165.747" cy="446.679" r="0.728"/>
		</g>
		<g>
			<circle cx="197.027" cy="454.859" r="1.183"/>
			<circle cx="189.207" cy="454.859" r="1.069"/>
			<circle cx="181.387" cy="454.859" r="0.955"/>
		</g>
		<g>
			<circle cx="204.847" cy="463.039" r="1.297"/>
			<circle cx="197.027" cy="463.039" r="1.183"/>
			<circle cx="189.207" cy="463.039" r="1.069"/>
			<circle cx="181.387" cy="463.039" r="0.955"/>
			<circle cx="173.567" cy="463.039" r="0.841"/>
		</g>
		<circle cx="212.667" cy="471.219" r="1.41"/>
		<circle cx="204.847" cy="471.219" r="1.297"/>
		<circle cx="197.027" cy="471.219" r="1.183"/>
		<circle cx="189.207" cy="471.219" r="1.069"/>
		<circle cx="181.387" cy="471.219" r="0.955"/>
		<circle cx="220.487" cy="479.399" r="1.525"/>
		<circle cx="212.667" cy="479.399" r="1.41"/>
		<circle cx="204.847" cy="479.399" r="1.297"/>
		<circle cx="189.207" cy="479.399" r="1.069"/>
		<circle cx="228.308" cy="487.58" r="1.639"/>
		<circle cx="220.487" cy="487.58" r="1.525"/>
		<circle cx="212.667" cy="487.58" r="1.41"/>
		<circle cx="204.847" cy="487.58" r="1.297"/>
		<circle cx="197.027" cy="487.58" r="1.183"/>
		<circle cx="236.127" cy="495.76" r="1.752"/>
		<circle cx="228.308" cy="495.76" r="1.639"/>
		<circle cx="220.487" cy="495.76" r="1.525"/>
		<circle cx="212.667" cy="495.76" r="1.41"/>
		<circle cx="204.847" cy="495.76" r="1.297"/>
		<circle cx="197.027" cy="495.76" r="1.183"/>
		<circle cx="251.768" cy="503.939" r="1.979"/>
		<circle cx="243.947" cy="503.939" r="1.866"/>
		<circle cx="236.127" cy="503.939" r="1.752"/>
		<circle cx="228.308" cy="503.939" r="1.639"/>
		<circle cx="220.487" cy="503.939" r="1.525"/>
		<circle cx="212.667" cy="503.939" r="1.41"/>
		<circle cx="204.847" cy="503.939" r="1.297"/>
		<circle cx="259.587" cy="512.12" r="2.094"/>
		<circle cx="251.768" cy="512.12" r="1.979"/>
		<circle cx="243.947" cy="512.12" r="1.866"/>
		<circle cx="236.127" cy="512.12" r="1.752"/>
		<circle cx="228.308" cy="512.12" r="1.639"/>
		<circle cx="220.487" cy="512.12" r="1.525"/>
		<circle cx="212.667" cy="512.12" r="1.41"/>
		<g>
			<circle cx="259.587" cy="520.301" r="2.094"/>
			<circle cx="251.768" cy="520.301" r="1.979"/>
			<circle cx="243.947" cy="520.301" r="1.866"/>
			<circle cx="236.127" cy="520.301" r="1.752"/>
			<circle cx="228.308" cy="520.301" r="1.639"/>
		</g>
		<g>
			<circle cx="259.587" cy="528.48" r="2.094"/>
			<circle cx="251.768" cy="528.48" r="1.979"/>
			<circle cx="243.947" cy="528.48" r="1.866"/>
			<circle cx="236.127" cy="528.48" r="1.752"/>
		</g>
	</g>
	<path fill="#FF0000" stroke="#000000" stroke-width="5.8452" stroke-miterlimit="10" d="M89.705,426.276
		c6.186,6.587,14.828,8.52,19.302,4.316s3.086-12.945-3.102-19.531c-6.182-6.587-14.824-8.519-19.297-4.319
		C82.135,410.945,83.521,419.688,89.705,426.276z"/>
	<animateMotion from="0,0" to="200,-300" begin="1.5s" dur="0.3s" fill="freeze" />
</g>
<g class="cityword11" transform="translate(250,0)">
	<g>
		<path fill="#FF0000" stroke="#000000" stroke-width="6" stroke-miterlimit="10" d="M502.352,113.125H326.466
			c-9.66,0-17.494,7.833-17.494,17.494v89.919c0,9.662,7.834,17.492,17.494,17.492s17.492-7.83,17.492-17.492v-72.425h140.901v53.18
			c-5.015-0.263-11.575-0.774-18.345-1.305l-0.139-0.01c-9.651-0.765-18.052,6.445-18.805,16.078
			c-0.752,9.631,6.446,18.049,16.079,18.801l0.143,0.012c11.125,0.869,19.562,1.527,26.248,1.527
			c10.618,0,16.816-1.662,22.354-6.785c7.449-6.889,7.449-15.939,7.449-18.914v-80.078
			C519.845,120.957,512.012,113.125,502.352,113.125z"/>
		<path fill="#FF0000" stroke="#000000" stroke-width="6" stroke-miterlimit="10" d="M447.529,215.637
			c-0.737,9.246,3.758,17.145,10.037,17.646c6.284,0.502,11.97-6.588,12.705-15.834c0.738-9.244-3.755-17.142-10.034-17.646
			C453.957,199.304,448.268,206.391,447.529,215.637z"/>
	</g>
	<g>
		<g>
			<circle cx="511.949" cy="120.424" r="2.321"/>
			<circle cx="504.13" cy="120.424" r="2.208"/>
			<circle cx="496.309" cy="120.424" r="2.094"/>
			<circle cx="488.489" cy="120.424" r="1.979"/>
			<circle cx="480.669" cy="120.424" r="1.866"/>
			<circle cx="472.849" cy="120.424" r="1.752"/>
			<circle cx="465.029" cy="120.424" r="1.639"/>
			<circle cx="457.209" cy="120.424" r="1.525"/>
			<circle cx="449.389" cy="120.424" r="1.41"/>
			<circle cx="441.568" cy="120.424" r="1.297"/>
			<circle cx="433.749" cy="120.424" r="1.183"/>
			<circle cx="425.929" cy="120.424" r="1.069"/>
			<circle cx="418.108" cy="120.424" r="0.955"/>
			<circle cx="410.289" cy="120.424" r="0.841"/>
			<circle cx="402.468" cy="120.424" r="0.728"/>
			<circle cx="394.648" cy="120.424" r="0.614"/>
		</g>
		<g>
			<circle cx="511.949" cy="128.604" r="2.321"/>
			<circle cx="504.13" cy="128.604" r="2.208"/>
			<circle cx="496.309" cy="128.604" r="2.094"/>
			<circle cx="488.489" cy="128.604" r="1.979"/>
			<circle cx="480.669" cy="128.604" r="1.866"/>
			<circle cx="472.849" cy="128.604" r="1.752"/>
			<circle cx="465.029" cy="128.604" r="1.639"/>
			<circle cx="457.209" cy="128.604" r="1.525"/>
			<circle cx="449.389" cy="128.604" r="1.41"/>
			<circle cx="441.568" cy="128.604" r="1.297"/>
			<circle cx="433.749" cy="128.604" r="1.183"/>
			<circle cx="425.929" cy="128.604" r="1.069"/>
			<circle cx="418.108" cy="128.604" r="0.955"/>
			<circle cx="410.289" cy="128.604" r="0.841"/>
			<circle cx="402.468" cy="128.604" r="0.728"/>
			<circle cx="394.648" cy="128.604" r="0.614"/>
		</g>
		<g>
			<circle cx="511.949" cy="136.784" r="2.321"/>
			<circle cx="504.13" cy="136.784" r="2.208"/>
			<circle cx="496.309" cy="136.784" r="2.094"/>
			<circle cx="488.489" cy="136.784" r="1.979"/>
			<circle cx="480.669" cy="136.784" r="1.866"/>
			<circle cx="472.849" cy="136.784" r="1.752"/>
			<circle cx="465.029" cy="136.784" r="1.639"/>
			<circle cx="457.209" cy="136.784" r="1.525"/>
			<circle cx="449.389" cy="136.784" r="1.41"/>
			<circle cx="441.568" cy="136.784" r="1.297"/>
			<circle cx="433.749" cy="136.784" r="1.183"/>
			<circle cx="425.929" cy="136.784" r="1.069"/>
			<circle cx="418.108" cy="136.784" r="0.955"/>
			<circle cx="410.289" cy="136.784" r="0.841"/>
			<circle cx="402.468" cy="136.784" r="0.728"/>
			<circle cx="394.648" cy="136.784" r="0.614"/>
		</g>
		<g>
			<circle cx="511.949" cy="144.964" r="2.321"/>
			<circle cx="504.13" cy="144.964" r="2.208"/>
			<circle cx="496.309" cy="144.964" r="2.094"/>
			<circle cx="488.489" cy="144.964" r="1.979"/>
			<circle cx="480.669" cy="144.964" r="1.866"/>
			<circle cx="472.849" cy="144.964" r="1.752"/>
			<circle cx="465.029" cy="144.964" r="1.639"/>
			<circle cx="457.209" cy="144.964" r="1.525"/>
			<circle cx="449.389" cy="144.964" r="1.41"/>
			<circle cx="441.568" cy="144.964" r="1.297"/>
			<circle cx="433.749" cy="144.964" r="1.183"/>
			<circle cx="425.929" cy="144.964" r="1.069"/>
			<circle cx="418.108" cy="144.964" r="0.955"/>
			<circle cx="410.289" cy="144.964" r="0.841"/>
			<circle cx="402.468" cy="144.964" r="0.728"/>
			<circle cx="394.648" cy="144.964" r="0.614"/>
		</g>
		<g>
			<circle cx="511.949" cy="153.145" r="2.321"/>
			<circle cx="504.13" cy="153.145" r="2.208"/>
			<circle cx="496.309" cy="153.145" r="2.094"/>
			<circle cx="488.489" cy="153.145" r="1.979"/>
		</g>
		<g>
			<circle cx="511.949" cy="161.325" r="2.321"/>
			<circle cx="504.13" cy="161.325" r="2.208"/>
			<circle cx="496.309" cy="161.325" r="2.094"/>
			<circle cx="488.489" cy="161.325" r="1.979"/>
		</g>
		<g>
			<circle cx="511.949" cy="169.504" r="2.321"/>
			<circle cx="504.13" cy="169.504" r="2.208"/>
			<circle cx="496.309" cy="169.504" r="2.094"/>
			<circle cx="488.489" cy="169.504" r="1.979"/>
		</g>
		<g>
			<circle cx="511.949" cy="177.685" r="2.321"/>
			<circle cx="504.13" cy="177.685" r="2.208"/>
			<circle cx="496.309" cy="177.685" r="2.094"/>
			<circle cx="488.489" cy="177.685" r="1.979"/>
		</g>
		<g>
			<circle cx="511.949" cy="185.866" r="2.321"/>
			<circle cx="504.13" cy="185.866" r="2.208"/>
			<circle cx="496.309" cy="185.866" r="2.094"/>
			<circle cx="488.489" cy="185.866" r="1.979"/>
		</g>
		<g>
			<circle cx="511.949" cy="194.045" r="2.321"/>
			<circle cx="504.13" cy="194.045" r="2.208"/>
			<circle cx="496.309" cy="194.045" r="2.094"/>
			<circle cx="488.489" cy="194.045" r="1.979"/>
		</g>
		<g>
			<circle cx="511.949" cy="202.225" r="2.321"/>
			<circle cx="504.13" cy="202.225" r="2.208"/>
			<circle cx="496.309" cy="202.225" r="2.094"/>
			<circle cx="488.489" cy="202.225" r="1.979"/>
			<circle cx="480.669" cy="202.225" r="1.866"/>
			<circle cx="472.849" cy="202.225" r="1.752"/>
		</g>
		<g>
			<circle cx="511.949" cy="210.406" r="2.321"/>
			<circle cx="504.13" cy="210.406" r="2.208"/>
			<circle cx="496.309" cy="210.406" r="2.094"/>
			<circle cx="488.489" cy="210.406" r="1.979"/>
			<circle cx="480.669" cy="210.406" r="1.866"/>
			<circle cx="472.849" cy="210.406" r="1.752"/>
		</g>
		<g>
			<circle cx="511.949" cy="218.586" r="2.321"/>
			<circle cx="504.13" cy="218.586" r="2.208"/>
			<circle cx="496.309" cy="218.586" r="2.094"/>
			<circle cx="488.489" cy="218.586" r="1.979"/>
			<circle cx="480.669" cy="218.586" r="1.866"/>
			<circle cx="472.849" cy="218.586" r="1.752"/>
		</g>
		<g>
			<circle cx="511.949" cy="226.766" r="2.321"/>
			<circle cx="504.13" cy="226.766" r="2.208"/>
			<circle cx="496.309" cy="226.766" r="2.094"/>
			<circle cx="488.489" cy="226.766" r="1.979"/>
			<circle cx="480.669" cy="226.766" r="1.866"/>
			<circle cx="472.849" cy="226.766" r="1.752"/>
		</g>
	</g>
	<animateMotion from="0,0" to="-250,0" begin="1.5s" dur="0.3s" fill="freeze" />
</g>
<g class="cityword12" transform="translate(-300,0)">
	<g>
		<path fill="#FF0000" stroke="#000000" stroke-width="6" stroke-miterlimit="10" d="M81.582,269.279
			c-3.866,0-7.754-1.328-10.922-4.041c-7.043-6.037-7.854-16.637-1.819-23.678c9.909-11.566,26.539-38.128,26.539-86.1V73.372
			c0-9.274,7.52-16.793,16.795-16.793h142.276c9.273,0,16.794,7.519,16.794,16.793c0,9.275-7.521,16.794-16.794,16.794H128.967
			v65.294c0,58.782-21.695,92.868-34.628,107.956C91.02,267.289,86.312,269.279,81.582,269.279z"/>
		<path fill="#FF0000" stroke="#000000" stroke-width="6" stroke-miterlimit="10" d="M70.66,265.238
			c7.21,5.838,16.269,6.6,20.232,1.705c3.966-4.896,1.336-13.598-5.873-19.434c-7.204-5.838-16.26-6.602-20.227-1.705
			C60.829,250.699,63.454,259.398,70.66,265.238z"/>
	</g>
	<g>
		<circle cx="267.408" cy="63.163" r="2.208"/>
		<circle cx="259.587" cy="63.163" r="2.094"/>
		<circle cx="251.768" cy="63.163" r="1.979"/>
		<circle cx="243.947" cy="63.163" r="1.866"/>
		<circle cx="236.127" cy="63.163" r="1.752"/>
		<circle cx="228.308" cy="63.163" r="1.639"/>
		<circle cx="220.487" cy="63.163" r="1.525"/>
		<circle cx="212.667" cy="63.163" r="1.41"/>
		<circle cx="204.847" cy="63.163" r="1.297"/>
		<circle cx="197.027" cy="63.163" r="1.183"/>
		<circle cx="189.207" cy="63.163" r="1.069"/>
		<circle cx="181.387" cy="63.163" r="0.955"/>
		<circle cx="173.567" cy="63.163" r="0.841"/>
		<circle cx="165.747" cy="63.163" r="0.728"/>
		<circle cx="157.927" cy="63.163" r="0.614"/>
	</g>
	<g>
		<circle cx="267.408" cy="71.342" r="2.208"/>
		<circle cx="259.587" cy="71.342" r="2.094"/>
		<circle cx="251.768" cy="71.342" r="1.979"/>
		<circle cx="243.947" cy="71.342" r="1.866"/>
		<circle cx="236.127" cy="71.342" r="1.752"/>
		<circle cx="228.308" cy="71.342" r="1.639"/>
		<circle cx="220.487" cy="71.342" r="1.525"/>
		<circle cx="212.667" cy="71.342" r="1.41"/>
		<circle cx="204.847" cy="71.342" r="1.297"/>
		<circle cx="197.027" cy="71.342" r="1.183"/>
		<circle cx="189.207" cy="71.342" r="1.069"/>
		<circle cx="181.387" cy="71.342" r="0.955"/>
		<circle cx="173.567" cy="71.342" r="0.841"/>
		<circle cx="165.747" cy="71.342" r="0.728"/>
		<circle cx="157.927" cy="71.342" r="0.614"/>
	</g>
	<g>
		<circle cx="267.408" cy="79.523" r="2.208"/>
		<circle cx="259.587" cy="79.523" r="2.094"/>
		<circle cx="251.768" cy="79.523" r="1.979"/>
		<circle cx="243.947" cy="79.523" r="1.866"/>
		<circle cx="236.127" cy="79.523" r="1.752"/>
		<circle cx="228.308" cy="79.523" r="1.639"/>
		<circle cx="220.487" cy="79.523" r="1.525"/>
		<circle cx="212.667" cy="79.523" r="1.41"/>
		<circle cx="204.847" cy="79.523" r="1.297"/>
		<circle cx="197.027" cy="79.523" r="1.183"/>
		<circle cx="189.207" cy="79.523" r="1.069"/>
		<circle cx="181.387" cy="79.523" r="0.955"/>
		<circle cx="173.567" cy="79.523" r="0.841"/>
		<circle cx="165.747" cy="79.523" r="0.728"/>
		<circle cx="157.927" cy="79.523" r="0.614"/>
	</g>
	<g>
		<circle cx="259.587" cy="87.704" r="2.094"/>
		<circle cx="251.768" cy="87.704" r="1.979"/>
		<circle cx="243.947" cy="87.704" r="1.866"/>
		<circle cx="236.127" cy="87.704" r="1.752"/>
		<circle cx="228.308" cy="87.704" r="1.639"/>
		<circle cx="220.487" cy="87.704" r="1.525"/>
		<circle cx="212.667" cy="87.704" r="1.41"/>
		<circle cx="204.847" cy="87.704" r="1.297"/>
		<circle cx="197.027" cy="87.704" r="1.183"/>
		<circle cx="189.207" cy="87.704" r="1.069"/>
		<circle cx="181.387" cy="87.704" r="0.955"/>
		<circle cx="173.567" cy="87.704" r="0.841"/>
		<circle cx="165.747" cy="87.704" r="0.728"/>
		<circle cx="157.927" cy="87.704" r="0.614"/>
	</g>
	<animateMotion from="0,0" to="300,0" begin="1.5s" dur="0.3s" fill="freeze" />
</g>
<g class="cityword13" transform="translate(-100,-250)">
	<path fill="#FF0000" stroke="#000000" stroke-width="6" stroke-miterlimit="10" d="M150.852,215.643
		c-2.867,0-5.771-0.738-8.429-2.283c-8.017-4.664-9.808-14.942-5.141-22.958c3.42-5.881,3.42-18.032,3.42-26.072
		c0-4.933-0.023-14.218-0.047-22.523h-14.278c-9.272,0-14.794-7.518-14.794-16.792c0-9.273,5.521-16.793,14.794-16.793h30.09
		c9.255,0,16.764,7.483,16.795,16.737c0,0,0.099,29.098,0.099,39.372c0,11.648,0,29.25-7.979,42.959
		C162.268,212.652,156.638,215.643,150.852,215.643z"/>
	<circle cx="157.927" cy="112.244" r="0.614"/>
	<circle cx="165.747" cy="120.424" r="0.728"/>
	<circle cx="157.927" cy="120.424" r="0.614"/>
	<circle cx="165.747" cy="128.604" r="0.728"/>
	<circle cx="157.927" cy="128.604" r="0.614"/>
	<circle cx="165.747" cy="136.784" r="0.728"/>
	<circle cx="157.927" cy="136.784" r="0.614"/>
	<circle cx="165.747" cy="144.964" r="0.728"/>
	<circle cx="157.927" cy="144.964" r="0.614"/>
	<circle cx="165.747" cy="153.145" r="0.728"/>
	<circle cx="157.927" cy="153.145" r="0.614"/>
	<circle cx="165.747" cy="161.325" r="0.728"/>
	<circle cx="157.927" cy="161.325" r="0.614"/>
	<circle cx="165.747" cy="169.504" r="0.728"/>
	<circle cx="157.927" cy="169.504" r="0.614"/>
	<circle cx="165.747" cy="177.685" r="0.728"/>
	<circle cx="157.927" cy="177.685" r="0.614"/>
	<circle cx="165.747" cy="185.866" r="0.728"/>
	<circle cx="157.927" cy="185.866" r="0.614"/>
	<circle cx="165.747" cy="194.045" r="0.728"/>
	<circle cx="157.927" cy="194.045" r="0.614"/>
	<path fill="#FF0000" stroke="#000000" stroke-width="6" stroke-miterlimit="10" d="M144.379,214.715
		c7.898,3.178,16.05,1.404,18.208-3.958c2.159-5.365-2.492-12.288-10.392-15.464c-7.894-3.179-16.045-1.407-18.204,3.957
		C131.834,204.613,136.482,211.535,144.379,214.715z"/>

	<animateMotion from="0,0" to="100,250" begin="1.5s" dur="0.3s" fill="freeze" />
</g>
<g class="cityword14" transform="translate(150,100)">
	<g>
		<path fill="#FF0000" stroke="#000000" stroke-width="6" stroke-miterlimit="10" d="M414.409,267.014
			c-9.661,0-17.495-4.831-17.495-14.489v-103.92c0-9.662,7.834-15.493,17.495-15.493c9.66,0,17.492,5.831,17.492,15.493v103.92
			C431.901,262.183,424.069,267.014,414.409,267.014z"/>
		
			<ellipse fill="#FF0000" stroke="#000000" stroke-width="6" stroke-miterlimit="10" cx="414.409" cy="255.606" rx="16.794" ry="11.407"/>
	</g>
	<g>
		<g>
			<circle cx="425.929" cy="136.897" r="1.069"/>
			<circle cx="418.108" cy="136.897" r="0.955"/>
			<circle cx="410.289" cy="136.897" r="0.841"/>
			<circle cx="402.468" cy="136.897" r="0.728"/>
		</g>
		<g>
			<circle cx="425.929" cy="145.078" r="1.069"/>
			<circle cx="418.108" cy="145.078" r="0.955"/>
			<circle cx="410.289" cy="145.078" r="0.841"/>
			<circle cx="402.468" cy="145.078" r="0.728"/>
		</g>
		<g>
			<circle cx="425.929" cy="153.258" r="1.069"/>
			<circle cx="418.108" cy="153.258" r="0.955"/>
			<circle cx="410.289" cy="153.258" r="0.841"/>
			<circle cx="402.468" cy="153.258" r="0.728"/>
		</g>
		<g>
			<circle cx="425.929" cy="161.438" r="1.069"/>
			<circle cx="418.108" cy="161.438" r="0.955"/>
			<circle cx="410.289" cy="161.438" r="0.841"/>
			<circle cx="402.468" cy="161.438" r="0.728"/>
		</g>
		<g>
			<circle cx="425.929" cy="169.618" r="1.069"/>
			<circle cx="418.108" cy="169.618" r="0.955"/>
			<circle cx="410.289" cy="169.618" r="0.841"/>
			<circle cx="402.468" cy="169.618" r="0.728"/>
		</g>
		<g>
			<circle cx="425.929" cy="177.799" r="1.069"/>
			<circle cx="418.108" cy="177.799" r="0.955"/>
			<circle cx="410.289" cy="177.799" r="0.841"/>
			<circle cx="402.468" cy="177.799" r="0.728"/>
		</g>
		<circle cx="425.929" cy="185.979" r="1.069"/>
		<circle cx="418.108" cy="185.979" r="0.955"/>
		<circle cx="410.289" cy="185.979" r="0.841"/>
		<circle cx="402.468" cy="185.979" r="0.728"/>
		<g>
			<circle cx="425.929" cy="194.158" r="1.069"/>
			<circle cx="410.289" cy="194.158" r="0.841"/>
			<circle cx="402.468" cy="194.158" r="0.728"/>
		</g>
		<g>
			<circle cx="425.929" cy="202.339" r="1.069"/>
			<circle cx="410.289" cy="202.339" r="0.841"/>
			<circle cx="402.468" cy="202.339" r="0.728"/>
		</g>
		<g>
			<circle cx="425.929" cy="210.52" r="1.069"/>
			<circle cx="418.108" cy="210.52" r="0.955"/>
			<circle cx="410.289" cy="210.52" r="0.841"/>
			<circle cx="402.468" cy="210.52" r="0.728"/>
		</g>
		<g>
			<g>
				<circle cx="425.929" cy="218.699" r="1.069"/>
				<circle cx="418.108" cy="218.699" r="0.955"/>
				<circle cx="410.289" cy="218.699" r="0.841"/>
				<circle cx="402.468" cy="218.699" r="0.728"/>
			</g>
			<g>
				<circle cx="425.929" cy="226.879" r="1.069"/>
				<circle cx="418.108" cy="226.879" r="0.955"/>
				<circle cx="410.289" cy="226.879" r="0.841"/>
				<circle cx="402.468" cy="226.879" r="0.728"/>
			</g>
		</g>
		<g>
			<circle cx="425.929" cy="243.24" r="1.069"/>
			<circle cx="418.108" cy="243.24" r="0.955"/>
			<circle cx="410.289" cy="243.24" r="0.841"/>
			<circle cx="402.468" cy="243.24" r="0.728"/>
		</g>
		<circle cx="410.289" cy="194.158" r="0.841"/>
		<circle cx="410.289" cy="202.339" r="0.841"/>
		<circle cx="418.108" cy="194.158" r="0.842"/>
		<circle cx="418.108" cy="202.339" r="0.842"/>
		<circle cx="418.108" cy="194.158" r="0.842"/>
		<circle cx="418.108" cy="202.339" r="0.842"/>
		<g>
			<g>
				<circle cx="425.929" cy="235.059" r="1.069"/>
				<circle cx="418.108" cy="235.059" r="0.955"/>
				<circle cx="410.289" cy="235.059" r="0.841"/>
				<circle cx="402.468" cy="235.059" r="0.728"/>
			</g>
		</g>
	</g>
	<animateMotion from="0,0" to="-150,-100" begin="1.5s" dur="0.3s" fill="freeze" />
</g>
<g class="cityword15" transform="translate(200,0)">
	<g>
		<path fill="#FF0000" stroke="#000000" stroke-width="6" stroke-miterlimit="10" d="M366.131,359.221
			c-4.459,0-8.907-1.764-12.212-5.262c-6.366-6.742-6.064-17.373,0.68-23.74c8.008-7.564,20.126-27.477,22.355-36.736
			c2.17-9.016,11.232-14.559,20.257-12.396c9.017,2.172,14.568,11.24,12.396,20.258c-3.771,15.66-18.998,41.061-31.949,53.295
			C374.414,357.703,370.268,359.221,366.131,359.221z"/>
		<path fill="#FF0000" stroke="#000000" stroke-width="6" stroke-miterlimit="10" d="M391.189,303.064
			c8.667,3.307,17.513,1.211,19.758-4.674c2.246-5.891-2.959-13.338-11.628-16.643c-8.662-3.305-17.506-1.213-19.753,4.672
			C377.321,292.307,382.525,299.758,391.189,303.064z"/>
	</g>
	<g>
		<path fill="#FF0000" stroke="#000000" stroke-width="6" stroke-miterlimit="10" d="M430.157,348.564h-33.599
		c-8.649,0-13.66-7.012-13.66-15.66c0-8.65,5.011-15.662,13.66-15.662h33.599c8.649,0,15.662,7.012,15.662,15.662
		C445.819,341.553,438.807,348.564,430.157,348.564z"/>
		<circle cx="440.567" cy="323.977" r="1.297"/>
		<circle cx="424.928" cy="323.977" r="1.069"/>
		<circle cx="417.107" cy="323.977" r="0.955"/>
		<circle cx="409.288" cy="323.977" r="0.841"/>
		<circle cx="401.467" cy="323.977" r="0.728"/>
		<circle cx="393.647" cy="323.977" r="0.614"/>
		<circle cx="440.567" cy="332.156" r="1.297"/>
		<circle cx="424.928" cy="332.156" r="1.069"/>
		<circle cx="417.107" cy="332.156" r="0.955"/>
		<circle cx="409.288" cy="332.156" r="0.841"/>
		<circle cx="401.467" cy="332.156" r="0.728"/>
		<circle cx="393.647" cy="332.156" r="0.614"/>
		<circle cx="440.567" cy="340.336" r="1.297"/>
		<circle cx="424.928" cy="340.336" r="1.069"/>
		<circle cx="417.107" cy="340.336" r="0.955"/>
		<circle cx="409.288" cy="340.336" r="0.841"/>
		<circle cx="401.467" cy="340.336" r="0.728"/>
		<circle cx="393.647" cy="340.336" r="0.614"/>
		<circle cx="432.748" cy="323.977" r="1.183"/>
		<circle cx="432.748" cy="332.157" r="1.183"/>
		<circle cx="432.748" cy="340.337" r="1.183"/>
	</g>
	<g>
	<g>
		<path fill="#FF0000" stroke="#000000" stroke-width="6" stroke-miterlimit="10" d="M448.422,381.893
			c-9.274,0-16.793-5.516-16.793-14.789v-71.755c0-9.273,7.519-13.79,16.793-13.79c9.275,0,16.795,4.517,16.795,13.79v71.755
			C465.217,376.377,457.697,381.893,448.422,381.893z"/>
		
			<ellipse fill="#FF0000" stroke="#000000" stroke-width="6" stroke-miterlimit="10" cx="448.422" cy="292.966" rx="16.793" ry="11.407"/>
	</g>
	<g>
		<circle cx="456.208" cy="307.615" r="1.525"/>
		<circle cx="448.388" cy="307.615" r="1.41"/>
		<circle cx="440.567" cy="307.615" r="1.297"/>
	</g>
	<g>
		<g>
			<path fill="#FF0000" stroke="#000000" stroke-width="6" stroke-miterlimit="10" d="M518.906,348.564h-62.774
				c-8.651,0-13.66-7.012-13.66-15.66c0-8.65,5.009-15.662,13.66-15.662h62.774c8.648,0,12.659,7.012,12.659,15.662
				C531.565,341.553,527.555,348.564,518.906,348.564z"/>
			<path fill="#FF0000" stroke="#000000" stroke-width="6" stroke-miterlimit="10" d="M510.286,332.904
				c0,8.65,4.764,15.66,10.64,15.66c5.877,0,10.64-7.01,10.64-15.66c0-8.652-4.763-15.662-10.64-15.662
				C515.05,317.242,510.286,324.252,510.286,332.904z"/>
		</g>
		<circle cx="503.129" cy="323.977" r="2.208"/>
		<circle cx="495.308" cy="323.977" r="2.094"/>
		<circle cx="487.488" cy="323.977" r="1.979"/>
		<circle cx="479.668" cy="323.977" r="1.866"/>
		<circle cx="471.848" cy="323.977" r="1.752"/>
		<circle cx="464.028" cy="323.977" r="1.639"/>
		<circle cx="456.208" cy="323.977" r="1.525"/>
		<circle cx="448.388" cy="323.977" r="1.41"/>
		<circle cx="503.129" cy="332.156" r="2.208"/>
		<circle cx="495.308" cy="332.156" r="2.094"/>
		<circle cx="487.488" cy="332.156" r="1.979"/>
		<circle cx="479.668" cy="332.156" r="1.866"/>
		<circle cx="471.848" cy="332.156" r="1.752"/>
		<circle cx="464.028" cy="332.156" r="1.639"/>
		<circle cx="456.208" cy="332.156" r="1.525"/>
		<circle cx="448.388" cy="332.156" r="1.41"/>
		<circle cx="503.129" cy="340.336" r="2.208"/>
		<circle cx="495.308" cy="340.336" r="2.094"/>
		<circle cx="487.488" cy="340.336" r="1.979"/>
		<circle cx="479.668" cy="340.336" r="1.866"/>
		<circle cx="471.848" cy="340.336" r="1.752"/>
		<circle cx="464.028" cy="340.336" r="1.639"/>
		<circle cx="456.208" cy="340.336" r="1.525"/>
		<circle cx="448.388" cy="340.336" r="1.41"/>
	</g>

	<g>
		<circle cx="456.208" cy="315.796" r="1.525"/>
		<circle cx="448.388" cy="315.796" r="1.41"/>
		<circle cx="440.567" cy="315.796" r="1.297"/>
	</g>
		<circle cx="456.208" cy="323.977" r="1.525"/>
		<circle cx="448.388" cy="323.977" r="1.41"/>
		<circle cx="440.567" cy="323.977" r="1.297"/>
		<circle cx="456.208" cy="332.156" r="1.525"/>
		<circle cx="448.388" cy="332.156" r="1.41"/>
		<circle cx="440.567" cy="332.156" r="1.297"/>
		<circle cx="456.208" cy="340.336" r="1.525"/>
		<circle cx="448.388" cy="340.336" r="1.41"/>
		<circle cx="440.567" cy="340.336" r="1.297"/>
		<circle cx="456.208" cy="348.517" r="1.525"/>
		<circle cx="448.388" cy="348.517" r="1.41"/>
		<circle cx="440.567" cy="348.517" r="1.297"/>
		<circle cx="456.208" cy="356.697" r="1.525"/>
		<circle cx="448.388" cy="356.697" r="1.41"/>
		<circle cx="440.567" cy="356.697" r="1.297"/>
		<circle cx="456.208" cy="364.877" r="1.525"/>
		<circle cx="448.388" cy="364.877" r="1.41"/>
		<circle cx="440.567" cy="364.877" r="1.297"/>
		<circle cx="456.208" cy="373.057" r="1.525"/>
		<circle cx="448.388" cy="373.057" r="1.41"/>
		<circle cx="440.567" cy="373.057" r="1.297"/>
	</g>
	<g>
		<path fill="#FF0000" stroke="#000000" stroke-width="6" stroke-miterlimit="10" d="M518.906,398.912H372.884
			c-8.646,0-15.659-7.014-15.659-15.662s7.013-15.664,15.659-15.664h146.022c8.648,0,12.659,7.016,12.659,15.664
			S527.555,398.912,518.906,398.912z"/>
		<path fill="#FF0000" stroke="#000000" stroke-width="6" stroke-miterlimit="10" d="M510.286,383.25
			c0,8.65,4.764,15.66,10.64,15.66c5.877,0,10.64-7.01,10.64-15.66c0-8.652-4.763-15.664-10.64-15.664
			C515.05,367.586,510.286,374.598,510.286,383.25z"/>
	</g>
	<g>
		<circle cx="510.948" cy="373.057" r="2.321"/>
		<circle cx="503.129" cy="373.057" r="2.208"/>
		<circle cx="495.308" cy="373.057" r="2.094"/>
		<circle cx="487.488" cy="373.057" r="1.979"/>
		<circle cx="479.668" cy="373.057" r="1.866"/>
		<circle cx="471.848" cy="373.057" r="1.752"/>
		<circle cx="464.028" cy="373.057" r="1.639"/>
		<circle cx="456.208" cy="373.057" r="1.525"/>
		<circle cx="448.388" cy="373.057" r="1.41"/>
		<circle cx="440.567" cy="373.057" r="1.297"/>
		<circle cx="424.928" cy="373.057" r="1.069"/>
		<circle cx="417.107" cy="373.057" r="0.955"/>
		<circle cx="409.288" cy="373.057" r="0.841"/>
		<circle cx="401.467" cy="373.057" r="0.728"/>
		<circle cx="393.647" cy="373.057" r="0.614"/>
	</g>
	<g>
		<circle cx="503.129" cy="381.237" r="2.208"/>
		<circle cx="495.308" cy="381.237" r="2.094"/>
		<circle cx="487.488" cy="381.237" r="1.979"/>
		<circle cx="479.668" cy="381.237" r="1.866"/>
		<circle cx="471.848" cy="381.237" r="1.752"/>
		<circle cx="464.028" cy="381.237" r="1.639"/>
		<circle cx="456.208" cy="381.237" r="1.525"/>
		<circle cx="448.388" cy="381.237" r="1.41"/>
		<circle cx="440.567" cy="381.237" r="1.297"/>
		<circle cx="432.748" cy="381.237" r="1.183"/>
		<circle cx="424.928" cy="381.237" r="1.069"/>
		<circle cx="417.107" cy="381.237" r="0.955"/>
		<circle cx="409.288" cy="381.237" r="0.841"/>
		<circle cx="401.467" cy="381.237" r="0.728"/>
		<circle cx="393.647" cy="381.237" r="0.614"/>
	</g>
	<g>
		<circle cx="510.948" cy="389.418" r="2.321"/>
		<circle cx="503.129" cy="389.418" r="2.208"/>
		<circle cx="495.308" cy="389.418" r="2.094"/>
		<circle cx="487.488" cy="389.418" r="1.979"/>
		<circle cx="479.668" cy="389.418" r="1.866"/>
		<circle cx="471.848" cy="389.418" r="1.752"/>
		<circle cx="464.028" cy="389.418" r="1.639"/>
		<circle cx="456.208" cy="389.418" r="1.525"/>
		<circle cx="448.388" cy="389.418" r="1.41"/>
		<circle cx="440.567" cy="389.418" r="1.297"/>
		<circle cx="432.748" cy="389.418" r="1.183"/>
		<circle cx="424.928" cy="389.418" r="1.069"/>
		<circle cx="417.107" cy="389.418" r="0.955"/>
		<circle cx="409.288" cy="389.418" r="0.841"/>
		<circle cx="401.467" cy="389.418" r="0.728"/>
		<circle cx="393.647" cy="389.418" r="0.614"/>
	</g>
	<circle cx="510.948" cy="397.598" r="2.321"/>
	<circle cx="503.129" cy="397.598" r="2.208"/>
	<circle cx="495.308" cy="397.598" r="2.094"/>
	<circle cx="487.488" cy="397.598" r="1.979"/>
	<circle cx="479.668" cy="397.598" r="1.866"/>
	<circle cx="432.748" cy="373.082" r="1.183"/>

	<animateMotion from="0,0" to="-200,0" begin="1.5s" dur="0.3s" fill="freeze" />
</g>
<g class="cityword16" transform="translate(200,100)">
	<path fill="#FF0000" stroke="#000000" stroke-width="6" stroke-linejoin="round" stroke-miterlimit="10" d="M497.762,413.9H392.676
		c-9.273,0-16.793,7.52-16.793,16.795v41.756c0,9.273,7.52,16.793,16.793,16.793h105.086c9.275,0,16.793-7.52,16.793-16.793v-41.756
		C514.555,421.42,507.037,413.9,497.762,413.9z M480.97,457.977h-71.501v-12.809h71.501V457.977z"/>
	<g>
		<circle cx="510.948" cy="422.139" r="2.321"/>
		<circle cx="503.129" cy="422.139" r="2.208"/>
		<circle cx="495.308" cy="422.139" r="2.094"/>
		<circle cx="487.488" cy="422.139" r="1.979"/>
		<circle cx="479.668" cy="422.139" r="1.866"/>
		<circle cx="471.848" cy="422.139" r="1.752"/>
		<circle cx="464.028" cy="422.139" r="1.639"/>
		<circle cx="456.208" cy="422.139" r="1.525"/>
		<circle cx="448.388" cy="422.139" r="1.41"/>
		<circle cx="440.567" cy="422.139" r="1.297"/>
		<circle cx="432.748" cy="422.139" r="1.183"/>
		<circle cx="424.928" cy="422.139" r="1.069"/>
		<circle cx="417.107" cy="422.139" r="0.955"/>
		<circle cx="409.288" cy="422.139" r="0.841"/>
		<circle cx="401.467" cy="422.139" r="0.728"/>
		<circle cx="393.647" cy="422.139" r="0.614"/>
	</g>
	<g>
		<circle cx="510.948" cy="430.318" r="2.321"/>
		<circle cx="503.129" cy="430.318" r="2.208"/>
		<circle cx="495.308" cy="430.318" r="2.094"/>
		<circle cx="487.488" cy="430.318" r="1.979"/>
		<circle cx="479.668" cy="430.318" r="1.866"/>
		<circle cx="471.848" cy="430.318" r="1.752"/>
		<circle cx="464.028" cy="430.318" r="1.639"/>
		<circle cx="456.208" cy="430.318" r="1.525"/>
		<circle cx="448.388" cy="430.318" r="1.41"/>
		<circle cx="440.567" cy="430.318" r="1.297"/>
		<circle cx="432.748" cy="430.318" r="1.183"/>
		<circle cx="424.928" cy="430.318" r="1.069"/>
		<circle cx="417.107" cy="430.318" r="0.955"/>
		<circle cx="409.288" cy="430.318" r="0.841"/>
		<circle cx="401.467" cy="430.318" r="0.728"/>
		<circle cx="393.647" cy="430.318" r="0.614"/>
	</g>
	<g>
		<circle cx="510.948" cy="438.498" r="2.321"/>
		<circle cx="503.129" cy="438.498" r="2.208"/>
		<circle cx="495.308" cy="438.498" r="2.094"/>
		<circle cx="487.488" cy="438.498" r="1.979"/>
		<circle cx="479.668" cy="438.498" r="1.866"/>
		<circle cx="471.848" cy="438.498" r="1.752"/>
		<circle cx="464.028" cy="438.498" r="1.639"/>
		<circle cx="456.208" cy="438.498" r="1.525"/>
		<circle cx="448.388" cy="438.498" r="1.41"/>
		<circle cx="440.567" cy="438.498" r="1.297"/>
		<circle cx="432.748" cy="438.498" r="1.183"/>
		<circle cx="424.928" cy="438.498" r="1.069"/>
		<circle cx="417.107" cy="438.498" r="0.955"/>
		<circle cx="409.288" cy="438.498" r="0.841"/>
		<circle cx="401.467" cy="438.498" r="0.728"/>
		<circle cx="393.647" cy="438.498" r="0.614"/>
	</g>
	<g>
		<circle cx="510.948" cy="446.679" r="2.321"/>
		<circle cx="503.129" cy="446.679" r="2.208"/>
		<circle cx="495.308" cy="446.679" r="2.094"/>
		<circle cx="487.488" cy="446.679" r="1.979"/>
		<circle cx="401.467" cy="446.679" r="0.728"/>
		<circle cx="393.647" cy="446.679" r="0.614"/>
	</g>
	<g>
		<circle cx="510.948" cy="454.859" r="2.321"/>
		<circle cx="503.129" cy="454.859" r="2.208"/>
		<circle cx="495.308" cy="454.859" r="2.094"/>
		<circle cx="487.488" cy="454.859" r="1.979"/>
		<circle cx="401.467" cy="454.859" r="0.728"/>
		<circle cx="393.647" cy="454.859" r="0.614"/>
	</g>
	<g>
		<circle cx="510.948" cy="463.039" r="2.321"/>
		<circle cx="503.129" cy="463.039" r="2.208"/>
		<circle cx="495.308" cy="463.039" r="2.094"/>
		<circle cx="487.488" cy="463.039" r="1.979"/>
		<circle cx="479.668" cy="463.039" r="1.866"/>
		<circle cx="471.848" cy="463.039" r="1.752"/>
		<circle cx="464.028" cy="463.039" r="1.639"/>
		<circle cx="456.208" cy="463.039" r="1.525"/>
		<circle cx="448.388" cy="463.039" r="1.41"/>
		<circle cx="440.567" cy="463.039" r="1.297"/>
		<circle cx="432.748" cy="463.039" r="1.183"/>
		<circle cx="424.928" cy="463.039" r="1.069"/>
		<circle cx="417.107" cy="463.039" r="0.955"/>
		<circle cx="409.288" cy="463.039" r="0.841"/>
		<circle cx="401.467" cy="463.039" r="0.728"/>
		<circle cx="393.647" cy="463.039" r="0.614"/>
	</g>
	<g>
		<circle cx="510.948" cy="471.219" r="2.321"/>
		<circle cx="503.129" cy="471.219" r="2.208"/>
		<circle cx="495.308" cy="471.219" r="2.094"/>
		<circle cx="487.488" cy="471.219" r="1.979"/>
		<circle cx="479.668" cy="471.219" r="1.866"/>
		<circle cx="471.848" cy="471.219" r="1.752"/>
		<circle cx="464.028" cy="471.219" r="1.639"/>
		<circle cx="456.208" cy="471.219" r="1.525"/>
		<circle cx="448.388" cy="471.219" r="1.41"/>
		<circle cx="440.567" cy="471.219" r="1.297"/>
		<circle cx="432.748" cy="471.219" r="1.183"/>
		<circle cx="424.928" cy="471.219" r="1.069"/>
		<circle cx="417.107" cy="471.219" r="0.955"/>
		<circle cx="409.288" cy="471.219" r="0.841"/>
		<circle cx="401.467" cy="471.219" r="0.728"/>
		<circle cx="393.647" cy="471.219" r="0.614"/>
	</g>
	<g>
		<circle cx="510.948" cy="479.399" r="2.321"/>
		<circle cx="503.129" cy="479.399" r="2.208"/>
		<circle cx="495.308" cy="479.399" r="2.094"/>
		<circle cx="487.488" cy="479.399" r="1.979"/>
		<circle cx="479.668" cy="479.399" r="1.866"/>
		<circle cx="471.848" cy="479.399" r="1.752"/>
		<circle cx="464.028" cy="479.399" r="1.639"/>
		<circle cx="456.208" cy="479.399" r="1.525"/>
		<circle cx="448.388" cy="479.399" r="1.41"/>
		<circle cx="440.567" cy="479.399" r="1.297"/>
		<circle cx="432.748" cy="479.399" r="1.183"/>
		<circle cx="424.928" cy="479.399" r="1.069"/>
		<circle cx="417.107" cy="479.399" r="0.955"/>
		<circle cx="409.288" cy="479.399" r="0.841"/>
		<circle cx="401.467" cy="479.399" r="0.728"/>
		<circle cx="393.647" cy="479.399" r="0.614"/>
	</g>
	<g>
		<circle cx="495.308" cy="487.58" r="2.094"/>
		<circle cx="487.488" cy="487.58" r="1.979"/>
		<circle cx="479.668" cy="487.58" r="1.866"/>
		<circle cx="471.848" cy="487.58" r="1.752"/>
		<circle cx="464.028" cy="487.58" r="1.639"/>
		<circle cx="456.208" cy="487.58" r="1.525"/>
		<circle cx="448.388" cy="487.58" r="1.41"/>
	</g>
	<animateMotion from="0,0" to="-200,-100" begin="1.5s" dur="0.3s" fill="freeze" />
</g>
<g class="cityword17" transform="translate(0,-100)">
	<g>
		<path fill="#FF0000" stroke="#000000" stroke-width="6" stroke-miterlimit="10" d="M249.524,3c-1.779,0-8.521,0-10.301,0
			c-11.768,0-21.312,9.542-21.312,21.312c0,11.773,9.545,21.315,21.312,21.315c1.78,0,8.522,0,10.301,0
			c11.773,0,21.315-9.542,21.315-21.315C270.84,12.542,261.298,3,249.524,3z"/>
		<path fill="#FF0000" stroke="#000000" stroke-width="6" stroke-miterlimit="10" d="M260.537,24.312
			c0,11.773-9.541,21.315-21.313,21.315c-11.768,0-21.312-9.542-21.312-21.315C217.911,12.542,227.456,3,239.224,3
			C250.996,3,260.537,12.542,260.537,24.312z"/>
	</g>
	<g>
		<circle cx="243.947" cy="5.901" r="1.866"/>
		<circle cx="236.127" cy="5.901" r="1.752"/>
	</g>
	<circle cx="251.768" cy="14.082" r="1.979"/>
	<circle cx="243.947" cy="14.082" r="1.866"/>
	<circle cx="236.127" cy="14.082" r="1.752"/>
	<circle cx="228.308" cy="14.082" r="1.639"/>
	<circle cx="251.768" cy="22.262" r="1.979"/>
	<circle cx="243.947" cy="22.262" r="1.866"/>
	<circle cx="236.127" cy="22.262" r="1.752"/>
	<circle cx="228.308" cy="22.262" r="1.639"/>
	<circle cx="220.487" cy="22.262" r="1.525"/>
	<circle cx="251.768" cy="30.442" r="1.979"/>
	<circle cx="243.947" cy="30.442" r="1.866"/>
	<circle cx="236.127" cy="30.442" r="1.752"/>
	<circle cx="228.308" cy="30.442" r="1.639"/>
	<circle cx="220.487" cy="30.442" r="1.525"/>
	<circle cx="251.768" cy="38.622" r="1.979"/>
	<circle cx="243.947" cy="38.622" r="1.866"/>
	<circle cx="236.127" cy="38.622" r="1.752"/>
	<circle cx="228.308" cy="38.622" r="1.639"/>
	<animateMotion from="0,0" to="0,100" begin="1.5s" dur="0.3s" fill="freeze" />
</g>
<g class="cityword18" transform="translate(-200,200)">
	<g>
		<path fill="#FF0000" stroke="#000000" stroke-width="6" stroke-miterlimit="10" d="M524.463,505.986H412.777
			c-21.222,0-38.494-6.775-51.334-20.133c-7.383-7.686-11.324-15.58-12.869-19.15v-66.762c0-9.273-7.521-16.793-16.794-16.793
			h-35.332c-9.272,0-16.788,7.52-16.788,16.793c0,9.275,7.516,16.793,16.788,16.793h18.538v56.359
			c0,8.883-15.076,24.83-25.937,32.906c-7.461,5.512-9.041,16.025-3.534,23.484c3.294,4.461,8.377,6.822,13.524,6.822
			c3.464,0,6.96-1.068,9.961-3.287c3.808-2.811,16.358-12.584,26.318-25.945c0.188,0.209,0.373,0.416,0.563,0.625
			c13.434,14.539,37.679,31.875,76.895,31.875h111.686c9.272,0,13.79-7.52,13.79-16.793
			C538.253,513.506,533.735,505.986,524.463,505.986z"/>
		<path fill="#FF0000" stroke="#000000" stroke-width="5.856" stroke-miterlimit="10" d="M286.634,530.4
			c6.196,6.6,14.855,8.536,19.336,4.327c4.484-4.211,3.092-12.97-3.105-19.569c-6.193-6.598-14.851-8.534-19.333-4.327
			C279.05,515.042,280.437,523.803,286.634,530.4z"/>
		<path fill="#FF0000" stroke="#000000" stroke-width="5.8739" stroke-miterlimit="10" d="M515.917,522.781
			c0,9.078,5,16.439,11.167,16.439c6.171,0,11.169-7.361,11.169-16.439c0-9.08-4.998-16.442-11.169-16.442
			C520.917,506.339,515.917,513.701,515.917,522.781z"/>
	</g>
	<g>
		<circle cx="510.948" cy="512.12" r="2.321"/>
		<circle cx="503.129" cy="512.12" r="2.208"/>
		<circle cx="495.308" cy="512.12" r="2.094"/>
		<circle cx="487.488" cy="512.12" r="1.979"/>
		<circle cx="479.668" cy="512.12" r="1.866"/>
		<circle cx="471.848" cy="512.12" r="1.752"/>
		<circle cx="464.028" cy="512.12" r="1.639"/>
		<circle cx="456.208" cy="512.12" r="1.525"/>
		<circle cx="448.388" cy="512.12" r="1.41"/>
		<circle cx="440.567" cy="512.12" r="1.297"/>
		<circle cx="432.748" cy="512.12" r="1.183"/>
		<circle cx="424.928" cy="512.12" r="1.069"/>
		<circle cx="417.107" cy="512.12" r="0.955"/>
		<circle cx="409.288" cy="512.12" r="0.841"/>
		<circle cx="401.467" cy="512.12" r="0.728"/>
		<circle cx="393.647" cy="512.12" r="0.614"/>
	</g>
	<g>
		<circle cx="510.948" cy="520.301" r="2.321"/>
		<circle cx="503.129" cy="520.301" r="2.208"/>
		<circle cx="495.308" cy="520.301" r="2.094"/>
		<circle cx="487.488" cy="520.301" r="1.979"/>
		<circle cx="479.668" cy="520.301" r="1.866"/>
		<circle cx="471.848" cy="520.301" r="1.752"/>
		<circle cx="464.028" cy="520.301" r="1.639"/>
		<circle cx="456.208" cy="520.301" r="1.525"/>
		<circle cx="448.388" cy="520.301" r="1.41"/>
		<circle cx="440.567" cy="520.301" r="1.297"/>
		<circle cx="432.748" cy="520.301" r="1.183"/>
		<circle cx="424.928" cy="520.301" r="1.069"/>
		<circle cx="417.107" cy="520.301" r="0.955"/>
		<circle cx="409.288" cy="520.301" r="0.841"/>
		<circle cx="401.467" cy="520.301" r="0.728"/>
		<circle cx="393.647" cy="520.301" r="0.614"/>
	</g>
	<g>
		<circle cx="510.948" cy="528.48" r="2.321"/>
		<circle cx="503.129" cy="528.48" r="2.208"/>
		<circle cx="495.308" cy="528.48" r="2.094"/>
		<circle cx="487.488" cy="528.48" r="1.979"/>
		<circle cx="479.668" cy="528.48" r="1.866"/>
		<circle cx="471.848" cy="528.48" r="1.752"/>
		<circle cx="464.028" cy="528.48" r="1.639"/>
		<circle cx="456.208" cy="528.48" r="1.525"/>
		<circle cx="448.388" cy="528.48" r="1.41"/>
		<circle cx="440.567" cy="528.48" r="1.297"/>
		<circle cx="432.748" cy="528.48" r="1.183"/>
		<circle cx="424.928" cy="528.48" r="1.069"/>
		<circle cx="417.107" cy="528.48" r="0.955"/>
		<circle cx="409.288" cy="528.48" r="0.841"/>
		<circle cx="401.467" cy="528.48" r="0.728"/>
		<circle cx="393.647" cy="528.48" r="0.614"/>
	</g>
	<g>
		<circle cx="510.948" cy="536.66" r="2.321"/>
		<circle cx="503.129" cy="536.66" r="2.208"/>
		<circle cx="495.308" cy="536.66" r="2.094"/>
		<circle cx="487.488" cy="536.66" r="1.979"/>
		<circle cx="479.668" cy="536.66" r="1.866"/>
		<circle cx="471.848" cy="536.66" r="1.752"/>
		<circle cx="464.028" cy="536.66" r="1.639"/>
		<circle cx="456.208" cy="536.66" r="1.525"/>
		<circle cx="448.388" cy="536.66" r="1.41"/>
		<circle cx="440.567" cy="536.66" r="1.297"/>
		<circle cx="432.748" cy="536.66" r="1.183"/>
		<circle cx="424.928" cy="536.66" r="1.069"/>
		<circle cx="417.107" cy="536.66" r="0.955"/>
		<circle cx="409.288" cy="536.66" r="0.841"/>
		<circle cx="401.467" cy="536.66" r="0.728"/>
	</g>
	<animateMotion from="0,0" to="200,-200" begin="1.5s" dur="0.3s" fill="freeze" />
</g>
<g class="cityword19" transform="translate(200,250)">
	<g>
		<path fill="#FF0000" stroke="#000000" stroke-width="6" stroke-miterlimit="10" d="M121.139,536.307
			c-6.457,0-10.743-6.006-13.508-12.295c-4.173-9.475-3.99-15.156,6.734-19.873c0.24-0.111,31.038-14.264,62.601-52.67
			c23.597-28.709,34.859-68.637,39.715-91.785h-52.866c-9.273,0-15.792-7.521-15.792-16.795s6.518-16.793,15.792-16.793h72.772
			c4.774,0,9.32,2.031,12.506,5.586c3.187,3.557,4.71,8.299,4.187,13.043c-0.346,3.148-8.954,77.68-50.365,128.07
			c-37.004,45.025-73.484,61.408-75.021,62.084C125.691,535.85,123.396,536.307,121.139,536.307z"/>
		<g>
			<path fill="#FF0000" stroke="#000000" stroke-width="6" stroke-miterlimit="10" d="M107.902,528.884
				c5.626,7.377,14.248,10.256,19.257,6.438c5.012-3.824,4.512-12.898-1.116-20.273c-5.62-7.375-14.24-10.254-19.251-6.434
				C101.783,512.435,102.278,521.507,107.902,528.884z"/>
		</g>
	</g>
	<g>
		<circle cx="243.947" cy="332.156" r="1.866"/>
		<circle cx="236.127" cy="332.156" r="1.752"/>
		<circle cx="228.308" cy="332.156" r="1.639"/>
		<circle cx="220.487" cy="332.156" r="1.525"/>
		<circle cx="212.667" cy="332.156" r="1.41"/>
		<circle cx="204.847" cy="332.156" r="1.297"/>
		<circle cx="197.027" cy="332.156" r="1.183"/>
		<circle cx="189.207" cy="332.156" r="1.069"/>
		<circle cx="181.387" cy="332.156" r="0.955"/>
		<circle cx="173.567" cy="332.156" r="0.841"/>
		<circle cx="165.747" cy="332.156" r="0.728"/>
		<circle cx="157.927" cy="332.156" r="0.614"/>
	</g>
	<g>
		<circle cx="243.947" cy="340.336" r="1.866"/>
		<circle cx="236.127" cy="340.336" r="1.752"/>
		<circle cx="228.308" cy="340.336" r="1.639"/>
		<circle cx="220.487" cy="340.336" r="1.525"/>
		<circle cx="212.667" cy="340.336" r="1.41"/>
		<circle cx="204.847" cy="340.336" r="1.297"/>
		<circle cx="197.027" cy="340.336" r="1.183"/>
		<circle cx="189.207" cy="340.336" r="1.069"/>
		<circle cx="181.387" cy="340.336" r="0.955"/>
		<circle cx="173.567" cy="340.336" r="0.841"/>
		<circle cx="165.747" cy="340.336" r="0.728"/>
		<circle cx="157.927" cy="340.336" r="0.614"/>
	</g>
	<g>
		<circle cx="243.947" cy="348.517" r="1.866"/>
		<circle cx="236.127" cy="348.517" r="1.752"/>
		<circle cx="228.308" cy="348.517" r="1.639"/>
		<circle cx="220.487" cy="348.517" r="1.525"/>
		<circle cx="212.667" cy="348.517" r="1.41"/>
		<circle cx="204.847" cy="348.517" r="1.297"/>
		<circle cx="197.027" cy="348.517" r="1.183"/>
		<circle cx="189.207" cy="348.517" r="1.069"/>
		<circle cx="181.387" cy="348.517" r="0.955"/>
		<circle cx="173.567" cy="348.517" r="0.841"/>
		<circle cx="165.747" cy="348.517" r="0.728"/>
		<circle cx="157.927" cy="348.517" r="0.614"/>
	</g>
	<circle cx="243.947" cy="356.697" r="1.866"/>
	<circle cx="236.127" cy="356.697" r="1.752"/>
	<circle cx="228.308" cy="356.697" r="1.639"/>
	<circle cx="220.487" cy="356.697" r="1.525"/>
	<circle cx="212.667" cy="356.697" r="1.41"/>
	<circle cx="204.847" cy="356.697" r="1.297"/>
	<circle cx="197.027" cy="356.697" r="1.183"/>
	<circle cx="189.207" cy="356.697" r="1.069"/>
	<circle cx="181.387" cy="356.697" r="0.955"/>
	<circle cx="173.567" cy="356.697" r="0.841"/>
	<circle cx="165.747" cy="356.697" r="0.728"/>
	<circle cx="243.947" cy="364.877" r="1.866"/>
	<circle cx="236.127" cy="364.877" r="1.752"/>
	<circle cx="228.308" cy="364.877" r="1.639"/>
	<circle cx="220.487" cy="364.877" r="1.525"/>
	<circle cx="243.947" cy="373.057" r="1.866"/>
	<circle cx="236.127" cy="373.057" r="1.752"/>
	<circle cx="228.308" cy="373.057" r="1.639"/>
	<circle cx="220.487" cy="373.057" r="1.525"/>
	<circle cx="243.947" cy="381.237" r="1.866"/>
	<circle cx="236.127" cy="381.237" r="1.752"/>
	<circle cx="228.308" cy="381.237" r="1.639"/>
	<circle cx="220.487" cy="381.237" r="1.525"/>
	<circle cx="212.667" cy="381.237" r="1.41"/>
	<circle cx="236.127" cy="389.418" r="1.752"/>
	<circle cx="228.308" cy="389.418" r="1.639"/>
	<circle cx="220.487" cy="389.418" r="1.525"/>
	<circle cx="212.667" cy="389.418" r="1.41"/>
	<circle cx="236.127" cy="397.598" r="1.752"/>
	<circle cx="228.308" cy="397.598" r="1.639"/>
	<circle cx="220.487" cy="397.598" r="1.525"/>
	<circle cx="212.667" cy="397.598" r="1.41"/>
	<circle cx="236.127" cy="405.777" r="1.752"/>
	<circle cx="228.308" cy="405.777" r="1.639"/>
	<circle cx="220.487" cy="405.777" r="1.525"/>
	<circle cx="212.667" cy="405.777" r="1.41"/>
	<circle cx="228.308" cy="413.958" r="1.639"/>
	<circle cx="220.487" cy="413.958" r="1.525"/>
	<circle cx="212.667" cy="413.958" r="1.41"/>
	<circle cx="204.847" cy="413.958" r="1.297"/>
	<circle cx="228.308" cy="422.139" r="1.639"/>
	<circle cx="220.487" cy="422.139" r="1.525"/>
	<circle cx="212.667" cy="422.139" r="1.41"/>
	<circle cx="204.847" cy="422.139" r="1.297"/>
	<circle cx="220.487" cy="430.318" r="1.525"/>
	<circle cx="212.667" cy="430.318" r="1.41"/>
	<circle cx="204.847" cy="430.318" r="1.297"/>
	<circle cx="197.027" cy="430.318" r="1.183"/>
	<circle cx="220.487" cy="438.498" r="1.525"/>
	<circle cx="212.667" cy="438.498" r="1.41"/>
	<circle cx="204.847" cy="438.498" r="1.297"/>
	<circle cx="197.027" cy="438.498" r="1.183"/>
	<circle cx="212.667" cy="446.679" r="1.41"/>
	<circle cx="204.847" cy="446.679" r="1.297"/>
	<circle cx="197.027" cy="446.679" r="1.183"/>
	<circle cx="189.207" cy="446.679" r="1.069"/>
	<g>
		<circle cx="212.667" cy="454.859" r="1.41"/>
		<circle cx="204.847" cy="454.859" r="1.297"/>
		<circle cx="197.027" cy="454.859" r="1.183"/>
		<circle cx="189.207" cy="454.859" r="1.069"/>
		<circle cx="181.387" cy="454.859" r="0.955"/>
	</g>
	<g>
		<circle cx="204.847" cy="463.039" r="1.297"/>
		<circle cx="197.027" cy="463.039" r="1.183"/>
		<circle cx="189.207" cy="463.039" r="1.069"/>
		<circle cx="181.387" cy="463.039" r="0.955"/>
		<circle cx="173.567" cy="463.039" r="0.841"/>
	</g>
	<circle cx="197.027" cy="471.219" r="1.183"/>
	<circle cx="189.207" cy="471.219" r="1.069"/>
	<circle cx="181.387" cy="471.219" r="0.955"/>
	<circle cx="173.567" cy="471.219" r="0.841"/>
	<circle cx="165.747" cy="471.219" r="0.728"/>
	<circle cx="189.207" cy="479.399" r="1.069"/>
	<circle cx="181.387" cy="479.399" r="0.955"/>
	<circle cx="173.567" cy="479.399" r="0.841"/>
	<circle cx="165.747" cy="479.399" r="0.728"/>
	<circle cx="157.927" cy="479.399" r="0.614"/>
	<circle cx="181.387" cy="487.58" r="0.955"/>
	<circle cx="173.567" cy="487.58" r="0.841"/>
	<circle cx="165.747" cy="487.58" r="0.728"/>
	<circle cx="157.927" cy="487.58" r="0.614"/>
	<circle cx="173.567" cy="495.76" r="0.841"/>
	<circle cx="165.747" cy="495.76" r="0.728"/>
	<circle cx="157.927" cy="495.76" r="0.614"/>
	<circle cx="165.747" cy="503.939" r="0.728"/>
	<circle cx="157.927" cy="503.939" r="0.614"/>
	<circle cx="157.927" cy="512.12" r="0.614"/>

	<animateMotion from="0,0" to="-200,-250" begin="1.5s" dur="0.3s" fill="freeze" />
</g>
</svg>
