<svg version="1.1" xmlns="http://www.w3.org/2000/svg" xmlns:xlink="http://www.w3.org/1999/xlink" x="0px" y="0px"
	 width="1448.678px" height="258.473px" viewBox="0 0 1448.678 258.473" enable-background="new 0 0 1448.678 258.473"
	 xml:space="preserve">
<g id="windows">
	<g class="windowGroup1">
		<path style="opacity: 0" fill="none" stroke="#000000" stroke-width="4" stroke-linejoin="round" stroke-miterlimit="10" d="M182.701,62.387
			c0,1.1-0.9,2-2,2h-3.72c-1.1,0-2-0.9-2-2V48.773c0-1.1,0.9-2,2-2h3.72c1.1,0,2,0.9,2,2V62.387z"/>
		<path style="opacity: 0" fill="none" stroke="#000000" stroke-width="4" stroke-linejoin="round" stroke-miterlimit="10" d="M280.57,114.959
			c0,1.1-0.899,2-2,2h-3.718c-1.101,0-2-0.9-2-2v-6.533c0-1.1,0.899-2,2-2h3.718c1.101,0,2,0.9,2,2V114.959z"/>
		<path style="opacity: 0" fill="none" stroke="#000000" stroke-width="4" stroke-linejoin="round" stroke-miterlimit="10" d="M422.854,126.871
			c0,1.1-0.9,2-2,2h-3.718c-1.101,0-2-0.9-2-2v-6.533c0-1.1,0.899-2,2-2h3.718c1.1,0,2,0.9,2,2V126.871z"/>
		<path style="opacity: 0" fill="none" d="M1347.628,80.178c0,1.1-0.9,2-2,2h-3.719c-1.1,0-2-0.9-2-2V67.361c0-1.1,0.9-2,2-2h3.719c1.1,0,2,0.9,2,2
				V80.178z"/>
		<path style="opacity: 0" fill="none" d="M1347.628,126.672c0,1.1-0.9,2-2,2h-3.719c-1.1,0-2-0.9-2-2v-12.816c0-1.1,0.9-2,2-2h3.719c1.1,0,2,0.9,2,2
				V126.672z"/>
		<path style="opacity: 0" fill="none" stroke="#000000" stroke-width="4" stroke-linejoin="round" stroke-miterlimit="10" d="M1186.323,78.793
				c0,1.1-0.899,2-2,2h-3.718c-1.1,0-2-0.9-2-2V72.26c0-1.1,0.9-2,2-2h3.718c1.101,0,2,0.9,2,2V78.793z"/>
		<path style="opacity: 0" fill="none" stroke="#000000" stroke-width="4" stroke-linejoin="round" stroke-miterlimit="10" d="M1169.011,129.35
				c0,1.101-0.9,2-2,2h-3.718c-1.101,0-2-0.899-2-2v-6.533c0-1.1,0.899-2,2-2h3.718c1.1,0,2,0.9,2,2V129.35z"/>
	</g>
	<!-- /end windowGroup1 -->
	<g class="windowGroup2">
		<path style="opacity: 0" fill="none" stroke="#000000" stroke-width="4" stroke-linejoin="round" stroke-miterlimit="10" d="M182.701,111.082
			c0,1.1-0.9,2-2,2h-3.72c-1.1,0-2-0.9-2-2V97.469c0-1.1,0.9-2,2-2h3.72c1.1,0,2,0.9,2,2V111.082z"/>
		<path style="opacity: 0" fill="none" stroke="#000000" stroke-width="4" stroke-linejoin="round" stroke-miterlimit="10" d="M101.859,102.619
			c0,1.1-0.899,2-2,2H96.14c-1.1,0-2-0.9-2-2v-6.533c0-1.101,0.9-2,2-2h3.719c1.101,0,2,0.899,2,2V102.619z"/>
		<path style="opacity: 0" fill="none" stroke="#000000" stroke-width="4" stroke-linejoin="round" stroke-miterlimit="10" d="M259.688,114.959
			c0,1.1-0.898,2-2,2h-3.718c-1.1,0-2-0.9-2-2v-6.533c0-1.1,0.9-2,2-2h3.718c1.102,0,2,0.9,2,2V114.959z"/>
		<path style="opacity: 0" fill="none" d="M1364.465,95.746c0,1.1-0.9,2-2,2h-3.72c-1.1,0-2-0.9-2-2V82.93c0-1.1,0.9-2,2-2h3.72c1.1,0,2,0.9,2,2
				V95.746z"/>
		<path style="opacity: 0" fill="none" d="M1169.01,78.793c0,1.1-0.9,2-2,2h-3.719c-1.1,0-2-0.9-2-2V72.26c0-1.1,0.9-2,2-2h3.719c1.1,0,2,0.9,2,2
				V78.793z"/>
		<path style="opacity: 0" fill="none" stroke="#000000" stroke-width="4" stroke-linejoin="round" stroke-miterlimit="10" d="M1364.465,95.746
				c0,1.1-0.9,2-2,2h-3.72c-1.1,0-2-0.9-2-2V82.93c0-1.1,0.9-2,2-2h3.72c1.1,0,2,0.9,2,2V95.746z"/>
		<path style="opacity: 0" fill="none" d="M1059.86,82.863c0,1.101-0.9,2-2,2h-3.718c-1.101,0-2-0.899-2-2V76.33c0-1.101,0.899-2,2-2h3.718c1.1,0,2,0.899,2,2V82.863z"/>
	</g>
	<!-- /end windowGroup2 -->
	<g class="windowGroup3">
		<path style="opacity: 0" fill="none" stroke="#000000" stroke-width="4" stroke-linejoin="round" stroke-miterlimit="10" d="M199.538,78.691
			c0,1.101-0.899,2-2,2h-3.719c-1.101,0-2-0.899-2-2V65.078c0-1.101,0.899-2,2-2h3.719c1.101,0,2,0.899,2,2V78.691z"/>
		<path style="opacity: 0" fill="none" stroke="#000000" stroke-width="4" stroke-linejoin="round" stroke-miterlimit="10" d="M315.215,90.607
			c0,1.101-0.9,2-2,2h-3.72c-1.1,0-2-0.899-2-2V73.541c0-1.101,0.9-2,2-2h3.72c1.1,0,2,0.899,2,2V90.607z"/>
		<path style="opacity: 0" fill="none" stroke="#000000" stroke-width="4" stroke-linejoin="round" stroke-miterlimit="10" d="M53.718,147.938
			c0,1.101-0.899,2-2,2H48c-1.101,0-2-0.899-2-2v-6.532c0-1.101,0.899-2,2-2h3.718c1.101,0,2,0.899,2,2V147.938z"/>
		<path style="opacity: 0" fill="none" d="M1250.569,119.746c1.1,0,2,0.899,2,2v3.719c0,1.1-0.9,2-2,2h-13.062c-1.101,0-2-0.9-2-2v-3.719
				c0-1.101,0.899-2,2-2H1250.569z"/>
		<path style="opacity: 0" fill="none" stroke="#000000" stroke-width="4" stroke-linejoin="round" stroke-miterlimit="10" d="M1169.01,78.793
				c0,1.1-0.9,2-2,2h-3.719c-1.1,0-2-0.9-2-2V72.26c0-1.1,0.9-2,2-2h3.719c1.1,0,2,0.9,2,2V78.793z"/>
		<path style="opacity: 0" fill="none" stroke="#000000" stroke-width="4" stroke-linejoin="round" stroke-miterlimit="10" d="M1186.323,103.23
				c0,1.101-0.899,2-2,2h-3.718c-1.1,0-2-0.899-2-2v-6.532c0-1.101,0.9-2,2-2h3.718c1.101,0,2,0.899,2,2V103.23z"/>
		<path style="opacity: 0" fill="none" d="M1080.741,82.863c0,1.101-0.899,2-2,2h-3.718c-1.1,0-2-0.899-2-2V76.33c0-1.101,0.9-2,2-2h3.718
				c1.101,0,2,0.899,2,2V82.863z"/>
	</g>
	<!-- /end windowGroup3 -->
	<g class="windowGroup4">
		<path style="opacity: 0" fill="none" d="M182.701,111.082c0,1.1-0.9,2-2,2h-3.72c-1.1,0-2-0.9-2-2V97.469c0-1.1,0.9-2,2-2h3.72c1.1,0,2,0.9,2,2
			V111.082z"/>
		<path style="opacity: 0" fill="none" d="M280.57,114.959c0,1.1-0.899,2-2,2h-3.718c-1.101,0-2-0.9-2-2v-6.533c0-1.1,0.899-2,2-2h3.718
			c1.101,0,2,0.9,2,2V114.959z"/>
		<path style="opacity: 0" fill="none" d="M422.854,126.871c0,1.1-0.9,2-2,2h-3.718c-1.101,0-2-0.9-2-2v-6.533c0-1.1,0.899-2,2-2h3.718c1.1,0,2,0.9,2,2
			V126.871z"/>
		<path style="opacity: 0" fill="none" d="M259.688,114.959c0,1.1-0.898,2-2,2h-3.718c-1.1,0-2-0.9-2-2v-6.533c0-1.1,0.9-2,2-2h3.718c1.102,0,2,0.9,2,2
			V114.959z"/>
		<path style="opacity: 0" fill="none" stroke="#000000" stroke-width="4" stroke-linejoin="round" stroke-miterlimit="10" d="M1250.569,119.746
				c1.1,0,2,0.899,2,2v3.719c0,1.1-0.9,2-2,2h-13.062c-1.101,0-2-0.9-2-2v-3.719c0-1.101,0.899-2,2-2H1250.569z"/>
		<path style="opacity: 0" fill="none" d="M1186.323,78.793c0,1.1-0.899,2-2,2h-3.718c-1.1,0-2-0.9-2-2V72.26c0-1.1,0.9-2,2-2h3.718c1.101,0,2,0.9,2,2
				V78.793z"/>
		<path style="opacity: 0" fill="none" d="M1169.011,129.35c0,1.101-0.9,2-2,2h-3.718c-1.101,0-2-0.899-2-2v-6.533c0-1.1,0.899-2,2-2h3.718
				c1.1,0,2,0.9,2,2V129.35z"/>
		<path style="opacity: 0" fill="none" stroke="#000000" stroke-width="4" stroke-linejoin="round" stroke-miterlimit="10" d="M1059.86,82.863
				c0,1.101-0.9,2-2,2h-3.718c-1.101,0-2-0.899-2-2V76.33c0-1.101,0.899-2,2-2h3.718c1.1,0,2,0.899,2,2V82.863z"/>
	</g>
	<!-- /end windowGroup4 -->
</g>
<g>
		<path class="cityline line1" fill="none" stroke="#000000" stroke-width="6" stroke-linecap="round" stroke-miterlimit="10" d="M1039,51.549h51
			c4.4,0,8,3.6,8,8v48c0,4.4,3.601,8,8,8h10.716c4.399,0,8-3.6,8-8v-22.6c0-4.4,3.6-8,8-8h10.659c4.398,0,8-3.601,8-8v-17.74
			c0-4.4,3.601-8,8-8h31.938c4.4,0,8,3.6,8,8v31.926c0,4.4,3.6,8,8,8H1232c4.399,0,8-3.6,8-8V67.809c0-4.399,3.6-8,8-8h51
			c4.399,0,8,3.601,8,8v22.375c0,4.4,3.6,8,8,8h2.265c4.399,0,8-3.6,8-8V53.852c0-4.399,2.103-8,4.671-8c2.57,0,4.672-3.6,4.672-8
			v-7.817c0-4.4,3.6-8,8-8h16.046c4.399,0,8,3.6,8,8v7.817c0,4.4,2.104,8,4.672,8c2.569,0,4.673,3.601,4.673,8v36.332
			c0,4.4,3.601,8,8,8h9.323c4.399,0,8-3.6,8-8V72.387c0-4.4,3.602-8,8-8h36.356" style="opacity:0" />
		<path class="cityline line2" fill="none" stroke="#000000" stroke-width="6" stroke-linecap="round" stroke-miterlimit="10" d="M3,64.387h42.718
			c4.4,0,8,3.6,8,8v22.588c0,4.4,3.6,8,8,8H70c4.399,0,8-3.6,8-8V84.561c0-4.399,3.6-8,8-8h50.459c4.399,0,8,3.601,8,8v36.988
			c0,4.4,3.6,8,8,8h3.506c4.399,0,8-3.6,8-8v-86.73c0-4.399,2.103-8,4.672-8c2.568,0,4.671-3.6,4.671-8V11c0-4.4,3.601-8,8-8h16.046
			c4.4,0,8,3.6,8,8v7.817c0,4.4,2.104,8,4.672,8c2.569,0,4.672,3.601,4.672,8v72.718c0,4.399,3.601,8,8,8H226c4.399,0,8-3.601,8-8
			V92.549c0-4.4,3.6-8,8-8h23.021c4.4,0,8-3.6,8-8v-21.48c0-4.399,3.601-8,8-8H327c4.399,0,8,3.601,8,8v52.48c0,4.4,3.6,8,8,8
			h14.998c4.4,0,8-3.6,8-8V82.33c0-4.4,3.601-8,8-8H390c4.399,0,8-3.601,8-8V55.068c0-4.399,3.6-8,8-8h8.997
			c4.4,0,11.601-0.048,15.999-0.106l6.004-0.08" style="opacity:0" />
</g>
</svg>
