<svg version="1.1" xmlns="http://www.w3.org/2000/svg" xmlns:xlink="http://www.w3.org/1999/xlink" x="0px" y="0px"
	 width="110.526px" height="54.049px" viewBox="0 0 110.526 54.049" enable-background="new 0 0 110.526 54.049"
	 xml:space="preserve">
	<path fill="#FFFFFF" stroke="#000000" stroke-width="5" stroke-linejoin="round" stroke-miterlimit="10" d="M99.487,51.549
		c3.301,0,7.056-2.485,8.346-5.522c0,0,0.193-0.458,0.193-3.892c0-10.396-8.428-18.826-18.826-18.826c-0.621,0-0.621,0-0.621,0
		c-0.67,0.052-2.374-2.347-3.786-5.329c0,0-2.144-4.524-6.202-8.091C73.358,5.289,66.493,2.5,58.978,2.5
		c-5.104,0-9.908,1.287-14.104,3.553c-3.86,2.086-5.722,4.104-5.722,4.104c-2.237,2.426-6.285,3.886-8.995,3.244c0,0,0,0-2.637,0
		C13.702,13.4,2.5,24.602,2.5,38.42c0,4.816,1.27,7.652,1.27,7.652c1.349,3.013,5.152,5.477,8.452,5.477H99.487z"/>
</svg>
