<svg version="1.1" xmlns="http://www.w3.org/2000/svg" xmlns:xlink="http://www.w3.org/1999/xlink" x="0px" y="0px"
	 width="109.312px" height="53.484px" viewBox="0 0 109.312 53.484" enable-background="new 0 0 109.312 53.484"
	 xml:space="preserve">
<g>
	<path fill="#FFFFFF" d="M98.312,50.984c3.3,0,7.051-2.487,8.336-5.527c0,0,0.163-0.387,0.163-3.779
		c0-6.232-3.063-11.75-7.767-15.127c-3.053-2.191-6.797-3.482-10.843-3.482c-0.611,0-0.611,0-0.611,0
		c-0.66,0.051-2.402-2.326-3.872-5.28c0,0-2.81-5.651-7.623-9.312C71.161,4.727,65.005,2.5,58.328,2.5
		c-6.797,0-13.056,2.307-18.034,6.184c-2.117,1.648-2.117,1.648-2.117,1.648c-1.914,2.25-5.668,3.574-8.343,2.941c0,0,0,0-2.603,0
		C13.572,13.273,2.5,24.346,2.5,38.006c0,4.762,1.228,7.503,1.228,7.503c1.349,3.012,5.152,5.476,8.452,5.476H98.312z"/>
	<path fill="none" stroke="#000000" stroke-width="5" stroke-linejoin="round" stroke-miterlimit="10" d="M98.312,50.984
		c3.3,0,7.051-2.487,8.336-5.527c0,0,0.163-0.387,0.163-3.779c0-6.232-3.063-11.75-7.767-15.127
		c-3.053-2.191-6.797-3.482-10.843-3.482c-0.611,0-0.611,0-0.611,0c-0.66,0.051-2.402-2.326-3.872-5.28c0,0-2.81-5.651-7.623-9.312
		C71.161,4.727,65.005,2.5,58.328,2.5c-6.797,0-13.056,2.307-18.034,6.184c-2.117,1.648-2.117,1.648-2.117,1.648
		c-1.914,2.25-5.668,3.574-8.343,2.941c0,0,0,0-2.603,0C13.572,13.273,2.5,24.346,2.5,38.006c0,4.762,1.228,7.503,1.228,7.503
		c1.349,3.012,5.152,5.476,8.452,5.476H98.312z"/>
</g>
</svg>
