<svg version="1.1" xmlns="http://www.w3.org/2000/svg" xmlns:xlink="http://www.w3.org/1999/xlink" x="0px" y="0px"
	 width="77.613px" height="46.643px" viewBox="0 0 77.613 46.643" enable-background="new 0 0 77.613 46.643" xml:space="preserve">
	<path fill="#FFFFFF" stroke="#000000" stroke-width="5" stroke-linejoin="round" stroke-miterlimit="10" d="M61.177,44.143
		c3.3,0,7.607-2.17,9.572-4.821c0,0,4.363-5.89,4.363-12.948C75.113,13.188,64.425,2.5,51.24,2.5
		c-9.515,0-17.591,9.129-17.591,9.129c-2.187,2.472-6.418,3.57-9.404,2.441c0,0,0,0-3.059,0C10.866,14.07,2.5,22.436,2.5,32.754
		c0,4.293,1.008,6.129,1.008,6.129c1.588,2.893,5.588,5.26,8.888,5.26H61.177z"/>
</svg>
