<?xml version="1.0" encoding="utf-8"?>
<!-- Generator: Adobe Illustrator 16.0.0, SVG Export Plug-In . SVG Version: 6.00 Build 0)  -->
<svg version="1.2" baseProfile="tiny"
	 xmlns="http://www.w3.org/2000/svg" xmlns:xlink="http://www.w3.org/1999/xlink" x="0px" y="0px" width="566.93px"
	 height="28.348px" viewBox="0 0 566.93 28.348" xml:space="preserve">
<g>
	<path fill="#010101" d="M246.04,17.008c-1.565,0-2.834-1.271-2.834-2.836l0,0c0-1.564,1.269-2.833,2.834-2.833l0,0
		c1.565,0,2.835,1.269,2.835,2.833l0,0C248.875,15.738,247.606,17.008,246.04,17.008L246.04,17.008z"/>
	<path fill="#010101" d="M264.752,17.008c-1.564,0-2.834-1.271-2.834-2.836l0,0c0-1.564,1.27-2.833,2.834-2.833l0,0
		c1.564,0,2.835,1.269,2.835,2.833l0,0C267.587,15.738,266.318,17.008,264.752,17.008L264.752,17.008z"/>
	<path fill="#010101" d="M283.464,17.007c-1.563,0-2.834-1.27-2.834-2.835l0,0c0-1.564,1.271-2.833,2.834-2.833l0,0
		c1.565,0,2.835,1.27,2.835,2.833l0,0C286.299,15.738,285.031,17.007,283.464,17.007L283.464,17.007z"/>
	<path fill="#010101" d="M302.177,17.007c-1.564,0-2.835-1.27-2.835-2.835l0,0c0-1.564,1.271-2.833,2.835-2.833l0,0
		c1.564,0,2.834,1.27,2.834,2.833l0,0C305.011,15.738,303.742,17.007,302.177,17.007L302.177,17.007z"/>
	<path fill="#010101" d="M320.89,17.007c-1.564,0-2.835-1.27-2.835-2.835l0,0c0-1.564,1.271-2.833,2.835-2.833l0,0
		c1.565,0,2.834,1.27,2.834,2.833l0,0C323.724,15.738,322.456,17.007,320.89,17.007L320.89,17.007z"/>
</g>
</svg>
