<svg version="1.2" baseProfile="tiny" xmlns="http://www.w3.org/2000/svg" xmlns:xlink="http://www.w3.org/1999/xlink" x="0px" y="0px" width="95.543px"
	 height="23.437px" viewBox="0 0 95.543 23.437" xml:space="preserve">
<g>
	<path fill="#010101" d="M0.825,15.771C0.857,15.463,1,15.214,1.252,15.026c0.252-0.187,0.532-0.256,0.842-0.207
		c0.325,0.049,0.586,0.207,0.781,0.477c0.195,0.268,0.269,0.558,0.22,0.866c-0.229,1.611-0.546,3.019-0.952,4.224
		c-0.114,0.277-0.317,0.467-0.61,0.574c-0.293,0.105-0.578,0.084-0.854-0.062c-0.277-0.146-0.473-0.365-0.586-0.658
		c-0.114-0.293-0.122-0.594-0.024-0.904C0.393,18.376,0.645,17.187,0.825,15.771z M7.294,13.037
		c-0.017-0.081-0.065-0.122-0.146-0.122l-1.025,0.098c-0.098,0-0.146,0.049-0.146,0.146v8.959c0,0.342-0.122,0.635-0.366,0.879
		s-0.537,0.367-0.879,0.367s-0.635-0.123-0.879-0.367s-0.366-0.537-0.366-0.879v-8.764c0-0.098-0.049-0.138-0.146-0.122
		l-1.855,0.146c-0.358,0.017-0.676-0.089-0.952-0.317c-0.277-0.228-0.439-0.521-0.488-0.879c-0.033-0.342,0.064-0.646,0.293-0.916
		c0.228-0.268,0.513-0.41,0.854-0.427c0.179-0.016,0.35-0.032,0.513-0.049c0.098,0,0.179-0.04,0.244-0.122
		c0.276-0.374,0.562-0.781,0.854-1.221c0.049-0.081,0.049-0.162,0-0.244C2.249,8.358,1.573,7.487,0.776,6.592
		C0.547,6.348,0.425,6.055,0.41,5.713C0.393,5.371,0.491,5.07,0.703,4.81l0.269-0.366c0.13-0.162,0.289-0.252,0.477-0.269
		C1.634,4.159,1.792,4.224,1.923,4.37c0.032,0.033,0.057,0.033,0.073,0c0.521-0.992,0.977-2.01,1.367-3.052
		c0.13-0.342,0.357-0.59,0.684-0.745c0.325-0.154,0.659-0.166,1.001-0.036c0.325,0.131,0.553,0.362,0.684,0.696
		c0.13,0.333,0.105,0.663-0.073,0.988C4.844,3.752,4.153,4.98,3.583,5.908C3.535,5.99,3.542,6.071,3.608,6.152
		c0.276,0.326,0.479,0.586,0.61,0.781C4.25,6.967,4.283,6.979,4.316,6.97c0.032-0.008,0.057-0.027,0.073-0.061
		c0.586-0.977,1.09-1.896,1.514-2.759c0.162-0.309,0.411-0.524,0.744-0.647C6.981,3.382,7.31,3.394,7.636,3.54
		c0.309,0.163,0.509,0.407,0.599,0.732C8.324,4.599,8.279,4.907,8.1,5.2C7.27,6.535,6.521,7.683,5.854,8.643
		c-0.017,0.017-0.017,0.033,0,0.049C5.87,8.708,5.886,8.716,5.903,8.716l0.146-0.073c0.455-0.195,0.907-0.208,1.355-0.036
		c0.447,0.17,0.769,0.476,0.964,0.915c0.472,1.059,0.83,2.011,1.074,2.856c0.081,0.31,0.045,0.61-0.11,0.903
		c-0.154,0.293-0.387,0.505-0.695,0.635c-0.261,0.114-0.521,0.102-0.781-0.036c-0.261-0.139-0.424-0.354-0.488-0.647
		C7.351,13.168,7.327,13.103,7.294,13.037z M4.511,10.522c-0.017,0.017-0.017,0.041,0,0.073c0.016,0.033,0.032,0.049,0.049,0.049
		l1.733-0.146c0.098,0,0.13-0.049,0.098-0.146c-0.114-0.244-0.317-0.699-0.61-1.367C5.764,8.952,5.74,8.936,5.708,8.936
		c-0.033,0-0.065,0.009-0.098,0.024C5.463,9.188,5.259,9.489,5,9.863C4.771,10.173,4.609,10.393,4.511,10.522z M21.259,12.476
		c0.472,0,0.875,0.167,1.208,0.5c0.334,0.334,0.501,0.737,0.501,1.209v6.739c0,1.041-0.244,1.725-0.732,2.051
		c-0.131,0.08-0.269,0.154-0.415,0.219c-0.439,0.162-0.858,0.094-1.258-0.207c-0.398-0.301-0.695-0.705-0.891-1.209
		c-0.033-0.113-0.082-0.236-0.146-0.365c0-0.018-0.009-0.025-0.024-0.025c-0.017,0-0.024,0.008-0.024,0.025v0.928
		c0,0.244-0.09,0.455-0.269,0.635c-0.18,0.178-0.391,0.268-0.635,0.268s-0.456-0.09-0.635-0.268c-0.18-0.18-0.269-0.391-0.269-0.635
		v-3.271c0-0.098-0.049-0.146-0.146-0.146h-0.732c-0.098,0-0.146,0.049-0.146,0.146v3.271c0,0.244-0.09,0.455-0.269,0.635
		c-0.18,0.178-0.395,0.268-0.647,0.268c-0.252,0-0.468-0.09-0.646-0.268c-0.18-0.18-0.269-0.391-0.269-0.635v-3.271
		c0-0.098-0.049-0.146-0.146-0.146h-0.757c-0.098,0-0.146,0.049-0.146,0.146v3.32c0,0.275-0.102,0.516-0.305,0.721
		c-0.204,0.203-0.444,0.305-0.721,0.305c-0.277,0-0.517-0.102-0.721-0.305c-0.203-0.205-0.305-0.445-0.305-0.721v-4.176h-0.024
		c-0.358,1.514-0.839,2.832-1.44,3.955c-0.146,0.293-0.399,0.465-0.757,0.514c-0.358,0.049-0.676-0.033-0.952-0.244
		c-0.293-0.229-0.484-0.521-0.574-0.879C7.876,21.199,7.92,20.859,8.1,20.533c0.179-0.375,0.342-0.748,0.488-1.123
		c0.016-0.033,0.016-0.057,0-0.074c-0.017-0.016-0.041-0.016-0.073,0c-0.31,0.098-0.606,0.059-0.892-0.121
		c-0.284-0.18-0.46-0.439-0.524-0.781c-0.131-0.766-0.334-1.555-0.61-2.369c-0.098-0.276-0.086-0.537,0.037-0.781
		c0.121-0.244,0.32-0.398,0.598-0.464c0.276-0.081,0.545-0.057,0.806,0.073c0.26,0.131,0.439,0.326,0.537,0.586
		c0.26,0.732,0.464,1.441,0.61,2.125c0,0.016,0.008,0.023,0.024,0.023c0.016,0,0.032-0.008,0.049-0.023
		c0.488-1.92,0.732-4.346,0.732-7.276v-3.54c0-0.472,0.167-0.875,0.501-1.208c0.333-0.334,0.735-0.501,1.208-0.501h9.155
		c0.472,0,0.875,0.167,1.209,0.501c0.333,0.333,0.5,0.736,0.5,1.208v2.93c0,0.473-0.167,0.875-0.5,1.208
		c-0.334,0.334-0.737,0.501-1.209,0.501h-8.13c-0.098,0-0.146,0.049-0.146,0.146c0,0.31-0.009,0.562-0.024,0.757
		c0,0.098,0.049,0.146,0.146,0.146H21.259z M9.321,3.564C9.077,3.32,8.955,3.023,8.955,2.673c0-0.35,0.122-0.646,0.366-0.891
		s0.545-0.366,0.903-0.366h11.548c0.342,0,0.635,0.122,0.879,0.366s0.366,0.541,0.366,0.891c0,0.351-0.122,0.647-0.366,0.892
		s-0.537,0.366-0.879,0.366H10.224C9.866,3.931,9.565,3.809,9.321,3.564z M19.599,7.593c0-0.098-0.049-0.146-0.146-0.146h-6.812
		c-0.098,0-0.146,0.049-0.146,0.146v1.318c0,0.098,0.049,0.146,0.146,0.146h6.812c0.098,0,0.146-0.049,0.146-0.146V7.593z
		 M13.764,16.65c0,0.098,0.049,0.146,0.146,0.146h0.757c0.098,0,0.146-0.049,0.146-0.146v-1.782c0-0.098-0.049-0.146-0.146-0.146
		h-0.757c-0.098,0-0.146,0.049-0.146,0.146V16.65z M16.645,16.65c0,0.098,0.049,0.146,0.146,0.146h0.732
		c0.098,0,0.146-0.049,0.146-0.146v-1.782c0-0.098-0.049-0.146-0.146-0.146h-0.732c-0.098,0-0.146,0.049-0.146,0.146V16.65z
		 M20.502,14.868c0-0.098-0.049-0.146-0.146-0.146h-0.732c-0.098,0-0.146,0.049-0.146,0.146v1.782c0,0.098,0.049,0.146,0.146,0.146
		h0.732c0.098,0,0.146-0.049,0.146-0.146V14.868z M19.477,20.972c0,0.098,0.049,0.146,0.146,0.146h0.708
		c0.113,0,0.171-0.082,0.171-0.244v-1.807c0-0.098-0.049-0.146-0.146-0.146h-0.732c-0.098,0-0.146,0.049-0.146,0.146V20.972z"/>
	<path fill="#010101" d="M46.968,8.862c0,0.358-0.126,0.663-0.379,0.916c-0.252,0.252-0.565,0.378-0.939,0.378h-7.544
		c-0.098,0-0.195,0.033-0.293,0.098c-0.766,0.554-1.66,1.164-2.686,1.831c-0.017,0-0.021,0.012-0.013,0.037
		c0.009,0.023,0.021,0.036,0.037,0.036h7.227c0.472,0,0.875,0.167,1.209,0.501c0.333,0.333,0.5,0.736,0.5,1.208v7.837
		c0,0.439-0.15,0.809-0.451,1.111c-0.302,0.301-0.672,0.451-1.111,0.451h-0.952c-0.163,0-0.302-0.059-0.415-0.172
		c-0.114-0.113-0.171-0.26-0.171-0.439c0-0.033-0.024-0.049-0.073-0.049h-8.472c-0.033,0-0.049,0.025-0.049,0.074
		c0,0.178-0.069,0.338-0.208,0.477c-0.138,0.137-0.305,0.207-0.5,0.207h-0.781c-0.407,0-0.757-0.146-1.05-0.439
		s-0.439-0.645-0.439-1.051v-6.542c0-0.032-0.017-0.057-0.049-0.073c-0.033-0.016-0.065-0.016-0.098,0
		c-0.814,0.358-1.571,0.676-2.271,0.952c-0.407,0.164-0.818,0.175-1.232,0.036c-0.416-0.138-0.762-0.394-1.038-0.769
		c-0.212-0.293-0.269-0.614-0.171-0.964c0.098-0.351,0.309-0.582,0.635-0.696c2.686-0.943,5.257-2.14,7.715-3.589
		c0.016,0,0.021-0.012,0.012-0.037c-0.008-0.023-0.021-0.036-0.036-0.036H25.85c-0.358,0-0.663-0.126-0.915-0.378
		c-0.253-0.253-0.379-0.558-0.379-0.916c0-0.374,0.126-0.688,0.379-0.939c0.252-0.253,0.557-0.379,0.915-0.379h6.567
		c0.113,0,0.171-0.049,0.171-0.146V5.42c0-0.098-0.058-0.146-0.171-0.146h-4.419c-0.358,0-0.663-0.126-0.915-0.378
		c-0.253-0.253-0.379-0.558-0.379-0.916c0-0.357,0.126-0.663,0.379-0.916c0.252-0.252,0.557-0.378,0.915-0.378h4.419
		c0.113,0,0.171-0.049,0.171-0.146v-1.05c0-0.423,0.143-0.777,0.427-1.062C33.3,0.143,33.65,0,34.066,0
		c0.414,0,0.765,0.143,1.049,0.427c0.285,0.285,0.428,0.64,0.428,1.062v1.05c0,0.098,0.049,0.146,0.146,0.146h4.15
		c0.309,0,0.574,0.11,0.793,0.329c0.221,0.221,0.33,0.485,0.33,0.794c0,0.017,0.008,0.028,0.024,0.036
		c0.016,0.009,0.024,0.005,0.024-0.012c0.569-0.602,1.114-1.253,1.636-1.953c0.26-0.325,0.59-0.533,0.989-0.623
		c0.398-0.089,0.784-0.044,1.159,0.135c0.342,0.18,0.553,0.451,0.635,0.818c0.081,0.365,0.008,0.695-0.22,0.988
		c-1.123,1.433-2.441,2.849-3.955,4.248c-0.017,0.017-0.021,0.037-0.012,0.061c0.008,0.025,0.027,0.037,0.061,0.037h4.346
		c0.357,0,0.667,0.126,0.928,0.379C46.837,8.175,46.968,8.488,46.968,8.862z M40.816,16.187c0.113,0,0.171-0.049,0.171-0.146v-1.294
		c0-0.098-0.058-0.146-0.171-0.146H32.54c-0.098,0-0.146,0.049-0.146,0.146v1.294c0,0.098,0.049,0.146,0.146,0.146H40.816z
		 M32.393,19.996c0,0.098,0.049,0.146,0.146,0.146h8.276c0.113,0,0.171-0.049,0.171-0.146V18.58c0-0.098-0.058-0.146-0.171-0.146
		H32.54c-0.098,0-0.146,0.049-0.146,0.146V19.996z M35.689,5.273c-0.098,0-0.146,0.049-0.146,0.146v1.978
		c0,0.098,0.049,0.146,0.146,0.146h1.05c0.113,0,0.211-0.032,0.293-0.098c0.977-0.765,1.798-1.456,2.466-2.075
		c0.016-0.016,0.021-0.036,0.012-0.062c-0.008-0.023-0.028-0.036-0.061-0.036H35.689z"/>
	<path fill="#010101" d="M63.717,3.687c-0.033,0.098,0,0.146,0.098,0.146h5.199c0.473,0,0.871,0.167,1.197,0.5
		c0.324,0.334,0.488,0.737,0.488,1.209c-0.164,5.615-0.352,9.538-0.562,11.768c-0.211,2.262-0.57,3.711-1.074,4.346
		c-0.57,0.748-1.367,1.211-2.393,1.391c-0.521,0.064-1.318,0.098-2.393,0.098c-0.424-0.016-0.797-0.17-1.123-0.463
		s-0.561-0.66-0.707-1.1c-0.115-0.326-0.082-0.625,0.098-0.902c0.178-0.277,0.43-0.406,0.756-0.391
		c0.684,0.033,1.416,0.049,2.197,0.049c0.455,0,0.822-0.139,1.1-0.416c0.357-0.391,0.635-1.586,0.83-3.588
		c0.195-2.002,0.357-5.216,0.488-9.644c0-0.098-0.049-0.146-0.146-0.146h-5.055c-0.098,0-0.17,0.049-0.219,0.146
		c-0.391,0.879-0.791,1.669-1.197,2.368c-0.229,0.391-0.57,0.623-1.025,0.695c-0.455,0.074-0.871-0.027-1.244-0.305
		c-0.146-0.081-0.303-0.179-0.465-0.293c-0.016-0.016-0.041-0.016-0.072,0c-0.033,0.017-0.049,0.041-0.049,0.073v9.839
		c0,0.473-0.168,0.875-0.5,1.209c-0.334,0.332-0.738,0.5-1.209,0.5H51.9c-0.098,0-0.146,0.049-0.146,0.146v0.316
		c0,0.375-0.131,0.691-0.391,0.953c-0.261,0.26-0.578,0.391-0.952,0.391c-0.375,0-0.692-0.131-0.952-0.391
		c-0.261-0.262-0.391-0.578-0.391-0.953V5.737c0-0.472,0.167-0.875,0.5-1.209c0.334-0.333,0.736-0.5,1.209-0.5h0.977
		c0.098,0,0.162-0.049,0.195-0.146c0.195-0.781,0.35-1.529,0.464-2.246c0.064-0.455,0.276-0.821,0.635-1.099
		c0.357-0.276,0.757-0.382,1.196-0.317c0.406,0.065,0.723,0.277,0.952,0.635c0.229,0.358,0.27,0.732,0.123,1.123
		c-0.229,0.635-0.465,1.27-0.708,1.904c-0.033,0.098,0,0.146,0.098,0.146h2.027c0.471,0,0.875,0.167,1.209,0.5
		c0.332,0.334,0.5,0.737,0.5,1.209V7.91c0,0.017,0.012,0.028,0.037,0.036c0.023,0.009,0.043,0.005,0.061-0.012
		c1.172-1.758,2.131-3.931,2.881-6.519c0.113-0.391,0.346-0.688,0.695-0.892c0.35-0.203,0.721-0.264,1.111-0.183
		c0.391,0.082,0.688,0.293,0.891,0.635s0.248,0.7,0.135,1.074C64.107,2.523,63.928,3.068,63.717,3.687z M55.586,10.669
		c0.098,0,0.146-0.049,0.146-0.146v-3.76c0-0.098-0.049-0.146-0.146-0.146H51.9c-0.098,0-0.146,0.049-0.146,0.146v3.76
		c0,0.098,0.049,0.146,0.146,0.146H55.586z M51.753,17.994c0,0.098,0.049,0.146,0.146,0.146h3.686c0.098,0,0.146-0.049,0.146-0.146
		v-4.615c0-0.098-0.049-0.146-0.146-0.146H51.9c-0.098,0-0.146,0.049-0.146,0.146V17.994z M65.816,13.94
		c0.211,0.358,0.268,0.741,0.17,1.147c-0.098,0.407-0.326,0.717-0.684,0.928c-0.342,0.212-0.703,0.261-1.086,0.146
		c-0.383-0.113-0.672-0.342-0.867-0.684c-0.521-0.943-1.205-2.059-2.051-3.345c-0.195-0.309-0.252-0.639-0.17-0.988
		c0.08-0.351,0.275-0.614,0.586-0.794c0.342-0.195,0.695-0.252,1.062-0.171c0.365,0.082,0.662,0.277,0.891,0.586
		C64.562,12.036,65.279,13.095,65.816,13.94z"/>
	<path fill="#010101" d="M73.352,6.567c-0.326,0-0.604-0.113-0.83-0.342c-0.229-0.228-0.342-0.504-0.342-0.83
		c0-0.325,0.113-0.602,0.342-0.83c0.227-0.228,0.504-0.342,0.83-0.342h7.25c0.326,0,0.602,0.114,0.83,0.342
		c0.229,0.229,0.342,0.505,0.342,0.83c0,0.326-0.113,0.603-0.342,0.83c-0.229,0.229-0.504,0.342-0.83,0.342H73.352z M79.309,14.795
		c0.471,0,0.875,0.167,1.209,0.501c0.332,0.333,0.5,0.736,0.5,1.208v4.127c0,0.473-0.168,0.875-0.5,1.209
		c-0.334,0.332-0.738,0.5-1.209,0.5h-3.418c-0.066,0-0.098,0.031-0.098,0.098c0,0.244-0.094,0.459-0.281,0.646
		s-0.402,0.281-0.646,0.281h-0.318c-0.342,0-0.635-0.123-0.879-0.367s-0.365-0.537-0.365-0.879v-5.615
		c0-0.471,0.166-0.875,0.5-1.208c0.334-0.334,0.736-0.501,1.209-0.501H79.309z M79.82,7.764c0.309,0,0.574,0.11,0.795,0.329
		c0.219,0.221,0.328,0.485,0.328,0.794c0,0.31-0.109,0.573-0.328,0.794c-0.221,0.219-0.486,0.329-0.795,0.329h-5.346
		c-0.311,0-0.574-0.11-0.793-0.329c-0.221-0.221-0.33-0.484-0.33-0.794c0-0.309,0.109-0.573,0.33-0.794
		c0.219-0.219,0.482-0.329,0.793-0.329H79.82z M74.475,13.525c-0.311,0-0.574-0.11-0.793-0.329c-0.221-0.221-0.33-0.488-0.33-0.807
		c0-0.316,0.109-0.586,0.33-0.805c0.219-0.221,0.482-0.33,0.793-0.33h5.322c0.324,0,0.598,0.109,0.818,0.33
		c0.219,0.219,0.328,0.488,0.328,0.805c0,0.318-0.109,0.586-0.328,0.807c-0.221,0.219-0.494,0.329-0.818,0.329H74.475z
		 M79.748,0.757c0.309,0,0.574,0.109,0.793,0.33c0.221,0.219,0.33,0.488,0.33,0.805c0,0.318-0.109,0.586-0.33,0.807
		c-0.219,0.219-0.484,0.329-0.793,0.329h-5.127c-0.311,0-0.574-0.11-0.793-0.329c-0.221-0.221-0.33-0.488-0.33-0.807
		c0-0.316,0.109-0.586,0.33-0.805c0.219-0.221,0.482-0.33,0.793-0.33H79.748z M78.502,17.285c0-0.098-0.049-0.146-0.146-0.146
		h-2.416c-0.098,0-0.146,0.049-0.146,0.146v2.564c0,0.098,0.049,0.146,0.146,0.146h2.416c0.098,0,0.146-0.049,0.146-0.146V17.285z
		 M95.141,7.604c0.27,0.27,0.402,0.595,0.402,0.977c0,0.383-0.133,0.709-0.402,0.977c-0.268,0.27-0.598,0.403-0.988,0.403h-3.785
		c-0.098,0-0.146,0.049-0.146,0.146v3.027c0,0.098,0.049,0.146,0.146,0.146h2.564c0.471,0,0.875,0.167,1.209,0.501
		c0.332,0.333,0.5,0.736,0.5,1.208v6.884c0,0.406-0.143,0.754-0.428,1.039c-0.285,0.283-0.631,0.426-1.037,0.426h-0.342
		c-0.311,0-0.574-0.109-0.793-0.328c-0.221-0.221-0.33-0.486-0.33-0.795c0-0.064-0.033-0.098-0.098-0.098h-5.518
		c-0.082,0-0.123,0.041-0.123,0.123c0,0.324-0.117,0.605-0.354,0.842s-0.518,0.354-0.842,0.354h-0.221c-0.391,0-0.725-0.139-1-0.414
		c-0.277-0.277-0.416-0.611-0.416-1.002V14.99c0-0.472,0.168-0.875,0.502-1.208c0.332-0.334,0.734-0.501,1.207-0.501h2.197
		c0.098,0,0.146-0.049,0.146-0.146v-3.027c0-0.098-0.049-0.146-0.146-0.146h-3.832c-0.375,0-0.695-0.134-0.965-0.403
		c-0.268-0.268-0.402-0.594-0.402-0.977c0-0.382,0.135-0.707,0.402-0.977c0.27-0.268,0.59-0.402,0.965-0.402h3.832
		c0.098,0,0.146-0.049,0.146-0.146v-2.71c0-0.098-0.049-0.138-0.146-0.122c-0.846,0.098-1.773,0.188-2.783,0.269
		c-0.375,0.033-0.707-0.064-1-0.293c-0.293-0.228-0.498-0.521-0.611-0.879c-0.113-0.309-0.09-0.602,0.074-0.879
		c0.162-0.276,0.406-0.431,0.732-0.464c3.107-0.325,5.721-0.757,7.836-1.294c0.488-0.113,0.969-0.105,1.441,0.024
		c0.471,0.131,0.869,0.383,1.195,0.757c0.244,0.277,0.314,0.599,0.209,0.964c-0.107,0.367-0.34,0.591-0.697,0.672
		C92.5,3.329,91.475,3.54,90.367,3.735c-0.098,0.017-0.146,0.073-0.146,0.171v3.149c0,0.098,0.049,0.146,0.146,0.146h3.785
		C94.543,7.202,94.873,7.337,95.141,7.604z M91.564,19.433c0.098,0,0.146-0.049,0.146-0.146v-3.173c0-0.098-0.049-0.146-0.146-0.146
		h-5.445c-0.098,0-0.146,0.049-0.146,0.146v3.173c0,0.098,0.049,0.146,0.146,0.146H91.564z"/>
</g>
</svg>
