<?xml version="1.0" encoding="utf-8"?>
<!-- Generator: Adobe Illustrator 16.0.0, SVG Export Plug-In . SVG Version: 6.00 Build 0)  -->
<svg version="1.2" baseProfile="tiny" xmlns="http://www.w3.org/2000/svg" xmlns:xlink="http://www.w3.org/1999/xlink"
	 x="0px" y="0px" width="33px" height="33px" viewBox="0 0 33 33" xml:space="preserve">
<path class="fbbg" fill="#231F20" d="M28.001,14.5c0,7.457-6.044,13.5-13.5,13.5S1,21.957,1,14.5S7.044,1,14.5,1
	S28.001,7.044,28.001,14.5z"/>
<path fill="#FFFFFF" d="M12.086,19.157c0-1.444-0.008-2.886,0.008-4.329c0-0.245-0.065-0.32-0.31-0.31
	c-0.449,0.016-0.896,0-1.354,0.008c-0.18,0.008-0.254-0.049-0.244-0.236c0.008-0.896,0.008-1.803,0-2.699
	c0-0.171,0.048-0.229,0.227-0.229c0.457,0.008,0.922-0.016,1.379,0.008c0.27,0.016,0.318-0.082,0.318-0.326
	c-0.016-0.686-0.016-1.37,0-2.055c0.016-0.839,0.245-1.622,0.742-2.299c0.628-0.865,1.526-1.256,2.56-1.306
	c1.062-0.049,2.129-0.024,3.198-0.032c0.146,0,0.193,0.048,0.193,0.195c-0.006,0.914-0.006,1.818,0,2.732
	c0,0.162-0.048,0.211-0.211,0.211c-0.515-0.008-1.027,0-1.532,0c-0.686,0-1.094,0.352-1.135,1.028
	c-0.032,0.539-0.008,1.085-0.024,1.63c-0.008,0.196,0.115,0.181,0.236,0.181c0.775,0,1.559,0.008,2.334-0.008
	c0.227,0,0.3,0.048,0.277,0.285c-0.099,0.906-0.182,1.811-0.262,2.725c-0.016,0.205-0.113,0.245-0.292,0.245
	c-0.612-0.008-1.233-0.008-1.845,0c-0.439,0-0.398-0.066-0.398,0.382c0,2.83-0.01,5.652,0.008,8.482
	c0,0.301-0.074,0.376-0.368,0.366c-1.051-0.016-2.112-0.016-3.164,0c-0.292,0.01-0.342-0.098-0.342-0.358
	C12.086,22.004,12.086,20.585,12.086,19.157z"/>
</svg>
