<svg version="1.1" xmlns="http://www.w3.org/2000/svg" xmlns:xlink="http://www.w3.org/1999/xlink" x="0px" y="0px"
	 width="85.734px" height="90.756px" viewBox="0 0 85.734 90.756" enable-background="new 0 0 85.734 90.756" xml:space="preserve">
<g>
	
		<path fill="#FFFFFF" stroke="#000000" stroke-width="5" stroke-linecap="round" stroke-linejoin="round" stroke-miterlimit="10" d="
		M82.729,65.354c4.987,7.777-28.448,28.793-33.241,21.319c-2.519-3.925-5.759-9.019-9.55-14.925
		c-3.791-5.911-6.07-8.023,0.598-12.303c6.668-4.273,16.516-10.592,20.737-13.301c4.223-2.708,7.558-2.461,11.167,3.166
		C76.049,54.942,80.015,61.122,82.729,65.354z"/>
	<g>
		
			<path fill="#FFFFFF" stroke="#000000" stroke-width="5" stroke-linecap="round" stroke-linejoin="round" stroke-miterlimit="10" d="
			M44.756,7.45c0,0-2.337-2.918-4.465-2.746c-1.884,0.154-3.43,2.029-2.701,4.262c0.265,0.822,1.753,2.975,1.753,2.975
			c0.596,1.039-0.288,1.564-1.083,0.58l-2.529-3.809c-0.885-1.291-3.797-2.501-5.583-1.276c-1.902,1.304-2.224,4.365-1.506,5.411
			c0,0,2.729,4.156,3.685,5.429c0.496,0.669-0.688,1.638-1.698,0.04l-3.494-5.154c-1.071-1.562-4.575-2.751-6.52-1.42
			c-1.951,1.339-1.589,4.357-0.516,5.922l4.119,5.85c0.327,0.837-0.692,1.553-1.229,0.769l-4.391-6.159L9.46,4.955
			C8.388,3.39,6.043,1.627,4.061,2.985C1.905,4.459,2.374,7.323,3.154,8.954l18.537,28.688l-4.248-0.67l-3.559-4.189
			c0,0-3.898-4.559-6.162-3.782c-1.108,0.378-2.034,1.75-2.106,3.146c-0.071,1.32,3.364,6.164,3.364,6.164l3.451,6.284
			c3.807,3.705,8.327,5.907,8.327,5.907c2.729,1.644,7.409,3.627,9.738,4.894c6.984,3.783,12.704,7.42,12.704,7.42
			c2.561,0.789,2.857,0.343,8.089-2.396l5.386-3.214l4.357-4.187l2.376-4.029c-2.141-15.753-9.915-27.63-9.915-27.63L44.756,7.45z"
			/>
	</g>
	<path fill="none" stroke="#000000" stroke-width="3" stroke-linecap="round" stroke-linejoin="round" stroke-miterlimit="10" d="
		M51.116,70.181c1.785-1.146,4.166-0.629,5.312,1.16c1.145,1.786,0.626,4.164-1.161,5.311c-1.784,1.146-4.165,0.627-5.311-1.159
		C48.81,73.703,49.332,71.325,51.116,70.181z"/>
</g>
</svg>
