<svg version="1.1" xmlns="http://www.w3.org/2000/svg" xmlns:xlink="http://www.w3.org/1999/xlink" x="0px" y="0px"
	 width="115.598px" height="35.883px" viewBox="0 0 115.598 35.883" enable-background="new 0 0 115.598 35.883"
	 xml:space="preserve">
<polygon points="1.164,0 7.721,0 11.031,10.885 11.074,10.885 14.545,0 20.853,0 20.853,16.373 16.783,16.373 16.845,3.803 
	16.801,3.803 12.821,16.373 8.994,16.373 5.19,3.803 5.147,3.803 5.236,16.373 1.164,16.373 "/>
<polygon points="28.226,10.205 22.455,0.008 27.24,0.008 30.304,6.57 33.326,0.008 38.115,0.008 32.387,10.205 32.387,16.373 
	28.226,16.373 "/>
<rect x="37.43" y="12.574" width="3.764" height="3.797"/>
<polygon points="46.879,3.24 43.029,3.24 43.029,0.008 54.889,0.008 54.889,3.24 51.034,3.24 51.034,16.373 46.879,16.373 "/>
<path d="M5.93,19.234h5.102l6.021,16.367h-4.566l-1.162-3.494H5.459l-1.23,3.494H0L5.93,19.234z M8.479,22.613H8.434L6.42,29.008
	h3.915L8.479,22.613z"/>
<g>
	<path d="M26.812,26.76c-0.445-0.139-0.889-0.139-1.365-0.139c-1.875,0-2.932,1.43-2.932,3.818v5.16h-4.021V23.383h3.668v2.248
		h0.039c0.695-1.543,1.701-2.531,3.448-2.531c0.472,0,0.964,0.071,1.366,0.146L26.812,26.76z"/>
	<path d="M37.163,26.878c-0.742-0.467-1.481-0.681-2.442-0.681c-1.746,0-3.084,1.268-3.084,3.38c0,1.945,1.562,3.209,3.305,3.209
		c0.918,0,1.839-0.209,2.508-0.585l0.09,3.141c-1.006,0.354-2.216,0.541-3.289,0.541c-3.843,0-6.775-2.344-6.775-6.375
		c0-4.062,2.933-6.406,6.775-6.406c1.21,0,2.283,0.212,3.199,0.678L37.163,26.878z"/>
	<path d="M39.225,18.012h4.023v7.177h0.049c0.871-1.267,2.146-2.087,3.891-2.087c3.18,0,4.451,2.344,4.451,4.88V35.6h-4.021v-5.908
		c0-2.301-0.763-3.07-1.86-3.07c-1.655,0-2.509,1.195-2.509,3.818v5.16h-4.023V18.012z"/>
</g>
<path d="M58.649,21.393h-4.022v-3.097h4.022V21.393z M54.623,23.383h4.026V35.6h-4.026V23.383z"/>
<g>
	<path d="M60.604,23.383h2.374v-2.742l3.957-1.291v4.033h2.815v2.957h-2.815v4.5c0,1.479,0.331,2.229,1.61,2.229
		c0.403,0,0.824-0.098,1.229-0.164l0.133,2.744c-0.759,0.094-1.52,0.232-2.525,0.232c-3.601,0-4.473-1.666-4.473-4.57V26.34h-2.305
		V23.383z"/>
	<path d="M75.083,30.725c0.223,1.689,1.45,2.344,3.422,2.344c1.097,0,2.349-0.255,3.558-0.938v2.978
		c-1.299,0.541-2.772,0.775-4.272,0.775c-3.849,0-6.781-2.369-6.781-6.401c0-4.036,2.619-6.38,6.247-6.38
		c4.314,0,5.884,3.214,5.884,6.846v0.777H75.083z M79.513,28.332c0-1.406-0.625-2.559-2.237-2.559c-1.455,0-2.15,1.152-2.239,2.559
		H79.513z"/>
	<path d="M94.373,26.878c-0.739-0.467-1.478-0.681-2.438-0.681c-1.747,0-3.087,1.268-3.087,3.38c0,1.945,1.568,3.209,3.309,3.209
		c0.92,0,1.836-0.209,2.51-0.585l0.084,3.141c-1.008,0.354-2.215,0.541-3.283,0.541c-3.85,0-6.78-2.344-6.78-6.375
		c0-4.061,2.931-6.406,6.78-6.406c1.208,0,2.275,0.212,3.199,0.678L94.373,26.878z"/>
	<path d="M95.406,23.383h2.377v-2.742l3.959-1.291v4.033h2.82v2.957h-2.82v4.5c0,1.479,0.334,2.229,1.604,2.229
		c0.407,0,0.83-0.098,1.235-0.164l0.136,2.744c-0.763,0.094-1.526,0.232-2.531,0.232c-3.604,0-4.472-1.666-4.472-4.57V26.34h-2.309
		V23.383z"/>
	<path d="M106.152,32.223c0.939,0.425,2.325,0.846,3.783,0.846c0.83,0,1.627-0.141,1.627-0.984c0-2.062-5.726-0.611-5.726-5.019
		c0-2.815,2.641-3.964,4.969-3.964c1.383,0,2.799,0.166,4.093,0.705l-0.314,2.932c-0.849-0.541-2.123-0.824-3.128-0.824
		c-0.877,0-1.854,0.166-1.854,0.848c0,1.901,5.995,0.396,5.995,5.041c0,3.258-2.797,4.078-5.441,4.078
		c-1.81,0-3.039-0.186-4.225-0.584L106.152,32.223z"/>
</g>
</svg>
