<svg version="1.1" xmlns="http://www.w3.org/2000/svg" xmlns:xlink="http://www.w3.org/1999/xlink" x="0px" y="0px"
	 width="101.616px" height="47.772px" viewBox="0 0 101.616 47.772" enable-background="new 0 0 101.616 47.772"
	 xml:space="preserve">
<g>
	<path d="M6.03,12.139c1.452,0,2.681-1.19,2.681-2.82c0-1.637-1.229-2.824-2.681-2.824S3.347,7.682,3.347,9.318
		C3.347,10.948,4.578,12.139,6.03,12.139 M6.03,3.367c4.072,0,6.027,3.207,6.027,5.951c0,2.74-1.955,5.945-6.027,5.945
		C1.955,15.264,0,12.059,0,9.318C0,6.574,1.955,3.367,6.03,3.367"/>
	<path d="M12.744,3.731h3.125V4.92h0.04c0.344-0.543,1.048-1.574,3.045-1.574c1.069,0,2.259,0.443,2.864,0.971
		c0.605,0.524,1.291,1.41,1.291,3.608v6.997h-3.348V8.813c0-0.788,0-2.319-1.755-2.319c-1.917,0-1.917,1.653-1.917,2.336v6.092
		h-3.346V3.731z"/>
</g>
<path d="M24.076,14.922h3.347V3.731h-3.347V14.922z M24.076,2.541h3.347V0h-3.347V2.541z"/>
<g>
	<path d="M33.936,12.139c1.453,0,2.682-1.19,2.682-2.82c0-1.637-1.229-2.824-2.682-2.824c-1.451,0-2.683,1.188-2.683,2.824
		C31.253,10.948,32.484,12.139,33.936,12.139 M33.936,3.367c4.072,0,6.028,3.207,6.028,5.951c0,2.74-1.956,5.945-6.028,5.945
		s-6.029-3.205-6.029-5.945C27.906,6.574,29.863,3.367,33.936,3.367"/>
	<path d="M40.446,3.731h3.127V4.92h0.04c0.343-0.543,1.05-1.574,3.047-1.574c1.067,0,2.257,0.443,2.862,0.971
		c0.605,0.524,1.29,1.41,1.29,3.608v6.997h-3.346V8.813c0-0.788,0-2.319-1.756-2.319c-1.915,0-1.915,1.653-1.915,2.336v6.092h-3.35
		V3.731z"/>
	<path d="M6.151,28.393c2.097,0,2.863-1.713,2.863-2.883c0-1.35-0.969-2.803-2.824-2.803c-1.937,0-2.844,1.511-2.844,2.803
		C3.347,27.244,4.578,28.393,6.151,28.393 M12.18,31.158H8.994v-1.212H8.953c-0.282,0.464-1.088,1.571-3.348,1.571
		c-3.388,0-5.605-2.62-5.605-5.99c0-3.787,2.703-5.947,5.545-5.947c1.976,0,2.923,0.97,3.287,1.334v-4.68h3.348V31.158z"/>
	<path d="M21.415,24.32c-0.142-0.665-0.807-1.918-2.54-1.918c-1.734,0-2.401,1.253-2.542,1.918H21.415z M24.379,27.649
		c-0.545,1.248-1.331,2.217-2.278,2.862c-0.929,0.664-2.036,1.006-3.186,1.006c-3.207,0-5.928-2.6-5.928-5.927
		c0-3.125,2.458-6.011,5.866-6.011c3.406,0,5.908,2.703,5.908,6.111c0,0.443-0.041,0.625-0.082,0.887h-8.386
		c0.199,1.33,1.31,2.118,2.621,2.118c1.028,0,1.572-0.462,2.037-1.047H24.379z"/>
	<path d="M30.367,23.109c-0.02-0.238-0.061-0.846-1.05-0.846c-0.705,0-0.945,0.443-0.945,0.746c0,0.604,0.824,0.949,1.712,1.208
		c1.896,0.526,3.912,1.091,3.912,3.509c0,2.361-2.077,3.811-4.556,3.811c-1.694,0-4.255-0.765-4.559-3.709h3.327
		c0.143,1.029,1.13,1.029,1.271,1.029c0.565,0,1.17-0.324,1.17-0.867c0-0.867-0.827-0.968-2.964-1.794
		c-1.451-0.464-2.661-1.411-2.661-2.924c0-2.218,2.015-3.692,4.336-3.692c1.472,0,4.011,0.584,4.295,3.529H30.367z"/>
</g>
<path d="M38.009,31.157h-3.347V19.968h3.347V31.157z M38.009,18.773h-3.347v-2.539h3.347V18.773z"/>
<g>
	<path d="M44.925,28.393c1.615,0,2.743-1.17,2.743-2.781c0-1.795-1.23-2.882-2.724-2.882c-1.429,0-2.702,1.146-2.702,2.78
		C42.242,27.303,43.535,28.393,44.925,28.393 M51.015,29.805c0,1.675-0.122,2.743-0.667,3.691c-0.865,1.411-2.902,2.639-5.664,2.639
		c-3.891,0-5.364-2.337-5.586-3.93h3.872c0.484,1.11,1.735,1.11,1.955,1.11c0.424,0,2.722-0.042,2.722-3.048v-0.343h-0.041
		c-0.342,0.646-1.31,1.593-3.063,1.593c-3.044,0-5.646-2.299-5.646-5.886c0-3.834,2.744-6.03,5.646-6.03
		c1.251,0,2.479,0.443,3.086,1.412h0.04v-1.048h3.347V29.805z"/>
	<path d="M52.386,19.968h3.125v1.188h0.041c0.343-0.546,1.05-1.575,3.045-1.575c1.07,0,2.258,0.445,2.864,0.97
		c0.604,0.524,1.289,1.411,1.289,3.608v6.999h-3.347v-6.112c0-0.785,0-2.315-1.756-2.315c-1.915,0-1.915,1.649-1.915,2.337v6.091
		h-3.347V19.968z"/>
	<path d="M6.131,44.647c2.097,0,2.804-1.774,2.804-2.862c0-1.352-0.929-2.845-2.824-2.845c-1.917,0-2.764,1.612-2.764,2.884
		C3.347,42.873,4.114,44.647,6.131,44.647 M12.279,47.391H8.935v-1.213H8.893c-0.566,1.09-1.955,1.595-3.266,1.595
		c-3.55,0-5.626-2.783-5.626-5.987c0-3.671,2.641-5.97,5.626-5.97c1.835,0,2.862,0.886,3.266,1.571h0.042v-1.188h3.345V47.391z"/>
	<path d="M18.471,39.346c-0.022-0.244-0.061-0.85-1.05-0.85c-0.703,0-0.947,0.444-0.947,0.748c0,0.604,0.827,0.947,1.715,1.209
		c1.896,0.523,3.912,1.088,3.912,3.508c0,2.359-2.077,3.812-4.558,3.812c-1.693,0-4.255-0.764-4.556-3.709h3.325
		c0.142,1.028,1.13,1.028,1.271,1.028c0.564,0,1.168-0.324,1.168-0.869c0-0.865-0.824-0.964-2.964-1.793
		c-1.451-0.462-2.661-1.412-2.661-2.921c0-2.224,2.019-3.693,4.339-3.693c1.471,0,4.01,0.585,4.293,3.53H18.471z"/>
	<path d="M28.33,39.346c-0.019-0.244-0.061-0.85-1.047-0.85c-0.706,0-0.948,0.444-0.948,0.748c0,0.604,0.827,0.947,1.711,1.209
		c1.899,0.523,3.914,1.088,3.914,3.508c0,2.359-2.077,3.812-4.556,3.812c-1.694,0-4.256-0.764-4.559-3.709h3.326
		c0.143,1.028,1.128,1.028,1.271,1.028c0.563,0,1.169-0.324,1.169-0.869c0-0.865-0.827-0.964-2.964-1.793
		c-1.452-0.462-2.661-1.412-2.661-2.921c0-2.224,2.017-3.693,4.335-3.693c1.472,0,4.013,0.585,4.295,3.53H28.33z"/>
	<path d="M38.534,44.609c1.451,0,2.681-1.191,2.681-2.824s-1.229-2.824-2.681-2.824c-1.453,0-2.682,1.191-2.682,2.824
		S37.081,44.609,38.534,44.609 M38.534,35.834c4.072,0,6.03,3.207,6.03,5.951c0,2.742-1.958,5.947-6.03,5.947
		c-4.073,0-6.03-3.205-6.03-5.947C32.504,39.041,34.461,35.834,38.534,35.834"/>
	<path d="M56.926,43.135c-0.607,2.543-2.845,4.617-5.87,4.617c-3.386,0-5.987-2.66-5.987-5.988c0-3.287,2.562-5.948,5.908-5.948
		c2.963,0,5.363,1.952,5.929,4.698h-3.388c-0.365-0.766-1.029-1.573-2.419-1.573c-1.596-0.079-2.662,1.231-2.662,2.845
		c0,1.633,1.066,2.842,2.662,2.842c1.39,0,2.054-0.804,2.419-1.492H56.926z"/>
</g>
<path d="M57.588,47.391h3.349V36.198h-3.349V47.391z M57.588,35.01h3.349v-2.542h-3.349V35.01z"/>
<g>
	<path d="M67.709,44.647c2.098,0,2.801-1.774,2.801-2.862c0-1.352-0.927-2.845-2.822-2.845c-1.915,0-2.763,1.612-2.763,2.884
		C64.925,42.873,65.69,44.647,67.709,44.647 M73.858,47.391H70.51v-1.213h-0.039c-0.566,1.09-1.957,1.595-3.268,1.595
		c-3.55,0-5.625-2.783-5.625-5.987c0-3.671,2.643-5.97,5.625-5.97c1.835,0,2.862,0.886,3.268,1.571h0.039v-1.188h3.349V47.391z"/>
</g>
<polygon points="76.054,32.468 76.054,36.198 74.399,36.198 74.399,38.74 76.054,38.74 76.054,47.391 79.398,47.391 79.398,38.74 
	81.014,38.74 81.014,36.198 79.398,36.198 79.398,32.468 "/>
<g>
	<path d="M89.037,40.553c-0.143-0.662-0.809-1.914-2.543-1.914c-1.731,0-2.398,1.252-2.541,1.914H89.037z M92,43.884
		c-0.545,1.25-1.333,2.216-2.277,2.86c-0.929,0.664-2.038,1.008-3.188,1.008c-3.207,0-5.929-2.603-5.929-5.928
		c0-3.125,2.461-6.009,5.868-6.009c3.408,0,5.909,2.702,5.909,6.109c0,0.444-0.04,0.626-0.08,0.891h-8.39
		c0.202,1.327,1.311,2.112,2.621,2.112c1.028,0,1.573-0.459,2.036-1.044H92z"/>
	<path d="M97.99,39.346c-0.021-0.244-0.061-0.85-1.051-0.85c-0.705,0-0.947,0.444-0.947,0.748c0,0.604,0.826,0.947,1.715,1.209
		c1.896,0.523,3.909,1.088,3.909,3.508c0,2.359-2.074,3.812-4.554,3.812c-1.693,0-4.256-0.764-4.559-3.709h3.328
		c0.14,1.028,1.128,1.028,1.269,1.028c0.567,0,1.17-0.324,1.17-0.869c0-0.865-0.827-0.964-2.964-1.793
		c-1.452-0.462-2.661-1.412-2.661-2.921c0-2.224,2.018-3.693,4.335-3.693c1.473,0,4.014,0.585,4.294,3.53H97.99z"/>
</g>
</svg>
