<svg version="1.1" xmlns="http://www.w3.org/2000/svg" xmlns:xlink="http://www.w3.org/1999/xlink" x="0px" y="0px"
	 width="26.637px" height="26.636px" viewBox="0 0 26.637 26.636" enable-background="new 0 0 26.637 26.636" xml:space="preserve">
<g>
	<path fill="#FFFFFF" d="M11.86,20.865c-0.976-2.439-3.652-5.115-6.091-6.09l-3.642-1.458l3.643-1.457
		c2.439-0.976,5.115-3.651,6.091-6.091l1.458-3.643l1.458,3.644c0.975,2.438,3.65,5.114,6.09,6.09l3.645,1.458l-3.644,1.458
		c-2.441,0.977-5.116,3.651-6.091,6.091c0,0-1.458,3.644-1.458,3.644L11.86,20.865z"/>
	<path d="M13.318,6.431c1.147,2.799,4.085,5.737,6.885,6.886c-2.801,1.149-5.739,4.088-6.885,6.886
		c-1.148-2.801-4.087-5.738-6.885-6.886C9.232,12.169,12.17,9.231,13.318,6.431 M13.318,0c-0.539,0-1.077,0.511-1.486,1.532
		l-1.458,3.643c-0.817,2.042-3.157,4.382-5.2,5.2l-3.643,1.457c-2.042,0.817-2.042,2.154,0,2.971l3.643,1.458
		c2.042,0.816,4.382,3.156,5.2,5.199l1.458,3.644c0.409,1.021,0.947,1.532,1.486,1.532s1.077-0.511,1.485-1.532l1.458-3.644
		c0.816-2.043,3.156-4.382,5.199-5.199l3.644-1.457c2.043-0.817,2.043-2.154,0-2.972l-3.644-1.458
		c-2.043-0.817-4.383-3.157-5.199-5.2l-1.458-3.643C14.396,0.511,13.857,0,13.318,0L13.318,0z"/>
</g>
</svg>
