<svg version="1.1" xmlns="http://www.w3.org/2000/svg" xmlns:xlink="http://www.w3.org/1999/xlink" x="0px" y="0px"
	 width="21.641px" height="21.636px" viewBox="0 0 21.641 21.636" enable-background="new 0 0 21.641 21.636" xml:space="preserve">
<g>
	<path fill="#FFFFFF" d="M10.075,17.652c-0.977-2.439-3.652-5.114-6.092-6.091c0,0-1.857-0.743-1.858-0.743
		c0,0,1.858-0.744,1.858-0.744c2.439-0.976,5.115-3.651,6.092-6.09c0,0,0.745-1.861,0.745-1.862c0,0.001,0.746,1.862,0.746,1.862
		c0.976,2.439,3.651,5.114,6.091,6.09l1.858,0.744l-1.858,0.744c-2.438,0.975-5.114,3.649-6.091,6.09c0,0-0.745,1.859-0.746,1.861
		C10.819,19.511,10.075,17.652,10.075,17.652z"/>
	<path d="M10.82,6.046c1.127,1.862,2.909,3.644,4.771,4.772c-1.862,1.127-3.644,2.909-4.771,4.772
		c-1.127-1.862-2.908-3.644-4.771-4.772C7.911,9.69,9.692,7.909,10.82,6.046 M10.82,0c-0.539,0-1.078,0.51-1.487,1.532L8.589,3.39
		C7.771,5.433,5.431,7.772,3.389,8.589L1.532,9.332c-2.042,0.817-2.042,2.155,0,2.972l1.856,0.742
		c2.042,0.817,4.383,3.157,5.201,5.2l0.744,1.857c0.409,1.021,0.948,1.532,1.487,1.532s1.078-0.511,1.487-1.532l0.744-1.857
		c0.817-2.043,3.157-4.383,5.2-5.199l1.857-0.743c2.043-0.817,2.043-2.154,0-2.972l-1.857-0.743c-2.043-0.817-4.383-3.157-5.2-5.199
		l-0.744-1.858C11.897,0.51,11.359,0,10.82,0L10.82,0z"/>
</g>
</svg>
