<svg version="1.1" xmlns="http://www.w3.org/2000/svg" xmlns:xlink="http://www.w3.org/1999/xlink" x="0px" y="0px"
	 width="686.559px" height="123.175px" viewBox="0 0 686.559 123.175" enable-background="new 0 0 686.559 123.175"
	 xml:space="preserve">
<g class="checkIcon4 fadeIn" style="opacity:0">
	
		<polygon fill="none" stroke="#000000" stroke-width="4" stroke-linecap="round" stroke-linejoin="round" stroke-miterlimit="10" points="
		463.171,61.592 493.591,21.283 524.01,61.592 	"/>
	<g>
		<path fill="#FFFFFF" d="M492.508,2.5c-2.2,0-5.171,1.367-6.604,3.038l-3.961,4.621c-1.432,1.671-2.603,4.838-2.603,7.038v13.391
			c0,2.2,1.8,4,4,4h13.392c2.2,0,5.171-1.366,6.604-3.037l3.961-4.622c1.432-1.67,2.603-4.837,2.603-7.037V6.5c0-2.2-1.8-4-4-4
			H492.508z"/>
		<path fill="none" stroke="#000000" stroke-width="4" stroke-linecap="round" stroke-linejoin="round" stroke-miterlimit="10" d="
			M492.508,2.5c-2.2,0-5.171,1.367-6.604,3.038l-3.961,4.621c-1.432,1.671-2.603,4.838-2.603,7.038v13.391c0,2.2,1.8,4,4,4h13.392
			c2.2,0,5.171-1.366,6.604-3.037l3.961-4.622c1.432-1.67,2.603-4.837,2.603-7.037V6.5c0-2.2-1.8-4-4-4H492.508z"/>
	</g>
	<g>
		
			<polyline fill="#FFFFFF" stroke="#000000" stroke-width="3" stroke-linecap="round" stroke-linejoin="round" stroke-miterlimit="10" points="
			481.379,13.197 500.732,13.197 500.732,32.549 		"/>
		
			<line fill="none" stroke="#000000" stroke-width="3" stroke-linecap="round" stroke-linejoin="round" stroke-miterlimit="10" x1="508.605" y1="4.01" x2="500.732" y2="13.197"/>
	</g>
	<g>
		<path fill="#F8EB4D" d="M522.048,44.026c-0.835-0.717-1.913-0.494-2.396,0.494l-13.479,27.606
			c-0.483,0.988,0.021,1.797,1.122,1.797h26.466c1.1,0,2.095-0.896,2.211-1.987l1.342-12.648c0.116-1.094-0.473-2.574-1.308-3.291
			L522.048,44.026z"/>
		<path fill="none" stroke="#000000" stroke-width="4" stroke-linecap="round" stroke-linejoin="round" stroke-miterlimit="10" d="
			M522.048,44.026c-0.835-0.717-1.913-0.494-2.396,0.494l-13.479,27.606c-0.483,0.988,0.021,1.797,1.122,1.797h26.466
			c1.1,0,2.095-0.896,2.211-1.987l1.342-12.648c0.116-1.094-0.473-2.574-1.308-3.291L522.048,44.026z"/>
	</g>
	
		<line fill="none" stroke="#000000" stroke-width="3" stroke-linecap="round" stroke-linejoin="round" stroke-miterlimit="10" x1="520.528" y1="42.724" x2="535.76" y2="73.925"/>
	<g>
		
			<path fill="#FFFFFF" stroke="#000000" stroke-width="4" stroke-linecap="round" stroke-linejoin="round" stroke-miterlimit="10" d="
			M476.527,64.544c0,7.438-6.033,13.474-13.474,13.474c-1.549,0-3.037-0.263-4.424-0.744c-5.271-1.83-6.563-3.175-6.563-3.175
			l12.692-23.762c0,0,5.704,2.392,8.165,5.038C475.158,57.781,476.527,61.004,476.527,64.544z"/>
		
			<circle fill="#FFFFFF" stroke="#000000" stroke-width="4" stroke-linecap="round" stroke-linejoin="round" stroke-miterlimit="10" cx="457.6" cy="61.302" r="13.472"/>
	</g>
	
		<circle fill="#FFFFFF" stroke="#000000" stroke-width="3" stroke-linecap="round" stroke-linejoin="round" stroke-miterlimit="10" cx="457.6" cy="61.302" r="13.472"/>
	<path d="M462.556,114.912c0.26,0.223,0.406,0.506,0.438,0.853c0.031,0.345-0.057,0.659-0.264,0.944
		c-0.184,0.234-0.428,0.354-0.732,0.354c-0.307,0-0.557-0.108-0.752-0.332c-0.286-0.354-0.617-0.729-0.995-1.133
		c-0.015-0.026-0.027-0.032-0.05-0.021c-0.02,0.012-0.026,0.025-0.026,0.039v6.366c0,0.325-0.115,0.604-0.345,0.83
		c-0.229,0.229-0.502,0.342-0.817,0.342c-0.32,0-0.597-0.112-0.82-0.342c-0.229-0.229-0.342-0.505-0.342-0.83v-5.703
		c0-0.013-0.016-0.024-0.039-0.038c-0.027-0.014-0.047-0.014-0.062,0c-0.44,0.402-0.893,0.773-1.348,1.112
		c-0.262,0.185-0.545,0.229-0.85,0.138c-0.31-0.092-0.537-0.285-0.693-0.587c-0.156-0.284-0.199-0.593-0.127-0.918
		c0.07-0.323,0.244-0.577,0.518-0.762c0.718-0.495,1.412-1.074,2.093-1.738c0.963-0.964,1.77-1.999,2.422-3.104
		c0.012-0.024,0.012-0.051,0-0.078c-0.017-0.024-0.033-0.037-0.062-0.037h-3.633c-0.287,0-0.537-0.105-0.752-0.322
		c-0.215-0.215-0.322-0.469-0.322-0.762c0-0.295,0.107-0.549,0.322-0.764s0.465-0.32,0.752-0.32h1.643
		c0.091,0,0.138-0.039,0.138-0.117v-2.4c0-0.312,0.112-0.584,0.342-0.812c0.229-0.229,0.5-0.345,0.82-0.345
		c0.315,0,0.592,0.115,0.817,0.345c0.229,0.229,0.345,0.498,0.345,0.812v2.4c0,0.078,0.038,0.117,0.114,0.117h0.765
		c0.022,0,0.045,0,0.059,0c0.26-0.064,0.494-0.025,0.703,0.115l0.371,0.215c0.195,0.132,0.328,0.308,0.398,0.527
		c0.069,0.223,0.057,0.438-0.05,0.646c-0.535,1.196-1.188,2.353-1.973,3.457c-0.039,0.063-0.033,0.124,0.02,0.176
		C461.377,113.871,462.032,114.431,462.556,114.912z M469.177,120.068c0,0.078,0.039,0.117,0.117,0.117h3.008
		c0.312,0,0.582,0.113,0.811,0.342c0.229,0.229,0.342,0.498,0.342,0.811c0,0.313-0.112,0.584-0.342,0.813
		c-0.229,0.229-0.498,0.344-0.811,0.344h-9.004c-0.313,0-0.584-0.115-0.813-0.344c-0.228-0.229-0.342-0.498-0.342-0.813
		c0-0.312,0.113-0.582,0.342-0.811c0.229-0.229,0.498-0.342,0.813-0.342h3.301c0.09,0,0.137-0.039,0.137-0.117v-7.09
		c0-0.078-0.047-0.117-0.137-0.117h-2.48c-0.312,0-0.584-0.113-0.811-0.342c-0.229-0.229-0.342-0.498-0.342-0.811
		c0-0.313,0.11-0.584,0.342-0.813c0.227-0.229,0.498-0.342,0.811-0.342h2.48c0.09,0,0.137-0.039,0.137-0.117v-4.629
		c0-0.325,0.119-0.607,0.361-0.852c0.24-0.24,0.524-0.359,0.856-0.359s0.617,0.119,0.859,0.359c0.24,0.242,0.361,0.523,0.361,0.852
		v4.629c0,0.078,0.039,0.117,0.115,0.117h2.5c0.313,0,0.582,0.113,0.813,0.342c0.227,0.229,0.342,0.498,0.342,0.813
		c0,0.312-0.115,0.582-0.342,0.811c-0.229,0.229-0.498,0.342-0.813,0.342h-2.5c-0.076,0-0.115,0.039-0.115,0.117L469.177,120.068
		L469.177,120.068z"/>
	<path d="M477.649,115.264c-0.025,0.077,0,0.116,0.078,0.116h3.828c0.379,0,0.701,0.135,0.967,0.4c0.268,0.268,0.4,0.59,0.4,0.967
		v4.004c0,0.379-0.136,0.701-0.4,0.967c-0.266,0.268-0.588,0.4-0.967,0.4h-3.398c-0.051,0-0.078,0.024-0.078,0.076
		c0,0.264-0.09,0.479-0.271,0.664s-0.402,0.271-0.664,0.271h-0.137c-0.302,0-0.556-0.104-0.765-0.311
		c-0.207-0.207-0.312-0.463-0.312-0.763v-3.478c0-0.015-0.01-0.021-0.029-0.029c-0.019-0.008-0.029-0.004-0.029,0.011
		c-0.192,0.224-0.438,0.321-0.729,0.304c-0.293-0.02-0.537-0.146-0.732-0.382l-0.02-0.021c-0.207-0.248-0.313-0.537-0.313-0.869
		c0-0.331,0.101-0.629,0.293-0.889c0.588-0.756,1.063-1.668,1.429-2.733c0.014-0.054-0.007-0.078-0.062-0.078
		c-0.231,0-0.432-0.081-0.596-0.244c-0.162-0.161-0.244-0.36-0.244-0.597v-0.137c0-0.272,0.098-0.508,0.293-0.703
		c0.195-0.194,0.43-0.293,0.703-0.293h0.332c0.078,0,0.125-0.039,0.137-0.117c0.027-0.145,0.055-0.331,0.078-0.564
		c0.039-0.234,0.072-0.416,0.098-0.548c0.017-0.077-0.02-0.116-0.098-0.116h-1.521c-0.272,0-0.51-0.099-0.702-0.293
		c-0.195-0.195-0.293-0.428-0.293-0.693c0-0.264,0.098-0.498,0.293-0.691c0.192-0.193,0.43-0.293,0.702-0.293h1.72
		c0.078,0,0.117-0.039,0.117-0.117c0.024-0.43,0.047-0.773,0.059-1.033c0.014-0.078-0.021-0.117-0.098-0.117h-0.726
		c-0.271,0-0.508-0.099-0.703-0.293c-0.192-0.194-0.293-0.431-0.293-0.703s0.101-0.508,0.293-0.702
		c0.195-0.195,0.433-0.294,0.703-0.294h5.195c0.379,0,0.701,0.135,0.967,0.4c0.271,0.266,0.4,0.588,0.4,0.967v1.814
		c0,0.053,0.024,0.078,0.078,0.078c0.262,0,0.479,0.088,0.651,0.266c0.178,0.176,0.267,0.395,0.267,0.652v0.139
		c0,0.26-0.088,0.479-0.267,0.652c-0.176,0.176-0.393,0.266-0.651,0.266c-0.054,0-0.078,0.024-0.078,0.078v1.875
		c0,0.377-0.133,0.698-0.4,0.967c-0.266,0.268-0.588,0.398-0.967,0.398h-2.969c-0.078,0-0.129,0.039-0.156,0.117
		C477.981,114.3,477.845,114.716,477.649,115.264z M480.616,117.529c0-0.078-0.039-0.117-0.114-0.117h-2.308
		c-0.078,0-0.117,0.039-0.117,0.117v2.441c0,0.078,0.039,0.117,0.117,0.117h2.308c0.075,0,0.114-0.039,0.114-0.117V117.529z
		 M480.364,110.693c0-0.078-0.039-0.117-0.117-0.117h-1.364c-0.078,0-0.123,0.039-0.14,0.117l-0.192,1.113
		c-0.015,0.078,0.02,0.117,0.098,0.117h1.603c0.077,0,0.116-0.039,0.116-0.117L480.364,110.693L480.364,110.693z M480.364,107.451
		c0-0.078-0.039-0.117-0.117-0.117h-1.071c-0.078,0-0.117,0.039-0.117,0.117c-0.012,0.248-0.039,0.594-0.078,1.035
		c-0.012,0.078,0.021,0.117,0.098,0.117h1.173c0.077,0,0.116-0.039,0.116-0.117L480.364,107.451L480.364,107.451z M491.517,116.416
		c0.312,0,0.58,0.11,0.801,0.332c0.224,0.225,0.332,0.485,0.332,0.791c0,0.309-0.108,0.569-0.332,0.791
		c-0.221,0.223-0.488,0.332-0.801,0.332h-2.461c-0.078,0-0.117,0.039-0.117,0.117v3.125c0,0.313-0.109,0.579-0.332,0.801
		c-0.221,0.223-0.49,0.332-0.811,0.332c-0.318,0-0.59-0.109-0.813-0.332c-0.221-0.222-0.332-0.488-0.332-0.801v-3.125
		c0-0.078-0.039-0.117-0.117-0.117h-2.129c-0.299,0-0.559-0.109-0.78-0.332c-0.222-0.222-0.331-0.482-0.331-0.791
		c0-0.306,0.109-0.566,0.331-0.791c0.225-0.222,0.481-0.332,0.78-0.332h2.129c0.078,0,0.117-0.039,0.117-0.117v-1.854
		c0-0.076-0.039-0.115-0.117-0.115h-1.481c-0.3,0-0.556-0.104-0.765-0.312c-0.207-0.208-0.312-0.463-0.312-0.763
		c0-0.301,0.104-0.555,0.312-0.762c0.209-0.209,0.465-0.312,0.765-0.312h1.481c0.078,0,0.117-0.039,0.117-0.117v-1.582
		c0-0.077-0.039-0.116-0.117-0.116h-1.719c-0.299,0-0.553-0.104-0.762-0.313c-0.207-0.207-0.313-0.463-0.313-0.764
		c0-0.299,0.105-0.554,0.313-0.762c0.209-0.207,0.463-0.313,0.762-0.313h0.039c0.066,0,0.092-0.029,0.078-0.098
		c-0.156-0.688-0.396-1.379-0.724-2.07c-0.104-0.231-0.108-0.475-0.021-0.723c0.092-0.246,0.262-0.41,0.508-0.488
		c0.273-0.104,0.547-0.104,0.82-0.01c0.271,0.098,0.48,0.271,0.625,0.52c0.209,0.402,0.379,0.795,0.508,1.173
		c0.131,0.339,0.107,0.667-0.067,0.983c-0.176,0.32-0.433,0.545-0.771,0.676c-0.012,0-0.021,0.008-0.021,0.021
		c0,0.012,0.01,0.02,0.021,0.02h3.848c0.017-0.014,0.017-0.025,0-0.038c-0.338-0.093-0.577-0.298-0.723-0.615
		c-0.143-0.317-0.148-0.644-0.021-0.967c0.146-0.364,0.272-0.729,0.393-1.095c0.104-0.313,0.293-0.551,0.564-0.713
		c0.272-0.164,0.563-0.205,0.858-0.127c0.301,0.063,0.521,0.232,0.654,0.508c0.136,0.273,0.141,0.547,0.01,0.82
		c-0.469,1.055-0.793,1.758-0.977,2.107c-0.015,0.025-0.015,0.052,0,0.077c0.014,0.026,0.03,0.038,0.059,0.038h0.646
		c0.303,0,0.557,0.105,0.764,0.313c0.209,0.209,0.312,0.465,0.312,0.764c0,0.301-0.104,0.555-0.312,0.762
		c-0.207,0.209-0.461,0.313-0.764,0.313h-2.068c-0.078,0-0.117,0.037-0.117,0.115v1.582c0,0.078,0.039,0.117,0.117,0.117h1.699
		c0.301,0,0.555,0.104,0.762,0.313c0.209,0.207,0.312,0.461,0.312,0.762c0,0.3-0.104,0.555-0.312,0.763
		c-0.207,0.208-0.461,0.312-0.762,0.312h-1.699c-0.078,0-0.117,0.039-0.117,0.117v1.854c0,0.078,0.039,0.117,0.117,0.117h2.464
		V116.416z"/>
	<path d="M500.118,118.311c0.224,0.261,0.332,0.56,0.332,0.897c0,0.336-0.104,0.639-0.312,0.896
		c-0.17,0.232-0.396,0.354-0.674,0.354c-0.281,0-0.515-0.109-0.693-0.332c-0.131-0.155-0.272-0.318-0.43-0.487
		c-0.056-0.065-0.101-0.065-0.14,0c-0.6,1.017-1.325,1.882-2.188,2.598c-0.248,0.195-0.521,0.261-0.82,0.195
		c-0.301-0.065-0.547-0.228-0.742-0.488c-0.17-0.233-0.235-0.498-0.204-0.791c0.03-0.293,0.166-0.53,0.399-0.713
		c0.754-0.625,1.406-1.444,1.953-2.461c0.039-0.078,0.031-0.144-0.021-0.194c-0.193-0.195-0.457-0.443-0.779-0.742
		c-0.027-0.024-0.047-0.024-0.062,0c-0.024,0.117-0.098,0.201-0.215,0.254c-0.117,0.054-0.229,0.045-0.332-0.021l-0.508-0.332
		c-0.272-0.169-0.479-0.403-0.604-0.702c-0.132-0.301-0.154-0.613-0.076-0.939c0.244-1.104,0.563-2.66,0.956-4.668
		c0.013-0.075-0.021-0.114-0.1-0.114h-0.137c-0.301,0-0.559-0.104-0.771-0.321c-0.215-0.216-0.32-0.47-0.32-0.763
		s0.104-0.547,0.32-0.765c0.217-0.215,0.473-0.319,0.771-0.319h0.526c0.077,0,0.122-0.039,0.138-0.117
		c0.168-1.019,0.316-1.927,0.449-2.731c0.038-0.313,0.182-0.563,0.43-0.752c0.246-0.188,0.527-0.271,0.84-0.244
		c0.299,0.025,0.539,0.156,0.724,0.391c0.184,0.234,0.245,0.501,0.194,0.801c-0.117,0.77-0.262,1.614-0.43,2.539
		c-0.016,0.078,0.02,0.117,0.098,0.117h1.035c0.637,0,1.086,0.02,1.348,0.059c0.195,0.026,0.354,0.114,0.479,0.264
		c0.123,0.15,0.178,0.322,0.166,0.521c-0.209,3.332-0.679,6.034-1.406,8.104c-0.027,0.078-0.014,0.15,0.039,0.216
		C499.644,117.796,499.897,118.063,500.118,118.311z M498.497,110.634c0.015-0.077-0.02-0.116-0.098-0.116h-1.133
		c-0.078,0-0.125,0.039-0.137,0.116c-0.105,0.587-0.271,1.375-0.488,2.363c-0.17,0.848-0.281,1.387-0.332,1.621
		c-0.014,0.076,0.012,0.145,0.078,0.193c0.104,0.094,0.26,0.229,0.469,0.41c0.221,0.193,0.402,0.355,0.547,0.486
		c0.064,0.054,0.109,0.039,0.137-0.039C498.011,114.255,498.327,112.576,498.497,110.634z M511.761,115.732
		c0.192,0.195,0.293,0.43,0.293,0.703s-0.101,0.508-0.293,0.703c-0.195,0.195-0.433,0.293-0.703,0.293h-2.422
		c-0.027,0-0.043,0.01-0.049,0.029c-0.011,0.02-0.005,0.041,0.01,0.065c0.832,1.019,1.783,1.875,2.852,2.578
		c0.261,0.169,0.406,0.401,0.439,0.703c0.031,0.3-0.049,0.562-0.244,0.778c-0.234,0.273-0.516,0.438-0.84,0.488
		c-0.326,0.053-0.625-0.025-0.898-0.234c-0.848-0.7-1.66-1.572-2.438-2.614c-0.017-0.015-0.029-0.019-0.051-0.013
		c-0.021,0.01-0.027,0.02-0.027,0.029v2.734c0,0.324-0.111,0.6-0.332,0.82c-0.225,0.222-0.492,0.332-0.813,0.332
		c-0.318,0-0.59-0.11-0.811-0.332c-0.225-0.223-0.332-0.496-0.332-0.82v-2.656c0-0.013-0.01-0.021-0.029-0.029
		c-0.019-0.006-0.037-0.002-0.049,0.013c-0.873,1.146-1.824,2.083-2.852,2.812c-0.287,0.184-0.597,0.24-0.918,0.176
		c-0.326-0.063-0.605-0.232-0.843-0.508c-0.192-0.223-0.271-0.477-0.225-0.763c0.045-0.286,0.197-0.501,0.459-0.646
		c1.236-0.717,2.305-1.668,3.203-2.854c0.012-0.014,0.016-0.031,0.01-0.061c-0.008-0.024-0.021-0.039-0.049-0.039h-2.266
		c-0.273,0-0.511-0.098-0.703-0.293c-0.195-0.193-0.293-0.43-0.293-0.701s0.098-0.51,0.293-0.703
		c0.192-0.193,0.43-0.293,0.703-0.293h3.438c0.078,0,0.117-0.039,0.117-0.117v-0.957c0-0.076-0.039-0.115-0.117-0.115h-1.289
		c-0.379,0-0.701-0.136-0.967-0.4c-0.27-0.268-0.4-0.59-0.4-0.967v-4.315c0-0.078-0.039-0.117-0.115-0.117h-0.725
		c-0.271,0-0.508-0.099-0.703-0.293c-0.192-0.194-0.293-0.435-0.293-0.713s0.101-0.519,0.293-0.713
		c0.195-0.194,0.433-0.293,0.703-0.293h0.725c0.076,0,0.115-0.039,0.115-0.117v-0.819c0-0.299,0.107-0.558,0.322-0.771
		c0.215-0.216,0.469-0.322,0.762-0.322s0.547,0.104,0.765,0.322c0.215,0.215,0.319,0.474,0.319,0.771v0.819
		c0,0.078,0.039,0.117,0.117,0.117h3.359c0.078,0,0.117-0.039,0.117-0.117v-0.78c0-0.312,0.106-0.578,0.332-0.802
		c0.221-0.222,0.485-0.332,0.801-0.332c0.312,0,0.578,0.11,0.801,0.332c0.221,0.224,0.332,0.487,0.332,0.802v0.78
		c0,0.078,0.039,0.117,0.117,0.117h0.508c0.285,0,0.527,0.099,0.723,0.293c0.196,0.194,0.293,0.435,0.293,0.713
		s-0.098,0.519-0.293,0.713c-0.192,0.194-0.438,0.293-0.723,0.293h-0.508c-0.078,0-0.117,0.039-0.117,0.117v4.315
		c0,0.377-0.135,0.699-0.4,0.967c-0.268,0.268-0.59,0.4-0.967,0.4h-1.481c-0.078,0-0.117,0.039-0.117,0.115v0.957
		c0,0.078,0.039,0.117,0.117,0.117h3.555C511.329,115.439,511.565,115.537,511.761,115.732z M508.09,108.564
		c0-0.078-0.039-0.117-0.117-0.117h-3.359c-0.078,0-0.117,0.039-0.117,0.117v0.82c0,0.078,0.039,0.117,0.117,0.117h3.359
		c0.078,0,0.117-0.039,0.117-0.117V108.564z M504.612,111.24c-0.078,0-0.117,0.039-0.117,0.117v0.84
		c0,0.078,0.039,0.117,0.117,0.117h3.359c0.078,0,0.117-0.039,0.117-0.117v-0.84c0-0.078-0.039-0.117-0.117-0.117H504.612z"/>
	<path d="M519.358,105.4c0.496-0.664,1.133-0.996,1.914-0.996s1.434,0.325,1.953,0.977c0.912,1.136,1.953,2.178,3.125,3.125
		c1.133,0.912,2.285,1.654,3.457,2.229c0.301,0.156,0.488,0.396,0.563,0.714c0.078,0.318,0.027,0.607-0.153,0.868
		c-0.224,0.312-0.511,0.517-0.859,0.604c-0.35,0.09-0.689,0.047-1.016-0.137c-0.625-0.377-1.242-0.781-1.855-1.211
		c-0.012-0.025-0.031-0.031-0.059-0.021c-0.025,0.014-0.039,0.031-0.039,0.06c0,0.353-0.127,0.654-0.381,0.908
		s-0.56,0.381-0.908,0.381h-7.344c-0.354,0-0.65-0.124-0.898-0.371c-0.246-0.245-0.371-0.547-0.371-0.897
		c0-0.024-0.012-0.041-0.039-0.049c-0.022-0.006-0.045-0.002-0.059,0.01c-0.625,0.443-1.271,0.867-1.937,1.271
		c-0.282,0.17-0.588,0.207-0.905,0.116c-0.318-0.091-0.582-0.271-0.791-0.547c-0.185-0.231-0.246-0.501-0.195-0.804
		c0.053-0.299,0.203-0.521,0.449-0.664c1.264-0.729,2.475-1.605,3.633-2.637C517.737,107.341,518.644,106.365,519.358,105.4z
		 M516.351,123.096c-0.324,0-0.604-0.114-0.83-0.343c-0.226-0.229-0.342-0.504-0.342-0.83v-5.664c0-0.377,0.135-0.699,0.397-0.967
		c0.271-0.269,0.593-0.399,0.97-0.399h9.979c0.379,0,0.701,0.134,0.967,0.399c0.271,0.268,0.4,0.59,0.4,0.967v5.605
		c0,0.34-0.119,0.629-0.361,0.867c-0.239,0.241-0.521,0.359-0.85,0.359h-0.527c-0.192,0-0.358-0.066-0.498-0.203
		c-0.137-0.139-0.205-0.305-0.205-0.498c0-0.039-0.02-0.061-0.059-0.061h-7.813c-0.038,0-0.059,0.021-0.059,0.061
		c0,0.193-0.068,0.359-0.205,0.498c-0.137,0.137-0.303,0.203-0.498,0.203L516.351,123.096L516.351,123.096z M517.522,110.732
		c-0.012,0.014-0.016,0.029-0.01,0.049c0.008,0.02,0.021,0.029,0.049,0.029h7.793c0.014,0,0.023-0.01,0.029-0.029
		c0.008-0.02,0.004-0.035-0.013-0.049c-1.688-1.328-3-2.617-3.926-3.867c-0.012-0.025-0.035-0.039-0.065-0.039
		c-0.031,0-0.058,0.014-0.068,0.039C520.467,108.089,519.2,109.378,517.522,110.732z M525.45,117.1c0-0.078-0.039-0.117-0.114-0.117
		h-7.679c-0.09,0-0.137,0.039-0.137,0.117v3.047c0,0.078,0.047,0.117,0.137,0.117h7.679c0.075,0,0.114-0.039,0.114-0.117V117.1z"/>
</g>
<g class="checkIcon2 fadeIn" style="opacity:0">
	<path d="M168.838,118.311c0,0.378-0.134,0.7-0.399,0.967c-0.267,0.267-0.589,0.399-0.967,0.399h-1.836
		c-0.014,0-0.021,0.014-0.021,0.039c1.668,0.639,3.048,1.199,4.142,1.681c0.247,0.117,0.368,0.31,0.361,0.576
		c-0.009,0.267-0.136,0.452-0.383,0.558l-0.098,0.059c-0.809,0.354-1.629,0.313-2.461-0.115c-0.795-0.417-1.72-0.842-2.773-1.271
		c-0.261-0.104-0.398-0.297-0.42-0.576c-0.021-0.278,0.088-0.498,0.322-0.652l0.391-0.232c0.015,0,0.019-0.012,0.012-0.029
		c-0.007-0.021-0.019-0.028-0.028-0.028h-5.371c-0.014,0-0.021,0.007-0.029,0.021c-0.007,0.012-0.003,0.025,0.012,0.039l0.41,0.176
		c0.261,0.117,0.398,0.322,0.42,0.615c0.021,0.293-0.103,0.504-0.361,0.635c-1.119,0.601-2.436,1.146-3.944,1.643
		c-0.362,0.115-0.724,0.124-1.073,0.021c-0.352-0.104-0.656-0.301-0.918-0.586c-0.17-0.185-0.223-0.396-0.155-0.637
		c0.064-0.238,0.223-0.39,0.469-0.438c1.604-0.363,3.001-0.84,4.199-1.426c0.014-0.015,0.018-0.025,0.01-0.039
		c-0.007-0.015-0.017-0.021-0.028-0.021h-1.443c-0.378,0-0.7-0.137-0.968-0.398c-0.269-0.268-0.399-0.59-0.399-0.969v-5.393
		c0-0.379,0.134-0.698,0.399-0.967c0.267-0.268,0.59-0.398,0.968-0.398h2.637c0.026,0,0.05-0.016,0.068-0.039
		c0.018-0.023,0.021-0.055,0.01-0.078c-0.194-0.378-0.438-0.729-0.724-1.056c-0.053-0.063-0.124-0.087-0.216-0.06
		c-0.392,0.104-0.911,0.254-1.562,0.448c-0.716,0.194-1.35,0.378-1.896,0.548l-0.409,0.116c-0.313,0.091-0.611,0.065-0.897-0.078
		s-0.495-0.364-0.625-0.663c-0.116-0.262-0.106-0.521,0.029-0.781c0.135-0.26,0.349-0.424,0.635-0.486
		c0.82-0.172,1.935-0.426,3.34-0.764c0.364-0.078,0.7-0.018,1.007,0.188c0.307,0.203,0.484,0.482,0.536,0.852l0.061,0.391
		c0,0.078,0.047,0.111,0.138,0.1c1.405-0.262,2.429-0.6,3.064-1.018c0.639-0.416,1.081-0.969,1.328-1.659
		c0.039-0.078,0.014-0.117-0.078-0.117h-1.25c-0.091,0-0.162,0.032-0.215,0.099c-0.262,0.313-0.521,0.6-0.78,0.858
		c-0.233,0.194-0.49,0.286-0.771,0.272c-0.279-0.014-0.55-0.104-0.812-0.272c-0.194-0.13-0.304-0.312-0.321-0.547
		c-0.021-0.235,0.062-0.423,0.244-0.565c0.649-0.574,1.196-1.211,1.641-1.914c0.169-0.271,0.396-0.48,0.675-0.625
		s0.568-0.194,0.868-0.155c0.262,0.038,0.449,0.173,0.566,0.399c0.115,0.228,0.108,0.459-0.021,0.692
		c-0.038,0.052-0.024,0.077,0.039,0.077h5.802c0.015,0,0.031,0,0.061,0c0.222-0.051,0.448-0.045,0.684,0.021l0.449,0.115
		c0.208,0.064,0.354,0.194,0.438,0.393c0.085,0.195,0.074,0.383-0.028,0.564c-0.313,0.586-0.651,1.12-1.018,1.604
		c-0.169,0.222-0.395,0.373-0.674,0.459c-0.279,0.084-0.558,0.074-0.83-0.028c-0.223-0.065-0.363-0.209-0.431-0.431
		c-0.065-0.223-0.031-0.432,0.099-0.625c0.053-0.092,0.109-0.188,0.177-0.293c0.014-0.014,0.014-0.033,0-0.061
		c-0.014-0.025-0.031-0.039-0.061-0.039h-1.934c-0.039,0-0.065,0.014-0.078,0.039c-0.014,0.025-0.014,0.053,0,0.078
		c0.261,0.689,0.772,1.264,1.543,1.719c0.639,0.379,1.606,0.678,2.91,0.896c0.232,0.054,0.396,0.193,0.486,0.421
		c0.093,0.229,0.07,0.446-0.06,0.653c-0.169,0.301-0.399,0.529-0.692,0.692s-0.597,0.205-0.907,0.127
		c-0.053-0.014-0.104-0.024-0.155-0.038c-0.078-0.014-0.117,0.02-0.117,0.098v6.229h-0.006v-0.007H168.838z M158.038,105.751
		c0.261,0.104,0.43,0.291,0.508,0.558s0.039,0.519-0.116,0.752c-0.145,0.247-0.358,0.41-0.646,0.487
		c-0.287,0.078-0.562,0.053-0.82-0.077c-0.716-0.325-1.504-0.625-2.362-0.897c-0.232-0.066-0.395-0.213-0.479-0.439
		c-0.084-0.225-0.063-0.438,0.066-0.635c0.169-0.248,0.39-0.424,0.653-0.525c0.267-0.104,0.537-0.117,0.812-0.039
		C156.527,105.166,157.322,105.439,158.038,105.751z M157.92,112.979c-0.091,0-0.137,0.039-0.137,0.117v0.625
		c0,0.077,0.046,0.116,0.137,0.116h8.396c0.078,0,0.117-0.039,0.117-0.116v-0.625c0-0.078-0.039-0.117-0.117-0.117H157.92z
		 M157.92,115.186c-0.091,0-0.137,0.039-0.137,0.116v0.625c0,0.078,0.046,0.117,0.137,0.117h8.396c0.078,0,0.117-0.039,0.117-0.117
		v-0.625c0-0.077-0.039-0.116-0.117-0.116H157.92z M157.92,117.373c-0.091,0-0.137,0.039-0.137,0.117v0.645
		c0,0.078,0.046,0.117,0.137,0.117h8.396c0.078,0,0.117-0.039,0.117-0.117v-0.645c0-0.078-0.039-0.117-0.117-0.117H157.92z
		 M161.299,111.514c-0.013,0-0.021,0.007-0.021,0.021c0,0.012,0.009,0.021,0.021,0.021h6.173c0.013,0,0.021-0.016,0.021-0.039
		c-1.213-0.495-2.116-1.15-2.717-1.975c-0.052-0.063-0.098-0.063-0.137,0C163.949,110.388,162.835,111.044,161.299,111.514z"/>
	<path d="M184.729,117.49c0.156-0.3,0.39-0.508,0.692-0.625c0.306-0.117,0.606-0.117,0.908,0c0.284,0.117,0.473,0.322,0.558,0.615
		s0.042,0.563-0.127,0.811c0,0.016-0.014,0.033-0.039,0.062c-0.34,0.495-0.625,0.896-0.859,1.211
		c-0.208,0.286-0.401,0.54-0.586,0.765c-0.013,0.012-0.018,0.029-0.01,0.059c0.007,0.027,0.021,0.039,0.049,0.039h3.418
		c0.286,0,0.527,0.098,0.725,0.293c0.194,0.195,0.293,0.437,0.293,0.723s-0.1,0.527-0.293,0.723
		c-0.194,0.196-0.438,0.293-0.725,0.293H173.91c-0.286,0-0.527-0.098-0.725-0.293s-0.293-0.437-0.293-0.723s0.1-0.527,0.293-0.723
		c0.194-0.196,0.438-0.293,0.725-0.293h2.771c0.078,0,0.104-0.039,0.078-0.117c-0.223-0.639-0.521-1.297-0.898-1.973
		c-0.183-0.301-0.218-0.623-0.105-0.967c0.111-0.348,0.322-0.584,0.636-0.716l0.448-0.192c0.014,0,0.021-0.008,0.021-0.021
		s-0.007-0.021-0.021-0.021h-1.936c-0.284,0-0.525-0.098-0.723-0.293c-0.197-0.194-0.293-0.437-0.293-0.723
		c0-0.285,0.098-0.527,0.293-0.723c0.194-0.196,0.438-0.293,0.723-0.293h4.924c0.076,0,0.115-0.039,0.115-0.117v-1.758
		c0-0.078-0.039-0.117-0.115-0.117h-2.678c-0.247,0-0.456-0.085-0.625-0.254c-0.169-0.17-0.254-0.379-0.254-0.625
		c0-0.014-0.021-0.025-0.06-0.039c-0.586,0.417-1.204,0.82-1.854,1.211c-0.3,0.169-0.606,0.212-0.928,0.127
		s-0.583-0.264-0.791-0.537c-0.184-0.247-0.247-0.521-0.195-0.82c0.054-0.299,0.208-0.521,0.471-0.664
		c1.235-0.715,2.429-1.582,3.572-2.598c1.096-0.977,1.999-1.934,2.717-2.871c0.508-0.664,1.146-0.996,1.914-0.996
		c0.768,0,1.419,0.319,1.951,0.957c0.897,1.106,1.939,2.129,3.125,3.066c1.135,0.91,2.292,1.66,3.479,2.246
		c0.286,0.145,0.467,0.373,0.537,0.693c0.069,0.316,0.018,0.605-0.166,0.869c-0.224,0.311-0.508,0.514-0.858,0.604
		c-0.352,0.09-0.688,0.046-1.017-0.139c-0.664-0.392-1.275-0.787-1.836-1.189c-0.039-0.039-0.061-0.032-0.061,0.021
		c0,0.26-0.091,0.479-0.271,0.664c-0.184,0.182-0.402,0.271-0.664,0.271h-2.772c-0.078,0-0.117,0.039-0.117,0.114v1.761
		c0,0.075,0.039,0.114,0.117,0.114h5.021c0.286,0,0.525,0.101,0.724,0.293c0.195,0.195,0.293,0.438,0.293,0.726
		s-0.099,0.524-0.293,0.726c-0.195,0.193-0.438,0.293-0.724,0.293h-5.021c-0.078,0-0.117,0.039-0.117,0.117v3.77
		c0,0.078,0.039,0.117,0.117,0.117h1.776c0.014,0,0.021-0.008,0.029-0.021c0.007-0.014,0.003-0.021-0.012-0.021
		c-0.285-0.129-0.469-0.348-0.547-0.651s-0.032-0.591,0.139-0.853C184.221,118.447,184.482,117.985,184.729,117.49z
		 M179.944,116.533c0-0.078-0.039-0.117-0.115-0.117h-2.639c-0.024,0-0.042,0.016-0.049,0.039c-0.008,0.026-0.003,0.047,0.01,0.062
		c0.495,0.677,0.897,1.319,1.211,1.937c0.169,0.352,0.181,0.7,0.029,1.055c-0.148,0.352-0.398,0.604-0.752,0.762l-0.254,0.098
		c-0.014,0.014-0.021,0.026-0.021,0.039c0,0.014,0.009,0.02,0.021,0.02h2.44c0.076,0,0.115-0.039,0.115-0.114L179.944,116.533
		L179.944,116.533z M177.776,110.264c-0.013,0.013-0.018,0.028-0.01,0.049c0.007,0.021,0.019,0.028,0.028,0.028h6.992
		c0.013,0,0.021-0.01,0.027-0.028s0.003-0.036-0.01-0.049c-1.434-1.173-2.599-2.351-3.496-3.535c-0.053-0.065-0.104-0.065-0.156,0
		C180.244,107.992,179.117,109.169,177.776,110.264z"/>
	<path d="M196.417,113.134c0.271-0.077,0.528-0.038,0.771,0.117c0.241,0.156,0.381,0.379,0.42,0.664
		c0.039,0.301-0.021,0.58-0.187,0.84c-0.164,0.262-0.388,0.438-0.674,0.527c-0.393,0.115-0.703,0.209-0.938,0.271
		c-0.078,0.023-0.117,0.076-0.117,0.154v4.57c0,0.559-0.06,0.995-0.176,1.309c-0.117,0.313-0.325,0.562-0.625,0.742
		c-0.339,0.223-0.872,0.357-1.603,0.41c-0.313,0.025-0.595-0.066-0.842-0.273c-0.245-0.209-0.417-0.477-0.508-0.801
		c-0.078-0.262-0.042-0.502,0.106-0.724c0.147-0.222,0.36-0.331,0.636-0.331c0.222,0,0.393-0.008,0.508-0.021
		c0.224,0,0.332-0.107,0.332-0.332v-3.903c0-0.078-0.039-0.104-0.117-0.078l-0.662,0.179c-0.302,0.09-0.588,0.055-0.859-0.107
		c-0.272-0.163-0.441-0.4-0.508-0.713c-0.065-0.313-0.015-0.605,0.154-0.879c0.171-0.274,0.41-0.449,0.725-0.527
		c0.325-0.092,0.71-0.188,1.15-0.293c0.078-0.025,0.117-0.078,0.117-0.156v-3.301c0-0.078-0.039-0.117-0.117-0.117h-0.977
		c-0.312,0-0.576-0.107-0.791-0.322c-0.216-0.215-0.322-0.476-0.322-0.781c0-0.305,0.106-0.563,0.322-0.778
		c0.215-0.215,0.479-0.319,0.791-0.319h0.977c0.078,0,0.117-0.039,0.117-0.117V105.5c0-0.301,0.106-0.558,0.322-0.771
		c0.215-0.214,0.469-0.321,0.762-0.321s0.547,0.106,0.764,0.321c0.215,0.215,0.32,0.474,0.32,0.771v2.539
		c0,0.078,0.039,0.117,0.117,0.117h0.762c0.313,0,0.576,0.106,0.791,0.321c0.217,0.215,0.322,0.476,0.322,0.78
		c0,0.306-0.105,0.566-0.322,0.781c-0.215,0.215-0.479,0.32-0.791,0.32h-0.762c-0.078,0-0.117,0.039-0.117,0.117v2.732
		c0,0.078,0.039,0.104,0.117,0.078L196.417,113.134z M202.002,120.576h4.22c0.561,0,0.925-0.13,1.094-0.391
		c0.092-0.13,0.169-0.339,0.233-0.625c0.039-0.262,0.177-0.452,0.41-0.576c0.232-0.124,0.477-0.134,0.724-0.029
		c0.313,0.117,0.562,0.313,0.741,0.576c0.183,0.266,0.241,0.557,0.177,0.869c-0.169,0.729-0.417,1.258-0.742,1.582
		c-0.469,0.48-1.289,0.723-2.461,0.723h-4.568c-1.419,0-2.388-0.215-2.9-0.645s-0.771-1.264-0.771-2.5v-6.582
		c0-0.378,0.135-0.7,0.399-0.967c0.267-0.268,0.589-0.4,0.967-0.4h7.854c0.378,0,0.7,0.135,0.967,0.4
		c0.268,0.266,0.4,0.589,0.4,0.967v3.34c0,0.378-0.136,0.7-0.4,0.967c-0.266,0.268-0.589,0.4-0.967,0.4h-6.836
		c-0.078,0-0.117,0.039-0.117,0.117v1.719c0,0.456,0.092,0.745,0.271,0.869C200.877,120.514,201.312,120.576,202.002,120.576z
		 M206.631,105.048c0.378,0,0.7,0.135,0.968,0.4c0.269,0.264,0.399,0.59,0.399,0.967v2.715c0,0.379-0.136,0.701-0.399,0.968
		c-0.267,0.267-0.59,0.399-0.968,0.399h-6.405c-0.378,0-0.7-0.133-0.968-0.399c-0.267-0.267-0.399-0.589-0.399-0.968v-2.715
		c0-0.377,0.136-0.699,0.399-0.967c0.267-0.269,0.59-0.4,0.968-0.4H206.631z M202.393,113.779c0-0.078-0.039-0.117-0.117-0.117
		h-1.736c-0.078,0-0.117,0.039-0.117,0.117v1.738c0,0.078,0.039,0.117,0.117,0.117h1.736c0.078,0,0.117-0.039,0.117-0.117V113.779z
		 M205.596,108.544c0.077,0,0.116-0.039,0.116-0.117v-1.27c0-0.078-0.039-0.117-0.116-0.117h-4.453
		c-0.078,0-0.117,0.039-0.117,0.117v1.27c0,0.078,0.039,0.117,0.117,0.117H205.596z M206.397,115.634
		c0.078,0,0.117-0.038,0.117-0.116v-1.737c0-0.078-0.039-0.117-0.117-0.117h-1.775c-0.078,0-0.117,0.039-0.117,0.117v1.737
		c0,0.078,0.039,0.116,0.117,0.116H206.397z"/>
	<path d="M214.232,111.104c0.286,0.169,0.459,0.417,0.52,0.742c0.06,0.325-0.003,0.632-0.188,0.918
		c-0.184,0.261-0.434,0.417-0.752,0.469c-0.317,0.052-0.615-0.007-0.89-0.176c-0.208-0.144-0.441-0.28-0.702-0.41
		c-0.364-0.208-0.729-0.403-1.095-0.586c-0.263-0.117-0.432-0.31-0.508-0.576c-0.078-0.267-0.039-0.519,0.115-0.752
		c0.185-0.261,0.425-0.438,0.725-0.537c0.3-0.098,0.6-0.088,0.896,0.029C213.086,110.511,213.711,110.804,214.232,111.104z
		 M214.173,115.947c0.145-0.261,0.361-0.416,0.654-0.469s0.55,0.02,0.771,0.215c0.261,0.234,0.423,0.523,0.487,0.869
		c0.063,0.346,0.014,0.674-0.155,0.986c-0.756,1.457-1.53,2.852-2.324,4.18c-0.169,0.286-0.423,0.459-0.762,0.518
		c-0.34,0.062-0.639-0.017-0.898-0.225c-0.284-0.234-0.45-0.529-0.497-0.889c-0.047-0.36,0.028-0.688,0.226-0.986
		C212.506,118.884,213.34,117.483,214.173,115.947z M215.599,105.85c0.272,0.183,0.438,0.438,0.487,0.771
		c0.052,0.332-0.021,0.635-0.215,0.908c-0.185,0.247-0.435,0.395-0.752,0.439c-0.319,0.044-0.607-0.022-0.869-0.205
		c-0.208-0.145-0.441-0.286-0.703-0.43c-0.378-0.234-0.749-0.442-1.112-0.625c-0.262-0.131-0.423-0.332-0.488-0.605
		c-0.063-0.273-0.021-0.521,0.139-0.742c0.193-0.261,0.449-0.438,0.763-0.527c0.313-0.09,0.617-0.068,0.918,0.062
		C214.466,105.205,215.079,105.524,215.599,105.85z M223.685,120.048c0,0.078,0.039,0.117,0.117,0.117h3.905
		c0.312,0,0.576,0.105,0.791,0.32c0.215,0.217,0.32,0.479,0.32,0.791s-0.105,0.576-0.32,0.791c-0.215,0.217-0.479,0.322-0.791,0.322
		h-10.604c-0.312,0-0.576-0.105-0.791-0.322c-0.215-0.215-0.322-0.479-0.322-0.791s0.107-0.574,0.322-0.791
		c0.215-0.215,0.479-0.32,0.791-0.32h3.983c0.078,0,0.117-0.039,0.117-0.117v-3.418c0-0.078-0.039-0.116-0.117-0.116h-2.6
		c-0.312,0-0.574-0.106-0.791-0.322c-0.215-0.215-0.32-0.479-0.32-0.791s0.105-0.575,0.32-0.791
		c0.217-0.215,0.479-0.321,0.791-0.321h2.6c0.078,0,0.117-0.039,0.117-0.117v-3.064c0-0.078-0.039-0.115-0.117-0.115h-3.28
		c-0.312,0-0.579-0.109-0.802-0.332c-0.224-0.224-0.332-0.488-0.332-0.803s0.108-0.579,0.332-0.801
		c0.223-0.225,0.488-0.332,0.802-0.332h4.629c0.013,0,0.021-0.012,0.028-0.029c0.008-0.021,0.003-0.033-0.01-0.049
		c-0.794-0.664-1.699-1.289-2.717-1.875c-0.261-0.154-0.42-0.381-0.479-0.674c-0.061-0.295,0.017-0.559,0.225-0.791
		c0.234-0.271,0.527-0.441,0.879-0.51c0.354-0.064,0.686-0.021,0.996,0.139c0.521,0.283,1.05,0.593,1.582,0.918
		c0.378,0.232,0.725,0.462,1.035,0.686c0.3,0.223,0.462,0.522,0.487,0.906c0.024,0.387-0.085,0.723-0.332,1.008l-0.155,0.176
		c-0.014,0.024-0.018,0.049-0.011,0.066c0.008,0.021,0.021,0.029,0.05,0.029h3.223c0.313,0,0.579,0.107,0.803,0.332
		c0.223,0.222,0.332,0.486,0.332,0.801s-0.109,0.579-0.332,0.803c-0.224,0.223-0.487,0.332-0.803,0.332H223.8
		c-0.078,0-0.117,0.037-0.117,0.115v3.064c0,0.078,0.039,0.117,0.117,0.117h2.733c0.312,0,0.574,0.106,0.791,0.321
		c0.215,0.216,0.32,0.479,0.32,0.791s-0.105,0.576-0.32,0.791c-0.217,0.216-0.479,0.322-0.791,0.322H223.8
		c-0.078,0-0.117,0.038-0.117,0.116L223.685,120.048L223.685,120.048z"/>
	<g>
		<g>
			<g>
				<path fill="#FFFFFF" d="M163.482,43.866c-1.101,0-2.586,0.684-3.302,1.519l-21.377,24.949c-0.717,0.836-0.401,1.521,0.697,1.521
					h73.982c1.102,0,2.586-0.685,3.304-1.521l21.381-24.949c0.716-0.835,0.399-1.519-0.697-1.519H163.482z"/>
				
					<path fill="none" stroke="#000000" stroke-width="4" stroke-linecap="round" stroke-linejoin="round" stroke-miterlimit="10" d="
					M163.482,43.866c-1.101,0-2.586,0.684-3.302,1.519l-21.377,24.949c-0.717,0.836-0.401,1.521,0.697,1.521h73.982
					c1.102,0,2.586-0.685,3.304-1.521l21.381-24.949c0.716-0.835,0.399-1.519-0.697-1.519H163.482z"/>
			</g>
			<g>
				<path fill="#FFFFFF" d="M163.482,36.884c-1.101,0-2.586,0.684-3.302,1.519l-21.377,24.945c-0.717,0.835-0.401,1.519,0.697,1.519
					h73.982c1.102,0,2.586-0.684,3.304-1.519l21.381-24.945c0.716-0.835,0.399-1.519-0.697-1.519H163.482z"/>
				
					<path fill="none" stroke="#000000" stroke-width="3" stroke-linecap="round" stroke-linejoin="round" stroke-miterlimit="10" d="
					M163.482,36.884c-1.101,0-2.586,0.684-3.302,1.519l-21.377,24.945c-0.717,0.835-0.401,1.519,0.697,1.519h73.982
					c1.102,0,2.586-0.684,3.304-1.519l21.381-24.945c0.716-0.835,0.399-1.519-0.697-1.519H163.482z"/>
			</g>
			<g>
				<path fill="#FFFFFF" d="M163.482,29.899c-1.101,0-2.586,0.684-3.302,1.519l-21.377,24.947c-0.717,0.835-0.401,1.519,0.697,1.519
					h73.982c1.102,0,2.586-0.684,3.304-1.519l21.381-24.947c0.716-0.835,0.399-1.519-0.697-1.519H163.482z"/>
				
					<path fill="none" stroke="#000000" stroke-width="3" stroke-linecap="round" stroke-linejoin="round" stroke-miterlimit="10" d="
					M163.482,29.899c-1.101,0-2.586,0.684-3.302,1.519l-21.377,24.947c-0.717,0.835-0.401,1.519,0.697,1.519h73.982
					c1.102,0,2.586-0.684,3.304-1.519l21.381-24.947c0.716-0.835,0.399-1.519-0.697-1.519H163.482z"/>
			</g>
			<g>
				<path fill="#FFFFFF" d="M163.482,22.917c-1.101,0-2.586,0.684-3.302,1.519l-21.377,24.945c-0.717,0.835-0.401,1.519,0.697,1.519
					h73.982c1.102,0,2.586-0.684,3.304-1.519l21.381-24.945c0.716-0.835,0.399-1.519-0.697-1.519H163.482z"/>
				
					<path fill="none" stroke="#000000" stroke-width="3" stroke-linecap="round" stroke-linejoin="round" stroke-miterlimit="10" d="
					M163.482,22.917c-1.101,0-2.586,0.684-3.302,1.519l-21.377,24.945c-0.717,0.835-0.401,1.519,0.697,1.519h73.982
					c1.102,0,2.586-0.684,3.304-1.519l21.381-24.945c0.716-0.835,0.399-1.519-0.697-1.519H163.482z"/>
			</g>
			<g>
				<path fill="#FFFFFF" d="M163.482,15.933c-1.101,0-2.586,0.684-3.302,1.519l-21.377,24.947c-0.717,0.835-0.401,1.519,0.697,1.519
					h73.982c1.102,0,2.586-0.684,3.304-1.519l21.381-24.947c0.716-0.835,0.399-1.519-0.697-1.519H163.482z"/>
				
					<path fill="none" stroke="#000000" stroke-width="3" stroke-linecap="round" stroke-linejoin="round" stroke-miterlimit="10" d="
					M163.482,15.933c-1.101,0-2.586,0.684-3.302,1.519l-21.377,24.947c-0.717,0.835-0.401,1.519,0.697,1.519h73.982
					c1.102,0,2.586-0.684,3.304-1.519l21.381-24.947c0.716-0.835,0.399-1.519-0.697-1.519H163.482z"/>
			</g>
			<g>
				<path fill="#FFFFFF" d="M163.482,8.95c-1.101,0-2.586,0.684-3.302,1.519l-21.377,24.945c-0.717,0.835-0.401,1.519,0.697,1.519
					h73.982c1.102,0,2.586-0.684,3.304-1.519l21.381-24.945c0.716-0.835,0.399-1.519-0.697-1.519H163.482z"/>
				
					<path fill="none" stroke="#000000" stroke-width="4" stroke-linecap="round" stroke-linejoin="round" stroke-miterlimit="10" d="
					M163.482,8.95c-1.101,0-2.586,0.684-3.302,1.519l-21.377,24.945c-0.717,0.835-0.401,1.519,0.697,1.519h73.982
					c1.102,0,2.586-0.684,3.304-1.519l21.381-24.945c0.716-0.835,0.399-1.519-0.697-1.519H163.482z"/>
			</g>
		</g>
		
			<polygon fill="#F8EB4D" stroke="#000000" stroke-width="3" stroke-linecap="round" stroke-linejoin="round" stroke-miterlimit="10" points="
			191.773,36.884 158.271,36.884 182.369,8.953 215.871,8.953 		"/>
		<g>
			<g>
				<path d="M185.379,22.706c-3.873-0.578-8.936-1.113-6.366-4.063c2.297-2.64,8.228-4.37,13.94-4.64l0.035-0.041l0.521-0.598
					c0.484-0.559,0.845-0.969,2.089-0.969c1.241,0,0.885,0.41,0.399,0.969l-0.559,0.639c2.729,0.041,7.596,0.535,6.303,2.021
					c-0.699,0.806-2.525,1.525-4.414,1.525c-1.611,0-2.51-0.455-4.488-0.559l-2.389,2.744c3.967,0.578,9.324,1.299,6.437,4.619
					c-2.386,2.744-8.628,4.518-14.563,4.726l-0.056,0.062l-0.521,0.597c-0.412,0.475-0.844,0.969-2.086,0.969
					c-1.244,0-0.813-0.494-0.399-0.969l0.557-0.638c-3.691-0.041-9.609-0.497-8.064-2.271c0.699-0.803,2.472-1.465,4.357-1.465
					c1.979,0,3.709,0.662,6.272,0.783L185.379,22.706z M190.334,17.013c-1.524,0.164-2.961,0.598-3.535,1.258
					c-0.469,0.537,0.229,0.846,1.488,1.094L190.334,17.013z M184.943,26.067c2.113-0.205,3.746-0.864,4.447-1.67
					c0.592-0.682-0.312-1.074-1.828-1.342L184.943,26.067z"/>
			</g>
		</g>
	</g>
	
		<rect x="158.27" y="36.884" fill="#F8EB4D" stroke="#000000" stroke-width="3" stroke-linecap="round" stroke-linejoin="round" stroke-miterlimit="10" width="33.504" height="34.968"/>
	<g>
		<g>
			<circle cx="163.16" cy="38.023" r="1.139"/>
			<circle cx="167.905" cy="38.023" r="1.139"/>
			<circle cx="172.649" cy="38.023" r="1.138"/>
			<circle cx="177.394" cy="38.023" r="1.138"/>
			<circle cx="182.138" cy="38.023" r="1.139"/>
			<circle cx="186.883" cy="38.023" r="1.139"/>
		</g>
		<g>
			<circle cx="163.16" cy="43.023" r="1.139"/>
			<circle cx="167.905" cy="43.023" r="1.139"/>
			<circle cx="172.649" cy="43.023" r="1.138"/>
			<circle cx="177.394" cy="43.023" r="1.138"/>
			<circle cx="182.138" cy="43.023" r="1.139"/>
			<circle cx="186.883" cy="43.023" r="1.139"/>
		</g>
		<g>
			<circle cx="163.16" cy="48.023" r="1.139"/>
			<circle cx="167.905" cy="48.023" r="1.139"/>
			<circle cx="172.649" cy="48.023" r="1.138"/>
			<circle cx="177.394" cy="48.023" r="1.138"/>
			<circle cx="182.138" cy="48.023" r="1.139"/>
			<circle cx="186.883" cy="48.023" r="1.139"/>
		</g>
		<g>
			<circle cx="163.16" cy="53.023" r="1.139"/>
			<circle cx="167.905" cy="53.023" r="1.139"/>
			<circle cx="172.649" cy="53.023" r="1.138"/>
			<circle cx="177.394" cy="53.023" r="1.138"/>
			<circle cx="182.138" cy="53.023" r="1.139"/>
			<circle cx="186.883" cy="53.023" r="1.139"/>
		</g>
		<g>
			<circle cx="163.16" cy="58.023" r="1.139"/>
			<circle cx="167.905" cy="58.023" r="1.139"/>
			<circle cx="172.649" cy="58.023" r="1.138"/>
			<circle cx="177.394" cy="58.023" r="1.138"/>
			<circle cx="182.138" cy="58.023" r="1.139"/>
			<circle cx="186.883" cy="58.023" r="1.139"/>
		</g>
		<g>
			<circle cx="163.16" cy="63.023" r="1.139"/>
			<circle cx="167.905" cy="63.023" r="1.139"/>
			<circle cx="172.649" cy="63.023" r="1.138"/>
			<circle cx="177.394" cy="63.023" r="1.138"/>
			<circle cx="182.138" cy="63.023" r="1.139"/>
			<circle cx="186.883" cy="63.023" r="1.139"/>
		</g>
		<g>
			<circle cx="163.16" cy="68.023" r="1.139"/>
			<circle cx="167.905" cy="68.023" r="1.139"/>
			<circle cx="172.649" cy="68.023" r="1.139"/>
			<circle cx="177.394" cy="68.023" r="1.139"/>
			<circle cx="182.138" cy="68.023" r="1.139"/>
			<circle cx="186.883" cy="68.023" r="1.139"/>
		</g>
	</g>
</g>
<g class="checkIcon3 fadeIn" style="opacity:0">
	<path fill="#FFFFFF" d="M309.523,2.5h79.601c1.649,0,3,1.351,3,3v52.102c0,1.649-1.351,3-3,3h-10.699"/>
	<path fill="none" stroke="#000000" stroke-width="4" stroke-linecap="round" stroke-linejoin="round" stroke-miterlimit="10" d="
		M309.523,2.5h79.601c1.649,0,3,1.351,3,3v52.102c0,1.649-1.351,3-3,3h-10.699"/>
	<g>
		<path fill="#FFFFFF" d="M301.516,59.508V5.5c0-1.649,1.351-3,3-3h76.6c1.65,0,3,1.351,3,3v52.102c0,1.649-1.35,3-3,3h-10.7"/>
		<path fill="none" stroke="#000000" stroke-width="4" stroke-linecap="round" stroke-linejoin="round" stroke-miterlimit="10" d="
			M301.516,59.508V5.5c0-1.649,1.351-3,3-3h76.6c1.65,0,3,1.351,3,3v52.102c0,1.649-1.35,3-3,3h-10.7"/>
	</g>
	
		<line fill="none" stroke="#000000" stroke-width="4" stroke-linecap="round" stroke-linejoin="round" stroke-miterlimit="10" x1="367.406" y1="32.93" x2="355.914" y2="55.422"/>
	
		<path fill="#F8EB4D" stroke="#000000" stroke-width="4" stroke-linecap="round" stroke-linejoin="round" stroke-miterlimit="10" d="
		M360.089,53.348c-1.661-1.971-4.607-2.223-6.579-0.561l-6.895,5.809l-5.771-7.634c-0.249-0.333-0.538-0.616-0.852-0.858
		c-1.258-1.295-3.176-1.85-6.001-1.85h-11.011c-5.5,0-7.58,2.074-7.996,7.689l-1.446,19.465h29.896l-0.452-6.094
		c1.691,1.193,4.035,1.152,5.694-0.244l10.849-9.143C361.498,58.268,361.751,55.32,360.089,53.348z M335.605,39.633
		c3.932-3.928,3.932-10.299,0-14.231c-3.928-3.929-10.302-3.929-14.229,0.003c-3.932,3.93-3.932,10.299,0,14.229
		C325.305,43.562,331.678,43.562,335.605,39.633z"/>
	<path d="M308.916,113.134c0.272-0.064,0.529-0.016,0.771,0.146c0.242,0.161,0.381,0.395,0.42,0.691
		c0.053,0.3-0.01,0.583-0.186,0.852c-0.178,0.268-0.413,0.438-0.713,0.518c-0.472,0.131-0.788,0.216-0.957,0.255
		c-0.078,0.026-0.117,0.077-0.117,0.155v4.668c0,0.586-0.065,1.035-0.195,1.349s-0.363,0.56-0.703,0.741
		c-0.391,0.209-1.021,0.34-1.896,0.392c-0.313,0.026-0.6-0.065-0.858-0.272c-0.26-0.209-0.441-0.477-0.547-0.801
		c-0.091-0.248-0.061-0.479,0.099-0.703c0.156-0.223,0.363-0.332,0.625-0.332c0.233,0,0.477,0,0.724,0
		c0.145,0,0.244-0.027,0.304-0.088c0.06-0.06,0.088-0.16,0.088-0.304v-4.004c0-0.078-0.039-0.104-0.117-0.078l-0.702,0.156
		c-0.312,0.077-0.606,0.036-0.89-0.127s-0.466-0.399-0.558-0.714c-0.077-0.299-0.031-0.586,0.138-0.858s0.41-0.448,0.723-0.526
		c0.364-0.078,0.795-0.176,1.289-0.293c0.078-0.024,0.117-0.078,0.117-0.156V110.5c0-0.078-0.039-0.117-0.117-0.117h-1.094
		c-0.3,0-0.558-0.105-0.771-0.32c-0.213-0.215-0.321-0.479-0.321-0.779c0-0.306,0.106-0.566,0.321-0.781
		c0.216-0.215,0.474-0.322,0.771-0.322h1.094c0.078,0,0.117-0.039,0.117-0.116v-2.479c0-0.34,0.114-0.623,0.342-0.851
		c0.229-0.228,0.509-0.343,0.841-0.343s0.611,0.115,0.842,0.343c0.228,0.228,0.342,0.511,0.342,0.851v2.479
		c0,0.078,0.039,0.116,0.117,0.116h0.723c0.313,0,0.576,0.107,0.791,0.322s0.322,0.477,0.322,0.781c0,0.303-0.107,0.564-0.322,0.779
		s-0.479,0.32-0.791,0.32h-0.723c-0.078,0-0.117,0.039-0.117,0.117v2.715c0,0.078,0.039,0.104,0.117,0.078L308.916,113.134z
		 M319.445,111.807c0.262-0.065,0.518-0.046,0.763,0.06l0.371,0.176c0.224,0.09,0.386,0.24,0.487,0.449
		c0.104,0.207,0.117,0.422,0.039,0.645c-0.742,2.307-1.868,4.229-3.379,5.764c-0.064,0.063-0.064,0.124,0,0.178
		c0.95,0.649,2.051,1.186,3.301,1.602c0.273,0.092,0.449,0.277,0.527,0.558c0.078,0.281,0.032,0.53-0.137,0.753
		c-0.234,0.311-0.524,0.536-0.869,0.674c-0.347,0.137-0.688,0.139-1.025,0.01c-1.405-0.534-2.63-1.211-3.672-2.029
		c-0.064-0.055-0.13-0.055-0.195,0c-1.172,0.779-2.5,1.443-3.981,1.99c-0.325,0.117-0.647,0.103-0.969-0.049
		c-0.318-0.148-0.574-0.381-0.771-0.691c-0.145-0.264-0.166-0.534-0.067-0.82c0.1-0.283,0.282-0.469,0.559-0.547
		c1.302-0.417,2.461-0.938,3.477-1.563c0.065-0.039,0.071-0.09,0.021-0.155c-1.028-1.211-1.883-2.591-2.562-4.142
		c-0.052-0.145-0.046-0.283,0.021-0.42c0.064-0.138,0.169-0.226,0.312-0.265c0.015,0,0.015-0.007,0-0.021h-0.02
		c-0.273,0-0.501-0.092-0.686-0.272c-0.184-0.183-0.271-0.41-0.271-0.685v-0.116c0-0.286,0.104-0.534,0.312-0.742
		s0.462-0.312,0.763-0.312h2.732c0.078,0,0.117-0.039,0.117-0.117v-2.168c0-0.078-0.039-0.116-0.117-0.116h-3.086
		c-0.3,0-0.557-0.106-0.771-0.322c-0.216-0.215-0.322-0.476-0.322-0.78c0-0.306,0.105-0.564,0.322-0.781
		c0.215-0.215,0.472-0.32,0.771-0.32h3.086c0.078,0,0.117-0.039,0.117-0.117v-1.563c0-0.323,0.114-0.604,0.342-0.829
		c0.229-0.228,0.509-0.343,0.841-0.343s0.611,0.113,0.841,0.343c0.229,0.229,0.343,0.506,0.343,0.829v1.563
		c0,0.078,0.039,0.117,0.116,0.117h3.263c0.312,0,0.576,0.105,0.791,0.32c0.215,0.217,0.321,0.478,0.321,0.781
		c0,0.305-0.106,0.565-0.321,0.78c-0.215,0.216-0.479,0.322-0.791,0.322h-3.263c-0.077,0-0.116,0.038-0.116,0.116v2.168
		c0,0.078,0.039,0.117,0.116,0.117h2.246C319.393,111.826,319.419,111.819,319.445,111.807z M318.273,114.072
		c0.014-0.025,0.014-0.052,0-0.078c-0.013-0.025-0.032-0.039-0.059-0.039h-4.629c-0.026,0-0.048,0.014-0.062,0.039
		c-0.013,0.026-0.013,0.053,0,0.078c0.534,1.237,1.276,2.344,2.229,3.32c0.052,0.064,0.107,0.07,0.176,0.02
		C316.932,116.423,317.714,115.31,318.273,114.072z"/>
	<path d="M335.362,108.945c0.216,0.215,0.322,0.322,0.322,0.322s0,0.146,0,0.439s-0.106,0.547-0.322,0.762
		c-0.215,0.215-0.466,0.322-0.752,0.322h-1.444c-0.092,0-0.138,0.039-0.138,0.117v10.7c0,0.302-0.104,0.56-0.321,0.771
		c-0.216,0.215-0.473,0.322-0.771,0.322s-0.557-0.105-0.771-0.322c-0.214-0.215-0.32-0.471-0.32-0.771v-10.7
		c0-0.078-0.039-0.117-0.117-0.117h-1.719c-0.224,0-0.413-0.082-0.576-0.244c-0.163-0.164-0.244-0.354-0.244-0.576
		c0-0.014-0.007-0.02-0.02-0.02c-0.394,0.754-0.757,1.403-1.097,1.95c-0.052,0.063-0.077,0.14-0.077,0.218v9.938
		c0,0.3-0.105,0.56-0.32,0.771c-0.215,0.215-0.474,0.321-0.771,0.321s-0.557-0.106-0.771-0.321s-0.322-0.473-0.322-0.771v-7.054
		c0-0.012-0.01-0.023-0.029-0.039c-0.019-0.012-0.035-0.006-0.049,0.021c-0.104,0.104-0.202,0.201-0.293,0.293
		c-0.208,0.221-0.462,0.309-0.762,0.264c-0.3-0.047-0.534-0.205-0.703-0.479c-0.184-0.285-0.257-0.604-0.227-0.957
		c0.031-0.354,0.166-0.646,0.399-0.879c0.495-0.495,0.971-1.042,1.426-1.643c0.442-0.586,0.833-1.178,1.173-1.775
		c0.194-0.339,0.474-0.583,0.829-0.73c0.358-0.148,0.723-0.166,1.085-0.049l0.487,0.154c0.026,0.014,0.039,0,0.039-0.039
		c0-0.145,0.052-0.268,0.156-0.371c0.104-0.104,0.232-0.154,0.391-0.154h1.992c0.078,0,0.117-0.039,0.117-0.117v-2.715
		c0-0.301,0.104-0.559,0.321-0.771c0.216-0.214,0.473-0.322,0.771-0.322s0.558,0.106,0.771,0.322
		c0.216,0.215,0.321,0.474,0.321,0.771v2.715c0,0.078,0.046,0.117,0.138,0.117h1.444
		C334.896,108.623,335.147,108.73,335.362,108.945z M325.313,105.361c0.184-0.273,0.431-0.462,0.742-0.566
		c0.312-0.104,0.618-0.104,0.918,0c0.271,0.104,0.456,0.293,0.547,0.566s0.052,0.527-0.117,0.762
		c-0.402,0.573-0.853,1.143-1.348,1.699c-0.508,0.561-1.018,1.067-1.523,1.523c-0.208,0.183-0.447,0.246-0.723,0.195
		c-0.273-0.055-0.488-0.195-0.646-0.433c-0.155-0.233-0.223-0.498-0.193-0.791c0.025-0.293,0.147-0.534,0.371-0.729
		c0.362-0.34,0.729-0.711,1.094-1.113C324.76,106.097,325.052,105.726,325.313,105.361z M328.341,113.682
		c0.013-0.261,0.115-0.472,0.312-0.636c0.195-0.162,0.424-0.227,0.687-0.188c0.261,0.039,0.476,0.163,0.645,0.371
		s0.241,0.449,0.215,0.725c-0.193,2.315-0.524,4.174-0.995,5.564c-0.077,0.232-0.232,0.387-0.47,0.447
		c-0.235,0.064-0.456,0.025-0.664-0.115c-0.222-0.146-0.378-0.348-0.469-0.604c-0.091-0.261-0.098-0.526-0.021-0.803
		C327.943,117.275,328.197,115.687,328.341,113.682z M335.742,106.826c0.104,0.223,0.109,0.449,0.021,0.684
		c-0.09,0.236-0.254,0.41-0.488,0.527c-0.208,0.104-0.42,0.11-0.635,0.021c-0.215-0.092-0.368-0.247-0.459-0.471
		c-0.156-0.392-0.354-0.807-0.586-1.25c-0.117-0.207-0.142-0.42-0.068-0.635c0.073-0.216,0.212-0.367,0.42-0.459
		c0.225-0.104,0.446-0.119,0.675-0.05c0.229,0.071,0.399,0.214,0.52,0.421C335.385,106.058,335.587,106.462,335.742,106.826z
		 M333.594,113.975c-0.054-0.233-0.01-0.452,0.127-0.654s0.325-0.329,0.564-0.381c0.24-0.052,0.462-0.013,0.664,0.117
		c0.201,0.13,0.328,0.319,0.382,0.565c0.313,1.42,0.532,2.807,0.663,4.16c0.025,0.271-0.038,0.518-0.193,0.73
		c-0.156,0.213-0.371,0.354-0.646,0.42c-0.231,0.052-0.447,0.003-0.645-0.146c-0.196-0.147-0.308-0.35-0.332-0.597
		C334.09,117.035,333.894,115.628,333.594,113.975z M340.294,111.104c0.284,0,0.532,0.104,0.74,0.312
		c0.208,0.209,0.313,0.457,0.313,0.742c0,0.286-0.104,0.534-0.313,0.742s-0.456,0.313-0.74,0.313h-0.371
		c-0.093,0-0.139,0.039-0.139,0.117v7.227c0,0.599-0.06,1.063-0.177,1.387c-0.116,0.325-0.345,0.573-0.684,0.742
		c-0.364,0.195-0.95,0.318-1.758,0.371c-0.341,0.025-0.645-0.071-0.908-0.293c-0.268-0.223-0.452-0.502-0.559-0.84
		c-0.092-0.273-0.057-0.527,0.106-0.762c0.163-0.236,0.388-0.348,0.674-0.332c0.223,0,0.456,0,0.703,0
		c0.234,0,0.353-0.101,0.353-0.293v-7.207c0-0.078-0.039-0.117-0.115-0.117h-0.549c-0.284,0-0.532-0.104-0.74-0.313
		s-0.313-0.456-0.313-0.742c0-0.285,0.104-0.533,0.313-0.742c0.208-0.207,0.456-0.312,0.74-0.312H340.294z M340.078,105.479
		c0.285,0,0.529,0.101,0.731,0.304c0.202,0.201,0.303,0.445,0.303,0.731s-0.101,0.53-0.303,0.731
		c-0.202,0.203-0.446,0.303-0.731,0.303h-2.754c-0.286,0-0.528-0.1-0.73-0.303c-0.202-0.201-0.305-0.445-0.305-0.731
		s0.103-0.53,0.305-0.731c0.202-0.203,0.444-0.304,0.73-0.304H340.078z"/>
	<path d="M347.778,116.63c-0.077,0-0.116,0.039-0.116,0.117v0.938c0,0.078,0.039,0.115,0.116,0.115h2.014
		c0.284,0,0.527,0.103,0.73,0.305c0.201,0.202,0.304,0.445,0.304,0.73c0,0.287-0.103,0.531-0.304,0.731
		c-0.203,0.202-0.446,0.304-0.73,0.304h-2.014c-0.077,0-0.116,0.039-0.116,0.116v2.07c0,0.284-0.102,0.528-0.304,0.731
		c-0.202,0.201-0.445,0.303-0.729,0.303c-0.286,0-0.53-0.102-0.732-0.303c-0.202-0.203-0.303-0.447-0.303-0.731v-2.07
		c0-0.077-0.039-0.116-0.117-0.116h-2.07c-0.285,0-0.528-0.102-0.729-0.304c-0.202-0.2-0.305-0.444-0.305-0.731
		c0-0.285,0.103-0.528,0.305-0.73c0.201-0.202,0.444-0.305,0.729-0.305h2.07c0.078,0,0.117-0.037,0.117-0.115v-0.938
		c0-0.078-0.039-0.117-0.117-0.117H344.4c-0.378,0-0.7-0.133-0.967-0.399c-0.269-0.267-0.4-0.589-0.4-0.967v-4.492
		c0-0.378,0.136-0.7,0.4-0.967s0.589-0.4,0.967-0.4h1.056c0.077,0,0.116-0.038,0.116-0.116v-0.84c0-0.078-0.039-0.117-0.116-0.117
		h-1.798c-0.285,0-0.524-0.099-0.723-0.293c-0.196-0.195-0.293-0.438-0.293-0.724s0.098-0.526,0.293-0.724
		c0.195-0.195,0.438-0.293,0.723-0.293h1.798c0.077,0,0.116-0.039,0.116-0.116v-0.763c0-0.285,0.104-0.529,0.306-0.731
		c0.2-0.202,0.443-0.304,0.729-0.304s0.53,0.102,0.732,0.304c0.2,0.202,0.303,0.446,0.303,0.731v0.763
		c0,0.077,0.039,0.116,0.117,0.116h1.814c0.285,0,0.527,0.099,0.726,0.293c0.194,0.195,0.293,0.438,0.293,0.724
		s-0.1,0.526-0.293,0.724c-0.195,0.195-0.438,0.293-0.726,0.293h-1.814c-0.078,0-0.117,0.039-0.117,0.117v0.84
		c0,0.078,0.039,0.116,0.117,0.116h1.25c0.377,0,0.697,0.134,0.967,0.4c0.266,0.267,0.4,0.589,0.4,0.967v4.492
		c0,0.378-0.138,0.7-0.4,0.967c-0.27,0.267-0.59,0.399-0.967,0.399H347.778z M344.828,111.064c-0.076,0-0.115,0.039-0.115,0.117
		v0.938c0,0.078,0.039,0.117,0.115,0.117h0.897c0.078,0,0.117-0.039,0.117-0.117v-0.938c0-0.078-0.039-0.117-0.117-0.117H344.828z
		 M344.828,113.798c-0.076,0-0.115,0.039-0.115,0.117v0.938c0,0.078,0.039,0.117,0.115,0.117h0.897c0.078,0,0.117-0.039,0.117-0.117
		v-0.938c0-0.078-0.039-0.117-0.117-0.117H344.828z M348.521,112.236c0.078,0,0.117-0.039,0.117-0.117v-0.938
		c0-0.078-0.039-0.117-0.117-0.117h-0.997c-0.078,0-0.117,0.039-0.117,0.117v0.938c0,0.078,0.039,0.117,0.117,0.117H348.521z
		 M348.521,114.971c0.078,0,0.117-0.039,0.117-0.117v-0.938c0-0.078-0.039-0.117-0.117-0.117h-0.997
		c-0.078,0-0.117,0.039-0.117,0.117v0.938c0,0.078,0.039,0.117,0.117,0.117H348.521z M360.942,107.919
		c0,0.287-0.098,0.525-0.293,0.724c-0.194,0.196-0.438,0.293-0.723,0.293h-3.008c-0.078,0-0.117,0.039-0.117,0.116v0.978
		c0,0.078,0.039,0.117,0.117,0.117h2.244c0.378,0,0.698,0.134,0.969,0.399c0.266,0.268,0.397,0.59,0.397,0.968v9.18
		c0,1.003-0.231,1.634-0.702,1.896c-0.248,0.156-0.604,0.269-1.072,0.332c-0.303,0.039-0.57-0.043-0.813-0.244
		c-0.242-0.2-0.397-0.459-0.479-0.77c-0.066-0.234-0.023-0.449,0.127-0.646c0.146-0.193,0.348-0.317,0.596-0.369
		c0.104-0.023,0.156-0.104,0.156-0.232v-1.875c0-0.078-0.039-0.117-0.117-0.117h-1.309c-0.078,0-0.117,0.039-0.117,0.117v3.025
		c0,0.283-0.104,0.527-0.305,0.73c-0.201,0.201-0.445,0.303-0.73,0.303c-0.287,0-0.531-0.102-0.732-0.303
		c-0.202-0.203-0.303-0.447-0.303-0.73v-3.025c0-0.078-0.039-0.117-0.117-0.117h-1.27c-0.078,0-0.117,0.039-0.117,0.117v3.162
		c0,0.286-0.104,0.53-0.303,0.73c-0.203,0.201-0.449,0.305-0.742,0.305s-0.541-0.104-0.742-0.305c-0.203-0.2-0.303-0.444-0.303-0.73
		v-10.43c0-0.381,0.133-0.7,0.397-0.969c0.269-0.268,0.589-0.398,0.97-0.398h2.106c0.078,0,0.117-0.039,0.117-0.115v-0.979
		c0-0.078-0.039-0.117-0.117-0.117h-2.731c-0.287,0-0.527-0.1-0.726-0.293c-0.194-0.193-0.293-0.438-0.293-0.725
		s0.101-0.525,0.293-0.723c0.195-0.197,0.438-0.293,0.726-0.293h2.731c0.078,0,0.117-0.039,0.117-0.117v-1.349
		c0-0.286,0.101-0.53,0.303-0.731c0.201-0.203,0.445-0.303,0.732-0.303c0.285,0,0.528,0.1,0.729,0.303
		c0.201,0.201,0.306,0.445,0.306,0.731v1.349c0,0.078,0.039,0.117,0.116,0.117h1.951c0.015,0,0.025-0.011,0.039-0.029
		c0.015-0.021,0.015-0.043,0-0.066c-0.287-0.271-0.625-0.573-1.016-0.896c-0.17-0.146-0.258-0.322-0.265-0.537
		c-0.01-0.215,0.072-0.396,0.242-0.537c0.195-0.155,0.416-0.24,0.664-0.254c0.246-0.015,0.472,0.06,0.664,0.215
		c0.313,0.223,0.586,0.438,0.82,0.646c0.207,0.183,0.305,0.413,0.293,0.692c-0.014,0.281-0.125,0.52-0.332,0.714h-0.021
		c-0.016,0.013-0.02,0.026-0.012,0.038c0.008,0.014,0.019,0.021,0.029,0.021c0.272,0,0.5,0.09,0.684,0.271
		c0.185,0.185,0.273,0.407,0.273,0.685v0.057h0.01v-0.004H360.942z M354.731,112.255c0-0.078-0.039-0.116-0.117-0.116h-1.27
		c-0.078,0-0.117,0.038-0.117,0.116v1.095c0,0.077,0.039,0.116,0.117,0.116h1.27c0.078,0,0.117-0.039,0.117-0.116V112.255z
		 M353.228,116.552c0,0.078,0.039,0.117,0.117,0.117h1.27c0.078,0,0.117-0.039,0.117-0.117v-1.073c0-0.078-0.039-0.117-0.117-0.117
		h-1.27c-0.078,0-0.117,0.039-0.117,0.117V116.552z M358.345,112.255c0-0.078-0.039-0.116-0.117-0.116h-1.309
		c-0.078,0-0.117,0.038-0.117,0.116v1.095c0,0.077,0.039,0.116,0.117,0.116h1.309c0.078,0,0.117-0.039,0.117-0.116V112.255z
		 M356.802,116.552c0,0.078,0.039,0.117,0.117,0.117h1.309c0.078,0,0.117-0.039,0.117-0.117v-1.073c0-0.078-0.039-0.117-0.117-0.117
		h-1.309c-0.078,0-0.117,0.039-0.117,0.117V116.552z"/>
	<path d="M376.076,116.552c-0.078,0-0.115,0.039-0.115,0.117v0.604c0,0.078,0.037,0.117,0.115,0.117h3.28
		c0.246,0,0.459,0.088,0.636,0.265c0.178,0.177,0.266,0.39,0.266,0.636c0,0.248-0.088,0.459-0.266,0.635
		c-0.177,0.177-0.39,0.265-0.636,0.265h-3.28c-0.078,0-0.115,0.039-0.115,0.117v1.543c0,0.56-0.076,0.985-0.228,1.278
		c-0.148,0.293-0.42,0.519-0.811,0.674c-0.432,0.156-1.172,0.255-2.229,0.294c-0.312,0.013-0.596-0.078-0.85-0.272
		c-0.254-0.195-0.439-0.449-0.559-0.763c-0.093-0.233-0.066-0.456,0.067-0.664s0.328-0.306,0.576-0.293c0.401,0,0.846,0,1.328,0
		c0.26,0,0.391-0.104,0.391-0.312v-1.484c0-0.078-0.039-0.117-0.117-0.117h-5.702c-0.015,0-0.021,0.01-0.027,0.029
		c-0.009,0.02-0.004,0.035,0.01,0.049c0.455,0.339,0.853,0.656,1.191,0.957c0.231,0.195,0.344,0.445,0.331,0.752
		c-0.016,0.307-0.146,0.563-0.393,0.771c-0.232,0.192-0.506,0.283-0.811,0.264c-0.31-0.02-0.57-0.141-0.791-0.361
		c-0.264-0.246-0.563-0.515-0.898-0.801c-0.262-0.195-0.395-0.456-0.398-0.781c-0.009-0.324,0.105-0.593,0.343-0.801
		c0.012-0.014,0.016-0.029,0.01-0.049c-0.008-0.02-0.018-0.029-0.028-0.029h-3.396c-0.248,0-0.459-0.088-0.636-0.264
		c-0.178-0.176-0.266-0.389-0.266-0.635c0-0.248,0.088-0.459,0.266-0.635c0.177-0.179,0.388-0.267,0.636-0.267h10.564
		c0.077,0,0.116-0.039,0.116-0.117v-0.586c0-0.078-0.039-0.114-0.116-0.114c-1.652,0-2.779-0.016-3.38-0.039
		c-1.027-0.039-1.889-0.195-2.577-0.472c-0.65-0.263-1.211-0.671-1.681-1.229c-0.053-0.064-0.11-0.07-0.176-0.021
		c-0.625,0.433-1.316,0.879-2.07,1.351c-0.223,0.144-0.463,0.172-0.723,0.088c-0.263-0.086-0.443-0.244-0.547-0.479
		c-0.117-0.261-0.127-0.524-0.029-0.791c0.099-0.267,0.275-0.466,0.537-0.597c0.572-0.285,1.065-0.553,1.483-0.801
		c0.063-0.039,0.099-0.1,0.099-0.176v-2.168c0-0.078-0.039-0.117-0.117-0.117h-1.289c-0.248,0-0.459-0.088-0.635-0.266
		c-0.176-0.176-0.265-0.389-0.265-0.635c0-0.247,0.089-0.459,0.265-0.637c0.176-0.176,0.387-0.264,0.635-0.264h2.188
		c0.378,0,0.698,0.133,0.968,0.399c0.266,0.267,0.398,0.589,0.398,0.967v2.423c0,0.077,0.021,0.148,0.061,0.215
		c0.648,0.924,1.809,1.418,3.477,1.483c1.158,0.039,2.839,0.046,5.039,0.021c1.72-0.024,3.17-0.063,4.355-0.117
		c0.221-0.014,0.393,0.068,0.518,0.244c0.123,0.176,0.152,0.367,0.088,0.576c-0.092,0.272-0.24,0.5-0.447,0.684
		c-0.209,0.185-0.448,0.279-0.725,0.295C377.972,116.541,377.002,116.552,376.076,116.552z M366.233,106.298
		c0.207,0.209,0.304,0.463,0.283,0.763c-0.021,0.3-0.146,0.547-0.381,0.741c-0.225,0.195-0.479,0.281-0.764,0.255
		c-0.285-0.026-0.533-0.149-0.74-0.371c-0.342-0.378-0.742-0.755-1.211-1.134c-0.195-0.168-0.299-0.383-0.306-0.645
		c-0.008-0.263,0.089-0.478,0.283-0.646c0.234-0.184,0.5-0.279,0.801-0.293c0.3-0.014,0.566,0.078,0.804,0.273
		C365.472,105.608,365.883,105.96,366.233,106.298z M372.094,108.251c0.078,0,0.123-0.039,0.137-0.117l0.078-0.37
		c0.012-0.078-0.021-0.117-0.098-0.117h-4.222c-0.223,0-0.409-0.078-0.563-0.233c-0.156-0.156-0.234-0.346-0.234-0.564
		s0.078-0.41,0.234-0.564c0.154-0.156,0.344-0.234,0.563-0.234h2.052c0.024,0,0.047-0.012,0.061-0.039
		c0.012-0.025,0.021-0.051,0.021-0.077c-0.054-0.104-0.104-0.216-0.154-0.332c-0.117-0.222-0.125-0.442-0.021-0.664
		c0.104-0.222,0.273-0.358,0.509-0.41c0.284-0.077,0.565-0.062,0.842,0.05c0.271,0.11,0.479,0.289,0.625,0.537
		c0.143,0.285,0.266,0.559,0.369,0.819c0.024,0.077,0.078,0.116,0.155,0.116h2.5c0.078,0,0.139-0.039,0.177-0.116
		c0.13-0.208,0.239-0.403,0.332-0.587c0.155-0.285,0.377-0.497,0.664-0.635c0.284-0.137,0.586-0.18,0.897-0.127
		c0.26,0.063,0.438,0.219,0.537,0.459c0.098,0.242,0.066,0.473-0.088,0.691c-0.055,0.078-0.105,0.146-0.156,0.217
		c-0.015,0.024-0.02,0.049-0.01,0.066c0.006,0.021,0.021,0.027,0.049,0.027h2.069c0.222,0,0.409,0.078,0.564,0.234
		c0.156,0.155,0.234,0.344,0.234,0.565c0,0.221-0.078,0.409-0.234,0.565c-0.155,0.154-0.346,0.232-0.564,0.232h-4.807
		c-0.078,0-0.131,0.039-0.155,0.115l-0.177,0.371c0,0.025,0.007,0.054,0.021,0.078c0.012,0.025,0.029,0.039,0.059,0.039h2.931
		c0.378,0,0.698,0.133,0.969,0.399c0.266,0.267,0.397,0.589,0.397,0.968v3.28c0,0.378-0.135,0.7-0.397,0.968
		c-0.271,0.266-0.592,0.399-0.969,0.399h-7.146c-0.379,0-0.701-0.134-0.967-0.399c-0.271-0.268-0.4-0.59-0.4-0.968v-3.28
		c0-0.379,0.133-0.701,0.4-0.968c0.266-0.267,0.588-0.399,0.967-0.399h1.951L372.094,108.251L372.094,108.251z M376.233,109.912
		c0.078,0,0.117-0.039,0.117-0.117v-0.371c0-0.075-0.039-0.114-0.117-0.114h-5.137c-0.078,0-0.117,0.039-0.117,0.114v0.371
		c0,0.078,0.039,0.117,0.117,0.117H376.233z M376.233,111.533c0.078,0,0.117-0.039,0.117-0.117v-0.371
		c0-0.078-0.039-0.117-0.117-0.117h-5.137c-0.078,0-0.117,0.039-0.117,0.117v0.371c0,0.078,0.039,0.117,0.117,0.117H376.233z
		 M376.233,113.173c0.078,0,0.117-0.039,0.117-0.116v-0.41c0-0.078-0.039-0.116-0.117-0.116h-5.137
		c-0.078,0-0.117,0.038-0.117,0.116v0.41c0,0.077,0.039,0.116,0.117,0.116H376.233z"/>
	<g>
		<circle cx="389.259" cy="16.55" r="1.139"/>
		<circle cx="389.259" cy="21.55" r="1.139"/>
		<circle cx="389.259" cy="26.55" r="1.139"/>
	</g>
	<circle cx="389.259" cy="6.55" r="1.139"/>
	<circle cx="389.259" cy="11.55" r="1.139"/>
	<circle cx="389.259" cy="31.55" r="1.139"/>
	<circle cx="389.259" cy="36.55" r="1.139"/>
	<circle cx="389.259" cy="41.55" r="1.139"/>
	<g>
		<circle cx="389.259" cy="46.55" r="1.139"/>
		<circle cx="389.259" cy="51.55" r="1.139"/>
		<circle cx="389.259" cy="56.55" r="1.139"/>
	</g>
</g>
<g class="checkIcon5 fadeIn" style="opacity:0">
	<path fill="#F8EB4D" d="M625.488,43.876c-0.305-1.621-1.672-2.191-3.038-1.267l-0.632,0.428c-1.366,0.925-3.834,1.682-5.484,1.682
		h-1.575c-1.65,0-2.751,1.327-2.446,2.948l4.896,26.105c0.308,1.621,1.903,2.948,3.557,2.948h1.578c1.647,0,4.115-0.758,5.481-1.682
		l0.632-0.431c1.366-0.925,2.235-3.009,1.934-4.63L625.488,43.876z"/>
	<path fill="none" stroke="#000000" stroke-width="4" stroke-linecap="round" stroke-linejoin="round" stroke-miterlimit="10" d="
		M625.488,43.876c-0.305-1.621-1.672-2.191-3.038-1.267l-0.632,0.428c-1.366,0.925-3.834,1.682-5.484,1.682h-1.575
		c-1.65,0-2.751,1.327-2.446,2.948l4.896,26.105c0.308,1.621,1.903,2.948,3.557,2.948h1.578c1.647,0,4.115-0.758,5.481-1.682
		l0.632-0.431c1.366-0.925,2.235-3.009,1.934-4.63L625.488,43.876z"/>
	
		<polygon fill="#F8EB4D" stroke="#000000" stroke-width="2" stroke-linecap="round" stroke-linejoin="round" stroke-miterlimit="10" points="
		630.94,72.93 625.341,76.721 619.335,44.719 624.935,40.928 	"/>
	
		<path fill="#F8EB4D" stroke="#000000" stroke-width="5" stroke-linecap="round" stroke-linejoin="round" stroke-miterlimit="10" d="
		M655.723,35.213c0,9.316-8.659,16.871-19.343,16.871h-23.628c-10.686,0-16.343-7.555-16.343-16.871l0,0
		c0-9.316,5.657-16.869,16.343-16.869h23.628C647.063,18.344,655.723,25.896,655.723,35.213L655.723,35.213z"/>
	
		<path fill="#FFFFFF" stroke="#000000" stroke-width="4" stroke-linecap="round" stroke-linejoin="round" stroke-miterlimit="10" d="
		M641.059,15.918c-5.141,1.748-8.95,9.842-8.95,19.294c0,9.556,3.896,17.731,9.124,19.353l27.214,11.74
		c8.671,0.979,16.111-12.918,16.111-31.09c0-18.172-7.44-32.062-16.111-31.086L641.059,15.918z"/>
	
		<path fill="#FFFFFF" stroke="#000000" stroke-width="4" stroke-linecap="round" stroke-linejoin="round" stroke-miterlimit="10" d="
		M684.558,35.215c0,18.172-7.44,32.068-16.111,31.09c-8.157-0.918-14.427-14.818-14.427-31.088c0-16.273,6.27-30.168,14.427-31.088
		C677.115,3.152,684.558,17.043,684.558,35.215z"/>
	
		<path fill="#FFFFFF" stroke="#000000" stroke-width="4" stroke-linecap="round" stroke-linejoin="round" stroke-miterlimit="10" d="
		M654.02,35.217c0,2.836,0.194,5.598,0.553,8.234l12.121-1.236V28.223l-12.122-1.237C654.215,29.619,654.02,32.381,654.02,35.217z"
		/>
	
		<ellipse fill="#FFFFFF" stroke="#000000" stroke-width="3" stroke-linecap="round" stroke-linejoin="round" stroke-miterlimit="10" cx="666.742" cy="35.217" rx="3.5" ry="7.354"/>
	<path d="M616.213,105.732c0,0.078,0.038,0.117,0.114,0.117h5.843c0.379,0,0.698,0.134,0.967,0.4
		c0.268,0.266,0.397,0.588,0.397,0.967v2.422c0,0.339-0.114,0.625-0.352,0.859c-0.235,0.231-0.521,0.352-0.859,0.352
		s-0.625-0.117-0.856-0.352c-0.234-0.235-0.354-0.521-0.354-0.859v-1.426c0-0.078-0.039-0.117-0.117-0.117H608.85
		c-0.078,0-0.117,0.039-0.117,0.117v1.481c0,0.312-0.113,0.583-0.342,0.812c-0.229,0.229-0.498,0.343-0.813,0.343
		c-0.312,0-0.582-0.114-0.811-0.343c-0.227-0.229-0.342-0.498-0.342-0.812v-2.479c0-0.379,0.135-0.699,0.397-0.967
		c0.271-0.269,0.593-0.399,0.97-0.399h5.778c0.078,0,0.117-0.039,0.117-0.117v-0.039c0-0.353,0.125-0.649,0.371-0.897
		c0.248-0.246,0.545-0.371,0.889-0.371c0.349,0,0.646,0.125,0.892,0.371c0.248,0.248,0.371,0.547,0.371,0.897L616.213,105.732
		L616.213,105.732z M612.071,115.029c-0.078,0-0.117,0.039-0.117,0.117v1.055c0,0.078,0.039,0.117,0.117,0.117h8.203
		c0.379,0,0.701,0.135,0.967,0.4c0.271,0.267,0.4,0.589,0.4,0.967v4.063c0,0.322-0.117,0.604-0.354,0.84
		c-0.232,0.232-0.514,0.352-0.84,0.352h-0.508c-0.195,0-0.356-0.064-0.488-0.195c-0.129-0.129-0.192-0.293-0.192-0.488
		c0-0.039-0.021-0.059-0.062-0.059h-7.188c-0.039,0-0.062,0.02-0.062,0.059c0,0.209-0.065,0.381-0.205,0.521
		c-0.137,0.14-0.309,0.205-0.518,0.205h-0.449c-0.324,0-0.602-0.112-0.83-0.345c-0.227-0.227-0.342-0.504-0.342-0.827v-10.996
		c0-0.378,0.135-0.7,0.4-0.97c0.268-0.266,0.59-0.397,0.967-0.397h8.047c0.379,0,0.701,0.136,0.967,0.397
		c0.271,0.27,0.4,0.592,0.4,0.97v2.854c0,0.377-0.133,0.697-0.4,0.967c-0.266,0.267-0.588,0.398-0.967,0.398L612.071,115.029
		L612.071,115.029z M618.049,111.572c0-0.078-0.039-0.117-0.117-0.117h-5.859c-0.078,0-0.117,0.039-0.117,0.117v1.328
		c0,0.078,0.039,0.117,0.117,0.117h5.859c0.078,0,0.117-0.039,0.117-0.117V111.572z M619.26,118.486
		c0-0.078-0.039-0.117-0.117-0.117h-7.07c-0.078,0-0.117,0.039-0.117,0.117v1.543c0,0.078,0.039,0.117,0.117,0.117h7.07
		c0.078,0,0.117-0.039,0.117-0.117V118.486z"/>
	<path d="M642.844,107.919c0.223,0.223,0.332,0.488,0.332,0.802s-0.109,0.579-0.332,0.801c-0.224,0.222-0.488,0.332-0.803,0.332
		h-8.438c-0.078,0-0.117,0.039-0.117,0.117c-0.078,1.016-0.143,1.797-0.194,2.344c-0.013,0.078,0.021,0.117,0.1,0.117h6.211
		c0.379,0,0.693,0.134,0.947,0.399c0.254,0.267,0.369,0.59,0.342,0.967c-0.185,2.553-0.394,4.435-0.625,5.646
		c-0.234,1.276-0.562,2.13-0.979,2.56c-0.479,0.533-1.194,0.84-2.146,0.918c-0.508,0.054-1.25,0.064-2.229,0.039
		c-0.321-0.014-0.614-0.135-0.879-0.359c-0.26-0.229-0.455-0.52-0.586-0.869c-0.09-0.247-0.065-0.479,0.068-0.691
		c0.136-0.213,0.33-0.314,0.576-0.305c0.649,0.023,1.365,0.039,2.146,0.039c0.482,0,0.812-0.078,0.979-0.232
		c0.508-0.416,0.896-2.33,1.172-5.742c0.014-0.078-0.021-0.116-0.101-0.116h-5.293c-0.077,0-0.123,0.038-0.137,0.116
		c-0.43,1.836-1.125,3.465-2.09,4.884c-0.771,1.12-1.816,2.09-3.146,2.909c-0.321,0.184-0.658,0.226-1.006,0.127
		c-0.344-0.098-0.646-0.295-0.908-0.596c-0.207-0.233-0.289-0.513-0.241-0.83c0.047-0.318,0.196-0.559,0.459-0.713
		c0.301-0.185,0.586-0.377,0.856-0.586c0.603-0.455,1.104-0.914,1.504-1.377c0.404-0.463,0.763-0.992,1.064-1.594
		c0.307-0.602,0.545-1.156,0.713-1.682c0.17-0.52,0.312-1.131,0.43-1.824c0.118-0.695,0.195-1.301,0.234-1.809
		c0.053-0.479,0.098-1.062,0.137-1.736c0-0.078-0.039-0.117-0.117-0.117h-4.448c-0.313,0-0.578-0.107-0.804-0.332
		c-0.221-0.225-0.332-0.486-0.332-0.801s0.111-0.579,0.332-0.803c0.226-0.223,0.488-0.332,0.804-0.332h6.387
		c0.078,0,0.117-0.039,0.117-0.115v-1.936c0-0.326,0.121-0.606,0.358-0.851c0.242-0.241,0.527-0.36,0.859-0.36
		s0.619,0.119,0.859,0.36s0.358,0.524,0.358,0.851v1.936c0,0.076,0.039,0.115,0.117,0.115h6.681
		C642.354,107.587,642.62,107.699,642.844,107.919z"/>
	<path d="M659.969,116.064c-0.092,0-0.14,0.039-0.14,0.117v0.723c0,0.078,0.046,0.117,0.14,0.117h1.426
		c0.246,0,0.459,0.088,0.635,0.264c0.178,0.176,0.267,0.391,0.267,0.646c0,0.254-0.091,0.469-0.267,0.646
		c-0.176,0.176-0.389,0.264-0.635,0.264h-1.426c-0.092,0-0.14,0.039-0.14,0.117v1.992c0,0.547-0.069,0.963-0.215,1.25
		c-0.145,0.283-0.401,0.508-0.78,0.661c-0.402,0.171-1.128,0.271-2.169,0.312c-0.301,0.015-0.567-0.077-0.811-0.271
		c-0.243-0.193-0.414-0.441-0.518-0.74c-0.095-0.234-0.066-0.457,0.075-0.664c0.146-0.209,0.332-0.308,0.566-0.293
		c0.494,0,0.885-0.009,1.172-0.021c0.246,0,0.371-0.104,0.371-0.313v-1.914c0-0.078-0.039-0.117-0.117-0.117h-4.141
		c-0.027,0-0.043,0.011-0.049,0.029c-0.011,0.021-0.007,0.035,0.01,0.049c0.43,0.416,0.807,0.813,1.133,1.189
		c0.195,0.232,0.271,0.501,0.225,0.803c-0.047,0.299-0.196,0.532-0.459,0.701c-0.246,0.17-0.518,0.227-0.811,0.166
		s-0.531-0.212-0.713-0.459c-0.287-0.363-0.619-0.74-0.996-1.133c-0.195-0.184-0.281-0.406-0.254-0.676
		c0.022-0.266,0.146-0.471,0.371-0.613c0.012-0.014,0.016-0.025,0.01-0.039c-0.008-0.014-0.018-0.021-0.029-0.021h-1.697
		c-0.264,0-0.479-0.088-0.653-0.264s-0.265-0.391-0.265-0.645s0.089-0.469,0.265-0.645c0.176-0.179,0.393-0.267,0.653-0.267h7.4
		c0.078,0,0.117-0.039,0.117-0.117v-0.646c0-0.076-0.039-0.115-0.117-0.115c-2.031,0.064-4.305,0.124-6.813,0.176
		c-0.248,0.014-0.47-0.064-0.654-0.232c-0.189-0.17-0.303-0.379-0.342-0.625c-0.027-0.248,0.041-0.459,0.205-0.635
		c0.161-0.178,0.358-0.266,0.596-0.266c1.104-0.014,2.506-0.032,4.199-0.061c0.078,0,0.116-0.039,0.116-0.117v-0.547
		c0-0.078-0.038-0.117-0.116-0.117h-2.933c-0.379,0-0.698-0.133-0.967-0.398c-0.268-0.268-0.397-0.589-0.397-0.967v-2.771
		c0-0.379,0.133-0.701,0.397-0.969c0.268-0.268,0.588-0.398,0.967-0.398h2.933c0.078,0,0.116-0.039,0.116-0.117v-0.508
		c0-0.078-0.038-0.117-0.116-0.117h-4.16c-0.248,0-0.459-0.088-0.635-0.264c-0.179-0.176-0.267-0.39-0.267-0.636
		c-0.014-0.014-0.02-0.014-0.02,0c-0.354,0.794-0.775,1.646-1.271,2.56c-0.039,0.078-0.059,0.156-0.059,0.234v12.52
		c0,0.313-0.107,0.576-0.322,0.791c-0.215,0.216-0.479,0.322-0.791,0.322c-0.312,0-0.576-0.106-0.791-0.322
		c-0.215-0.215-0.322-0.479-0.322-0.791v-9.062c0-0.013-0.01-0.021-0.026-0.028c-0.021-0.006-0.029-0.002-0.029,0.012
		c-0.156,0.193-0.307,0.384-0.449,0.564c-0.209,0.248-0.473,0.35-0.791,0.303c-0.317-0.045-0.562-0.211-0.729-0.498
		c-0.187-0.353-0.258-0.723-0.228-1.111c0.031-0.393,0.181-0.734,0.439-1.035c0.586-0.701,1.151-1.504,1.699-2.4
		c0.608-1.004,1.145-2.023,1.602-3.065c0.117-0.302,0.322-0.521,0.615-0.664s0.596-0.163,0.908-0.06l0.563,0.177
		c0.146,0.052,0.246,0.146,0.313,0.282c0.062,0.138,0.067,0.274,0.02,0.42c-0.014,0.025,0,0.039,0.039,0.039h4.707
		c0.064,0,0.098-0.031,0.098-0.098c0-0.312,0.109-0.576,0.332-0.791c0.224-0.217,0.48-0.322,0.781-0.322h0.1
		c0.3,0,0.558,0.105,0.771,0.322c0.214,0.215,0.322,0.479,0.322,0.791c0,0.063,0.039,0.098,0.116,0.098h4.197
		c0.234,0,0.438,0.084,0.605,0.254c0.168,0.168,0.254,0.371,0.254,0.605c0,0.233-0.086,0.438-0.254,0.604
		c-0.17,0.17-0.371,0.256-0.605,0.256h-4.18c-0.092,0-0.137,0.037-0.137,0.115v0.51c0,0.076,0.045,0.115,0.137,0.115h3.008
		c0.377,0,0.699,0.136,0.967,0.4c0.269,0.268,0.4,0.59,0.4,0.967v3.358c0,0.208-0.076,0.392-0.225,0.547
		c-0.15,0.156-0.337,0.234-0.56,0.234c-0.014,0-0.02,0.007-0.02,0.021s0,0.025,0,0.038c0.455,0.431,0.856,0.849,1.211,1.25
		c0.168,0.195,0.227,0.421,0.176,0.675c-0.053,0.254-0.188,0.445-0.41,0.575l-0.117,0.078c-0.192,0.117-0.405,0.147-0.635,0.099
		c-0.229-0.053-0.414-0.168-0.557-0.353c-0.039-0.039-0.086-0.06-0.139-0.06L659.969,116.064z M652.604,109.521
		c-0.092,0-0.137,0.039-0.137,0.117v0.586c0,0.078,0.045,0.117,0.137,0.117h1.992c0.078,0,0.117-0.039,0.117-0.117v-0.586
		c0-0.078-0.039-0.117-0.117-0.117H652.604z M652.469,112.275c0,0.078,0.045,0.117,0.137,0.117h1.992
		c0.078,0,0.117-0.039,0.117-0.117v-0.586c0-0.078-0.039-0.117-0.117-0.117h-1.992c-0.092,0-0.137,0.039-0.137,0.117V112.275z
		 M659.243,109.639c0-0.078-0.039-0.117-0.114-0.117h-1.976c-0.092,0-0.137,0.039-0.137,0.117v0.586
		c0,0.077,0.045,0.116,0.137,0.116h1.976c0.075,0,0.114-0.039,0.114-0.116V109.639z M659.129,112.393
		c0.075,0,0.114-0.039,0.114-0.117v-0.586c0-0.078-0.039-0.116-0.114-0.116h-1.976c-0.092,0-0.137,0.038-0.137,0.116v0.586
		c0,0.078,0.045,0.117,0.137,0.117H659.129z M657.155,113.721c-0.092,0-0.137,0.038-0.137,0.116v0.509
		c0,0.077,0.045,0.116,0.137,0.116l1.66-0.021c0.025,0,0.039-0.007,0.039-0.021c0-0.014,0-0.024,0-0.039
		c-0.131-0.115-0.293-0.268-0.488-0.447c-0.024-0.023-0.037-0.063-0.026-0.105c0.006-0.045,0.026-0.08,0.065-0.106H657.155z"/>
	<path d="M681.823,110.302c0,0.273-0.092,0.502-0.271,0.685c-0.187,0.183-0.41,0.272-0.687,0.272h-2.188
		c-0.027,0-0.043,0.011-0.049,0.029c-0.011,0.021-0.005,0.043,0.01,0.066c0.82,0.818,1.744,1.504,2.771,2.053
		c0.234,0.115,0.371,0.307,0.41,0.564s-0.024,0.486-0.192,0.686c-0.226,0.248-0.433,0.52-0.625,0.818
		c-0.027,0.063-0.072,0.078-0.14,0.039v6.311c0,0.312-0.104,0.574-0.319,0.791c-0.218,0.215-0.479,0.32-0.791,0.32h-0.488
		c-0.17,0-0.313-0.061-0.43-0.176c-0.118-0.117-0.179-0.264-0.179-0.432c0-0.039-0.02-0.06-0.059-0.06h-5.742
		c-0.039,0-0.059,0.021-0.059,0.06c0,0.194-0.068,0.357-0.205,0.487c-0.14,0.13-0.298,0.195-0.479,0.195h-0.371
		c-0.286,0-0.534-0.104-0.741-0.312c-0.209-0.209-0.312-0.457-0.312-0.742v-6.406c0-0.025-0.014-0.032-0.039-0.02
		c-0.104,0.051-0.215,0.061-0.332,0.026c-0.117-0.031-0.209-0.103-0.271-0.205c-0.095-0.13-0.195-0.271-0.313-0.431
		c-0.025-0.039-0.064-0.047-0.117-0.021c-0.193,0.065-0.463,0.164-0.801,0.293c-0.326,0.117-0.586,0.216-0.781,0.294
		c-0.078,0.025-0.115,0.077-0.115,0.155v4.883c0,1.067-0.27,1.767-0.803,2.091c-0.34,0.209-0.873,0.346-1.602,0.409
		c-0.326,0.015-0.613-0.084-0.859-0.293c-0.248-0.207-0.424-0.479-0.525-0.819c-0.065-0.26-0.022-0.498,0.127-0.713
		c0.146-0.216,0.359-0.32,0.636-0.32c0.194,0,0.362-0.008,0.508-0.021c0.221,0,0.332-0.109,0.332-0.332v-4.141
		c0-0.078-0.039-0.104-0.117-0.078l-0.801,0.273c-0.287,0.104-0.564,0.078-0.83-0.078c-0.269-0.156-0.428-0.385-0.479-0.685
		c-0.054-0.325,0.007-0.634,0.178-0.918c0.168-0.286,0.416-0.479,0.741-0.565v-0.021c0.479-0.146,0.88-0.255,1.189-0.332
		c0.078-0.025,0.117-0.076,0.117-0.154v-3.359c0-0.078-0.047-0.117-0.137-0.117h-0.859c-0.301,0-0.557-0.107-0.771-0.322
		c-0.216-0.215-0.321-0.476-0.321-0.781c0-0.305,0.104-0.563,0.321-0.778c0.216-0.218,0.472-0.322,0.771-0.322h0.859
		c0.09,0,0.137-0.038,0.137-0.114v-2.539c0-0.303,0.106-0.56,0.322-0.771c0.215-0.215,0.471-0.322,0.771-0.322
		c0.299,0,0.559,0.107,0.771,0.322s0.319,0.473,0.319,0.771v2.539c0,0.076,0.039,0.114,0.117,0.114h0.586
		c0.299,0,0.56,0.104,0.771,0.322c0.214,0.215,0.319,0.472,0.319,0.771s-0.104,0.557-0.319,0.771
		c-0.215,0.213-0.476,0.32-0.771,0.32h-0.586c-0.078,0-0.117,0.039-0.117,0.117v2.656c0,0.077,0.039,0.104,0.117,0.077l0.488-0.155
		c0.221-0.078,0.436-0.057,0.645,0.067c0.207,0.124,0.332,0.304,0.371,0.536c0.014,0.053,0.039,0.066,0.078,0.039
		c1.289-0.586,2.369-1.359,3.242-2.323c0.025-0.026,0.031-0.05,0.02-0.067c-0.014-0.021-0.03-0.029-0.059-0.029h-2.031
		c-0.262,0-0.479-0.092-0.664-0.271c-0.184-0.186-0.271-0.404-0.271-0.674s0.09-0.491,0.271-0.676
		c0.185-0.184,0.402-0.271,0.664-0.271h0.918c0.091,0,0.123-0.038,0.101-0.115c-0.056-0.146-0.111-0.308-0.179-0.488
		c-0.131-0.338-0.119-0.67,0.029-0.996c0.148-0.324,0.4-0.539,0.752-0.645c0.013,0,0.021-0.009,0.021-0.021
		c0-0.014-0.009-0.02-0.021-0.02c-0.287,0.012-0.65,0.03-1.094,0.059c-0.248,0-0.473-0.077-0.674-0.233
		c-0.203-0.155-0.342-0.356-0.42-0.604c-0.078-0.207-0.06-0.401,0.065-0.586c0.123-0.184,0.289-0.278,0.498-0.293
		c3.271-0.156,5.957-0.41,8.066-0.763c0.322-0.052,0.637-0.021,0.938,0.099c0.3,0.117,0.547,0.308,0.742,0.565
		c0.146,0.195,0.168,0.407,0.078,0.636c-0.092,0.229-0.262,0.36-0.508,0.399c-1.058,0.169-2.129,0.308-3.226,0.41
		c-0.077,0.014-0.114,0.06-0.114,0.137v2.345c0,0.078,0.038,0.116,0.114,0.116h0.449c0.09,0,0.148-0.038,0.176-0.116
		c0.313-0.611,0.578-1.18,0.804-1.699c0.104-0.271,0.289-0.479,0.557-0.613c0.266-0.139,0.543-0.166,0.83-0.09
		c0.26,0.066,0.445,0.227,0.557,0.48c0.109,0.254,0.103,0.497-0.026,0.73c-0.056,0.091-0.105,0.188-0.156,0.293
		c-0.223,0.417-0.379,0.716-0.469,0.896c-0.017,0.025-0.017,0.053,0,0.077c0.012,0.026,0.028,0.039,0.059,0.039h1.211
		c0.26,0,0.484,0.093,0.674,0.272C681.729,109.821,681.823,110.042,681.823,110.302z M671.767,114.893
		c-0.014,0.013-0.019,0.028-0.01,0.049c0.006,0.021,0.016,0.029,0.026,0.029h7.988c0.025,0,0.039-0.011,0.039-0.029
		s-0.008-0.036-0.021-0.049c-1.119-0.769-2.104-1.687-2.947-2.754c-0.017-0.013-0.029-0.017-0.049-0.011
		c-0.021,0.008-0.029,0.018-0.029,0.029v1.443c0,0.3-0.105,0.557-0.313,0.764c-0.209,0.209-0.463,0.311-0.762,0.311
		c-0.301,0-0.555-0.104-0.762-0.311c-0.209-0.207-0.313-0.464-0.313-0.764v-1.229c0-0.015-0.01-0.021-0.026-0.029
		c-0.021-0.006-0.037-0.002-0.052,0.011C673.743,113.356,672.821,114.203,671.767,114.893z M674.521,117.822
		c0.09,0,0.137-0.039,0.137-0.117v-0.896c0-0.078-0.047-0.117-0.137-0.117h-1.602c-0.078,0-0.117,0.039-0.117,0.117v0.896
		c0,0.078,0.039,0.117,0.117,0.117H674.521z M672.92,119.462c-0.078,0-0.117,0.039-0.117,0.117v0.918
		c0,0.078,0.039,0.117,0.117,0.117h1.602c0.09,0,0.137-0.039,0.137-0.117v-0.918c0-0.078-0.047-0.117-0.137-0.117H672.92z
		 M674.481,109.365c0.09,0,0.137-0.039,0.137-0.117v-2.168c0-0.078-0.047-0.117-0.137-0.117c-0.6,0.055-1.049,0.086-1.348,0.101
		c-0.078,0-0.105,0.039-0.078,0.114c0.143,0.313,0.266,0.589,0.371,0.82c0.117,0.262,0.11,0.524-0.013,0.791
		c-0.125,0.27-0.319,0.446-0.596,0.537c0,0.026,0.006,0.039,0.021,0.039H674.481z M678.524,117.822c0.09,0,0.137-0.039,0.137-0.117
		v-0.896c0-0.078-0.047-0.117-0.137-0.117h-1.777c-0.075,0-0.114,0.039-0.114,0.117v0.896c0,0.078,0.039,0.117,0.114,0.117H678.524z
		 M676.631,120.498c0,0.078,0.039,0.117,0.114,0.117h1.777c0.09,0,0.137-0.039,0.137-0.117v-0.918c0-0.078-0.047-0.117-0.137-0.117
		h-1.777c-0.075,0-0.114,0.039-0.114,0.117V120.498z"/>
	<circle cx="661.199" cy="10.216" r="1.138"/>
	<circle cx="665.946" cy="10.216" r="1.138"/>
	<circle cx="670.689" cy="10.216" r="1.139"/>
	<circle cx="661.199" cy="15.216" r="1.138"/>
	<circle cx="665.946" cy="15.216" r="1.138"/>
	<circle cx="670.689" cy="15.216" r="1.139"/>
	<circle cx="656.455" cy="20.216" r="1.139"/>
	<circle cx="661.199" cy="20.216" r="1.138"/>
	<circle cx="665.946" cy="20.216" r="1.138"/>
	<circle cx="670.689" cy="20.216" r="1.139"/>
	<circle cx="675.434" cy="10.216" r="1.139"/>
	<circle cx="675.434" cy="15.216" r="1.139"/>
	<circle cx="675.434" cy="20.216" r="1.139"/>
	<circle cx="656.455" cy="25.216" r="1.139"/>
	<circle cx="661.199" cy="25.216" r="1.138"/>
	<circle cx="665.946" cy="25.216" r="1.138"/>
	<circle cx="670.689" cy="25.216" r="1.139"/>
	<circle cx="670.689" cy="30.216" r="1.139"/>
	<circle cx="670.689" cy="35.216" r="1.139"/>
	<circle cx="670.689" cy="40.216" r="1.139"/>
	<circle cx="656.455" cy="45.216" r="1.139"/>
	<circle cx="661.199" cy="45.216" r="1.138"/>
	<circle cx="665.946" cy="45.216" r="1.138"/>
	<circle cx="670.689" cy="45.216" r="1.139"/>
	<circle cx="656.455" cy="50.216" r="1.139"/>
	<circle cx="661.199" cy="50.216" r="1.138"/>
	<circle cx="665.946" cy="50.216" r="1.138"/>
	<circle cx="670.689" cy="50.216" r="1.139"/>
	<circle cx="675.434" cy="25.216" r="1.139"/>
	<circle cx="680.178" cy="25.216" r="1.138"/>
	<circle cx="675.434" cy="30.216" r="1.139"/>
	<circle cx="680.178" cy="30.216" r="1.138"/>
	<circle cx="675.434" cy="35.216" r="1.139"/>
	<circle cx="680.178" cy="35.216" r="1.138"/>
	<circle cx="675.434" cy="40.216" r="1.139"/>
	<circle cx="680.178" cy="40.216" r="1.138"/>
	<circle cx="675.434" cy="45.216" r="1.139"/>
	<circle cx="680.178" cy="45.216" r="1.138"/>
	<circle cx="675.434" cy="50.216" r="1.139"/>
	<circle cx="661.199" cy="55.216" r="1.138"/>
	<circle cx="665.946" cy="55.216" r="1.138"/>
	<circle cx="670.689" cy="55.216" r="1.139"/>
	<circle cx="661.199" cy="60.216" r="1.138"/>
	<circle cx="665.946" cy="60.216" r="1.138"/>
	<circle cx="670.689" cy="60.216" r="1.139"/>
	<circle cx="675.434" cy="55.216" r="1.139"/>
	<circle cx="680.177" cy="20.216" r="1.139"/>
	<circle cx="680.177" cy="50.216" r="1.139"/>
</g>
<g class="checkIcon1 fadeIn" style="opacity:0">
	<path d="M12.113,120.244c0,0.078,0.039,0.117,0.117,0.117h6.389c0.3,0,0.554,0.104,0.762,0.313
		c0.208,0.207,0.312,0.461,0.312,0.762c0,0.3-0.104,0.555-0.312,0.762c-0.208,0.209-0.462,0.313-0.762,0.313H3.265
		c-0.301,0-0.555-0.104-0.763-0.313c-0.208-0.207-0.313-0.462-0.313-0.762c0-0.301,0.104-0.555,0.313-0.762
		c0.208-0.209,0.462-0.313,0.763-0.313h6.289c0.077,0,0.116-0.039,0.116-0.117v-2.754c0-0.078-0.039-0.117-0.116-0.117H5.355
		c-0.286,0-0.534-0.104-0.742-0.312S4.3,116.604,4.3,116.318c0-0.285,0.104-0.533,0.312-0.742c0.208-0.207,0.456-0.312,0.742-0.312
		h11.522c0.286,0,0.534,0.104,0.742,0.312c0.208,0.209,0.312,0.457,0.312,0.742c0,0.286-0.104,0.534-0.312,0.742
		s-0.456,0.313-0.742,0.313H12.23c-0.078,0-0.117,0.039-0.117,0.117V120.244z M11.917,108.466c0-0.077-0.039-0.116-0.117-0.116
		h-1.698c-0.078,0-0.124,0.039-0.138,0.116c-0.091,0.848-0.24,1.57-0.448,2.168c-0.208,0.625-0.548,1.229-1.017,1.808
		c-0.471,0.579-1.12,1.071-1.953,1.476c-0.547,0.272-1.187,0.517-1.914,0.725c-0.324,0.091-0.646,0.063-0.957-0.09
		c-0.313-0.148-0.572-0.381-0.78-0.691c-0.145-0.222-0.169-0.459-0.078-0.713c0.093-0.254,0.263-0.413,0.51-0.479
		c0.56-0.131,1.048-0.279,1.465-0.449c0.688-0.271,1.221-0.611,1.592-1.016c0.371-0.406,0.636-0.82,0.791-1.25
		c0.156-0.393,0.271-0.888,0.353-1.484c0.015-0.077-0.021-0.116-0.099-0.116h-2.52c-0.078,0-0.117,0.039-0.117,0.116v1.035
		c0,0.324-0.114,0.604-0.343,0.83c-0.229,0.228-0.506,0.342-0.829,0.342c-0.325,0-0.604-0.113-0.83-0.342
		c-0.229-0.229-0.344-0.506-0.344-0.83v-1.936c0-0.378,0.136-0.699,0.4-0.967s0.589-0.398,0.967-0.398h5.742
		c0.077,0,0.116-0.039,0.116-0.117v-0.469c0-0.326,0.12-0.609,0.361-0.852c0.239-0.242,0.525-0.359,0.857-0.359
		s0.617,0.118,0.858,0.359c0.24,0.24,0.359,0.523,0.359,0.852v0.469c0,0.078,0.039,0.117,0.117,0.117h5.879
		c0.378,0,0.7,0.133,0.967,0.398c0.269,0.268,0.4,0.589,0.4,0.967v1.543c0,0.34-0.12,0.629-0.361,0.869
		c-0.239,0.241-0.528,0.359-0.867,0.359c-0.341,0-0.629-0.118-0.869-0.359c-0.241-0.24-0.36-0.529-0.36-0.869v-0.646
		c0-0.076-0.039-0.115-0.117-0.115h-2.521c-0.078,0-0.117,0.039-0.117,0.115v3.066c0,0.272,0.042,0.445,0.128,0.518
		c0.085,0.072,0.289,0.107,0.614,0.107h1.736c0.273,0,0.456-0.084,0.549-0.255c0.013-0.038,0.024-0.077,0.039-0.116
		c0.063-0.246,0.208-0.431,0.43-0.547c0.223-0.117,0.449-0.131,0.685-0.039c0.302,0.116,0.54,0.307,0.725,0.565
		c0.184,0.26,0.229,0.532,0.137,0.819c-0.13,0.479-0.3,0.832-0.508,1.056c-0.363,0.378-0.964,0.565-1.797,0.565H14.65
		c-1.094,0-1.821-0.188-2.188-0.559c-0.364-0.37-0.547-1.07-0.547-2.102L11.917,108.466L11.917,108.466z"/>
	<path d="M29.348,111.083c0,0.379-0.135,0.701-0.4,0.967c-0.266,0.268-0.589,0.4-0.967,0.4h-3.887c-0.078,0-0.117,0.039-0.117,0.115
		v9.354c0,0.324-0.114,0.604-0.343,0.83c-0.229,0.229-0.505,0.342-0.829,0.342c-0.325,0-0.604-0.112-0.83-0.342
		c-0.228-0.229-0.343-0.506-0.343-0.83V106.55c0-0.379,0.135-0.699,0.4-0.967c0.265-0.269,0.589-0.399,0.967-0.399h4.979
		c0.378,0,0.7,0.134,0.967,0.399c0.269,0.267,0.4,0.588,0.4,0.967L29.348,111.083L29.348,111.083z M27.122,107.021
		c0-0.078-0.039-0.117-0.117-0.117h-2.909c-0.078,0-0.117,0.039-0.117,0.117v0.801c0,0.078,0.039,0.117,0.117,0.117h2.909
		c0.078,0,0.117-0.039,0.117-0.117V107.021z M23.977,110.615c0,0.078,0.039,0.117,0.117,0.117h2.909
		c0.078,0,0.117-0.039,0.117-0.117v-0.938c0-0.078-0.039-0.117-0.117-0.117h-2.909c-0.078,0-0.117,0.039-0.117,0.117V110.615z
		 M37.122,105.186c0.378,0,0.698,0.134,0.967,0.399c0.268,0.267,0.398,0.59,0.398,0.967v13.691c0,0.664-0.076,1.18-0.232,1.543
		c-0.155,0.362-0.43,0.639-0.819,0.818c-0.417,0.208-1.18,0.339-2.285,0.393c-0.392,0.024-0.74-0.084-1.055-0.332
		c-0.312-0.246-0.534-0.565-0.664-0.957c-0.026-0.104-0.063-0.224-0.117-0.354c-0.024-0.078-0.078-0.115-0.154-0.115h-4.746
		c-0.064,0-0.1,0.03-0.1,0.098c0,0.262-0.095,0.486-0.281,0.675c-0.188,0.188-0.413,0.282-0.676,0.282H27.24
		c-0.302,0-0.559-0.106-0.771-0.321c-0.215-0.216-0.322-0.472-0.322-0.771v-6.25c0-0.379,0.134-0.701,0.399-0.97
		c0.267-0.269,0.59-0.397,0.968-0.397h5.021c0.378,0,0.698,0.133,0.967,0.397c0.268,0.269,0.398,0.591,0.398,0.97v5.563
		c0,0.077,0.039,0.114,0.117,0.114c0.3,0.016,0.833,0.021,1.604,0.021c0.184-0.014,0.306-0.05,0.371-0.107
		c0.063-0.059,0.098-0.166,0.098-0.32v-7.6c0-0.078-0.039-0.117-0.116-0.117h-3.966c-0.378,0-0.699-0.135-0.967-0.398
		c-0.269-0.268-0.399-0.589-0.399-0.967v-4.592c0-0.379,0.134-0.698,0.399-0.967c0.267-0.268,0.589-0.398,0.967-0.398
		L37.122,105.186L37.122,105.186z M31.653,115.458c0-0.078-0.039-0.117-0.115-0.117H28.43c-0.078,0-0.117,0.039-0.117,0.117v0.938
		c0,0.078,0.039,0.117,0.117,0.117h3.104c0.076,0,0.115-0.039,0.115-0.117L31.653,115.458L31.653,115.458z M28.313,119.365
		c0,0.078,0.039,0.117,0.117,0.117h3.104c0.076,0,0.115-0.039,0.115-0.117v-1.016c0-0.078-0.039-0.117-0.115-0.117H28.43
		c-0.078,0-0.117,0.039-0.117,0.117V119.365z M36.086,107.021c0-0.078-0.039-0.117-0.116-0.117H33c-0.078,0-0.117,0.039-0.117,0.117
		v0.801c0,0.078,0.039,0.117,0.117,0.117h2.97c0.077,0,0.116-0.039,0.116-0.117V107.021z M32.883,110.673
		c0,0.078,0.039,0.117,0.117,0.117h2.97c0.077,0,0.116-0.039,0.116-0.117v-0.996c0-0.077-0.039-0.116-0.116-0.116H33
		c-0.078,0-0.117,0.039-0.117,0.116V110.673z"/>
	<path d="M46.355,113.896c0.039,0.313-0.021,0.6-0.187,0.859c-0.165,0.259-0.396,0.437-0.692,0.527l-0.978,0.293
		c-0.078,0.023-0.117,0.075-0.117,0.153v4.554c0,0.559-0.056,0.993-0.166,1.309c-0.109,0.312-0.314,0.554-0.614,0.723
		c-0.353,0.234-0.893,0.378-1.621,0.43c-0.312,0.026-0.593-0.063-0.84-0.271s-0.417-0.478-0.509-0.804
		c-0.077-0.26-0.042-0.5,0.105-0.723c0.149-0.222,0.361-0.332,0.637-0.332c0.223,0,0.392-0.007,0.508-0.02
		c0.223,0,0.332-0.11,0.332-0.332v-3.887c0-0.078-0.039-0.104-0.116-0.078c-0.156,0.039-0.353,0.091-0.586,0.156
		c-0.312,0.09-0.605,0.055-0.88-0.107c-0.273-0.163-0.448-0.4-0.526-0.713c-0.063-0.313-0.014-0.608,0.156-0.889
		c0.169-0.281,0.417-0.459,0.741-0.537l0.06-0.021c0.456-0.117,0.801-0.202,1.035-0.254c0.077-0.025,0.116-0.078,0.116-0.156v-3.301
		c0-0.078-0.039-0.117-0.116-0.117H41.16c-0.302,0-0.559-0.105-0.771-0.32c-0.215-0.215-0.322-0.478-0.322-0.781
		c0-0.305,0.106-0.565,0.322-0.78c0.215-0.215,0.472-0.321,0.771-0.321h0.938c0.077,0,0.116-0.039,0.116-0.117v-2.578
		c0-0.285,0.105-0.537,0.322-0.752c0.215-0.215,0.469-0.322,0.762-0.322s0.548,0.107,0.763,0.322s0.321,0.467,0.321,0.752v2.578
		c0,0.078,0.039,0.117,0.117,0.117h0.763c0.313,0,0.575,0.106,0.791,0.321c0.215,0.215,0.321,0.478,0.321,0.78
		c0,0.305-0.106,0.566-0.321,0.781c-0.216,0.215-0.479,0.32-0.791,0.32H44.5c-0.078,0-0.117,0.039-0.117,0.117v2.715
		c0,0.078,0.039,0.104,0.117,0.078l0.646-0.154c0.272-0.078,0.529-0.037,0.771,0.127C46.157,113.404,46.303,113.623,46.355,113.896z
		 M53.601,118.35c-0.078,0-0.117,0.039-0.117,0.116v2.07c0,0.078,0.039,0.125,0.117,0.137c0.43,0.027,0.858,0.039,1.289,0.039
		c1.236,0,2.207,0,2.909,0c0.247,0,0.438,0.104,0.576,0.312c0.138,0.208,0.173,0.438,0.105,0.685
		c-0.091,0.313-0.257,0.568-0.498,0.771c-0.239,0.202-0.511,0.305-0.812,0.305h-2.383c-1.458,0-2.669-0.201-3.635-0.605
		c-0.925-0.391-1.697-1.119-2.322-2.188c-0.015-0.025-0.032-0.039-0.061-0.039c-0.025,0-0.039,0.014-0.039,0.039
		c-0.362,0.848-0.794,1.58-1.289,2.205c-0.183,0.234-0.433,0.354-0.752,0.354c-0.317,0-0.596-0.098-0.83-0.293
		c-0.222-0.182-0.342-0.416-0.359-0.703c-0.021-0.285,0.062-0.533,0.244-0.741c0.896-1.067,1.504-2.532,1.814-4.396
		c0.052-0.299,0.198-0.539,0.438-0.725s0.509-0.257,0.802-0.227c0.293,0.031,0.529,0.168,0.713,0.41
		c0.183,0.24,0.247,0.504,0.194,0.791c-0.053,0.272-0.109,0.556-0.177,0.84c-0.025,0.078-0.025,0.156,0,0.234
		c0.402,0.963,0.938,1.672,1.604,2.129c0.013,0.025,0.031,0.031,0.059,0.021c0.028-0.012,0.039-0.032,0.039-0.061v-4.979
		c0-0.078-0.039-0.117-0.115-0.117h-3.613c-0.261,0-0.484-0.095-0.674-0.281c-0.188-0.188-0.283-0.412-0.283-0.676
		c0-0.261,0.096-0.482,0.283-0.674c0.188-0.188,0.413-0.283,0.674-0.283h9.9c0.263,0,0.485,0.098,0.676,0.283
		c0.188,0.188,0.281,0.413,0.281,0.674c0,0.264-0.095,0.485-0.281,0.676c-0.188,0.188-0.413,0.281-0.676,0.281h-3.809
		c-0.078,0-0.117,0.039-0.117,0.117v1.521c0,0.078,0.039,0.117,0.117,0.117h2.793c0.247,0,0.462,0.09,0.646,0.272
		c0.184,0.182,0.271,0.399,0.271,0.653s-0.091,0.473-0.271,0.652c-0.184,0.184-0.396,0.271-0.646,0.271h-2.791v0.008L53.601,118.35
		L53.601,118.35z M56.003,104.99c0.378,0,0.7,0.135,0.968,0.4c0.267,0.266,0.399,0.589,0.399,0.967v4.18
		c0,0.379-0.136,0.7-0.399,0.967c-0.267,0.27-0.59,0.4-0.968,0.4h-7.108c-0.378,0-0.7-0.134-0.968-0.4
		c-0.267-0.266-0.399-0.588-0.399-0.967v-4.18c0-0.378,0.136-0.699,0.399-0.967c0.267-0.268,0.59-0.4,0.968-0.4H56.003z
		 M54.968,107.666c0.078,0,0.117-0.039,0.117-0.117v-0.778c0-0.078-0.039-0.117-0.117-0.117h-5.155
		c-0.078,0-0.117,0.039-0.117,0.117v0.778c0,0.078,0.039,0.117,0.117,0.117H54.968z M54.968,110.225
		c0.078,0,0.117-0.039,0.117-0.117v-0.801c0-0.078-0.039-0.117-0.117-0.117h-5.155c-0.078,0-0.117,0.039-0.117,0.117v0.801
		c0,0.078,0.039,0.117,0.117,0.117H54.968z"/>
	<path d="M63.236,105.518c0.117-0.312,0.322-0.537,0.615-0.675c0.293-0.137,0.596-0.158,0.907-0.067
		c0.301,0.091,0.519,0.28,0.654,0.565c0.136,0.287,0.146,0.574,0.027,0.859c-0.401,0.938-0.879,1.928-1.426,2.969
		c-0.039,0.078-0.06,0.156-0.06,0.232v12.463c0,0.323-0.114,0.604-0.344,0.828c-0.228,0.227-0.505,0.344-0.828,0.344
		c-0.325,0-0.604-0.113-0.83-0.344c-0.229-0.229-0.344-0.505-0.344-0.828v-8.85c0-0.016-0.01-0.021-0.027-0.029
		c-0.021-0.007-0.036-0.003-0.049,0.012c-0.093,0.117-0.185,0.232-0.272,0.353c-0.208,0.247-0.47,0.345-0.781,0.293
		c-0.311-0.052-0.54-0.222-0.685-0.509c-0.015-0.025-0.021-0.045-0.021-0.059c-0.193-0.354-0.271-0.728-0.225-1.123
		c0.046-0.396,0.19-0.752,0.438-1.063c0.588-0.69,1.146-1.472,1.682-2.345C62.286,107.556,62.806,106.546,63.236,105.518z
		 M75.306,114.423c0,0.078,0.039,0.117,0.116,0.117h1.482c0.313,0,0.583,0.113,0.813,0.342c0.229,0.229,0.343,0.502,0.343,0.82
		c0,0.317-0.114,0.594-0.343,0.818c-0.229,0.229-0.497,0.344-0.813,0.344H66.263c-0.325,0-0.604-0.113-0.83-0.344
		c-0.228-0.229-0.343-0.501-0.343-0.818c0-0.318,0.114-0.595,0.343-0.82c0.229-0.227,0.505-0.342,0.83-0.342h1.387
		c0.078,0,0.117-0.039,0.117-0.117v-3.75c0-0.077-0.039-0.116-0.117-0.116h-0.918c-0.323,0-0.6-0.11-0.818-0.332
		c-0.222-0.222-0.332-0.491-0.332-0.812c0-0.322,0.108-0.588,0.332-0.813c0.222-0.225,0.495-0.332,0.818-0.332h0.918
		c0.078,0,0.117-0.039,0.117-0.117v-2.461c0-0.313,0.113-0.583,0.342-0.813c0.229-0.229,0.501-0.342,0.82-0.342
		c0.318,0,0.593,0.113,0.819,0.342c0.228,0.229,0.342,0.498,0.342,0.813v2.461c0,0.078,0.039,0.117,0.117,0.117h2.654
		c0.078,0,0.117-0.039,0.117-0.117v-2.461c0-0.322,0.114-0.604,0.342-0.83c0.229-0.227,0.501-0.342,0.82-0.342
		c0.318,0,0.593,0.111,0.819,0.342c0.228,0.229,0.343,0.508,0.343,0.83v2.461c0,0.078,0.039,0.117,0.116,0.117h1.349
		c0.313,0,0.579,0.107,0.801,0.332c0.224,0.225,0.332,0.488,0.332,0.813c0,0.319-0.108,0.59-0.332,0.812
		c-0.222,0.222-0.486,0.332-0.801,0.332H75.42c-0.077,0-0.116,0.039-0.116,0.116L75.306,114.423L75.306,114.423z M67.669,118.662
		c0.193-0.285,0.452-0.488,0.771-0.604c0.318-0.117,0.644-0.131,0.969-0.039c0.284,0.091,0.479,0.271,0.586,0.547
		c0.104,0.273,0.076,0.525-0.078,0.764c-0.703,1.041-1.53,2.004-2.479,2.892c-0.247,0.222-0.54,0.327-0.879,0.321
		c-0.34-0.008-0.639-0.121-0.896-0.342c-0.224-0.195-0.335-0.435-0.344-0.715c-0.007-0.279,0.103-0.511,0.322-0.691
		C66.419,120.153,67.096,119.443,67.669,118.662z M70.208,110.557c-0.078,0-0.117,0.039-0.117,0.116v3.75
		c0,0.078,0.039,0.117,0.117,0.117h2.654c0.078,0,0.117-0.039,0.117-0.117v-3.75c0-0.077-0.039-0.116-0.117-0.116H70.208z
		 M73.412,119.521c-0.185-0.208-0.254-0.449-0.217-0.723c0.039-0.274,0.185-0.479,0.432-0.605c0.271-0.156,0.567-0.212,0.89-0.166
		c0.319,0.047,0.589,0.18,0.813,0.4c0.74,0.781,1.397,1.574,1.973,2.383c0.195,0.261,0.258,0.55,0.187,0.869
		c-0.069,0.318-0.242,0.563-0.519,0.732c-0.273,0.168-0.565,0.215-0.879,0.137c-0.313-0.078-0.554-0.248-0.723-0.508
		c-0.234-0.354-0.51-0.729-0.82-1.133C74.167,120.414,73.79,119.951,73.412,119.521z"/>
	<polygon fill="#F8EB4D" points="76.941,76.841 53.281,52.099 53.281,27.623 76.941,3.962 	"/>
	<polygon fill="#F8EB4D" points="4.062,76.841 27.721,52.099 27.721,27.623 4.062,3.962 	"/>
	<g>
		<path fill="none" stroke="#000000" stroke-width="5" stroke-linecap="round" stroke-linejoin="round" stroke-miterlimit="10" d="
			M76.941,72.841c0,2.199-1.8,4-4,4H8.062c-2.2,0-4-1.801-4-4V7.962c0-2.2,1.8-4,4-4h64.879c2.2,0,4,1.8,4,4V72.841z"/>
	</g>
	<g>
		
			<rect x="27.721" y="27.623" fill="#FFFFFF" stroke="#000000" stroke-width="4" stroke-linecap="round" stroke-linejoin="round" stroke-miterlimit="10" width="25.562" height="25.56"/>
		
			<line fill="none" stroke="#000000" stroke-width="4" stroke-linecap="round" stroke-linejoin="round" stroke-miterlimit="10" x1="6.532" y1="6.433" x2="28.588" y2="28.488"/>
		
			<line fill="none" stroke="#000000" stroke-width="4" stroke-linecap="round" stroke-linejoin="round" stroke-miterlimit="10" x1="52.415" y1="28.488" x2="74.47" y2="6.433"/>
		
			<line fill="none" stroke="#000000" stroke-width="4" stroke-linecap="round" stroke-linejoin="round" stroke-miterlimit="10" x1="52.415" y1="52.315" x2="74.47" y2="74.371"/>
		
			<line fill="none" stroke="#000000" stroke-width="4" stroke-linecap="round" stroke-linejoin="round" stroke-miterlimit="10" x1="28.588" y1="52.315" x2="6.532" y2="74.371"/>
	</g>
	<g>
		<g>
			<circle cx="71.938" cy="66.178" r="1.087"/>
			<circle cx="67.863" cy="61.881" r="1.087"/>
			<circle cx="71.938" cy="61.881" r="1.087"/>
			<circle cx="63.785" cy="57.586" r="1.087"/>
			<circle cx="67.863" cy="57.586" r="1.087"/>
			<circle cx="71.938" cy="57.586" r="1.087"/>
			<circle cx="55.634" cy="53.289" r="1.087"/>
			<circle cx="59.71" cy="53.289" r="1.087"/>
			<circle cx="63.785" cy="53.289" r="1.087"/>
			<circle cx="67.863" cy="53.289" r="1.087"/>
			<circle cx="71.938" cy="53.289" r="1.087"/>
			<circle cx="55.634" cy="48.994" r="1.087"/>
			<circle cx="59.71" cy="48.994" r="1.087"/>
			<circle cx="63.785" cy="48.994" r="1.087"/>
			<circle cx="67.863" cy="48.994" r="1.087"/>
			<circle cx="71.938" cy="48.994" r="1.087"/>
			<circle cx="55.634" cy="44.697" r="1.087"/>
			<circle cx="59.71" cy="44.697" r="1.087"/>
			<circle cx="63.785" cy="44.697" r="1.087"/>
			<circle cx="67.863" cy="44.697" r="1.087"/>
			<circle cx="71.938" cy="44.697" r="1.087"/>
			<circle cx="55.634" cy="40.403" r="1.087"/>
			<circle cx="59.71" cy="40.403" r="1.087"/>
			<circle cx="63.785" cy="40.403" r="1.087"/>
			<circle cx="67.863" cy="40.403" r="1.087"/>
			<circle cx="71.938" cy="40.403" r="1.087"/>
			<circle cx="55.634" cy="36.106" r="1.087"/>
			<circle cx="59.71" cy="36.106" r="1.087"/>
			<circle cx="63.785" cy="36.106" r="1.087"/>
			<circle cx="67.863" cy="36.106" r="1.087"/>
			<circle cx="71.938" cy="36.106" r="1.087"/>
			<circle cx="55.634" cy="31.811" r="1.087"/>
			<circle cx="59.71" cy="31.811" r="1.087"/>
			<circle cx="63.785" cy="31.811" r="1.087"/>
			<circle cx="67.863" cy="31.811" r="1.087"/>
			<circle cx="71.938" cy="31.811" r="1.087"/>
			<circle cx="55.634" cy="27.514" r="1.087"/>
			<circle cx="59.71" cy="27.514" r="1.087"/>
			<circle cx="63.785" cy="27.514" r="1.087"/>
			<circle cx="67.863" cy="27.514" r="1.087"/>
			<circle cx="71.938" cy="27.514" r="1.087"/>
			<circle cx="63.785" cy="23.219" r="1.087"/>
			<circle cx="67.863" cy="23.219" r="1.087"/>
			<circle cx="71.938" cy="23.219" r="1.087"/>
			<circle cx="67.863" cy="18.922" r="1.087"/>
			<circle cx="71.938" cy="18.922" r="1.087"/>
			<circle cx="71.938" cy="14.627" r="1.087"/>
		</g>
		<g>
			<circle cx="9.066" cy="66.178" r="1.087"/>
			<circle cx="13.141" cy="61.881" r="1.087"/>
			<circle cx="9.066" cy="61.881" r="1.087"/>
			<circle cx="17.218" cy="57.586" r="1.087"/>
			<circle cx="13.141" cy="57.586" r="1.087"/>
			<circle cx="9.066" cy="57.586" r="1.087"/>
			<circle cx="25.369" cy="53.289" r="1.087"/>
			<circle cx="21.293" cy="53.289" r="1.087"/>
			<circle cx="17.218" cy="53.289" r="1.087"/>
			<circle cx="13.141" cy="53.289" r="1.087"/>
			<circle cx="9.066" cy="53.289" r="1.087"/>
			<circle cx="25.369" cy="48.994" r="1.087"/>
			<circle cx="21.293" cy="48.994" r="1.087"/>
			<circle cx="17.218" cy="48.994" r="1.087"/>
			<circle cx="13.141" cy="48.994" r="1.087"/>
			<circle cx="9.066" cy="48.994" r="1.087"/>
			<circle cx="25.369" cy="44.697" r="1.087"/>
			<circle cx="21.293" cy="44.697" r="1.087"/>
			<circle cx="17.218" cy="44.697" r="1.087"/>
			<circle cx="13.141" cy="44.697" r="1.087"/>
			<circle cx="9.066" cy="44.697" r="1.087"/>
			<circle cx="25.369" cy="40.403" r="1.087"/>
			<circle cx="21.293" cy="40.403" r="1.087"/>
			<circle cx="17.218" cy="40.403" r="1.087"/>
			<circle cx="13.141" cy="40.403" r="1.087"/>
			<circle cx="9.066" cy="40.403" r="1.087"/>
			<circle cx="25.369" cy="36.106" r="1.087"/>
			<circle cx="21.293" cy="36.106" r="1.087"/>
			<circle cx="17.218" cy="36.106" r="1.087"/>
			<circle cx="13.141" cy="36.106" r="1.087"/>
			<circle cx="9.066" cy="36.106" r="1.087"/>
			<circle cx="25.369" cy="31.811" r="1.087"/>
			<circle cx="21.293" cy="31.811" r="1.087"/>
			<circle cx="17.218" cy="31.811" r="1.087"/>
			<circle cx="13.141" cy="31.811" r="1.087"/>
			<circle cx="9.066" cy="31.811" r="1.087"/>
			<circle cx="25.369" cy="27.514" r="1.087"/>
			<circle cx="21.293" cy="27.514" r="1.087"/>
			<circle cx="17.218" cy="27.514" r="1.087"/>
			<circle cx="13.141" cy="27.514" r="1.087"/>
			<circle cx="9.066" cy="27.514" r="1.087"/>
			<circle cx="17.218" cy="23.219" r="1.087"/>
			<circle cx="13.141" cy="23.219" r="1.087"/>
			<circle cx="9.066" cy="23.219" r="1.087"/>
			<circle cx="13.141" cy="18.922" r="1.087"/>
			<circle cx="9.066" cy="18.922" r="1.087"/>
			<circle cx="9.066" cy="14.627" r="1.087"/>
		</g>
	</g>
</g>
</svg>
