<svg version="1.1" xmlns="http://www.w3.org/2000/svg" xmlns:xlink="http://www.w3.org/1999/xlink" x="0px" y="0px"
	 width="119.105px" height="43.98px" viewBox="0 0 119.105 43.98" enable-background="new 0 0 119.105 43.98" xml:space="preserve">
<path d="M65.93,26.879v-0.682h-7.455v0.682h-2.119l0.017-11.871h11.669l0.015,11.871H65.93z M58.475,19.645h2.629v-2.711h-2.629
	V19.645z M58.475,24.332h2.629v-2.811h-2.629V24.332z M63.133,19.645h2.783v-2.711h-2.783V19.645z M63.133,24.332h2.783v-2.811
	h-2.783V24.332z"/>
<path d="M78.699,26.879v-0.682h-7.452v0.682h-2.118l0.008-11.871H80.81l0.015,11.871H78.699z M71.247,19.645h2.63v-2.711h-2.63
	V19.645z M71.247,24.332h2.63v-2.811h-2.63V24.332z M75.899,19.645h2.78v-2.711h-2.78V19.645z M75.899,24.332h2.78v-2.811h-2.78
	V24.332z"/>
<g>
	<path d="M81.85,26.837l0.015-11.829h11.606l0.014,11.829h-1.999v-0.571h-7.646v0.571H81.85z M83.839,16.604v1.363
		c0.611-0.439,0.935-0.755,1.31-1.363H83.839z M83.839,21.408c0.489-0.296,0.82-0.539,1.167-0.885h-0.106
		c-0.33,0-0.548,0.008-0.804,0.055v-1.33c0.139,0.023,0.191,0.023,0.398,0.039c-0.114-0.325-0.282-0.55-0.655-0.949V21.408z
		 M91.473,21.921c-0.297,0.353-0.411,0.532-0.631,0.892c-0.574-0.409-0.886-0.664-1.291-1.104c-0.044,1.158-0.247,1.309-1.674,1.309
		c-0.098,0-0.199,0-0.407-0.013c-0.052-0.388-0.09-0.535-0.22-0.856c0.179,0.025,0.373,0.037,0.486,0.037
		c0.348,0,0.412-0.055,0.412-0.361h-1.372v1.102c0,0.176,0.015,0.229,0.064,0.283c0.101,0.09,0.384,0.123,1.092,0.123
		c1.281,0,1.437-0.071,1.475-0.693c0.501,0.24,0.948,0.352,1.576,0.418c-0.163,1.189-0.513,1.355-2.859,1.355
		c-0.794,0-1.772-0.043-2.081-0.082c-0.639-0.084-0.848-0.332-0.848-1.007v-0.892c-0.268,0.215-0.394,0.314-0.769,0.559
		c-0.23-0.373-0.331-0.521-0.588-0.816v2.518h7.634V21.921z M85.941,19.296c0.102-0.177,0.144-0.255,0.247-0.458h-1.092
		c-0.169,0.152-0.219,0.192-0.541,0.449c0.179,0.009,0.246,0.009,0.384,0.009H85.941z M85.482,16.604l0.859,0.52
		c-0.13,0.268-0.196,0.383-0.299,0.549h0.545c0.085-0.438,0.112-0.626,0.112-0.855l1.706,0.09c-0.044,0.125-0.044,0.125-0.113,0.472
		c-0.043,0.128-0.043,0.169-0.078,0.294h0.937c-0.131-0.178-0.191-0.281-0.346-0.549l0.833-0.52H85.482z M88.562,20.919h0.316
		c-0.099-0.153-0.141-0.202-0.268-0.396h-1.653c-0.104,0.156-0.143,0.217-0.271,0.396H88.562z M87.678,18.838
		c-0.094,0.203-0.118,0.25-0.208,0.458h0.707c-0.067-0.14-0.093-0.208-0.179-0.458H87.678z M89.315,18.838
		c0.092,0.203,0.128,0.281,0.216,0.458h1.145c-0.295-0.255-0.373-0.319-0.511-0.458H89.97H89.315z M91.473,16.604h-1.488
		c0.461,0.586,0.87,0.955,1.488,1.363V16.604z M91.473,18.352c-0.297,0.279-0.463,0.498-0.734,0.944
		c0.223-0.009,0.281-0.024,0.479-0.048v1.33c-0.274-0.047-0.409-0.055-0.822-0.055c0.315,0.332,0.645,0.576,1.078,0.832V18.352z"/>
	<path d="M66.343,32.65c-0.318,1.221-0.52,1.755-0.965,2.598c-0.445,0.826-0.914,1.496-1.545,2.211
		c1.459,0.979,2.78,1.487,4.879,1.9c-0.563,0.712-0.834,1.217-1.183,2.115c-2.327-0.732-3.688-1.418-5.241-2.609
		c-1.509,1.152-2.991,1.877-5.394,2.625c-0.3-0.775-0.58-1.297-1.133-2.008c2.331-0.561,3.7-1.125,4.995-2.023
		c-0.707-0.762-1.228-1.502-1.699-2.347c-0.443-0.804-0.646-1.241-1.034-2.462h-2.061v-1.979h5.008c0,0,0.05-1.441,0-1.723h2.242
		c-0.052,0.281,0,1.723,0,1.723h5.218v1.979H66.343z M60.202,32.65c0.282,0.867,0.467,1.281,0.9,1.992
		c0.373,0.629,0.701,1.051,1.13,1.504c0.428-0.471,0.75-0.927,1.062-1.486c0.373-0.66,0.512-0.994,0.805-2.01H60.202z"/>
	<path d="M70.901,39.227c-0.315,0.947-0.529,1.452-0.982,2.211c-0.538-0.805-0.874-1.189-1.493-1.716
		c0.872-1.407,1.156-2.772,1.156-5.747c0-0.457-0.014-0.763-0.028-1.071c-0.093,0.04-0.119,0.066-0.237,0.12
		c-0.257-0.763-0.4-1.074-0.869-1.799c1.509-0.678,2.531-1.414,3.245-2.287h2.057c0.647,0.643,1.497,1.182,2.594,1.647
		c-0.008-0.286-0.021-0.414-0.055-0.655h2.048c-0.04,0.348-0.055,0.683-0.055,1.326v5.586c0,0.723,0,0.979,0.055,1.338h-2.048
		c0.055-0.358,0.071-0.695,0.071-1.35v-5.562c-0.217,0.375-0.366,0.682-0.576,1.179c-0.444-0.237-0.618-0.331-0.967-0.561v0.497
		c-0.285-0.016-0.487-0.027-0.772-0.027h-2.243c-0.441,0-0.553,0-0.792,0.027v-0.418c-0.376,0.268-0.673,0.481-1.106,0.738
		c0.446,0.012,0.501,0.012,0.957,0.012h3.777c0.538,0,0.751-0.012,1.089-0.043c-0.024,0.312-0.041,0.608-0.041,1.01v2.477
		c0,0.471,0,0.721,0.041,1.018c-0.387-0.022-0.561-0.022-0.87-0.022H71.33c-0.028,0.185-0.037,0.252-0.054,0.372h0.297h3.47
		c0.36,0,0.578-0.018,0.898-0.029c-0.023,0.311-0.023,0.564-0.023,0.951v1.785c0,0.49,0.007,0.734,0.054,1.041h-1.94v-0.359h-1.317
		v0.537h-1.879c0.052-0.32,0.066-0.563,0.066-1.046V39.227z M71.473,35.447c-0.011,0.191-0.011,0.229-0.021,0.428h2.326v-0.428
		H71.473z M73.778,33.99h-2.274v0.415h2.274V33.99z M73.614,31.052c-0.337-0.25-0.467-0.37-0.791-0.707
		c-0.312,0.347-0.445,0.481-0.697,0.707H73.614z M72.729,39.52h1.303v-0.614h-1.303V39.52z M80.998,28.949
		c-0.062,0.377-0.08,0.74-0.08,1.624v8.866c0,1.527-0.471,1.905-2.383,1.905c-0.211,0-0.227,0-1.315-0.041
		c-0.094-0.814-0.187-1.232-0.48-1.972c0.571,0.082,1.15,0.121,1.557,0.121c0.509,0,0.635-0.078,0.635-0.401v-8.398
		c0-0.857-0.029-1.248-0.086-1.704H80.998z"/>
</g>
<polygon points="82.149,31.832 82.149,29.701 93.34,29.701 93.34,31.832 88.741,31.832 88.741,38.416 93.968,38.416 93.968,40.587 
	81.492,40.587 81.492,38.416 86.534,38.416 86.534,31.832 "/>
<g>
	<path d="M100.312,32.987c-0.634,1.12-1.196,1.884-1.963,2.728c-0.389-0.75-0.633-1.123-1.184-1.805v5.786
		c0,0.651,0.029,1.149,0.084,1.702H95.07c0.054-0.495,0.078-0.955,0.078-1.691v-3.176v-0.478c0.012-0.441,0.012-0.441,0.025-0.911
		c-0.311,0.388-0.577,0.694-0.925,1.029c-0.228-1.058-0.432-1.623-0.833-2.439c0.901-0.736,1.696-1.9,2.324-3.404
		c0.282-0.652,0.454-1.214,0.52-1.713l2.104,0.646c-0.122,0.291-0.147,0.356-0.287,0.765c-0.267,0.773-0.466,1.258-0.912,2.153
		v1.579c0.781-0.771,1.305-1.525,1.787-2.533c0.499-1.016,0.82-1.941,0.916-2.541l2.149,0.48c-0.129,0.349-0.186,0.48-0.279,0.739
		c-0.14,0.386-0.173,0.479-0.271,0.711h3.055c0.792,0,1.313-0.029,1.705-0.083v1.994c-0.43-0.051-1.049-0.078-1.693-0.078h-2.179
		v1.249h1.899c0.628,0,1.033-0.017,1.465-0.071v1.96c-0.5-0.041-0.968-0.069-1.494-0.069h-1.87v1.245h1.884
		c0.632,0,1.022-0.017,1.496-0.063v1.967c-0.541-0.052-0.955-0.066-1.496-0.066h-1.884v1.03c0,0.959,0.028,1.448,0.084,1.823h-2.207
		c0.054-0.43,0.08-0.897,0.08-1.811V32.987z"/>
	<path d="M108.079,31.566v-0.619H107.7c-0.333,0-0.602,0.015-0.887,0.042v-1.81c0.406,0.037,0.781,0.066,1.224,0.066h3.299
		c0.551,0,0.846-0.016,1.193-0.055c-0.026,0.232-0.038,0.459-0.038,0.842v1.521c0.251-0.019,0.251-0.019,0.404-0.028v1.729
		c-0.166-0.016-0.216-0.033-0.404-0.033v1.464c0,0.373,0.012,0.604,0.038,0.832c-0.375-0.03-0.685-0.041-1.074-0.041h-1.99
		c-0.056,0.199-0.065,0.236-0.162,0.526h2.514c0.442,0,0.555,0,0.796-0.031c-0.025,0.212-0.025,0.376-0.025,0.858v3.091
		c0,0.511,0.014,0.864,0.052,1.263h-1.978v-0.388h-0.98v0.597h-1.966c0.041-0.453,0.056-0.65,0.056-0.961v-0.921
		c0-0.271,0-0.392,0.011-0.538c-0.253,0.359-0.389,0.538-0.806,1.004c-0.267-0.989-0.451-1.487-0.806-2.186
		c0.659-0.736,1.065-1.403,1.384-2.314c-0.44,0.011-0.507,0.011-0.75,0.041v-1.716c0.278,0.022,0.47,0.043,0.874,0.043h0.252
		c0.042-0.22,0.059-0.378,0.082-0.633h-0.282c-0.701,0-0.942,0.01-1.343,0.052v-1.753c0.4,0.043,0.642,0.056,1.343,0.056H108.079z
		 M109.681,38.973h0.98v-1.229h-0.98V38.973z M109.879,33.212c-0.022,0.308-0.039,0.375-0.063,0.633h0.927v-0.633H109.879z
		 M110.742,31.566v-0.619h-0.766l-0.017,0.619H110.742z M116.913,34.096h0.699c0.631,0,0.875-0.014,1.105-0.057v1.964
		c-0.311-0.048-0.649-0.056-1.119-0.056h-0.686v0.977h0.973c0.508,0,0.842-0.014,1.22-0.068v2.08
		c-0.378-0.061-0.688-0.084-1.151-0.084h-1.041v1.1c0,0.615,0.026,1.045,0.083,1.5h-2.21c0.054-0.42,0.072-0.832,0.072-1.5v-1.1
		h-1.118c-0.364,0-0.577,0.014-0.845,0.067v-2.05c0.256,0.041,0.507,0.055,0.901,0.055h1.062v-0.977h-0.729
		c-0.414,0-0.616,0.008-0.928,0.056v-1.964c0.325,0.043,0.475,0.057,0.902,0.057h0.755v-0.874h-0.605
		c-0.513,0-0.712,0.018-1.065,0.056v-2.01c0.256,0.028,0.31,0.028,0.609,0.041c-0.232-0.655-0.446-1.097-0.913-1.982l1.918-0.643
		c0.428,0.842,0.635,1.314,0.93,2.1l-1.522,0.525h1.576c0.416-0.871,0.709-1.68,0.981-2.635l1.987,0.625
		c-0.369,0.898-0.694,1.579-0.928,2.01c0.559,0,0.839-0.013,1.172-0.069v2.038c-0.322-0.038-0.604-0.056-1.044-0.056h-1.041V34.096z
		"/>
</g>
<path d="M23.949,33.734h6.581v6.506h-6.581V33.734z M33.866,33.734h6.529v6.506h-6.529V33.734z M3.758,23.862h16.439v16.38H3.758
	V23.862z M23.949,23.862h6.581v6.554h-6.581V23.862z M33.866,23.862h6.529v6.554h-6.529V23.862z M3.758,3.734h16.439v16.385H3.758
	V3.734z M23.949,3.734h16.446v16.385H23.949V3.734z M0,43.98h44.147V0H0V43.98z"/>
</svg>
