<svg version="1.1" xmlns="http://www.w3.org/2000/svg" xmlns:xlink="http://www.w3.org/1999/xlink" x="0px" y="0px"
	 width="614.629px" height="89.909px" viewBox="0 0 614.629 89.909" enable-background="new 0 0 614.629 89.909"
	 xml:space="preserve">
<path d="M31.076,7.265c0.874-2.62-0.542-5.451-3.161-6.325c-2.62-0.874-5.452,0.542-6.325,3.162
	C17.434,16.565,8.533,28.836,1.556,35.467c-2.002,1.902-2.082,5.067-0.18,7.069c0.982,1.035,2.303,1.556,3.625,1.556
	c1.236,0,2.477-0.457,3.443-1.375c1.49-1.416,3.059-3.062,4.653-4.894v43.856c0,2.762,2.238,5,5,5s5-2.238,5-5V26.152
	c0-0.565-0.114-1.099-0.287-1.605C26.141,19.135,29.089,13.224,31.076,7.265z M44.203,42.184c-2.717-0.483-5.313,1.333-5.795,4.052
	c-1.293,7.309-5.32,15.081-8.514,19.208c-1.69,2.184-1.29,5.324,0.895,7.014c0.91,0.705,1.987,1.046,3.056,1.046
	c1.495,0,2.973-0.667,3.958-1.94c3.755-4.853,8.746-13.941,10.453-23.584C48.736,45.259,46.923,42.665,44.203,42.184z
	 M87.578,67.846c-0.807-6.08-3.756-16.02-9.411-24.021c-1.595-2.255-4.716-2.79-6.969-1.197c-2.255,1.594-2.791,4.713-1.197,6.969
	c4.287,6.064,6.978,14.393,7.663,19.562c0.334,2.515,2.481,4.344,4.951,4.344c0.219,0,0.44-0.015,0.663-0.045
	C86.016,73.096,87.94,70.583,87.578,67.846z M74.615,32.169c-0.575,2.701,1.148,5.356,3.849,5.932
	c0.352,0.075,0.702,0.111,1.047,0.111c2.31,0,4.385-1.61,4.886-3.959L87.453,19.9c0.314-1.476-0.055-3.015-1.004-4.188
	s-2.378-1.854-3.887-1.854H49.501c0.802-2.373,1.479-4.782,1.967-7.181c0.549-2.706-1.199-5.345-3.905-5.895
	c-2.707-0.55-5.346,1.198-5.896,3.905c-1.951,9.607-7.528,19.74-11.884,25.089c-1.744,2.142-1.422,5.291,0.72,7.034
	c0.928,0.756,2.045,1.123,3.154,1.123c1.452,0,2.892-0.629,3.88-1.843c2.524-3.099,5.291-7.379,7.746-12.233h8.753v52.584h-3.94
	c-2.762,0-5,2.239-5,5s2.238,5,5,5h8.94c2.762,0,5-2.239,5-5V23.859h12.35L74.615,32.169z"/>
<g>
	<path d="M226.641,4.763c-2.588-0.958-5.463,0.362-6.426,2.946c-0.016,0.043-0.282,0.737-0.804,1.914h-11.148V7.096
		c0-2.761-2.238-5-5-5s-5,2.239-5,5v2.527h-7.47c-2.762,0-5,2.239-5,5s2.238,5,5,5h7.47v6.94h-10.998c-2.762,0-5,2.239-5,5
		s2.238,5,5,5h13.664c-5.108,5.143-11.318,10.057-18.752,13.834c-2.462,1.251-3.443,4.261-2.193,6.722
		c0.883,1.736,2.64,2.736,4.462,2.736c0.762,0,1.535-0.174,2.261-0.543c0.489-0.248,0.959-0.512,1.438-0.768v22.427
		c0,2.761,2.238,5,5,5h26.821c2.762,0,5-2.239,5-5V49.916c0-2.761-2.238-5-5-5h-13.209c2.854-2.751,5.406-5.569,7.677-8.352h7.887
		c2.762,0,5-2.239,5-5s-2.238-5-5-5h-0.677c5.293-8.351,7.733-14.799,7.949-15.384C230.549,8.591,229.227,5.722,226.641,4.763z
		 M198.145,75.972v-5.54h16.821v5.54H198.145z M214.966,60.456h-16.821v-5.54h16.821V60.456z M208.263,26.563v-6.94h5.855
		c-1.32,2.166-2.87,4.511-4.656,6.94H208.263z"/>
	<path d="M265.352,50.983c-2.134-5.689-5.704-12.485-7.58-15.922l8.896-20.395c0.674-1.545,0.523-3.327-0.4-4.738
		c-0.924-1.411-2.496-2.261-4.183-2.261h-24.943c-2.762,0-5,2.239-5,5v70.187c0,2.762,2.238,5,5,5s5-2.238,5-5V17.667h12.307
		l-6.832,15.662c-0.632,1.448-0.542,3.109,0.242,4.48c0.055,0.096,5.479,9.614,8.13,16.684c1.526,4.071,1.529,8.82,0.006,10.812
		c-0.304,0.398-1.228,1.61-4.735,1.278c-2.762-0.267-5.188,1.759-5.447,4.509c-0.26,2.749,1.759,5.188,4.508,5.447
		c7.465,0.706,11.521-2.417,13.617-5.158C268.427,65.512,267.505,56.725,265.352,50.983z"/>
</g>
<g>
	<path d="M175.604,64.611c-2.667-0.706-5.405,0.883-6.113,3.552c-0.897,3.387-2.646,7.295-3.853,8.764
		c-1.385-0.812-4.289-3.558-7.403-12.713c4.036-4.135,7.807-8.707,10.844-13.496c1.479-2.331,0.788-5.421-1.543-6.9
		c-2.333-1.479-5.422-0.788-6.9,1.544c-1.63,2.569-3.507,5.063-5.522,7.449c-0.709-3.176-1.408-6.753-2.079-10.808
		c-0.275-1.662-0.531-3.322-0.771-4.968h18.53c2.762,0,5-2.239,5-5s-2.238-5-5-5h-19.817c-1.336-11.808-1.768-20.982-1.774-21.109
		c-0.127-2.759-2.494-4.89-5.223-4.767c-2.759,0.126-4.893,2.464-4.768,5.222c0.023,0.518,0.432,9.198,1.696,20.654h-20.876v-12.68
		c4.762-1.274,7.952-2.407,8.214-2.5c2.599-0.932,3.949-3.792,3.019-6.392s-3.79-3.952-6.392-3.022
		c-0.119,0.042-12.06,4.273-24.177,5.375c-2.75,0.25-4.776,2.682-4.526,5.432c0.236,2.596,2.417,4.548,4.974,4.548
		c0.151,0,0.305-0.007,0.459-0.021c2.882-0.262,5.729-0.676,8.43-1.166v10.426H98.798c-2.762,0-5,2.239-5,5s2.238,5,5,5h11.235
		v14.042l-12.13,3.439c-2.656,0.754-4.199,3.518-3.446,6.175c0.624,2.2,2.628,3.638,4.808,3.638c0.452,0,0.911-0.062,1.367-0.191
		l9.401-2.666v14.972h-3.942c-2.762,0-5,2.239-5,5s2.238,5,5,5h8.942c2.762,0,5-2.239,5-5V58.635l12.127-3.439
		c2.656-0.753,4.199-3.518,3.446-6.174c-0.754-2.658-3.521-4.2-6.175-3.447l-9.398,2.666V37.034h22.128
		c0.302,2.145,0.632,4.326,0.994,6.519c1.11,6.724,2.351,12.622,3.734,17.739c-4.805,4.35-9.743,7.928-13.904,10.29
		c-2.401,1.363-3.243,4.416-1.879,6.817c0.921,1.622,2.611,2.532,4.353,2.532c0.837,0,1.685-0.211,2.464-0.654
		c3.734-2.12,8.027-5.114,12.357-8.722c3.777,9.252,8.404,14.292,14.072,15.485c0.446,0.094,0.991,0.166,1.61,0.166
		c3.523,0,9.45-2.352,13.194-16.482C179.863,68.055,178.273,65.318,175.604,64.611z"/>
	<circle cx="164.055" cy="12.479" r="7.731"/>
</g>
<g>
	<path d="M319.122,60.431V34.549c0-3.005-2.437-5.441-5.441-5.441h-28.236c-3.005,0-5.441,2.437-5.441,5.441v25.882
		c0,3.005,2.437,5.441,5.441,5.441h28.236C316.686,65.873,319.122,63.436,319.122,60.431z M308.239,54.99h-17.354v-15h17.354V54.99z
		"/>
	<path d="M349.208,7h-71.76c-3.13,0-5.668,2.538-5.668,5.668s2.538,5.668,5.668,5.668h55.736v57.28
		c-2.798,0.105-8.445-0.336-14.83-0.834c-3.114-0.251-5.811,2.09-6.055,5.212c-0.243,3.121,2.126,5.852,5.247,6.095
		c6.516,0.51,11.138,0.87,14.584,0.87c4.841,0,7.362-0.712,9.542-2.729c2.553-2.36,2.848-5.448,2.848-7.565V18.335h4.688
		c3.13,0,5.668-2.538,5.668-5.668S352.338,7,349.208,7z"/>
</g>
<g>
	<path d="M523.857,56.402h-2.871V13.137c0-3.005-2.437-5.441-5.441-5.441h-9.214c-3.005,0-5.441,2.437-5.441,5.441
		s2.437,5.441,5.441,5.441h3.772v6.78h-6.794c-2.596,0-4.7,2.104-4.7,4.7s2.104,4.7,4.7,4.7h6.794v6.745h-6.794
		c-2.596,0-4.7,2.104-4.7,4.7s2.104,4.7,4.7,4.7h6.794v5.497h-14.641V30.059c0-2.596-2.104-4.7-4.7-4.7h-9.417v-7.521h8.318
		c2.596,0,4.7-2.104,4.7-4.7s-2.104-4.7-4.7-4.7h-8.318V7.146c0-2.596-2.104-4.7-4.7-4.7s-4.7,2.104-4.7,4.7v22.913
		c0,2.596,2.104,4.7,4.7,4.7h9.417v21.643h-4.717V44.275c0-2.596-2.104-4.7-4.7-4.7s-4.7,2.104-4.7,4.7v12.127h-14.643v-5.497h6.795
		c2.596,0,4.7-2.104,4.7-4.7s-2.104-4.7-4.7-4.7h-6.795v-6.745h6.795c2.596,0,4.7-2.104,4.7-4.7s-2.104-4.7-4.7-4.7h-6.795v-5.264
		l9.079-9.107c2.122-2.128,2.116-5.574-0.012-7.695c-2.13-2.122-5.573-2.116-7.695,0.012l-10.667,10.7
		c-1.017,1.02-1.588,2.401-1.588,3.842v38.556h-2.871c-3.005,0-5.441,2.437-5.441,5.441s2.437,5.441,5.441,5.441h46.041
		c0.186,0.69,0.507,1.354,0.999,1.937c4.74,5.602,17.613,14.477,26.489,17.097c0.473,0.14,0.949,0.206,1.418,0.206
		c2.159,0,4.151-1.41,4.794-3.586c0.781-2.648-0.731-5.43-3.38-6.211c-4.666-1.377-11.655-5.572-16.676-9.442h20.623
		c3.005,0,5.441-2.437,5.441-5.441S526.862,56.402,523.857,56.402z"/>
	<path d="M461.881,68.77c-5.126,3.995-10.067,6.821-13.914,7.957c-2.648,0.781-4.162,3.562-3.381,6.211
		c0.643,2.176,2.635,3.586,4.794,3.586c0.469,0,0.945-0.066,1.417-0.206c6.437-1.899,12.924-6.303,17.232-9.661
		c2.178-1.698,2.566-4.84,0.869-7.018C467.201,67.462,464.06,67.072,461.881,68.77z"/>
</g>
<g>
	<path d="M563.073,18.146h-15.887l3.598-9.174c1.008-2.571-0.259-5.472-2.83-6.48c-2.57-1.009-5.473,0.258-6.48,2.83l-6.273,16
		c-0.345,0.969-0.345,1.625-0.345,2.469V72.09c0,2.761,2.238,5,5,5h23.218c2.762,0,5-2.239,5-5V23.146
		C568.073,20.384,565.835,18.146,563.073,18.146z M558.073,67.09h-13.218V52.618h13.218V67.09z M558.073,42.618h-13.218V28.146
		h13.218V42.618z"/>
	<path d="M613.169,19.615c-0.938-0.94-2.212-1.469-3.54-1.469h-24.825l3.598-9.174c1.008-2.571-0.259-5.472-2.83-6.48
		c-2.57-1.009-5.472,0.258-6.48,2.83l-6.273,16c-0.111,0.284-0.187,0.575-0.243,0.869c-0.013,0.062-0.026,0.123-0.036,0.185
		c-0.043,0.277-0.063,0.555-0.061,0.833c0.001,0.062,0.007,0.124,0.01,0.187c0.013,0.256,0.043,0.51,0.095,0.761
		c0.008,0.035,0.011,0.071,0.019,0.106c0.062,0.272,0.153,0.538,0.261,0.797c0.024,0.059,0.05,0.117,0.077,0.175
		c0.115,0.251,0.245,0.498,0.403,0.73c0.003,0.003,0.006,0.007,0.008,0.01c0.013,0.018,0.027,0.033,0.04,0.051
		c0.154,0.219,0.327,0.42,0.512,0.608c0.048,0.049,0.095,0.099,0.146,0.146c0.204,0.192,0.421,0.367,0.653,0.522
		c0.045,0.03,0.094,0.057,0.14,0.085c0.246,0.152,0.502,0.287,0.771,0.395c0.014,0.005,0.024,0.014,0.037,0.019
		c0.004,0.002,0.009,0.002,0.013,0.004c0.257,0.1,0.523,0.172,0.795,0.229c0.071,0.015,0.142,0.028,0.213,0.04
		c0.248,0.041,0.5,0.068,0.755,0.07c0.017,0,0.032,0.004,0.049,0.004c0.007,0,0.013-0.001,0.02-0.001h27.124
		c-0.021,8.624-0.063,26.402-0.063,37.444c0,5.538-1.884,7.069-2.503,7.571c-1.976,1.605-6.732,3.014-18.19,0.615
		c-2.701-0.562-5.353,1.167-5.918,3.87c-0.566,2.702,1.166,5.353,3.869,5.919c4.764,0.997,8.931,1.499,12.567,1.499
		c6.007-0.001,10.566-1.37,13.977-4.142c4.113-3.34,6.198-8.499,6.198-15.333c0-14.996,0.077-42.429,0.077-42.43
		C614.633,21.831,614.107,20.556,613.169,19.615z"/>
	<circle cx="586.604" cy="51.02" r="10.084"/>
</g>
<path d="M433.084,48.274c-5.081-0.922-12.701-4.156-19.557-7.925h17.226c0.081,0,0.157-0.02,0.237-0.024
	c0.079,0.004,0.157,0.024,0.236,0.024c1.085,0,2.172-0.39,3.035-1.179c1.835-1.677,1.962-4.523,0.285-6.357l-7.016-7.673
	c-1.678-1.835-4.524-1.96-6.357-0.284c-1.835,1.677-1.962,4.523-0.285,6.357l0.125,0.136H411.5l9.528-9.741
	c0.028-0.029,0.047-0.064,0.075-0.094c1.167-0.484,2.137-1.393,2.666-2.593c0.799-1.813,0.452-3.927-0.885-5.39l-7.528-8.236
	c-1.863-2.039-5.026-2.18-7.063-0.317c-1.993,1.822-2.173,4.886-0.438,6.927h-24.211l1.596-1.661
	c0.502-0.523,0.989-1.03,1.427-1.537c0.229-0.265,0.445-0.529,0.643-0.796c0.03-0.041,0.05-0.085,0.068-0.13
	c1.353-1.935,1.172-4.612-0.558-6.335c-1.939-1.931-5.074-1.926-7.006,0.011c-0.264,0.276-11.511,11.985-11.511,11.985
	c-1.388,1.445-1.779,3.58-0.993,5.423c0.283,0.665,0.703,1.242,1.214,1.712l-11.861,12.125c-1.267,1.295-1.634,3.223-0.931,4.892
	c0.702,1.669,2.336,2.755,4.147,2.755h17.699c-6.855,3.769-14.475,7.003-19.557,7.925c-2.554,0.464-4.249,2.91-3.786,5.464
	c0.464,2.554,2.912,4.247,5.464,3.786c9.634-1.748,26.751-10.051,35.854-17.88c9.103,7.83,26.221,16.132,35.854,17.88
	c0.284,0.051,0.565,0.076,0.845,0.076c2.228,0,4.207-1.592,4.619-3.862C437.333,51.184,435.638,48.738,433.084,48.274z
	 M399.654,30.589c-0.171-0.186-0.334-0.369-0.482-0.549c-0.893-1.078-2.22-1.702-3.619-1.702s-2.727,0.624-3.619,1.702
	c-0.128,0.154-0.271,0.313-0.415,0.472l-4.911-5.372c-1.678-1.836-4.524-1.961-6.357-0.285c-1.835,1.677-1.962,4.523-0.285,6.357
	l0.125,0.137h-9.514l9.24-9.445h28.333L399.654,30.589z M417.354,61.022c-10.617,8.78-32.787,17.197-46.832,19.551
	c-2.561,0.429-4.288,2.852-3.859,5.412c0.385,2.297,2.376,3.924,4.63,3.924c0.258,0,0.52-0.021,0.782-0.065
	c15.185-2.544,39.104-11.517,51.27-21.577c2-1.654,2.281-4.617,0.627-6.617C422.318,59.649,419.355,59.369,417.354,61.022z
	 M369.532,73.001c0.442,2.239,2.407,3.788,4.605,3.788c0.302,0,0.609-0.029,0.917-0.09c10.619-2.102,28.682-10.485,35.472-15.621
	c2.07-1.566,2.479-4.514,0.914-6.584c-1.567-2.07-4.515-2.479-6.584-0.913c-5.847,4.422-22.553,12.103-31.626,13.897
	C370.684,67.983,369.028,70.456,369.532,73.001z M377.47,63.043c0.303,0,0.61-0.029,0.919-0.091
	c4.57-0.905,17.194-6.291,21.277-9.378c2.07-1.565,2.479-4.514,0.914-6.584c-1.565-2.071-4.514-2.479-6.584-0.914
	c-2.877,2.176-14.195,7.014-17.436,7.655c-2.546,0.505-4.201,2.978-3.696,5.524C373.308,61.494,375.271,63.043,377.47,63.043z"/>
</svg>
