<svg version="1.1" xmlns="http://www.w3.org/2000/svg" xmlns:xlink="http://www.w3.org/1999/xlink" x="0px" y="0px"
	 width="255.727px" height="44.48px" viewBox="6.807 0.412 255.727 44.48" enable-background="new 6.807 0.412 255.727 44.48"
	 xml:space="preserve">
<g>
	<path d="M18.906,41.181c-4.205,0-7.885-1.16-11.039-3.479c-0.619-0.465-0.967-1.082-1.043-1.855
		c-0.078-0.773,0.115-1.469,0.579-2.088c0.433-0.586,1.021-0.918,1.763-0.996s1.422,0.1,2.041,0.533
		c2.134,1.453,4.421,2.18,6.864,2.18c2.103,0,3.834-0.564,5.195-1.693c1.359-1.127,2.04-2.713,2.04-4.754
		c0-1.979-0.672-3.531-2.018-4.66c-1.345-1.129-3.054-1.693-5.125-1.693c-1.855,0-3.571,0.355-5.148,1.066
		c-1.206,0.525-2.304,0.48-3.293-0.139c-1.052-0.65-1.547-1.607-1.484-2.877L8.934,8.529c0.062-0.928,0.417-1.701,1.066-2.32
		c0.649-0.617,1.438-0.928,2.365-0.928h15.538c0.835,0,1.538,0.287,2.11,0.859s0.858,1.268,0.858,2.086
		c0,0.82-0.286,1.516-0.858,2.088s-1.275,0.857-2.11,0.857H15.427c-0.186,0-0.294,0.094-0.325,0.279L14.5,18.5
		c0,0.062,0.03,0.109,0.093,0.141c0.062,0.031,0.123,0.031,0.186,0c1.607-0.68,3.401-1.021,5.38-1.021
		c3.433,0,6.309,0.959,8.627,2.877c2.319,1.916,3.479,4.715,3.479,8.395c0,3.834-1.284,6.842-3.851,9.021
		S22.678,41.181,18.906,41.181z"/>
	<path d="M75.283,20.867c0.896,0,1.661,0.316,2.296,0.949c0.633,0.635,0.95,1.4,0.95,2.297v4.869c0,1.207-0.154,2.127-0.463,2.76
		c-0.31,0.635-0.882,1.121-1.717,1.461c-1.206,0.465-3.216,0.713-6.029,0.742c-0.031,0-0.047,0.018-0.047,0.047
		c0,0.031,0.016,0.062,0.047,0.094c2.938,1.484,6.091,2.643,9.462,3.479c0.649,0.154,1.082,0.549,1.299,1.182
		c0.216,0.635,0.123,1.23-0.278,1.787c-0.526,0.74-1.206,1.281-2.041,1.623c-0.835,0.34-1.654,0.371-2.458,0.092
		c-4.484-1.484-8.565-3.693-12.245-6.633c-0.031-0.029-0.077-0.037-0.139-0.023c-0.062,0.018-0.093,0.055-0.093,0.117v5.982
		c0,0.865-0.295,1.592-0.882,2.18c-0.588,0.588-1.307,0.883-2.156,0.883c-0.852,0-1.57-0.295-2.157-0.883
		c-0.588-0.588-0.881-1.314-0.881-2.18V35.57c0-0.031-0.023-0.062-0.069-0.094c-0.047-0.031-0.102-0.031-0.163,0
		c-3.587,3.061-7.823,5.426-12.708,7.096c-0.805,0.279-1.608,0.256-2.412-0.068c-0.805-0.324-1.469-0.844-1.994-1.555
		c-0.402-0.525-0.503-1.098-0.302-1.715c0.201-0.619,0.61-1.021,1.229-1.207c2.905-0.771,5.674-1.809,8.302-3.107
		c3.309-1.639,5.952-3.541,7.932-5.705c0.123-0.154,0.186-0.324,0.186-0.51v-2.783c0-0.186-0.093-0.277-0.278-0.277h-8.534
		c-0.186,0-0.278,0.092-0.278,0.277v5.195c0,0.805-0.295,1.5-0.882,2.086c-0.588,0.588-1.291,0.883-2.11,0.883
		s-1.523-0.295-2.11-0.883c-0.588-0.586-0.881-1.281-0.881-2.086v-7.004c0-0.896,0.316-1.662,0.951-2.297
		c0.633-0.633,1.398-0.949,2.296-0.949h11.549c0.186,0,0.278-0.094,0.278-0.279v-1.717c0-0.186-0.093-0.277-0.278-0.277H42.12
		c-0.681,0-1.261-0.238-1.739-0.719c-0.479-0.479-0.719-1.051-0.719-1.717c0-0.664,0.239-1.236,0.719-1.715
		c0.479-0.48,1.059-0.721,1.739-0.721h7.328c0.186,0,0.247-0.092,0.186-0.277c-0.464-1.268-1.206-2.752-2.227-4.453
		C47.314,8.838,47.176,8.76,46.99,8.76h-0.232c-0.186,0-0.34,0.078-0.463,0.232c-0.588,0.867-1.206,1.686-1.855,2.459
		c-0.495,0.588-1.152,0.912-1.972,0.975c-0.819,0.061-1.554-0.141-2.203-0.604c-0.557-0.371-0.874-0.889-0.95-1.555
		c-0.078-0.664,0.115-1.26,0.579-1.785c1.577-1.67,2.938-3.633,4.082-5.891c0.34-0.711,0.873-1.244,1.6-1.6s1.461-0.441,2.203-0.256
		l0.186,0.047c0.649,0.186,1.129,0.588,1.438,1.205c0.309,0.619,0.309,1.238,0,1.855C49.34,4,49.385,4.076,49.541,4.076h6.818
		c0.896,0,1.662,0.318,2.296,0.951s0.951,1.398,0.951,2.295v0.371c0,0.031,0.022,0.055,0.069,0.07
		c0.046,0.016,0.085,0.008,0.116-0.023c1.236-1.453,2.303-3.139,3.2-5.055c0.371-0.742,0.919-1.307,1.646-1.693
		c0.726-0.387,1.476-0.488,2.249-0.303l0.186,0.047c0.68,0.186,1.183,0.596,1.508,1.229c0.324,0.635,0.332,1.262,0.023,1.879
		C68.542,4,68.588,4.076,68.743,4.076h10.668c0.618,0,1.159,0.232,1.623,0.695c0.464,0.465,0.696,1.014,0.696,1.646
		c0,0.635-0.232,1.184-0.696,1.646C80.57,8.529,80.029,8.76,79.411,8.76h-5.148c-0.062,0-0.108,0.031-0.14,0.094
		c-0.03,0.062-0.03,0.123,0,0.186c0.124,0.217,0.248,0.434,0.371,0.648c0.34,0.619,0.371,1.246,0.093,1.879
		c-0.278,0.635-0.758,1.061-1.438,1.275c-0.712,0.217-1.399,0.162-2.063-0.162c-0.666-0.324-1.168-0.826-1.508-1.508
		c-0.341-0.648-0.758-1.375-1.252-2.18c-0.093-0.154-0.232-0.232-0.418-0.232h-1.716c-0.186,0-0.325,0.078-0.418,0.232
		c-0.494,0.742-1.082,1.5-1.762,2.273c-0.124,0.154-0.186,0.324-0.186,0.51v1.67c0,0.186,0.093,0.277,0.278,0.277h14.378
		c0.649,0,1.213,0.24,1.693,0.721c0.479,0.479,0.719,1.051,0.719,1.715c0,0.666-0.24,1.238-0.719,1.717
		c-0.48,0.48-1.044,0.719-1.693,0.719H64.105c-0.186,0-0.278,0.092-0.278,0.277v1.717c0,0.186,0.093,0.279,0.278,0.279H75.283z
		 M50.654,13.631c-0.031,0-0.046,0.016-0.046,0.047s0.015,0.045,0.046,0.045h6.911c0.123,0,0.186-0.076,0.186-0.23v-1.531
		c0-0.217,0.069-0.395,0.208-0.533c0.14-0.139,0.317-0.209,0.534-0.209v-0.047c-0.031,0-0.062-0.014-0.093-0.045
		c-0.31-0.186-0.48-0.465-0.511-0.836c-0.031-0.371,0.093-0.68,0.371-0.928c0.123-0.123,0.278-0.277,0.464-0.463
		c0.03-0.031,0.038-0.062,0.023-0.094c-0.016-0.029-0.039-0.047-0.069-0.047h-5.381c-0.062,0-0.108,0.031-0.139,0.094
		c-0.031,0.062-0.031,0.123,0,0.186c0.03,0.031,0.062,0.078,0.093,0.139c0.401,0.773,0.433,1.57,0.093,2.389
		c-0.341,0.82-0.913,1.385-1.717,1.693L50.654,13.631z M64.105,25.644c-0.186,0-0.278,0.092-0.278,0.277v3.664
		c0,0.186,0.076,0.34,0.231,0.465c1.422,1.205,3.23,2.41,5.427,3.617c0.062,0.031,0.116,0.031,0.162,0
		c0.047-0.031,0.054-0.076,0.023-0.139c-0.093-0.34-0.217-0.697-0.371-1.068c-0.248-0.68-0.179-1.32,0.209-1.924
		c0.386-0.604,0.935-0.904,1.646-0.904c0.247,0,0.51,0,0.788,0c0.494,0,0.742-0.217,0.742-0.65v-3.061
		c0-0.186-0.093-0.277-0.278-0.277H64.105z"/>
	<path d="M122.509,5.004c0.525-0.154,1.036-0.107,1.53,0.139l1.113,0.557c0.525,0.279,0.896,0.689,1.113,1.229
		c0.216,0.543,0.216,1.092,0,1.646c-1.607,3.711-3.788,7.098-6.54,10.158c-0.123,0.156-0.108,0.295,0.047,0.418
		c2.35,1.732,4.823,3.139,7.421,4.221c0.649,0.277,1.059,0.75,1.229,1.414c0.169,0.666,0.054,1.275-0.348,1.832
		c-0.526,0.682-1.006,1.393-1.438,2.135c-0.155,0.248-0.371,0.309-0.649,0.186c-0.031,0-0.046,0.016-0.046,0.045V41.97
		c0,0.771-0.271,1.43-0.812,1.971c-0.542,0.541-1.199,0.812-1.972,0.812h-1.252c-0.434,0-0.797-0.148-1.09-0.441
		c-0.295-0.295-0.441-0.658-0.441-1.09c0-0.094-0.046-0.139-0.139-0.139h-9.509c-0.093,0-0.139,0.045-0.139,0.139
		c0,0.432-0.147,0.795-0.44,1.09c-0.295,0.293-0.657,0.441-1.09,0.441h-1.113c-0.742,0-1.368-0.256-1.879-0.766
		c-0.51-0.512-0.765-1.137-0.765-1.879V29.308c0-0.062-0.031-0.078-0.093-0.047c-0.31,0.154-0.619,0.178-0.928,0.068
		c-0.31-0.107-0.557-0.301-0.742-0.578c-0.278-0.434-0.542-0.82-0.789-1.16c-0.031-0.031-0.062-0.039-0.093-0.023
		c-0.031,0.016-0.046,0.039-0.046,0.07v4.406c0,0.896-0.317,1.662-0.951,2.295c-0.634,0.635-1.399,0.951-2.296,0.951h-8.812
		c-0.186,0-0.278,0.094-0.278,0.279v1.482c0,0.557-0.201,1.037-0.603,1.439c-0.402,0.402-0.89,0.602-1.461,0.602
		c-0.573,0-1.06-0.199-1.461-0.602c-0.402-0.402-0.604-0.883-0.604-1.439V6.394c0-0.896,0.316-1.66,0.951-2.295
		c0.633-0.633,1.398-0.951,2.296-0.951h9.972c0.896,0,1.662,0.318,2.296,0.951c0.634,0.635,0.951,1.398,0.951,2.295v5.52
		c0,0.031,0.023,0.062,0.069,0.094c0.047,0.031,0.1,0.031,0.162,0c2.813-2.66,5.056-5.736,6.726-9.23
		c0.371-0.711,0.904-1.236,1.601-1.576c0.695-0.34,1.414-0.418,2.156-0.232c0.711,0.186,1.229,0.604,1.554,1.252
		c0.325,0.65,0.317,1.299-0.023,1.947c-0.092,0.186-0.185,0.389-0.277,0.604c-0.031,0.062-0.031,0.125,0,0.186
		c0.03,0.062,0.076,0.094,0.139,0.094h6.726c0-0.031,0.015-0.047,0.046-0.047h0.835C122.385,5.004,122.446,5.004,122.509,5.004z
		 M92.453,8.297c0-0.186-0.093-0.277-0.278-0.277h-1.623c-0.186,0-0.278,0.092-0.278,0.277v7.838c0,0.186,0.093,0.279,0.278,0.279
		h1.623c0.186,0,0.278-0.094,0.278-0.279V8.297z M90.552,21.052c-0.186,0-0.278,0.092-0.278,0.277v8.906
		c0,0.186,0.093,0.277,0.278,0.277h1.623c0.186,0,0.278-0.092,0.278-0.277V21.33c0-0.186-0.093-0.277-0.278-0.277H90.552z
		 M98.065,16.414c0.186,0,0.278-0.094,0.278-0.279V8.297c0-0.186-0.093-0.277-0.278-0.277h-1.854c-0.186,0-0.278,0.092-0.278,0.277
		v7.838c0,0.186,0.093,0.279,0.278,0.279H98.065z M95.932,30.236c0,0.186,0.093,0.277,0.278,0.277h1.854
		c0.186,0,0.278-0.092,0.278-0.277V21.33c0-0.186-0.093-0.277-0.278-0.277h-1.854c-0.186,0-0.278,0.092-0.278,0.277V30.236z
		 M102.797,15.625c-0.031-0.029-0.069-0.039-0.116-0.023c-0.046,0.016-0.069,0.055-0.069,0.117v8.627
		c0,0.062,0.03,0.107,0.093,0.139c0.062,0.031,0.123,0.031,0.186,0c3.216-1.422,6.169-3.246,8.858-5.473
		c0.154-0.123,0.17-0.264,0.047-0.418c-1.237-1.422-2.319-2.844-3.247-4.268c-0.093-0.154-0.201-0.154-0.324,0
		c-0.434,0.496-0.897,0.975-1.392,1.438c-0.557,0.557-1.222,0.812-1.994,0.766C104.064,16.482,103.384,16.181,102.797,15.625z
		 M109.615,26.941c-0.031,0-0.04,0.023-0.023,0.07c0.015,0.047,0.038,0.07,0.069,0.07h12.105c0.03,0,0.054-0.023,0.069-0.07
		s0.008-0.07-0.022-0.07c-2.165-1.266-4.113-2.643-5.845-4.127c-0.154-0.123-0.31-0.123-0.464,0
		C113.712,24.33,111.748,25.705,109.615,26.941z M110.589,37.888c0,0.186,0.093,0.277,0.278,0.277h9.229
		c0.186,0,0.278-0.092,0.278-0.277v-5.566c0-0.186-0.093-0.277-0.278-0.277h-9.229c-0.186,0-0.278,0.092-0.278,0.277V37.888z
		 M119.54,9.967c0.031-0.062,0.031-0.123,0-0.186c-0.03-0.062-0.077-0.094-0.139-0.094h-7.375c-0.186,0-0.332,0.07-0.44,0.209
		c-0.108,0.141-0.116,0.287-0.023,0.441c1.021,1.547,2.288,3.154,3.804,4.824c0.123,0.154,0.247,0.154,0.371,0
		C117.159,13.584,118.427,11.853,119.54,9.967z"/>
	<path d="M154.807,33.877c0.479,0.479,0.719,1.059,0.719,1.738c0,0.682-0.24,1.262-0.719,1.74c-0.479,0.479-1.06,0.719-1.739,0.719
		h-6.911c-0.186,0-0.278,0.092-0.278,0.277v3.85c0,0.742-0.263,1.377-0.788,1.902c-0.526,0.525-1.16,0.789-1.902,0.789
		c-0.741,0-1.376-0.264-1.901-0.789c-0.526-0.525-0.788-1.16-0.788-1.902v-3.85c0-0.186-0.093-0.277-0.278-0.277h-7.375
		c-0.681,0-1.26-0.24-1.739-0.719s-0.719-1.059-0.719-1.74c0-0.68,0.239-1.26,0.719-1.738c0.479-0.48,1.059-0.719,1.739-0.719h7.375
		c0.186,0,0.278-0.094,0.278-0.279v-1.715c0-0.186-0.093-0.279-0.278-0.279h-4.731c-0.896,0-1.662-0.316-2.296-0.951
		c-0.634-0.633-0.95-1.398-0.95-2.295V16.832c0-0.896,0.316-1.662,0.95-2.297c0.634-0.633,1.399-0.951,2.296-0.951h15.771
		c0.896,0,1.661,0.318,2.296,0.951c0.633,0.635,0.95,1.4,0.95,2.297v10.807c0,0.896-0.317,1.662-0.95,2.295
		c-0.635,0.635-1.399,0.951-2.296,0.951h-5.103c-0.186,0-0.278,0.094-0.278,0.279v1.715c0,0.186,0.093,0.279,0.278,0.279h6.911
		C153.748,33.158,154.328,33.396,154.807,33.877z M139.339,1.617c0.896,0,1.662,0.318,2.296,0.951
		c0.634,0.635,0.951,1.4,0.951,2.297v3.85c0,0.896-0.317,1.662-0.951,2.295c-0.634,0.635-1.399,0.951-2.296,0.951h-4.313
		c-0.896,0-1.662-0.316-2.296-0.951c-0.634-0.633-0.95-1.398-0.95-2.295v-3.85c0-0.896,0.316-1.662,0.95-2.297
		c0.634-0.633,1.399-0.951,2.296-0.951H139.339z M138.134,8.39c0.185,0,0.277-0.094,0.277-0.279V5.467
		c0-0.186-0.093-0.277-0.277-0.277h-2.041c-0.186,0-0.278,0.092-0.278,0.277v2.645c0,0.186,0.093,0.279,0.278,0.279H138.134z
		 M137.113,17.713c-0.186,0-0.278,0.092-0.278,0.277v1.994c0,0.186,0.093,0.279,0.278,0.279h3.432c0.186,0,0.278-0.094,0.278-0.279
		V17.99c0-0.186-0.093-0.277-0.278-0.277H137.113z M137.113,24.16c-0.186,0-0.278,0.092-0.278,0.277v2.041
		c0,0.186,0.093,0.279,0.278,0.279h3.432c0.186,0,0.278-0.094,0.278-0.279v-2.041c0-0.186-0.093-0.277-0.278-0.277H137.113z
		 M151.723,1.617c0.896,0,1.661,0.318,2.296,0.951c0.633,0.635,0.95,1.4,0.95,2.297v3.85c0,0.896-0.317,1.662-0.95,2.295
		c-0.635,0.635-1.399,0.951-2.296,0.951h-4.268c-0.897,0-1.662-0.316-2.296-0.951c-0.634-0.633-0.951-1.398-0.951-2.295v-3.85
		c0-0.896,0.317-1.662,0.951-2.297c0.634-0.633,1.398-0.951,2.296-0.951H151.723z M149.357,20.263c0.186,0,0.278-0.094,0.278-0.279
		V17.99c0-0.186-0.093-0.277-0.278-0.277h-3.524c-0.186,0-0.278,0.092-0.278,0.277v1.994c0,0.186,0.093,0.279,0.278,0.279H149.357z
		 M149.357,26.758c0.186,0,0.278-0.094,0.278-0.279v-2.041c0-0.186-0.093-0.277-0.278-0.277h-3.524
		c-0.186,0-0.278,0.092-0.278,0.277v2.041c0,0.186,0.093,0.279,0.278,0.279H149.357z M150.47,8.39c0.186,0,0.278-0.094,0.278-0.279
		V5.467c0-0.186-0.093-0.277-0.278-0.277h-1.994c-0.186,0-0.278,0.092-0.278,0.277v2.645c0,0.186,0.093,0.279,0.278,0.279H150.47z
		 M168.699,20.773c0.216-0.586,0.618-0.996,1.206-1.229c0.587-0.232,1.174-0.209,1.762,0.068c0.618,0.371,1.06,0.891,1.322,1.555
		c0.263,0.666,0.255,1.322-0.023,1.971c-1.392,3.742-3.246,7.252-5.565,10.529c-0.124,0.154-0.155,0.324-0.093,0.51
		c0.742,2.504,1.592,3.789,2.551,3.85c0.371,0.031,0.665-0.494,0.881-1.576c0.155-0.588,0.278-1.346,0.371-2.273
		c0.062-0.494,0.332-0.834,0.812-1.02c0.479-0.186,0.935-0.123,1.368,0.186c0.649,0.463,1.136,1.051,1.461,1.762
		c0.324,0.711,0.409,1.438,0.255,2.18c-1.052,5.07-2.753,7.561-5.102,7.469c-2.69-0.125-4.855-2.072-6.494-5.846
		c-0.093-0.186-0.201-0.199-0.324-0.045c-1.516,1.576-3.107,2.951-4.777,4.127c-0.681,0.402-1.399,0.533-2.157,0.395
		s-1.431-0.504-2.018-1.09c-0.464-0.465-0.665-1.021-0.603-1.67c0.062-0.648,0.371-1.145,0.928-1.484
		c2.474-1.514,4.761-3.494,6.864-5.938c0.123-0.154,0.17-0.324,0.139-0.51c-0.834-3.586-1.483-8.086-1.947-13.496
		c-0.031-0.186-0.14-0.264-0.325-0.232l-1.066,0.092c-0.681,0.094-1.307-0.084-1.879-0.533c-0.572-0.447-0.896-1.027-0.974-1.738
		c-0.078-0.711,0.1-1.346,0.533-1.902c0.433-0.557,1.005-0.896,1.716-1.02l1.253-0.141c0.186-0.029,0.278-0.139,0.278-0.324
		c-0.124-2.412-0.264-5.75-0.418-10.018c-0.031-0.742,0.209-1.375,0.719-1.902c0.511-0.525,1.137-0.789,1.879-0.789
		s1.376,0.264,1.901,0.789c0.525,0.527,0.804,1.16,0.835,1.902c0.062,3.246,0.186,6.385,0.371,9.416c0,0.186,0.093,0.262,0.278,0.23
		l7.328-0.928c0.711-0.092,1.353,0.086,1.925,0.533c0.572,0.449,0.904,1.029,0.997,1.74s-0.085,1.354-0.533,1.924
		c-0.448,0.574-1.028,0.906-1.739,0.998l-7.56,0.928c-0.186,0.031-0.264,0.139-0.232,0.324c0.216,2.598,0.525,5.318,0.928,8.164
		c0,0.031,0.023,0.055,0.069,0.068c0.047,0.018,0.085,0.008,0.116-0.021C166.998,24.84,167.926,22.845,168.699,20.773z
		 M173.337,6.765c0.309,0.65,0.34,1.314,0.093,1.994c-0.248,0.682-0.681,1.207-1.299,1.578c-0.588,0.309-1.183,0.348-1.785,0.115
		c-0.604-0.23-1.044-0.641-1.322-1.229c-0.588-1.236-1.345-2.566-2.272-3.988c-0.341-0.525-0.44-1.098-0.302-1.717
		c0.14-0.617,0.487-1.082,1.044-1.391c0.587-0.309,1.213-0.395,1.878-0.256s1.183,0.486,1.554,1.043
		C171.914,4.308,172.718,5.592,173.337,6.765z"/>
	<path d="M198.003,9.967c0,0.186,0.093,0.277,0.278,0.277h15.724c0.896,0,1.646,0.318,2.25,0.951c0.603,0.635,0.873,1.4,0.812,2.297
		c-0.434,9.215-0.943,15.832-1.53,19.852c-0.557,4.143-1.361,6.834-2.412,8.07c-1.176,1.514-2.799,2.412-4.87,2.689
		c-1.113,0.154-2.598,0.217-4.453,0.186c-0.835,0-1.585-0.301-2.249-0.904c-0.665-0.604-1.137-1.354-1.415-2.25
		c-0.217-0.648-0.146-1.252,0.209-1.809s0.858-0.818,1.508-0.789c1.205,0.031,2.504,0.047,3.896,0.047
		c0.958,0,1.7-0.246,2.227-0.742c1.422-1.453,2.474-8.627,3.154-21.521c0-0.186-0.093-0.277-0.278-0.277h-12.756
		c-0.186,0-0.278,0.092-0.278,0.277c-0.186,2.041-0.448,3.975-0.788,5.799c-0.371,1.918-0.982,3.965-1.832,6.145
		c-0.851,2.18-1.895,4.207-3.131,6.076c-1.237,1.871-2.845,3.734-4.823,5.59c-1.269,1.205-2.645,2.318-4.128,3.34
		c-0.773,0.463-1.594,0.609-2.459,0.439s-1.623-0.596-2.272-1.275c-0.557-0.525-0.796-1.176-0.719-1.947
		c0.077-0.773,0.425-1.377,1.044-1.809c7.668-5.104,11.996-12.555,12.986-22.357c0.03-0.186-0.046-0.277-0.231-0.277h-11.086
		c-0.804,0-1.492-0.285-2.063-0.857c-0.572-0.572-0.858-1.254-0.858-2.041c0-0.789,0.286-1.469,0.858-2.041
		c0.571-0.572,1.26-0.859,2.063-0.859h11.317c0.186,0,0.278-0.092,0.278-0.277V3.472c0-0.834,0.294-1.545,0.881-2.133
		c0.588-0.588,1.299-0.881,2.134-0.881s1.546,0.293,2.134,0.881c0.587,0.588,0.881,1.299,0.881,2.133V9.967z"/>
	<path d="M254.886,25.783c0.68-0.525,1.438-0.812,2.272-0.859c0.835-0.045,1.592,0.18,2.272,0.674
		c0.587,0.434,0.873,0.996,0.858,1.693c-0.017,0.695-0.317,1.244-0.904,1.646c-2.505,1.67-4.763,3.076-6.772,4.221
		c-0.186,0.092-0.217,0.217-0.093,0.371c2.319,2.287,5.21,4.066,8.674,5.334c0.649,0.246,1.066,0.711,1.252,1.391
		s0.077,1.314-0.324,1.902c-0.526,0.742-1.206,1.275-2.041,1.6s-1.654,0.316-2.458-0.023c-3.649-1.516-6.68-3.57-9.091-6.168
		c-2.969-3.217-5.319-7.391-7.05-12.523c-0.062-0.186-0.171-0.217-0.325-0.094c-1.608,1.238-3.664,2.582-6.169,4.035
		c-0.186,0.094-0.278,0.232-0.278,0.418v7.838c0,0.186,0.093,0.264,0.278,0.232c2.69-0.309,5.705-0.695,9.045-1.16
		c0.68-0.092,1.275,0.07,1.785,0.488c0.511,0.418,0.781,0.951,0.812,1.6c0.062,0.711-0.123,1.338-0.556,1.879
		c-0.434,0.541-0.99,0.857-1.67,0.951c-4.268,0.68-9.74,1.498-16.42,2.457c-0.741,0.094-1.407-0.076-1.994-0.51
		c-0.588-0.434-0.943-1.02-1.066-1.762c-0.124-0.713,0.038-1.354,0.487-1.926c0.447-0.572,1.027-0.889,1.739-0.951
		c0.618-0.061,1.189-0.123,1.716-0.186c0.186-0.029,0.278-0.139,0.278-0.324v-5.844c0-0.062-0.031-0.107-0.093-0.139
		c-0.062-0.031-0.124-0.031-0.186,0c-1.237,0.525-2.521,1.02-3.85,1.484c-0.805,0.277-1.608,0.27-2.412-0.023
		c-0.805-0.295-1.484-0.797-2.041-1.508c-0.402-0.525-0.51-1.105-0.324-1.74c0.186-0.633,0.587-1.043,1.206-1.229
		c5.225-1.514,9.802-3.525,13.729-6.029c0.03,0,0.039-0.023,0.023-0.07c-0.016-0.045-0.039-0.068-0.069-0.068h-12.152
		c-0.649,0-1.206-0.232-1.67-0.695c-0.464-0.465-0.695-1.021-0.695-1.67c0-0.65,0.231-1.207,0.695-1.67
		c0.464-0.465,1.021-0.697,1.67-0.697h15.353c0.186,0,0.278-0.092,0.278-0.277V15.81c0-0.186-0.093-0.277-0.278-0.277h-11.039
		c-0.619,0-1.145-0.217-1.577-0.65c-0.434-0.432-0.649-0.957-0.649-1.576s0.216-1.145,0.649-1.578
		c0.433-0.432,0.958-0.648,1.577-0.648h11.039c0.186,0,0.278-0.094,0.278-0.279V8.853c0-0.186-0.093-0.279-0.278-0.279h-13.266
		c-0.649,0-1.206-0.23-1.67-0.695c-0.463-0.463-0.695-1.027-0.695-1.691c0-0.666,0.232-1.23,0.695-1.693
		c0.464-0.465,1.021-0.695,1.67-0.695h13.266c0.186,0,0.278-0.094,0.278-0.279V3.242c0-0.773,0.278-1.439,0.835-1.996
		s1.221-0.834,1.994-0.834c0.772,0,1.438,0.277,1.994,0.834s0.835,1.223,0.835,1.996v0.277c0,0.186,0.093,0.279,0.278,0.279h13.915
		c0.68,0,1.252,0.23,1.716,0.695c0.464,0.463,0.695,1.027,0.695,1.693c0,0.664-0.231,1.229-0.695,1.691
		c-0.464,0.465-1.036,0.695-1.716,0.695h-13.915c-0.186,0-0.278,0.094-0.278,0.279v1.947c0,0.186,0.093,0.279,0.278,0.279h12.152
		c0.618,0,1.144,0.217,1.577,0.648c0.433,0.434,0.649,0.959,0.649,1.578s-0.217,1.145-0.649,1.576
		c-0.434,0.434-0.959,0.65-1.577,0.65h-12.152c-0.186,0-0.278,0.092-0.278,0.277v2.041c0,0.186,0.093,0.277,0.278,0.277h15.445
		c0.649,0,1.206,0.232,1.67,0.697c0.464,0.463,0.695,1.02,0.695,1.67c0,0.648-0.231,1.205-0.695,1.67
		c-0.464,0.463-1.021,0.695-1.67,0.695h-13.497c-0.186,0-0.248,0.092-0.186,0.277c0.772,2.258,1.763,4.346,2.969,6.262
		c0.093,0.156,0.216,0.186,0.371,0.094C251.685,28.164,253.432,26.927,254.886,25.783z"/>
</g>
</svg>
