<svg version="1.1" xmlns="http://www.w3.org/2000/svg" xmlns:xlink="http://www.w3.org/1999/xlink" x="0px" y="0px"
	 width="587.394px" height="45.794px" viewBox="-200.408 0.099 587.394 45.794"
	 enable-background="new -200.408 0.099 587.394 45.794" xml:space="preserve">
<g>
	<g>
		<path d="M-157.785,24.002c0.525,0.525,0.789,1.172,0.789,1.938s-0.264,1.412-0.789,1.938c-0.527,0.527-1.173,0.79-1.938,0.79
			h-11.102c-0.224,0-0.304,0.096-0.239,0.287c1.084,3.19,2.36,5.807,3.828,7.848c1.531,2.105,2.967,3.158,4.307,3.158
			c0.574,0,1.005-0.542,1.292-1.627c0.159-0.605,0.303-1.436,0.431-2.488c0.063-0.605,0.383-1.036,0.957-1.292
			c0.574-0.255,1.132-0.223,1.675,0.096c0.766,0.415,1.371,0.98,1.818,1.699c0.446,0.717,0.59,1.476,0.431,2.272
			c-0.415,2.361-1.021,4.051-1.818,5.072c-1.085,1.371-2.775,2.058-5.072,2.058c-3.062,0-5.854-1.563-8.374-4.689
			c-2.457-3.094-4.371-7.13-5.742-12.106c-0.064-0.191-0.191-0.287-0.383-0.287h-11.771c-0.224,0-0.335,0.096-0.335,0.287v8.422
			c0,0.191,0.111,0.271,0.335,0.239c1.275-0.159,3.254-0.414,5.934-0.766c1.467-0.191,2.775-0.366,3.924-0.526
			c0.766-0.096,1.443,0.112,2.034,0.622c0.59,0.511,0.9,1.148,0.933,1.914c0.031,0.543-0.071,1.053-0.312,1.531
			c-0.238,0.479-0.566,0.869-0.98,1.172c-0.415,0.304-0.894,0.503-1.436,0.599c-4.147,0.605-9.905,1.388-17.274,2.345
			c-0.861,0.127-1.644-0.056-2.345-0.551c-0.702-0.494-1.148-1.172-1.34-2.033c-0.16-0.797,0.008-1.531,0.502-2.201
			c0.495-0.67,1.141-1.053,1.938-1.148c0.766-0.096,1.371-0.159,1.818-0.191c0.191-0.031,0.287-0.144,0.287-0.335V5.65
			c0-0.925,0.327-1.715,0.981-2.369c0.653-0.653,1.442-0.98,2.368-0.98h28.615c0.925,0,1.715,0.327,2.368,0.98
			c0.654,0.654,0.981,1.444,0.981,2.369v9.379c0,0.926-0.327,1.715-0.981,2.369c-0.653,0.653-1.443,0.98-2.368,0.98h-8.996
			c-0.224,0-0.319,0.096-0.287,0.287c0.127,1.563,0.303,2.983,0.526,4.259c0.031,0.191,0.159,0.287,0.383,0.287h12.489
			C-158.958,23.212-158.312,23.474-157.785,24.002z M-166.423,7.947c0-0.191-0.096-0.287-0.287-0.287h-22.777
			c-0.224,0-0.335,0.096-0.335,0.287v4.737c0,0.191,0.111,0.287,0.335,0.287h22.777c0.191,0,0.287-0.096,0.287-0.287V7.947z
			 M-189.822,22.925c0,0.191,0.111,0.287,0.335,0.287h10.575c0.191,0,0.271-0.096,0.239-0.287c-0.191-1.436-0.352-2.854-0.479-4.259
			c-0.032-0.191-0.144-0.287-0.335-0.287h-10.001c-0.224,0-0.335,0.096-0.335,0.287V22.925z"/>
		<path d="M-134.008,16.465c0,0.926-0.327,1.715-0.98,2.369c-0.654,0.653-1.444,0.98-2.369,0.98h-9.522
			c-0.191,0-0.287,0.096-0.287,0.287v22.921c0,0.797-0.279,1.476-0.837,2.034c-0.559,0.558-1.237,0.837-2.034,0.837
			c-0.798,0-1.476-0.279-2.034-0.837c-0.558-0.559-0.837-1.237-0.837-2.034V5.363c0-0.925,0.327-1.715,0.981-2.369
			c0.653-0.653,1.442-0.98,2.368-0.98h12.202c0.925,0,1.715,0.327,2.369,0.98c0.653,0.654,0.98,1.444,0.98,2.369V16.465z
			 M-139.463,6.511c0-0.191-0.096-0.287-0.287-0.287h-7.13c-0.191,0-0.287,0.096-0.287,0.287v1.962c0,0.191,0.096,0.287,0.287,0.287
			h7.13c0.191,0,0.287-0.096,0.287-0.287V6.511z M-147.167,15.316c0,0.191,0.096,0.287,0.287,0.287h7.13
			c0.191,0,0.287-0.096,0.287-0.287v-2.297c0-0.191-0.096-0.287-0.287-0.287h-7.13c-0.191,0-0.287,0.096-0.287,0.287V15.316z
			 M-114.963,2.013c0.925,0,1.715,0.327,2.369,0.98c0.653,0.654,0.98,1.444,0.98,2.369v33.544c0,1.627-0.191,2.887-0.574,3.78
			c-0.383,0.893-1.053,1.562-2.01,2.01c-1.021,0.51-2.888,0.829-5.599,0.957c-0.957,0.063-1.818-0.208-2.584-0.813
			c-0.766-0.606-1.309-1.388-1.627-2.345c-0.064-0.256-0.16-0.543-0.287-0.861c-0.064-0.191-0.191-0.287-0.383-0.287h-11.628
			c-0.16,0-0.239,0.08-0.239,0.239c0,0.638-0.231,1.188-0.694,1.651c-0.462,0.462-1.013,0.693-1.65,0.693h-0.287
			c-0.734,0-1.363-0.264-1.891-0.789c-0.525-0.527-0.789-1.157-0.789-1.891V25.939c0-0.925,0.327-1.715,0.98-2.369
			c0.654-0.653,1.443-0.98,2.369-0.98h12.298c0.925,0,1.715,0.327,2.368,0.98c0.654,0.654,0.981,1.444,0.981,2.369v13.638
			c0,0.191,0.096,0.287,0.287,0.287c0.733,0.032,2.041,0.048,3.924,0.048c0.446-0.031,0.749-0.119,0.909-0.264
			c0.159-0.143,0.239-0.406,0.239-0.789V20.245c0-0.191-0.096-0.287-0.287-0.287h-9.714c-0.926,0-1.715-0.327-2.369-0.981
			c-0.653-0.653-0.98-1.442-0.98-2.368V5.363c0-0.925,0.327-1.715,0.98-2.369c0.654-0.653,1.443-0.98,2.369-0.98H-114.963z
			 M-128.361,27.183c0-0.191-0.096-0.287-0.287-0.287h-7.608c-0.191,0-0.287,0.096-0.287,0.287v2.297
			c0,0.191,0.096,0.287,0.287,0.287h7.608c0.191,0,0.287-0.096,0.287-0.287V27.183z M-136.544,36.754
			c0,0.191,0.096,0.287,0.287,0.287h7.608c0.191,0,0.287-0.096,0.287-0.287v-2.488c0-0.191-0.096-0.287-0.287-0.287h-7.608
			c-0.191,0-0.287,0.096-0.287,0.287V36.754z M-117.499,6.511c0-0.191-0.096-0.287-0.287-0.287h-7.273
			c-0.191,0-0.287,0.096-0.287,0.287v1.962c0,0.191,0.096,0.287,0.287,0.287h7.273c0.191,0,0.287-0.096,0.287-0.287V6.511z
			 M-125.347,15.46c0,0.191,0.096,0.287,0.287,0.287h7.273c0.191,0,0.287-0.096,0.287-0.287v-2.44c0-0.191-0.096-0.287-0.287-0.287
			h-7.273c-0.191,0-0.287,0.096-0.287,0.287V15.46z"/>
		<path d="M-67.076,34.6c0.701,0,1.292,0.239,1.771,0.718s0.718,1.069,0.718,1.771c0,0.702-0.239,1.292-0.718,1.771
			s-1.069,0.718-1.771,0.718h-16.27c-0.191,0-0.287,0.096-0.287,0.287v2.919c0,0.829-0.295,1.539-0.886,2.129
			c-0.59,0.591-1.291,0.886-2.105,0.886c-0.812,0-1.515-0.295-2.105-0.886c-0.59-0.59-0.885-1.3-0.885-2.129v-2.919
			c0-0.191-0.096-0.287-0.287-0.287h-15.743c-0.702,0-1.292-0.239-1.771-0.718s-0.718-1.068-0.718-1.771
			c0-0.701,0.239-1.292,0.718-1.771s1.068-0.718,1.771-0.718h15.743c0.191,0,0.287-0.096,0.287-0.287v-1.914
			c0-0.191-0.096-0.287-0.287-0.287h-10.24c-0.926,0-1.715-0.327-2.369-0.981c-0.653-0.653-0.98-1.442-0.98-2.368V17.039
			c0-0.925,0.327-1.715,0.98-2.369c0.654-0.653,1.443-0.98,2.369-0.98h27.945c0.925,0,1.715,0.327,2.369,0.98
			c0.653,0.654,0.98,1.444,0.98,2.369v11.724c0,0.926-0.327,1.715-0.98,2.368c-0.654,0.654-1.444,0.981-2.369,0.981h-11.149
			c-0.191,0-0.287,0.096-0.287,0.287v1.914c0,0.191,0.096,0.287,0.287,0.287H-67.076z M-91.098,2.013
			c0.925,0,1.715,0.327,2.368,0.98c0.654,0.654,0.981,1.444,0.981,2.369v3.254c0,0.926-0.327,1.715-0.981,2.369
			c-0.653,0.653-1.443,0.98-2.368,0.98h-10.767c-0.926,0-1.715-0.327-2.369-0.98c-0.653-0.654-0.98-1.443-0.98-2.369V5.363
			c0-0.925,0.327-1.715,0.98-2.369c0.654-0.653,1.443-0.98,2.369-0.98H-91.098z M-93.49,8.473c0.191,0,0.287-0.096,0.287-0.287
			v-2.44c0-0.191-0.096-0.287-0.287-0.287h-6.316c-0.191,0-0.287,0.096-0.287,0.287v2.44c0,0.191,0.096,0.287,0.287,0.287H-93.49z
			 M-97.605,18.187c-0.191,0-0.287,0.096-0.287,0.287v2.058c0,0.191,0.096,0.287,0.287,0.287h7.704c0.191,0,0.287-0.096,0.287-0.287
			v-2.058c0-0.191-0.096-0.287-0.287-0.287H-97.605z M-97.893,27.375c0,0.191,0.096,0.287,0.287,0.287h7.704
			c0.191,0,0.287-0.096,0.287-0.287v-2.153c0-0.191-0.096-0.287-0.287-0.287h-7.704c-0.191,0-0.287,0.096-0.287,0.287V27.375z
			 M-70.521,2.013c0.925,0,1.715,0.327,2.368,0.98c0.654,0.654,0.981,1.444,0.981,2.369v3.254c0,0.926-0.327,1.715-0.981,2.369
			c-0.653,0.653-1.443,0.98-2.368,0.98h-10.91c-0.926,0-1.715-0.327-2.368-0.98c-0.654-0.654-0.981-1.443-0.981-2.369V5.363
			c0-0.925,0.327-1.715,0.981-2.369c0.653-0.653,1.442-0.98,2.368-0.98H-70.521z M-75.067,20.819c0.191,0,0.287-0.096,0.287-0.287
			v-2.058c0-0.191-0.096-0.287-0.287-0.287h-8.278c-0.191,0-0.287,0.096-0.287,0.287v2.058c0,0.191,0.096,0.287,0.287,0.287H-75.067
			z M-75.067,27.662c0.191,0,0.287-0.096,0.287-0.287v-2.153c0-0.191-0.096-0.287-0.287-0.287h-8.278
			c-0.191,0-0.287,0.096-0.287,0.287v2.153c0,0.191,0.096,0.287,0.287,0.287H-75.067z M-72.914,8.473
			c0.191,0,0.287-0.096,0.287-0.287v-2.44c0-0.191-0.096-0.287-0.287-0.287h-6.46c-0.191,0-0.287,0.096-0.287,0.287v2.44
			c0,0.191,0.096,0.287,0.287,0.287H-72.914z"/>
		<path d="M-54.955,2.779c0.318-0.766,0.845-1.316,1.579-1.65c0.733-0.336,1.483-0.391,2.249-0.168
			c0.733,0.256,1.269,0.734,1.603,1.436c0.336,0.702,0.343,1.404,0.024,2.105c-0.989,2.17-2.09,4.323-3.302,6.46
			c-0.096,0.191-0.144,0.383-0.144,0.574v31.151c0,0.766-0.271,1.419-0.813,1.962c-0.543,0.542-1.196,0.813-1.962,0.813
			s-1.42-0.271-1.962-0.813c-0.543-0.543-0.813-1.196-0.813-1.962V19.814c0-0.031-0.024-0.056-0.071-0.072
			c-0.049-0.016-0.089-0.007-0.12,0.024c-0.574,0.702-1.117,1.356-1.627,1.962c-0.543,0.606-1.196,0.846-1.962,0.718
			c-0.766-0.127-1.34-0.542-1.723-1.244v-0.048c-0.479-0.829-0.662-1.73-0.551-2.703c0.112-0.974,0.486-1.811,1.125-2.513
			c1.499-1.69,2.967-3.62,4.402-5.79C-57.46,7.756-56.104,5.3-54.955,2.779z M-28.876,37.854c-0.064,0.191,0,0.287,0.191,0.287
			h6.891c0.766,0,1.419,0.271,1.962,0.813c0.542,0.543,0.813,1.188,0.813,1.938c0,0.75-0.271,1.396-0.813,1.938
			c-0.543,0.542-1.196,0.813-1.962,0.813h-25.936c-0.734,0-1.372-0.271-1.914-0.813c-0.543-0.543-0.813-1.188-0.813-1.938
			c0-0.749,0.271-1.395,0.813-1.938c0.542-0.542,1.18-0.813,1.914-0.813h12.92c0.223,0,0.366-0.096,0.431-0.287
			c0.957-2.967,1.866-6.428,2.728-10.384c0.605-2.839,1.101-5.519,1.483-8.039c0.159-0.861,0.59-1.547,1.292-2.058
			c0.701-0.51,1.467-0.686,2.297-0.526c0.861,0.128,1.531,0.551,2.01,1.268c0.479,0.719,0.638,1.508,0.479,2.369
			C-25.526,26.737-27.122,32.527-28.876,37.854z M-48.639,13.546c-0.543-0.542-0.813-1.188-0.813-1.938
			c0-0.749,0.271-1.395,0.813-1.938c0.542-0.542,1.18-0.813,1.914-0.813h8.422c0.223,0,0.335-0.096,0.335-0.287V3.64
			c0-0.829,0.287-1.531,0.861-2.105s1.268-0.861,2.082-0.861c0.812,0,1.507,0.287,2.081,0.861s0.861,1.276,0.861,2.105v4.929
			c0,0.191,0.096,0.287,0.287,0.287h9.044c0.766,0,1.419,0.271,1.962,0.813c0.542,0.543,0.813,1.188,0.813,1.938
			c0,0.75-0.271,1.396-0.813,1.938c-0.543,0.543-1.196,0.813-1.962,0.813h-23.974C-47.459,14.359-48.097,14.089-48.639,13.546z
			 M-37.729,32.686c0.096,0.83-0.104,1.587-0.599,2.272c-0.494,0.687-1.156,1.125-1.985,1.316c-0.766,0.16-1.452,0.017-2.058-0.431
			c-0.606-0.446-0.941-1.053-1.005-1.818c-0.16-1.882-0.415-4.003-0.766-6.364c-0.415-2.68-0.878-5.231-1.388-7.656
			c-0.16-0.67-0.04-1.308,0.359-1.914c0.398-0.605,0.948-0.973,1.65-1.101c0.733-0.127,1.412,0.008,2.033,0.407
			c0.623,0.398,1.013,0.949,1.173,1.65C-39.037,24.025-38.176,28.571-37.729,32.686z"/>
		<path d="M-11.208,42.209c-0.511,0.67-1.196,1.036-2.058,1.101c-0.861,0.063-1.644-0.144-2.345-0.622
			c-0.574-0.415-0.886-0.997-0.933-1.746c-0.049-0.75,0.167-1.396,0.646-1.938c1.467-1.723,2.663-3.876,3.589-6.46
			c0.255-0.701,0.701-1.221,1.34-1.555c0.638-0.336,1.308-0.391,2.01-0.168c0.733,0.256,1.275,0.718,1.627,1.388
			c0.351,0.67,0.414,1.356,0.191,2.058C-8.258,37.552-9.613,40.199-11.208,42.209z M0.516,10.627c0-0.191-0.096-0.287-0.287-0.287
			h-4.067c-0.224,0-0.383,0.096-0.479,0.287c-1.787,2.999-3.78,5.615-5.981,7.848c-0.639,0.639-1.412,0.949-2.32,0.934
			c-0.91-0.017-1.716-0.343-2.417-0.981c-0.606-0.542-0.909-1.228-0.909-2.058c0-0.829,0.303-1.531,0.909-2.105
			c1.499-1.403,2.902-3.046,4.211-4.929c1.371-1.978,2.536-4.083,3.493-6.316c0.351-0.829,0.925-1.46,1.723-1.89
			c0.797-0.432,1.627-0.551,2.488-0.359c0.829,0.224,1.436,0.702,1.818,1.436c0.383,0.734,0.414,1.5,0.096,2.297
			c-0.064,0.191-0.128,0.367-0.191,0.526c-0.032,0.064-0.032,0.128,0,0.191c0.031,0.064,0.096,0.096,0.191,0.096h24.835
			c0.67,0,1.252,0.247,1.747,0.741c0.494,0.495,0.741,1.085,0.741,1.771c0,0.686-0.247,1.275-0.741,1.77
			c-0.495,0.495-1.077,0.742-1.747,0.742H6.736c-0.224,0-0.335,0.096-0.335,0.287v1.962c0,0.191,0.111,0.287,0.335,0.287h14.69
			c0.605,0,1.132,0.224,1.579,0.67c0.446,0.447,0.67,0.981,0.67,1.603c0,0.623-0.224,1.157-0.67,1.604
			c-0.447,0.447-0.974,0.67-1.579,0.67H6.736c-0.224,0-0.335,0.096-0.335,0.287v2.201c0,0.191,0.111,0.287,0.335,0.287h15.695
			c0.638,0,1.188,0.231,1.65,0.693c0.463,0.463,0.694,1.021,0.694,1.676c0,0.653-0.231,1.212-0.694,1.674
			c-0.462,0.463-1.013,0.694-1.65,0.694H6.736c-0.224,0-0.335,0.096-0.335,0.287v1.771c0,0.191,0.079,0.352,0.239,0.479
			c1.499,0.989,2.743,1.931,3.732,2.823c0.574,0.511,0.838,1.148,0.789,1.914c-0.047,0.766-0.358,1.404-0.933,1.914
			c-0.606,0.479-1.284,0.687-2.034,0.622c-0.749-0.063-1.411-0.366-1.985-0.909c-1.213-1.148-2.728-2.345-4.546-3.589
			c-0.383-0.287-0.591-0.662-0.622-1.125c-0.032-0.462,0.127-0.853,0.479-1.172l0.096-0.048c0-0.031-0.017-0.048-0.048-0.048
			c-0.287,0-0.534-0.104-0.742-0.311c-0.207-0.208-0.311-0.455-0.311-0.742V10.627z M3.722,39.96h6.412
			c0.957,0,1.579-0.271,1.866-0.813c0.127-0.223,0.223-0.558,0.287-1.005c0.127-0.605,0.471-1.061,1.029-1.364
			c0.558-0.303,1.14-0.342,1.746-0.119c0.766,0.287,1.371,0.758,1.818,1.412c0.446,0.653,0.59,1.363,0.431,2.129
			c-0.352,1.562-0.846,2.695-1.483,3.397c-0.989,1.053-2.696,1.579-5.12,1.579H3.1c-3.062,0-5.12-0.463-6.173-1.388
			c-1.053-0.926-1.579-2.68-1.579-5.264V33.5c0-0.797,0.279-1.476,0.838-2.033c0.558-0.559,1.235-0.838,2.033-0.838
			c0.797,0,1.476,0.279,2.033,0.838C0.811,32.024,1.09,32.703,1.09,33.5v4.881c0,0.702,0.151,1.141,0.455,1.316
			C1.848,39.872,2.573,39.96,3.722,39.96z M16.785,33.739c-0.415-0.542-0.559-1.148-0.431-1.818c0.127-0.67,0.494-1.164,1.101-1.483
			c0.701-0.383,1.451-0.502,2.249-0.359c0.797,0.145,1.467,0.52,2.01,1.125c2.201,2.488,3.907,4.85,5.12,7.082
			c0.383,0.766,0.431,1.539,0.144,2.32c-0.287,0.782-0.813,1.364-1.579,1.747c-0.734,0.351-1.459,0.383-2.178,0.096
			c-0.717-0.287-1.268-0.782-1.65-1.483c-0.479-0.957-1.069-1.993-1.771-3.11C18.843,36.419,17.838,35.048,16.785,33.739z"/>
		<path d="M45.474,9.143c0-0.191-0.112-0.287-0.335-0.287h-6.891c-0.191,0-0.287,0.096-0.287,0.287v9.714
			c0,10.655-1.133,18.87-3.397,24.644c-0.256,0.638-0.718,1.013-1.388,1.124c-0.67,0.112-1.276-0.04-1.818-0.454
			c-0.639-0.479-1.076-1.085-1.316-1.818c-0.238-0.734-0.231-1.483,0.024-2.249c0.542-1.531,0.988-3.285,1.34-5.264
			c0.574-3.126,0.917-5.798,1.028-8.016c0.112-2.217,0.168-4.872,0.168-7.967V7.373c0-0.925,0.327-1.715,0.98-2.369
			c0.654-0.653,1.443-0.98,2.369-0.98h14.451c0.223,0,0.335-0.096,0.335-0.287V3.21c0-0.829,0.295-1.539,0.886-2.13
			c0.59-0.59,1.299-0.885,2.129-0.885c0.829,0,1.539,0.295,2.129,0.885c0.591,0.591,0.886,1.301,0.886,2.13v0.526
			c0,0.191,0.096,0.287,0.287,0.287h14.93c0.67,0,1.244,0.239,1.723,0.718s0.718,1.045,0.718,1.698c0,0.654-0.239,1.221-0.718,1.699
			s-1.053,0.718-1.723,0.718h-5.359c-0.191,0-0.287,0.096-0.287,0.287v2.058c0,0.191,0.096,0.287,0.287,0.287h5.024
			c0.542,0,1.013,0.199,1.412,0.598c0.398,0.399,0.598,0.87,0.598,1.412c0,0.543-0.199,1.013-0.598,1.412
			c-0.399,0.398-0.87,0.598-1.412,0.598h-5.024c-0.191,0-0.287,0.096-0.287,0.287v8.613c0,0.606-0.216,1.125-0.646,1.555
			c-0.432,0.432-0.941,0.646-1.531,0.646c-0.591,0-1.102-0.215-1.531-0.646c-0.432-0.43-0.646-0.948-0.646-1.555v-8.613
			c0-0.191-0.112-0.287-0.335-0.287h-3.062c-0.543,0-1.013-0.199-1.411-0.598c-0.399-0.399-0.599-0.869-0.599-1.412
			c0-0.542,0.199-1.013,0.599-1.412c0.398-0.398,0.868-0.598,1.411-0.598h3.062c0.223,0,0.335-0.096,0.335-0.287V9.143
			c0-0.191-0.112-0.287-0.335-0.287h-11.58c-0.191,0-0.287,0.096-0.287,0.287v2.058c0,0.191,0.096,0.287,0.287,0.287h3.254
			c0.542,0,1.013,0.199,1.411,0.598c0.399,0.399,0.599,0.87,0.599,1.412c0,0.543-0.199,1.013-0.599,1.412
			c-0.398,0.398-0.869,0.598-1.411,0.598h-3.254c-0.191,0-0.287,0.096-0.287,0.287v8.183c0,0.606-0.208,1.117-0.622,1.531
			c-0.415,0.415-0.926,0.622-1.531,0.622c-0.606,0-1.117-0.207-1.531-0.622c-0.415-0.414-0.622-0.925-0.622-1.531v-8.183
			c0-0.191-0.112-0.287-0.335-0.287h-3.062c-0.543,0-1.013-0.199-1.412-0.598c-0.398-0.399-0.598-0.869-0.598-1.412
			c0-0.542,0.199-1.013,0.598-1.412c0.399-0.398,0.869-0.598,1.412-0.598h3.062c0.223,0,0.335-0.096,0.335-0.287V9.143z
			 M63.083,37.663c-0.447-0.446-0.622-0.973-0.526-1.579c0.096-0.605,0.414-1.053,0.957-1.34c0.701-0.318,1.436-0.431,2.201-0.335
			s1.419,0.415,1.962,0.957c1.053,1.021,2.105,2.105,3.158,3.254c0.829,0.926,1.547,1.787,2.153,2.584
			c0.446,0.574,0.582,1.22,0.406,1.938c-0.175,0.717-0.582,1.235-1.22,1.555l-0.383,0.239c-0.606,0.287-1.213,0.343-1.818,0.167
			c-0.606-0.175-1.117-0.534-1.531-1.076c-0.064-0.096-0.176-0.144-0.335-0.144c-8.582,0.351-17.402,0.653-26.462,0.909
			c-0.67,0-1.261-0.224-1.771-0.67c-0.511-0.447-0.798-1.021-0.861-1.723c-0.064-0.639,0.127-1.196,0.574-1.675
			c0.446-0.479,0.988-0.718,1.627-0.718c1.212-0.031,2.711-0.063,4.498-0.096c0.223,0,0.414-0.048,0.574-0.144
			c0.479-0.318,1.34-0.909,2.584-1.771c0.191-0.127,0.207-0.255,0.048-0.383c-1.659-1.34-3.621-2.695-5.886-4.067
			c-0.511-0.318-0.798-0.79-0.861-1.411c-0.064-0.623,0.144-1.125,0.622-1.508c0.542-0.51,1.188-0.806,1.938-0.885
			c0.749-0.08,1.442,0.071,2.081,0.454c0.031,0,0.048,0.017,0.048,0.048c0.159,0.064,0.287,0.048,0.383-0.048
			c1.212-1.116,2.28-2.201,3.206-3.254c0.51-0.574,1.132-0.933,1.866-1.077c0.733-0.143,1.436-0.039,2.105,0.312
			c0.574,0.319,0.901,0.806,0.98,1.46c0.08,0.653-0.119,1.188-0.598,1.603c-1.372,1.213-2.616,2.281-3.732,3.206
			c-0.16,0.128-0.16,0.256,0,0.383c1.084,0.766,1.834,1.292,2.249,1.579c0.159,0.128,0.318,0.128,0.479,0
			c2.01-1.562,3.859-3.158,5.551-4.785c0.605-0.542,1.308-0.869,2.105-0.981c0.797-0.111,1.562,0.041,2.297,0.455
			c0.574,0.319,0.893,0.813,0.957,1.483c0.063,0.67-0.176,1.213-0.718,1.627c-2.967,2.425-6.301,4.897-10.001,7.417
			c-0.032,0.032-0.04,0.072-0.024,0.119c0.017,0.049,0.04,0.072,0.072,0.072l10.479-0.239c0.063,0,0.111-0.024,0.144-0.071
			c0.031-0.049,0.016-0.104-0.048-0.168C64.104,38.732,63.593,38.174,63.083,37.663z M41.215,17.087
			c0.318-0.318,0.693-0.479,1.125-0.479c0.43,0,0.805,0.16,1.124,0.479c0.318,0.319,0.479,0.687,0.479,1.101v0.431
			c0,2.903-0.511,5.248-1.531,7.034c-0.224,0.383-0.574,0.582-1.053,0.598c-0.479,0.017-0.894-0.119-1.244-0.406
			c-0.352-0.287-0.566-0.653-0.646-1.101c-0.08-0.446-0.009-0.877,0.215-1.292c0.701-1.244,1.053-2.902,1.053-4.977v-0.287
			C40.736,17.773,40.896,17.406,41.215,17.087z M54.565,22.494c0,0.415-0.16,0.782-0.479,1.101
			c-0.319,0.319-0.694,0.479-1.124,0.479c-0.432,0-0.807-0.159-1.125-0.479c-0.319-0.318-0.479-0.686-0.479-1.101v-4.211
			c0-0.446,0.159-0.829,0.479-1.148c0.318-0.318,0.693-0.479,1.125-0.479c0.43,0,0.805,0.16,1.124,0.479
			c0.318,0.319,0.479,0.702,0.479,1.148V22.494z M57.676,17.087c0.318-0.318,0.693-0.479,1.125-0.479c0.43,0,0.805,0.16,1.124,0.479
			c0.318,0.319,0.479,0.687,0.479,1.101v0.383c0,2.775-0.511,5.009-1.531,6.699c-0.224,0.415-0.591,0.63-1.101,0.646
			c-0.511,0.016-0.957-0.136-1.34-0.455c-0.352-0.255-0.559-0.622-0.622-1.101c-0.064-0.479,0.031-0.909,0.287-1.292
			c0.733-1.18,1.101-2.728,1.101-4.642v-0.239C57.197,17.773,57.356,17.406,57.676,17.087z M71.648,23.594h0.526
			c0.127,0,0.223-0.008,0.287-0.024c0.063-0.016,0.127-0.055,0.191-0.119c0.063-0.096,0.144-0.271,0.239-0.526
			c0.031-0.159,0.063-0.462,0.096-0.909c0.031-0.287,0.175-0.502,0.431-0.646c0.255-0.143,0.526-0.135,0.813,0.024
			c0.861,0.415,1.26,1.037,1.196,1.866c-0.096,0.766-0.224,1.34-0.383,1.723c-0.224,0.447-0.511,0.766-0.861,0.957
			c-0.16,0.128-0.335,0.224-0.526,0.287c-0.319,0.128-0.734,0.191-1.244,0.191h-1.579c-0.957,0-1.691-0.271-2.201-0.813
			c-0.479-0.574-0.718-1.754-0.718-3.541v-3.78c0-0.446,0.168-0.838,0.502-1.172c0.336-0.336,0.726-0.503,1.173-0.503
			c0.446,0,0.837,0.167,1.173,0.503c0.334,0.334,0.502,0.726,0.502,1.172v4.115c0,0.574,0.016,0.909,0.048,1.005
			C71.345,23.531,71.457,23.594,71.648,23.594z"/>
		<path d="M93.66,33.643c0.639-0.191,1.229-0.111,1.771,0.239c0.541,0.352,0.877,0.846,1.004,1.483
			c0.096,0.67-0.039,1.309-0.406,1.914c-0.367,0.606-0.869,1.005-1.508,1.196c-2.424,0.734-5.455,1.659-9.091,2.775
			c-2.233,0.67-4.004,1.212-5.312,1.627c-0.734,0.223-1.428,0.144-2.082-0.239c-0.653-0.383-1.076-0.941-1.268-1.675l-0.191-0.718
			c-0.128-0.542-0.04-1.061,0.264-1.556c0.303-0.494,0.725-0.805,1.268-0.933c0.127-0.031,0.191-0.111,0.191-0.239v-13.59
			c0-0.67,0.223-1.228,0.67-1.675c0.446-0.446,0.997-0.67,1.65-0.67c0.654,0,1.204,0.224,1.651,0.67
			c0.446,0.447,0.67,1.005,0.67,1.675v12.346c0,0.191,0.096,0.256,0.287,0.191l1.483-0.383c0.191-0.063,0.287-0.191,0.287-0.383
			V18.522c0-0.191-0.096-0.287-0.287-0.287h-2.823c-0.926,0-1.715-0.327-2.368-0.981c-0.654-0.653-0.981-1.442-0.981-2.368v-9.57
			c0-0.925,0.327-1.715,0.981-2.368c0.653-0.654,1.442-0.981,2.368-0.981h9.81c0.925,0,1.715,0.327,2.37,0.981
			c0.652,0.653,0.98,1.443,0.98,2.368v9.57c0,0.926-0.328,1.715-0.98,2.368c-0.654,0.654-1.445,0.981-2.37,0.981h-1.292
			c-0.191,0-0.287,0.096-0.287,0.287v4.45c0,0.191,0.096,0.287,0.287,0.287h3.062c0.701,0,1.293,0.239,1.771,0.718
			s0.717,1.069,0.717,1.771c0,0.702-0.238,1.292-0.717,1.771s-1.07,0.718-1.771,0.718h-3.062c-0.191,0-0.287,0.096-0.287,0.287v5.79
			c0,0.191,0.096,0.256,0.287,0.191L93.66,33.643z M83.755,6.846c-0.191,0-0.287,0.096-0.287,0.287v5.886
			c0,0.191,0.096,0.287,0.287,0.287h5.742c0.191,0,0.287-0.096,0.287-0.287V7.134c0-0.191-0.096-0.287-0.287-0.287H83.755z
			 M115.863,27.423c0.574-0.51,1.244-0.766,2.01-0.766s1.436,0.271,2.01,0.813c0.543,0.479,0.791,1.085,0.742,1.818
			c-0.047,0.734-0.375,1.324-0.98,1.771c-1.34,0.957-2.809,1.946-4.402,2.967c-0.16,0.096-0.191,0.224-0.096,0.383
			c1.402,2.138,3.045,3.828,4.928,5.072c0.639,0.415,1.014,0.997,1.125,1.747c0.111,0.749-0.057,1.427-0.502,2.033
			c-0.543,0.701-1.213,1.164-2.01,1.388c-0.799,0.223-1.564,0.111-2.297-0.335c-2.234-1.563-4.084-3.572-5.551-6.029
			c0-0.031-0.018-0.04-0.049-0.023c-0.031,0.016-0.047,0.04-0.047,0.071c0.062,0.639-0.018,1.236-0.24,1.794
			c-0.223,0.559-0.566,1.046-1.027,1.46c-0.463,0.414-0.998,0.686-1.604,0.813c-1.404,0.351-3.016,0.733-4.834,1.148
			c-1.723,0.383-3.174,0.701-4.354,0.957c-0.766,0.159-1.477,0.04-2.129-0.359c-0.654-0.398-1.062-0.98-1.221-1.746
			c-0.191-0.734-0.08-1.419,0.334-2.058c0.414-0.638,1.006-1.021,1.771-1.148c0.062,0,0.127-0.016,0.191-0.048
			c0.191-0.031,0.287-0.144,0.287-0.335v-33.4c0-0.925,0.326-1.715,0.98-2.368c0.654-0.654,1.443-0.981,2.369-0.981h15.121
			c0.924,0,1.715,0.327,2.369,0.981c0.652,0.653,0.98,1.443,0.98,2.368v16.27c0,0.926-0.328,1.715-0.98,2.368
			c-0.654,0.654-1.445,0.981-2.369,0.981h-4.738c-0.191,0-0.271,0.096-0.238,0.287c0.318,1.276,0.766,2.696,1.34,4.259
			c0.062,0.191,0.174,0.224,0.334,0.096C114.109,28.906,115.033,28.157,115.863,27.423z M114.093,7.421
			c0-0.191-0.096-0.287-0.287-0.287h-10.002c-0.191,0-0.287,0.096-0.287,0.287v3.158c0,0.191,0.096,0.287,0.287,0.287h10.002
			c0.191,0,0.287-0.096,0.287-0.287V7.421z M103.517,19.671c0,0.191,0.096,0.287,0.287,0.287h10.002
			c0.191,0,0.287-0.096,0.287-0.287V16.13c0-0.191-0.096-0.287-0.287-0.287h-10.002c-0.191,0-0.287,0.096-0.287,0.287V19.671z
			 M103.804,25.03c-0.191,0-0.287,0.096-0.287,0.287v12.394c0,0.191,0.096,0.271,0.287,0.239c1.34-0.287,3.27-0.686,5.791-1.196
			c0.191-0.031,0.238-0.144,0.143-0.335c-1.562-2.998-2.775-6.699-3.637-11.102c-0.031-0.191-0.143-0.287-0.334-0.287H103.804z"/>
		<path d="M168.322,9.742c0.541,0.525,0.812,0.789,0.812,0.789s0,0.375,0,1.125c0,0.749-0.264,1.387-0.789,1.914
			c-0.527,0.525-1.172,0.789-1.938,0.789h-0.049c-0.16,0-0.256,0.08-0.287,0.239c-1.18,7.529-3.014,13.638-5.502,18.327
			c-0.096,0.191-0.096,0.367,0,0.526c1.785,2.361,3.844,4.291,6.172,5.79c0.639,0.415,1.021,1.005,1.148,1.771
			s-0.047,1.451-0.525,2.058c-0.607,0.733-1.324,1.204-2.154,1.412c-0.83,0.207-1.627,0.071-2.393-0.407
			c-2.105-1.468-4.035-3.317-5.789-5.551c-0.129-0.159-0.271-0.159-0.432,0c-2.074,2.297-4.449,4.259-7.129,5.886
			c-0.703,0.414-1.443,0.502-2.227,0.264c-0.781-0.24-1.41-0.727-1.889-1.46c-0.416-0.639-0.535-1.34-0.359-2.105
			s0.613-1.323,1.316-1.675c2.838-1.627,5.199-3.637,7.082-6.029c0.127-0.159,0.143-0.335,0.047-0.526
			c-1.436-2.775-2.711-6.188-3.828-10.24c0-0.031-0.023-0.056-0.072-0.071c-0.047-0.017-0.088-0.008-0.119,0.023
			c-0.383,0.574-0.926,0.885-1.627,0.934c-0.701,0.047-1.309-0.184-1.818-0.694c-0.287-0.223-0.574-0.462-0.861-0.718v0.048
			c0,0.287-0.16,0.431-0.479,0.431h-4.785c-0.191,0-0.287,0.096-0.287,0.287v9.475c0,0.191,0.096,0.271,0.287,0.239
			c0.734-0.159,1.787-0.398,3.158-0.718c0.256-0.031,0.527-0.079,0.814-0.144c0.67-0.159,1.299-0.024,1.889,0.407
			c0.592,0.43,0.918,0.997,0.982,1.698c0.062,0.766-0.137,1.46-0.6,2.081c-0.461,0.623-1.061,1.029-1.793,1.221
			c-2.648,0.606-5.918,1.34-9.811,2.201c-3.189,0.67-5.727,1.213-7.607,1.627c-0.799,0.191-1.539,0.056-2.227-0.406
			c-0.686-0.463-1.092-1.093-1.219-1.891l-0.096-0.622c-0.129-0.67,0-1.269,0.383-1.794c0.383-0.527,0.893-0.838,1.531-0.934
			c0.158-0.031,0.238-0.127,0.238-0.287V17.039c0-0.733,0.256-1.355,0.766-1.866c0.51-0.51,1.125-0.766,1.842-0.766
			c0.719,0,1.332,0.256,1.844,0.766c0.51,0.511,0.766,1.133,0.766,1.866v16.987c0,0.191,0.096,0.271,0.287,0.239l2.535-0.479
			c0.223-0.031,0.336-0.144,0.336-0.335V8.808c0-0.191-0.113-0.287-0.336-0.287h-6.699c-0.766,0-1.42-0.271-1.961-0.813
			c-0.543-0.542-0.814-1.204-0.814-1.985c0-0.782,0.271-1.443,0.814-1.986c0.541-0.542,1.195-0.813,1.961-0.813h16.844
			c0.797,0,1.467,0.271,2.01,0.813c0.543,0.543,0.814,1.204,0.814,1.986c0,0.781-0.271,1.443-0.814,1.985
			c-0.543,0.543-1.213,0.813-2.01,0.813h-3.828c-0.191,0-0.287,0.096-0.287,0.287V16.8c0,0.191,0.096,0.287,0.287,0.287h4.115
			c0.318,0,0.59,0.112,0.814,0.335c0.223,0.224,0.334,0.495,0.334,0.813c2.457-3.828,4.307-8.932,5.551-15.312
			c0.16-0.797,0.566-1.436,1.221-1.914s1.379-0.653,2.178-0.526c0.797,0.128,1.436,0.519,1.914,1.172
			c0.479,0.654,0.621,1.364,0.43,2.13c-0.287,1.436-0.67,3.062-1.148,4.881c-0.031,0.191,0.049,0.287,0.24,0.287h10.91
			C167.14,8.952,167.779,9.215,168.322,9.742z M153.775,14.359c-0.191,0-0.336,0.096-0.432,0.287l-0.047,0.048
			c-0.064,0.191-0.08,0.383-0.049,0.574c0.766,4.147,1.945,8.071,3.541,11.771c0.031,0.064,0.072,0.096,0.119,0.096
			c0.049,0,0.088-0.031,0.121-0.096c1.467-3.477,2.52-7.608,3.158-12.394c0.031-0.191-0.064-0.287-0.287-0.287H153.775z"/>
		<path d="M186.263,13.45c0.35-0.797,0.9-1.38,1.65-1.747c0.75-0.366,1.523-0.438,2.32-0.215c0.766,0.191,1.324,0.646,1.676,1.363
			c0.35,0.719,0.35,1.429,0,2.13c-0.67,1.404-1.404,2.76-2.201,4.067c-0.129,0.16-0.191,0.335-0.191,0.526v23.543
			c0,0.766-0.264,1.411-0.791,1.938c-0.525,0.525-1.172,0.789-1.938,0.789s-1.412-0.264-1.938-0.789
			c-0.527-0.527-0.789-1.173-0.789-1.938V26.944c0-0.031-0.025-0.063-0.072-0.096c-0.049-0.031-0.088-0.016-0.119,0.048
			c-0.32,0.319-0.623,0.622-0.91,0.909c-0.543,0.511-1.18,0.718-1.914,0.622s-1.355-0.431-1.865-1.005
			c-0.033-0.031-0.072-0.04-0.121-0.024c-0.047,0.017-0.07,0.041-0.07,0.072c-0.543,6.508-1.66,11.804-3.35,15.887
			c-0.287,0.67-0.807,1.093-1.557,1.268c-0.748,0.176-1.428,0.04-2.033-0.406c-0.67-0.415-1.125-1.013-1.363-1.795
			c-0.24-0.781-0.215-1.538,0.072-2.272c1.945-5.04,2.918-12.281,2.918-21.725V8.426c0-0.925,0.328-1.715,0.98-2.369
			c0.654-0.653,1.443-0.98,2.369-0.98h14.068c0.191,0,0.287-0.096,0.287-0.287V3.114c0-0.829,0.295-1.539,0.885-2.13
			c0.592-0.59,1.301-0.885,2.131-0.885c0.828,0,1.539,0.295,2.129,0.885c0.59,0.591,0.885,1.301,0.885,2.13v1.675
			c0,0.191,0.111,0.287,0.336,0.287h14.738c0.732,0,1.363,0.264,1.889,0.789c0.527,0.527,0.791,1.165,0.791,1.914
			c0,0.75-0.264,1.389-0.791,1.914c-0.525,0.527-1.156,0.79-1.889,0.79H179.66c-0.225,0-0.336,0.096-0.336,0.287v7.656
			c0,0.926-0.016,2.553-0.047,4.881c0,0.032,0.023,0.064,0.07,0.096c0.049,0.032,0.088,0.032,0.121,0
			c1.658-1.69,3.189-3.652,4.594-5.886C184.923,16.146,185.656,14.79,186.263,13.45z M213.011,17.469
			c0.734,0,1.363,0.263,1.891,0.79c0.525,0.525,0.789,1.156,0.789,1.89c0,0.734-0.264,1.364-0.789,1.89
			c-0.527,0.527-1.156,0.79-1.891,0.79h-2.152c-0.225,0-0.336,0.096-0.336,0.287v16.27c0,1.531-0.184,2.711-0.551,3.541
			c-0.365,0.829-1.012,1.451-1.938,1.866c-1.117,0.51-3.014,0.829-5.693,0.957c-0.83,0.031-1.572-0.224-2.227-0.766
			c-0.652-0.543-1.123-1.229-1.41-2.058c-0.225-0.639-0.145-1.244,0.238-1.818s0.91-0.845,1.58-0.813c1.02,0,2.105,0,3.254,0
			c0.766,0,1.148-0.318,1.148-0.957V23.116c0-0.191-0.096-0.287-0.287-0.287h-9.619c-0.734,0-1.363-0.263-1.891-0.79
			c-0.525-0.525-0.789-1.155-0.789-1.89c0-0.733,0.264-1.364,0.789-1.89c0.527-0.527,1.156-0.79,1.891-0.79h9.619
			c0.191,0,0.287-0.096,0.287-0.287v-3.015c0-0.766,0.27-1.419,0.812-1.962c0.543-0.542,1.205-0.813,1.986-0.813
			s1.443,0.271,1.986,0.813c0.541,0.543,0.812,1.196,0.812,1.962v3.015c0,0.191,0.111,0.287,0.336,0.287H213.011z M193.919,29.05
			c-0.352-0.574-0.432-1.18-0.24-1.818c0.191-0.638,0.59-1.084,1.197-1.34c0.67-0.287,1.363-0.327,2.08-0.12
			c0.719,0.208,1.27,0.615,1.652,1.221c0.988,1.563,1.818,3.079,2.488,4.546c0.287,0.702,0.287,1.396,0,2.081
			c-0.287,0.687-0.783,1.189-1.484,1.508c-0.639,0.319-1.283,0.335-1.938,0.048s-1.125-0.766-1.412-1.436
			C195.658,32.208,194.876,30.645,193.919,29.05z"/>
		<path d="M234.771,2.54c1.211-1.627,2.775-2.44,4.689-2.44s3.508,0.798,4.785,2.393c2.232,2.775,4.785,5.328,7.656,7.656
			c2.775,2.233,5.598,4.052,8.469,5.455c0.734,0.383,1.197,0.965,1.389,1.746c0.191,0.782,0.062,1.492-0.383,2.13
			c-0.543,0.766-1.244,1.261-2.105,1.483c-0.861,0.224-1.691,0.112-2.488-0.335c-1.531-0.925-3.047-1.914-4.547-2.967
			c-0.031-0.063-0.08-0.079-0.143-0.048c-0.064,0.032-0.096,0.08-0.096,0.144c0,0.861-0.312,1.603-0.934,2.226
			c-0.623,0.621-1.363,0.933-2.225,0.933h-17.992c-0.861,0-1.596-0.303-2.201-0.909c-0.607-0.605-0.91-1.34-0.91-2.201
			c0-0.063-0.031-0.104-0.096-0.119c-0.064-0.017-0.111-0.008-0.143,0.023c-1.531,1.085-3.111,2.122-4.738,3.11
			c-0.701,0.415-1.443,0.511-2.225,0.287c-0.781-0.223-1.428-0.67-1.938-1.34c-0.447-0.574-0.607-1.228-0.479-1.962
			c0.127-0.733,0.494-1.275,1.1-1.627c3.094-1.786,6.061-3.939,8.9-6.46C230.798,7.294,233.015,4.901,234.771,2.54z M227.402,45.893
			c-0.799,0-1.477-0.279-2.035-0.837c-0.557-0.559-0.836-1.237-0.836-2.034V29.145c0-0.925,0.326-1.715,0.98-2.368
			c0.654-0.654,1.443-0.981,2.369-0.981h24.451c0.926,0,1.715,0.327,2.369,0.981c0.654,0.653,0.98,1.443,0.98,2.368v13.733
			c0,0.829-0.295,1.539-0.885,2.129c-0.59,0.591-1.285,0.886-2.082,0.886h-1.291c-0.479,0-0.887-0.167-1.221-0.503
			c-0.336-0.334-0.502-0.741-0.502-1.22c0-0.096-0.049-0.144-0.145-0.144h-19.141c-0.096,0-0.143,0.048-0.143,0.144
			c0,0.479-0.168,0.886-0.504,1.22c-0.334,0.336-0.74,0.503-1.219,0.503H227.402z M230.273,15.603
			c-0.033,0.032-0.041,0.072-0.025,0.119c0.018,0.049,0.057,0.072,0.121,0.072h19.092c0.031,0,0.057-0.023,0.072-0.072
			c0.016-0.047,0.008-0.087-0.023-0.119c-4.148-3.254-7.354-6.412-9.619-9.475c-0.031-0.063-0.088-0.096-0.168-0.096
			c-0.078,0-0.135,0.032-0.166,0.096C237.482,9.128,234.388,12.286,230.273,15.603z M249.701,31.203
			c0-0.191-0.096-0.287-0.287-0.287h-18.807c-0.223,0-0.334,0.096-0.334,0.287v7.465c0,0.191,0.111,0.287,0.334,0.287h18.807
			c0.191,0,0.287-0.096,0.287-0.287V31.203z"/>
		<path d="M273.603,3.018c0.318-0.766,0.854-1.332,1.602-1.698c0.75-0.367,1.523-0.423,2.322-0.168
			c0.766,0.224,1.322,0.702,1.674,1.436c0.352,0.734,0.367,1.468,0.049,2.201c-1.021,2.425-2.17,4.802-3.445,7.13
			c-0.096,0.191-0.145,0.383-0.145,0.574v30.29c0,0.829-0.287,1.531-0.861,2.105s-1.268,0.861-2.082,0.861
			c-0.812,0-1.506-0.287-2.08-0.861s-0.861-1.276-0.861-2.105V21.537c0-0.031-0.025-0.056-0.072-0.072
			c-0.049-0.016-0.088-0.007-0.119,0.024c-0.16,0.191-0.383,0.447-0.67,0.766c-0.512,0.574-1.148,0.806-1.914,0.694
			c-0.766-0.112-1.324-0.519-1.676-1.221c-0.031-0.031-0.047-0.063-0.047-0.096c-0.033-0.063-0.064-0.127-0.096-0.191
			c-0.447-0.861-0.615-1.778-0.504-2.752c0.113-0.973,0.471-1.842,1.078-2.607c1.436-1.658,2.807-3.572,4.115-5.742
			C271.306,7.979,272.55,5.539,273.603,3.018z M309.779,10.818c0,0.734-0.271,1.372-0.814,1.914
			c-0.543,0.543-1.18,0.813-1.914,0.813h-10.91c-0.191,0-0.287,0.096-0.287,0.287v4.594c0,0.191,0.096,0.287,0.287,0.287h9.811
			c0.732,0,1.355,0.256,1.865,0.766c0.51,0.511,0.766,1.133,0.766,1.866c0,0.734-0.256,1.356-0.766,1.866
			c-0.51,0.511-1.133,0.766-1.865,0.766h-9.811c-0.191,0-0.287,0.096-0.287,0.287v4.977c0,0.191,0.096,0.287,0.287,0.287h10.385
			c0.732,0,1.363,0.263,1.889,0.79c0.527,0.525,0.791,1.164,0.791,1.914c0,0.749-0.264,1.387-0.791,1.914
			c-0.525,0.525-1.156,0.789-1.889,0.789H296.14c-0.191,0-0.287,0.096-0.287,0.287v7.608c0,0.829-0.287,1.531-0.861,2.105
			s-1.275,0.861-2.105,0.861s-1.531-0.287-2.105-0.861s-0.861-1.276-0.861-2.105V13.833c0-0.191-0.096-0.287-0.287-0.287h-1.291
			c-0.191,0-0.336,0.096-0.432,0.287c-1.371,2.521-2.84,4.817-4.402,6.891c-0.479,0.606-1.125,0.926-1.938,0.957
			c-0.814,0.032-1.508-0.223-2.082-0.766c-0.605-0.542-0.941-1.22-1.004-2.034c-0.064-0.812,0.158-1.522,0.67-2.129
			c1.371-1.723,2.695-3.7,3.971-5.934c1.34-2.456,2.488-4.96,3.445-7.513c0.287-0.797,0.789-1.388,1.508-1.771
			c0.717-0.383,1.475-0.479,2.273-0.287c0.766,0.191,1.34,0.63,1.723,1.316c0.383,0.686,0.43,1.396,0.143,2.129
			c-0.383,0.989-0.812,2.01-1.291,3.062c-0.033,0.064-0.033,0.128,0,0.191c0.031,0.064,0.078,0.096,0.143,0.096h15.982
			c0.734,0,1.371,0.271,1.914,0.813C309.507,9.399,309.779,10.052,309.779,10.818z"/>
		<path d="M326.878,30.198c0,0.926-0.326,1.715-0.98,2.368c-0.654,0.654-1.443,0.981-2.369,0.981h-5.359
			c-0.191,0-0.287,0.096-0.287,0.287v1.005c0,0.734-0.256,1.356-0.766,1.866c-0.51,0.511-1.125,0.766-1.842,0.766
			c-0.719,0-1.332-0.255-1.842-0.766c-0.512-0.51-0.766-1.132-0.766-1.866V7.66c0-0.925,0.326-1.715,0.98-2.369
			c0.654-0.653,1.443-0.98,2.369-0.98h7.512c0.926,0,1.715,0.327,2.369,0.98c0.654,0.654,0.98,1.444,0.98,2.369V30.198z
			 M321.855,10.148c0-0.191-0.096-0.287-0.287-0.287h-3.398c-0.191,0-0.287,0.096-0.287,0.287v17.418
			c0,0.191,0.096,0.287,0.287,0.287h3.398c0.191,0,0.287-0.096,0.287-0.287V10.148z M355.111,13.45c0,0.926-0.326,1.715-0.98,2.368
			c-0.654,0.654-1.443,0.981-2.369,0.981h-16.125c-0.191,0-0.287,0.096-0.287,0.287v1.914c0,10.655-1.723,18.662-5.168,24.021
			c-0.383,0.605-0.957,0.957-1.723,1.053s-1.453-0.08-2.059-0.526c-0.574-0.415-0.941-0.957-1.1-1.627
			c-0.16-0.67-0.049-1.308,0.334-1.914c0.605-0.957,1.148-1.962,1.627-3.015c0.83-1.945,1.428-4.02,1.795-6.221
			s0.605-4.155,0.717-5.862c0.113-1.706,0.168-3.676,0.168-5.909V5.459c0-0.925,0.328-1.715,0.98-2.369
			c0.654-0.653,1.443-0.98,2.369-0.98h18.471c0.926,0,1.715,0.327,2.369,0.98c0.654,0.654,0.98,1.444,0.98,2.369V13.45z
			 M349.656,7.516c0-0.191-0.096-0.287-0.287-0.287h-13.732c-0.191,0-0.287,0.096-0.287,0.287v3.828
			c0,0.191,0.096,0.287,0.287,0.287h13.732c0.191,0,0.287-0.096,0.287-0.287V7.516z M344.966,40.103h4.738
			c0.797,0,1.307-0.383,1.531-1.148c0.158-0.51,0.27-1.467,0.334-2.871c0.064-0.574,0.352-1.005,0.861-1.292
			s1.053-0.303,1.627-0.048c0.734,0.319,1.332,0.798,1.795,1.436c0.463,0.639,0.629,1.34,0.502,2.105
			c-0.287,2.297-0.766,3.955-1.436,4.977c-0.893,1.34-2.457,2.01-4.689,2.01h-6.029c-2.584,0-4.314-0.502-5.191-1.508
			c-0.877-1.004-1.316-2.91-1.316-5.718V21.106c0-0.766,0.264-1.411,0.789-1.938c0.527-0.525,1.174-0.789,1.939-0.789
			s1.41,0.264,1.938,0.789c0.525,0.527,0.789,1.173,0.789,1.938v5.168c0,0.064,0.031,0.112,0.096,0.144
			c0.064,0.032,0.127,0.032,0.191,0c2.457-1.244,4.609-2.52,6.461-3.828c0.67-0.479,1.418-0.693,2.248-0.646
			c0.83,0.049,1.547,0.359,2.154,0.934c0.541,0.511,0.773,1.141,0.693,1.891c-0.08,0.749-0.439,1.3-1.076,1.65
			c-3.031,1.787-6.525,3.462-10.48,5.024c-0.191,0.064-0.287,0.191-0.287,0.383v6.221c0,0.894,0.104,1.46,0.311,1.698
			C343.667,39.984,344.169,40.103,344.966,40.103z"/>
		<path d="M377.464,26.178c-0.83,1.851-1.932,2.775-3.303,2.775h-0.287c-0.957,0-1.746-0.312-2.369-0.933
			c-0.621-0.623-0.805-1.348-0.549-2.178c0.096-0.287,0.207-0.574,0.334-0.861c0.574-1.18,1.34-2.185,2.297-3.015
			c0.957-0.829,1.922-1.61,2.895-2.345c0.975-0.733,1.818-1.515,2.537-2.345c0.717-0.829,1.076-1.675,1.076-2.536
			c0-1.436-0.551-2.561-1.65-3.373c-1.102-0.814-2.607-1.221-4.521-1.221c-2.105,0-4.053,0.67-5.838,2.01
			c-0.639,0.479-1.324,0.726-2.059,0.742c-0.734,0.016-1.387-0.231-1.961-0.742c-0.574-0.542-0.879-1.188-0.91-1.938
			c-0.031-0.75,0.24-1.38,0.814-1.891c3.029-2.68,6.604-4.02,10.719-4.02c3.668,0,6.635,0.846,8.9,2.536
			c2.264,1.691,3.396,4.115,3.396,7.273c0,1.309-0.367,2.513-1.1,3.612c-0.734,1.102-1.611,2.034-2.633,2.8
			s-2.025,1.531-3.014,2.297c-0.99,0.766-1.803,1.675-2.441,2.728C377.671,25.748,377.56,25.956,377.464,26.178z M370.261,40.605
			c-0.973-0.908-1.459-2.064-1.459-3.469c0-1.403,0.486-2.561,1.459-3.469c0.975-0.91,2.193-1.364,3.662-1.364
			c1.467,0,2.68,0.454,3.637,1.364c0.957,0.908,1.436,2.065,1.436,3.469c0,1.404-0.479,2.561-1.436,3.469
			c-0.957,0.91-2.17,1.364-3.637,1.364C372.455,41.969,371.236,41.515,370.261,40.605z"/>
	</g>
</g>
</svg>
