<svg version="1.1" xmlns="http://www.w3.org/2000/svg" xmlns:xlink="http://www.w3.org/1999/xlink" x="0px" y="0px"
	 width="310.624px" height="44.527px" viewBox="0.474 -0.096 310.624 44.527" enable-background="new 0.474 -0.096 310.624 44.527"
	 xml:space="preserve">
<g>
	<path d="M37.864,18.92c0.186-0.68,0.58-1.221,1.182-1.623c0.604-0.4,1.26-0.541,1.973-0.416c0.68,0.123,1.213,0.479,1.6,1.066
		s0.471,1.221,0.256,1.9c-1.484,5.381-3.371,9.912-5.66,13.59c-0.092,0.156-0.123,0.326-0.092,0.512
		c0.771,3.092,1.592,4.637,2.459,4.637c0.555,0,0.926-1.529,1.111-4.592c0.031-0.463,0.264-0.779,0.697-0.949
		c0.432-0.17,0.834-0.117,1.205,0.162c1.422,1.113,2.025,2.35,1.809,3.709c-0.34,2.289-0.818,3.928-1.438,4.918
		c-0.834,1.328-2.18,1.994-4.035,1.994c-2.133,0-3.941-1.67-5.426-5.01c-0.062-0.186-0.172-0.201-0.326-0.047
		c-1.236,1.424-2.658,2.768-4.266,4.035c-0.619,0.465-1.307,0.65-2.064,0.557c-0.758-0.092-1.414-0.416-1.971-0.973
		c-0.465-0.434-0.682-0.982-0.65-1.646c0.031-0.666,0.309-1.184,0.836-1.555c2.441-1.762,4.574-3.865,6.4-6.309
		c0.123-0.154,0.154-0.324,0.092-0.51c-1.051-5.039-1.762-11.826-2.133-20.361c0-0.186-0.109-0.277-0.324-0.277h-8.674
		c-0.186,0-0.279,0.092-0.279,0.277v4.545c0,0.186,0.094,0.279,0.279,0.279h4.916c0.865,0,1.615,0.316,2.25,0.951
		c0.633,0.633,0.934,1.398,0.904,2.295c-0.062,4.916-0.17,8.412-0.324,10.482c-0.156,2.227-0.449,3.648-0.883,4.268
		c-0.648,0.928-1.529,1.484-2.643,1.67c-0.248,0.062-0.527,0.107-0.836,0.139c-0.896,0.092-1.691-0.17-2.389-0.789
		c-0.695-0.617-1.197-1.406-1.506-2.365c-0.125-0.34-0.248-0.664-0.371-0.975c-0.031-0.061-0.07-0.084-0.117-0.068
		s-0.068,0.039-0.068,0.068c-0.682,3.99-1.902,7.283-3.664,9.881c-0.371,0.586-0.928,0.896-1.67,0.928
		c-0.742,0.029-1.377-0.186-1.902-0.65c-0.557-0.494-0.881-1.098-0.975-1.809c-0.092-0.711,0.047-1.361,0.418-1.947
		c0.959-1.484,1.67-3.139,2.133-4.963c0.031-0.062,0.023-0.109-0.021-0.141c-0.047-0.029-0.102-0.045-0.164-0.045
		c-1.514,0.617-3.586,1.484-6.215,2.596c-1.145,0.465-2.148,0.867-3.014,1.207c-0.742,0.309-1.479,0.295-2.203-0.047
		c-0.727-0.34-1.215-0.896-1.461-1.67c-0.248-0.771-0.18-1.521,0.209-2.25c0.385-0.725,0.965-1.213,1.738-1.461
		c0.525-0.154,1.129-0.34,1.809-0.557c0.186-0.061,0.279-0.186,0.279-0.371V16.787c0-0.186-0.109-0.277-0.326-0.277H3.123
		c-0.711,0-1.322-0.256-1.832-0.766c-0.51-0.512-0.766-1.129-0.766-1.855s0.256-1.346,0.766-1.855s1.121-0.766,1.832-0.766h1.205
		c0.217,0,0.326-0.092,0.326-0.277V3.244c0-0.711,0.254-1.322,0.766-1.832c0.51-0.51,1.127-0.766,1.854-0.766
		s1.346,0.256,1.855,0.766c0.512,0.51,0.766,1.121,0.766,1.832v7.746c0,0.186,0.094,0.277,0.279,0.277h0.787
		c0.742,0,1.369,0.256,1.879,0.766s0.766,1.129,0.766,1.855s-0.256,1.344-0.766,1.855c-0.51,0.51-1.137,0.766-1.879,0.766h-0.787
		c-0.186,0-0.279,0.092-0.279,0.277v12.57c0,0.186,0.094,0.246,0.279,0.186l0.324-0.141c0.803-0.277,1.568-0.199,2.295,0.232
		c0.727,0.434,1.168,1.066,1.322,1.902c0.031,0,0.076,0,0.139,0c0.465-2.412,0.697-5.473,0.697-9.184V9.83
		c0-0.896,0.316-1.662,0.949-2.297c0.635-0.633,1.4-0.949,2.297-0.949h10.76c0.217,0,0.326-0.094,0.326-0.279
		c-0.031-1.391-0.062-2.613-0.094-3.664c0-0.742,0.256-1.367,0.766-1.879c0.51-0.51,1.129-0.766,1.855-0.766
		s1.344,0.256,1.855,0.766c0.51,0.512,0.766,1.137,0.766,1.879c0,1.236,0.014,2.459,0.045,3.664c0,0.186,0.094,0.279,0.279,0.279
		h3.107c0.061,0,0.107-0.031,0.139-0.094c0.031-0.061,0.031-0.107,0-0.139c-0.525-0.836-1.176-1.701-1.947-2.598
		c-0.371-0.434-0.52-0.936-0.441-1.508c0.076-0.572,0.363-1.012,0.857-1.322c0.557-0.309,1.168-0.424,1.832-0.348
		c0.666,0.078,1.23,0.348,1.693,0.812c0.711,0.773,1.33,1.484,1.855,2.133c0.371,0.496,0.486,1.029,0.348,1.602
		S41.729,6.15,41.203,6.49c0,0.062,0.014,0.094,0.045,0.094c0.68,0,1.254,0.23,1.717,0.695c0.465,0.463,0.695,1.02,0.695,1.67v0.23
		c0,0.682-0.254,1.277-0.766,1.787c-0.51,0.51-1.121,0.766-1.832,0.766h-6.215c-0.186,0-0.277,0.092-0.277,0.277
		c0.246,4.947,0.604,9.338,1.066,13.172c0,0.031,0.023,0.047,0.07,0.047c0.045,0,0.068-0.016,0.068-0.047
		C36.549,23.388,37.244,21.302,37.864,18.92z M23.903,21.658c0-0.186-0.109-0.279-0.324-0.279h-3.154
		c-0.186,0-0.279,0.094-0.279,0.279v0.695c0,3.555-0.217,6.709-0.648,9.461c-0.031,0.186,0.047,0.295,0.232,0.324
		c0.711,0.062,1.484,0.094,2.318,0.094c0.525,0,0.928-0.186,1.205-0.557C23.561,31.088,23.778,27.75,23.903,21.658z"/>
	<path d="M89.639,6.885c0.541,0.541,0.812,1.191,0.812,1.947c0,0.758-0.271,1.408-0.812,1.949s-1.184,0.811-1.926,0.811H71.852
		c-0.186,0-0.279,0.094-0.279,0.279v4.359c0,0.186,0.094,0.279,0.279,0.279h11.455c0.896,0,1.662,0.316,2.297,0.949
		c0.633,0.635,0.951,1.4,0.951,2.297V32.65c0,1.422-0.193,2.551-0.58,3.385c-0.387,0.836-1.043,1.455-1.971,1.855
		c-1.145,0.465-2.939,0.742-5.381,0.836c-0.836,0.031-1.594-0.217-2.273-0.742s-1.176-1.223-1.484-2.088
		c-0.248-0.619-0.186-1.213,0.186-1.785s0.896-0.842,1.578-0.812c0.896,0,1.9,0,3.014,0c0.68-0.029,1.021-0.277,1.021-0.742v-10.25
		c0-0.186-0.094-0.279-0.279-0.279h-8.533c-0.186,0-0.279,0.094-0.279,0.279v19.201c0,0.805-0.285,1.492-0.857,2.064
		s-1.26,0.859-2.064,0.859s-1.492-0.287-2.064-0.859s-0.857-1.26-0.857-2.064V22.306c0-0.186-0.092-0.279-0.277-0.279h-7.793
		c-0.186,0-0.277,0.094-0.277,0.279v13.59c0,0.773-0.279,1.438-0.836,1.994s-1.221,0.836-1.994,0.836s-1.438-0.279-1.994-0.836
		s-0.836-1.221-0.836-1.994V19.756c0-0.896,0.318-1.662,0.951-2.297c0.635-0.633,1.398-0.949,2.297-0.949h10.482
		c0.186,0,0.277-0.094,0.277-0.279v-4.359c0-0.186-0.092-0.279-0.277-0.279h-15.4c-0.771,0-1.43-0.27-1.971-0.811
		S47.27,9.59,47.27,8.832c0-0.756,0.27-1.406,0.811-1.947s1.199-0.812,1.971-0.812h15.354c0.186,0,0.277-0.092,0.277-0.277V2.92
		c0-0.836,0.295-1.547,0.883-2.135c0.586-0.586,1.299-0.881,2.133-0.881s1.545,0.295,2.133,0.881
		c0.588,0.588,0.883,1.299,0.883,2.135v2.875c0,0.186,0.092,0.277,0.277,0.277h15.723C88.455,6.072,89.098,6.344,89.639,6.885z"/>
	<path d="M136.348,9.135c0.525,0.525,0.789,1.152,0.789,1.877c0,0.729-0.264,1.354-0.789,1.879
		c-0.525,0.527-1.145,0.789-1.855,0.789h-0.695c-0.186,0-0.293,0.092-0.324,0.277c-1.205,7.082-3.107,12.834-5.705,17.254
		c-0.092,0.156-0.078,0.311,0.047,0.465c1.979,2.504,4.391,4.561,7.234,6.168c0.68,0.371,1.082,0.928,1.207,1.67
		c0.123,0.742-0.047,1.422-0.51,2.041c-0.588,0.711-1.299,1.184-2.135,1.414c-0.834,0.232-1.639,0.133-2.412-0.301
		c-2.658-1.639-4.979-3.68-6.957-6.123c-0.123-0.154-0.248-0.154-0.371,0c-2.535,2.723-5.627,4.994-9.275,6.818
		c-0.805,0.371-1.609,0.426-2.412,0.162c-0.805-0.262-1.453-0.764-1.949-1.506c-0.432-0.619-0.549-1.283-0.348-1.994
		s0.643-1.223,1.322-1.531c3.834-1.732,6.973-4.02,9.416-6.865c0.123-0.154,0.139-0.324,0.047-0.51
		c-1.578-2.969-2.953-6.539-4.129-10.715c-0.031-0.061-0.07-0.092-0.115-0.092c-0.047,0-0.086,0.031-0.117,0.092
		c-0.123,0.186-0.248,0.371-0.371,0.557c-0.432,0.65-1.066,1.021-1.9,1.113c-0.836,0.094-1.578-0.123-2.227-0.648
		c-0.031,0-0.078-0.016-0.139-0.047c-0.062-0.062-0.094-0.047-0.094,0.047c0,0.371-0.139,0.695-0.418,0.973
		c-0.277,0.279-0.602,0.418-0.973,0.418h-2.551c-0.402,0-0.75-0.146-1.045-0.439c-0.293-0.295-0.439-0.643-0.439-1.045
		c0-0.092-0.047-0.139-0.141-0.139h-6.121c-0.186,0-0.279,0.094-0.279,0.279v9.184c0,0.834,0.117,1.352,0.348,1.553
		c0.232,0.201,0.781,0.301,1.646,0.301h4.777c0.742,0,1.223-0.293,1.439-0.881c0.092-0.246,0.186-0.695,0.277-1.344
		c0.062-0.619,0.363-1.068,0.904-1.346c0.541-0.279,1.105-0.309,1.693-0.094c0.742,0.342,1.328,0.836,1.762,1.484
		c0.434,0.65,0.588,1.33,0.465,2.041c-0.342,1.732-0.82,2.969-1.438,3.711c-0.898,1.145-2.428,1.717-4.592,1.717h-6.031
		c-2.596,0-4.359-0.488-5.287-1.461c-0.928-0.975-1.391-2.838-1.391-5.59v-11.41c0-0.896,0.316-1.662,0.951-2.295
		c0.633-0.635,1.398-0.951,2.295-0.951h8.441c0.186,0,0.279-0.094,0.279-0.279V9.179c0-0.186-0.094-0.277-0.279-0.277h-9.09
		c-0.713,0-1.322-0.256-1.832-0.766c-0.512-0.51-0.766-1.121-0.766-1.832s0.254-1.322,0.766-1.832
		c0.51-0.51,1.119-0.766,1.832-0.766h11.549c0.896,0,1.662,0.318,2.295,0.951c0.635,0.635,0.951,1.4,0.951,2.297v9.461
		c0,0.031,0.023,0.055,0.07,0.07s0.084,0.008,0.115-0.023c2.35-3.557,4.158-8.039,5.428-13.451c0.186-0.803,0.617-1.438,1.299-1.902
		c0.68-0.463,1.43-0.625,2.248-0.486c0.82,0.139,1.453,0.549,1.902,1.229c0.447,0.682,0.564,1.424,0.348,2.227
		c-0.309,1.299-0.68,2.629-1.113,3.99c-0.062,0.184,0,0.277,0.186,0.277h12.43C135.203,8.345,135.823,8.609,136.348,9.135z
		 M127.676,13.957c0.029-0.186-0.047-0.277-0.232-0.277h-6.957c-0.186,0-0.264,0.092-0.232,0.277
		c0.957,4.516,2.242,8.412,3.85,11.689c0.031,0.062,0.076,0.092,0.139,0.092s0.107-0.029,0.139-0.092
		C125.834,22.554,126.934,18.658,127.676,13.957z"/>
	<path d="M147.391,18.504c0.896,0,1.662,0.316,2.295,0.951c0.635,0.633,0.951,1.398,0.951,2.295v11.41
		c0,0.186,0.047,0.355,0.139,0.51c1.855,2.721,5.258,4.205,10.205,4.453c2.752,0.123,6.416,0.139,10.992,0.047
		c3.215-0.062,6.061-0.154,8.533-0.279c0.68-0.029,1.223,0.232,1.625,0.789c0.4,0.557,0.494,1.16,0.277,1.809
		c-0.248,0.865-0.703,1.584-1.367,2.156c-0.666,0.572-1.432,0.873-2.297,0.904c-6.277,0.248-12.215,0.248-17.811,0
		c-2.969-0.123-5.473-0.588-7.514-1.391c-1.918-0.773-3.617-1.994-5.102-3.664c-0.125-0.154-0.264-0.17-0.418-0.047
		c-1.391,1.268-2.689,2.428-3.896,3.479c-0.619,0.525-1.338,0.695-2.156,0.51c-0.82-0.186-1.414-0.648-1.785-1.391
		c-0.371-0.834-0.434-1.693-0.186-2.574c0.246-0.881,0.756-1.584,1.529-2.111c1.236-0.803,2.396-1.623,3.479-2.457
		c0.154-0.123,0.232-0.279,0.232-0.465v-9.461c0-0.186-0.092-0.279-0.277-0.279h-2.645c-0.711,0-1.322-0.254-1.832-0.764
		c-0.51-0.512-0.766-1.121-0.766-1.832s0.256-1.322,0.766-1.832c0.51-0.512,1.121-0.766,1.832-0.766H147.391z M150.033,6.304
		c0.557,0.588,0.789,1.283,0.697,2.088c-0.094,0.805-0.465,1.469-1.113,1.994c-0.588,0.494-1.27,0.688-2.041,0.58
		c-0.773-0.109-1.424-0.457-1.949-1.045c-1.02-1.143-2.287-2.365-3.803-3.664c-0.525-0.432-0.789-0.988-0.789-1.67
		c0-0.68,0.264-1.252,0.789-1.715c0.619-0.494,1.322-0.75,2.111-0.766c0.787-0.016,1.49,0.225,2.109,0.719
		C147.621,4.031,148.951,5.191,150.033,6.304z M152.817,18.177c-0.463-0.463-0.695-1.012-0.695-1.646
		c0-0.633,0.232-1.182,0.695-1.646c0.465-0.463,1.004-0.695,1.623-0.695h0.604c0.031,0,0.055-0.016,0.07-0.047
		c0.014-0.029,0.006-0.061-0.023-0.092c-0.527-0.34-1.006-0.65-1.438-0.928c-0.65-0.434-1.029-1.043-1.137-1.832
		c-0.109-0.789,0.1-1.492,0.625-2.111c1.393-1.73,2.582-3.771,3.572-6.121c0.277-0.742,0.758-1.291,1.438-1.646
		s1.375-0.457,2.088-0.303c0.711,0.186,1.236,0.596,1.576,1.23c0.34,0.633,0.371,1.275,0.094,1.924
		c-0.125,0.279-0.248,0.557-0.371,0.836c-0.031,0.062-0.031,0.123,0,0.186c0.029,0.062,0.076,0.092,0.139,0.092h2.83
		c0.186,0,0.277-0.092,0.277-0.277V2.873c0-0.773,0.27-1.43,0.812-1.971c0.539-0.541,1.197-0.812,1.971-0.812
		c0.771,0,1.43,0.271,1.971,0.812s0.812,1.197,0.812,1.971v2.227c0,0.186,0.092,0.277,0.277,0.277h7.746
		c0.68,0,1.252,0.232,1.717,0.695c0.463,0.465,0.695,1.029,0.695,1.693c0,0.666-0.232,1.229-0.695,1.693
		c-0.465,0.463-1.037,0.695-1.717,0.695h-7.746c-0.186,0-0.277,0.094-0.277,0.279v3.479c0,0.186,0.092,0.277,0.277,0.277h9.693
		c0.619,0,1.16,0.232,1.625,0.695c0.463,0.465,0.695,1.014,0.695,1.646c0,0.635-0.232,1.184-0.695,1.646
		c-0.465,0.465-1.006,0.697-1.625,0.697H154.44C153.821,18.875,153.281,18.642,152.817,18.177z M164.783,10.433
		c0-0.186-0.092-0.279-0.277-0.279h-5.428c-0.186,0-0.34,0.078-0.463,0.232c-0.928,1.422-1.855,2.613-2.783,3.57
		c-0.031,0.062-0.031,0.117,0,0.164c0.029,0.045,0.061,0.068,0.092,0.068h8.582c0.186,0,0.277-0.092,0.277-0.277V10.433z
		 M179.949,32c0,0.898-0.316,1.662-0.949,2.297c-0.635,0.633-1.4,0.951-2.297,0.951h-17.486c-0.896,0-1.662-0.318-2.295-0.951
		c-0.635-0.635-0.951-1.398-0.951-2.297v-7.234c0-0.896,0.316-1.662,0.951-2.297c0.633-0.633,1.398-0.951,2.295-0.951h17.486
		c0.896,0,1.662,0.318,2.297,0.951c0.633,0.635,0.949,1.4,0.949,2.297V32z M161.768,25.97c-0.186,0-0.277,0.094-0.277,0.279v4.266
		c0,0.186,0.092,0.279,0.277,0.279h12.061c0.186,0,0.277-0.094,0.277-0.279V26.25c0-0.186-0.092-0.279-0.277-0.279H161.768z"/>
	<path d="M201.508,40.859c-4.205,0-7.885-1.16-11.039-3.479c-0.619-0.465-0.967-1.082-1.043-1.855
		c-0.078-0.773,0.115-1.469,0.578-2.088c0.434-0.586,1.021-0.918,1.764-0.996s1.422,0.1,2.041,0.533
		c2.133,1.453,4.42,2.18,6.863,2.18c2.104,0,3.834-0.564,5.195-1.693c1.359-1.127,2.041-2.713,2.041-4.754
		c0-1.979-0.672-3.531-2.018-4.66s-3.055-1.693-5.125-1.693c-1.855,0-3.572,0.355-5.148,1.066c-1.207,0.525-2.305,0.48-3.293-0.139
		c-1.053-0.65-1.547-1.607-1.484-2.877l0.695-12.197c0.062-0.928,0.418-1.701,1.066-2.32c0.65-0.617,1.438-0.928,2.365-0.928h15.539
		c0.834,0,1.537,0.287,2.109,0.859s0.859,1.268,0.859,2.086c0,0.82-0.287,1.516-0.859,2.088s-1.275,0.857-2.109,0.857H198.03
		c-0.186,0-0.295,0.094-0.326,0.279l-0.602,7.049c0,0.062,0.029,0.109,0.092,0.141s0.123,0.031,0.186,0
		c1.607-0.68,3.402-1.021,5.381-1.021c3.432,0,6.309,0.959,8.627,2.877c2.318,1.916,3.479,4.715,3.479,8.395
		c0,3.834-1.283,6.842-3.85,9.021S205.28,40.859,201.508,40.859z"/>
	<path d="M257.883,20.545c0.896,0,1.662,0.316,2.297,0.949c0.633,0.635,0.949,1.4,0.949,2.297v4.869c0,1.207-0.154,2.127-0.463,2.76
		c-0.309,0.635-0.881,1.121-1.717,1.461c-1.205,0.465-3.215,0.713-6.029,0.742c-0.031,0-0.047,0.018-0.047,0.047
		c0,0.031,0.016,0.062,0.047,0.094c2.938,1.484,6.092,2.643,9.463,3.479c0.648,0.154,1.082,0.549,1.299,1.182
		c0.215,0.635,0.123,1.23-0.279,1.787c-0.525,0.74-1.205,1.281-2.041,1.623c-0.834,0.34-1.654,0.371-2.457,0.092
		c-4.484-1.484-8.566-3.693-12.246-6.633c-0.031-0.029-0.076-0.037-0.139-0.023c-0.062,0.018-0.092,0.055-0.092,0.117v5.982
		c0,0.865-0.295,1.592-0.883,2.18s-1.307,0.883-2.156,0.883c-0.852,0-1.57-0.295-2.156-0.883c-0.588-0.588-0.881-1.314-0.881-2.18
		v-6.121c0-0.031-0.023-0.062-0.07-0.094s-0.102-0.031-0.162,0c-3.588,3.061-7.824,5.426-12.709,7.096
		c-0.805,0.279-1.607,0.256-2.412-0.068s-1.469-0.844-1.994-1.555c-0.402-0.525-0.502-1.098-0.301-1.715
		c0.201-0.619,0.609-1.021,1.229-1.207c2.906-0.771,5.674-1.809,8.303-3.107c3.309-1.639,5.951-3.541,7.932-5.705
		c0.123-0.154,0.186-0.324,0.186-0.51v-2.783c0-0.186-0.094-0.277-0.279-0.277h-8.533c-0.186,0-0.279,0.092-0.279,0.277v5.195
		c0,0.805-0.295,1.5-0.881,2.086c-0.588,0.588-1.291,0.883-2.111,0.883c-0.818,0-1.523-0.295-2.109-0.883
		c-0.588-0.586-0.881-1.281-0.881-2.086v-7.004c0-0.896,0.316-1.662,0.951-2.297c0.633-0.633,1.398-0.949,2.295-0.949h11.549
		c0.186,0,0.279-0.094,0.279-0.279v-1.717c0-0.186-0.094-0.277-0.279-0.277h-15.352c-0.682,0-1.262-0.238-1.74-0.719
		c-0.479-0.479-0.719-1.051-0.719-1.717c0-0.664,0.24-1.236,0.719-1.715c0.479-0.48,1.059-0.721,1.74-0.721h7.328
		c0.186,0,0.246-0.092,0.186-0.277c-0.465-1.268-1.207-2.752-2.227-4.453c-0.094-0.154-0.232-0.232-0.418-0.232h-0.232
		c-0.186,0-0.34,0.078-0.463,0.232c-0.588,0.867-1.205,1.686-1.855,2.459c-0.494,0.588-1.152,0.912-1.971,0.975
		c-0.82,0.061-1.555-0.141-2.203-0.604c-0.557-0.371-0.875-0.889-0.951-1.555c-0.078-0.664,0.115-1.26,0.58-1.785
		c1.576-1.67,2.938-3.633,4.082-5.891c0.34-0.711,0.873-1.244,1.6-1.6s1.461-0.441,2.203-0.256l0.186,0.047
		c0.648,0.186,1.129,0.588,1.438,1.205c0.309,0.619,0.309,1.238,0,1.855c-0.062,0.156-0.016,0.232,0.139,0.232h6.818
		c0.896,0,1.662,0.318,2.297,0.951c0.633,0.633,0.951,1.398,0.951,2.295v0.371c0,0.031,0.021,0.055,0.068,0.07
		s0.086,0.008,0.117-0.023c1.236-1.453,2.303-3.139,3.199-5.055c0.371-0.742,0.92-1.307,1.646-1.693s1.477-0.488,2.25-0.303
		l0.186,0.047c0.68,0.186,1.182,0.596,1.508,1.229c0.324,0.635,0.332,1.262,0.023,1.879c-0.062,0.156-0.018,0.232,0.139,0.232
		h10.668c0.617,0,1.158,0.232,1.623,0.695c0.463,0.465,0.695,1.014,0.695,1.646c0,0.635-0.232,1.184-0.695,1.646
		c-0.465,0.465-1.006,0.695-1.623,0.695h-5.148c-0.062,0-0.109,0.031-0.141,0.094c-0.029,0.062-0.029,0.123,0,0.186
		c0.125,0.217,0.248,0.434,0.371,0.648c0.34,0.619,0.371,1.246,0.094,1.879c-0.279,0.635-0.758,1.061-1.438,1.275
		c-0.713,0.217-1.4,0.162-2.064-0.162c-0.666-0.324-1.168-0.826-1.508-1.508c-0.34-0.648-0.758-1.375-1.252-2.18
		c-0.092-0.154-0.232-0.232-0.418-0.232h-1.715c-0.186,0-0.326,0.078-0.418,0.232c-0.494,0.742-1.082,1.5-1.762,2.273
		c-0.125,0.154-0.186,0.324-0.186,0.51v1.67c0,0.186,0.092,0.277,0.277,0.277h14.379c0.648,0,1.213,0.24,1.693,0.721
		c0.479,0.479,0.719,1.051,0.719,1.715c0,0.666-0.24,1.238-0.719,1.717c-0.48,0.48-1.045,0.719-1.693,0.719h-14.379
		c-0.186,0-0.277,0.092-0.277,0.277v1.717c0,0.186,0.092,0.279,0.277,0.279H257.883z M233.254,13.308
		c-0.031,0-0.045,0.016-0.045,0.047s0.014,0.045,0.045,0.045h6.912c0.123,0,0.186-0.076,0.186-0.23v-1.531
		c0-0.217,0.068-0.395,0.207-0.533c0.141-0.139,0.318-0.209,0.535-0.209v-0.047c-0.031,0-0.062-0.014-0.094-0.045
		c-0.309-0.186-0.48-0.465-0.51-0.836c-0.031-0.371,0.092-0.68,0.371-0.928c0.123-0.123,0.277-0.277,0.463-0.463
		c0.031-0.031,0.039-0.062,0.023-0.094c-0.016-0.029-0.039-0.047-0.068-0.047h-5.381c-0.062,0-0.109,0.031-0.139,0.094
		c-0.031,0.062-0.031,0.123,0,0.186c0.029,0.031,0.061,0.078,0.092,0.139c0.402,0.773,0.434,1.57,0.094,2.389
		c-0.342,0.82-0.914,1.385-1.717,1.693L233.254,13.308z M246.705,25.322c-0.186,0-0.277,0.092-0.277,0.277v3.664
		c0,0.186,0.076,0.34,0.23,0.465c1.422,1.205,3.23,2.41,5.428,3.617c0.061,0.031,0.115,0.031,0.162,0s0.053-0.076,0.023-0.139
		c-0.094-0.34-0.217-0.697-0.371-1.068c-0.248-0.68-0.18-1.32,0.209-1.924c0.385-0.604,0.934-0.904,1.646-0.904
		c0.246,0,0.51,0,0.787,0c0.494,0,0.742-0.217,0.742-0.65v-3.061c0-0.186-0.092-0.277-0.277-0.277H246.705z"/>
	<path d="M305.11,4.681c0.525-0.154,1.035-0.107,1.529,0.139l1.113,0.557c0.525,0.279,0.896,0.689,1.113,1.229
		c0.217,0.543,0.217,1.092,0,1.646c-1.607,3.711-3.787,7.098-6.539,10.158c-0.123,0.156-0.109,0.295,0.047,0.418
		c2.35,1.732,4.822,3.139,7.42,4.221c0.65,0.277,1.059,0.75,1.23,1.414c0.168,0.666,0.053,1.275-0.348,1.832
		c-0.527,0.682-1.006,1.393-1.439,2.135c-0.154,0.248-0.371,0.309-0.648,0.186c-0.031,0-0.047,0.016-0.047,0.045v12.988
		c0,0.771-0.271,1.43-0.811,1.971c-0.543,0.541-1.199,0.812-1.973,0.812h-1.252c-0.434,0-0.797-0.148-1.09-0.441
		c-0.295-0.295-0.441-0.658-0.441-1.09c0-0.094-0.045-0.139-0.139-0.139h-9.508c-0.094,0-0.139,0.045-0.139,0.139
		c0,0.432-0.148,0.795-0.441,1.09c-0.295,0.293-0.656,0.441-1.09,0.441h-1.113c-0.742,0-1.367-0.256-1.879-0.766
		c-0.51-0.512-0.764-1.137-0.764-1.879V28.986c0-0.062-0.031-0.078-0.094-0.047c-0.309,0.154-0.619,0.178-0.928,0.068
		c-0.309-0.107-0.557-0.301-0.742-0.578c-0.277-0.434-0.541-0.82-0.789-1.16c-0.031-0.031-0.062-0.039-0.092-0.023
		c-0.031,0.016-0.047,0.039-0.047,0.07v4.406c0,0.896-0.316,1.662-0.951,2.295c-0.633,0.635-1.398,0.951-2.295,0.951h-8.812
		c-0.186,0-0.279,0.094-0.279,0.279v1.482c0,0.557-0.201,1.037-0.602,1.439c-0.402,0.402-0.891,0.602-1.461,0.602
		c-0.574,0-1.061-0.199-1.461-0.602c-0.402-0.402-0.604-0.883-0.604-1.439V6.072c0-0.896,0.316-1.66,0.951-2.295
		c0.633-0.633,1.398-0.951,2.295-0.951h9.973c0.896,0,1.662,0.318,2.295,0.951c0.635,0.635,0.951,1.398,0.951,2.295v5.52
		c0,0.031,0.023,0.062,0.07,0.094s0.1,0.031,0.162,0c2.812-2.66,5.055-5.736,6.725-9.23c0.371-0.711,0.904-1.236,1.602-1.576
		c0.695-0.34,1.414-0.418,2.156-0.232c0.711,0.186,1.229,0.604,1.553,1.252c0.326,0.65,0.318,1.299-0.023,1.947
		c-0.092,0.186-0.184,0.389-0.277,0.604c-0.031,0.062-0.031,0.125,0,0.186c0.031,0.062,0.076,0.094,0.139,0.094h6.727
		c0-0.031,0.014-0.047,0.045-0.047h0.836C304.985,4.681,305.047,4.681,305.11,4.681z M275.053,7.974
		c0-0.186-0.092-0.277-0.277-0.277h-1.623c-0.186,0-0.279,0.092-0.279,0.277v7.838c0,0.186,0.094,0.279,0.279,0.279h1.623
		c0.186,0,0.277-0.094,0.277-0.279V7.974z M273.153,20.73c-0.186,0-0.279,0.092-0.279,0.277v8.906c0,0.186,0.094,0.277,0.279,0.277
		h1.623c0.186,0,0.277-0.092,0.277-0.277v-8.906c0-0.186-0.092-0.277-0.277-0.277H273.153z M280.666,16.092
		c0.186,0,0.277-0.094,0.277-0.279V7.974c0-0.186-0.092-0.277-0.277-0.277h-1.855c-0.186,0-0.277,0.092-0.277,0.277v7.838
		c0,0.186,0.092,0.279,0.277,0.279H280.666z M278.533,29.914c0,0.186,0.092,0.277,0.277,0.277h1.855
		c0.186,0,0.277-0.092,0.277-0.277v-8.906c0-0.186-0.092-0.277-0.277-0.277h-1.855c-0.186,0-0.277,0.092-0.277,0.277V29.914z
		 M285.397,15.302c-0.031-0.029-0.068-0.039-0.115-0.023s-0.07,0.055-0.07,0.117v8.627c0,0.062,0.031,0.107,0.094,0.139
		c0.061,0.031,0.123,0.031,0.186,0c3.215-1.422,6.168-3.246,8.857-5.473c0.154-0.123,0.17-0.264,0.047-0.418
		c-1.236-1.422-2.318-2.844-3.246-4.268c-0.094-0.154-0.201-0.154-0.324,0c-0.434,0.496-0.898,0.975-1.393,1.438
		c-0.557,0.557-1.221,0.812-1.994,0.766S285.985,15.859,285.397,15.302z M292.215,26.619c-0.031,0-0.039,0.023-0.023,0.07
		s0.039,0.07,0.07,0.07h12.105c0.029,0,0.053-0.023,0.068-0.07s0.008-0.07-0.021-0.07c-2.166-1.266-4.113-2.643-5.846-4.127
		c-0.154-0.123-0.309-0.123-0.463,0C296.313,24.008,294.348,25.383,292.215,26.619z M293.19,37.566c0,0.186,0.092,0.277,0.277,0.277
		h9.23c0.186,0,0.277-0.092,0.277-0.277V32c0-0.186-0.092-0.277-0.277-0.277h-9.23c-0.186,0-0.277,0.092-0.277,0.277V37.566z
		 M302.141,9.644c0.031-0.062,0.031-0.123,0-0.186s-0.078-0.094-0.139-0.094h-7.375c-0.186,0-0.332,0.07-0.441,0.209
		c-0.107,0.141-0.115,0.287-0.023,0.441c1.021,1.547,2.289,3.154,3.805,4.824c0.123,0.154,0.246,0.154,0.371,0
		C299.76,13.261,301.028,11.531,302.141,9.644z"/>
</g>
</svg>
