<svg version="1.1" xmlns="http://www.w3.org/2000/svg" xmlns:xlink="http://www.w3.org/1999/xlink" x="0px" y="0px"
	 width="268.431px" height="44.527px" viewBox="116.692 36.304 268.431 44.527"
	 enable-background="new 116.692 36.304 268.431 44.527" xml:space="preserve">
<g>
	<path d="M154.082,55.32c0.186-0.68,0.58-1.221,1.182-1.623c0.604-0.4,1.26-0.541,1.973-0.416c0.68,0.123,1.213,0.479,1.6,1.066
		s0.471,1.221,0.256,1.9c-1.484,5.381-3.371,9.912-5.66,13.59c-0.092,0.156-0.123,0.326-0.092,0.512
		c0.771,3.092,1.592,4.637,2.459,4.637c0.555,0,0.926-1.529,1.111-4.592c0.031-0.463,0.264-0.779,0.697-0.949
		c0.432-0.17,0.834-0.117,1.205,0.162c1.422,1.113,2.025,2.35,1.809,3.709c-0.34,2.289-0.818,3.928-1.438,4.918
		c-0.834,1.328-2.18,1.994-4.035,1.994c-2.133,0-3.941-1.67-5.426-5.01c-0.062-0.186-0.172-0.201-0.326-0.047
		c-1.236,1.424-2.658,2.768-4.266,4.035c-0.619,0.465-1.307,0.65-2.064,0.557c-0.758-0.092-1.414-0.416-1.971-0.973
		c-0.465-0.434-0.682-0.982-0.65-1.646c0.031-0.666,0.309-1.184,0.836-1.555c2.441-1.762,4.574-3.865,6.4-6.309
		c0.123-0.154,0.154-0.324,0.092-0.51c-1.051-5.039-1.762-11.826-2.133-20.361c0-0.186-0.109-0.277-0.324-0.277h-8.674
		c-0.186,0-0.279,0.092-0.279,0.277v4.545c0,0.186,0.094,0.279,0.279,0.279h4.916c0.865,0,1.615,0.316,2.25,0.951
		c0.633,0.633,0.934,1.398,0.904,2.295c-0.062,4.916-0.17,8.412-0.324,10.482c-0.156,2.227-0.449,3.648-0.883,4.268
		c-0.648,0.928-1.529,1.484-2.643,1.67c-0.248,0.062-0.527,0.107-0.836,0.139c-0.896,0.092-1.691-0.17-2.389-0.789
		c-0.695-0.617-1.197-1.406-1.506-2.365c-0.125-0.34-0.248-0.664-0.371-0.975c-0.031-0.061-0.07-0.084-0.117-0.068
		s-0.068,0.039-0.068,0.068c-0.682,3.99-1.902,7.283-3.664,9.881c-0.371,0.586-0.928,0.896-1.67,0.928
		c-0.742,0.029-1.377-0.186-1.902-0.65c-0.557-0.494-0.881-1.098-0.975-1.809c-0.092-0.711,0.047-1.361,0.418-1.947
		c0.959-1.484,1.67-3.139,2.133-4.963c0.031-0.062,0.023-0.109-0.021-0.141c-0.047-0.029-0.102-0.045-0.164-0.045
		c-1.514,0.617-3.586,1.484-6.215,2.596c-1.145,0.465-2.148,0.867-3.014,1.207c-0.742,0.309-1.479,0.295-2.203-0.047
		c-0.727-0.34-1.215-0.896-1.461-1.67c-0.248-0.771-0.18-1.521,0.209-2.25c0.385-0.725,0.965-1.213,1.738-1.461
		c0.525-0.154,1.129-0.34,1.809-0.557c0.186-0.061,0.279-0.186,0.279-0.371V53.187c0-0.186-0.109-0.277-0.326-0.277h-1.205
		c-0.711,0-1.322-0.256-1.832-0.766c-0.51-0.512-0.766-1.129-0.766-1.855s0.256-1.346,0.766-1.855s1.121-0.766,1.832-0.766h1.205
		c0.217,0,0.326-0.092,0.326-0.277v-7.746c0-0.711,0.254-1.322,0.766-1.832c0.51-0.51,1.127-0.766,1.854-0.766
		s1.346,0.256,1.855,0.766c0.512,0.51,0.766,1.121,0.766,1.832v7.746c0,0.186,0.094,0.277,0.279,0.277h0.787
		c0.742,0,1.369,0.256,1.879,0.766s0.766,1.129,0.766,1.855s-0.256,1.344-0.766,1.855c-0.51,0.51-1.137,0.766-1.879,0.766h-0.787
		c-0.186,0-0.279,0.092-0.279,0.277v12.57c0,0.186,0.094,0.246,0.279,0.186l0.324-0.141c0.803-0.277,1.568-0.199,2.295,0.232
		c0.727,0.434,1.168,1.066,1.322,1.902c0.031,0,0.076,0,0.139,0c0.465-2.412,0.697-5.473,0.697-9.184V46.23
		c0-0.896,0.316-1.662,0.949-2.297c0.635-0.633,1.4-0.949,2.297-0.949h10.76c0.217,0,0.326-0.094,0.326-0.279
		c-0.031-1.391-0.062-2.613-0.094-3.664c0-0.742,0.256-1.367,0.766-1.879c0.51-0.51,1.129-0.766,1.855-0.766
		s1.344,0.256,1.855,0.766c0.51,0.512,0.766,1.137,0.766,1.879c0,1.236,0.014,2.459,0.045,3.664c0,0.186,0.094,0.279,0.279,0.279
		h3.107c0.061,0,0.107-0.031,0.139-0.094c0.031-0.061,0.031-0.107,0-0.139c-0.525-0.836-1.176-1.701-1.947-2.598
		c-0.371-0.434-0.52-0.936-0.441-1.508c0.076-0.572,0.363-1.012,0.857-1.322c0.557-0.309,1.168-0.424,1.832-0.348
		c0.666,0.078,1.23,0.348,1.693,0.812c0.711,0.773,1.33,1.484,1.855,2.133c0.371,0.496,0.486,1.029,0.348,1.602
		s-0.471,1.027-0.996,1.367c0,0.062,0.014,0.094,0.045,0.094c0.68,0,1.254,0.23,1.717,0.695c0.465,0.463,0.695,1.02,0.695,1.67v0.23
		c0,0.682-0.254,1.277-0.766,1.787c-0.51,0.51-1.121,0.766-1.832,0.766h-6.215c-0.186,0-0.277,0.092-0.277,0.277
		c0.246,4.947,0.604,9.338,1.066,13.172c0,0.031,0.023,0.047,0.07,0.047c0.045,0,0.068-0.016,0.068-0.047
		C152.767,59.789,153.463,57.703,154.082,55.32z M140.121,58.058c0-0.186-0.109-0.279-0.324-0.279h-3.154
		c-0.186,0-0.279,0.094-0.279,0.279v0.695c0,3.555-0.217,6.709-0.648,9.461c-0.031,0.186,0.047,0.295,0.232,0.324
		c0.711,0.062,1.484,0.094,2.318,0.094c0.525,0,0.928-0.186,1.205-0.557C139.779,67.488,139.996,64.15,140.121,58.058z"/>
	<path d="M204.906,43.285c0.541,0.541,0.812,1.191,0.812,1.947c0,0.758-0.271,1.408-0.812,1.949s-1.182,0.811-1.924,0.811h-15.863
		c-0.186,0-0.277,0.094-0.277,0.279v4.359c0,0.186,0.092,0.279,0.277,0.279h11.457c0.896,0,1.662,0.316,2.295,0.949
		c0.635,0.635,0.951,1.4,0.951,2.297v12.895c0,1.422-0.193,2.551-0.58,3.385c-0.387,0.836-1.043,1.455-1.971,1.855
		c-1.145,0.465-2.938,0.742-5.381,0.836c-0.834,0.031-1.592-0.217-2.271-0.742c-0.682-0.525-1.176-1.223-1.484-2.088
		c-0.248-0.619-0.186-1.213,0.186-1.785s0.896-0.842,1.576-0.812c0.896,0,1.902,0,3.016,0c0.68-0.029,1.02-0.277,1.02-0.742v-10.25
		c0-0.186-0.092-0.279-0.277-0.279h-8.535c-0.186,0-0.277,0.094-0.277,0.279v19.201c0,0.805-0.287,1.492-0.859,2.064
		s-1.26,0.859-2.062,0.859c-0.805,0-1.492-0.287-2.064-0.859s-0.857-1.26-0.857-2.064V58.707c0-0.186-0.094-0.279-0.279-0.279
		h-7.791c-0.186,0-0.279,0.094-0.279,0.279v13.59c0,0.773-0.277,1.438-0.834,1.994s-1.223,0.836-1.996,0.836
		c-0.771,0-1.438-0.279-1.994-0.836s-0.834-1.221-0.834-1.994V56.156c0-0.896,0.316-1.662,0.951-2.297
		c0.633-0.633,1.398-0.949,2.295-0.949h10.482c0.186,0,0.279-0.094,0.279-0.279v-4.359c0-0.186-0.094-0.279-0.279-0.279H165.32
		c-0.773,0-1.43-0.27-1.971-0.811s-0.812-1.191-0.812-1.949c0-0.756,0.271-1.406,0.812-1.947s1.197-0.812,1.971-0.812h15.352
		c0.186,0,0.279-0.092,0.279-0.277V39.32c0-0.836,0.293-1.547,0.881-2.135c0.588-0.586,1.299-0.881,2.133-0.881
		c0.836,0,1.547,0.295,2.135,0.881c0.586,0.588,0.881,1.299,0.881,2.135v2.875c0,0.186,0.094,0.277,0.279,0.277h15.723
		C203.724,42.472,204.365,42.744,204.906,43.285z"/>
	<path d="M250.666,45.535c0.525,0.525,0.789,1.152,0.789,1.877c0,0.729-0.264,1.354-0.789,1.879
		c-0.525,0.527-1.145,0.789-1.855,0.789h-0.695c-0.186,0-0.293,0.092-0.324,0.277c-1.205,7.082-3.107,12.834-5.705,17.254
		c-0.092,0.156-0.078,0.311,0.047,0.465c1.979,2.504,4.391,4.561,7.234,6.168c0.68,0.371,1.082,0.928,1.207,1.67
		c0.123,0.742-0.047,1.422-0.51,2.041c-0.588,0.711-1.299,1.184-2.135,1.414c-0.834,0.232-1.639,0.133-2.412-0.301
		c-2.658-1.639-4.979-3.68-6.957-6.123c-0.123-0.154-0.248-0.154-0.371,0c-2.535,2.723-5.627,4.994-9.275,6.818
		c-0.805,0.371-1.609,0.426-2.412,0.162c-0.805-0.262-1.453-0.764-1.949-1.506c-0.432-0.619-0.549-1.283-0.348-1.994
		s0.643-1.223,1.322-1.531c3.834-1.732,6.973-4.02,9.416-6.865c0.123-0.154,0.139-0.324,0.047-0.51
		c-1.578-2.969-2.953-6.539-4.129-10.715c-0.031-0.061-0.07-0.092-0.115-0.092c-0.047,0-0.086,0.031-0.117,0.092
		c-0.123,0.186-0.248,0.371-0.371,0.557c-0.432,0.65-1.066,1.021-1.9,1.113c-0.836,0.094-1.578-0.123-2.227-0.648
		c-0.031,0-0.078-0.016-0.139-0.047c-0.062-0.062-0.094-0.047-0.094,0.047c0,0.371-0.139,0.695-0.418,0.973
		c-0.277,0.279-0.602,0.418-0.973,0.418h-2.551c-0.402,0-0.75-0.146-1.045-0.439c-0.293-0.295-0.439-0.643-0.439-1.045
		c0-0.092-0.047-0.139-0.141-0.139h-6.121c-0.186,0-0.279,0.094-0.279,0.279v9.184c0,0.834,0.117,1.352,0.348,1.553
		c0.232,0.201,0.781,0.301,1.646,0.301h4.777c0.742,0,1.223-0.293,1.439-0.881c0.092-0.246,0.186-0.695,0.277-1.344
		c0.062-0.619,0.363-1.068,0.904-1.346c0.541-0.279,1.105-0.309,1.693-0.094c0.742,0.342,1.328,0.836,1.762,1.484
		c0.434,0.65,0.588,1.33,0.465,2.041c-0.342,1.732-0.82,2.969-1.438,3.711c-0.898,1.145-2.428,1.717-4.592,1.717h-6.031
		c-2.596,0-4.359-0.488-5.287-1.461c-0.928-0.975-1.391-2.838-1.391-5.59v-11.41c0-0.896,0.316-1.662,0.951-2.295
		c0.633-0.635,1.398-0.951,2.295-0.951h8.441c0.186,0,0.279-0.094,0.279-0.279V45.58c0-0.186-0.094-0.277-0.279-0.277h-9.09
		c-0.713,0-1.322-0.256-1.832-0.766c-0.512-0.51-0.766-1.121-0.766-1.832s0.254-1.322,0.766-1.832
		c0.51-0.51,1.119-0.766,1.832-0.766h11.549c0.896,0,1.662,0.318,2.295,0.951c0.635,0.635,0.951,1.4,0.951,2.297v9.461
		c0,0.031,0.023,0.055,0.07,0.07s0.084,0.008,0.115-0.023c2.35-3.557,4.158-8.039,5.428-13.451c0.186-0.803,0.617-1.438,1.299-1.902
		c0.68-0.463,1.43-0.625,2.248-0.486c0.82,0.139,1.453,0.549,1.902,1.229c0.447,0.682,0.564,1.424,0.348,2.227
		c-0.309,1.299-0.68,2.629-1.113,3.99c-0.062,0.184,0,0.277,0.186,0.277h12.43C249.521,44.746,250.14,45.01,250.666,45.535z
		 M241.994,50.357c0.029-0.186-0.047-0.277-0.232-0.277h-6.957c-0.186,0-0.264,0.092-0.232,0.277
		c0.957,4.516,2.242,8.412,3.85,11.689c0.031,0.062,0.076,0.092,0.139,0.092s0.107-0.029,0.139-0.092
		C240.152,58.955,241.252,55.058,241.994,50.357z"/>
	<path d="M260.76,54.904c0.896,0,1.662,0.316,2.295,0.951c0.635,0.633,0.951,1.398,0.951,2.295v11.41
		c0,0.186,0.047,0.355,0.139,0.51c1.855,2.721,5.258,4.205,10.205,4.453c2.752,0.123,6.416,0.139,10.992,0.047
		c3.215-0.062,6.061-0.154,8.533-0.279c0.68-0.029,1.223,0.232,1.625,0.789c0.4,0.557,0.494,1.16,0.277,1.809
		c-0.248,0.865-0.703,1.584-1.367,2.156c-0.666,0.572-1.432,0.873-2.297,0.904c-6.277,0.248-12.215,0.248-17.811,0
		c-2.969-0.123-5.473-0.588-7.514-1.391c-1.918-0.773-3.617-1.994-5.102-3.664c-0.125-0.154-0.264-0.17-0.418-0.047
		c-1.391,1.268-2.689,2.428-3.896,3.479c-0.619,0.525-1.338,0.695-2.156,0.51c-0.82-0.186-1.414-0.648-1.785-1.391
		c-0.371-0.834-0.434-1.693-0.186-2.574c0.246-0.881,0.756-1.584,1.529-2.111c1.236-0.803,2.396-1.623,3.479-2.457
		c0.154-0.123,0.232-0.279,0.232-0.465v-9.461c0-0.186-0.092-0.279-0.277-0.279h-2.645c-0.711,0-1.322-0.254-1.832-0.764
		c-0.51-0.512-0.766-1.121-0.766-1.832s0.256-1.322,0.766-1.832c0.51-0.512,1.121-0.766,1.832-0.766H260.76z M263.402,42.705
		c0.557,0.588,0.789,1.283,0.697,2.088c-0.094,0.805-0.465,1.469-1.113,1.994c-0.588,0.494-1.27,0.688-2.041,0.58
		c-0.773-0.109-1.424-0.457-1.949-1.045c-1.02-1.143-2.287-2.365-3.803-3.664c-0.525-0.432-0.789-0.988-0.789-1.67
		c0-0.68,0.264-1.252,0.789-1.715c0.619-0.494,1.322-0.75,2.111-0.766c0.787-0.016,1.49,0.225,2.109,0.719
		C260.99,40.431,262.32,41.592,263.402,42.705z M266.185,54.578c-0.463-0.463-0.695-1.012-0.695-1.646
		c0-0.633,0.232-1.182,0.695-1.646c0.465-0.463,1.004-0.695,1.623-0.695h0.604c0.031,0,0.055-0.016,0.07-0.047
		c0.014-0.029,0.006-0.061-0.023-0.092c-0.527-0.34-1.006-0.65-1.438-0.928c-0.65-0.434-1.029-1.043-1.137-1.832
		c-0.109-0.789,0.1-1.492,0.625-2.111c1.393-1.73,2.582-3.771,3.572-6.121c0.277-0.742,0.758-1.291,1.438-1.646
		s1.375-0.457,2.088-0.303c0.711,0.186,1.236,0.596,1.576,1.23c0.34,0.633,0.371,1.275,0.094,1.924
		c-0.125,0.279-0.248,0.557-0.371,0.836c-0.031,0.062-0.031,0.123,0,0.186c0.029,0.062,0.076,0.092,0.139,0.092h2.83
		c0.186,0,0.277-0.092,0.277-0.277v-2.227c0-0.773,0.27-1.43,0.812-1.971c0.539-0.541,1.197-0.812,1.971-0.812
		c0.771,0,1.43,0.271,1.971,0.812s0.812,1.197,0.812,1.971V41.5c0,0.186,0.092,0.277,0.277,0.277h7.746
		c0.68,0,1.252,0.232,1.717,0.695c0.463,0.465,0.695,1.029,0.695,1.693c0,0.666-0.232,1.229-0.695,1.693
		c-0.465,0.463-1.037,0.695-1.717,0.695h-7.746c-0.186,0-0.277,0.094-0.277,0.279v3.479c0,0.186,0.092,0.277,0.277,0.277h9.693
		c0.619,0,1.16,0.232,1.625,0.695c0.463,0.465,0.695,1.014,0.695,1.646c0,0.635-0.232,1.184-0.695,1.646
		c-0.465,0.465-1.006,0.697-1.625,0.697h-25.881C267.189,55.275,266.65,55.043,266.185,54.578z M278.152,46.834
		c0-0.186-0.092-0.279-0.277-0.279h-5.428c-0.186,0-0.34,0.078-0.463,0.232c-0.928,1.422-1.855,2.613-2.783,3.57
		c-0.031,0.062-0.031,0.117,0,0.164c0.029,0.045,0.061,0.068,0.092,0.068h8.582c0.186,0,0.277-0.092,0.277-0.277V46.834z
		 M293.318,68.4c0,0.898-0.316,1.662-0.949,2.297c-0.635,0.633-1.4,0.951-2.297,0.951h-17.486c-0.896,0-1.662-0.318-2.295-0.951
		c-0.635-0.635-0.951-1.398-0.951-2.297v-7.234c0-0.896,0.316-1.662,0.951-2.297c0.633-0.633,1.398-0.951,2.295-0.951h17.486
		c0.896,0,1.662,0.318,2.297,0.951c0.633,0.635,0.949,1.4,0.949,2.297V68.4z M275.136,62.371c-0.186,0-0.277,0.094-0.277,0.279
		v4.266c0,0.186,0.092,0.279,0.277,0.279h12.061c0.186,0,0.277-0.094,0.277-0.279V62.65c0-0.186-0.092-0.279-0.277-0.279H275.136z"
		/>
	<path d="M340.123,44.838c0.525,0.527,0.789,1.16,0.789,1.902s-0.264,1.377-0.789,1.902s-1.158,0.787-1.9,0.787h-20.037
		c-0.186,0-0.279,0.094-0.279,0.279c-0.186,2.412-0.34,4.268-0.463,5.566c-0.031,0.186,0.047,0.277,0.232,0.277h14.748
		c0.896,0,1.646,0.318,2.25,0.951c0.604,0.635,0.873,1.398,0.812,2.295c-0.434,6.062-0.928,10.529-1.484,13.404
		c-0.557,3.031-1.33,5.057-2.32,6.076c-1.145,1.268-2.844,1.996-5.102,2.182c-1.205,0.123-2.969,0.154-5.287,0.092
		c-0.773-0.031-1.469-0.316-2.088-0.857s-1.082-1.23-1.391-2.064c-0.217-0.588-0.162-1.137,0.162-1.646s0.781-0.75,1.367-0.719
		c1.547,0.062,3.248,0.092,5.104,0.092c1.143,0,1.916-0.186,2.318-0.557c1.207-0.988,2.133-5.533,2.783-13.635
		c0.031-0.186-0.047-0.279-0.232-0.279h-12.568c-0.186,0-0.295,0.094-0.326,0.279c-1.02,4.359-2.674,8.225-4.963,11.594
		c-1.824,2.66-4.312,4.963-7.467,6.912c-0.773,0.432-1.57,0.533-2.389,0.301c-0.82-0.232-1.539-0.703-2.156-1.414
		c-0.496-0.557-0.689-1.215-0.58-1.971c0.107-0.758,0.471-1.322,1.09-1.693c0.711-0.434,1.391-0.896,2.041-1.393
		c1.422-1.082,2.613-2.172,3.57-3.27c0.959-1.098,1.803-2.357,2.529-3.779s1.291-2.752,1.693-3.988c0.4-1.236,0.74-2.684,1.02-4.338
		c0.277-1.654,0.463-3.084,0.557-4.291c0.123-1.143,0.232-2.52,0.324-4.127c0-0.186-0.092-0.279-0.277-0.279h-10.576
		c-0.742,0-1.375-0.262-1.9-0.787c-0.527-0.525-0.789-1.16-0.789-1.902s0.262-1.375,0.789-1.902c0.525-0.525,1.158-0.787,1.9-0.787
		h15.168c0.186,0,0.277-0.094,0.277-0.279v-4.592c0-0.771,0.285-1.445,0.857-2.018c0.572-0.57,1.254-0.857,2.041-0.857
		c0.789,0,1.469,0.287,2.041,0.857c0.572,0.572,0.859,1.246,0.859,2.018v4.592c0,0.186,0.092,0.279,0.277,0.279h15.863
		C338.965,44.051,339.597,44.312,340.123,44.838z"/>
	<path d="M350.806,52.492c0.68,0.402,1.098,0.996,1.252,1.785s0.016,1.508-0.418,2.156c-0.402,0.619-0.98,0.99-1.738,1.113
		c-0.758,0.125-1.445-0.014-2.064-0.416c-1.268-0.805-2.736-1.578-4.406-2.32c-0.619-0.277-1.02-0.734-1.205-1.367
		c-0.186-0.635-0.094-1.23,0.277-1.787c0.434-0.617,1.004-1.051,1.717-1.299c0.711-0.246,1.422-0.23,2.133,0.047
		C348.086,51.117,349.57,51.812,350.806,52.492z M349.461,64.179c0.309-0.617,0.812-0.996,1.508-1.137
		c0.695-0.139,1.307,0.023,1.832,0.488c0.65,0.557,1.059,1.236,1.229,2.041c0.17,0.803,0.07,1.592-0.301,2.365
		c-1.639,3.369-3.324,6.633-5.055,9.785c-0.402,0.711-1.006,1.152-1.811,1.322c-0.803,0.17-1.529-0.008-2.18-0.533
		c-0.68-0.525-1.09-1.213-1.229-2.064c-0.139-0.85,0.023-1.646,0.486-2.389C345.89,70.937,347.728,67.642,349.461,64.179z
		 M353.636,39.969c0.648,0.402,1.035,0.998,1.158,1.785c0.123,0.789-0.047,1.508-0.51,2.158c-0.434,0.617-1.037,0.98-1.809,1.09
		c-0.773,0.107-1.469-0.055-2.088-0.488c-0.494-0.309-1.051-0.648-1.67-1.02c-0.896-0.525-1.777-1.004-2.643-1.438
		c-0.588-0.309-0.967-0.789-1.137-1.439c-0.17-0.648-0.055-1.236,0.348-1.762c0.463-0.617,1.066-1.035,1.809-1.252
		s1.469-0.17,2.18,0.139C350.914,38.455,352.367,39.195,353.636,39.969z M384.804,75.219c0.371,0.773,0.418,1.568,0.139,2.389
		c-0.277,0.818-0.805,1.43-1.576,1.832c-0.713,0.402-1.439,0.465-2.18,0.186c-0.742-0.277-1.285-0.789-1.625-1.531
		c-0.154-0.246-0.293-0.51-0.416-0.787c-0.094-0.186-0.248-0.264-0.465-0.232c-6.74,0.588-13.668,1.145-20.779,1.67
		c-0.805,0.029-1.516-0.201-2.133-0.695c-0.619-0.496-0.99-1.145-1.113-1.949c-0.094-0.771,0.107-1.445,0.604-2.018
		c0.494-0.57,1.113-0.873,1.855-0.904l0.371-0.047c0.186,0,0.309-0.092,0.371-0.277c1.699-3.586,3.199-7.529,4.498-11.828
		c0.062-0.186-0.016-0.277-0.232-0.277h-5.148c-0.742,0-1.375-0.262-1.9-0.789c-0.527-0.525-0.789-1.16-0.789-1.9
		c0-0.742,0.262-1.377,0.789-1.902c0.525-0.525,1.158-0.789,1.9-0.789h9.184c0.217,0,0.326-0.092,0.326-0.277v-6.123
		c0-0.186-0.109-0.277-0.326-0.277h-6.818c-0.742,0-1.375-0.264-1.9-0.789c-0.527-0.525-0.789-1.16-0.789-1.902
		s0.262-1.375,0.789-1.9c0.525-0.525,1.158-0.789,1.9-0.789h6.818c0.217,0,0.326-0.094,0.326-0.279v-3.57
		c0-0.805,0.285-1.492,0.857-2.064s1.26-0.857,2.064-0.857c0.803,0,1.49,0.285,2.062,0.857s0.859,1.26,0.859,2.064v3.57
		c0,0.186,0.092,0.279,0.277,0.279h7.236c0.742,0,1.375,0.264,1.9,0.789s0.789,1.158,0.789,1.9s-0.264,1.377-0.789,1.902
		s-1.158,0.789-1.9,0.789h-7.236c-0.186,0-0.277,0.092-0.277,0.277v6.123c0,0.186,0.092,0.277,0.277,0.277h9.508
		c0.742,0,1.377,0.264,1.902,0.789s0.789,1.16,0.789,1.902c0,0.74-0.264,1.375-0.789,1.9c-0.525,0.527-1.16,0.789-1.902,0.789
		H368.06v0.047c0.248,0.062,0.424,0.207,0.533,0.439c0.107,0.232,0.115,0.457,0.023,0.674c-1.639,4.08-3.201,7.637-4.686,10.666
		c-0.031,0.062-0.031,0.125,0,0.186c0.031,0.062,0.078,0.094,0.141,0.094c2.566-0.154,6.477-0.387,11.734-0.695
		c0.092,0,0.154-0.031,0.186-0.094c0.029-0.061,0.016-0.107-0.047-0.139c-0.68-1.082-1.33-2.07-1.947-2.969
		c-0.402-0.586-0.527-1.236-0.371-1.947c0.154-0.711,0.539-1.236,1.158-1.578c0.711-0.371,1.461-0.471,2.25-0.301
		s1.43,0.564,1.926,1.184C381.496,69.592,383.443,72.56,384.804,75.219z"/>
</g>
</svg>
