<svg version="1.1" xmlns="http://www.w3.org/2000/svg" xmlns:xlink="http://www.w3.org/1999/xlink" x="0px" y="0px"
	 width="325.589px" height="45.938px" viewBox="0 0 325.589 45.938" enable-background="new 0 0 325.589 45.938"
	 xml:space="preserve">
<g>
	<path d="M38.575,19.619c0.191-0.701,0.599-1.26,1.22-1.675c0.623-0.414,1.3-0.558,2.034-0.431c0.701,0.128,1.252,0.495,1.651,1.101
		c0.398,0.606,0.485,1.261,0.263,1.962c-1.531,5.551-3.478,10.225-5.838,14.021c-0.096,0.16-0.128,0.335-0.096,0.526
		c0.797,3.19,1.643,4.785,2.536,4.785c0.574,0,0.957-1.579,1.148-4.737c0.031-0.479,0.271-0.806,0.718-0.981
		c0.446-0.175,0.861-0.119,1.244,0.168c1.467,1.148,2.089,2.425,1.866,3.828c-0.352,2.361-0.846,4.051-1.483,5.072
		c-0.861,1.371-2.249,2.058-4.163,2.058c-2.201,0-4.067-1.723-5.599-5.168c-0.064-0.191-0.176-0.207-0.335-0.048
		c-1.276,1.468-2.744,2.854-4.402,4.163c-0.639,0.479-1.348,0.67-2.129,0.574c-0.782-0.096-1.46-0.431-2.034-1.005
		c-0.479-0.447-0.702-1.013-0.67-1.699c0.031-0.686,0.318-1.22,0.861-1.603c2.52-1.818,4.721-3.987,6.604-6.508
		c0.127-0.159,0.159-0.335,0.096-0.526c-1.085-5.199-1.818-12.202-2.201-21.007c0-0.191-0.112-0.287-0.335-0.287h-8.948
		c-0.191,0-0.287,0.096-0.287,0.287v4.689c0,0.191,0.096,0.287,0.287,0.287h5.072c0.893,0,1.667,0.327,2.321,0.981
		c0.653,0.653,0.964,1.443,0.933,2.368c-0.064,5.072-0.176,8.678-0.335,10.814c-0.16,2.297-0.463,3.765-0.909,4.402
		c-0.67,0.957-1.579,1.531-2.728,1.723c-0.256,0.064-0.543,0.112-0.861,0.144c-0.926,0.096-1.746-0.175-2.465-0.813
		c-0.717-0.638-1.236-1.451-1.555-2.44c-0.128-0.351-0.256-0.686-0.383-1.005c-0.032-0.063-0.072-0.088-0.119-0.071
		c-0.049,0.016-0.072,0.04-0.072,0.071c-0.702,4.115-1.962,7.513-3.78,10.192c-0.383,0.605-0.957,0.925-1.723,0.957
		c-0.766,0.031-1.42-0.191-1.962-0.67c-0.574-0.511-0.909-1.133-1.005-1.866s0.048-1.403,0.431-2.01
		c0.988-1.531,1.723-3.237,2.201-5.12c0.031-0.063,0.023-0.111-0.023-0.144c-0.049-0.031-0.104-0.048-0.168-0.048
		c-1.563,0.639-3.701,1.531-6.412,2.68c-1.181,0.479-2.218,0.894-3.11,1.244c-0.766,0.319-1.523,0.304-2.272-0.048
		c-0.75-0.351-1.253-0.925-1.508-1.723c-0.256-0.797-0.184-1.571,0.215-2.321c0.399-0.749,0.997-1.251,1.795-1.507
		c0.542-0.159,1.164-0.351,1.866-0.574c0.191-0.063,0.287-0.191,0.287-0.383V17.418c0-0.191-0.112-0.287-0.335-0.287H2.734
		c-0.734,0-1.363-0.264-1.891-0.789c-0.525-0.527-0.789-1.165-0.789-1.914c0-0.75,0.264-1.389,0.789-1.914
		c0.527-0.527,1.156-0.79,1.891-0.79h1.244c0.223,0,0.335-0.096,0.335-0.287V3.445c0-0.733,0.263-1.363,0.79-1.891
		c0.525-0.525,1.164-0.789,1.914-0.789c0.749,0,1.387,0.264,1.914,0.789C9.457,2.082,9.72,2.712,9.72,3.445v7.991
		c0,0.191,0.096,0.287,0.287,0.287h0.813c0.766,0,1.411,0.263,1.938,0.79c0.525,0.525,0.789,1.164,0.789,1.914
		c0,0.749-0.264,1.387-0.789,1.914c-0.527,0.525-1.173,0.789-1.938,0.789h-0.813c-0.191,0-0.287,0.096-0.287,0.287v12.968
		c0,0.191,0.096,0.256,0.287,0.191l0.335-0.144c0.829-0.287,1.619-0.207,2.368,0.239c0.75,0.447,1.204,1.101,1.364,1.962
		c0.031,0,0.079,0,0.144,0c0.479-2.488,0.718-5.646,0.718-9.475V10.24c0-0.925,0.327-1.715,0.981-2.369
		c0.653-0.653,1.442-0.98,2.368-0.98h11.102c0.223,0,0.335-0.096,0.335-0.287c-0.032-1.436-0.064-2.695-0.096-3.78
		c0-0.766,0.264-1.411,0.789-1.938c0.527-0.525,1.165-0.789,1.914-0.789c0.75,0,1.389,0.264,1.914,0.789
		c0.527,0.527,0.79,1.173,0.79,1.938c0,1.276,0.016,2.536,0.048,3.78c0,0.191,0.096,0.287,0.287,0.287h3.206
		c0.063,0,0.111-0.031,0.144-0.096c0.031-0.063,0.031-0.111,0-0.144c-0.543-0.861-1.213-1.754-2.01-2.68
		c-0.383-0.446-0.534-0.965-0.455-1.556c0.08-0.59,0.375-1.044,0.886-1.363c0.574-0.318,1.204-0.438,1.89-0.359
		c0.687,0.08,1.269,0.359,1.747,0.838c0.733,0.798,1.371,1.531,1.914,2.201c0.383,0.511,0.503,1.061,0.358,1.65
		c-0.143,0.591-0.486,1.062-1.028,1.412c0,0.064,0.016,0.096,0.048,0.096c0.701,0,1.292,0.239,1.771,0.718s0.718,1.053,0.718,1.723
		V9.57c0,0.702-0.264,1.316-0.789,1.842c-0.527,0.527-1.157,0.79-1.891,0.79h-6.412c-0.191,0-0.287,0.096-0.287,0.287
		c0.255,5.104,0.622,9.635,1.101,13.59c0,0.032,0.024,0.048,0.071,0.048c0.049,0,0.072-0.016,0.072-0.048
		C37.218,24.229,37.936,22.076,38.575,19.619z M24.171,22.442c0-0.191-0.112-0.287-0.335-0.287h-3.254
		c-0.191,0-0.287,0.096-0.287,0.287v0.718c0,3.669-0.224,6.923-0.67,9.762c-0.032,0.191,0.048,0.304,0.239,0.335
		c0.733,0.064,1.531,0.096,2.393,0.096c0.542,0,0.957-0.191,1.244-0.574C23.82,32.173,24.043,28.728,24.171,22.442z"/>
	<path d="M90.987,7.201c0.558,0.559,0.837,1.229,0.837,2.01c0,0.782-0.279,1.452-0.837,2.01c-0.559,0.559-1.221,0.838-1.986,0.838
		H72.635c-0.191,0-0.287,0.096-0.287,0.287v4.498c0,0.191,0.096,0.287,0.287,0.287h11.819c0.925,0,1.715,0.327,2.368,0.98
		c0.654,0.654,0.981,1.444,0.981,2.369v13.303c0,1.468-0.199,2.632-0.599,3.493c-0.398,0.861-1.076,1.5-2.033,1.914
		c-1.181,0.479-3.031,0.766-5.551,0.861c-0.861,0.032-1.644-0.223-2.345-0.766c-0.702-0.542-1.213-1.26-1.531-2.153
		c-0.256-0.638-0.191-1.252,0.191-1.842c0.383-0.591,0.925-0.869,1.627-0.838c0.925,0,1.962,0,3.11,0
		c0.701-0.031,1.053-0.287,1.053-0.766V23.112c0-0.191-0.096-0.287-0.287-0.287h-8.805c-0.191,0-0.287,0.096-0.287,0.287v19.811
		c0,0.829-0.295,1.539-0.885,2.13c-0.591,0.59-1.301,0.885-2.13,0.885c-0.83,0-1.539-0.295-2.13-0.885
		c-0.59-0.591-0.885-1.301-0.885-2.13V23.112c0-0.191-0.096-0.287-0.287-0.287h-8.039c-0.191,0-0.287,0.096-0.287,0.287v14.021
		c0,0.798-0.287,1.483-0.861,2.058s-1.261,0.861-2.058,0.861c-0.798,0-1.483-0.287-2.058-0.861s-0.861-1.26-0.861-2.058V20.48
		c0-0.925,0.327-1.715,0.98-2.369c0.654-0.653,1.443-0.98,2.369-0.98h10.814c0.191,0,0.287-0.096,0.287-0.287v-4.498
		c0-0.191-0.096-0.287-0.287-0.287H50.145c-0.798,0-1.476-0.279-2.033-0.838c-0.559-0.558-0.838-1.228-0.838-2.01
		c0-0.781,0.279-1.451,0.838-2.01c0.558-0.558,1.235-0.837,2.033-0.837h15.839c0.191,0,0.287-0.096,0.287-0.287V3.11
		c0-0.861,0.303-1.595,0.909-2.201C67.786,0.304,68.52,0,69.381,0s1.595,0.304,2.201,0.909c0.605,0.606,0.909,1.34,0.909,2.201
		v2.967c0,0.191,0.096,0.287,0.287,0.287H89C89.766,6.364,90.428,6.644,90.987,7.201z"/>
	<path d="M138.167,9.522c0.542,0.543,0.813,1.188,0.813,1.938c0,0.749-0.271,1.396-0.813,1.938
		c-0.543,0.543-1.181,0.813-1.914,0.813h-0.718c-0.191,0-0.304,0.096-0.335,0.287c-1.244,7.306-3.206,13.239-5.886,17.801
		c-0.096,0.16-0.08,0.319,0.048,0.479c2.041,2.584,4.529,4.706,7.465,6.364c0.701,0.383,1.116,0.957,1.244,1.723
		c0.127,0.766-0.048,1.467-0.526,2.105c-0.606,0.733-1.34,1.221-2.201,1.459c-0.861,0.24-1.691,0.136-2.488-0.311
		c-2.744-1.691-5.137-3.796-7.178-6.316c-0.128-0.159-0.256-0.159-0.383,0c-2.616,2.808-5.807,5.151-9.57,7.034
		c-0.83,0.383-1.659,0.438-2.488,0.167c-0.83-0.271-1.5-0.789-2.01-1.555c-0.447-0.639-0.566-1.324-0.358-2.058
		c0.207-0.733,0.661-1.26,1.363-1.579c3.955-1.786,7.193-4.146,9.714-7.082c0.127-0.159,0.144-0.335,0.048-0.526
		c-1.627-3.062-3.047-6.747-4.259-11.054c-0.032-0.063-0.071-0.096-0.12-0.096c-0.047,0-0.088,0.032-0.119,0.096
		c-0.128,0.191-0.256,0.383-0.383,0.574c-0.447,0.67-1.101,1.053-1.962,1.148s-1.627-0.127-2.297-0.67
		c-0.032,0-0.08-0.016-0.144-0.048c-0.064-0.063-0.096-0.048-0.096,0.048c0,0.383-0.144,0.718-0.431,1.005s-0.622,0.431-1.005,0.431
		h-2.632c-0.415,0-0.773-0.151-1.077-0.455c-0.303-0.303-0.454-0.661-0.454-1.076c0-0.096-0.048-0.144-0.144-0.144h-6.316
		c-0.191,0-0.287,0.096-0.287,0.287v9.475c0,0.861,0.119,1.396,0.359,1.603c0.238,0.208,0.805,0.312,1.698,0.312h4.929
		c0.766,0,1.26-0.303,1.483-0.909c0.096-0.255,0.191-0.718,0.287-1.388c0.063-0.638,0.375-1.101,0.933-1.388
		c0.559-0.287,1.141-0.318,1.747-0.096c0.766,0.352,1.371,0.861,1.818,1.531c0.446,0.67,0.605,1.372,0.479,2.105
		c-0.352,1.787-0.846,3.062-1.483,3.828c-0.926,1.181-2.505,1.771-4.737,1.771h-6.221c-2.68,0-4.498-0.503-5.455-1.507
		c-0.957-1.006-1.436-2.927-1.436-5.767V20.05c0-0.925,0.327-1.715,0.981-2.368c0.653-0.654,1.442-0.981,2.368-0.981h8.709
		c0.191,0,0.287-0.096,0.287-0.287V9.57c0-0.191-0.096-0.287-0.287-0.287h-9.379c-0.734,0-1.364-0.264-1.89-0.789
		c-0.527-0.527-0.79-1.156-0.79-1.891c0-0.733,0.263-1.363,0.79-1.891c0.525-0.525,1.155-0.789,1.89-0.789h11.915
		c0.925,0,1.715,0.327,2.369,0.98c0.653,0.654,0.98,1.444,0.98,2.369v9.762c0,0.032,0.023,0.056,0.072,0.072
		c0.047,0.016,0.087,0.008,0.119-0.024c2.424-3.668,4.29-8.294,5.599-13.877c0.191-0.829,0.638-1.483,1.34-1.962
		c0.701-0.479,1.476-0.646,2.321-0.502c0.845,0.143,1.499,0.566,1.961,1.268c0.463,0.702,0.582,1.468,0.359,2.297
		c-0.319,1.34-0.702,2.712-1.148,4.115c-0.064,0.191,0,0.287,0.191,0.287h12.824C136.986,8.709,137.624,8.98,138.167,9.522z
		 M129.218,14.499c0.031-0.191-0.048-0.287-0.239-0.287h-7.178c-0.191,0-0.271,0.096-0.239,0.287
		c0.988,4.658,2.312,8.678,3.972,12.059c0.031,0.064,0.079,0.096,0.144,0.096c0.063,0,0.111-0.031,0.144-0.096
		C127.32,23.368,128.453,19.349,129.218,14.499z"/>
	<path d="M148.554,19.188c0.925,0,1.715,0.327,2.369,0.981c0.653,0.653,0.98,1.443,0.98,2.368V34.31
		c0,0.191,0.048,0.367,0.144,0.526c1.914,2.808,5.423,4.339,10.527,4.594c2.839,0.128,6.619,0.144,11.341,0.048
		c3.317-0.063,6.252-0.159,8.805-0.287c0.701-0.031,1.26,0.239,1.675,0.813c0.414,0.574,0.51,1.196,0.287,1.866
		c-0.256,0.893-0.726,1.635-1.411,2.226c-0.687,0.59-1.477,0.9-2.369,0.933c-6.477,0.255-12.602,0.255-18.375,0
		c-3.062-0.128-5.646-0.606-7.752-1.436c-1.979-0.798-3.732-2.058-5.264-3.78c-0.128-0.159-0.271-0.175-0.431-0.048
		c-1.436,1.309-2.775,2.504-4.02,3.589c-0.639,0.542-1.38,0.718-2.226,0.526c-0.845-0.191-1.459-0.67-1.842-1.436
		c-0.383-0.861-0.447-1.747-0.191-2.655c0.255-0.91,0.781-1.635,1.579-2.178c1.275-0.829,2.472-1.675,3.589-2.536
		c0.159-0.127,0.239-0.287,0.239-0.479v-9.762c0-0.191-0.096-0.287-0.287-0.287h-2.728c-0.734,0-1.363-0.263-1.891-0.79
		c-0.525-0.525-0.789-1.155-0.789-1.89c0-0.733,0.264-1.364,0.789-1.89c0.527-0.527,1.156-0.79,1.891-0.79H148.554z M151.282,6.604
		c0.574,0.606,0.813,1.324,0.718,2.153c-0.096,0.83-0.479,1.516-1.148,2.058c-0.606,0.511-1.309,0.71-2.105,0.598
		c-0.798-0.111-1.468-0.47-2.01-1.076c-1.053-1.18-2.361-2.44-3.924-3.78c-0.543-0.446-0.813-1.021-0.813-1.723
		c0-0.701,0.271-1.292,0.813-1.771c0.638-0.51,1.363-0.773,2.178-0.789c0.812-0.017,1.538,0.231,2.177,0.741
		C148.793,4.259,150.165,5.455,151.282,6.604z M154.153,18.854c-0.479-0.479-0.718-1.045-0.718-1.699
		c0-0.653,0.239-1.22,0.718-1.698s1.036-0.718,1.675-0.718h0.622c0.031,0,0.056-0.016,0.071-0.048
		c0.017-0.031,0.008-0.063-0.023-0.096c-0.543-0.351-1.037-0.67-1.483-0.957c-0.67-0.446-1.061-1.077-1.173-1.89
		c-0.111-0.814,0.104-1.539,0.646-2.178c1.436-1.786,2.663-3.892,3.685-6.316c0.287-0.766,0.781-1.332,1.483-1.699
		c0.701-0.366,1.419-0.47,2.153-0.311c0.733,0.191,1.275,0.614,1.627,1.268c0.351,0.654,0.383,1.316,0.096,1.986
		c-0.128,0.287-0.256,0.574-0.383,0.861c-0.032,0.064-0.032,0.128,0,0.191c0.031,0.064,0.079,0.096,0.144,0.096h2.919
		c0.191,0,0.287-0.096,0.287-0.287V3.062c0-0.797,0.279-1.476,0.837-2.033c0.559-0.559,1.236-0.838,2.034-0.838
		c0.797,0,1.476,0.279,2.034,0.838c0.558,0.558,0.837,1.236,0.837,2.033v2.297c0,0.191,0.096,0.287,0.287,0.287h7.991
		c0.701,0,1.292,0.239,1.771,0.718s0.718,1.061,0.718,1.747c0,0.686-0.239,1.268-0.718,1.746s-1.069,0.718-1.771,0.718h-7.991
		c-0.191,0-0.287,0.096-0.287,0.287v3.589c0,0.191,0.096,0.287,0.287,0.287h10.001c0.638,0,1.196,0.239,1.675,0.718
		s0.718,1.045,0.718,1.698c0,0.654-0.239,1.221-0.718,1.699s-1.037,0.718-1.675,0.718h-26.701
		C155.189,19.571,154.631,19.332,154.153,18.854z M166.499,10.862c0-0.191-0.096-0.287-0.287-0.287h-5.599
		c-0.191,0-0.352,0.08-0.479,0.239c-0.957,1.468-1.914,2.696-2.871,3.685c-0.032,0.064-0.032,0.12,0,0.167
		c0.031,0.049,0.063,0.072,0.096,0.072h8.853c0.191,0,0.287-0.096,0.287-0.287V10.862z M182.146,33.113
		c0,0.926-0.327,1.715-0.98,2.369c-0.654,0.653-1.444,0.98-2.369,0.98h-18.04c-0.926,0-1.715-0.327-2.368-0.98
		c-0.654-0.654-0.981-1.443-0.981-2.369v-7.465c0-0.925,0.327-1.715,0.981-2.369c0.653-0.653,1.442-0.98,2.368-0.98h18.04
		c0.925,0,1.715,0.327,2.369,0.98c0.653,0.654,0.98,1.444,0.98,2.369V33.113z M163.388,26.893c-0.191,0-0.287,0.096-0.287,0.287
		v4.402c0,0.191,0.096,0.287,0.287,0.287h12.441c0.191,0,0.287-0.096,0.287-0.287V27.18c0-0.191-0.096-0.287-0.287-0.287H163.388z"
		/>
	<path d="M223.751,37.516c0,0.191,0.096,0.287,0.287,0.287h4.689c0.797,0,1.476,0.279,2.033,0.838
		c0.559,0.558,0.838,1.244,0.838,2.057c0,0.814-0.279,1.5-0.838,2.059c-0.558,0.558-1.236,0.837-2.033,0.837h-37.994
		c-0.798,0-1.476-0.279-2.033-0.837c-0.559-0.559-0.838-1.244-0.838-2.059c0-0.812,0.279-1.499,0.838-2.057
		c0.558-0.559,1.235-0.838,2.033-0.838h7.178c0.191,0,0.318-0.096,0.383-0.287c1.053-4.338,1.993-8.549,2.823-12.633
		c0.031-0.191-0.048-0.287-0.239-0.287h-5.646c-0.798,0-1.476-0.279-2.033-0.838c-0.559-0.558-0.838-1.228-0.838-2.01
		c0-0.781,0.279-1.451,0.838-2.01c0.558-0.558,1.235-0.837,2.033-0.837h6.699c0.191,0,0.303-0.096,0.335-0.287
		c0.605-3.317,1.068-5.965,1.388-7.943c0.031-0.191-0.048-0.287-0.239-0.287h-9.81c-0.798,0-1.476-0.279-2.033-0.837
		c-0.559-0.559-0.838-1.236-0.838-2.034c0-0.797,0.279-1.476,0.838-2.034c0.558-0.558,1.235-0.837,2.033-0.837h31.821
		c0.797,0,1.476,0.279,2.034,0.837c0.558,0.559,0.837,1.237,0.837,2.034c0,0.798-0.279,1.476-0.837,2.034
		c-0.559,0.558-1.237,0.837-2.034,0.837h-14.882c-0.191,0-0.304,0.096-0.335,0.287c-0.798,4.243-1.309,6.891-1.531,7.943
		c-0.032,0.191,0.048,0.287,0.239,0.287h11.484c0.925,0,1.715,0.327,2.369,0.981c0.653,0.653,0.98,1.443,0.98,2.368V37.516z
		 M217.722,24.883c0-0.191-0.096-0.287-0.287-0.287h-9.57c-0.191,0-0.304,0.096-0.335,0.287c-1.021,5.041-1.931,9.252-2.728,12.633
		c-0.032,0.191,0.048,0.287,0.239,0.287h12.394c0.191,0,0.287-0.096,0.287-0.287V24.883z"/>
	<path d="M245.583,2.201c0.479-0.127,0.925-0.079,1.34,0.144l1.244,0.718c0.574,0.319,0.98,0.773,1.221,1.363
		c0.238,0.591,0.263,1.205,0.071,1.843c-1.531,5.168-2.648,8.757-3.35,10.767c-0.064,0.191-0.032,0.367,0.096,0.526
		c2.201,2.967,3.302,6.189,3.302,9.666c0,3.127-0.718,5.232-2.153,6.316c-0.606,0.479-1.5,0.83-2.68,1.053
		c-0.16,0-0.319,0.017-0.479,0.048c-0.702,0.064-1.324-0.151-1.866-0.646c-0.543-0.494-0.909-1.124-1.101-1.89
		c-0.16-0.51-0.071-0.997,0.263-1.46c0.336-0.462,0.79-0.757,1.364-0.885c0.287-0.063,0.542-0.175,0.766-0.335
		c0.51-0.383,0.766-1.34,0.766-2.871c0-2.01-0.479-3.955-1.436-5.838c-1.117-2.201-1.436-4.227-0.957-6.077
		c0.638-2.488,1.212-4.816,1.723-6.986c0.031-0.191-0.048-0.287-0.239-0.287h-3.11c-0.191,0-0.287,0.096-0.287,0.287v35.697
		c0,0.67-0.247,1.252-0.741,1.746c-0.495,0.495-1.085,0.742-1.771,0.742c-0.686,0-1.275-0.247-1.77-0.742
		c-0.495-0.494-0.742-1.076-0.742-1.746V5.551c0-0.925,0.327-1.715,0.98-2.369c0.654-0.653,1.443-0.98,2.369-0.98h7.082
		C245.519,2.201,245.551,2.201,245.583,2.201z M260.752,14.69c0.574-0.127,1.101-0.016,1.579,0.335
		c0.479,0.352,0.733,0.83,0.766,1.436c0.063,0.639-0.088,1.213-0.455,1.723c-0.366,0.511-0.854,0.846-1.459,1.005
		c-3.127,0.766-6.142,1.468-9.044,2.105c-0.702,0.16-1.348,0.056-1.938-0.312c-0.59-0.366-0.98-0.885-1.172-1.555
		c-0.191-0.638-0.112-1.236,0.239-1.795c0.351-0.558,0.845-0.9,1.483-1.028c0.096-0.031,0.191-0.048,0.287-0.048
		c0.159-0.031,0.239-0.127,0.239-0.287V3.35c0-0.701,0.255-1.308,0.766-1.818c0.51-0.51,1.116-0.766,1.818-0.766
		c0.701,0,1.308,0.256,1.818,0.766c0.51,0.511,0.766,1.117,0.766,1.818v2.345c0,0.191,0.096,0.287,0.287,0.287h3.685
		c0.638,0,1.18,0.224,1.627,0.67c0.446,0.447,0.67,0.981,0.67,1.603c0,0.623-0.224,1.157-0.67,1.604
		c-0.447,0.447-0.989,0.67-1.627,0.67h-3.685c-0.191,0-0.287,0.096-0.287,0.287v4.402c0,0.191,0.096,0.271,0.287,0.239
		L260.752,14.69z M259.365,22.682c0.159-0.766,0.574-1.371,1.244-1.818c0.67-0.446,1.388-0.59,2.153-0.431
		c0.766,0.16,1.323,0.582,1.675,1.269c0.351,0.686,0.398,1.396,0.144,2.129c-0.032,0.128-0.064,0.239-0.096,0.335
		c-0.064,0.191,0,0.287,0.191,0.287h8.518c0.925,0,1.715,0.327,2.368,0.981c0.654,0.653,0.981,1.443,0.981,2.368v15.169
		c0,0.766-0.271,1.419-0.813,1.962c-0.543,0.542-1.213,0.813-2.01,0.813h-1.436c-0.352,0-0.662-0.136-0.934-0.406
		c-0.271-0.271-0.406-0.583-0.406-0.934c0-0.096-0.048-0.144-0.144-0.144h-13.255c-0.096,0-0.144,0.048-0.144,0.144
		c0,0.414-0.151,0.773-0.454,1.076c-0.304,0.304-0.663,0.455-1.077,0.455h-1.196c-0.734,0-1.363-0.264-1.891-0.789
		c-0.525-0.527-0.789-1.157-0.789-1.891V27.802c0-0.925,0.327-1.715,0.98-2.368c0.654-0.654,1.443-0.981,2.369-0.981h3.302
		c0.191,0,0.318-0.096,0.383-0.287C259.157,23.655,259.269,23.16,259.365,22.682z M270.658,32.061c0.191,0,0.287-0.096,0.287-0.287
		v-2.249c0-0.191-0.096-0.287-0.287-0.287H257.69c-0.191,0-0.287,0.096-0.287,0.287v2.249c0,0.191,0.096,0.287,0.287,0.287H270.658z
		 M257.403,39.19c0,0.191,0.096,0.287,0.287,0.287h12.968c0.191,0,0.287-0.096,0.287-0.287v-2.44c0-0.191-0.096-0.287-0.287-0.287
		H257.69c-0.191,0-0.287,0.096-0.287,0.287V39.19z M270.514,16.652h2.536c0.479,0,0.797-0.255,0.957-0.766
		c0.063-0.191,0.111-0.494,0.144-0.909c0.096-0.542,0.391-0.949,0.886-1.22c0.494-0.271,0.996-0.295,1.507-0.072
		c0.701,0.287,1.26,0.734,1.675,1.34c0.414,0.606,0.542,1.261,0.383,1.962c-0.256,1.34-0.639,2.329-1.148,2.967
		c-0.766,0.989-2.026,1.483-3.78,1.483h-3.972c-2.201,0-3.677-0.446-4.426-1.34c-0.75-0.893-1.125-2.567-1.125-5.024V3.397
		c0-0.733,0.255-1.355,0.766-1.866c0.51-0.51,1.132-0.766,1.866-0.766c0.733,0,1.355,0.256,1.866,0.766
		c0.51,0.511,0.766,1.133,0.766,1.866v2.919c0,0.064,0.031,0.112,0.096,0.144c0.063,0.032,0.127,0.032,0.191,0
		c0.988-0.479,1.914-1.005,2.775-1.579c0.638-0.414,1.34-0.598,2.105-0.551c0.766,0.049,1.419,0.328,1.962,0.838
		c0.479,0.479,0.678,1.053,0.599,1.723c-0.08,0.67-0.407,1.165-0.981,1.483c-1.723,0.894-3.876,1.835-6.46,2.823
		c-0.191,0.064-0.287,0.191-0.287,0.383v3.445c0,0.702,0.063,1.148,0.191,1.34C269.732,16.557,270.036,16.652,270.514,16.652z"/>
	<path d="M297.33,31.056c0.701-0.096,1.323,0.088,1.866,0.55c0.542,0.463,0.829,1.046,0.861,1.747
		c0.063,0.734-0.144,1.396-0.622,1.985c-0.479,0.591-1.085,0.95-1.818,1.077c-2.425,0.383-5.359,0.83-8.805,1.34
		c-0.224,0.032-0.335,0.144-0.335,0.335v4.977c0,0.733-0.271,1.371-0.813,1.914c-0.543,0.542-1.188,0.813-1.938,0.813
		c-0.749,0-1.396-0.271-1.938-0.813c-0.543-0.543-0.813-1.181-0.813-1.914v-4.211c0-0.159-0.08-0.223-0.239-0.191h-0.048
		c-0.766,0.096-1.468-0.088-2.105-0.551c-0.639-0.462-1.021-1.076-1.148-1.842c-0.128-0.766,0.04-1.459,0.503-2.082
		c0.462-0.621,1.076-0.98,1.842-1.076c0.351-0.031,0.653-0.063,0.909-0.096c0.191-0.031,0.287-0.144,0.287-0.335V6.077
		c0-0.67,0.263-1.196,0.79-1.579c0.525-0.383,1.107-0.479,1.746-0.287c0.127,0.064,0.271,0.08,0.431,0.048
		c2.807-0.829,5.184-1.675,7.13-2.536c0.861-0.414,1.778-0.574,2.752-0.479c0.973,0.096,1.81,0.447,2.512,1.053
		c0.542,0.511,0.758,1.133,0.646,1.866c-0.112,0.734-0.503,1.229-1.173,1.483c-2.616,0.989-5.615,1.914-8.996,2.775
		c-0.224,0.064-0.335,0.191-0.335,0.383v3.206c0,0.191,0.111,0.287,0.335,0.287h6.843c0.766,0,1.403,0.263,1.914,0.79
		c0.51,0.525,0.766,1.156,0.766,1.89c0,0.734-0.256,1.364-0.766,1.89c-0.511,0.527-1.148,0.79-1.914,0.79h-6.843
		c-0.224,0-0.335,0.096-0.335,0.287v3.445c0,0.191,0.111,0.287,0.335,0.287h7.273c0.733,0,1.364,0.263,1.89,0.79
		c0.527,0.525,0.79,1.164,0.79,1.914c0,0.749-0.263,1.387-0.79,1.914c-0.525,0.525-1.156,0.789-1.89,0.789h-7.273
		c-0.224,0-0.335,0.096-0.335,0.287v4.594c0,0.191,0.111,0.271,0.335,0.239C291.523,31.854,294.363,31.471,297.33,31.056z
		 M318.624,21.725c0.574-0.127,1.148-0.079,1.723,0.144l1.053,0.431c0.542,0.191,0.94,0.551,1.196,1.076
		c0.255,0.527,0.287,1.062,0.096,1.604c-1.468,4.594-3.637,8.438-6.508,11.532c-0.16,0.16-0.144,0.287,0.048,0.383
		c1.978,1.244,4.146,2.249,6.508,3.015c0.67,0.224,1.116,0.678,1.34,1.363c0.223,0.687,0.111,1.332-0.335,1.938
		c-0.574,0.797-1.3,1.364-2.177,1.698c-0.878,0.336-1.747,0.343-2.608,0.024c-2.744-1.053-5.168-2.393-7.273-4.02
		c-0.16-0.127-0.319-0.127-0.479,0c-2.521,1.69-5.455,3.126-8.805,4.307c-0.766,0.255-1.531,0.216-2.297-0.12
		c-0.766-0.334-1.372-0.885-1.818-1.65c-0.383-0.574-0.463-1.188-0.239-1.842c0.223-0.654,0.653-1.077,1.292-1.269
		c2.807-0.861,5.359-2.025,7.656-3.493c0.159-0.096,0.175-0.223,0.048-0.383c-1.404-1.723-2.648-3.716-3.732-5.981
		c-0.352-0.701-0.359-1.396-0.023-2.081c0.334-0.687,0.885-1.141,1.65-1.364v-0.048h-1.914c-0.734,0-1.363-0.264-1.891-0.789
		c-0.525-0.527-0.789-1.156-0.789-1.891v-1.675c0-0.255,0.096-0.479,0.287-0.67s0.414-0.287,0.67-0.287
		c0.031,0,0.048-0.008,0.048-0.024c0-0.016,0-0.039,0-0.071c-0.319-0.383-0.639-0.749-0.957-1.101
		c-0.543-0.605-0.798-1.308-0.766-2.105c0.031-0.797,0.335-1.499,0.909-2.105c0.605-0.605,1.068-1.26,1.388-1.962
		c0.638-1.499,0.957-3.254,0.957-5.264V5.359c0-0.925,0.327-1.715,0.981-2.369c0.653-0.653,1.442-0.98,2.368-0.98h9.235
		c0.925,0,1.715,0.327,2.369,0.98c0.653,0.654,0.98,1.444,0.98,2.369v8.23c0,0.606,0.016,1.021,0.048,1.244
		c0.031,0.191,0.111,0.319,0.239,0.383c0.096,0.032,0.191,0.048,0.287,0.048h0.909c0.255,0,0.446-0.048,0.574-0.144
		c0.159-0.127,0.287-0.462,0.383-1.005c0.031-0.287,0.079-0.829,0.144-1.627c0-0.51,0.231-0.877,0.693-1.101
		c0.463-0.223,0.934-0.207,1.412,0.048c0.67,0.352,1.204,0.83,1.604,1.436c0.398,0.606,0.55,1.244,0.454,1.914
		c-0.128,1.148-0.304,2.01-0.526,2.584c-0.383,0.957-0.974,1.627-1.771,2.01c-0.702,0.352-1.579,0.526-2.632,0.526h-2.632
		c-1.531,0-2.68-0.383-3.445-1.148c-0.798-0.861-1.196-2.552-1.196-5.072V7.369c0-0.191-0.096-0.287-0.287-0.287h-4.45
		c-0.224,0-0.335,0.096-0.335,0.287V9.14c0,5.615-1.803,9.73-5.407,12.346c-0.064,0.032-0.088,0.071-0.071,0.12
		c0.016,0.047,0.055,0.071,0.119,0.071h15.36c0.031,0,0.048,0.017,0.048,0.048h0.144C318.511,21.725,318.559,21.725,318.624,21.725z
		 M315.752,27.275c0.031-0.063,0.031-0.127,0-0.191c-0.032-0.063-0.08-0.096-0.144-0.096h-7.8c-0.096,0-0.16,0.032-0.191,0.096
		c-0.032,0.064-0.032,0.128,0,0.191c1.021,2.138,2.28,4.02,3.78,5.646c0.127,0.16,0.271,0.16,0.431,0
		C313.328,31.327,314.635,29.445,315.752,27.275z"/>
</g>
</svg>
