<svg version="1.1" xmlns="http://www.w3.org/2000/svg" xmlns:xlink="http://www.w3.org/1999/xlink" x="0px" y="0px"
	 width="150.981px" height="44.168px" viewBox="0 0 150.981 44.168" enable-background="new 0 0 150.981 44.168"
	 xml:space="preserve">
<g>
	<path d="M144.275,27.033V18.68h1.536v0.484c0,0,1.338-0.669,2.353-0.669c2.276,0,2.817,1.26,2.817,4.171v4.367h-1.557v-4.352
		c0-1.894-0.218-2.715-1.517-2.715c-0.918,0-2.097,0.502-2.097,0.502v6.564H144.275z"/>
	<path d="M60.525,10.604c1.525,0,2.49-0.538,2.49-2.181V0.421h1.598v8.003c0,2.713-1.441,3.771-4.088,3.771
		c-2.58,0-4.021-1.059-4.021-3.771V0.421h1.583v8.003C58.088,10.084,59.049,10.604,60.525,10.604"/>
	<path d="M67.281,3.684h1.539v0.988c0,0,1.158-0.884,2.662-1.188v1.677c-1.504,0.298-2.662,1.021-2.662,1.021v5.859h-1.539V3.684z"
		/>
	<path d="M80.124,7.738c0,3.398-0.999,4.491-3.944,4.491c-0.916,0-2.879-0.204-2.879-0.204V0.117h1.538v3.889
		c0,0,1.173-0.506,2.194-0.506C79.258,3.5,80.124,4.656,80.124,7.738 M78.537,7.738c0-2.007-0.462-2.774-1.686-2.774
		c-0.918,0-2.013,0.347-2.013,0.347v5.391c0,0,0.966,0.087,1.341,0.087C78.178,10.788,78.537,9.883,78.537,7.738"/>
	<path d="M88.234,10.051c0.016,0.569,0.312,0.732,0.801,0.806l-0.047,1.353c-1.148,0-1.622-0.182-2.08-0.598
		c0,0-1.422,0.615-2.85,0.615c-1.467,0-2.287-0.971-2.287-2.631c0-1.707,0.883-2.357,2.621-2.509l2.287-0.204V6.286
		c0-0.86-0.438-1.276-1.207-1.276c-1.217,0-3.146,0.199-3.146,0.199l-0.06-1.367c0,0,2.041-0.342,3.287-0.342
		c1.75,0,2.68,0.789,2.68,2.766V10.051z M84.573,8.291c-0.853,0.066-1.226,0.488-1.226,1.274c0,0.839,0.357,1.291,0.994,1.291
		c1.049,0,2.338-0.423,2.338-0.423V8.125L84.573,8.291z"/>
	<path d="M91.077,12.046V3.688h1.54v0.482c0,0,1.34-0.671,2.354-0.671c2.277,0,2.821,1.26,2.821,4.172v4.374H96.23V7.689
		c0-1.893-0.209-2.713-1.518-2.713c-0.921,0-2.096,0.503-2.096,0.503v6.566H91.077z"/>
	<path d="M61.135,22.852H58.27v4.182h-1.586V15.414h4.235c2.504,0,3.716,1.068,3.716,3.632c0,1.776-0.622,2.834-1.932,3.368
		l1.994,4.619h-1.75L61.135,22.852z M60.919,16.949H58.27v4.359h2.663c1.544,0,2.062-0.888,2.062-2.227
		C62.994,17.641,62.326,16.949,60.919,16.949"/>
	<path d="M72.929,25.609l0.031,1.256c0,0-1.865,0.357-3.261,0.357c-2.45-0.019-3.338-1.412-3.338-4.307
		c0-3.113,1.314-4.421,3.489-4.421c2.257,0,3.384,1.188,3.384,3.866l-0.099,1.158h-5.2c0,1.506,0.523,2.242,1.981,2.242
		C71.177,25.762,72.929,25.609,72.929,25.609 M71.697,22.281c0-1.742-0.539-2.381-1.847-2.381c-1.278,0-1.915,0.687-1.932,2.381
		H71.697z"/>
	<path d="M74.789,28.497c0-0.909,0.405-1.432,1.258-2.081c-0.324-0.219-0.507-0.669-0.507-1.191c0-0.354,0.591-1.318,0.591-1.318
		c-0.652-0.352-1.244-0.99-1.244-2.518c0-2.086,1.346-2.894,3.188-2.894c0.784,0,1.683,0.219,1.683,0.219l2.426-0.053v1.31h-1.326
		c0.246,0.299,0.426,0.668,0.426,1.418c0,2.248-1.098,2.866-3.255,2.866c-0.165,0-0.591-0.032-0.749-0.066
		c0,0-0.246,0.655-0.246,0.87c0,0.584,0.143,0.688,1.846,0.688c2.471,0,3.288,0.517,3.288,2.476c0,2.01-1.473,2.834-3.715,2.834
		C75.934,31.057,74.789,30.5,74.789,28.497 M77.083,27.036c-0.558,0.437-0.755,0.737-0.755,1.304c0,0.922,0.507,1.293,2.143,1.293
		c1.438,0,2.125-0.388,2.125-1.326c0-1.054-0.455-1.17-1.851-1.191C78.203,27.115,77.083,27.036,77.083,27.036 M79.745,21.389
		c0-1.203-0.476-1.534-1.687-1.534c-1.111,0-1.619,0.401-1.619,1.534c0,1.041,0.396,1.527,1.589,1.527
		C79.234,22.916,79.745,22.549,79.745,21.389"/>
	<path d="M90.113,25.609l0.035,1.256c0,0-1.865,0.357-3.254,0.357c-2.455-0.019-3.342-1.412-3.342-4.307
		c0-3.113,1.311-4.421,3.486-4.421c2.259,0,3.387,1.188,3.387,3.866l-0.094,1.158h-5.203c0,1.506,0.52,2.242,1.98,2.242
		C88.37,25.762,90.113,25.609,90.113,25.609 M88.891,22.281c0-1.742-0.541-2.381-1.852-2.381c-1.276,0-1.91,0.687-1.93,2.381H88.891
		z"/>
	<path d="M92.6,27.033V18.68h1.537v0.484c0,0,1.345-0.669,2.357-0.669c2.273,0,2.814,1.26,2.814,4.171v4.367h-1.555v-4.352
		c0-1.894-0.217-2.715-1.521-2.715c-0.913,0-2.096,0.502-2.096,0.502v6.564H92.6z"/>
	<path d="M107.997,25.609l0.028,1.256c0,0-1.865,0.357-3.252,0.357c-2.457-0.019-3.338-1.412-3.338-4.307
		c0-3.113,1.305-4.421,3.482-4.421c2.26,0,3.385,1.188,3.385,3.866l-0.096,1.158h-5.199c0,1.506,0.518,2.242,1.977,2.242
		C106.246,25.762,107.997,25.609,107.997,25.609 M106.768,22.281c0-1.742-0.537-2.381-1.85-2.381c-1.277,0-1.91,0.687-1.929,2.381
		H106.768z"/>
	<path d="M110.477,18.68h1.545v0.988c0,0,1.157-0.889,2.664-1.191v1.676c-1.507,0.302-2.664,1.02-2.664,1.02v5.861h-1.545V18.68z"/>
	<path d="M122.391,25.041c0.012,0.568,0.311,0.74,0.797,0.803l-0.045,1.36c-1.146,0-1.619-0.185-2.078-0.604
		c0,0-1.424,0.623-2.844,0.623c-1.474,0-2.293-0.973-2.293-2.633c0-1.709,0.885-2.365,2.617-2.511l2.291-0.199v-0.607
		c0-0.852-0.441-1.268-1.211-1.268c-1.21,0-3.141,0.199-3.141,0.199l-0.066-1.372c0,0,2.041-0.337,3.289-0.337
		c1.747,0,2.684,0.786,2.684,2.763V25.041z M118.727,23.286c-0.853,0.065-1.225,0.479-1.225,1.271c0,0.836,0.357,1.287,0.992,1.287
		c1.047,0,2.342-0.42,2.342-0.42v-2.309L118.727,23.286z"/>
	<path d="M126.92,20.102v3.653c0,1.503,0.081,1.975,1.016,1.975c0.455,0,1.389-0.087,1.389-0.087l0.082,1.373
		c0,0-1.098,0.207-1.672,0.207c-1.78,0-2.351-0.691-2.351-3.102v-4.02h-1.099v-1.424h1.099v-2.512h1.536v2.512h2.404v1.424H126.92z"
		/>
</g>
<path d="M131.186,17.055h1.561v-1.759h-1.561V17.055z M131.186,27.036h1.561V18.68h-1.561V27.036z"/>
<g>
	<path d="M142.049,22.779c0,2.818-0.785,4.441-3.565,4.441c-2.798,0-3.597-1.56-3.597-4.441c0-2.797,0.908-4.284,3.597-4.284
		C141.068,18.495,142.049,20.02,142.049,22.779 M140.482,22.779c0-1.99-0.545-2.858-1.999-2.858c-1.571,0-2.029,0.802-2.029,2.858
		c0,2.082,0.347,3.002,2.029,3.002C140.167,25.781,140.482,24.775,140.482,22.779"/>
	<path d="M63.027,34.022c0,0-2.286-0.291-3.24-0.291c-1.468,0-2.221,0.509-2.221,1.63c0,1.236,0.672,1.504,2.596,1.993
		c2.314,0.616,3.23,1.232,3.23,3.28c0,2.459-1.477,3.514-3.766,3.514c-1.229,0-3.455-0.385-3.455-0.385l0.168-1.47
		c0,0,2.106,0.285,3.268,0.285c1.474,0,2.193-0.522,2.193-1.897c0-1.103-0.571-1.455-2.334-1.877
		c-2.406-0.566-3.504-1.25-3.504-3.414c0-2.195,1.471-3.228,3.824-3.228c1.26,0,3.374,0.386,3.374,0.386L63.027,34.022z"/>
	<path d="M67.197,37.047v3.654c0,1.506,0.084,1.971,1.019,1.971c0.454,0,1.39-0.078,1.39-0.078l0.08,1.373
		c0,0-1.095,0.201-1.667,0.201c-1.784,0-2.358-0.688-2.358-3.1v-4.021h-1.098v-1.422h1.098v-2.512h1.537v2.512h2.408v1.422H67.197z"
		/>
	<path d="M77.438,41.99c0.019,0.568,0.315,0.736,0.804,0.806l-0.048,1.353c-1.147,0-1.622-0.182-2.079-0.6
		c0,0-1.424,0.619-2.845,0.619c-1.478,0-2.29-0.973-2.29-2.632c0-1.707,0.882-2.358,2.613-2.511l2.287-0.201v-0.602
		c0-0.857-0.438-1.275-1.209-1.275c-1.209,0-3.135,0.201-3.135,0.201l-0.064-1.371c0,0,2.035-0.338,3.285-0.338
		c1.752,0,2.681,0.79,2.681,2.766V41.99z M73.775,40.232c-0.854,0.068-1.227,0.486-1.227,1.272c0,0.837,0.358,1.291,0.996,1.291
		c1.051,0,2.336-0.421,2.336-0.421v-2.312L73.775,40.232z"/>
	<path d="M81.643,37.047v3.654c0,1.506,0.084,1.971,1.019,1.971c0.453,0,1.386-0.078,1.386-0.078l0.082,1.373
		c0,0-1.091,0.201-1.666,0.201c-1.783,0-2.355-0.688-2.355-3.1v-4.021H79.01v-1.422h1.098v-2.512h1.535v2.512h2.404v1.422H81.643z"
		/>
</g>
<path d="M85.911,43.984h1.555v-8.359h-1.555V43.984z M85.911,34h1.555v-1.76h-1.555V34z"/>
<g>
	<path d="M96.771,39.729c0,2.814-0.783,4.438-3.562,4.438c-2.798,0-3.602-1.559-3.602-4.438c0-2.8,0.918-4.29,3.602-4.29
		C95.794,35.439,96.771,36.965,96.771,39.729 M95.201,39.729c0-1.995-0.538-2.864-1.992-2.864c-1.571,0-2.029,0.803-2.029,2.864
		c0,2.077,0.346,2.997,2.029,2.997S95.201,41.721,95.201,39.729"/>
	<path d="M98.996,43.982v-8.357h1.541v0.484c0,0,1.34-0.668,2.352-0.668c2.277,0,2.819,1.256,2.819,4.17v4.371h-1.558V39.63
		c0-1.894-0.215-2.714-1.52-2.714c-0.921,0-2.094,0.502-2.094,0.502v6.564H98.996z"/>
	<path d="M38.936,20.27c2.875-0.258,4.684-1.836,4.684-5.142c0-3.019-1.35-3.931-4.752-4.847c-2.85-0.715-3.84-1.11-3.84-2.943
		c0-1.516,0.935-2.256,2.771-2.374V2.639c-3.176,0.143-5.135,1.68-5.135,4.754c0,3.188,1.614,4.199,5.161,5.039
		c2.609,0.615,3.455,1.135,3.455,2.766c0,1.725-0.771,2.534-2.344,2.736V20.27z M37.798,17.986c-1.75-0.032-4.581-0.414-4.581-0.414
		l-0.242,2.173c0,0,2.976,0.511,4.823,0.562V17.986z M30.455,20.066l-2.947-6.821c1.93-0.786,2.848-2.347,2.848-4.962
		c0-3.778-1.787-5.362-5.475-5.362h-2.768v2.272h2.768c2.072,0,3.061,1.016,3.061,3.137c0,1.979-0.771,3.287-3.037,3.287h-2.791
		v2.27h3.082l2.678,6.18H30.455z M20.973,2.921h-2.341v17.146h2.334L20.973,2.921z M15.506,2.921h-2.361v11.806
		c0,2.246-1.229,3.089-3.188,3.197v2.354c3.598-0.129,5.549-1.714,5.549-5.551V2.921z M8.814,17.911
		c-1.797-0.155-2.937-0.995-2.937-3.185V2.921H3.539v11.806c0,3.769,1.881,5.365,5.275,5.543V17.911z M38.936,4.967
		c1.588,0.079,4.149,0.4,4.149,0.4l0.196-2.172c0,0-2.488-0.455-4.346-0.55V4.967z M0,0h46.166v22.984H0V0z"/>
</g>
</svg>
