<svg width="16" height="7" viewBox="0 0 16 7" fill="none" xmlns="http://www.w3.org/2000/svg">
<path d="M1.46015 0L3.67319 2.85714H5.36149L5.42993 2.78571V0H6.61631V2.78571L6.68475 2.85714H8.21334V0H9.44535V2.85714H12.6394C11.955 1.99429 11.4558 1.00667 10.9968 0H12.0462C12.1352 0.17381 12.3191 0.398571 12.4555 0.549048C13.3987 1.58619 14.492 2.57524 15.7345 3.1981C15.7313 3.35 15.7897 3.6781 15.6971 3.78619C15.6441 3.8481 14.9031 4.2481 14.7425 4.36143C13.6999 5.09476 12.8119 6.02952 11.9778 7H11.0424C11.1902 6.52095 11.4348 6.02571 11.6734 5.58714C11.9518 5.07571 12.2685 4.58524 12.6394 4.14286H9.44535V6.92857L9.3769 7H8.21334V4.14286H6.61631V7H5.42993V4.14286H3.60475L1.39171 7H0L2.64561 3.50143L0 0H1.46015Z" fill="white"/>
</svg>
