<svg width="128" height="131" viewBox="0 0 128 131" fill="none" xmlns="http://www.w3.org/2000/svg">
<g clip-path="url(#clip0_44_7693)">
<path d="M73.6705 65.5324L90.5537 40.2987L65.3587 57.2069L40.1637 40.2987L57.0469 65.5324L40.1637 90.7645L65.3587 73.8563L90.5537 90.7645L73.6705 65.5324Z" fill="#656669"/>
<path d="M60.3814 69.9062L90.5537 90.1542L40.1637 39.6884L60.3814 69.9062Z" fill="#14294C"/>
<path d="M40.1637 39.6884L90.5537 90.1542L70.336 59.9364L40.1637 39.6884Z" fill="#2E4160"/>
<path d="M60.3814 59.9364L40.1637 90.1542L90.5537 39.6884L60.3814 59.9364Z" fill="#14294C"/>
<path d="M90.5537 39.6884L40.1637 90.1542L70.336 69.9062L90.5537 39.6884Z" fill="#2E4160"/>
<path d="M73.0027 64.9221C73.0027 69.1495 69.5806 72.5771 65.3587 72.5771C61.1368 72.5771 57.7147 69.1495 57.7147 64.9221C57.7147 60.6946 61.1368 57.267 65.3587 57.267C69.5806 57.267 73.0027 60.6946 73.0027 64.9221Z" fill="#14294C"/>
<path d="M65.5567 83.6104C55.1002 83.6104 46.5933 75.0907 46.5933 64.6184C46.5933 54.1462 55.1002 45.6265 65.5567 45.6265C76.0133 45.6265 84.5202 54.1462 84.5202 64.6184C84.5202 75.0907 76.0133 83.6104 65.5567 83.6104ZM65.5567 45.9039C55.2521 45.9039 46.8697 54.2987 46.8697 64.6184C46.8697 74.9382 55.2521 83.3345 65.5567 83.3345C75.8613 83.3345 84.2438 74.9382 84.2438 64.6184C84.2438 54.2987 75.8613 45.9039 65.5567 45.9039Z" fill="white"/>
<path d="M65.5568 86.8422C53.3208 86.8422 43.3662 76.8723 43.3662 64.6184C43.3662 52.3646 53.3208 42.3947 65.5568 42.3947C77.7927 42.3947 87.7473 52.3646 87.7473 64.6184C87.7473 76.8723 77.7927 86.8422 65.5568 86.8422ZM65.5568 43.6939C54.0362 43.6939 44.6635 53.0812 44.6635 64.6184C44.6635 76.1557 54.0362 85.543 65.5568 85.543C77.0773 85.543 86.45 76.1557 86.45 64.6184C86.45 53.0812 77.0773 43.6939 65.5568 43.6939Z" fill="white"/>
<path d="M65.5567 116.79C51.827 116.79 38.9201 111.436 29.2128 101.713C19.5054 91.9913 14.1581 79.0639 14.1581 65.3151C14.1581 51.5662 19.5038 38.6388 29.2128 28.9171C38.9201 19.1954 51.8285 13.8398 65.5567 13.8398C79.285 13.8398 92.1934 19.1938 101.901 28.9171C111.608 38.6388 116.955 51.5662 116.955 65.3151C116.955 79.0639 111.61 91.9913 101.901 101.713C92.1934 111.435 79.285 116.79 65.5567 116.79ZM65.5567 14.7614C52.0742 14.7614 39.3976 20.0199 29.8637 29.5675C20.3298 39.1151 15.0792 51.8113 15.0792 65.3135C15.0792 78.8158 20.3298 91.512 29.8637 101.06C39.3976 110.607 52.0742 115.866 65.5567 115.866C79.0393 115.866 91.7159 110.607 101.25 101.06C110.784 91.512 116.034 78.8158 116.034 65.3135C116.034 51.8113 110.784 39.1151 101.25 29.5675C91.7159 20.0199 79.0393 14.7614 65.5567 14.7614Z" fill="white"/>
<path d="M65.9513 8.19752H65.1637V14.3006H65.9513V8.19752Z" fill="white"/>
<path d="M65.9513 116.328H65.1637V122.431H65.9513V116.328Z" fill="white"/>
<path d="M56.3724 11.3792L55.7677 11.4865L56.4096 15.1335L57.0143 15.0262L56.3724 11.3792Z" fill="white"/>
<path d="M74.7035 115.501L74.0988 115.608L74.7407 119.255L75.3454 119.148L74.7035 115.501Z" fill="white"/>
<path d="M47.8476 17.4816L46.5826 14.0031L47.1598 13.792L48.4249 17.272L47.8476 17.4816Z" fill="white"/>
<path d="M83.9552 116.837L82.6902 113.358L83.2674 113.147L84.5325 116.627L83.9552 116.837Z" fill="white"/>
<path d="M39.8229 21.2883L37.9744 18.0826L38.5056 17.7744L40.3541 20.9816L39.8229 21.2883Z" fill="white"/>
<path d="M92.6094 112.854L90.761 109.649L91.2922 109.34L93.1406 112.547L92.6094 112.854Z" fill="white"/>
<path d="M32.5796 26.4327L30.203 23.597L30.6743 23.2009L33.0509 26.0382L32.5796 26.4327Z" fill="white"/>
<path d="M100.441 107.428L98.0641 104.592L98.5355 104.196L100.91 107.033L100.441 107.428Z" fill="white"/>
<path d="M26.3403 32.7592L23.5078 30.3797L23.9023 29.9081L26.7349 32.2876L26.3403 32.7592Z" fill="white"/>
<path d="M107.213 100.722L104.38 98.3409L104.775 97.8709L107.607 100.25L107.213 100.722Z" fill="white"/>
<path d="M21.2909 40.0737L18.0883 38.2227L18.3954 37.6895L21.5979 39.5404L21.2909 40.0737Z" fill="white"/>
<path d="M112.72 92.9391L109.517 91.0882L109.824 90.5549L113.027 92.4059L112.72 92.9391Z" fill="white"/>
<path d="M17.5879 48.1556L14.1136 46.8888L14.3224 46.3108L17.7967 47.5777L17.5879 48.1556Z" fill="white"/>
<path d="M116.793 84.3178L113.318 83.0509L113.529 82.473L117.003 83.7398L116.793 84.3178Z" fill="white"/>
<path d="M11.8068 55.5118L11.7007 56.1174L15.3418 56.7599L15.4478 56.1543L11.8068 55.5118Z" fill="white"/>
<path d="M115.766 73.8613L115.66 74.467L119.301 75.1095L119.407 74.5039L115.766 73.8613Z" fill="white"/>
<path d="M14.6202 64.919H8.52679V65.7081H14.6202V64.919Z" fill="white"/>
<path d="M122.59 64.919H116.496V65.7081H122.59V64.919Z" fill="white"/>
<path d="M15.3418 73.8671L11.7014 74.5128L11.8079 75.1184L15.4484 74.4727L15.3418 73.8671Z" fill="white"/>
<path d="M119.309 55.5037L115.669 56.1494L115.776 56.7549L119.416 56.1092L119.309 55.5037Z" fill="white"/>
<path d="M14.3224 84.3178L14.1136 83.7398L17.5879 82.473L17.7967 83.0509L14.3224 84.3178Z" fill="white"/>
<path d="M113.529 48.1556L113.318 47.5777L116.793 46.3108L117.003 46.8888L113.529 48.1556Z" fill="white"/>
<path d="M18.3969 92.9391L18.0899 92.4059L21.2909 90.5549L21.5979 91.0882L18.3969 92.9391Z" fill="white"/>
<path d="M109.824 40.0737L109.517 39.5404L112.72 37.6895L113.027 38.2212L109.824 40.0737Z" fill="white"/>
<path d="M23.9023 100.721L23.5078 100.249L26.3403 97.8693L26.7349 98.3409L23.9023 100.721Z" fill="white"/>
<path d="M104.776 32.7577L104.38 32.2876L107.213 29.9065L107.607 30.3781L104.776 32.7577Z" fill="white"/>
<path d="M30.6743 107.428L30.2045 107.032L32.5811 104.194L33.0509 104.59L30.6743 107.428Z" fill="white"/>
<path d="M98.5355 26.4327L98.0641 26.0366L100.441 23.2009L100.912 23.5954L98.5355 26.4327Z" fill="white"/>
<path d="M38.5072 112.854L37.9744 112.546L39.8229 109.339L40.3541 109.647L38.5072 112.854Z" fill="white"/>
<path d="M91.2922 21.2883L90.761 20.98L92.6094 17.7744L93.1406 18.0811L91.2922 21.2883Z" fill="white"/>
<path d="M47.1598 116.837L46.5826 116.625L47.8476 113.145L48.4249 113.357L47.1598 116.837Z" fill="white"/>
<path d="M83.2674 17.4816L82.6902 17.2704L83.9552 13.792L84.5325 14.0016L83.2674 17.4816Z" fill="white"/>
<path d="M56.4072 115.493L55.7684 119.14L56.3733 119.247L57.012 115.599L56.4072 115.493Z" fill="white"/>
<path d="M74.7375 11.3726L74.0988 15.0201L74.7036 15.1268L75.3424 11.4793L74.7375 11.3726Z" fill="white"/>
<path d="M63.8365 12.1758L63.5742 12.185L63.6378 14.0133L63.9001 14.0041L63.8365 12.1758Z" fill="white"/>
<path d="M67.4864 116.609L67.2241 116.618L67.288 118.446L67.5503 118.437L67.4864 116.609Z" fill="white"/>
<path d="M61.9846 12.2744L61.7227 12.2928L61.8498 14.1177L62.1117 14.0993L61.9846 12.2744Z" fill="white"/>
<path d="M69.2699 116.511L69.0081 116.53L69.1355 118.355L69.3974 118.336L69.2699 116.511Z" fill="white"/>
<path d="M60.1376 12.4231L59.8765 12.4507L60.0673 14.27L60.3284 14.2424L60.1376 12.4231Z" fill="white"/>
<path d="M71.0416 116.358L70.7805 116.385L70.9714 118.205L71.2324 118.177L71.0416 116.358Z" fill="white"/>
<path d="M58.2983 12.6496L58.0384 12.6864L58.2923 14.4979L58.5523 14.4612L58.2983 12.6496Z" fill="white"/>
<path d="M72.822 116.132L72.562 116.168L72.8165 117.981L73.0764 117.945L72.822 116.132Z" fill="white"/>
<path d="M54.7716 15.1282L54.3924 13.3373L54.6488 13.2834L55.028 15.0727L54.7716 15.1282Z" fill="white"/>
<path d="M76.3436 115.498L76.0869 115.553L76.4667 117.342L76.7234 117.288L76.3436 115.498Z" fill="white"/>
<path d="M53.0291 15.5351L52.5869 13.7596L52.8418 13.6964L53.2839 15.4719L53.0291 15.5351Z" fill="white"/>
<path d="M78.2717 116.932L77.8296 115.157L78.0859 115.094L78.5266 116.869L78.2717 116.932Z" fill="white"/>
<path d="M51.302 16.0036L50.7984 14.2451L51.0517 14.1727L51.5553 15.9311L51.302 16.0036Z" fill="white"/>
<path d="M80.0633 116.457L79.5598 114.697L79.8115 114.625L80.3166 116.385L80.0633 116.457Z" fill="white"/>
<path d="M49.5917 16.5322L49.0283 14.7922L49.2785 14.7105L49.8419 16.4505L49.5917 16.5322Z" fill="white"/>
<path d="M81.8365 115.918L81.2716 114.178L81.5218 114.096L82.0868 115.838L81.8365 115.918Z" fill="white"/>
<path d="M46.2341 17.7667L45.5494 16.0698L45.7935 15.9712L46.4767 17.668L46.2341 17.7667Z" fill="white"/>
<path d="M85.3216 114.657L84.6368 112.962L84.8809 112.863L85.5657 114.559L85.3216 114.657Z" fill="white"/>
<path d="M44.5883 18.471L43.8452 16.7988L44.0863 16.6925L44.8278 18.3631L44.5883 18.471Z" fill="white"/>
<path d="M87.0288 113.938L86.2857 112.265L86.5267 112.159L87.2698 113.83L87.0288 113.938Z" fill="white"/>
<path d="M42.9686 19.2323L42.1687 17.5879L42.4036 17.4723L43.205 19.1168L42.9686 19.2323Z" fill="white"/>
<path d="M88.7099 113.158L87.91 111.512L88.1464 111.396L88.9463 113.042L88.7099 113.158Z" fill="white"/>
<path d="M41.3766 20.0492L40.5199 18.434L40.7517 18.3107L41.6084 19.9259L41.3766 20.0492Z" fill="white"/>
<path d="M90.3633 112.319L89.5051 110.703L89.7385 110.579L90.5952 112.195L90.3633 112.319Z" fill="white"/>
<path d="M38.283 21.8493L37.3143 20.2973L37.5384 20.157L38.5056 21.709L38.283 21.8493Z" fill="white"/>
<path d="M93.5766 110.472L92.6094 108.92L92.832 108.779L93.8008 110.331L93.5766 110.472Z" fill="white"/>
<path d="M36.7846 22.8294L35.7637 21.3129L35.9817 21.165L37.0026 22.6815L36.7846 22.8294Z" fill="white"/>
<path d="M95.1334 109.464L94.1124 107.947L94.3304 107.801L95.3514 109.317L95.1334 109.464Z" fill="white"/>
<path d="M35.3215 23.8605L34.2484 22.381L34.4602 22.2253L35.5349 23.7064L35.3215 23.8605Z" fill="white"/>
<path d="M96.6548 108.403L95.5801 106.924L95.792 106.768L96.8667 108.249L96.6548 108.403Z" fill="white"/>
<path d="M33.8953 24.9424L32.7715 23.5014L32.9787 23.3396L34.1025 24.7806L33.8953 24.9424Z" fill="white"/>
<path d="M98.1363 107.291L97.0125 105.848L97.2198 105.686L98.3436 107.129L98.1363 107.291Z" fill="white"/>
<path d="M31.161 27.2526L29.9389 25.8933L30.1339 25.7161L31.356 27.0769L31.161 27.2526Z" fill="white"/>
<path d="M100.981 104.912L99.7591 103.552L99.954 103.376L101.176 104.737L100.981 104.912Z" fill="white"/>
<path d="M29.856 28.4779L28.5864 27.1617L28.7752 26.9798L30.0449 28.296L29.856 28.4779Z" fill="white"/>
<path d="M102.34 103.65L101.07 102.334L101.259 102.151L102.529 103.467L102.34 103.65Z" fill="white"/>
<path d="M28.5941 29.7493L27.2799 28.4779L27.4626 28.2883L28.7767 29.5598L28.5941 29.7493Z" fill="white"/>
<path d="M103.652 102.342L102.338 101.07L102.521 100.881L103.835 102.152L103.652 102.342Z" fill="white"/>
<path d="M27.3766 31.0624L26.0194 29.8372L26.196 29.643L27.5516 30.8667L27.3766 31.0624Z" fill="white"/>
<path d="M104.919 100.987L103.562 99.7619L103.738 99.5677L105.096 100.791L104.919 100.987Z" fill="white"/>
<path d="M25.0845 33.8134L23.6444 32.6868L23.8071 32.4788L25.2457 33.6054L25.0845 33.8134Z" fill="white"/>
<path d="M107.309 98.1498L105.869 97.0232L106.031 96.8167L107.471 97.9433L107.309 98.1498Z" fill="white"/>
<path d="M24.0113 35.2467L22.5329 34.171L22.688 33.9583L24.1649 35.034L24.0113 35.2467Z" fill="white"/>
<path d="M108.427 96.6703L106.949 95.5961L107.104 95.3819L108.582 96.4576L108.427 96.6703Z" fill="white"/>
<path d="M22.9889 36.717L21.4736 35.6936L21.621 35.4763L23.1362 36.4997L22.9889 36.717Z" fill="white"/>
<path d="M109.494 95.1538L107.979 94.1304L108.126 93.9116L109.641 94.9349L109.494 95.1538Z" fill="white"/>
<path d="M22.017 38.2227L20.4695 37.2533L20.6077 37.0298L22.1568 37.9992L22.017 38.2227Z" fill="white"/>
<path d="M110.507 93.6003L108.958 92.6293L109.098 92.4074L110.647 93.3768L110.507 93.6003Z" fill="white"/>
<path d="M20.2377 41.3297L18.6241 40.4713L18.747 40.2386L20.3605 41.097L20.2377 41.3297Z" fill="white"/>
<path d="M112.368 90.39L110.755 89.5316L110.877 89.2988L112.491 90.1573L112.368 90.39Z" fill="white"/>
<path d="M19.4286 42.9295L17.7874 42.1265L17.9026 41.8907L19.5437 42.6921L19.4286 42.9295Z" fill="white"/>
<path d="M113.214 88.7394L111.571 87.9365L111.686 87.7006L113.329 88.5021L113.214 88.7394Z" fill="white"/>
<path d="M18.6763 44.5554L17.0075 43.8095L17.115 43.5691L18.7838 44.315L18.6763 44.5554Z" fill="white"/>
<path d="M114 87.0595L112.331 86.3151L112.439 86.0747L114.108 86.8176L114 87.0595Z" fill="white"/>
<path d="M17.9824 46.206L16.289 45.5202L16.3873 45.2767L18.0807 45.9625L17.9824 46.206Z" fill="white"/>
<path d="M114.729 85.3534L113.034 84.6676L113.133 84.4226L114.828 85.1084L114.729 85.3534Z" fill="white"/>
<path d="M16.7665 49.5766L15.0301 49.011L15.1115 48.7597L16.8479 49.3254L16.7665 49.5766Z" fill="white"/>
<path d="M116.005 81.8688L114.267 81.3032L114.349 81.0535L116.086 81.6176L116.005 81.8688Z" fill="white"/>
<path d="M16.2476 51.2904L14.4928 50.7864L14.5649 50.5336L16.3213 51.0376L16.2476 51.2904Z" fill="white"/>
<path d="M114.861 79.3296L114.789 79.583L116.545 80.0876L116.617 79.8342L114.861 79.3296Z" fill="white"/>
<path d="M14.0812 52.3209L14.0178 52.5766L15.7907 53.0194L15.8541 52.7637L14.0812 52.3209Z" fill="white"/>
<path d="M117.035 78.3041L115.262 77.8618L115.325 77.6059L117.098 78.0483L117.035 78.3041Z" fill="white"/>
<path d="M13.6599 54.1328L13.6053 54.3906L15.3924 54.7716L15.447 54.5138L13.6599 54.1328Z" fill="white"/>
<path d="M117.456 76.4963L115.669 76.1156L115.724 75.8582L117.511 76.2389L117.456 76.4963Z" fill="white"/>
<path d="M13.0055 57.7806L12.9691 58.0416L14.7783 58.2962L14.8148 58.0352L13.0055 57.7806Z" fill="white"/>
<path d="M116.329 72.3214L116.292 72.5824L118.101 72.837L118.138 72.576L116.329 72.3214Z" fill="white"/>
<path d="M12.7769 59.6258L12.7494 59.8879L14.5664 60.0796L14.5938 59.8175L12.7769 59.6258Z" fill="white"/>
<path d="M116.55 70.5498L116.523 70.8119L118.339 71.0036L118.367 70.7415L116.55 70.5498Z" fill="white"/>
<path d="M12.6119 61.4798L12.5936 61.7427L14.4161 61.8706L14.4344 61.6077L12.6119 61.4798Z" fill="white"/>
<path d="M116.693 68.76L116.675 69.0229L118.498 69.1502L118.516 68.8873L116.693 68.76Z" fill="white"/>
<path d="M12.5085 63.3292L12.4993 63.5926L14.3252 63.6569L14.3344 63.3935L12.5085 63.3292Z" fill="white"/>
<path d="M116.798 66.98L116.789 67.2434L118.614 67.3074L118.624 67.044L116.798 66.98Z" fill="white"/>
<path d="M14.3264 66.9745L12.5006 67.0385L12.5097 67.3019L14.3356 67.2379L14.3264 66.9745Z" fill="white"/>
<path d="M118.607 63.3264L116.781 63.3904L116.79 63.6538L118.616 63.5898L118.607 63.3264Z" fill="white"/>
<path d="M14.4181 68.7638L12.5956 68.8917L12.6139 69.1546L14.4364 69.0267L14.4181 68.7638Z" fill="white"/>
<path d="M118.506 61.4694L116.684 61.5974L116.702 61.8603L118.525 61.7323L118.506 61.4694Z" fill="white"/>
<path d="M14.5697 70.548L12.7528 70.74L12.7803 71.0021L14.5972 70.81L14.5697 70.548Z" fill="white"/>
<path d="M118.341 59.6188L116.524 59.8118L116.552 60.0738L118.368 59.8809L118.341 59.6188Z" fill="white"/>
<path d="M14.7797 72.3282L12.9706 72.5841L13.0072 72.8451L14.8163 72.5892L14.7797 72.3282Z" fill="white"/>
<path d="M118.108 57.7843L116.299 58.0402L116.336 58.3012L118.145 58.0453L118.108 57.7843Z" fill="white"/>
<path d="M13.6591 76.4963L13.6054 76.2389L15.3924 75.8582L15.4462 76.1156L13.6591 76.4963Z" fill="white"/>
<path d="M115.724 54.7703L115.669 54.5114L117.456 54.1323L117.511 54.3897L115.724 54.7703Z" fill="white"/>
<path d="M15.7898 77.6045L14.0173 78.0491L14.0809 78.3048L15.8534 77.8601L15.7898 77.6045Z" fill="white"/>
<path d="M115.325 53.0226L115.262 52.7668L117.035 52.3245L117.098 52.5803L115.325 53.0226Z" fill="white"/>
<path d="M14.5649 80.0949L14.4928 79.8422L16.2491 79.3382L16.3213 79.591L14.5649 80.0949Z" fill="white"/>
<path d="M114.867 51.2904L114.795 51.0376L116.552 50.5336L116.624 50.7864L114.867 51.2904Z" fill="white"/>
<path d="M15.1115 81.8688L15.0301 81.6176L16.768 81.0535L16.8479 81.3032L15.1115 81.8688Z" fill="white"/>
<path d="M114.349 49.575L114.267 49.3254L116.005 48.7597L116.086 49.011L114.349 49.575Z" fill="white"/>
<path d="M16.3873 85.3519L16.289 85.1084L17.9824 84.4226L18.0807 84.6676L16.3873 85.3519Z" fill="white"/>
<path d="M113.133 46.206L113.034 45.961L114.729 45.2767L114.828 45.5202L113.133 46.206Z" fill="white"/>
<path d="M17.115 87.0595L17.0075 86.8191L18.6779 86.0747L18.7838 86.3136L17.115 87.0595Z" fill="white"/>
<path d="M112.439 44.5539L112.331 44.3134L114 43.5691L114.108 43.811L112.439 44.5539Z" fill="white"/>
<path d="M17.9026 88.7394L17.7874 88.5021L19.4286 87.7006L19.5437 87.9365L17.9026 88.7394Z" fill="white"/>
<path d="M111.686 42.9279L111.571 42.6921L113.214 41.8892L113.329 42.1265L111.686 42.9279Z" fill="white"/>
<path d="M18.7485 90.39L18.6241 90.1573L20.2377 89.2988L20.3605 89.5316L18.7485 90.39Z" fill="white"/>
<path d="M110.879 41.3297L110.755 41.097L112.368 40.2386L112.491 40.4713L110.879 41.3297Z" fill="white"/>
<path d="M20.6077 93.5987L20.4695 93.3753L22.0186 92.4059L22.1583 92.6293L20.6077 93.5987Z" fill="white"/>
<path d="M109.098 38.2212L108.958 37.9992L110.507 37.0283L110.647 37.2518L109.098 38.2212Z" fill="white"/>
<path d="M21.6209 95.1522L21.4751 94.9349L22.9889 93.9116L23.1362 94.1304L21.6209 95.1522Z" fill="white"/>
<path d="M108.126 36.717L107.979 36.4981L109.494 35.4748L109.641 35.6936L108.126 36.717Z" fill="white"/>
<path d="M22.688 96.6703L22.5329 96.4576L24.0113 95.3819L24.1664 95.5946L22.688 96.6703Z" fill="white"/>
<path d="M107.104 35.2467L106.95 35.034L108.429 33.9583L108.582 34.171L107.104 35.2467Z" fill="white"/>
<path d="M23.8071 98.1498L23.6444 97.9418L25.0845 96.8152L25.2457 97.0232L23.8071 98.1498Z" fill="white"/>
<path d="M106.031 33.8119L105.869 33.6054L107.309 32.4788L107.471 32.6868L106.031 33.8119Z" fill="white"/>
<path d="M26.196 100.987L26.0194 100.791L27.3766 99.5662L27.5532 99.7619L26.196 100.987Z" fill="white"/>
<path d="M103.738 31.0609L103.562 30.8651L104.921 29.6414L105.096 29.8372L103.738 31.0609Z" fill="white"/>
<path d="M27.4626 102.34L27.2799 102.151L28.5941 100.881L28.7767 101.07L27.4626 102.34Z" fill="white"/>
<path d="M102.521 29.7478L102.338 29.5582L103.654 28.2868L103.837 28.4763L102.521 29.7478Z" fill="white"/>
<path d="M28.7752 103.649L28.5864 103.467L29.856 102.151L30.0449 102.333L28.7752 103.649Z" fill="white"/>
<path d="M101.259 28.4779L101.07 28.2945L102.34 26.9783L102.529 27.1617L101.259 28.4779Z" fill="white"/>
<path d="M30.1339 104.911L29.9389 104.735L31.161 103.376L31.3575 103.552L30.1339 104.911Z" fill="white"/>
<path d="M99.954 27.2526L99.7591 27.0754L100.981 25.7161L101.176 25.8933L99.954 27.2526Z" fill="white"/>
<path d="M32.9787 107.291L32.7715 107.127L33.8968 105.686L34.1041 105.848L32.9787 107.291Z" fill="white"/>
<path d="M97.2198 24.9409L97.0125 24.779L98.1378 23.338L98.3436 23.4999L97.2198 24.9409Z" fill="white"/>
<path d="M34.4618 108.403L34.2484 108.248L35.3231 106.768L35.5349 106.922L34.4618 108.403Z" fill="white"/>
<path d="M95.792 23.8605L95.5801 23.7048L96.6548 22.2253L96.8667 22.3794L95.792 23.8605Z" fill="white"/>
<path d="M35.9817 109.464L35.7637 109.316L36.7861 107.799L37.0026 107.947L35.9817 109.464Z" fill="white"/>
<path d="M94.3304 22.8279L94.1124 22.6815L95.1334 21.1634L95.3514 21.3114L94.3304 22.8279Z" fill="white"/>
<path d="M37.5384 110.47L37.3158 110.331L38.283 108.779L38.5072 108.92L37.5384 110.47Z" fill="white"/>
<path d="M92.832 21.8477L92.6094 21.709L93.5766 20.157L93.8008 20.2973L92.832 21.8477Z" fill="white"/>
<path d="M40.7517 112.318L40.5199 112.195L41.3766 110.578L41.6099 110.703L40.7517 112.318Z" fill="white"/>
<path d="M89.7385 20.0492L89.5067 19.9259L90.3633 18.3092L90.5951 18.4325L89.7385 20.0492Z" fill="white"/>
<path d="M42.4052 113.156L42.1687 113.041L42.9701 111.396L43.205 111.512L42.4052 113.156Z" fill="white"/>
<path d="M88.1449 19.2323L87.91 19.1168L88.7114 17.4708L88.9478 17.5864L88.1449 19.2323Z" fill="white"/>
<path d="M44.0863 113.936L43.8452 113.83L44.5883 112.158L44.8293 112.265L44.0863 113.936Z" fill="white"/>
<path d="M86.5267 18.4695L86.2872 18.3631L87.0303 16.6909L87.2698 16.7973L86.5267 18.4695Z" fill="white"/>
<path d="M45.7935 114.657L45.5494 114.559L46.2341 112.862L46.4782 112.961L45.7935 114.657Z" fill="white"/>
<path d="M84.8809 17.7651L84.6368 17.6665L85.3216 15.9712L85.5657 16.0698L84.8809 17.7651Z" fill="white"/>
<path d="M49.2785 115.918L49.0283 115.836L49.5932 114.096L49.8435 114.178L49.2785 115.918Z" fill="white"/>
<path d="M81.5218 16.5307L81.2731 16.4505L81.8366 14.709L82.0868 14.7907L81.5218 16.5307Z" fill="white"/>
<path d="M51.0517 116.456L50.7984 116.383L51.302 114.625L51.5553 114.697L51.0517 116.456Z" fill="white"/>
<path d="M79.8131 16.0036L79.5598 15.9311L80.0633 14.1711L80.3166 14.2436L79.8131 16.0036Z" fill="white"/>
<path d="M52.8433 116.932L52.5869 116.869L53.0291 115.094L53.2839 115.157L52.8433 116.932Z" fill="white"/>
<path d="M78.0859 15.5351L77.8311 15.4719L78.2732 13.6949L78.5281 13.7596L78.0859 15.5351Z" fill="white"/>
<path d="M54.7736 115.506L54.395 117.296L54.6518 117.35L55.0304 115.561L54.7736 115.506Z" fill="white"/>
<path d="M76.3434 15.1266L76.0855 15.0727L76.4663 13.2834L76.7242 13.3373L76.3434 15.1266Z" fill="white"/>
<path d="M58.2894 116.121L58.0362 117.934L58.2962 117.971L58.5494 116.158L58.2894 116.121Z" fill="white"/>
<path d="M72.8089 12.6448L72.5557 14.458L72.8157 14.4945L73.0689 12.6814L72.8089 12.6448Z" fill="white"/>
<path d="M60.068 116.354L59.8781 118.174L60.1392 118.201L60.3291 116.382L60.068 116.354Z" fill="white"/>
<path d="M70.9747 12.424L70.7847 14.245L71.0458 14.2724L71.2358 12.4515L70.9747 12.424Z" fill="white"/>
<path d="M61.8491 116.511L61.7226 118.336L61.9845 118.354L62.111 116.529L61.8491 116.511Z" fill="white"/>
<path d="M69.1264 12.2681L68.9999 14.0931L69.2618 14.1114L69.3883 12.2864L69.1264 12.2681Z" fill="white"/>
<path d="M63.6351 116.611L63.5718 118.439L63.8341 118.448L63.8974 116.62L63.6351 116.611Z" fill="white"/>
<path d="M67.2772 12.1755L67.213 14.0037L67.4754 14.013L67.5396 12.1848L67.2772 12.1755Z" fill="white"/>
<path d="M65.5583 122.739C57.8175 122.739 50.3086 121.221 43.2403 118.227C36.4131 115.334 30.2813 111.194 25.0154 105.92C19.7495 100.647 15.615 94.5049 12.7272 87.6683C9.73655 80.5881 8.22125 73.0687 8.22125 65.3166C8.22125 57.5645 9.73655 50.0435 12.7272 42.9649C15.615 36.1267 19.7495 29.9851 25.0154 24.7128C30.2813 19.4389 36.4131 15.2993 43.2403 12.4065C50.3102 9.41196 57.8191 7.89391 65.5583 7.89391C73.2975 7.89391 80.8079 9.41196 87.8762 12.4065C94.7035 15.2993 100.835 19.4389 106.101 24.7128C111.367 29.9867 115.502 36.1283 118.389 42.9649C121.38 50.0451 122.895 57.5645 122.895 65.3166C122.895 73.0687 121.38 80.5897 118.389 87.6683C115.502 94.5065 111.367 100.648 106.101 105.92C100.835 111.194 94.7035 115.334 87.8762 118.227C80.8064 121.221 73.2975 122.739 65.5583 122.739ZM65.5583 8.50575C57.9004 8.50575 50.4714 10.0084 43.4783 12.9705C36.7232 15.8325 30.6574 19.9274 25.4483 25.1458C20.2392 30.3627 16.1493 36.438 13.2922 43.2038C10.3338 50.2069 8.83535 57.6477 8.83535 65.3166C8.83535 72.9855 10.3353 80.4263 13.2922 87.4294C16.1493 94.1936 20.2392 100.269 25.4483 105.487C30.6574 110.704 36.7247 114.801 43.4783 117.663C50.4714 120.625 57.9004 122.127 65.5583 122.127C73.2161 122.127 80.6452 120.625 87.6383 117.663C94.3934 114.801 100.459 110.706 105.668 105.487C110.877 100.27 114.967 94.1952 117.824 87.4294C120.783 80.4263 122.281 72.9855 122.281 65.3166C122.281 57.6477 120.781 50.2069 117.824 43.2038C114.967 36.4396 110.877 30.3643 105.668 25.1458C100.459 19.929 94.3918 15.8325 87.6383 12.9705C80.6452 10.0084 73.2161 8.50575 65.5583 8.50575Z" fill="white"/>
<path d="M65.5798 100.354H65.5583C65.2267 100.354 64.892 100.349 64.5634 100.34C64.3316 100.334 64.1489 100.139 64.1551 99.9068C64.1612 99.674 64.35 99.4906 64.5865 99.4983C64.9073 99.5076 65.2343 99.5122 65.5583 99.5122H65.5798C65.8116 99.5122 66.0004 99.7002 66.0004 99.933C66.0004 100.166 65.8116 100.354 65.5798 100.354ZM67.5894 100.295C67.3683 100.295 67.1826 100.123 67.1703 99.8991C67.1565 99.6663 67.3346 99.4675 67.5664 99.4537C67.8949 99.4352 68.2281 99.4105 68.5566 99.3812C68.7884 99.3612 68.9911 99.5323 69.0126 99.7634C69.0325 99.9946 68.8621 100.2 68.6303 100.22C68.2941 100.249 67.9533 100.274 67.6155 100.294C67.6078 100.294 67.5986 100.294 67.5909 100.294L67.5894 100.295ZM62.5676 100.226C62.5553 100.226 62.543 100.226 62.5308 100.226C62.193 100.197 61.8522 100.163 61.519 100.124C61.2887 100.098 61.1229 99.8883 61.149 99.6571C61.1751 99.4259 61.3855 99.261 61.6142 99.2872C61.9397 99.3242 62.2728 99.3581 62.6029 99.3858C62.8347 99.4059 63.0051 99.6093 62.9852 99.842C62.9668 100.061 62.7825 100.227 62.5661 100.227L62.5676 100.226ZM70.5878 99.99C70.382 99.99 70.2024 99.8389 70.1717 99.6294C70.1379 99.3997 70.2976 99.1855 70.5263 99.1516C70.8518 99.1038 71.1819 99.0514 71.5074 98.9944C71.7346 98.9543 71.9541 99.1069 71.994 99.3365C72.034 99.5662 71.882 99.7835 71.6532 99.8235C71.3201 99.8821 70.9823 99.936 70.6492 99.9854C70.6292 99.9884 70.6077 99.99 70.5878 99.99ZM59.5785 99.8374C59.5539 99.8374 59.5309 99.8359 59.5063 99.8312C59.1732 99.7727 58.8369 99.7095 58.5069 99.6417C58.2796 99.5954 58.1323 99.372 58.1799 99.1454C58.2259 98.9173 58.4485 98.7709 58.6757 98.8171C58.9981 98.8834 59.3252 98.9451 59.6506 99.0021C59.8794 99.0422 60.0329 99.2595 59.993 99.4891C59.9577 99.6941 59.7796 99.8374 59.58 99.8374H59.5785ZM73.5493 99.4244C73.3589 99.4244 73.1869 99.2934 73.1409 99.1007C73.0871 98.8742 73.2269 98.6476 73.4525 98.5937C73.7734 98.5182 74.0989 98.4349 74.4151 98.3502C74.6393 98.2901 74.8696 98.4242 74.9294 98.6476C74.9893 98.8726 74.8558 99.1023 74.6316 99.1639C74.3061 99.2518 73.9745 99.335 73.6444 99.4136C73.6122 99.4213 73.58 99.4244 73.5477 99.4244H73.5493ZM56.6339 99.1886C56.5986 99.1886 56.5617 99.184 56.5249 99.1747C56.2009 99.0884 55.8708 98.9944 55.5454 98.8973C55.3228 98.831 55.1969 98.5968 55.2629 98.3733C55.3289 98.1498 55.5638 98.0234 55.7864 98.0897C56.1042 98.1837 56.4251 98.2747 56.7429 98.3594C56.967 98.4195 57.1006 98.6507 57.0407 98.8742C56.99 99.0622 56.8212 99.187 56.6354 99.187L56.6339 99.1886ZM76.4493 98.5998C76.2728 98.5998 76.1085 98.4873 76.0502 98.3116C75.9765 98.0913 76.0962 97.8524 76.3173 97.7799C76.6305 97.6767 76.9452 97.5657 77.2553 97.4532C77.4734 97.3731 77.7144 97.4856 77.7942 97.7044C77.8741 97.9233 77.762 98.1652 77.544 98.2438C77.2262 98.3594 76.9038 98.4719 76.5829 98.5783C76.5384 98.5921 76.4939 98.5998 76.4509 98.5998H76.4493ZM53.7583 98.2839C53.7107 98.2839 53.6616 98.2762 53.6156 98.2577C53.2962 98.1421 52.9754 98.0188 52.6622 97.894C52.4457 97.8077 52.3413 97.5642 52.4257 97.3469C52.5117 97.1311 52.7558 97.0248 52.9723 97.1111C53.2793 97.2328 53.5925 97.3515 53.9026 97.4655C54.1207 97.5457 54.2343 97.7861 54.1544 98.0049C54.093 98.176 53.9303 98.2824 53.7599 98.2824L53.7583 98.2839ZM79.2635 97.5256C79.1007 97.5256 78.9457 97.4301 78.8781 97.2714C78.786 97.0587 78.8843 96.8105 79.0977 96.7181C79.4001 96.5871 79.7041 96.4499 80.0004 96.3112C80.2107 96.2126 80.4609 96.3035 80.5592 96.5146C80.6575 96.7258 80.5669 96.9754 80.3566 97.0741C80.0526 97.2159 79.7409 97.3561 79.4308 97.4902C79.3771 97.5133 79.3203 97.5256 79.2635 97.5256ZM50.9657 97.1265C50.9058 97.1265 50.846 97.1141 50.7876 97.0864C50.4806 96.9431 50.172 96.7936 49.8695 96.641C49.6623 96.5362 49.5778 96.2835 49.6822 96.0754C49.7866 95.8673 50.0384 95.7841 50.2472 95.8889C50.542 96.0369 50.8429 96.1833 51.1423 96.3235C51.3526 96.4222 51.4432 96.6718 51.3449 96.883C51.2743 97.0356 51.1223 97.1265 50.9642 97.1265H50.9657ZM81.9701 96.2095C81.8212 96.2095 81.6753 96.1293 81.6001 95.9891C81.4896 95.7841 81.5663 95.5298 81.7705 95.4189C82.0591 95.2617 82.3508 95.0998 82.6349 94.9349C82.836 94.8178 83.0924 94.8871 83.209 95.089C83.3257 95.2909 83.2566 95.5483 83.0555 95.6639C82.7638 95.8334 82.466 95.9999 82.1697 96.1602C82.1067 96.1941 82.0377 96.211 81.9701 96.211V96.2095ZM48.2882 95.7302C48.2161 95.7302 48.1439 95.7117 48.0779 95.6732C47.7847 95.5036 47.4899 95.3264 47.2028 95.1492C47.0048 95.0274 46.9434 94.7669 47.0662 94.5697C47.1875 94.3724 47.4469 94.3107 47.645 94.4325C47.9244 94.6051 48.2115 94.7777 48.4986 94.9442C48.6997 95.0598 48.7688 95.3187 48.6521 95.519C48.5738 95.6547 48.4325 95.7302 48.2882 95.7302ZM84.5539 94.6621C84.4173 94.6621 84.2837 94.5959 84.2024 94.4726C84.0749 94.2784 84.1287 94.0179 84.3221 93.89C84.5954 93.7097 84.8717 93.5217 85.1419 93.3321C85.3323 93.198 85.5948 93.2443 85.7269 93.4354C85.8604 93.6265 85.8144 93.8885 85.624 94.0226C85.3477 94.2167 85.0652 94.4094 84.7842 94.5943C84.7136 94.6406 84.6322 94.6637 84.5539 94.6637V94.6621ZM45.7428 94.1058C45.6599 94.1058 45.5754 94.0811 45.5018 94.0303C45.2239 93.8361 44.9475 93.6342 44.6758 93.4323C44.49 93.2936 44.4516 93.03 44.5898 92.8435C44.728 92.6571 44.9921 92.6185 45.1778 92.7572C45.4419 92.9545 45.7136 93.1502 45.9838 93.3398C46.1742 93.4739 46.2203 93.7359 46.0867 93.927C46.0053 94.0441 45.8748 94.1058 45.7413 94.1058H45.7428ZM86.995 92.8944C86.8706 92.8944 86.7478 92.8389 86.6649 92.7341C86.5206 92.5523 86.5513 92.2872 86.734 92.1423C86.9919 91.9373 87.2514 91.7262 87.5032 91.5135C87.6812 91.364 87.9453 91.3871 88.0958 91.5659C88.2447 91.7447 88.2216 92.0098 88.0436 92.1593C87.7856 92.3766 87.52 92.5923 87.256 92.8019C87.1792 92.8636 87.0871 92.8929 86.995 92.8929V92.8944ZM43.3509 92.2656C43.2557 92.2656 43.159 92.2332 43.0807 92.167C42.8212 91.9497 42.5617 91.7247 42.31 91.4996C42.1365 91.3455 42.1211 91.0789 42.2747 90.9048C42.4282 90.7306 42.6953 90.7152 42.8688 90.8708C43.1144 91.0897 43.3678 91.3085 43.6211 91.5212C43.7992 91.6707 43.8222 91.9358 43.6733 92.1146C43.5904 92.2132 43.4706 92.2656 43.3509 92.2656ZM89.2748 90.9202C89.1628 90.9202 89.0522 90.8755 88.9693 90.7876C88.8096 90.6181 88.8173 90.3515 88.9862 90.1927C89.2257 89.9662 89.4652 89.7334 89.6986 89.4992C89.8628 89.3343 90.1284 89.3343 90.2927 89.4992C90.457 89.6641 90.457 89.9307 90.2927 90.0941C90.0532 90.333 89.8076 90.5719 89.5635 90.8046C89.4821 90.8816 89.3792 90.9186 89.2748 90.9186V90.9202ZM41.1278 90.2251C41.0204 90.2251 40.9129 90.1835 40.83 90.1018C40.5905 89.8629 40.3525 89.6163 40.1207 89.3713C39.961 89.2017 39.9687 88.9351 40.1376 88.7764C40.3065 88.6161 40.5721 88.6238 40.7317 88.7933C40.9574 89.0322 41.1908 89.2726 41.4241 89.5069C41.5884 89.6718 41.5884 89.9384 41.4241 90.1018C41.3428 90.1835 41.2338 90.2251 41.1263 90.2251H41.1278ZM91.375 88.7548C91.2753 88.7548 91.1755 88.7194 91.0956 88.6485C90.9221 88.4944 90.9068 88.2277 91.0619 88.0536C91.2814 87.807 91.4994 87.5542 91.7113 87.3015C91.8602 87.1227 92.1258 87.0996 92.3039 87.2506C92.482 87.4001 92.505 87.6652 92.3545 87.844C92.1365 88.1029 91.9124 88.3633 91.6882 88.6146C91.6053 88.7086 91.4902 88.7548 91.3735 88.7548H91.375ZM39.089 88.0012C38.9693 88.0012 38.8495 87.9503 38.7666 87.8517C38.5501 87.5928 38.3337 87.3277 38.1233 87.0626C37.979 86.8807 38.0097 86.6157 38.1909 86.4708C38.3736 86.3259 38.6376 86.3567 38.782 86.5386C38.9862 86.7975 39.198 87.0564 39.4099 87.3092C39.5588 87.4864 39.5358 87.753 39.3592 87.9025C39.2809 87.9688 39.1842 88.0012 39.089 88.0012ZM93.2818 86.4138C93.1943 86.4138 93.1068 86.386 93.0316 86.3305C92.8458 86.1918 92.8074 85.9283 92.9456 85.7418C93.1437 85.4767 93.3386 85.2055 93.529 84.9358C93.6626 84.7462 93.9251 84.7 94.1139 84.8325C94.3043 84.9666 94.3504 85.2286 94.2168 85.4197C94.0234 85.6956 93.8222 85.9745 93.6196 86.2458C93.5367 86.3567 93.4108 86.4153 93.2818 86.4153V86.4138ZM37.2529 85.6093C37.1208 85.6093 36.9903 85.5476 36.909 85.4305C36.714 85.1531 36.5221 84.871 36.3363 84.589C36.2089 84.3948 36.2626 84.1344 36.4561 84.0049C36.6495 83.877 36.9105 83.9309 37.0379 84.1251C37.2191 84.3994 37.4064 84.6753 37.5967 84.9466C37.7303 85.1361 37.6843 85.3997 37.4939 85.5337C37.4202 85.5861 37.3358 85.6108 37.2529 85.6108V85.6093ZM94.9798 83.9155C94.9046 83.9155 94.8278 83.8955 94.7587 83.8523C94.5607 83.7306 94.5008 83.4701 94.6221 83.2728C94.7956 82.9923 94.9675 82.7042 95.1333 82.4175C95.25 82.2156 95.5064 82.1478 95.7075 82.2634C95.9087 82.3805 95.9777 82.6379 95.8611 82.8382C95.6922 83.1311 95.5156 83.4254 95.3375 83.7136C95.2577 83.8431 95.1211 83.914 94.9798 83.914V83.9155ZM35.6301 83.0679C35.4858 83.0679 35.3445 82.9923 35.2662 82.8583C35.0974 82.5654 34.93 82.268 34.7704 81.9705C34.6598 81.7656 34.735 81.5113 34.9392 81.4003C35.1434 81.2893 35.3983 81.3649 35.5088 81.5698C35.6654 81.8596 35.8281 82.1509 35.9924 82.436C36.1091 82.6379 36.04 82.8953 35.8389 83.0108C35.7729 83.0494 35.7007 83.0679 35.6286 83.0679H35.6301ZM96.4537 81.277C96.3907 81.277 96.3262 81.2632 96.2648 81.2323C96.0576 81.1275 95.9747 80.8748 96.0791 80.6667C96.2264 80.3723 96.3723 80.0703 96.5135 79.7698C96.6118 79.5586 96.862 79.4677 97.0724 79.5663C97.2827 79.665 97.3733 79.9146 97.275 80.1258C97.1307 80.434 96.9818 80.7438 96.8298 81.0443C96.7561 81.1907 96.6072 81.2755 96.4537 81.2755V81.277ZM34.2361 80.397C34.078 80.397 33.926 80.3076 33.8553 80.155C33.7126 79.8499 33.5729 79.5386 33.4393 79.2288C33.3472 79.0161 33.4454 78.768 33.6573 78.6755C33.8707 78.583 34.1179 78.6817 34.21 78.8944C34.3405 79.1964 34.4771 79.5 34.6168 79.799C34.7151 80.0102 34.6245 80.2598 34.4142 80.3585C34.3558 80.3862 34.296 80.3985 34.2361 80.3985V80.397ZM97.6911 78.5183C97.6389 78.5183 97.5867 78.5091 97.536 78.489C97.3195 78.4027 97.2151 78.1577 97.3011 77.9419C97.4224 77.6352 97.5422 77.3208 97.6558 77.0095C97.7356 76.7907 97.9766 76.6781 98.1946 76.7583C98.4126 76.8384 98.5247 77.0789 98.4464 77.2977C98.3313 77.6167 98.2085 77.9373 98.0826 78.2532C98.0165 78.4181 97.8584 78.5183 97.6911 78.5183ZM33.08 77.6152C32.9081 77.6152 32.7469 77.5088 32.6855 77.3378C32.5688 77.0187 32.4567 76.6951 32.3508 76.3761C32.2771 76.1557 32.3969 75.9168 32.6164 75.8444C32.8359 75.7719 33.0739 75.8906 33.1476 76.111C33.2505 76.4239 33.361 76.7398 33.4746 77.0496C33.5544 77.2684 33.4424 77.5104 33.2244 77.589C33.1768 77.6059 33.1276 77.6152 33.08 77.6152ZM98.6813 75.6625C98.6414 75.6625 98.6015 75.6564 98.56 75.6456C98.3374 75.5793 98.2115 75.345 98.2775 75.1216C98.3712 74.8072 98.4633 74.4851 98.5477 74.1645C98.6076 73.9395 98.8379 73.8069 99.062 73.867C99.2862 73.9272 99.4198 74.1583 99.3599 74.3818C99.2724 74.7101 99.1787 75.0399 99.0835 75.362C99.0298 75.5438 98.8625 75.6625 98.6813 75.6625ZM32.1712 74.7363C31.9854 74.7363 31.8165 74.613 31.7659 74.425C31.6784 74.0982 31.5939 73.7653 31.5172 73.4371C31.4634 73.2105 31.6031 72.984 31.8288 72.93C32.0545 72.8761 32.2817 73.0163 32.3354 73.2429C32.4122 73.5634 32.4936 73.8886 32.578 74.2076C32.6379 74.4327 32.5059 74.6638 32.2817 74.7239C32.2449 74.7332 32.208 74.7378 32.1727 74.7378L32.1712 74.7363ZM99.4182 72.7343C99.3906 72.7343 99.3614 72.7312 99.3338 72.725C99.1066 72.6788 98.9592 72.4553 99.0068 72.2272C99.0728 71.9036 99.1357 71.5753 99.1925 71.2501C99.2325 71.0205 99.4489 70.8679 99.6792 70.908C99.908 70.9481 100.062 71.1669 100.022 71.395C99.9632 71.7279 99.8988 72.0654 99.8312 72.3968C99.7898 72.5956 99.6147 72.7327 99.4198 72.7327L99.4182 72.7343ZM31.5172 71.7895C31.3176 71.7895 31.1395 71.6462 31.1042 71.4412C31.0458 71.1099 30.9906 70.7724 30.9414 70.4348C30.9077 70.2052 31.0673 69.991 31.2961 69.9571C31.5264 69.9232 31.7398 70.0819 31.7735 70.3131C31.8211 70.6414 31.8749 70.9712 31.9317 71.2948C31.9716 71.5245 31.8196 71.7418 31.5908 71.7818C31.5663 71.7865 31.5417 71.788 31.5172 71.788V71.7895ZM99.8942 69.7536C99.8788 69.7536 99.8619 69.7536 99.845 69.7506C99.6147 69.7244 99.4489 69.5148 99.475 69.2836C99.5134 68.9569 99.5457 68.624 99.5748 68.2942C99.5948 68.063 99.7974 67.8919 100.029 67.9104C100.261 67.9304 100.431 68.1339 100.412 68.3666C100.382 68.7041 100.349 69.0447 100.309 69.3807C100.284 69.5949 100.101 69.7536 99.8911 69.7536H99.8942ZM31.1241 68.795C30.9092 68.795 30.725 68.6301 30.705 68.4113C30.6758 68.0753 30.6513 67.7332 30.6313 67.3956C30.6175 67.1629 30.7941 66.9641 31.0259 66.9502C31.2592 66.9364 31.4573 67.1136 31.4696 67.3463C31.4895 67.6761 31.5125 68.009 31.5417 68.3388C31.5617 68.57 31.3913 68.775 31.1594 68.795C31.1472 68.795 31.1349 68.7966 31.1226 68.7966L31.1241 68.795ZM100.109 66.7422C100.109 66.7422 100.101 66.7422 100.097 66.7422C99.865 66.736 99.6823 66.5418 99.6884 66.3091C99.6976 65.9793 99.7022 65.6449 99.7022 65.3151V65.2303C99.7022 64.9976 99.8896 64.808 100.121 64.808C100.347 64.8065 100.542 64.996 100.544 65.2272V65.3135C100.544 65.6526 100.539 65.9963 100.53 66.3338C100.524 66.5619 100.336 66.7422 100.109 66.7422ZM30.9921 65.779C30.7603 65.779 30.5714 65.5909 30.5714 65.3582V65.3166C30.5714 64.9914 30.576 64.6647 30.5853 64.3395C30.5914 64.1068 30.7879 63.9265 31.0167 63.9295C31.2485 63.9357 31.4312 64.1299 31.425 64.3626C31.4158 64.6786 31.4128 64.9991 31.4128 65.3135V65.3567C31.4128 65.5894 31.2239 65.7774 30.9921 65.7774V65.779ZM100.062 63.6367C99.8404 63.6367 99.6562 63.4641 99.6424 63.2406C99.6224 62.9108 99.5979 62.5764 99.5687 62.2481C99.5487 62.0169 99.7191 61.812 99.951 61.7919C100.181 61.7704 100.387 61.943 100.407 62.1741C100.436 62.5101 100.462 62.8523 100.482 63.1898C100.496 63.4225 100.319 63.6213 100.088 63.6352C100.078 63.6352 100.071 63.6352 100.062 63.6352V63.6367ZM31.118 62.7629C31.1057 62.7629 31.0934 62.7629 31.0827 62.7629C30.8509 62.7428 30.6804 62.5394 30.6989 62.3082C30.728 61.9722 30.7618 61.6316 30.8002 61.2941C30.8263 61.063 31.0366 60.898 31.2654 60.9242C31.4957 60.9504 31.6615 61.16 31.6354 61.3897C31.5985 61.718 31.5647 62.0508 31.5371 62.3791C31.5187 62.598 31.3345 62.7644 31.118 62.7644V62.7629ZM99.7514 60.6345C99.5457 60.6345 99.3676 60.4835 99.3353 60.2754C99.2877 59.9487 99.234 59.6189 99.1757 59.2937C99.1357 59.064 99.2877 58.8467 99.5165 58.8051C99.7452 58.7651 99.9632 58.9176 100.005 59.1457C100.063 59.4786 100.118 59.8161 100.167 60.1521C100.201 60.3818 100.043 60.596 99.8128 60.6299C99.7913 60.633 99.7713 60.6345 99.7514 60.6345ZM31.5033 59.7684C31.4788 59.7684 31.4557 59.7668 31.4312 59.7622C31.2024 59.7221 31.0489 59.5048 31.0888 59.2752C31.1472 58.9423 31.2101 58.6063 31.2777 58.2734C31.3237 58.0453 31.5463 57.8989 31.7735 57.9452C32.0008 57.9914 32.1481 58.2133 32.1021 58.4414C32.0361 58.7651 31.9747 59.0949 31.9179 59.4185C31.8825 59.6235 31.7045 59.7668 31.5049 59.7668L31.5033 59.7684ZM99.1803 57.6693C98.9899 57.6693 98.8179 57.5398 98.7719 57.3456C98.6951 57.0266 98.6138 56.7014 98.5278 56.3824C98.4679 56.1574 98.5999 55.9262 98.8241 55.8661C99.0482 55.806 99.2785 55.9385 99.3399 56.1636C99.429 56.4918 99.5119 56.8232 99.5902 57.1514C99.6439 57.378 99.5042 57.6046 99.2785 57.6585C99.2463 57.6662 99.2125 57.6708 99.1803 57.6708V57.6693ZM32.1497 56.8186C32.1144 56.8186 32.0775 56.8139 32.0407 56.8047C31.8165 56.7446 31.683 56.5149 31.7428 56.2899C31.8288 55.9632 31.9225 55.6334 32.0192 55.3082C32.0852 55.0847 32.3186 54.9584 32.5427 55.0246C32.7653 55.0909 32.8912 55.3252 32.8252 55.5486C32.7315 55.8661 32.641 56.1882 32.5565 56.5057C32.5059 56.6937 32.337 56.8186 32.1512 56.8186H32.1497ZM98.3528 54.7657C98.1762 54.7657 98.0135 54.6547 97.9536 54.4775C97.8492 54.1646 97.7387 53.8487 97.6251 53.5389C97.5452 53.3201 97.6573 53.0781 97.8753 52.998C98.0933 52.9178 98.3344 53.0303 98.4142 53.2476C98.5309 53.5651 98.6445 53.8888 98.7504 54.2093C98.8241 54.4297 98.7043 54.6686 98.4848 54.7426C98.4403 54.758 98.3958 54.7642 98.3512 54.7642L98.3528 54.7657ZM33.0509 53.9381C33.0033 53.9381 32.9557 53.9304 32.9081 53.9134C32.6901 53.8348 32.5765 53.5929 32.6563 53.374C32.7715 53.0565 32.8927 52.7344 33.0186 52.4185C33.1046 52.2027 33.3487 52.0964 33.5636 52.1827C33.7801 52.269 33.8845 52.5125 33.8001 52.7298C33.6788 53.038 33.559 53.3524 33.447 53.6622C33.3856 53.8333 33.2244 53.9396 33.0524 53.9396L33.0509 53.9381ZM97.275 51.95C97.1123 51.95 96.9588 51.856 96.8897 51.6972C96.7592 51.3952 96.621 51.0915 96.4813 50.7941C96.383 50.583 96.4736 50.3333 96.6824 50.2346C96.8927 50.136 97.143 50.2269 97.2412 50.4365C97.384 50.7417 97.5253 51.053 97.6588 51.3628C97.7509 51.5755 97.6542 51.8236 97.4408 51.9161C97.3856 51.9392 97.3288 51.9515 97.2735 51.9515L97.275 51.95ZM34.2038 51.1424C34.144 51.1424 34.0841 51.1301 34.0273 51.1023C33.817 51.0037 33.7264 50.754 33.8231 50.5429C33.9659 50.2346 34.1163 49.9249 34.2668 49.6228C34.3712 49.4147 34.623 49.3315 34.8318 49.4348C35.039 49.5396 35.1235 49.7923 35.0191 50.0004C34.8717 50.2948 34.7258 50.5968 34.5861 50.8974C34.5155 51.0499 34.3635 51.1409 34.2054 51.1409L34.2038 51.1424ZM95.9562 49.2421C95.8073 49.2421 95.663 49.162 95.5862 49.0217C95.4296 48.732 95.2654 48.4407 95.1011 48.1571C94.9844 47.9568 95.052 47.6979 95.2531 47.5823C95.4542 47.4652 95.7106 47.533 95.8273 47.7349C95.9962 48.0261 96.1635 48.3236 96.3247 48.621C96.4352 48.826 96.36 49.0803 96.1558 49.1913C96.0929 49.2267 96.0238 49.2421 95.9562 49.2421ZM35.5963 48.4592C35.5257 48.4592 35.4535 48.4407 35.386 48.4022C35.1849 48.2866 35.1158 48.0292 35.2325 47.8273C35.4013 47.533 35.5779 47.2386 35.7544 46.9504C35.8757 46.7531 36.1352 46.6915 36.3332 46.8132C36.5313 46.935 36.5927 47.1954 36.4699 47.3927C36.2964 47.6732 36.126 47.9614 35.9602 48.2481C35.8819 48.3837 35.7406 48.4592 35.5963 48.4592ZM94.4056 46.6576C94.269 46.6576 94.1354 46.5913 94.0541 46.4696C93.8714 46.1937 93.6841 45.9178 93.4952 45.6496C93.3617 45.4601 93.4077 45.1965 93.5966 45.0625C93.7869 44.9284 94.0479 44.9746 94.183 45.1642C94.3765 45.44 94.5699 45.7221 94.7557 46.0041C94.8831 46.1983 94.8309 46.4588 94.6375 46.5882C94.5653 46.636 94.4855 46.6576 94.4056 46.6576ZM37.2175 45.9101C37.1346 45.9101 37.0502 45.8854 36.9765 45.8346C36.7861 45.7005 36.7401 45.4385 36.8736 45.2489C37.0671 44.9731 37.2667 44.6941 37.4693 44.4213C37.6075 44.2348 37.8716 44.1963 38.0573 44.335C38.2431 44.4737 38.283 44.7373 38.1433 44.9238C37.9453 45.1904 37.7503 45.4616 37.5614 45.7313C37.4801 45.8485 37.3496 45.9116 37.216 45.9116L37.2175 45.9101ZM92.6355 44.2164C92.5111 44.2164 92.3899 44.1624 92.3054 44.0576C92.1012 43.8002 91.8894 43.5413 91.6775 43.2886C91.5286 43.1113 91.5501 42.8447 91.7282 42.6952C91.9062 42.5457 92.1703 42.5688 92.3208 42.7461C92.5388 43.005 92.7552 43.2701 92.964 43.5336C93.1084 43.7155 93.0776 43.9806 92.8965 44.1254C92.8197 44.1871 92.7276 44.2164 92.6355 44.2164ZM39.0537 43.512C38.9585 43.512 38.8633 43.4797 38.7835 43.4134C38.6054 43.2639 38.5824 42.9988 38.7313 42.82C38.9478 42.5596 39.1719 42.3007 39.3961 42.0479C39.5496 41.8738 39.8167 41.8584 39.9902 42.0125C40.1637 42.1666 40.179 42.4332 40.0255 42.6074C39.8075 42.854 39.588 43.1067 39.3761 43.361C39.2932 43.4596 39.1735 43.512 39.0537 43.512ZM90.6596 41.9369C90.5476 41.9369 90.437 41.8923 90.3541 41.806C90.1269 41.5655 89.8935 41.3266 89.6617 41.0939C89.4974 40.9306 89.4974 40.6639 89.6617 40.499C89.826 40.3341 90.0916 40.3341 90.2559 40.499C90.4938 40.7379 90.7333 40.983 90.9651 41.228C91.1248 41.3975 91.1171 41.6626 90.9483 41.8229C90.8669 41.9 90.7625 41.9385 90.6596 41.9385V41.9369ZM41.0894 41.2835C40.982 41.2835 40.8745 41.2419 40.7931 41.1602C40.6289 40.9953 40.6289 40.7287 40.7931 40.5653C41.0311 40.3264 41.2767 40.0875 41.5224 39.8548C41.6913 39.6945 41.9569 39.7022 42.1165 39.8718C42.2762 40.0413 42.2685 40.3079 42.0996 40.4667C41.8601 40.6932 41.6206 40.9275 41.3888 41.1602C41.3074 41.2419 41.1984 41.2835 41.091 41.2835H41.0894ZM88.4934 39.8363C88.3936 39.8363 88.2938 39.8009 88.214 39.73C87.9668 39.5111 87.7135 39.2923 87.4617 39.0796C87.2836 38.9301 87.2606 38.665 87.4095 38.4863C87.5584 38.3075 87.824 38.2844 88.0021 38.4339C88.26 38.6512 88.5195 38.8746 88.7728 39.0996C88.9463 39.2538 88.9616 39.5204 88.8081 39.6945C88.7252 39.7886 88.6101 39.8363 88.4934 39.8363ZM43.3094 39.2414C43.1897 39.2414 43.0715 39.1906 42.987 39.0919C42.8381 38.9147 42.8596 38.6481 43.0377 38.4986C43.2941 38.2813 43.5597 38.0655 43.8253 37.8544C44.0064 37.7095 44.272 37.7403 44.4163 37.9222C44.5606 38.104 44.5299 38.3691 44.3488 38.514C44.0893 38.719 43.8314 38.9317 43.5812 39.1428C43.5029 39.2091 43.4061 39.2414 43.311 39.2414H43.3094ZM86.1521 37.9299C86.0646 37.9299 85.9771 37.9022 85.9019 37.8467C85.6378 37.6494 85.3661 37.4537 85.0959 37.2641C84.9055 37.1316 84.8594 36.868 84.9915 36.6785C85.125 36.4874 85.386 36.4411 85.5764 36.5752C85.8543 36.7694 86.1322 36.9697 86.4024 37.1716C86.5881 37.3103 86.6281 37.5739 86.4883 37.7604C86.4054 37.8713 86.2796 37.9299 86.1506 37.9299H86.1521ZM45.6967 37.3997C45.5647 37.3997 45.4342 37.3381 45.3528 37.221C45.2193 37.0314 45.2653 36.7678 45.4542 36.6338C45.729 36.4396 46.0115 36.2469 46.2939 36.0604C46.4874 35.9325 46.7484 35.9849 46.8758 36.1791C47.0032 36.3733 46.951 36.6338 46.7576 36.7632C46.4828 36.9451 46.2064 37.1331 45.9378 37.3227C45.8641 37.3751 45.7796 37.3997 45.6967 37.3997ZM83.6543 36.2361C83.579 36.2361 83.5023 36.2161 83.4347 36.173C83.1523 35.9988 82.8652 35.8277 82.5796 35.6628C82.3785 35.5472 82.3094 35.2899 82.4245 35.088C82.5412 34.8861 82.7976 34.8167 82.9987 34.9338C83.2904 35.1018 83.5852 35.2775 83.8738 35.4563C84.0719 35.5781 84.1333 35.837 84.012 36.0358C83.9322 36.1652 83.794 36.2361 83.6543 36.2361ZM48.233 35.7738C48.0887 35.7738 47.9474 35.6983 47.8691 35.5642C47.7524 35.3623 47.8215 35.1049 48.0211 34.9893C48.3128 34.8198 48.6106 34.6518 48.9069 34.4915C49.1111 34.3806 49.366 34.4561 49.4765 34.6611C49.5871 34.866 49.5118 35.1203 49.3076 35.2313C49.019 35.3885 48.7289 35.5519 48.4433 35.7168C48.3773 35.7553 48.3036 35.7738 48.233 35.7738ZM81.0167 34.7643C80.9538 34.7643 80.8893 34.7504 80.8294 34.7196C80.5346 34.5717 80.2337 34.4253 79.9328 34.2866C79.7225 34.1879 79.6304 33.9382 79.7286 33.7271C79.8269 33.516 80.0756 33.425 80.2875 33.5221C80.5945 33.6655 80.9031 33.815 81.2056 33.966C81.4128 34.0708 81.4972 34.3235 81.3928 34.5316C81.3192 34.6796 81.1702 34.7643 81.0167 34.7643ZM50.8997 34.3759C50.7416 34.3759 50.5896 34.2866 50.519 34.134C50.4207 33.9228 50.5113 33.6732 50.7216 33.5745C51.0271 33.4312 51.3372 33.291 51.6458 33.1569C51.8592 33.0644 52.1064 33.1615 52.1985 33.3757C52.2906 33.5884 52.1939 33.8365 51.9805 33.929C51.6796 34.06 51.3756 34.1972 51.0778 34.3374C51.0194 34.3652 50.9596 34.3775 50.8997 34.3775V34.3759ZM78.2609 33.5298C78.2087 33.5298 78.1565 33.5206 78.1059 33.5006C77.7988 33.3788 77.4856 33.2601 77.174 33.1476C76.956 33.069 76.8424 32.8271 76.9222 32.6082C77.0005 32.3894 77.2415 32.2769 77.4611 32.3555C77.7804 32.471 78.1013 32.5928 78.416 32.7176C78.6325 32.8024 78.7384 33.0474 78.6524 33.2648C78.5864 33.4297 78.4283 33.5314 78.2609 33.5314V33.5298ZM53.6754 33.217C53.5035 33.217 53.3423 33.1106 53.2809 32.9411C53.201 32.7223 53.3131 32.4803 53.5311 32.4017C53.8474 32.2861 54.1698 32.1721 54.4922 32.0657C54.7133 31.9917 54.9512 32.112 55.0234 32.3323C55.0971 32.5527 54.9773 32.7916 54.7578 32.8656C54.4446 32.9704 54.1283 33.0814 53.8197 33.1939C53.7722 33.2108 53.723 33.2201 53.6754 33.2201V33.217ZM75.4084 32.5435C75.3685 32.5435 75.3286 32.5373 75.2887 32.5265C74.9724 32.4325 74.6516 32.3416 74.3322 32.2584C74.1081 32.1983 73.9745 31.9686 74.0329 31.7436C74.0927 31.5186 74.323 31.3861 74.5472 31.4446C74.8742 31.5309 75.2027 31.6234 75.5267 31.7205C75.7493 31.7868 75.8767 32.021 75.8107 32.2445C75.7569 32.4279 75.5896 32.5466 75.4084 32.5466V32.5435ZM56.5494 32.3046C56.3637 32.3046 56.1948 32.1813 56.1441 31.9933C56.0842 31.7683 56.2163 31.5371 56.4404 31.477C56.7674 31.3891 57.099 31.3044 57.4276 31.2258C57.6533 31.1718 57.8805 31.3121 57.9342 31.5386C57.9879 31.7652 57.8482 31.9917 57.6226 32.0457C57.3032 32.1212 56.9793 32.2044 56.66 32.2907C56.6231 32.3 56.5863 32.3046 56.551 32.3046H56.5494ZM72.4838 31.813C72.4562 31.813 72.4285 31.8099 72.3993 31.8037C72.0769 31.7374 71.7484 31.6758 71.4229 31.6203C71.1942 31.5802 71.0407 31.3629 71.0806 31.1333C71.1205 30.9037 71.3385 30.7511 71.5657 30.7896C71.8989 30.8466 72.2351 30.9114 72.5652 30.9776C72.7924 31.0239 72.9398 31.2458 72.8937 31.4739C72.8538 31.6727 72.6772 31.8114 72.4823 31.8114L72.4838 31.813ZM59.4925 31.6496C59.2929 31.6496 59.1148 31.5063 59.0795 31.3013C59.0396 31.0717 59.1916 30.8544 59.4203 30.8127C59.752 30.7542 60.0897 30.6987 60.4244 30.6494C60.6547 30.6155 60.8681 30.7742 60.9019 31.0038C60.9356 31.2335 60.7775 31.4477 60.5472 31.4816C60.2202 31.5294 59.8901 31.5833 59.5662 31.6404C59.5416 31.645 59.5171 31.6465 59.4925 31.6465V31.6496ZM69.5054 31.3414C69.4901 31.3414 69.4732 31.3414 69.4578 31.3383C69.1293 31.3013 68.7977 31.2674 68.4691 31.2396C68.2373 31.2196 68.0653 31.0162 68.0853 30.785C68.1053 30.5538 68.3079 30.3812 68.5397 30.4012C68.8759 30.429 69.2152 30.4629 69.5515 30.5014C69.7817 30.5276 69.9476 30.7357 69.9215 30.9669C69.8969 31.1811 69.7157 31.3398 69.5039 31.3398L69.5054 31.3414ZM62.4801 31.2535C62.2652 31.2535 62.0809 31.0886 62.0625 30.8698C62.0425 30.6386 62.213 30.4336 62.4448 30.4136C62.781 30.3843 63.1234 30.3581 63.4596 30.3381C63.6914 30.3226 63.891 30.5014 63.9033 30.7341C63.9171 30.9669 63.7405 31.1657 63.5087 31.1795C63.1802 31.1996 62.847 31.2242 62.5185 31.252C62.5062 31.252 62.4939 31.2535 62.4816 31.2535H62.4801ZM66.4978 31.1302C66.4978 31.1302 66.4902 31.1302 66.4871 31.1302C66.1785 31.1225 65.8669 31.1179 65.5583 31.1179H65.4938C65.262 31.1179 65.0747 30.9299 65.0731 30.6987C65.0731 30.466 65.2604 30.2764 65.4923 30.2764H65.5598C65.8745 30.2764 66.1939 30.281 66.5101 30.2887C66.742 30.2949 66.9246 30.4891 66.9185 30.7203C66.9124 30.9484 66.7251 31.1302 66.4978 31.1302Z" fill="white"/>
<path d="M127.592 65.05H125.361V67.1213H127.846V67.744H124.621V61.9984H127.719V62.6211H125.361V64.4366H127.592V65.05Z" fill="#14294C"/>
<path d="M128 67.8965H124.467V61.8428H127.873V62.7721H125.514V64.2809H127.745V65.2026H125.514V66.9672H128V67.8965ZM124.774 67.5898H127.693V67.2754H125.207V64.8959H127.438V64.5892H125.207V62.4654H127.566V62.151H124.774V67.5898Z" fill="white"/>
<path d="M63.61 5.89962V0.154118H64.4191L66.2584 3.06078C66.6836 3.73427 67.0152 4.33995 67.2885 4.92714L67.3054 4.91944C67.2378 4.15193 67.221 3.45378 67.221 2.55835V0.154118H67.9195V5.89962H67.1703L65.3495 2.98372C64.9488 2.34413 64.5665 1.68759 64.2763 1.06495L64.2502 1.0742C64.2932 1.79855 64.3101 2.489 64.3101 3.44453V5.89962H63.6116H63.61Z" fill="#14294C"/>
<path d="M68.0715 6.05374H67.0843L65.2174 3.0654C64.9012 2.56144 64.6463 2.12374 64.4345 1.72766C64.4544 2.23625 64.4621 2.77258 64.4621 3.44299V6.0522H63.4565V0H64.5036L66.3873 2.97909C66.656 3.40446 66.8924 3.81133 67.1012 4.20587C67.0736 3.67108 67.0659 3.144 67.0659 2.55835V0H68.0715V6.05374ZM67.2532 5.74551H67.7644V0.308235H67.3729V2.55835C67.3729 3.39675 67.3868 4.11648 67.4574 4.90556L67.4666 5.01036L67.2148 5.1352L67.1488 4.99187C66.8755 4.4016 66.5408 3.79592 66.1279 3.14246L64.3347 0.306694H63.7636V5.74551H64.1551V3.44453C64.1551 2.48592 64.1382 1.80164 64.0952 1.08345L64.089 0.966318L64.3562 0.875388L64.4145 1.00022C64.6632 1.53655 65.001 2.14069 65.4784 2.90204L67.2547 5.74551H67.2532Z" fill="white"/>
<path d="M64.2103 129.858C64.5419 130.063 65.0271 130.232 65.5383 130.232C66.2952 130.232 66.7389 129.832 66.7389 129.252C66.7389 128.716 66.4318 128.408 65.6581 128.11C64.7216 127.777 64.1428 127.292 64.1428 126.483C64.1428 125.587 64.8828 124.923 65.9989 124.923C66.5869 124.923 67.0121 125.06 67.267 125.205L67.0628 125.811C66.8755 125.709 66.4917 125.538 65.9728 125.538C65.1898 125.538 64.892 126.007 64.892 126.4C64.892 126.937 65.2405 127.201 66.0327 127.508C67.0029 127.882 67.4973 128.351 67.4973 129.195C67.4973 130.081 66.8417 130.849 65.4876 130.849C64.935 130.849 64.3301 130.687 64.023 130.482L64.2103 129.86V129.858Z" fill="#14294C"/>
<path d="M65.4877 131C64.9212 131 64.284 130.838 63.9386 130.607L63.8434 130.544L64.1213 129.621L64.2917 129.725C64.6494 129.946 65.1161 130.078 65.5383 130.078C66.1847 130.078 66.5854 129.761 66.5854 129.252C66.5854 128.859 66.4242 128.57 65.6028 128.254C64.5189 127.868 63.9893 127.289 63.9893 126.481C63.9893 125.472 64.8152 124.767 65.9989 124.767C66.7067 124.767 67.1442 124.957 67.3423 125.07L67.4528 125.133L67.1488 126.031L66.9891 125.943C66.7773 125.828 66.4288 125.689 65.9728 125.689C65.2881 125.689 65.0455 126.07 65.0455 126.397C65.0455 126.82 65.2988 127.056 66.088 127.361C67.1826 127.784 67.6508 128.332 67.6508 129.192C67.6508 130.052 67.0843 131 65.4877 131ZM64.2042 130.41C64.5189 130.578 65.0332 130.693 65.4861 130.693C66.613 130.693 67.3423 130.105 67.3423 129.194C67.3423 128.462 66.96 128.029 65.9759 127.649C65.1914 127.346 64.7369 127.042 64.7369 126.398C64.7369 125.91 65.1238 125.384 65.9713 125.384C66.3889 125.384 66.7282 125.486 66.9723 125.595L67.0782 125.282C66.874 125.188 66.5209 125.077 65.9974 125.077C64.9949 125.077 64.2948 125.655 64.2948 126.483C64.2948 127.153 64.7431 127.623 65.7072 127.965C66.4196 128.24 66.8909 128.563 66.8909 129.252C66.8909 129.941 66.3597 130.387 65.5368 130.387C65.1177 130.387 64.6771 130.279 64.3009 130.086L64.2042 130.41Z" fill="white"/>
<path d="M0.973335 63.6167L1.51835 65.7142C1.6381 66.175 1.74864 66.6004 1.8254 67.0273H1.8515C1.94515 66.6096 2.08179 66.1658 2.21689 65.7235L2.88933 63.6182H3.51878L4.15744 65.6819C4.31097 66.1766 4.42918 66.6112 4.52283 67.0289H4.54893C4.61648 66.6112 4.72702 66.1766 4.86366 65.6911L5.45166 63.6198H6.19165L4.86366 67.7455H4.18201L3.55256 65.7759C3.40824 65.3151 3.28849 64.9066 3.18717 64.4212H3.17028C3.06895 64.9159 2.93999 65.3413 2.79568 65.7851L2.13245 67.7455H1.4508L0.207245 63.6198H0.973335V63.6167Z" fill="#14294C"/>
<path d="M4.97422 67.8965H4.06996L3.4052 65.8206C3.32076 65.5509 3.24553 65.2996 3.17644 65.0438C3.10122 65.3258 3.01985 65.5848 2.94001 65.8298L2.23994 67.8965H1.33414L-0.00152588 63.4626H1.09004L1.66422 65.6741C1.73024 65.9269 1.79165 66.1689 1.84845 66.4062C1.91754 66.1627 1.99276 65.9177 2.06646 65.6757L2.77421 63.461H3.62934L4.30178 65.6325C4.38469 65.9022 4.45684 66.1488 4.51979 66.3831C4.57966 66.1319 4.64568 65.8837 4.71323 65.6449L5.33194 63.461H6.39893L4.97269 67.895L4.97422 67.8965ZM4.29411 67.5898H4.75161L5.97981 63.7708H5.56683L5.01107 65.7312C4.89285 66.155 4.77157 66.6096 4.69941 67.052L4.67792 67.1814H4.3985L4.37087 67.0612C4.28029 66.6559 4.16514 66.2321 4.00855 65.7265L3.40366 63.7723H2.99835L2.35969 65.7712C2.22766 66.2028 2.08949 66.6497 1.99737 67.0628L1.96974 67.183H1.69339L1.67036 67.0566C1.59514 66.6389 1.4846 66.2136 1.36792 65.7635L0.850538 63.7723H0.409921L1.55982 67.5914H2.01733L2.64525 65.7358C2.77421 65.3397 2.90931 64.9005 3.01524 64.3903L3.04134 64.2671H3.30847L3.33457 64.3888C3.43437 64.862 3.55104 65.2673 3.69689 65.7296L4.29257 67.5914L4.29411 67.5898Z" fill="white"/>
<path d="M110.653 17.5232L112.91 15.2731L113.283 15.6476L112.988 17.6388C112.919 18.0996 112.835 18.491 112.729 18.847L112.74 18.8517C113.01 18.5203 113.277 18.2383 113.629 17.8869L114.573 16.9452L114.894 17.2689L112.637 19.519L112.291 19.1722L112.597 17.1857C112.664 16.7495 112.746 16.3149 112.856 15.9373L112.841 15.9281C112.575 16.2317 112.313 16.5091 111.938 16.8836L110.974 17.8453L110.653 17.5216V17.5232Z" fill="white"/>
<path d="M115.661 20.4406L114.634 19.4065L113.82 20.2172L114.966 21.37L114.722 21.6135L113.236 20.1185L115.492 17.8684L116.92 19.3048L116.676 19.5483L115.589 18.4556L114.875 19.1661L115.902 20.2002L115.661 20.4406Z" fill="white"/>
<path d="M17.4051 21.3145L15.1575 19.0536L15.5321 18.6806L17.5203 18.9765C17.9809 19.0459 18.3708 19.1306 18.727 19.2354L18.7316 19.2246C18.4 18.9549 18.119 18.6868 17.769 18.3354L16.8294 17.3891L17.1518 17.067L19.3994 19.3279L19.0525 19.6731L17.0689 19.3664C16.6344 19.3002 16.2 19.2185 15.8223 19.106L15.8131 19.1214C16.1155 19.3865 16.3934 19.65 16.768 20.026L17.7275 20.9924L17.4051 21.3145Z" fill="white"/>
<path d="M20.4311 18.2984L17.5111 16.7094L17.8734 16.3488L19.3257 17.178C19.685 17.3814 20.035 17.5925 20.2991 17.7636L20.3068 17.7559C20.1271 17.4877 19.9429 17.1379 19.7433 16.7557L18.965 15.2623L19.3242 14.9047L20.7873 15.7292C21.1281 15.9234 21.4659 16.1207 21.7422 16.3195L21.7499 16.3118C21.558 16.0082 21.383 15.683 21.1865 15.3178L20.4035 13.8274L20.7535 13.4776L22.2473 16.489L21.8896 16.8466L20.3851 16.0036C20.0151 15.7971 19.7403 15.6306 19.4777 15.438L19.4701 15.4457C19.6466 15.7169 19.8063 15.9974 19.9982 16.3873L20.7904 17.9408L20.4311 18.2984Z" fill="white"/>
<path d="M22.7939 112.407C22.7217 112.173 22.5651 111.882 22.3287 111.644C21.9802 111.293 21.6179 111.245 21.3907 111.472C21.1803 111.681 21.2003 111.945 21.4398 112.42C21.7407 112.984 21.8159 113.443 21.4981 113.759C21.1466 114.109 20.5447 114.027 20.0304 113.509C19.7602 113.236 19.6174 112.987 19.556 112.811L19.8876 112.669C19.9337 112.796 20.0427 113.041 20.2822 113.281C20.643 113.645 20.9639 113.599 21.1189 113.444C21.3292 113.235 21.2724 112.968 21.0283 112.481C20.729 111.885 20.686 111.472 21.0176 111.142C21.3661 110.795 21.9694 110.798 22.5928 111.426C22.8476 111.681 23.0625 112.025 23.124 112.249L22.7939 112.406V112.407Z" fill="white"/>
<path d="M20.7382 109.627L19.1522 112.552L18.7915 112.188L19.619 110.734C19.8216 110.374 20.0319 110.023 20.2024 109.758L20.1947 109.75C19.9275 109.931 19.5775 110.116 19.1952 110.314L17.703 111.094L17.3468 110.735L18.1697 109.269C18.3631 108.927 18.5596 108.59 18.7592 108.312L18.7515 108.305C18.4491 108.496 18.1236 108.671 17.7598 108.869L16.2721 109.653L15.9236 109.302L18.9296 107.805L19.2873 108.164L18.446 109.672C18.2403 110.042 18.0745 110.317 17.8826 110.579L17.8903 110.587C18.162 110.411 18.4414 110.25 18.8314 110.058L20.3835 109.265L20.7397 109.624L20.7382 109.627Z" fill="white"/>
<path d="M110.24 21.4979L106.66 25.0842L107.098 25.5219L110.678 21.9356L110.24 21.4979Z" fill="white"/>
<path d="M25.9718 105.894L22.3916 109.479L22.8292 109.917L26.4094 106.33L25.9718 105.894Z" fill="white"/>
<path d="M106.319 105.114L105.883 105.552L109.463 109.137L109.899 108.701L106.319 105.114Z" fill="white"/>
<path d="M21.6148 21.1573L25.195 24.742L25.631 24.3044L22.0508 20.7196L21.6148 21.1573Z" fill="white"/>
<path d="M114.109 108.516C113.876 108.588 113.584 108.745 113.348 108.981C112.998 109.331 112.948 109.693 113.176 109.921C113.386 110.132 113.647 110.112 114.123 109.872C114.686 109.571 115.144 109.494 115.462 109.813C115.812 110.165 115.729 110.769 115.213 111.284C114.941 111.555 114.691 111.698 114.516 111.758L114.373 111.426C114.501 111.379 114.743 111.27 114.984 111.029C115.346 110.669 115.3 110.347 115.148 110.193C114.938 109.981 114.674 110.038 114.187 110.284C113.592 110.584 113.18 110.627 112.85 110.294C112.503 109.946 112.506 109.342 113.133 108.716C113.389 108.46 113.731 108.246 113.954 108.184L114.111 108.516H114.109Z" fill="white"/>
<path d="M111.445 112.574L112.477 111.544L111.666 110.729L110.517 111.876L110.274 111.63L111.768 110.142L114.014 112.403L112.58 113.833L112.336 113.588L113.427 112.5L112.718 111.785L111.686 112.814L111.447 112.572L111.445 112.574Z" fill="white"/>
<path d="M71.9741 64.9159C71.9741 64.4628 71.9204 64.0236 71.8221 63.6013L66.1893 16.7711L60.5564 63.6013C60.4582 64.0236 60.4044 64.4643 60.4044 64.9159C60.4044 65.0192 60.4075 65.124 60.4137 65.2272C60.4075 65.3305 60.4044 65.4337 60.4044 65.537C60.4044 65.9901 60.4582 66.4293 60.5564 66.8516L66.1893 113.682L71.8221 66.8516C71.9204 66.4293 71.9741 65.9886 71.9741 65.5355C71.9741 65.4307 71.971 65.3274 71.9649 65.2257C71.971 65.1224 71.9741 65.0192 71.9741 64.9144V64.9159ZM66.1893 67.9875C64.6586 67.9875 63.4181 66.7545 63.3997 65.2272C63.4181 63.6999 64.6602 62.4654 66.1893 62.4654C67.7184 62.4654 68.9604 63.6984 68.9788 65.2272C68.9604 66.7545 67.7184 67.9875 66.1893 67.9875Z" fill="#1A1A1A"/>
<path d="M65.2021 71.19C65.6535 71.19 66.0925 71.1361 66.5147 71.0374L113.275 65.3952L66.5163 59.753C66.0941 59.6543 65.655 59.6004 65.2021 59.6004C65.0977 59.6004 64.9948 59.6035 64.892 59.6096C64.7891 59.6035 64.6862 59.6004 64.5819 59.6004C64.1305 59.6004 63.6914 59.6543 63.2692 59.753L16.5085 65.3952L63.2677 71.0374C63.6899 71.1361 64.129 71.19 64.5819 71.19C64.6862 71.19 64.7891 71.1869 64.892 71.1808C64.9948 71.1869 65.0977 71.19 65.2021 71.19ZM62.1347 65.3967C62.1347 63.8648 63.3659 62.6211 64.892 62.6026C66.418 62.6211 67.6493 63.8648 67.6493 65.3967C67.6493 66.9287 66.418 68.1724 64.892 68.1909C63.3659 68.1724 62.1347 66.9287 62.1347 65.3967Z" fill="#1A1A1A"/>
<path d="M65.4554 67.3602C63.914 67.3602 62.6643 66.1088 62.6643 64.5645H17.0382L63.7973 70.2068C64.2195 70.3054 64.6586 70.3593 65.11 70.3593C68.3048 70.3593 70.8948 67.7655 70.8948 64.566H68.2465C68.2465 66.1103 66.9968 67.3617 65.4554 67.3617V67.3602Z" fill="#2E4160"/>
<path d="M65.11 58.7712C64.6586 58.7712 64.2195 58.8252 63.7973 58.9223L17.0367 64.5645H62.6628C62.6628 63.0202 63.9125 61.7688 65.4539 61.7688C66.9953 61.7688 68.245 63.0202 68.245 64.5645H70.8933C70.8933 61.365 68.3033 58.7712 65.1085 58.7712H65.11Z" fill="#14294C"/>
<path d="M65.3479 61.7688C66.8893 61.7688 68.139 63.0202 68.139 64.5645H113.765L67.006 58.9223C66.5838 58.8236 66.1447 58.7697 65.6918 58.7697C62.497 58.7697 59.907 61.3635 59.907 64.563H62.5553C62.5553 63.0187 63.805 61.7673 65.3464 61.7673L65.3479 61.7688Z" fill="#14294C"/>
<path d="M65.6934 70.3593C66.1447 70.3593 66.5838 70.3054 67.006 70.2068L113.767 64.5645H68.1406C68.1406 66.1088 66.8909 67.3602 65.3495 67.3602C63.8081 67.3602 62.5584 66.1088 62.5584 64.5645H59.9101C59.9101 67.764 62.5001 70.3578 65.6949 70.3578L65.6934 70.3593Z" fill="#2E4160"/>
<path d="M68.1513 64.6631C68.1513 66.2074 66.9017 67.4588 65.3603 67.4588V113.153L70.9931 66.3245C71.0914 65.9007 71.1451 65.4615 71.1451 65.0084C71.1451 61.8089 68.5551 59.2151 65.3603 59.2151V61.8674C66.9017 61.8674 68.1513 63.1189 68.1513 64.6631Z" fill="#3A6477"/>
<path d="M59.5739 65.0084C59.5739 65.4615 59.6276 65.9007 59.7259 66.323L65.3587 113.153V67.4573C63.8173 67.4573 62.5676 66.2059 62.5676 64.6616C62.5676 63.1173 63.8173 61.8659 65.3587 61.8659V59.2135C62.1639 59.2135 59.5739 61.8073 59.5739 65.0068V65.0084Z" fill="#4C819E"/>
<path d="M62.5676 64.7695C62.5676 63.2252 63.8173 61.9738 65.3587 61.9738V16.2794L59.7259 63.1081C59.6276 63.5319 59.5739 63.9712 59.5739 64.4227C59.5739 67.6222 62.1639 70.216 65.3587 70.216V67.5636C63.8173 67.5636 62.5676 66.3122 62.5676 64.7679V64.7695Z" fill="#892121"/>
<path d="M71.1435 64.4243C71.1435 63.9712 71.0898 63.5319 70.9915 63.1096L65.3587 16.2794V61.9738C66.9001 61.9738 68.1498 63.2252 68.1498 64.7695C68.1498 66.3137 66.9001 67.5652 65.3587 67.5652V70.2175C68.5536 70.2175 71.1435 67.6237 71.1435 64.4243Z" fill="#682121"/>
<path d="M68.5996 64.6477C68.5996 66.4401 67.1488 67.8934 65.3587 67.8934C63.5686 67.8934 62.1178 66.4401 62.1178 64.6477C62.1178 62.8553 63.5686 61.402 65.3587 61.402C67.1488 61.402 68.5996 62.8553 68.5996 64.6477Z" fill="#CFD1D2"/>
<path d="M68.4169 64.6477C68.4169 66.3384 67.0475 67.71 65.3603 67.71C63.673 67.71 62.302 66.3399 62.302 64.6477C62.302 62.9555 63.6715 61.5854 65.3603 61.5854C67.049 61.5854 68.4169 62.9571 68.4169 64.6477Z" fill="#919395"/>
<path d="M65.3587 66.3785C66.3134 66.3785 67.0874 65.6036 67.0874 64.6477C67.0874 63.6919 66.3134 62.917 65.3587 62.917C64.404 62.917 63.63 63.6919 63.63 64.6477C63.63 65.6036 64.404 66.3785 65.3587 66.3785Z" fill="#CFD1D2"/>
<path d="M65.3587 66.1519C66.188 66.1519 66.8602 65.4785 66.8602 64.6477C66.8602 63.817 66.188 63.1435 65.3587 63.1435C64.5295 63.1435 63.8572 63.817 63.8572 64.6477C63.8572 65.4785 64.5295 66.1519 65.3587 66.1519Z" fill="#A5A6A9"/>
<path d="M66.6222 64.6477C66.6222 65.3459 66.0573 65.913 65.3587 65.913C64.6602 65.913 64.0952 65.3474 64.0952 64.6477C64.0952 63.948 64.6602 63.3824 65.3587 63.3824C66.0573 63.3824 66.6222 63.948 66.6222 64.6477Z" fill="#1A1A1A"/>
<path d="M66.2461 64.6477C66.2461 65.1378 65.8485 65.5354 65.3587 65.5354C64.869 65.5354 64.4713 65.1378 64.4713 64.6477C64.4713 64.1576 64.869 63.76 65.3587 63.76C65.8485 63.76 66.2461 64.1576 66.2461 64.6477Z" fill="#14294C"/>
</g>
<defs>
<clipPath id="clip0_44_7693">
<rect width="128" height="131" fill="white"/>
</clipPath>
</defs>
</svg>
