<?xml version="1.0" encoding="utf-8"?>
<svg version="1.1" xmlns="http://www.w3.org/2000/svg" xmlns:xlink="http://www.w3.org/1999/xlink" x="0px" y="0px"
	 width="1680px" height="900px" viewBox="0 0 1514.489 900" enable-background="new 0 0 1514.489 900" xml:space="preserve">
<g id="house9" transform="translate(0,450)">
	<rect x="374.476" y="489.941" fill="#DEB284" width="73.609" height="94.039"/>
	<rect x="374.476" y="489.941" fill="#CFA57C" width="42.022" height="94.039"/>
	<rect x="383.995" y="499.461" opacity="0.3" fill="#C4937A" width="22.983" height="84.52"/>
	<animateMotion from="0,0" to="0,-450" dur="0.6s" begin="0.4s" fill="freeze" />
</g>
<g id="house1" transform="translate(0,407)">
	<g>
		<polygon fill="#DEB284" points="1024.232,591.102 980.684,591.102 980.684,568.445 951.285,568.445 951.285,492.691 
			944.035,492.691 944.035,568.445 914.64,568.445 914.64,591.102 889.195,591.102 889.195,900 1016.972,900 1016.972,605.686 
			1024.232,605.686"/>
		<g>
			<g>
				<rect x="944.035" y="493.186" fill="#D3A37A" width="3.468" height="75.26"/>
				<rect x="914.64" y="568.445" fill="#B8886A" width="25.325" height="22.865"/>
				<rect x="889.195" y="591.102" fill="#B8886A" width="68.456" height="308.896"/>
				<rect x="881.588" y="591.102" fill="#B8886A" width="75.862" height="14.584"/>
			</g>
			<rect x="914.64" y="585.791" fill="#A67255" width="66.044" height="5.287"/>
			<rect x="889.195" y="605.686" fill="#A67255" width="127.775" height="5.139"/>
		</g>
	</g>
	<rect x="939.965" y="585.791" fill="#C8956B" width="40.719" height="5.287"/>
	<rect x="957.45" y="605.686" fill="#C8956B" width="59.521" height="5.139"/>
	<animateMotion from="0,0" to="0,-407" dur="0.6s" begin="0s" fill="freeze" />
</g>
<g id="house2" transform="translate(0,322)">
	<g transform="translate(-40,604)">
		<rect fill="#399594" width="133.925" height="299.765"/>
		<g>
			<rect x="21.261" y="20.138" fill="#266986" enable-background="new    " width="91.402" height="12.971"/>
			<rect x="21.261" y="44.744" fill="#266986" enable-background="new    " width="91.402" height="12.975"/>
			<rect x="21.261" y="69.358" fill="#266986" enable-background="new    " width="91.402" height="12.975"/>
			<rect x="21.261" y="93.969" fill="#266986" enable-background="new    " width="91.402" height="12.977"/>
			<rect x="21.261" y="118.575" fill="#266986" enable-background="new    " width="91.402" height="12.975"/>
		</g>
	</g>
	<animateMotion from="0,0" to="0,-322" dur="0.6s" begin="0.4s" fill="freeze" />
</g>
<rect x="86.785" y="624.516" fill="#DEB284" width="129.389" height="135.917" transform="translate(0,287)"> 
	<animateMotion from="0,0" to="0,-287" dur="0.4s" begin="0s" fill="freeze" />
</rect>
<g id="house3" transform="translate(0,514)">
	<g>
		<polygon fill="#DEB284" points="337.228,569.302 337.228,453.446 322.376,453.446 322.376,428.819 293.313,428.819 
			293.313,385.364 281.768,385.364 281.768,428.819 252.699,428.819 252.699,453.446 237.851,453.446 237.851,569.302 
			216.174,569.302 216.174,900 358.907,900 358.907,569.302 		"/>
		<rect x="281.768" y="385.364" fill="#BB916D" width="2.458" height="43.455"/>
		<rect x="252.699" y="428.819" fill="#D0A67E" width="10.967" height="24.39"/>
		<rect x="237.851" y="453.446" fill="#D0A67E" width="20.154" height="115.855"/>
		<rect x="216.174" y="569.302" fill="#D0A67E" width="30.189" height="330.698"/>
		<path fill="#D7A16A" d="M272.044,900h-12.586V587.332c0-1.196,0.968-2.169,2.164-2.169h8.258c1.199,0,2.164,0.973,2.164,2.169V900
			z"/>
		<path fill="#D7A16A" d="M297.36,900h-12.595V587.332c0-1.196,0.971-2.169,2.164-2.169h8.264c1.196,0,2.167,0.973,2.167,2.169V900z
			"/>
		<path fill="#D7A16A" d="M322.669,900h-12.589V587.332c0-1.196,0.965-2.169,2.165-2.169h8.257c1.196,0,2.167,0.973,2.167,2.169V900
			z"/>
		<path fill="#D7A16A" d="M347.979,900H335.39V587.332c0-1.196,0.968-2.169,2.164-2.169h8.261c1.193,0,2.164,0.973,2.164,2.169V900z
			"/>
	</g>
	<rect x="252.699" y="445.218" fill="#BC926A" width="69.677" height="8.229"/>
	<animateMotion from="0,0" to="0,-514" dur="0.6s" begin="0.1s" fill="freeze" />
</g>
<g id="house4" transform="translate(0,243)">
	<rect x="124.914" y="656.183" fill="#945B2A" width="169.227" height="243.817"/>
	<rect x="294.135" y="656.183" fill="#E3A044" width="169.23" height="243.817"/>
	<g>
		<rect x="308.399" y="679.415" fill="#A3997B" width="24.228" height="14.372"/>
		<rect x="308.399" y="717.344" fill="#A3997B" width="24.228" height="14.372"/>
		<rect x="308.399" y="679.415" fill="#74635E" width="24.228" height="3.043"/>
		<rect x="308.399" y="717.344" fill="#74635E" width="24.228" height="3.042"/>
	</g>
	<g>
		<g>
			<rect x="135" y="679.415" fill="#A3997B" width="29.701" height="14.372"/>
			<rect x="135" y="679.415" fill="#74635E" width="29.701" height="14.372"/>
			<rect x="135" y="679.415" fill="#74635E" width="29.701" height="3.043"/>
		</g>
		<g>
			<rect x="174.787" y="679.415" fill="#A3997B" width="29.701" height="14.372"/>
			<rect x="174.787" y="679.415" fill="#74635E" width="29.701" height="14.372"/>
			<rect x="174.787" y="679.415" fill="#74635E" width="29.701" height="3.043"/>
		</g>
		<g>
			<rect x="214.571" y="679.415" fill="#A3997B" width="29.704" height="14.372"/>
			<rect x="214.571" y="679.415" fill="#74635E" width="29.704" height="14.372"/>
			<rect x="214.571" y="679.415" fill="#74635E" width="29.704" height="3.043"/>
		</g>
		<g>
			<rect x="254.357" y="679.415" fill="#A3997B" width="29.701" height="14.372"/>
			<rect x="254.357" y="679.415" fill="#74635E" width="29.701" height="14.372"/>
			<rect x="254.357" y="679.415" fill="#74635E" width="29.701" height="3.043"/>
		</g>
	</g>
	<g>
		<g>
			<rect x="135" y="717.344" fill="#A3997B" width="29.701" height="14.372"/>
			<rect x="135" y="717.344" fill="#74635E" width="29.701" height="14.372"/>
			<rect x="135" y="717.344" fill="#74635E" width="29.701" height="3.042"/>
		</g>
		<g>
			<rect x="174.787" y="717.344" fill="#A3997B" width="29.701" height="14.372"/>
			<rect x="174.787" y="717.344" fill="#74635E" width="29.701" height="14.372"/>
			<rect x="174.787" y="717.344" fill="#74635E" width="29.701" height="3.042"/>
		</g>
		<g>
			<rect x="214.571" y="717.344" fill="#A3997B" width="29.704" height="14.372"/>
			<rect x="214.571" y="717.344" fill="#74635E" width="29.704" height="14.372"/>
			<rect x="214.571" y="717.344" fill="#74635E" width="29.704" height="3.042"/>
		</g>
		<g>
			<rect x="254.357" y="717.344" fill="#A3997B" width="29.701" height="14.372"/>
			<rect x="254.357" y="717.344" fill="#74635E" width="29.701" height="14.372"/>
			<rect x="254.357" y="717.344" fill="#74635E" width="29.701" height="3.042"/>
		</g>
	</g>
	<g>
		<g>
			<rect x="135" y="755.271" fill="#A3997B" width="29.701" height="14.376"/>
			<rect x="135" y="755.271" fill="#74635E" width="29.701" height="14.376"/>
			<rect x="135" y="755.271" fill="#74635E" width="29.701" height="3.045"/>
		</g>
		<g>
			<rect x="174.787" y="755.271" fill="#A3997B" width="29.701" height="14.376"/>
			<rect x="174.787" y="755.271" fill="#74635E" width="29.701" height="14.376"/>
			<rect x="174.787" y="755.271" fill="#74635E" width="29.701" height="3.045"/>
		</g>
		<g>
			<rect x="214.571" y="755.271" fill="#A3997B" width="29.704" height="14.376"/>
			<rect x="214.571" y="755.271" fill="#74635E" width="29.704" height="14.376"/>
			<rect x="214.571" y="755.271" fill="#74635E" width="29.704" height="3.045"/>
		</g>
		<g>
			<rect x="254.357" y="755.271" fill="#A3997B" width="29.701" height="14.376"/>
			<rect x="254.357" y="755.271" fill="#74635E" width="29.701" height="14.376"/>
			<rect x="254.357" y="755.271" fill="#74635E" width="29.701" height="3.045"/>
		</g>
	</g>
	<g>
		<g>
			<rect x="135" y="793.198" fill="#A3997B" width="29.701" height="14.376"/>
			<rect x="135" y="793.198" fill="#74635E" width="29.701" height="14.376"/>
			<rect x="135" y="793.198" fill="#74635E" width="29.701" height="3.046"/>
		</g>
		<g>
			<rect x="174.787" y="793.198" fill="#A3997B" width="29.701" height="14.376"/>
			<rect x="174.787" y="793.198" fill="#74635E" width="29.701" height="14.376"/>
			<rect x="174.787" y="793.198" fill="#74635E" width="29.701" height="3.046"/>
		</g>
		<g>
			<rect x="214.571" y="793.198" fill="#A3997B" width="29.704" height="14.376"/>
			<rect x="214.571" y="793.198" fill="#74635E" width="29.704" height="14.376"/>
			<rect x="214.571" y="793.198" fill="#74635E" width="29.704" height="3.046"/>
		</g>
		<g>
			<rect x="254.357" y="793.198" fill="#A3997B" width="29.701" height="14.376"/>
			<rect x="254.357" y="793.198" fill="#74635E" width="29.701" height="14.376"/>
			<rect x="254.357" y="793.198" fill="#74635E" width="29.701" height="3.046"/>
		</g>
	</g>
	<g>
		<g>
			<rect x="135" y="831.127" fill="#A3997B" width="29.701" height="14.375"/>
			<rect x="135" y="831.127" fill="#74635E" width="29.701" height="14.375"/>
			<rect x="135" y="831.127" fill="#74635E" width="29.701" height="3.045"/>
		</g>
		<g>
			<rect x="174.787" y="831.127" fill="#A3997B" width="29.701" height="14.375"/>
			<rect x="174.787" y="831.127" fill="#74635E" width="29.701" height="14.375"/>
			<rect x="174.787" y="831.127" fill="#74635E" width="29.701" height="3.045"/>
		</g>
		<g>
			<rect x="214.571" y="831.127" fill="#A3997B" width="29.704" height="14.375"/>
			<rect x="214.571" y="831.127" fill="#74635E" width="29.704" height="14.375"/>
			<rect x="214.571" y="831.127" fill="#74635E" width="29.704" height="3.045"/>
		</g>
		<g>
			<rect x="254.357" y="831.127" fill="#A3997B" width="29.701" height="14.375"/>
			<rect x="254.357" y="831.127" fill="#74635E" width="29.701" height="14.375"/>
			<rect x="254.357" y="831.127" fill="#74635E" width="29.701" height="3.045"/>
		</g>
	</g>
	<g>
		<g>
			<rect x="135" y="869.056" fill="#A3997B" width="29.701" height="14.375"/>
			<rect x="135" y="869.056" fill="#74635E" width="29.701" height="14.375"/>
			<rect x="135" y="869.056" fill="#74635E" width="29.701" height="3.045"/>
		</g>
		<g>
			<rect x="174.787" y="869.056" fill="#A3997B" width="29.701" height="14.375"/>
			<rect x="174.787" y="869.056" fill="#74635E" width="29.701" height="14.375"/>
			<rect x="174.787" y="869.056" fill="#74635E" width="29.701" height="3.045"/>
		</g>
		<g>
			<rect x="214.571" y="869.056" fill="#A3997B" width="29.704" height="14.375"/>
			<rect x="214.571" y="869.056" fill="#74635E" width="29.704" height="14.375"/>
			<rect x="214.571" y="869.056" fill="#74635E" width="29.704" height="3.045"/>
		</g>
		<g>
			<rect x="254.357" y="869.056" fill="#A3997B" width="29.701" height="14.375"/>
			<rect x="254.357" y="869.056" fill="#74635E" width="29.701" height="14.375"/>
			<rect x="254.357" y="869.056" fill="#74635E" width="29.701" height="3.045"/>
		</g>
	</g>
	<animateMotion from="0,0" to="0,-243" dur="0.6s" begin="0s" fill="freeze" />
</g>
<g id="house5" transform="translate(0,360)">
	<rect x="506.474" y="557.682" fill="#50918A" width="76.442" height="289.697"/>
	<polygon fill="#647F81" points="344.832,557.682 344.832,592.078 354.938,592.078 354.938,611.396 344.832,611.396 
		344.832,630.768 354.938,630.768 354.938,649.742 344.832,649.742 344.832,669.113 354.938,669.113 354.938,688.086 
		344.832,688.086 344.832,707.457 354.938,707.457 354.938,726.43 344.832,726.43 344.832,847.379 506.474,847.379 506.474,557.682 
			"/>
	<rect x="354.938" y="592.424" fill="#346072" width="132.935" height="18.973"/>
	<rect x="517.406" y="592.424" fill="#346072" width="24.717" height="18.973"/>
	<rect x="550.323" y="592.424" fill="#346072" width="24.722" height="18.973"/>
	<rect x="517.406" y="592.424" fill="#274652" width="24.717" height="5.012"/>
	<rect x="550.323" y="592.424" fill="#274652" width="24.722" height="5.012"/>
	<rect x="354.938" y="630.768" fill="#346072" width="132.935" height="18.975"/>
	<rect x="517.406" y="630.768" fill="#346072" width="24.717" height="18.975"/>
	<rect x="550.323" y="630.768" fill="#346072" width="24.722" height="18.975"/>
	<rect x="517.406" y="630.768" fill="#274652" width="24.717" height="5.012"/>
	<rect x="550.323" y="630.768" fill="#274652" width="24.722" height="5.012"/>
	<rect x="354.938" y="669.113" fill="#346072" width="132.935" height="18.973"/>
	<rect x="517.406" y="669.113" fill="#346072" width="24.717" height="18.973"/>
	<rect x="550.323" y="669.113" fill="#346072" width="24.722" height="18.973"/>
	<rect x="517.406" y="669.113" fill="#274652" width="24.717" height="5.01"/>
	<rect x="550.323" y="669.113" fill="#274652" width="24.722" height="5.01"/>
	<rect x="354.938" y="707.457" fill="#346072" width="132.935" height="18.973"/>
	<g>
		<rect x="354.938" y="592.424" fill="#274652" width="132.935" height="5.012"/>
		<rect x="354.938" y="630.768" fill="#274652" width="132.935" height="5.012"/>
		<rect x="354.938" y="669.113" fill="#274652" width="132.935" height="5.01"/>
		<rect x="354.938" y="707.457" fill="#274652" width="132.935" height="5.01"/>
	</g>
	<rect x="517.406" y="707.457" fill="#346072" width="24.717" height="18.973"/>
	<rect x="550.323" y="707.457" fill="#346072" width="24.722" height="18.973"/>
	<rect x="517.406" y="707.457" fill="#274652" width="24.717" height="5.01"/>
	<rect x="550.323" y="707.457" fill="#274652" width="24.722" height="5.01"/>
	<rect x="517.406" y="745.803" fill="#346072" width="24.717" height="18.973"/>
	<rect x="550.323" y="745.803" fill="#346072" width="24.722" height="18.973"/>
	<rect x="517.406" y="745.803" fill="#274652" width="24.717" height="5.01"/>
	<rect x="550.323" y="745.803" fill="#274652" width="24.722" height="5.01"/>
	<rect x="517.406" y="784.146" fill="#346072" width="24.717" height="18.973"/>
	<rect x="550.323" y="784.146" fill="#346072" width="24.722" height="18.973"/>
	<rect x="517.406" y="784.146" fill="#274652" width="24.717" height="5.01"/>
	<rect x="550.323" y="784.146" fill="#274652" width="24.722" height="5.01"/>
	<animateMotion from="0,0" to="0,-360" dur="0.6s" begin="0s" fill="freeze" />
</g>
<g id="house6" transform="translate(0,410)">
	<polygon fill="#5F8C93" points="1073.731,576.238 1073.731,505.453 1059.206,505.453 1059.206,772.218 1112.816,772.218 
		1112.816,576.238 	"/>
	<polygon fill="#3E9695" points="1178.811,576.238 1178.811,505.453 1073.731,505.453 1073.731,576.238 1112.816,576.238 
		1112.816,772.218 1178.811,772.218 1210.918,772.218 1210.918,576.238 	"/>
	<animateMotion from="0,0" to="0,-410" dur="0.6s" begin="0.2s" fill="freeze" />
</g>
<g id="house7" transform="translate(0,257)">
	<g>
		<rect x="939.372" y="688.804" fill="#E39E44" width="215.275" height="211.196"/>
		<rect x="927.766" y="678.016" fill="#AA9D8A" width="238.489" height="10.788"/>
		<rect x="933.569" y="643.345" fill="#AA9D8A" width="224.792" height="10.788"/>
		<rect x="945.175" y="654.133" fill="#E39E44" width="201.577" height="23.883"/>
		<rect x="933.569" y="643.345" fill="#695362" width="56.428" height="10.788"/>
		<rect x="927.766" y="678.016" fill="#695362" width="53.122" height="10.788"/>
		<rect x="945.175" y="654.133" fill="#965D30" width="40.68" height="23.883"/>
		<path fill="#AD7A3F" d="M1091.019,725.958h11.774v-16.806h-11.774V725.958z M995.581,725.958h11.771v-16.806h-11.771V725.958z
			 M1059.206,725.958h11.774v-16.806h-11.774V725.958z M1027.392,725.958h11.773v-16.806h-11.773V725.958z M1091.019,777.75h11.774
			v-43.975h-11.774V777.75z M1027.392,777.75h11.773v-43.975h-11.773V777.75z M1059.206,777.75h11.774v-43.975h-11.774V777.75z
			 M1059.206,820.805h11.774v-16.803h-11.774V820.805z M1027.392,820.805h11.773v-16.803h-11.773V820.805z M1091.019,820.805h11.774
			v-16.803h-11.774V820.805z M1122.833,820.805h11.773v-16.803h-11.773V820.805z M995.581,777.75h11.771v-43.975h-11.771V777.75z
			 M1122.833,709.152v16.806h11.773v-16.806H1122.833z M1091.019,872.598h11.774v-43.971h-11.774V872.598z M1122.833,777.75h11.773
			v-43.975h-11.773V777.75z M1122.833,872.598h11.773v-43.971h-11.773V872.598z M1059.206,872.598h11.774v-43.971h-11.774V872.598z
			 M995.581,872.598h11.771v-43.971h-11.771V872.598z M995.581,820.805h11.771v-16.803h-11.771V820.805z M1027.392,872.598h11.773
			v-43.971h-11.773V872.598z"/>
		<g>
			<g>
				<rect x="939.372" y="688.804" fill="#965D30" width="36.166" height="211.196"/>
				<rect x="960.113" y="709.152" fill="#6E3725" width="10.113" height="16.908"/>
				<rect x="944.686" y="709.152" fill="#6E3725" width="10.11" height="16.908"/>
				<rect x="960.113" y="734.459" fill="#6E3725" width="10.113" height="43.226"/>
				<rect x="944.686" y="799.193" fill="#6E3725" width="10.11" height="43.228"/>
			</g>
			<rect x="944.686" y="734.459" fill="#6E3725" width="10.11" height="43.226"/>
			<rect x="960.113" y="799.193" fill="#6E3725" width="10.113" height="43.228"/>
		</g>
	</g>
	<rect x="945.175" y="654.133" fill="#955C2B" width="201.577" height="5.314"/>
	<rect x="939.372" y="688.804" fill="#955C2B" width="215.275" height="5.311"/>
	<animateMotion from="0,0" to="0,-257" dur="0.4s" begin="0.2s" fill="freeze" />
</g>
<g id="house8" transform="translate(0,380)">
	<rect x="1276.153" y="533.235" fill="#3E9695" width="238.336" height="238.982"/>
	<rect x="1425.181" y="533.235" fill="#5F8C93" width="89.309" height="238.982"/>
	<animateMotion from="0,0" to="0,-380" dur="0.4s" begin="0s" fill="freeze" />
</g>
<g id="house10" transform="translate(0,392)">
	<rect x="831.552" y="621.576" fill="#E4A044" width="65.871" height="278.424"/>
	<rect x="567.858" y="618.4" fill="#AB9D8C" width="342.283" height="18.891"/>
	<rect x="594.375" y="508" fill="#AB9D8C" width="286.762" height="18.893"/>
	<rect x="611.025" y="526.893" fill="#E4A044" width="253.461" height="91.51"/>
	<rect x="611.025" y="526.893" fill="#945A2D" width="206.522" height="91.51"/>
	<rect x="580.58" y="637.291" fill="#945A2D" width="250.973" height="262.709"/>
	<rect x="696.145" y="637.291" fill="#633523" width="19.146" height="175.275"/>
	<rect x="691.108" y="698.156" fill="#945A2D" width="29.218" height="18.471"/>
	<rect x="691.108" y="755.359" fill="#945A2D" width="29.218" height="18.471"/>
	<polygon fill="#451714" points="715.225,716.627 699.552,716.627 696.145,716.627 696.145,722.412 696.145,755.359 
		699.552,755.359 699.552,722.412 715.225,722.412 	"/>
	<rect x="696.145" y="637.291" fill="#451714" width="3.407" height="60.854"/>
	<polygon fill="#451714" points="715.225,773.83 699.552,773.83 696.145,773.83 696.145,779.615 696.145,812.566 699.552,812.566 
		699.552,779.615 715.225,779.615 	"/>
	<rect x="689.93" y="579.527" fill="#633523" width="48.717" height="38.873"/>
	<rect x="594.375" y="508" fill="#6D5967" width="212.538" height="18.893"/>
	<rect x="567.858" y="618.4" fill="#6D5967" width="239.056" height="18.891"/>
	<rect x="611.025" y="526.893" fill="#64311E" width="253.461" height="9.234"/>
	<rect x="580.58" y="637.291" fill="#64311E" width="316.844" height="9.234"/>
	<rect x="831.552" y="637.291" fill="#9D5B2A" width="65.871" height="9.234"/>
	<polygon fill="#451714" points="738.647,579.527 693.338,579.527 689.93,579.527 689.93,585.314 689.93,618.4 693.338,618.4 
		693.338,585.314 738.647,585.314 	"/>
	<path fill="#978A73" d="M632.816,684.025h-32.713v-17.34h32.713V684.025z M676.62,666.686h-32.714v17.34h32.714V666.686z
		 M632.816,653.672h-32.713v8.994h32.713V653.672z M676.62,653.672h-32.714v8.994h32.714V653.672z"/>
	<g>
		<path fill="#978A73" d="M767.877,684.025h-32.714v-17.34h32.714V684.025z M811.68,666.686h-32.717v17.34h32.717V666.686z
			 M767.877,653.672h-32.714v8.994h32.714V653.672z M811.68,653.672h-32.717v8.994h32.717V653.672z"/>
	</g>
	<g>
		<path fill="#978A73" d="M632.816,751.17h-32.713v-17.34h32.713V751.17z M676.62,733.83h-32.714v17.34h32.714V733.83z
			 M632.816,720.816h-32.713v8.996h32.713V720.816z M676.62,720.816h-32.714v8.996h32.714V720.816z"/>
	</g>
	<path fill="#978A73" d="M767.877,751.17h-32.714v-17.34h32.714V751.17z M811.68,733.83h-32.717v17.34h32.717V733.83z
		 M767.877,720.816h-32.714v8.996h32.714V720.816z M811.68,720.816h-32.717v8.996h32.717V720.816z"/>
	<path fill="#978A73" d="M632.816,818.316h-32.713v-17.338h32.713V818.316z M676.62,800.979h-32.714v17.338h32.714V800.979z
		 M632.816,787.967h-32.713v8.992h32.713V787.967z M676.62,787.967h-32.714v8.992h32.714V787.967z"/>
	<path fill="#978A73" d="M767.877,818.316h-32.714v-17.338h32.714V818.316z M811.68,800.979h-32.717v17.338h32.717V800.979z
		 M767.877,787.967h-32.714v8.992h32.714V787.967z M811.68,787.967h-32.717v8.992h32.717V787.967z"/>
	<path fill="#A3977B" d="M632.816,885.463h-32.713v-17.336h32.713V885.463z M676.62,868.127h-32.714v17.336h32.714V868.127z
		 M632.816,855.111h-32.713v8.992h32.713V855.111z M676.62,855.111h-32.714v8.992h32.714V855.111z"/>
	<path fill="#A3977B" d="M767.877,885.463h-32.714v-17.336h32.714V885.463z M811.68,868.127h-32.717v17.336h32.717V868.127z
		 M767.877,855.111h-32.714v8.992h32.714V855.111z M811.68,855.111h-32.717v8.992h32.717V855.111z"/>
	<g>
		<rect x="653.018" y="555.375" fill="#978A73" width="16.685" height="18.072"/>
		<rect x="653.018" y="579.961" fill="#978A73" width="16.685" height="18.074"/>
		<rect x="629.818" y="555.375" fill="#978A73" width="16.685" height="18.072"/>
		<rect x="629.818" y="579.961" fill="#978A73" width="16.685" height="18.074"/>
	</g>
	<g>
		<rect x="776.676" y="555.375" fill="#978A73" width="16.684" height="18.072"/>
		<rect x="776.676" y="579.961" fill="#978A73" width="16.684" height="18.074"/>
		<rect x="753.483" y="555.375" fill="#978A73" width="16.682" height="18.072"/>
		<rect x="753.483" y="579.961" fill="#978A73" width="16.682" height="18.074"/>
	</g>
	<rect x="689.93" y="555.375" fill="#978A73" width="48.717" height="15.271"/>
	<rect x="829.994" y="564.41" fill="#C1BDA8" width="22.052" height="23.514"/>
	<rect x="855.758" y="657.092" fill="#C1BDA8" width="22.049" height="23.514"/>
	<rect x="855.758" y="724.238" fill="#C1BDA8" width="22.049" height="23.516"/>
	<rect x="855.758" y="791.383" fill="#C1BDA8" width="22.049" height="23.518"/>
	<rect x="817.547" y="526.893" fill="#9D5B2A" width="46.938" height="9.234"/>
	<animateMotion from="0,0" to="0,-392" dur="0.4s" begin="0s" fill="freeze" />
</g>
<g id="house11" transform="translate(0,196)">
	<rect x="456.887" y="725.809" fill="#885A25" width="54.989" height="174.191"/>
	<polygon fill="#734820" points="268.972,725.809 268.972,828.448 214.571,828.448 214.571,900 456.887,900 456.887,725.809 	"/>
	<path fill="#98672E" d="M395.526,753.137v31.346h41.606v-31.346H395.526z M341.496,784.482h41.609v-31.346h-41.609V784.482z
		 M395.526,829.095h41.606V798h-41.606V829.095z M341.496,829.095h41.609V798h-41.609V829.095z"/>
	<path fill="#98672E" d="M287.469,784.482h41.606v-31.346h-41.606V784.482z M287.469,829.095h41.606V798h-41.606V829.095z"/>
	<path fill="#98672E" d="M319.022,872.964h28.84v-25.585h-28.84V872.964z M274.385,872.964h28.84v-25.585h-28.84V872.964z
		 M363.655,872.964h28.84v-25.585h-28.84V872.964z M408.291,847.379v25.585h28.841v-25.585H408.291z M229.749,872.964h28.837
		v-25.585h-28.837V872.964z"/>
	<animateMotion from="0,0" to="0,-196" dur="0.4s" begin="0s" fill="freeze" />
</g>
<g id="house12" transform="translate(0,196)">
	<g>
		<polygon fill="#744922" points="503.463,829.095 503.463,853.655 489.286,853.655 489.286,867.041 503.397,867.041 
			503.397,887.801 489.286,887.801 489.286,900 773.385,900 773.385,829.095 		"/>
		<g>
			<rect x="697.763" y="839.274" fill="#92652E" width="85.49" height="60.726"/>
			<rect x="707.545" y="867.041" fill="#422B11" width="65.84" height="20.76"/>
			<rect x="707.545" y="839.274" fill="#422B11" width="65.84" height="14.381"/>
			<g>
				<rect x="697.763" y="829.095" fill="#81785C" width="85.49" height="10.18"/>
				<rect x="489.822" y="829.095" fill="#4E3F40" width="207.94" height="10.18"/>
			</g>
		</g>
	</g>
	<rect x="503.463" y="867.041" fill="#371D0B" width="204.083" height="20.76"/>
	<rect x="503.463" y="839.274" fill="#371D0B" width="204.083" height="14.381"/>
	<animateMotion from="0,0" to="0,-196" dur="0.4s" begin="0s" fill="freeze" />
</g>
<g id="svgBg2" transform="translate(0,216)">
	<rect x="1192.815" y="697.731" fill="#DEB284" width="168.978" height="60.225"/>
	<rect x="1192.815" y="697.731" fill="#D0A67D" width="112.729" height="60.225"/>
	<animateMotion from="0,0" to="0,-216" dur="0.4s" begin="0s" fill="freeze" />
</g>
<g id="house13" transform="translate(0,196)">
	<g>
		<g>
			<rect x="1140.631" y="766.644" fill="#508489" width="221.509" height="133.356"/>
			<rect x="1308.953" y="766.644" fill="#65A79E" width="53.188" height="133.356"/>
		</g>
		<rect x="1134.169" y="757.956" fill="#BFB6B8" width="234.434" height="8.688"/>
		<rect x="1134.169" y="809.589" fill="#BFB6B8" width="234.434" height="8.687"/>
		<rect x="1134.169" y="861.222" fill="#BFB6B8" width="234.434" height="8.681"/>
	</g>
	<rect x="1134.169" y="757.956" fill="#9799A3" width="184.12" height="8.688"/>
	<rect x="1134.169" y="809.589" fill="#9799A3" width="184.12" height="8.687"/>
	<rect x="1134.169" y="861.222" fill="#9799A3" width="184.12" height="8.681"/>
	<animateMotion from="0,0" to="0,-196" dur="0.4s" begin="0s" fill="freeze" />
</g>
<g id="house14" transform="translate(0,196)">
	<rect x="759.028" y="814.217" fill="#784A22" width="161.518" height="85.783"/>
	<rect x="920.546" y="814.217" fill="#A26B2C" width="65.078" height="85.783"/>
	<rect x="777.306" y="840.911" fill="#371E12" width="11.897" height="59.089"/>
	<rect x="799.896" y="840.911" fill="#371E12" width="11.9" height="59.089"/>
	<rect x="822.494" y="840.911" fill="#371E12" width="11.894" height="59.089"/>
	<rect x="845.085" y="840.911" fill="#371E12" width="11.899" height="59.089"/>
	<rect x="890.275" y="840.911" fill="#371E12" width="11.896" height="59.089"/>
	<rect x="867.679" y="840.911" fill="#371E12" width="11.899" height="59.089"/>
	<rect x="930.977" y="840.911" fill="#6E301C" width="16.791" height="59.089"/>
	<rect x="958.3" y="840.911" fill="#6E301C" width="16.792" height="59.089"/>
	<animateMotion from="0,0" to="0,-196" dur="0.4s" begin="0s" fill="freeze" />
</g>
<g id="house15" transform="translate(0,196)">
	<g transform="translate(-48,750)">
		<rect x="106.787" y="12.518" fill="#5D8B91" width="91.341" height="139.568"/>
		<rect x="119.978" fill="#C5BDBF" width="93.76" height="12.518"/>
		<rect fill="#9998A1" width="119.978" height="12.518"/>
		<rect x="133.074" y="44.637" fill="#436E78" width="47.831" height="107.449"/>
		<rect x="11.333" y="12.518" fill="#436E78" width="95.453" height="139.568"/>
	</g>
	<animateMotion from="0,0" to="0,-196" dur="0.4s" begin="0s" fill="freeze" />
</g>
<g id="house16" transform="translate(0,161)">
	<g transform="translate(1327,740)">
		<rect x="13.484" y="17.926" fill="#CB5D56" width="226.762" height="142.872"/>
		<rect fill="#DED4D6" width="251.58" height="18.754"/>
		<rect x="84.44" y="88.696" opacity="0.3" fill="#E6E7E8" enable-background="new    " width="29.694" height="15.74"/>
		<rect x="185.489" y="76.176" opacity="0.3" fill="#E6E7E8" enable-background="new    " width="29.694" height="15.741"/>
		<rect x="128.987" y="127.231" opacity="0.3" fill="#E6E7E8" enable-background="new    " width="29.695" height="15.734"/>
		<rect x="155.793" y="60.443" opacity="0.3" fill="#E6E7E8" enable-background="new    " width="29.695" height="15.732"/>
		<g>
			<rect x="13.484" y="32.512" fill="#974542" width="23.073" height="128.286"/>
			<rect x="36.558" y="17.926" fill="#AF4B44" width="203.689" height="14.586"/>
			<rect x="13.484" y="17.926" fill="#863C39" width="23.073" height="14.586"/>
		</g>
		<rect x="26.577" y="48.15" opacity="0.3" fill="#E6E7E8" enable-background="new    " width="29.695" height="15.732"/>
	</g>

	<animateMotion from="0,0" to="0,-161" dur="0.2s" begin="0s" fill="freeze" />
</g>
</svg>
