<?xml version="1.0" encoding="UTF-8" standalone="no"?>
<svg width="16px" height="23px" viewBox="0 0 25 36" version="1.1" xmlns="http://www.w3.org/2000/svg" xmlns:xlink="http://www.w3.org/1999/xlink">
    <!-- Generator: Sketch 3.8.3 (29802) - http://www.bohemiancoding.com/sketch -->
    <title>map pin</title>
    <desc></desc>
    <defs></defs>
    <g id="@Sketch-Measure" stroke="none" stroke-width="1" fill="none" fill-rule="evenodd">
        <g id="JC-about01" transform="translate(-669.000000, -1281.000000)" fill="#ff4600">
            <path d="M694,1293.524 C694,1286.607 688.405,1281 681.501,1281 C674.598,1281 669,1286.607 669,1293.524 C669,1296.249 670.069,1298.863 671.484,1301.138 C672.316,1302.47 673.164,1303.796 674.005,1305.122 C675.065,1306.79 676.132,1308.452 677.184,1310.122 C678.124,1311.619 679.082,1313.101 680.023,1314.594 C680.482,1315.328 680.958,1316.053 681.41,1316.788 C681.424,1316.809 681.435,1316.826 681.445,1316.847 C682.353,1315.41 683.269,1313.972 684.177,1312.535 C685.801,1309.974 687.423,1307.409 689.046,1304.851 C689.976,1303.388 690.897,1301.938 691.868,1300.505 C692.75,1299.204 693.375,1297.744 693.717,1296.21 C693.909,1295.335 694,1294.421 694,1293.524" id="about-pin"></path>
        </g>
    </g>
</svg>