<svg version="1.1" xmlns="http://www.w3.org/2000/svg" xmlns:xlink="http://www.w3.org/1999/xlink" x="0px" y="0px"
	 width="156.042px" height="216.912px" viewBox="0 0 156.042 216.912" enable-background="new 0 0 156.042 216.912"
	 xml:space="preserve">
<g>
	<g>
		<path fill="#F8EB4D" stroke="#000000" stroke-width="6" stroke-miterlimit="10" d="M20.801,213.211
			c-6.457,0-10.742-6.006-13.508-12.295c-4.174-9.475-3.99-15.156,6.733-19.873c0.24-0.111,31.038-14.264,62.601-52.67
			c23.597-28.709,34.859-68.637,39.715-91.785H63.476c-9.273,0-15.792-7.521-15.792-16.795S54.203,3,63.476,3h72.772
			c4.774,0,9.32,2.031,12.506,5.586c3.187,3.557,4.71,8.299,4.187,13.043c-0.346,3.148-8.954,77.68-50.365,128.07
			c-37.004,45.025-73.484,61.408-75.021,62.084C25.354,212.754,23.058,213.211,20.801,213.211z"/>
		<g>
			<path fill="#F8EB4D" stroke="#000000" stroke-width="6" stroke-miterlimit="10" d="M7.565,205.787
				c5.626,7.377,14.248,10.256,19.257,6.438c5.012-3.824,4.512-12.898-1.116-20.273c-5.62-7.375-14.24-10.254-19.251-6.434
				C1.446,189.338,1.941,198.41,7.565,205.787z"/>
		</g>
	</g>
	<g>
		<circle cx="143.61" cy="9.061" r="1.866"/>
		<circle cx="135.79" cy="9.061" r="1.752"/>
		<circle cx="127.97" cy="9.061" r="1.639"/>
		<circle cx="120.15" cy="9.061" r="1.525"/>
		<circle cx="112.33" cy="9.061" r="1.41"/>
		<circle cx="104.509" cy="9.061" r="1.297"/>
		<circle cx="96.689" cy="9.061" r="1.183"/>
		<circle cx="88.87" cy="9.061" r="1.069"/>
		<circle cx="81.049" cy="9.061" r="0.955"/>
		<circle cx="73.229" cy="9.061" r="0.841"/>
		<circle cx="65.409" cy="9.061" r="0.728"/>
		<circle cx="57.589" cy="9.061" r="0.614"/>
	</g>
	<g>
		<circle cx="143.61" cy="17.24" r="1.866"/>
		<circle cx="135.79" cy="17.24" r="1.752"/>
		<circle cx="127.97" cy="17.24" r="1.639"/>
		<circle cx="120.15" cy="17.24" r="1.525"/>
		<circle cx="112.33" cy="17.24" r="1.41"/>
		<circle cx="104.509" cy="17.24" r="1.297"/>
		<circle cx="96.689" cy="17.24" r="1.183"/>
		<circle cx="88.87" cy="17.24" r="1.069"/>
		<circle cx="81.049" cy="17.24" r="0.955"/>
		<circle cx="73.229" cy="17.24" r="0.841"/>
		<circle cx="65.409" cy="17.24" r="0.728"/>
		<circle cx="57.589" cy="17.24" r="0.614"/>
	</g>
	<g>
		<circle cx="143.61" cy="25.42" r="1.866"/>
		<circle cx="135.79" cy="25.42" r="1.752"/>
		<circle cx="127.97" cy="25.42" r="1.639"/>
		<circle cx="120.15" cy="25.42" r="1.525"/>
		<circle cx="112.33" cy="25.42" r="1.41"/>
		<circle cx="104.509" cy="25.42" r="1.297"/>
		<circle cx="96.689" cy="25.42" r="1.183"/>
		<circle cx="88.87" cy="25.42" r="1.069"/>
		<circle cx="81.049" cy="25.42" r="0.955"/>
		<circle cx="73.229" cy="25.42" r="0.841"/>
		<circle cx="65.409" cy="25.42" r="0.728"/>
		<circle cx="57.589" cy="25.42" r="0.614"/>
	</g>
	<circle cx="143.61" cy="33.602" r="1.866"/>
	<circle cx="135.79" cy="33.602" r="1.752"/>
	<circle cx="127.97" cy="33.602" r="1.639"/>
	<circle cx="120.15" cy="33.602" r="1.525"/>
	<circle cx="112.33" cy="33.602" r="1.41"/>
	<circle cx="104.509" cy="33.602" r="1.297"/>
	<circle cx="96.689" cy="33.602" r="1.183"/>
	<circle cx="88.87" cy="33.602" r="1.069"/>
	<circle cx="81.049" cy="33.602" r="0.955"/>
	<circle cx="73.229" cy="33.602" r="0.841"/>
	<path d="M66.137,33.602c0,0.4-0.327,0.727-0.728,0.727c-0.403,0-0.729-0.326-0.729-0.727c0-0.404,0.325-0.729,0.729-0.729
		C65.81,32.873,66.137,33.197,66.137,33.602z"/>
	<circle cx="143.61" cy="41.781" r="1.866"/>
	<circle cx="135.79" cy="41.781" r="1.752"/>
	<circle cx="127.97" cy="41.781" r="1.639"/>
	<circle cx="120.15" cy="41.781" r="1.525"/>
	<circle cx="143.61" cy="49.961" r="1.866"/>
	<circle cx="135.79" cy="49.961" r="1.752"/>
	<circle cx="127.97" cy="49.961" r="1.639"/>
	<circle cx="120.15" cy="49.961" r="1.525"/>
	<circle cx="143.61" cy="58.141" r="1.866"/>
	<circle cx="135.79" cy="58.141" r="1.752"/>
	<circle cx="127.97" cy="58.141" r="1.639"/>
	<circle cx="120.15" cy="58.141" r="1.525"/>
	<circle cx="112.33" cy="58.141" r="1.41"/>
	<circle cx="135.79" cy="66.322" r="1.752"/>
	<circle cx="127.97" cy="66.322" r="1.639"/>
	<circle cx="120.15" cy="66.322" r="1.525"/>
	<circle cx="112.33" cy="66.322" r="1.41"/>
	<circle cx="135.79" cy="74.502" r="1.752"/>
	<circle cx="127.97" cy="74.502" r="1.639"/>
	<circle cx="120.15" cy="74.502" r="1.525"/>
	<circle cx="112.33" cy="74.502" r="1.41"/>
	<circle cx="135.79" cy="82.682" r="1.752"/>
	<circle cx="127.97" cy="82.682" r="1.639"/>
	<circle cx="120.15" cy="82.682" r="1.525"/>
	<circle cx="112.33" cy="82.682" r="1.41"/>
	<circle cx="127.97" cy="90.861" r="1.639"/>
	<circle cx="120.15" cy="90.861" r="1.525"/>
	<circle cx="112.33" cy="90.861" r="1.41"/>
	<circle cx="104.509" cy="90.861" r="1.297"/>
	<circle cx="127.97" cy="99.043" r="1.639"/>
	<circle cx="120.15" cy="99.043" r="1.525"/>
	<circle cx="112.33" cy="99.043" r="1.41"/>
	<circle cx="104.509" cy="99.043" r="1.297"/>
	<circle cx="120.15" cy="107.223" r="1.525"/>
	<circle cx="112.33" cy="107.223" r="1.41"/>
	<circle cx="104.509" cy="107.223" r="1.297"/>
	<circle cx="96.689" cy="107.223" r="1.183"/>
	<circle cx="120.15" cy="115.402" r="1.525"/>
	<circle cx="112.33" cy="115.402" r="1.41"/>
	<circle cx="104.509" cy="115.402" r="1.297"/>
	<circle cx="96.689" cy="115.402" r="1.183"/>
	<circle cx="112.33" cy="123.582" r="1.41"/>
	<circle cx="104.509" cy="123.582" r="1.297"/>
	<circle cx="96.689" cy="123.582" r="1.183"/>
	<circle cx="88.87" cy="123.582" r="1.069"/>
	<g>
		<circle cx="112.33" cy="131.764" r="1.41"/>
		<circle cx="104.509" cy="131.764" r="1.297"/>
		<circle cx="96.689" cy="131.764" r="1.183"/>
		<circle cx="88.87" cy="131.764" r="1.069"/>
		<circle cx="81.049" cy="131.764" r="0.955"/>
	</g>
	<g>
		<circle cx="104.509" cy="139.943" r="1.297"/>
		<circle cx="96.689" cy="139.943" r="1.183"/>
		<circle cx="88.87" cy="139.943" r="1.069"/>
		<circle cx="81.049" cy="139.943" r="0.955"/>
		<circle cx="73.229" cy="139.943" r="0.841"/>
	</g>
	<circle cx="96.689" cy="148.123" r="1.183"/>
	<circle cx="88.87" cy="148.123" r="1.069"/>
	<circle cx="81.049" cy="148.123" r="0.955"/>
	<circle cx="73.229" cy="148.123" r="0.841"/>
	<circle cx="65.409" cy="148.123" r="0.728"/>
	<circle cx="88.87" cy="156.303" r="1.069"/>
	<circle cx="81.049" cy="156.303" r="0.955"/>
	<circle cx="73.229" cy="156.303" r="0.841"/>
	<circle cx="65.409" cy="156.303" r="0.728"/>
	<circle cx="57.589" cy="156.303" r="0.614"/>
	<circle cx="81.049" cy="164.484" r="0.955"/>
	<circle cx="73.229" cy="164.484" r="0.841"/>
	<path d="M66.137,164.484c0,0.4-0.327,0.727-0.728,0.727c-0.403,0-0.729-0.326-0.729-0.727c0-0.404,0.325-0.729,0.729-0.729
		C65.81,163.756,66.137,164.08,66.137,164.484z"/>
	<circle cx="57.589" cy="164.484" r="0.614"/>
	<circle cx="73.229" cy="172.664" r="0.841"/>
	<circle cx="65.409" cy="172.664" r="0.728"/>
	<circle cx="57.589" cy="172.664" r="0.614"/>
	<circle cx="65.409" cy="180.844" r="0.728"/>
	<circle cx="57.589" cy="180.844" r="0.614"/>
	<circle cx="57.589" cy="189.023" r="0.614"/>
</g>
</svg>
