<svg version="1.1" xmlns="http://www.w3.org/2000/svg" xmlns:xlink="http://www.w3.org/1999/xlink" x="0px" y="0px"
	 width="264.593px" height="162.426px" viewBox="0 0 264.593 162.426" enable-background="new 0 0 264.593 162.426"
	 xml:space="preserve">
<g>
	<g>
		<path fill="#F8EB4D" stroke="#000000" stroke-width="6" stroke-miterlimit="10" d="M247.803,125.838H136.117
			c-21.222,0-38.494-6.775-51.334-20.133c-7.383-7.686-11.324-15.58-12.869-19.15V19.793C71.914,10.52,64.394,3,55.12,3H19.788
			C10.516,3,3,10.52,3,19.793c0,9.275,7.516,16.793,16.788,16.793h18.538v56.359c0,8.883-15.076,24.83-25.937,32.906
			c-7.461,5.512-9.041,16.025-3.534,23.484c3.294,4.461,8.377,6.822,13.524,6.822c3.464,0,6.96-1.068,9.961-3.287
			c3.808-2.811,16.358-12.584,26.318-25.945c0.188,0.209,0.373,0.416,0.563,0.625c13.434,14.539,37.679,31.875,76.895,31.875
			h111.686c9.272,0,13.79-7.52,13.79-16.793C261.593,133.357,257.075,125.838,247.803,125.838z"/>
		<path fill="#F8EB4D" stroke="#000000" stroke-width="5.856" stroke-miterlimit="10" d="M9.974,150.252
			c6.196,6.6,14.855,8.535,19.336,4.326c4.484-4.211,3.092-12.969-3.105-19.568c-6.193-6.598-14.851-8.535-19.333-4.328
			C2.39,134.893,3.776,143.654,9.974,150.252z"/>
		<path fill="#F8EB4D" stroke="#000000" stroke-width="5.8739" stroke-miterlimit="10" d="M239.257,142.633
			c0,9.078,5,16.439,11.167,16.439c6.171,0,11.169-7.361,11.169-16.439c0-9.08-4.998-16.443-11.169-16.443
			C244.257,126.189,239.257,133.553,239.257,142.633z"/>
	</g>
	<g>
		<circle cx="234.288" cy="131.971" r="2.321"/>
		<circle cx="226.469" cy="131.971" r="2.208"/>
		<circle cx="218.648" cy="131.971" r="2.094"/>
		<path d="M212.808,131.971c0,1.094-0.886,1.982-1.979,1.982c-1.095,0-1.979-0.889-1.979-1.982c0-1.092,0.885-1.98,1.979-1.98
			C211.922,129.99,212.808,130.879,212.808,131.971z"/>
		<circle cx="203.008" cy="131.971" r="1.866"/>
		<circle cx="195.188" cy="131.971" r="1.752"/>
		<circle cx="187.368" cy="131.971" r="1.639"/>
		<circle cx="179.548" cy="131.971" r="1.525"/>
		<circle cx="171.728" cy="131.971" r="1.41"/>
		<circle cx="163.907" cy="131.971" r="1.297"/>
		<circle cx="156.087" cy="131.971" r="1.183"/>
		<circle cx="148.268" cy="131.971" r="1.069"/>
		<circle cx="140.447" cy="131.971" r="0.955"/>
		<circle cx="132.627" cy="131.971" r="0.841"/>
		<circle cx="124.807" cy="131.971" r="0.728"/>
		<circle cx="116.987" cy="131.971" r="0.614"/>
	</g>
	<g>
		<circle cx="234.288" cy="140.152" r="2.321"/>
		<circle cx="226.469" cy="140.152" r="2.208"/>
		<circle cx="218.648" cy="140.152" r="2.094"/>
		<circle cx="210.828" cy="140.152" r="1.979"/>
		<circle cx="203.008" cy="140.152" r="1.866"/>
		<circle cx="195.188" cy="140.152" r="1.752"/>
		<circle cx="187.368" cy="140.152" r="1.639"/>
		<circle cx="179.548" cy="140.152" r="1.525"/>
		<circle cx="171.728" cy="140.152" r="1.41"/>
		<circle cx="163.907" cy="140.152" r="1.297"/>
		<circle cx="156.087" cy="140.152" r="1.183"/>
		<circle cx="148.268" cy="140.152" r="1.069"/>
		<circle cx="140.447" cy="140.152" r="0.955"/>
		<circle cx="132.627" cy="140.152" r="0.841"/>
		<circle cx="124.807" cy="140.152" r="0.728"/>
		<circle cx="116.987" cy="140.152" r="0.614"/>
	</g>
	<g>
		<circle cx="234.288" cy="148.332" r="2.321"/>
		<circle cx="226.469" cy="148.332" r="2.208"/>
		<circle cx="218.648" cy="148.332" r="2.094"/>
		<circle cx="210.828" cy="148.332" r="1.979"/>
		<circle cx="203.008" cy="148.332" r="1.866"/>
		<circle cx="195.188" cy="148.332" r="1.752"/>
		<circle cx="187.368" cy="148.332" r="1.639"/>
		<circle cx="179.548" cy="148.332" r="1.525"/>
		<circle cx="171.728" cy="148.332" r="1.41"/>
		<circle cx="163.907" cy="148.332" r="1.297"/>
		<circle cx="156.087" cy="148.332" r="1.183"/>
		<circle cx="148.268" cy="148.332" r="1.069"/>
		<circle cx="140.447" cy="148.332" r="0.955"/>
		<circle cx="132.627" cy="148.332" r="0.841"/>
		<circle cx="124.807" cy="148.332" r="0.728"/>
		<circle cx="116.987" cy="148.332" r="0.614"/>
	</g>
	<g>
		<circle cx="234.288" cy="156.512" r="2.321"/>
		<circle cx="226.469" cy="156.512" r="2.208"/>
		<circle cx="218.648" cy="156.512" r="2.094"/>
		<circle cx="210.828" cy="156.512" r="1.979"/>
		<circle cx="203.008" cy="156.512" r="1.866"/>
		<circle cx="195.188" cy="156.512" r="1.752"/>
		<circle cx="187.368" cy="156.512" r="1.639"/>
		<circle cx="179.548" cy="156.512" r="1.525"/>
		<circle cx="171.728" cy="156.512" r="1.41"/>
		<circle cx="163.907" cy="156.512" r="1.297"/>
		<circle cx="156.087" cy="156.512" r="1.183"/>
		<circle cx="148.268" cy="156.512" r="1.069"/>
		<circle cx="140.447" cy="156.512" r="0.955"/>
		<circle cx="132.627" cy="156.512" r="0.841"/>
		<circle cx="124.807" cy="156.512" r="0.728"/>
	</g>
</g>
</svg>
