<svg version="1.1" xmlns="http://www.w3.org/2000/svg" xmlns:xlink="http://www.w3.org/1999/xlink" x="0px" y="0px"
	 width="143.509px" height="274.451px" viewBox="0 0 143.509 274.451" enable-background="new 0 0 143.509 274.451"
	 xml:space="preserve">
<g>
	<path fill="#F8EB4D" stroke="#000000" stroke-width="6" stroke-miterlimit="10" d="M21.084,259.417
		c-4.459,0-8.909-1.766-12.213-5.262c-6.366-6.742-6.062-17.371,0.676-23.74c24.042-22.705,55.076-65.758,70.221-110.758
		c2.956-8.788,12.474-13.521,21.271-10.56c8.789,2.957,13.516,12.479,10.559,21.271c-16.99,50.49-51.914,98.892-78.986,124.462
		C29.366,257.896,25.221,259.417,21.084,259.417z"/>
	<circle cx="101.537" cy="112.243" r="1.979"/>
	<circle cx="93.716" cy="112.243" r="1.866"/>
	<circle cx="85.896" cy="112.243" r="1.752"/>
	<circle cx="109.356" cy="120.424" r="2.094"/>
	<circle cx="101.537" cy="120.424" r="1.979"/>
	<circle cx="93.716" cy="120.424" r="1.866"/>
	<circle cx="85.896" cy="120.424" r="1.752"/>
	<circle cx="78.077" cy="120.424" r="1.639"/>
	<circle cx="109.356" cy="128.604" r="2.094"/>
	<circle cx="101.537" cy="128.604" r="1.979"/>
	<circle cx="93.716" cy="128.604" r="1.866"/>
	<circle cx="85.896" cy="128.604" r="1.752"/>
	<circle cx="78.077" cy="128.604" r="1.639"/>
	<circle cx="109.356" cy="136.783" r="2.094"/>
	<circle cx="101.537" cy="136.783" r="1.979"/>
	<circle cx="93.716" cy="136.783" r="1.866"/>
	<circle cx="85.896" cy="136.783" r="1.752"/>
	<circle cx="78.077" cy="136.783" r="1.639"/>
	<circle cx="101.537" cy="144.964" r="1.979"/>
	<circle cx="93.716" cy="144.964" r="1.866"/>
	<circle cx="85.896" cy="144.964" r="1.752"/>
	<circle cx="78.077" cy="144.964" r="1.639"/>
	<circle cx="70.256" cy="144.964" r="1.525"/>
	<circle cx="101.537" cy="153.144" r="1.979"/>
	<circle cx="93.716" cy="153.144" r="1.866"/>
	<circle cx="85.896" cy="153.144" r="1.752"/>
	<circle cx="78.077" cy="153.144" r="1.639"/>
	<circle cx="70.256" cy="153.144" r="1.525"/>
	<circle cx="93.716" cy="161.324" r="1.866"/>
	<circle cx="85.896" cy="161.324" r="1.752"/>
	<circle cx="78.077" cy="161.324" r="1.639"/>
	<circle cx="70.256" cy="161.324" r="1.525"/>
	<circle cx="62.436" cy="161.324" r="1.41"/>
	<circle cx="93.716" cy="169.503" r="1.866"/>
	<circle cx="85.896" cy="169.503" r="1.752"/>
	<circle cx="78.077" cy="169.503" r="1.639"/>
	<circle cx="70.256" cy="169.503" r="1.525"/>
	<circle cx="62.436" cy="169.503" r="1.41"/>
	<circle cx="85.896" cy="177.685" r="1.752"/>
	<circle cx="70.256" cy="177.685" r="1.525"/>
	<circle cx="62.436" cy="177.685" r="1.41"/>
	<circle cx="54.616" cy="177.685" r="1.297"/>
	<circle cx="85.896" cy="185.865" r="1.752"/>
	<circle cx="70.256" cy="185.865" r="1.525"/>
	<circle cx="62.436" cy="185.865" r="1.41"/>
	<circle cx="54.616" cy="185.865" r="1.297"/>
	<circle cx="78.077" cy="194.044" r="1.639"/>
	<circle cx="70.256" cy="194.044" r="1.525"/>
	<circle cx="62.436" cy="194.044" r="1.41"/>
	<circle cx="54.616" cy="194.044" r="1.297"/>
	<circle cx="46.796" cy="194.044" r="1.183"/>
	<circle cx="70.256" cy="202.224" r="1.525"/>
	<circle cx="62.436" cy="202.224" r="1.41"/>
	<circle cx="54.616" cy="202.224" r="1.297"/>
	<circle cx="46.796" cy="202.224" r="1.183"/>
	<circle cx="38.976" cy="202.224" r="1.069"/>
	<circle cx="70.256" cy="210.406" r="1.525"/>
	<circle cx="62.436" cy="210.406" r="1.41"/>
	<circle cx="54.616" cy="210.406" r="1.297"/>
	<circle cx="46.796" cy="210.406" r="1.183"/>
	<circle cx="38.976" cy="210.406" r="1.069"/>
	<circle cx="31.156" cy="210.406" r="0.955"/>
	<circle cx="62.436" cy="218.585" r="1.41"/>
	<circle cx="54.616" cy="218.585" r="1.297"/>
	<circle cx="46.796" cy="218.585" r="1.183"/>
	<circle cx="38.976" cy="218.585" r="1.069"/>
	<circle cx="31.156" cy="218.585" r="0.955"/>
	<circle cx="23.336" cy="218.585" r="0.841"/>
	<circle cx="54.616" cy="226.765" r="1.297"/>
	<circle cx="46.796" cy="226.765" r="1.183"/>
	<circle cx="38.976" cy="226.765" r="1.069"/>
	<circle cx="31.156" cy="226.765" r="0.955"/>
	<circle cx="23.336" cy="226.765" r="0.841"/>
	<circle cx="15.516" cy="226.765" r="0.728"/>
	<circle cx="46.796" cy="234.945" r="1.183"/>
	<circle cx="38.976" cy="234.945" r="1.069"/>
	<circle cx="31.156" cy="234.945" r="0.955"/>
	<circle cx="23.336" cy="234.945" r="0.841"/>
	<circle cx="38.976" cy="243.126" r="1.069"/>
	<circle cx="78.077" cy="177.685" r="1.639"/>
	<circle cx="78.077" cy="185.865" r="1.639"/>
	<path fill="#F8EB4D" stroke="#000000" stroke-width="6" stroke-miterlimit="10" d="M8.872,254.156
		c6.352,6.762,15.222,8.744,19.814,4.434c4.595-4.314,3.168-13.291-3.183-20.049c-6.347-6.762-15.217-8.746-19.81-4.434
		S2.525,247.396,8.872,254.156z"/>
</g>
<g>
	<path fill="#F8EB4D" stroke="#000000" stroke-width="6" stroke-miterlimit="10" d="M100.981,271.451
		c-1.874,0-3.823-0.223-5.855-0.697c-28.4-6.623-46.864-47.02-59.864-130.988C26.69,84.412,24.125,31.407,24.023,29.179
		c-0.435-9.265,6.72-17.127,15.984-17.563c9.253-0.438,17.128,6.719,17.563,15.981c0.027,0.532,2.602,53.662,10.917,107.263
		c4.795,30.902,10.501,55.787,16.961,73.972c5.099,14.354,9.874,22.078,13.211,25.92c2.802-5.383,6.07-14.217,7.965-22.061
		c2.173-9.01,11.227-14.557,20.25-12.396c9.009,2.168,14.566,11.215,12.411,20.227C135.466,236.482,124.414,271.451,100.981,271.451
		z"/>
	<g>
		<g>
			<circle cx="46.796" cy="14.081" r="1.183"/>
			<circle cx="38.976" cy="14.081" r="1.069"/>
			<circle cx="31.156" cy="14.081" r="0.955"/>
		</g>
		<g>
			<circle cx="54.616" cy="22.262" r="1.297"/>
			<circle cx="46.796" cy="22.262" r="1.183"/>
			<circle cx="38.976" cy="22.262" r="1.069"/>
			<circle cx="31.156" cy="22.262" r="0.955"/>
		</g>
		<g>
			<circle cx="54.616" cy="30.441" r="1.297"/>
			<circle cx="46.796" cy="30.441" r="1.183"/>
			<circle cx="38.976" cy="30.441" r="1.069"/>
			<circle cx="31.156" cy="30.441" r="0.955"/>
		</g>
		<g>
			<circle cx="54.616" cy="38.621" r="1.297"/>
			<circle cx="46.796" cy="38.621" r="1.183"/>
			<circle cx="38.976" cy="38.621" r="1.069"/>
			<circle cx="31.156" cy="38.621" r="0.955"/>
		</g>
		<g>
			<circle cx="54.616" cy="46.802" r="1.297"/>
			<circle cx="46.796" cy="46.802" r="1.183"/>
			<circle cx="38.976" cy="46.802" r="1.069"/>
			<circle cx="31.156" cy="46.802" r="0.955"/>
		</g>
		<g>
			<circle cx="54.616" cy="54.982" r="1.297"/>
			<circle cx="46.796" cy="54.982" r="1.183"/>
			<circle cx="38.976" cy="54.982" r="1.069"/>
			<circle cx="31.156" cy="54.982" r="0.955"/>
		</g>
		<g>
			<circle cx="54.616" cy="63.162" r="1.297"/>
			<circle cx="46.796" cy="63.162" r="1.183"/>
			<circle cx="38.976" cy="63.162" r="1.069"/>
			<circle cx="31.156" cy="63.162" r="0.955"/>
		</g>
		<g>
			<circle cx="54.616" cy="71.342" r="1.297"/>
			<circle cx="46.796" cy="71.342" r="1.183"/>
			<circle cx="38.976" cy="71.342" r="1.069"/>
			<circle cx="31.156" cy="71.342" r="0.955"/>
		</g>
		<g>
			<circle cx="54.616" cy="79.522" r="1.297"/>
			<circle cx="46.796" cy="79.522" r="1.183"/>
			<circle cx="38.976" cy="79.522" r="1.069"/>
			<circle cx="31.156" cy="79.522" r="0.955"/>
		</g>
		<g>
			<circle cx="62.436" cy="87.703" r="1.41"/>
			<circle cx="54.616" cy="87.703" r="1.297"/>
			<circle cx="46.796" cy="87.703" r="1.183"/>
			<circle cx="38.976" cy="87.703" r="1.069"/>
			<circle cx="31.156" cy="87.703" r="0.955"/>
		</g>
		<g>
			<circle cx="54.616" cy="95.883" r="1.297"/>
			<circle cx="46.796" cy="95.883" r="1.183"/>
			<circle cx="38.976" cy="95.883" r="1.069"/>
		</g>
		<g>
			<circle cx="62.436" cy="104.062" r="1.41"/>
			<circle cx="54.616" cy="104.062" r="1.297"/>
			<circle cx="46.796" cy="104.062" r="1.183"/>
			<circle cx="38.976" cy="104.062" r="1.069"/>
		</g>
		<g>
			<circle cx="62.436" cy="112.243" r="1.41"/>
			<circle cx="54.616" cy="112.243" r="1.297"/>
			<circle cx="46.796" cy="112.243" r="1.183"/>
			<circle cx="38.976" cy="112.243" r="1.069"/>
		</g>
		<g>
			<circle cx="62.436" cy="120.424" r="1.41"/>
			<circle cx="54.616" cy="120.424" r="1.297"/>
			<circle cx="46.796" cy="120.424" r="1.183"/>
			<circle cx="38.976" cy="120.424" r="1.069"/>
		</g>
		<g>
			<circle cx="62.436" cy="128.604" r="1.41"/>
			<circle cx="54.616" cy="128.604" r="1.297"/>
			<circle cx="46.796" cy="128.604" r="1.183"/>
			<circle cx="38.976" cy="128.604" r="1.069"/>
		</g>
		<g>
			<circle cx="62.436" cy="136.783" r="1.41"/>
			<circle cx="54.616" cy="136.783" r="1.297"/>
			<circle cx="46.796" cy="136.783" r="1.183"/>
			<circle cx="38.976" cy="136.783" r="1.069"/>
		</g>
		<g>
			<circle cx="62.436" cy="144.964" r="1.41"/>
			<circle cx="54.616" cy="144.964" r="1.297"/>
			<circle cx="46.796" cy="144.964" r="1.183"/>
			<circle cx="38.976" cy="144.964" r="1.069"/>
		</g>
		<g>
			<circle cx="70.256" cy="153.144" r="1.525"/>
			<circle cx="62.436" cy="153.144" r="1.41"/>
			<circle cx="54.616" cy="153.144" r="1.297"/>
			<circle cx="46.796" cy="153.144" r="1.183"/>
			<circle cx="38.976" cy="153.144" r="1.069"/>
		</g>
		<g>
			<circle cx="70.256" cy="161.324" r="1.525"/>
			<circle cx="62.436" cy="161.324" r="1.41"/>
			<circle cx="54.616" cy="161.324" r="1.297"/>
			<circle cx="46.796" cy="161.324" r="1.183"/>
		</g>
		<g>
			<circle cx="70.256" cy="169.503" r="1.525"/>
			<circle cx="62.436" cy="169.503" r="1.41"/>
			<circle cx="54.616" cy="169.503" r="1.297"/>
			<circle cx="46.796" cy="169.503" r="1.183"/>
		</g>
		<g>
			<circle cx="70.256" cy="177.685" r="1.525"/>
			<circle cx="62.436" cy="177.685" r="1.41"/>
			<circle cx="54.616" cy="177.685" r="1.297"/>
			<circle cx="46.796" cy="177.685" r="1.183"/>
		</g>
		<g>
			<circle cx="70.256" cy="185.865" r="1.525"/>
			<circle cx="62.436" cy="185.865" r="1.41"/>
			<circle cx="54.616" cy="185.865" r="1.297"/>
			<circle cx="46.796" cy="185.865" r="1.183"/>
		</g>
		<g>
			<circle cx="78.077" cy="194.044" r="1.639"/>
			<circle cx="70.256" cy="194.044" r="1.525"/>
			<circle cx="62.436" cy="194.044" r="1.41"/>
			<circle cx="54.616" cy="194.044" r="1.297"/>
		</g>
		<g>
			<circle cx="78.077" cy="202.224" r="1.639"/>
			<circle cx="70.256" cy="202.224" r="1.525"/>
			<circle cx="62.436" cy="202.224" r="1.41"/>
			<circle cx="54.616" cy="202.224" r="1.297"/>
		</g>
		<g>
			<circle cx="78.077" cy="210.406" r="1.639"/>
			<circle cx="70.256" cy="210.406" r="1.525"/>
			<circle cx="62.436" cy="210.406" r="1.41"/>
			<circle cx="54.616" cy="210.406" r="1.297"/>
		</g>
		<g>
			<circle cx="109.356" cy="218.585" r="2.094"/>
			<circle cx="85.896" cy="218.585" r="1.752"/>
			<circle cx="78.077" cy="218.585" r="1.639"/>
			<circle cx="70.256" cy="218.585" r="1.525"/>
			<circle cx="62.436" cy="218.585" r="1.41"/>
		</g>
		<g>
			<circle cx="132.817" cy="226.765" r="2.436"/>
			<circle cx="124.997" cy="226.765" r="2.321"/>
			<circle cx="117.177" cy="226.765" r="2.208"/>
			<circle cx="109.356" cy="226.765" r="2.094"/>
			<circle cx="101.537" cy="226.765" r="1.979"/>
			<circle cx="85.896" cy="226.765" r="1.752"/>
			<circle cx="78.077" cy="226.765" r="1.639"/>
			<circle cx="70.256" cy="226.765" r="1.525"/>
			<circle cx="62.436" cy="226.765" r="1.41"/>
		</g>
		<g>
			<circle cx="132.817" cy="234.945" r="2.436"/>
			<circle cx="124.997" cy="234.945" r="2.321"/>
			<circle cx="117.177" cy="234.945" r="2.208"/>
			<circle cx="109.356" cy="234.945" r="2.094"/>
			<path d="M103.516,234.945c0,1.094-0.886,1.982-1.979,1.982c-1.095,0-1.979-0.889-1.979-1.982c0-1.092,0.885-1.98,1.979-1.98
				C102.63,232.964,103.516,233.853,103.516,234.945z"/>
			<circle cx="93.716" cy="234.945" r="1.866"/>
			<circle cx="85.896" cy="234.945" r="1.752"/>
			<circle cx="78.077" cy="234.945" r="1.639"/>
			<circle cx="70.256" cy="234.945" r="1.525"/>
			<circle cx="62.436" cy="234.945" r="1.41"/>
		</g>
		<g>
			<circle cx="132.817" cy="243.126" r="2.436"/>
			<circle cx="124.997" cy="243.126" r="2.321"/>
			<circle cx="117.177" cy="243.126" r="2.208"/>
			<circle cx="109.356" cy="243.126" r="2.094"/>
			<circle cx="101.537" cy="243.126" r="1.979"/>
			<circle cx="93.716" cy="243.126" r="1.866"/>
			<circle cx="85.896" cy="243.126" r="1.752"/>
			<circle cx="78.077" cy="243.126" r="1.639"/>
			<circle cx="70.256" cy="243.126" r="1.525"/>
		</g>
		<g>
			<circle cx="124.997" cy="251.306" r="2.321"/>
			<circle cx="117.177" cy="251.306" r="2.208"/>
			<circle cx="109.356" cy="251.306" r="2.094"/>
			<circle cx="101.537" cy="251.306" r="1.979"/>
			<circle cx="93.716" cy="251.306" r="1.866"/>
			<circle cx="85.896" cy="251.306" r="1.752"/>
			<circle cx="78.077" cy="251.306" r="1.639"/>
		</g>
		<g>
			<circle cx="117.177" cy="259.486" r="2.208"/>
			<circle cx="109.356" cy="259.486" r="2.094"/>
			<circle cx="101.537" cy="259.486" r="1.979"/>
			<circle cx="93.716" cy="259.486" r="1.866"/>
			<circle cx="85.896" cy="259.486" r="1.752"/>
			<circle cx="78.077" cy="259.486" r="1.639"/>
		</g>
		<g>
			<circle cx="109.356" cy="267.666" r="2.094"/>
			<circle cx="101.537" cy="267.666" r="1.979"/>
			<circle cx="93.716" cy="267.666" r="1.866"/>
		</g>
		<circle cx="78.077" cy="177.685" r="1.639"/>
		<circle cx="78.077" cy="185.865" r="1.639"/>
	</g>
	
		<ellipse transform="matrix(0.316 -0.9488 0.9488 0.316 -115.75 262.4953)" fill="#F8EB4D" stroke="#000000" stroke-width="6" stroke-miterlimit="10" cx="124.169" cy="211.522" rx="11.408" ry="16.792"/>
</g>
<g>
	<g>
		<path fill="#F8EB4D" stroke="#000000" stroke-width="6" stroke-miterlimit="10" d="M99.293,3c-1.778,0-8.521,0-10.301,0
			C77.225,3,67.68,12.541,67.68,24.312c0,11.772,9.545,21.314,21.312,21.314c1.78,0,8.522,0,10.301,0
			c11.773,0,21.315-9.542,21.315-21.314C120.609,12.541,111.067,3,99.293,3z"/>
		<path fill="#F8EB4D" stroke="#000000" stroke-width="6" stroke-miterlimit="10" d="M110.306,24.312
			c0,11.772-9.541,21.314-21.313,21.314c-11.768,0-21.312-9.542-21.312-21.314C67.68,12.541,77.225,3,88.993,3
			C100.765,3,110.306,12.541,110.306,24.312z"/>
	</g>
	<g>
		<circle cx="93.716" cy="5.9" r="1.866"/>
		<circle cx="85.896" cy="5.9" r="1.752"/>
	</g>
	<circle cx="101.537" cy="14.081" r="1.979"/>
	<circle cx="93.716" cy="14.081" r="1.866"/>
	<circle cx="85.896" cy="14.081" r="1.752"/>
	<circle cx="78.077" cy="14.081" r="1.639"/>
	<circle cx="101.537" cy="22.262" r="1.979"/>
	<circle cx="93.716" cy="22.262" r="1.866"/>
	<circle cx="85.896" cy="22.262" r="1.752"/>
	<circle cx="78.077" cy="22.262" r="1.639"/>
	<circle cx="70.256" cy="22.262" r="1.525"/>
	<circle cx="101.537" cy="30.441" r="1.979"/>
	<circle cx="93.716" cy="30.441" r="1.866"/>
	<circle cx="85.896" cy="30.441" r="1.752"/>
	<circle cx="78.077" cy="30.441" r="1.639"/>
	<circle cx="70.256" cy="30.441" r="1.525"/>
	<circle cx="101.537" cy="38.621" r="1.979"/>
	<circle cx="93.716" cy="38.621" r="1.866"/>
	<circle cx="85.896" cy="38.621" r="1.752"/>
	<circle cx="78.077" cy="38.621" r="1.639"/>
</g>
</svg>
