<svg version="1.1" xmlns="http://www.w3.org/2000/svg" xmlns:xlink="http://www.w3.org/1999/xlink" x="0px" y="0px"
	 width="188.23px" height="124.731px" viewBox="0 0 188.23 124.731" enable-background="new 0 0 188.23 124.731"
	 xml:space="preserve">
<g>
	<g>
		<path fill="#F8EB4D" stroke="#000000" stroke-width="6" stroke-miterlimit="10" d="M172.571,121.731H26.548
			c-8.646,0-15.659-7.014-15.659-15.662s7.013-15.664,15.659-15.664h146.022c8.648,0,12.659,7.016,12.659,15.664
			S181.219,121.731,172.571,121.731z"/>
		<path fill="#F8EB4D" stroke="#000000" stroke-width="6" stroke-miterlimit="10" d="M163.951,106.069
			c0,8.65,4.764,15.66,10.64,15.66c5.877,0,10.64-7.01,10.64-15.66c0-8.652-4.763-15.664-10.64-15.664
			C168.714,90.405,163.951,97.417,163.951,106.069z"/>
	</g>
	<g>
		<circle cx="164.613" cy="95.876" r="2.321"/>
		<circle cx="156.793" cy="95.876" r="2.208"/>
		<circle cx="148.973" cy="95.876" r="2.094"/>
		<circle cx="141.153" cy="95.876" r="1.979"/>
		<circle cx="133.333" cy="95.876" r="1.866"/>
		<circle cx="125.513" cy="95.876" r="1.752"/>
		<circle cx="117.693" cy="95.876" r="1.639"/>
		<circle cx="109.873" cy="95.876" r="1.525"/>
		<circle cx="102.052" cy="95.876" r="1.41"/>
		<circle cx="94.232" cy="95.876" r="1.297"/>
		<circle cx="78.592" cy="95.876" r="1.069"/>
		<circle cx="70.772" cy="95.876" r="0.955"/>
		<circle cx="62.952" cy="95.876" r="0.841"/>
		<circle cx="55.132" cy="95.876" r="0.728"/>
		<circle cx="47.312" cy="95.876" r="0.614"/>
	</g>
	<g>
		<circle cx="156.793" cy="104.056" r="2.208"/>
		<circle cx="148.973" cy="104.056" r="2.094"/>
		<path d="M143.132,104.056c0,1.094-0.886,1.982-1.979,1.982c-1.095,0-1.979-0.889-1.979-1.982c0-1.092,0.885-1.98,1.979-1.98
			C142.247,102.075,143.132,102.964,143.132,104.056z"/>
		<circle cx="133.333" cy="104.056" r="1.866"/>
		<circle cx="125.513" cy="104.056" r="1.752"/>
		<circle cx="117.693" cy="104.056" r="1.639"/>
		<circle cx="109.873" cy="104.056" r="1.525"/>
		<circle cx="102.052" cy="104.056" r="1.41"/>
		<circle cx="94.232" cy="104.056" r="1.297"/>
		<circle cx="86.412" cy="104.056" r="1.183"/>
		<circle cx="78.592" cy="104.056" r="1.069"/>
		<circle cx="70.772" cy="104.056" r="0.955"/>
		<circle cx="62.952" cy="104.056" r="0.841"/>
		<circle cx="55.132" cy="104.056" r="0.728"/>
		<circle cx="47.312" cy="104.056" r="0.614"/>
	</g>
	<g>
		<circle cx="164.613" cy="112.237" r="2.321"/>
		<circle cx="156.793" cy="112.237" r="2.208"/>
		<circle cx="148.973" cy="112.237" r="2.094"/>
		<circle cx="141.153" cy="112.237" r="1.979"/>
		<circle cx="133.333" cy="112.237" r="1.866"/>
		<circle cx="125.513" cy="112.237" r="1.752"/>
		<circle cx="117.693" cy="112.237" r="1.639"/>
		<circle cx="109.873" cy="112.237" r="1.525"/>
		<circle cx="102.052" cy="112.237" r="1.41"/>
		<circle cx="94.232" cy="112.237" r="1.297"/>
		<circle cx="86.412" cy="112.237" r="1.183"/>
		<circle cx="78.592" cy="112.237" r="1.069"/>
		<circle cx="70.772" cy="112.237" r="0.955"/>
		<circle cx="62.952" cy="112.237" r="0.841"/>
		<circle cx="55.132" cy="112.237" r="0.728"/>
		<circle cx="47.312" cy="112.237" r="0.614"/>
	</g>
	<circle cx="164.613" cy="120.417" r="2.321"/>
	<circle cx="156.793" cy="120.417" r="2.208"/>
	<circle cx="148.973" cy="120.417" r="2.094"/>
	<circle cx="141.153" cy="120.417" r="1.979"/>
	<circle cx="133.333" cy="120.417" r="1.866"/>
	<circle cx="86.412" cy="95.901" r="1.183"/>
</g>
<g>
	<path fill="#F8EB4D" stroke="#000000" stroke-width="6" stroke-miterlimit="10" d="M19.795,82.04
		c-4.459,0-8.907-1.764-12.212-5.262c-6.366-6.742-6.064-17.373,0.68-23.74c8.008-7.564,20.126-27.477,22.355-36.736
		c2.17-9.016,11.232-14.559,20.257-12.396c9.017,2.172,14.568,11.24,12.396,20.258c-3.771,15.66-18.998,41.061-31.949,53.295
		C28.079,80.522,23.932,82.04,19.795,82.04z"/>
	<path fill="#F8EB4D" stroke="#000000" stroke-width="6" stroke-miterlimit="10" d="M44.854,25.884
		c8.667,3.307,17.513,1.211,19.758-4.674c2.246-5.891-2.959-13.338-11.628-16.643c-8.662-3.305-17.506-1.213-19.753,4.672
		C30.986,15.126,36.19,22.577,44.854,25.884z"/>
</g>
<g>
	<path fill="#F8EB4D" stroke="#000000" stroke-width="6" stroke-miterlimit="10" d="M83.822,71.384H50.223
		c-8.649,0-13.66-7.012-13.66-15.66c0-8.65,5.011-15.662,13.66-15.662h33.599c8.649,0,15.662,7.012,15.662,15.662
		C99.484,64.372,92.471,71.384,83.822,71.384z"/>
	<circle cx="94.232" cy="46.796" r="1.297"/>
	<circle cx="78.592" cy="46.796" r="1.069"/>
	<circle cx="70.772" cy="46.796" r="0.955"/>
	<circle cx="62.952" cy="46.796" r="0.841"/>
	<path d="M55.86,46.796c0,0.4-0.327,0.727-0.728,0.727c-0.403,0-0.729-0.326-0.729-0.727c0-0.404,0.325-0.729,0.729-0.729
		C55.533,46.067,55.86,46.392,55.86,46.796z"/>
	<circle cx="47.312" cy="46.796" r="0.614"/>
	<circle cx="94.232" cy="54.976" r="1.297"/>
	<circle cx="78.592" cy="54.976" r="1.069"/>
	<circle cx="70.772" cy="54.976" r="0.955"/>
	<circle cx="62.952" cy="54.976" r="0.841"/>
	<circle cx="55.132" cy="54.976" r="0.728"/>
	<circle cx="47.312" cy="54.976" r="0.614"/>
	<circle cx="94.232" cy="63.155" r="1.297"/>
	<circle cx="78.592" cy="63.155" r="1.069"/>
	<circle cx="70.772" cy="63.155" r="0.955"/>
	<circle cx="62.952" cy="63.155" r="0.841"/>
	<circle cx="55.132" cy="63.155" r="0.728"/>
	<circle cx="47.312" cy="63.155" r="0.614"/>
	<circle cx="86.412" cy="46.796" r="1.183"/>
	<circle cx="86.412" cy="54.976" r="1.183"/>
	<circle cx="86.412" cy="63.155" r="1.183"/>
</g>
<g>
	<g>
		<path fill="#F8EB4D" stroke="#000000" stroke-width="6" stroke-miterlimit="10" d="M102.086,104.712
			c-9.274,0-16.793-5.516-16.793-14.789V18.167c0-9.273,7.519-13.789,16.793-13.789c9.275,0,16.795,4.516,16.795,13.789v71.756
			C118.881,99.196,111.362,104.712,102.086,104.712z"/>
		
			<ellipse fill="#F8EB4D" stroke="#000000" stroke-width="6" stroke-miterlimit="10" cx="102.086" cy="15.785" rx="16.793" ry="11.407"/>
	</g>
	<g>
		<circle cx="109.873" cy="30.435" r="1.525"/>
		<circle cx="102.052" cy="30.435" r="1.41"/>
		<circle cx="94.232" cy="30.435" r="1.297"/>
	</g>
	<g>
		<circle cx="109.873" cy="38.614" r="1.525"/>
		<circle cx="102.052" cy="38.614" r="1.41"/>
		<circle cx="94.232" cy="38.614" r="1.297"/>
	</g>
	<circle cx="109.873" cy="46.796" r="1.525"/>
	<circle cx="102.052" cy="46.796" r="1.41"/>
	<circle cx="94.232" cy="46.796" r="1.297"/>
	<circle cx="109.873" cy="54.976" r="1.525"/>
	<circle cx="102.052" cy="54.976" r="1.41"/>
	<circle cx="94.232" cy="54.976" r="1.297"/>
	<circle cx="109.873" cy="63.155" r="1.525"/>
	<circle cx="102.052" cy="63.155" r="1.41"/>
	<circle cx="94.232" cy="63.155" r="1.297"/>
	<circle cx="109.873" cy="71.335" r="1.525"/>
	<circle cx="102.052" cy="71.335" r="1.41"/>
	<circle cx="94.232" cy="71.335" r="1.297"/>
	<circle cx="109.873" cy="79.517" r="1.525"/>
	<circle cx="102.052" cy="79.517" r="1.41"/>
	<circle cx="94.232" cy="79.517" r="1.297"/>
	<circle cx="109.873" cy="87.696" r="1.525"/>
	<circle cx="102.052" cy="87.696" r="1.41"/>
	<circle cx="94.232" cy="87.696" r="1.297"/>
	<circle cx="109.873" cy="95.876" r="1.525"/>
	<circle cx="102.052" cy="95.876" r="1.41"/>
	<circle cx="94.232" cy="95.876" r="1.297"/>
</g>
<g>
	<g>
		<path fill="#F8EB4D" stroke="#000000" stroke-width="6" stroke-miterlimit="10" d="M172.571,71.384h-62.774
			c-8.651,0-13.66-7.012-13.66-15.66c0-8.65,5.009-15.662,13.66-15.662h62.774c8.648,0,12.659,7.012,12.659,15.662
			C185.23,64.372,181.219,71.384,172.571,71.384z"/>
		<path fill="#F8EB4D" stroke="#000000" stroke-width="6" stroke-miterlimit="10" d="M163.951,55.724
			c0,8.65,4.764,15.66,10.64,15.66c5.877,0,10.64-7.01,10.64-15.66c0-8.652-4.763-15.662-10.64-15.662
			C168.714,40.062,163.951,47.071,163.951,55.724z"/>
	</g>
	<circle cx="156.793" cy="46.796" r="2.208"/>
	<circle cx="148.973" cy="46.796" r="2.094"/>
	<circle cx="141.153" cy="46.796" r="1.979"/>
	<circle cx="133.333" cy="46.796" r="1.866"/>
	<circle cx="125.513" cy="46.796" r="1.752"/>
	<circle cx="117.693" cy="46.796" r="1.639"/>
	<circle cx="109.873" cy="46.796" r="1.525"/>
	<circle cx="102.052" cy="46.796" r="1.41"/>
	<circle cx="156.793" cy="54.976" r="2.208"/>
	<circle cx="148.973" cy="54.976" r="2.094"/>
	<circle cx="141.153" cy="54.976" r="1.979"/>
	<circle cx="133.333" cy="54.976" r="1.866"/>
	<circle cx="125.513" cy="54.976" r="1.752"/>
	<circle cx="117.693" cy="54.976" r="1.639"/>
	<circle cx="109.873" cy="54.976" r="1.525"/>
	<circle cx="102.052" cy="54.976" r="1.41"/>
	<circle cx="156.793" cy="63.155" r="2.208"/>
	<circle cx="148.973" cy="63.155" r="2.094"/>
	<circle cx="141.153" cy="63.155" r="1.979"/>
	<circle cx="133.333" cy="63.155" r="1.866"/>
	<circle cx="125.513" cy="63.155" r="1.752"/>
	<circle cx="117.693" cy="63.155" r="1.639"/>
	<circle cx="109.873" cy="63.155" r="1.525"/>
	<circle cx="102.052" cy="63.155" r="1.41"/>
</g>
</svg>
