<svg version="1.1" xmlns="http://www.w3.org/2000/svg" xmlns:xlink="http://www.w3.org/1999/xlink" x="0px" y="0px"
	 width="82.339px" height="68.85px" viewBox="0 0 82.339 68.85" enable-background="new 0 0 82.339 68.85" xml:space="preserve">
<g>
	<path fill="#F8EB4D" stroke="#000000" stroke-width="6" stroke-miterlimit="10" d="M47.913,3c-2.316,0-11.174,0-13.491,0
		C17.071,3,3,17.068,3,34.424S17.071,65.85,34.422,65.85c2.317,0,11.175,0,13.491,0c17.358,0,31.426-14.07,31.426-31.426
		S65.271,3,47.913,3z"/>
	<path fill="#F8EB4D" stroke="#000000" stroke-width="6" stroke-miterlimit="10" d="M65.848,34.424
		c0,17.355-14.067,31.426-31.426,31.426C17.071,65.85,3,51.779,3,34.424S17.071,3,34.422,3C51.78,3,65.848,17.068,65.848,34.424z"/>
</g>
</svg>
