<svg version="1.1" xmlns="http://www.w3.org/2000/svg" xmlns:xlink="http://www.w3.org/1999/xlink" x="0px" y="0px"
	 width="106.791px" height="212.23px" viewBox="0 0 106.791 212.23" enable-background="new 0 0 106.791 212.23"
	 xml:space="preserve">
<g>
	<g>
		<path fill="#F8EB4D" stroke="#000000" stroke-width="6" stroke-miterlimit="10" d="M20.694,208.714
			c-6.894,0-13.357-4.277-15.812-11.145c-3.121-8.734,1.428-18.344,10.161-21.469l62.698-22.41
			c8.726-3.117,18.341,1.426,21.465,10.16c3.12,8.734-1.427,18.342-10.161,21.467l-62.696,22.41
			C24.479,208.398,22.572,208.714,20.694,208.714z"/>
		
			<ellipse transform="matrix(-0.8974 0.4411 -0.4411 -0.8974 115.4758 361.2213)" fill="#F8EB4D" stroke="#000000" stroke-width="5.7791" stroke-miterlimit="10" cx="15.749" cy="194.034" rx="10.987" ry="16.174"/>
	</g>
	<path fill="#F8EB4D" stroke="#000000" stroke-width="6" stroke-miterlimit="10" d="M86.998,94.883H68.836
		c-9.271,0-16.792-7.518-16.792-16.792s7.521-16.794,16.792-16.794h18.162c9.272,0,16.793,7.52,16.793,16.794
		S96.271,94.883,86.998,94.883z"/>
	<g>
		<path fill="#F8EB4D" stroke="#000000" stroke-width="6" stroke-miterlimit="10" d="M52.046,178.162
			c-9.275,0-16.794-5.516-16.794-14.787V16.793C35.252,7.52,42.771,3,52.046,3c9.272,0,16.791,4.52,16.791,13.793v146.582
			C68.837,172.646,61.318,178.162,52.046,178.162z"/>
		
			<ellipse fill="#F8EB4D" stroke="#000000" stroke-width="6" stroke-miterlimit="10" cx="52.046" cy="14.408" rx="16.794" ry="11.408"/>
	</g>
	<g>
		<path fill="#F8EB4D" stroke="#000000" stroke-width="6" stroke-miterlimit="10" d="M37.377,94.883H16.791
			C7.52,94.883,3,87.365,3,78.091s4.52-16.794,13.791-16.794h20.586c9.272,0,14.792,7.52,14.792,16.794S46.649,94.883,37.377,94.883
			z"/>
		
			<ellipse fill="#F8EB4D" stroke="#000000" stroke-width="5.5704" stroke-miterlimit="10" cx="13.59" cy="78.091" rx="10.59" ry="15.59"/>
	</g>
</g>
</svg>
