<svg version="1.1" xmlns="http://www.w3.org/2000/svg" xmlns:xlink="http://www.w3.org/1999/xlink" x="0px" y="0px"
	 width="129.785px" height="203.092px" viewBox="0 0 129.785 203.092" enable-background="new 0 0 129.785 203.092"
	 xml:space="preserve">
<g>
	<path fill="#F8EB4D" stroke="#000000" stroke-width="6" stroke-miterlimit="10" d="M82.368,200.092H24.192
		c-9.275,0-16.792-7.518-16.792-16.791V90.475c0-9.275,7.517-16.793,16.792-16.793H76.78V36.586H19.791
		C10.518,36.586,3,29.066,3,19.793S10.518,3,19.791,3h73.781c9.273,0,16.794,7.52,16.794,16.793v70.682
		c0,9.273-7.521,16.791-16.794,16.791H40.984v59.242h41.384c3.714,0,9.599-7.178,11.566-11.086
		c4.173-8.285,14.267-11.617,22.553-7.443c8.282,4.172,11.615,14.268,7.445,22.551C122.408,173.555,108.295,200.092,82.368,200.092z
		"/>
	<g>
		<path fill="#F8EB4D" d="M12.263,34.525c-4.903,0-9.046-6.747-9.046-14.732c0-7.987,4.143-14.734,9.046-14.734
			c4.904,0,9.047,6.748,9.047,14.734C21.31,27.779,17.167,34.525,12.263,34.525z"/>
		<path d="M12.263,8.059c2.465,0,6.047,4.571,6.047,11.734c0,7.162-3.582,11.732-6.047,11.732c-2.465,0-6.046-4.57-6.046-11.732
			C6.217,12.63,9.798,8.059,12.263,8.059 M12.263,2.059c-6.653,0-12.046,7.939-12.046,17.734s5.393,17.732,12.046,17.732
			c6.655,0,12.047-7.938,12.047-17.732S18.918,2.059,12.263,2.059L12.263,2.059z"/>
	</g>
	<path fill="#F8EB4D" stroke="#000000" stroke-width="6" stroke-miterlimit="10" d="M117.275,148.639
		c-7.891-4.873-16.97-4.477-20.279,0.887c-3.311,5.359,0.405,13.654,8.295,18.525c7.894,4.871,16.974,4.477,20.284-0.885
		C128.885,161.807,125.169,153.51,117.275,148.639z"/>
</g>
</svg>
