<svg version="1.1" xmlns="http://www.w3.org/2000/svg" xmlns:xlink="http://www.w3.org/1999/xlink" x="0px" y="0px"
	 width="214.299px" height="219.59px" viewBox="0 0 214.299 219.59" enable-background="new 0 0 214.299 219.59"
	 xml:space="preserve">
<g>
	<g>
		<path fill="#F8EB4D" stroke="#000000" stroke-width="6" stroke-miterlimit="10" d="M21.636,215.701
			c-3.866,0-7.754-1.328-10.922-4.041c-7.043-6.037-7.854-16.637-1.819-23.678c9.909-11.566,26.539-38.129,26.539-86.099v-82.09
			C35.434,10.52,42.954,3,52.229,3h142.276c9.273,0,16.794,7.52,16.794,16.793c0,9.275-7.521,16.795-16.794,16.795H69.021v65.295
			c0,58.781-21.695,92.867-34.628,107.955C31.074,213.71,26.367,215.701,21.636,215.701z"/>
		<path fill="#F8EB4D" stroke="#000000" stroke-width="6" stroke-miterlimit="10" d="M10.714,211.66
			c7.21,5.838,16.269,6.6,20.232,1.705c3.966-4.896,1.336-13.598-5.873-19.434c-7.204-5.838-16.26-6.602-20.227-1.705
			C0.883,197.121,3.508,205.82,10.714,211.66z"/>
	</g>
	<g>
		<circle cx="207.462" cy="9.584" r="2.208"/>
		<circle cx="199.642" cy="9.584" r="2.094"/>
		<circle cx="191.822" cy="9.584" r="1.979"/>
		<circle cx="184.001" cy="9.584" r="1.866"/>
		<circle cx="176.182" cy="9.584" r="1.752"/>
		<circle cx="168.362" cy="9.584" r="1.639"/>
		<circle cx="160.542" cy="9.584" r="1.525"/>
		<circle cx="152.721" cy="9.584" r="1.41"/>
		<circle cx="144.901" cy="9.584" r="1.297"/>
		<circle cx="137.081" cy="9.584" r="1.183"/>
		<circle cx="129.261" cy="9.584" r="1.069"/>
		<circle cx="121.441" cy="9.584" r="0.955"/>
		<circle cx="113.621" cy="9.584" r="0.841"/>
		<circle cx="105.801" cy="9.584" r="0.728"/>
		<circle cx="97.981" cy="9.584" r="0.614"/>
	</g>
	<g>
		<circle cx="207.462" cy="17.764" r="2.208"/>
		<circle cx="199.642" cy="17.764" r="2.094"/>
		<circle cx="191.822" cy="17.764" r="1.979"/>
		<circle cx="184.001" cy="17.764" r="1.866"/>
		<circle cx="176.182" cy="17.764" r="1.752"/>
		<circle cx="168.362" cy="17.764" r="1.639"/>
		<circle cx="160.542" cy="17.764" r="1.525"/>
		<circle cx="152.721" cy="17.764" r="1.41"/>
		<circle cx="144.901" cy="17.764" r="1.297"/>
		<circle cx="137.081" cy="17.764" r="1.183"/>
		<circle cx="129.261" cy="17.764" r="1.069"/>
		<circle cx="121.441" cy="17.764" r="0.955"/>
		<circle cx="113.621" cy="17.764" r="0.841"/>
		<circle cx="105.801" cy="17.764" r="0.728"/>
		<circle cx="97.981" cy="17.764" r="0.614"/>
	</g>
	<g>
		<circle cx="207.462" cy="25.944" r="2.208"/>
		<circle cx="199.642" cy="25.944" r="2.094"/>
		<circle cx="191.822" cy="25.944" r="1.979"/>
		<circle cx="184.001" cy="25.944" r="1.866"/>
		<circle cx="176.182" cy="25.944" r="1.752"/>
		<circle cx="168.362" cy="25.944" r="1.639"/>
		<circle cx="160.542" cy="25.944" r="1.525"/>
		<circle cx="152.721" cy="25.944" r="1.41"/>
		<circle cx="144.901" cy="25.944" r="1.297"/>
		<circle cx="137.081" cy="25.944" r="1.183"/>
		<circle cx="129.261" cy="25.944" r="1.069"/>
		<circle cx="121.441" cy="25.944" r="0.955"/>
		<circle cx="113.621" cy="25.944" r="0.841"/>
		<circle cx="105.801" cy="25.944" r="0.728"/>
		<circle cx="97.981" cy="25.944" r="0.614"/>
	</g>
	<g>
		<circle cx="199.642" cy="34.125" r="2.094"/>
		<circle cx="191.822" cy="34.125" r="1.979"/>
		<circle cx="184.001" cy="34.125" r="1.866"/>
		<circle cx="176.182" cy="34.125" r="1.752"/>
		<circle cx="168.362" cy="34.125" r="1.639"/>
		<circle cx="160.542" cy="34.125" r="1.525"/>
		<circle cx="152.721" cy="34.125" r="1.41"/>
		<circle cx="144.901" cy="34.125" r="1.297"/>
		<circle cx="137.081" cy="34.125" r="1.183"/>
		<circle cx="129.261" cy="34.125" r="1.069"/>
		<circle cx="121.441" cy="34.125" r="0.955"/>
		<circle cx="113.621" cy="34.125" r="0.841"/>
		<circle cx="105.801" cy="34.125" r="0.728"/>
		<circle cx="97.981" cy="34.125" r="0.614"/>
	</g>
</g>
<g>
	<path fill="#F8EB4D" stroke="#000000" stroke-width="6" stroke-miterlimit="10" d="M90.906,162.064
		c-2.867,0-5.771-0.738-8.429-2.283c-8.017-4.664-9.808-14.941-5.141-22.957c3.42-5.881,3.42-18.033,3.42-26.072
		c0-4.934-0.023-14.219-0.047-22.523H66.431c-9.272,0-14.794-7.518-14.794-16.793c0-9.272,5.521-16.793,14.794-16.793h30.09
		c9.255,0,16.764,7.482,16.795,16.736c0,0,0.099,29.1,0.099,39.373c0,11.648,0,29.25-7.979,42.958
		C102.322,159.074,96.692,162.064,90.906,162.064z"/>
	<circle cx="97.981" cy="58.665" r="0.614"/>
	<circle cx="105.801" cy="66.846" r="0.728"/>
	<circle cx="97.981" cy="66.846" r="0.614"/>
	<circle cx="105.801" cy="75.025" r="0.728"/>
	<circle cx="97.981" cy="75.025" r="0.614"/>
	<circle cx="105.801" cy="83.205" r="0.728"/>
	<circle cx="97.981" cy="83.205" r="0.614"/>
	<circle cx="105.801" cy="91.387" r="0.728"/>
	<circle cx="97.981" cy="91.387" r="0.614"/>
	<circle cx="105.801" cy="99.566" r="0.728"/>
	<circle cx="97.981" cy="99.566" r="0.614"/>
	<circle cx="105.801" cy="107.746" r="0.728"/>
	<circle cx="97.981" cy="107.746" r="0.614"/>
	<circle cx="105.801" cy="115.925" r="0.728"/>
	<circle cx="97.981" cy="115.925" r="0.614"/>
	<circle cx="105.801" cy="124.107" r="0.728"/>
	<circle cx="97.981" cy="124.107" r="0.614"/>
	<circle cx="105.801" cy="132.287" r="0.728"/>
	<circle cx="97.981" cy="132.287" r="0.614"/>
	<circle cx="105.801" cy="140.466" r="0.728"/>
	<circle cx="97.981" cy="140.466" r="0.614"/>
	<path fill="#F8EB4D" stroke="#000000" stroke-width="6" stroke-miterlimit="10" d="M84.433,161.136
		c7.898,3.178,16.05,1.404,18.208-3.959c2.159-5.365-2.492-12.287-10.392-15.463c-7.894-3.18-16.045-1.408-18.204,3.957
		C71.888,151.035,76.537,157.957,84.433,161.136z"/>
</g>
</svg>
