<svg version="1.1" xmlns="http://www.w3.org/2000/svg" xmlns:xlink="http://www.w3.org/1999/xlink" x="0px" y="0px"
	 width="251.887px" height="128.804px" viewBox="0 0 251.887 128.804" enable-background="new 0 0 251.887 128.804"
	 xml:space="preserve">
<path fill="#F8EB4D" stroke="#000000" stroke-width="6" stroke-miterlimit="10" d="M117.393,82.968H20.493
	C10.834,82.968,3,75.134,3,65.475c0-9.66,7.834-17.492,17.493-17.492h96.899c9.66,0,15.489,7.832,15.489,17.492
	C132.882,75.134,127.053,82.968,117.393,82.968z"/>
<g>
	<path fill="#F8EB4D" stroke="#000000" stroke-width="6" stroke-miterlimit="10" d="M125.043,125.804
		c-9.661,0-17.495-7.832-17.495-17.492V20.493c0-9.661,7.834-17.493,17.495-17.493c9.66,0,17.492,7.832,17.492,17.493v87.819
		C142.535,117.972,134.703,125.804,125.043,125.804z"/>
	<g>
		<g>
			<circle cx="136.562" cy="6.185" r="1.069"/>
			<circle cx="128.742" cy="6.185" r="0.955"/>
			<circle cx="120.922" cy="6.185" r="0.841"/>
			<circle cx="113.102" cy="6.185" r="0.728"/>
		</g>
		<g>
			<circle cx="136.562" cy="14.365" r="1.069"/>
			<circle cx="128.742" cy="14.365" r="0.955"/>
			<circle cx="120.922" cy="14.365" r="0.841"/>
			<circle cx="113.102" cy="14.365" r="0.728"/>
		</g>
		<g>
			<circle cx="136.562" cy="22.545" r="1.069"/>
			<circle cx="128.742" cy="22.545" r="0.955"/>
			<circle cx="120.922" cy="22.545" r="0.841"/>
			<circle cx="113.102" cy="22.545" r="0.728"/>
		</g>
		<g>
			<circle cx="136.562" cy="30.725" r="1.069"/>
			<circle cx="128.742" cy="30.725" r="0.955"/>
			<circle cx="120.922" cy="30.725" r="0.841"/>
			<circle cx="113.102" cy="30.725" r="0.728"/>
		</g>
		<g>
			<circle cx="136.562" cy="38.905" r="1.069"/>
			<circle cx="128.742" cy="38.905" r="0.955"/>
			<circle cx="120.922" cy="38.905" r="0.841"/>
			<circle cx="113.102" cy="38.905" r="0.728"/>
		</g>
		<g>
			<circle cx="136.562" cy="47.086" r="1.069"/>
			<circle cx="128.742" cy="47.086" r="0.955"/>
			<circle cx="120.922" cy="47.086" r="0.841"/>
			<circle cx="113.102" cy="47.086" r="0.728"/>
		</g>
		<circle cx="136.562" cy="55.266" r="1.069"/>
		<circle cx="128.742" cy="55.266" r="0.955"/>
		<circle cx="120.922" cy="55.266" r="0.841"/>
		<circle cx="113.102" cy="55.266" r="0.728"/>
		<g>
			<circle cx="136.562" cy="63.445" r="1.069"/>
			<circle cx="120.922" cy="63.445" r="0.841"/>
			<circle cx="113.102" cy="63.445" r="0.728"/>
		</g>
		<g>
			<circle cx="136.562" cy="71.626" r="1.069"/>
			<circle cx="120.922" cy="71.626" r="0.841"/>
			<circle cx="113.102" cy="71.626" r="0.728"/>
		</g>
		<g>
			<circle cx="136.562" cy="79.806" r="1.069"/>
			<circle cx="128.742" cy="79.806" r="0.955"/>
			<circle cx="120.922" cy="79.806" r="0.841"/>
			<circle cx="113.102" cy="79.806" r="0.728"/>
		</g>
		<g>
			<g>
				<circle cx="136.562" cy="87.986" r="1.069"/>
				<circle cx="128.742" cy="87.986" r="0.955"/>
				<circle cx="120.922" cy="87.986" r="0.841"/>
				<circle cx="113.102" cy="87.986" r="0.728"/>
			</g>
			<g>
				<circle cx="136.562" cy="96.166" r="1.069"/>
				<circle cx="128.742" cy="96.166" r="0.955"/>
				<circle cx="120.922" cy="96.166" r="0.841"/>
				<circle cx="113.102" cy="96.166" r="0.728"/>
			</g>
		</g>
		<g>
			<circle cx="136.562" cy="112.527" r="1.069"/>
			<circle cx="128.742" cy="112.527" r="0.955"/>
			<circle cx="120.922" cy="112.527" r="0.841"/>
			<circle cx="113.102" cy="112.527" r="0.728"/>
		</g>
		<g>
			<circle cx="136.562" cy="120.707" r="1.069"/>
			<circle cx="128.742" cy="120.707" r="0.955"/>
			<circle cx="120.922" cy="120.707" r="0.841"/>
			<circle cx="113.102" cy="120.707" r="0.728"/>
		</g>
		<circle cx="120.922" cy="63.445" r="0.841"/>
		<circle cx="120.922" cy="71.626" r="0.841"/>
		<circle cx="128.742" cy="63.445" r="0.842"/>
		<circle cx="128.742" cy="71.626" r="0.842"/>
		<circle cx="128.742" cy="63.445" r="0.842"/>
		<circle cx="128.742" cy="71.626" r="0.842"/>
		<g>
			<g>
				<circle cx="136.562" cy="104.345" r="1.069"/>
				<circle cx="128.742" cy="104.345" r="0.955"/>
				<circle cx="120.922" cy="104.345" r="0.841"/>
				<circle cx="113.102" cy="104.345" r="0.728"/>
			</g>
		</g>
	</g>
</g>
<g>
	<g>
		<path fill="#F8EB4D" stroke="#000000" stroke-width="6" stroke-miterlimit="10" d="M234.397,82.968H143.63
			c-9.659,0-15.489-7.834-15.489-17.494c0-9.66,5.83-17.492,15.489-17.492h90.768c9.66,0,14.489,7.832,14.489,17.492
			C248.887,75.134,244.058,82.968,234.397,82.968z"/>
		
			<ellipse fill="#F8EB4D" stroke="#000000" stroke-width="6" stroke-miterlimit="10" cx="237.479" cy="65.475" rx="11.408" ry="16.792"/>
	</g>
	<g>
		<g>
			<circle cx="222.583" cy="55.266" r="2.321"/>
			<circle cx="214.764" cy="55.266" r="2.208"/>
			<circle cx="206.943" cy="55.266" r="2.094"/>
			<circle cx="199.123" cy="55.266" r="1.979"/>
			<circle cx="191.303" cy="55.266" r="1.866"/>
			<circle cx="183.483" cy="55.266" r="1.752"/>
			<circle cx="175.663" cy="55.266" r="1.639"/>
			<circle cx="167.843" cy="55.266" r="1.525"/>
			<circle cx="160.022" cy="55.266" r="1.41"/>
			<circle cx="152.202" cy="55.266" r="1.297"/>
			<circle cx="144.382" cy="55.266" r="1.183"/>
			<circle cx="136.562" cy="55.266" r="1.069"/>
		</g>
		<g>
			<circle cx="222.583" cy="63.445" r="2.321"/>
			<circle cx="214.764" cy="63.445" r="2.208"/>
			<circle cx="206.943" cy="63.445" r="2.094"/>
			<circle cx="199.123" cy="63.445" r="1.979"/>
			<circle cx="191.303" cy="63.445" r="1.866"/>
			<circle cx="183.483" cy="63.445" r="1.752"/>
			<circle cx="175.663" cy="63.445" r="1.639"/>
			<circle cx="167.843" cy="63.445" r="1.525"/>
			<circle cx="160.022" cy="63.445" r="1.41"/>
			<circle cx="152.202" cy="63.445" r="1.297"/>
			<circle cx="144.382" cy="63.445" r="1.183"/>
			<circle cx="136.562" cy="63.445" r="1.069"/>
		</g>
		<g>
			<circle cx="222.583" cy="71.626" r="2.321"/>
			<circle cx="214.764" cy="71.626" r="2.208"/>
			<circle cx="206.943" cy="71.626" r="2.094"/>
			<circle cx="199.123" cy="71.626" r="1.979"/>
			<circle cx="191.303" cy="71.626" r="1.866"/>
			<circle cx="183.483" cy="71.626" r="1.752"/>
			<circle cx="175.663" cy="71.626" r="1.639"/>
			<circle cx="167.843" cy="71.626" r="1.525"/>
			<circle cx="160.022" cy="71.626" r="1.41"/>
			<circle cx="152.202" cy="71.626" r="1.297"/>
			<circle cx="144.382" cy="71.626" r="1.183"/>
			<circle cx="136.562" cy="71.626" r="1.069"/>
		</g>
		<g>
			<circle cx="222.583" cy="79.806" r="2.321"/>
			<circle cx="214.764" cy="79.806" r="2.208"/>
			<circle cx="206.943" cy="79.806" r="2.094"/>
			<circle cx="199.123" cy="79.806" r="1.979"/>
			<circle cx="191.303" cy="79.806" r="1.866"/>
			<circle cx="183.483" cy="79.806" r="1.752"/>
			<circle cx="175.663" cy="79.806" r="1.639"/>
			<circle cx="167.843" cy="79.806" r="1.525"/>
			<circle cx="160.022" cy="79.806" r="1.41"/>
			<circle cx="152.202" cy="79.806" r="1.297"/>
			<circle cx="144.382" cy="79.806" r="1.183"/>
		</g>
	</g>
</g>
</svg>
