<svg version="1.1" xmlns="http://www.w3.org/2000/svg" xmlns:xlink="http://www.w3.org/1999/xlink" x="0px" y="0px"
	 width="144.672px" height="81.344px" viewBox="0 0 144.672 81.344" enable-background="new 0 0 144.672 81.344"
	 xml:space="preserve">
<g>
	<path fill="#F8EB4D" stroke="#000000" stroke-width="6" stroke-linejoin="round" stroke-miterlimit="10" d="M124.879,3H19.793
		C10.52,3,3,10.52,3,19.795v41.756c0,9.273,7.52,16.793,16.793,16.793h105.086c9.275,0,16.793-7.52,16.793-16.793V19.795
		C141.672,10.52,134.154,3,124.879,3z M108.087,47.076H36.586V34.268h71.501V47.076z"/>
	<g>
		<circle cx="138.065" cy="11.238" r="2.321"/>
		<circle cx="130.246" cy="11.238" r="2.208"/>
		<circle cx="122.425" cy="11.238" r="2.094"/>
		<circle cx="114.605" cy="11.238" r="1.979"/>
		<circle cx="106.785" cy="11.238" r="1.866"/>
		<circle cx="98.965" cy="11.238" r="1.752"/>
		<circle cx="91.146" cy="11.238" r="1.639"/>
		<circle cx="83.325" cy="11.238" r="1.525"/>
		<circle cx="75.505" cy="11.238" r="1.41"/>
		<circle cx="67.685" cy="11.238" r="1.297"/>
		<circle cx="59.865" cy="11.238" r="1.183"/>
		<circle cx="52.045" cy="11.238" r="1.069"/>
		<circle cx="44.225" cy="11.238" r="0.955"/>
		<circle cx="36.405" cy="11.238" r="0.841"/>
		<circle cx="28.584" cy="11.238" r="0.728"/>
		<circle cx="20.765" cy="11.238" r="0.614"/>
	</g>
	<g>
		<circle cx="138.065" cy="19.418" r="2.321"/>
		<circle cx="130.246" cy="19.418" r="2.208"/>
		<circle cx="122.425" cy="19.418" r="2.094"/>
		<circle cx="114.605" cy="19.418" r="1.979"/>
		<circle cx="106.785" cy="19.418" r="1.866"/>
		<circle cx="98.965" cy="19.418" r="1.752"/>
		<circle cx="91.146" cy="19.418" r="1.639"/>
		<circle cx="83.325" cy="19.418" r="1.525"/>
		<circle cx="75.505" cy="19.418" r="1.41"/>
		<circle cx="67.685" cy="19.418" r="1.297"/>
		<circle cx="59.865" cy="19.418" r="1.183"/>
		<circle cx="52.045" cy="19.418" r="1.069"/>
		<circle cx="44.225" cy="19.418" r="0.955"/>
		<circle cx="36.405" cy="19.418" r="0.841"/>
		<circle cx="28.584" cy="19.418" r="0.728"/>
		<circle cx="20.765" cy="19.418" r="0.614"/>
	</g>
	<g>
		<circle cx="138.065" cy="27.598" r="2.321"/>
		<circle cx="130.246" cy="27.598" r="2.208"/>
		<circle cx="122.425" cy="27.598" r="2.094"/>
		<circle cx="114.605" cy="27.598" r="1.979"/>
		<circle cx="106.785" cy="27.598" r="1.866"/>
		<circle cx="98.965" cy="27.598" r="1.752"/>
		<circle cx="91.146" cy="27.598" r="1.639"/>
		<circle cx="83.325" cy="27.598" r="1.525"/>
		<circle cx="75.505" cy="27.598" r="1.41"/>
		<circle cx="67.685" cy="27.598" r="1.297"/>
		<circle cx="59.865" cy="27.598" r="1.183"/>
		<circle cx="52.045" cy="27.598" r="1.069"/>
		<circle cx="44.225" cy="27.598" r="0.955"/>
		<circle cx="36.405" cy="27.598" r="0.841"/>
		<circle cx="28.584" cy="27.598" r="0.728"/>
		<circle cx="20.765" cy="27.598" r="0.614"/>
	</g>
	<g>
		<circle cx="138.065" cy="35.777" r="2.321"/>
		<circle cx="130.246" cy="35.777" r="2.208"/>
		<circle cx="122.425" cy="35.777" r="2.094"/>
		<path d="M116.585,35.777c0,1.094-0.886,1.982-1.979,1.982c-1.095,0-1.979-0.889-1.979-1.982c0-1.092,0.885-1.98,1.979-1.98
			C115.699,33.797,116.585,34.686,116.585,35.777z"/>
		<circle cx="28.584" cy="35.777" r="0.728"/>
		<circle cx="20.765" cy="35.777" r="0.614"/>
	</g>
	<g>
		<circle cx="138.065" cy="43.959" r="2.321"/>
		<circle cx="130.246" cy="43.959" r="2.208"/>
		<circle cx="122.425" cy="43.959" r="2.094"/>
		<circle cx="114.605" cy="43.959" r="1.979"/>
		<path d="M29.312,43.959c0,0.4-0.327,0.727-0.728,0.727c-0.403,0-0.729-0.326-0.729-0.727c0-0.404,0.325-0.729,0.729-0.729
			C28.985,43.23,29.312,43.555,29.312,43.959z"/>
		<circle cx="20.765" cy="43.959" r="0.614"/>
	</g>
	<g>
		<circle cx="138.065" cy="52.139" r="2.321"/>
		<circle cx="130.246" cy="52.139" r="2.208"/>
		<circle cx="122.425" cy="52.139" r="2.094"/>
		<circle cx="114.605" cy="52.139" r="1.979"/>
		<circle cx="106.785" cy="52.139" r="1.866"/>
		<circle cx="98.965" cy="52.139" r="1.752"/>
		<circle cx="91.146" cy="52.139" r="1.639"/>
		<circle cx="83.325" cy="52.139" r="1.525"/>
		<circle cx="75.505" cy="52.139" r="1.41"/>
		<circle cx="67.685" cy="52.139" r="1.297"/>
		<circle cx="59.865" cy="52.139" r="1.183"/>
		<circle cx="52.045" cy="52.139" r="1.069"/>
		<circle cx="44.225" cy="52.139" r="0.955"/>
		<circle cx="36.405" cy="52.139" r="0.841"/>
		<circle cx="28.584" cy="52.139" r="0.728"/>
		<circle cx="20.765" cy="52.139" r="0.614"/>
	</g>
	<g>
		<circle cx="138.065" cy="60.318" r="2.321"/>
		<circle cx="130.246" cy="60.318" r="2.208"/>
		<circle cx="122.425" cy="60.318" r="2.094"/>
		<circle cx="114.605" cy="60.318" r="1.979"/>
		<circle cx="106.785" cy="60.318" r="1.866"/>
		<circle cx="98.965" cy="60.318" r="1.752"/>
		<circle cx="91.146" cy="60.318" r="1.639"/>
		<circle cx="83.325" cy="60.318" r="1.525"/>
		<circle cx="75.505" cy="60.318" r="1.41"/>
		<circle cx="67.685" cy="60.318" r="1.297"/>
		<circle cx="59.865" cy="60.318" r="1.183"/>
		<circle cx="52.045" cy="60.318" r="1.069"/>
		<circle cx="44.225" cy="60.318" r="0.955"/>
		<circle cx="36.405" cy="60.318" r="0.841"/>
		<circle cx="28.584" cy="60.318" r="0.728"/>
		<circle cx="20.765" cy="60.318" r="0.614"/>
	</g>
	<g>
		<circle cx="138.065" cy="68.498" r="2.321"/>
		<circle cx="130.246" cy="68.498" r="2.208"/>
		<circle cx="122.425" cy="68.498" r="2.094"/>
		<circle cx="114.605" cy="68.498" r="1.979"/>
		<circle cx="106.785" cy="68.498" r="1.866"/>
		<circle cx="98.965" cy="68.498" r="1.752"/>
		<circle cx="91.146" cy="68.498" r="1.639"/>
		<circle cx="83.325" cy="68.498" r="1.525"/>
		<circle cx="75.505" cy="68.498" r="1.41"/>
		<circle cx="67.685" cy="68.498" r="1.297"/>
		<circle cx="59.865" cy="68.498" r="1.183"/>
		<circle cx="52.045" cy="68.498" r="1.069"/>
		<circle cx="44.225" cy="68.498" r="0.955"/>
		<circle cx="36.405" cy="68.498" r="0.841"/>
		<circle cx="28.584" cy="68.498" r="0.728"/>
		<circle cx="20.765" cy="68.498" r="0.614"/>
	</g>
	<g>
		<circle cx="122.425" cy="76.68" r="2.094"/>
		<circle cx="114.605" cy="76.68" r="1.979"/>
		<circle cx="106.785" cy="76.68" r="1.866"/>
		<circle cx="98.965" cy="76.68" r="1.752"/>
		<circle cx="91.146" cy="76.68" r="1.639"/>
		<circle cx="83.325" cy="76.68" r="1.525"/>
		<circle cx="75.505" cy="76.68" r="1.41"/>
	</g>
</g>
</svg>
