<svg version="1.1" xmlns="http://www.w3.org/2000/svg" xmlns:xlink="http://www.w3.org/1999/xlink" x="0px" y="0px"
	 width="188.382px" height="263.912px" viewBox="0 0 188.382 263.912" enable-background="new 0 0 188.382 263.912"
	 xml:space="preserve">
<g>
	<g>
		<path fill="#F8EB4D" stroke="#000000" stroke-width="6" stroke-miterlimit="10" d="M176.138,229.117
			c-62.194-31.311-85.673-106.234-89.741-145.57c-0.422-4.061-2.258-7.629-4.965-10.273C87.92,57.611,93.319,40.566,96.486,22.73
			c1.62-9.135-4.468-17.848-13.601-19.471c-9.135-1.615-17.847,4.467-19.47,13.6C54.387,67.707,23.65,112.219,8.654,128.658
			c-6.254,6.848-5.768,17.469,1.087,23.721c3.218,2.939,7.272,4.387,11.313,4.387c4.557,0,9.096-1.844,12.409-5.475
			c6.851-7.51,15.833-19.072,24.955-33.6c3.878,15.988,10.267,35.807,20.779,56.475c19.847,39.021,47.38,67.604,81.836,84.951
			c2.423,1.217,4.999,1.795,7.536,1.795c6.146,0,12.062-3.381,15.017-9.244C187.754,243.383,184.419,233.287,176.138,229.117z"/>
		<g>
			<circle cx="84.685" cy="8.379" r="0.728"/>
			<circle cx="76.865" cy="8.379" r="0.614"/>
		</g>
		<g>
			<circle cx="92.505" cy="16.561" r="0.841"/>
			<circle cx="84.685" cy="16.561" r="0.728"/>
			<circle cx="76.865" cy="16.561" r="0.614"/>
		</g>
		<g>
			<circle cx="92.505" cy="24.74" r="0.841"/>
			<circle cx="84.685" cy="24.74" r="0.728"/>
			<circle cx="76.865" cy="24.74" r="0.614"/>
		</g>
		<g>
			<circle cx="84.685" cy="32.92" r="0.728"/>
			<circle cx="76.865" cy="32.92" r="0.614"/>
		</g>
		<circle cx="84.685" cy="41.1" r="0.728"/>
		<circle cx="76.865" cy="41.1" r="0.614"/>
		<path d="M85.413,49.281c0,0.4-0.327,0.727-0.728,0.727c-0.403,0-0.729-0.326-0.729-0.727c0-0.404,0.325-0.729,0.729-0.729
			C85.085,48.553,85.413,48.877,85.413,49.281z"/>
		<circle cx="76.865" cy="49.281" r="0.614"/>
		<circle cx="84.685" cy="57.461" r="0.728"/>
		<circle cx="76.865" cy="57.461" r="0.614"/>
		<circle cx="84.685" cy="65.641" r="0.728"/>
		<circle cx="76.865" cy="65.641" r="0.614"/>
		<circle cx="84.685" cy="73.82" r="0.728"/>
		<circle cx="76.865" cy="73.82" r="0.614"/>
		<path d="M85.413,82.002c0,0.4-0.327,0.727-0.728,0.727c-0.403,0-0.729-0.326-0.729-0.727c0-0.404,0.325-0.729,0.729-0.729
			C85.085,81.273,85.413,81.598,85.413,82.002z"/>
		<circle cx="76.865" cy="82.002" r="0.614"/>
		<circle cx="84.685" cy="90.182" r="0.728"/>
		<circle cx="76.865" cy="90.182" r="0.614"/>
		<circle cx="84.685" cy="98.361" r="0.728"/>
		<circle cx="76.865" cy="98.361" r="0.614"/>
		<circle cx="84.685" cy="106.541" r="0.728"/>
		<circle cx="76.865" cy="106.541" r="0.614"/>
		<circle cx="84.685" cy="114.723" r="0.728"/>
		<circle cx="76.865" cy="114.723" r="0.614"/>
		<circle cx="84.685" cy="122.902" r="0.728"/>
		<circle cx="76.865" cy="122.902" r="0.614"/>
		<circle cx="92.505" cy="131.082" r="0.841"/>
		<circle cx="84.685" cy="131.082" r="0.728"/>
		<circle cx="76.865" cy="131.082" r="0.614"/>
		<circle cx="92.505" cy="139.262" r="0.841"/>
		<circle cx="84.685" cy="139.262" r="0.728"/>
		<circle cx="76.865" cy="139.262" r="0.614"/>
		<circle cx="100.325" cy="147.443" r="0.955"/>
		<circle cx="92.505" cy="147.443" r="0.841"/>
		<circle cx="84.685" cy="147.443" r="0.728"/>
		<circle cx="76.865" cy="147.443" r="0.614"/>
		<circle cx="100.325" cy="155.623" r="0.955"/>
		<circle cx="92.505" cy="155.623" r="0.841"/>
		<circle cx="84.685" cy="155.623" r="0.728"/>
		<circle cx="76.865" cy="155.623" r="0.614"/>
		<g>
			<circle cx="108.145" cy="163.803" r="1.069"/>
			<circle cx="100.325" cy="163.803" r="0.955"/>
			<circle cx="92.505" cy="163.803" r="0.841"/>
			<circle cx="84.685" cy="163.803" r="0.728"/>
		</g>
		<g>
			<circle cx="108.145" cy="171.982" r="1.069"/>
			<circle cx="92.505" cy="171.982" r="0.841"/>
			<circle cx="84.685" cy="171.982" r="0.728"/>
		</g>
		<g>
			<circle cx="115.965" cy="180.164" r="1.183"/>
			<circle cx="108.145" cy="180.164" r="1.069"/>
			<circle cx="100.325" cy="180.164" r="0.955"/>
		</g>
		<g>
			<circle cx="123.785" cy="188.344" r="1.297"/>
			<circle cx="115.965" cy="188.344" r="1.183"/>
			<circle cx="108.145" cy="188.344" r="1.069"/>
			<circle cx="100.325" cy="188.344" r="0.955"/>
			<circle cx="92.505" cy="188.344" r="0.841"/>
		</g>
		<circle cx="131.605" cy="196.523" r="1.41"/>
		<circle cx="123.785" cy="196.523" r="1.297"/>
		<circle cx="115.965" cy="196.523" r="1.183"/>
		<circle cx="108.145" cy="196.523" r="1.069"/>
		<circle cx="100.325" cy="196.523" r="0.955"/>
		<circle cx="139.425" cy="204.703" r="1.525"/>
		<circle cx="131.605" cy="204.703" r="1.41"/>
		<circle cx="123.785" cy="204.703" r="1.297"/>
		<circle cx="108.145" cy="204.703" r="1.069"/>
		<circle cx="147.246" cy="212.885" r="1.639"/>
		<circle cx="139.425" cy="212.885" r="1.525"/>
		<circle cx="131.605" cy="212.885" r="1.41"/>
		<circle cx="123.785" cy="212.885" r="1.297"/>
		<circle cx="115.965" cy="212.885" r="1.183"/>
		<circle cx="155.065" cy="221.064" r="1.752"/>
		<circle cx="147.246" cy="221.064" r="1.639"/>
		<circle cx="139.425" cy="221.064" r="1.525"/>
		<circle cx="131.605" cy="221.064" r="1.41"/>
		<circle cx="123.785" cy="221.064" r="1.297"/>
		<circle cx="115.965" cy="221.064" r="1.183"/>
		<circle cx="170.706" cy="229.244" r="1.979"/>
		<circle cx="162.885" cy="229.244" r="1.866"/>
		<circle cx="155.065" cy="229.244" r="1.752"/>
		<circle cx="147.246" cy="229.244" r="1.639"/>
		<circle cx="139.425" cy="229.244" r="1.525"/>
		<circle cx="131.605" cy="229.244" r="1.41"/>
		<circle cx="123.785" cy="229.244" r="1.297"/>
		<circle cx="178.525" cy="237.424" r="2.094"/>
		<path d="M172.685,237.424c0,1.094-0.886,1.982-1.979,1.982c-1.095,0-1.979-0.889-1.979-1.982c0-1.092,0.885-1.98,1.979-1.98
			C171.799,235.443,172.685,236.332,172.685,237.424z"/>
		<circle cx="162.885" cy="237.424" r="1.866"/>
		<circle cx="155.065" cy="237.424" r="1.752"/>
		<circle cx="147.246" cy="237.424" r="1.639"/>
		<circle cx="139.425" cy="237.424" r="1.525"/>
		<circle cx="131.605" cy="237.424" r="1.41"/>
		<g>
			<circle cx="178.525" cy="245.605" r="2.094"/>
			<circle cx="170.706" cy="245.605" r="1.979"/>
			<circle cx="162.885" cy="245.605" r="1.866"/>
			<circle cx="155.065" cy="245.605" r="1.752"/>
			<circle cx="147.246" cy="245.605" r="1.639"/>
		</g>
		<g>
			<circle cx="178.525" cy="253.785" r="2.094"/>
			<circle cx="170.706" cy="253.785" r="1.979"/>
			<circle cx="162.885" cy="253.785" r="1.866"/>
			<circle cx="155.065" cy="253.785" r="1.752"/>
		</g>
	</g>
	<path fill="#F8EB4D" stroke="#000000" stroke-width="5.8451" stroke-miterlimit="10" d="M8.643,151.58
		c6.186,6.588,14.828,8.52,19.303,4.316c4.474-4.203,3.086-12.945-3.102-19.531c-6.182-6.586-14.824-8.518-19.298-4.318
		C1.073,136.25,2.458,144.992,8.643,151.58z"/>
</g>
</svg>
