<svg version="1.1" xmlns="http://www.w3.org/2000/svg" xmlns:xlink="http://www.w3.org/1999/xlink" x="0px" y="0px"
	 width="40.987px" height="139.902px" viewBox="0 0 40.987 139.902" enable-background="new 0 0 40.987 139.902"
	 xml:space="preserve">
<g>
	<g>
		<path fill="#F8EB4D" stroke="#000000" stroke-width="6" stroke-miterlimit="10" d="M20.495,136.902
			c-9.661,0-17.495-4.83-17.495-14.488V18.492C3,8.832,10.834,3,20.495,3c9.66,0,17.492,5.832,17.492,15.492v103.921
			C37.987,132.072,30.155,136.902,20.495,136.902z"/>
		
			<ellipse fill="#F8EB4D" stroke="#000000" stroke-width="6" stroke-miterlimit="10" cx="20.495" cy="125.495" rx="16.794" ry="11.407"/>
	</g>
	<g>
		<g>
			<circle cx="32.015" cy="6.785" r="1.069"/>
			<circle cx="24.194" cy="6.785" r="0.955"/>
			<circle cx="16.375" cy="6.785" r="0.841"/>
			<circle cx="8.554" cy="6.785" r="0.728"/>
		</g>
		<g>
			<circle cx="32.015" cy="14.967" r="1.069"/>
			<circle cx="24.194" cy="14.967" r="0.955"/>
			<circle cx="16.375" cy="14.967" r="0.841"/>
			<circle cx="8.554" cy="14.967" r="0.728"/>
		</g>
		<g>
			<circle cx="32.015" cy="23.146" r="1.069"/>
			<circle cx="24.194" cy="23.146" r="0.955"/>
			<circle cx="16.375" cy="23.146" r="0.841"/>
			<circle cx="8.554" cy="23.146" r="0.728"/>
		</g>
		<g>
			<circle cx="32.015" cy="31.326" r="1.069"/>
			<circle cx="24.194" cy="31.326" r="0.955"/>
			<circle cx="16.375" cy="31.326" r="0.841"/>
			<circle cx="8.554" cy="31.326" r="0.728"/>
		</g>
		<g>
			<circle cx="32.015" cy="39.506" r="1.069"/>
			<circle cx="24.194" cy="39.506" r="0.955"/>
			<circle cx="16.375" cy="39.506" r="0.841"/>
			<circle cx="8.554" cy="39.506" r="0.728"/>
		</g>
		<g>
			<circle cx="32.015" cy="47.688" r="1.069"/>
			<circle cx="24.194" cy="47.688" r="0.955"/>
			<circle cx="16.375" cy="47.688" r="0.841"/>
			<path d="M9.282,47.688c0,0.4-0.327,0.727-0.728,0.727c-0.403,0-0.729-0.326-0.729-0.727c0-0.404,0.325-0.729,0.729-0.729
				C8.955,46.959,9.282,47.283,9.282,47.688z"/>
		</g>
		<circle cx="32.015" cy="55.867" r="1.069"/>
		<circle cx="24.194" cy="55.867" r="0.955"/>
		<circle cx="16.375" cy="55.867" r="0.841"/>
		<circle cx="8.554" cy="55.867" r="0.728"/>
		<g>
			<circle cx="32.015" cy="64.047" r="1.069"/>
			<circle cx="16.375" cy="64.047" r="0.841"/>
			<circle cx="8.554" cy="64.047" r="0.728"/>
		</g>
		<g>
			<circle cx="32.015" cy="72.226" r="1.069"/>
			<circle cx="16.375" cy="72.226" r="0.841"/>
			<circle cx="8.554" cy="72.226" r="0.728"/>
		</g>
		<g>
			<circle cx="32.015" cy="80.408" r="1.069"/>
			<circle cx="24.194" cy="80.408" r="0.955"/>
			<circle cx="16.375" cy="80.408" r="0.841"/>
			<path d="M9.282,80.408c0,0.4-0.327,0.727-0.728,0.727c-0.403,0-0.729-0.326-0.729-0.727c0-0.404,0.325-0.729,0.729-0.729
				C8.955,79.679,9.282,80.003,9.282,80.408z"/>
		</g>
		<g>
			<g>
				<circle cx="32.015" cy="88.587" r="1.069"/>
				<circle cx="24.194" cy="88.587" r="0.955"/>
				<circle cx="16.375" cy="88.587" r="0.841"/>
				<circle cx="8.554" cy="88.587" r="0.728"/>
			</g>
			<g>
				<circle cx="32.015" cy="96.767" r="1.069"/>
				<circle cx="24.194" cy="96.767" r="0.955"/>
				<circle cx="16.375" cy="96.767" r="0.841"/>
				<circle cx="8.554" cy="96.767" r="0.728"/>
			</g>
		</g>
		<g>
			<circle cx="32.015" cy="113.128" r="1.069"/>
			<circle cx="24.194" cy="113.128" r="0.955"/>
			<circle cx="16.375" cy="113.128" r="0.841"/>
			<circle cx="8.554" cy="113.128" r="0.728"/>
		</g>
		<circle cx="16.375" cy="64.047" r="0.841"/>
		<circle cx="16.375" cy="72.226" r="0.841"/>
		<circle cx="24.194" cy="64.047" r="0.842"/>
		<circle cx="24.194" cy="72.226" r="0.842"/>
		<circle cx="24.194" cy="64.047" r="0.842"/>
		<circle cx="24.194" cy="72.226" r="0.842"/>
		<g>
			<g>
				<circle cx="32.015" cy="104.947" r="1.069"/>
				<circle cx="24.194" cy="104.947" r="0.955"/>
				<circle cx="16.375" cy="104.947" r="0.841"/>
				<circle cx="8.554" cy="104.947" r="0.728"/>
			</g>
		</g>
	</g>
</g>
</svg>
