<svg version="1.1" xmlns="http://www.w3.org/2000/svg" xmlns:xlink="http://www.w3.org/1999/xlink" x="0px" y="0px"
	 width="216.873px" height="130.905px" viewBox="0 0 216.873 130.905" enable-background="new 0 0 216.873 130.905"
	 xml:space="preserve">
<g>
	<g>
		<path fill="#F8EB4D" stroke="#000000" stroke-width="6" stroke-miterlimit="10" d="M196.38,3H20.494C10.834,3,3,10.833,3,20.493
			v89.919c0,9.662,7.834,17.492,17.494,17.492s17.492-7.83,17.492-17.492V37.987h140.901v53.179
			c-5.015-0.262-11.575-0.773-18.345-1.305l-0.139-0.01c-9.651-0.764-18.052,6.445-18.805,16.078
			c-0.752,9.631,6.446,18.049,16.079,18.801l0.143,0.012c11.125,0.869,19.562,1.527,26.248,1.527
			c10.618,0,16.816-1.662,22.354-6.785c7.449-6.889,7.449-15.939,7.449-18.914V20.493C213.873,10.833,206.04,3,196.38,3z"/>
		<path fill="#F8EB4D" stroke="#000000" stroke-width="6" stroke-miterlimit="10" d="M141.558,105.512
			c-0.737,9.246,3.758,17.145,10.037,17.646c6.284,0.502,11.97-6.588,12.705-15.834c0.738-9.244-3.755-17.143-10.034-17.646
			C147.985,89.18,142.296,96.266,141.558,105.512z"/>
	</g>
	<g>
		<g>
			<circle cx="205.978" cy="10.3" r="2.321"/>
			<circle cx="198.158" cy="10.3" r="2.208"/>
			<circle cx="190.337" cy="10.3" r="2.094"/>
			<circle cx="182.518" cy="10.3" r="1.979"/>
			<circle cx="174.697" cy="10.3" r="1.866"/>
			<circle cx="166.877" cy="10.3" r="1.752"/>
			<circle cx="159.058" cy="10.3" r="1.639"/>
			<circle cx="151.237" cy="10.3" r="1.525"/>
			<circle cx="143.417" cy="10.3" r="1.41"/>
			<circle cx="135.597" cy="10.3" r="1.297"/>
			<circle cx="127.777" cy="10.3" r="1.183"/>
			<circle cx="119.957" cy="10.3" r="1.069"/>
			<circle cx="112.137" cy="10.3" r="0.955"/>
			<circle cx="104.317" cy="10.3" r="0.841"/>
			<circle cx="96.497" cy="10.3" r="0.728"/>
			<circle cx="88.677" cy="10.3" r="0.614"/>
		</g>
		<g>
			<circle cx="205.978" cy="18.479" r="2.321"/>
			<circle cx="198.158" cy="18.479" r="2.208"/>
			<circle cx="190.337" cy="18.479" r="2.094"/>
			<circle cx="182.518" cy="18.479" r="1.979"/>
			<circle cx="174.697" cy="18.479" r="1.866"/>
			<circle cx="166.877" cy="18.479" r="1.752"/>
			<circle cx="159.058" cy="18.479" r="1.639"/>
			<circle cx="151.237" cy="18.479" r="1.525"/>
			<circle cx="143.417" cy="18.479" r="1.41"/>
			<circle cx="135.597" cy="18.479" r="1.297"/>
			<circle cx="127.777" cy="18.479" r="1.183"/>
			<circle cx="119.957" cy="18.479" r="1.069"/>
			<circle cx="112.137" cy="18.479" r="0.955"/>
			<circle cx="104.317" cy="18.479" r="0.841"/>
			<circle cx="96.497" cy="18.479" r="0.728"/>
			<circle cx="88.677" cy="18.479" r="0.614"/>
		</g>
		<g>
			<circle cx="205.978" cy="26.659" r="2.321"/>
			<circle cx="198.158" cy="26.659" r="2.208"/>
			<circle cx="190.337" cy="26.659" r="2.094"/>
			<circle cx="182.518" cy="26.659" r="1.979"/>
			<circle cx="174.697" cy="26.659" r="1.866"/>
			<circle cx="166.877" cy="26.659" r="1.752"/>
			<circle cx="159.058" cy="26.659" r="1.639"/>
			<circle cx="151.237" cy="26.659" r="1.525"/>
			<circle cx="143.417" cy="26.659" r="1.41"/>
			<circle cx="135.597" cy="26.659" r="1.297"/>
			<circle cx="127.777" cy="26.659" r="1.183"/>
			<circle cx="119.957" cy="26.659" r="1.069"/>
			<circle cx="112.137" cy="26.659" r="0.955"/>
			<circle cx="104.317" cy="26.659" r="0.841"/>
			<circle cx="96.497" cy="26.659" r="0.728"/>
			<circle cx="88.677" cy="26.659" r="0.614"/>
		</g>
		<g>
			<circle cx="205.978" cy="34.841" r="2.321"/>
			<circle cx="198.158" cy="34.841" r="2.208"/>
			<circle cx="190.337" cy="34.841" r="2.094"/>
			<circle cx="182.518" cy="34.841" r="1.979"/>
			<circle cx="174.697" cy="34.841" r="1.866"/>
			<circle cx="166.877" cy="34.841" r="1.752"/>
			<circle cx="159.058" cy="34.841" r="1.639"/>
			<circle cx="151.237" cy="34.841" r="1.525"/>
			<circle cx="143.417" cy="34.841" r="1.41"/>
			<circle cx="135.597" cy="34.841" r="1.297"/>
			<circle cx="127.777" cy="34.841" r="1.183"/>
			<circle cx="119.957" cy="34.841" r="1.069"/>
			<circle cx="112.137" cy="34.841" r="0.955"/>
			<circle cx="104.317" cy="34.841" r="0.841"/>
			<circle cx="96.497" cy="34.841" r="0.728"/>
			<circle cx="88.677" cy="34.841" r="0.614"/>
		</g>
		<g>
			<circle cx="205.978" cy="43.021" r="2.321"/>
			<circle cx="198.158" cy="43.021" r="2.208"/>
			<circle cx="190.337" cy="43.021" r="2.094"/>
			<circle cx="182.518" cy="43.021" r="1.979"/>
		</g>
		<g>
			<circle cx="205.978" cy="51.2" r="2.321"/>
			<circle cx="198.158" cy="51.2" r="2.208"/>
			<circle cx="190.337" cy="51.2" r="2.094"/>
			<circle cx="182.518" cy="51.2" r="1.979"/>
		</g>
		<g>
			<circle cx="205.978" cy="59.38" r="2.321"/>
			<circle cx="198.158" cy="59.38" r="2.208"/>
			<circle cx="190.337" cy="59.38" r="2.094"/>
			<circle cx="182.518" cy="59.38" r="1.979"/>
		</g>
		<g>
			<circle cx="205.978" cy="67.561" r="2.321"/>
			<circle cx="198.158" cy="67.561" r="2.208"/>
			<circle cx="190.337" cy="67.561" r="2.094"/>
			<circle cx="182.518" cy="67.561" r="1.979"/>
		</g>
		<g>
			<circle cx="205.978" cy="75.741" r="2.321"/>
			<circle cx="198.158" cy="75.741" r="2.208"/>
			<circle cx="190.337" cy="75.741" r="2.094"/>
			<circle cx="182.518" cy="75.741" r="1.979"/>
		</g>
		<g>
			<circle cx="205.978" cy="83.92" r="2.321"/>
			<circle cx="198.158" cy="83.92" r="2.208"/>
			<circle cx="190.337" cy="83.92" r="2.094"/>
			<circle cx="182.518" cy="83.92" r="1.979"/>
		</g>
		<g>
			<circle cx="205.978" cy="92.1" r="2.321"/>
			<circle cx="198.158" cy="92.1" r="2.208"/>
			<circle cx="190.337" cy="92.1" r="2.094"/>
			<circle cx="182.518" cy="92.1" r="1.979"/>
			<circle cx="174.697" cy="92.1" r="1.866"/>
			<circle cx="166.877" cy="92.1" r="1.752"/>
		</g>
		<g>
			<circle cx="205.978" cy="100.282" r="2.321"/>
			<circle cx="198.158" cy="100.282" r="2.208"/>
			<circle cx="190.337" cy="100.282" r="2.094"/>
			<circle cx="182.518" cy="100.282" r="1.979"/>
			<circle cx="174.697" cy="100.282" r="1.866"/>
			<circle cx="166.877" cy="100.282" r="1.752"/>
		</g>
		<g>
			<circle cx="205.978" cy="108.461" r="2.321"/>
			<circle cx="198.158" cy="108.461" r="2.208"/>
			<circle cx="190.337" cy="108.461" r="2.094"/>
			<circle cx="182.518" cy="108.461" r="1.979"/>
			<circle cx="174.697" cy="108.461" r="1.866"/>
			<circle cx="166.877" cy="108.461" r="1.752"/>
		</g>
		<g>
			<circle cx="205.978" cy="116.641" r="2.321"/>
			<circle cx="198.158" cy="116.641" r="2.208"/>
			<circle cx="190.337" cy="116.641" r="2.094"/>
			<circle cx="182.518" cy="116.641" r="1.979"/>
			<circle cx="174.697" cy="116.641" r="1.866"/>
			<circle cx="166.877" cy="116.641" r="1.752"/>
		</g>
	</g>
</g>
</svg>
