<?xml version="1.0" encoding="utf-8"?>
<svg version="1.1" xmlns="http://www.w3.org/2000/svg" xmlns:xlink="http://www.w3.org/1999/xlink" x="0px" y="0px" wifth="456" height="460" viewBox="0 0 456 460" style="enable-background:new 0 0 456 460;" xml:space="preserve">
<style type="text/css">
	.st0{fill:#DE6C6E;}
	.st1{clip-path:url(#SVGID_2_);fill:#FFFFFF;}
	.st2{fill:#FFFFFF;}
	.st3{fill:none;stroke:#DE6C6E;stroke-width:6.6906;stroke-miterlimit:10;}
	.st4{fill:none;stroke:#DE6C6E;stroke-width:2.509;stroke-miterlimit:10;stroke-dasharray:471.2576,235.6289;}
</style>
<g>
	<g>
		<g>
			<path class="st0" d="M84.83,215.98h18.53v6.4h-4.52v-2.65H65.39v3.22h-4.52v-6.98h19.01c-0.48-0.72-0.96-1.4-1.54-2.07l4.91-0.72
				C83.77,214.06,84.3,214.97,84.83,215.98z M73.86,224.26h7.7v3.37h-2.31c-0.48,1.35-1.01,2.6-1.68,3.75h4.72v3.42H61.06v-3.42h5
				c-0.48-1.35-1.01-2.6-1.59-3.75h-2.31v-3.37h7.41c-0.38-0.87-0.77-1.68-1.2-2.45l4.33-0.53
				C73.09,222.19,73.47,223.2,73.86,224.26z M80.6,252.84c0,1.15-0.39,2.07-1.15,2.69c-0.67,0.58-1.59,0.87-2.79,0.87H72.7
				l-0.72-3.37l3.18,0.19c0.87-0.1,1.3-0.58,1.3-1.54v-1.3h-9.38v6.59h-4.14v-20.31H80.6V252.84z M76.46,242.11v-2.07h-9.38v2.07
				H76.46z M76.46,247.41v-2.26h-9.38v2.26H76.46z M73.23,231.38c0.72-1.2,1.3-2.45,1.78-3.75h-6.26c0.43,1.2,0.87,2.45,1.35,3.75
				H73.23z M87.38,228.01h14.29v7.7H87.38v2.07h14.48v2.84H87.38v1.68h14.48v3.03H87.38v1.88h15.01v2.98h-1.49l3.56,1.15
				c-0.43,2.36-1.11,3.75-2.07,4.19c-0.82,0.43-2.31,0.67-4.47,0.67H87.38c-1.35,0-2.41-0.29-3.18-0.87
				c-0.77-0.67-1.15-1.49-1.15-2.5v-20.11h14.48v-1.68H83.05v-9.77h4.33v1.88h13.52v3.18H87.38V228.01z M87.38,250.2v1.68
				c0,0.77,0.53,1.15,1.68,1.15h8.28c0.91,0,1.59-0.1,1.97-0.29c0.48-0.19,0.82-1.06,1.01-2.55H87.38z"/>
			<path class="st0" d="M148.29,217.67c-4.91,2.12-10.59,3.66-17.13,4.62v6.16l18.04-1.92l0.58,4.14l-18.62,2.02v6.45l20.69-2.07
				l0.53,4.14l-21.22,2.07v7.51c0,1.01,0.63,1.49,1.88,1.49h11.64c0.91,0,1.59-0.24,2.02-0.72c0.48-0.48,0.82-2.74,1.01-6.78
				l4.86,1.49c-0.48,5-1.25,7.89-2.31,8.81c-0.91,0.87-2.6,1.35-5,1.35h-14.1c-1.54,0-2.79-0.39-3.71-1.16
				c-0.91-0.82-1.35-1.88-1.35-3.18v-8.32l-17.71,1.73l-0.53-4.09l18.24-1.78v-6.4l-15.06,1.59l-0.58-4.14l15.64-1.68v-6.01
				c-4.62,0.48-9.58,0.72-14.87,0.72l-1.3-4.33c14.1,0,26.08-1.88,35.9-5.63L148.29,217.67z"/>
			<path class="st0" d="M172.49,215.26v3.37c-1.15,2.69-2.94,5.97-5.44,9.86v5c1.54-0.87,3.13-1.88,4.72-3.03v4.91
				c-1.54,1.06-3.13,2.02-4.72,2.89v14.2c0,1.3-0.29,2.31-0.82,3.03c-0.77,0.87-1.78,1.3-2.94,1.3h-4.91l-0.34-4.72
				c1.44,0.29,2.6,0.39,3.56,0.39c0.72,0,1.11-0.48,1.11-1.49v-10.59c-1.78,0.82-3.61,1.54-5.44,2.12l-0.58-5.1
				c1.92-0.29,3.95-0.91,6.01-1.78v-7.99c2.02-2.74,3.8-5.63,5.29-8.61H156.9v-3.75H172.49z M199.78,234.03
				c-2.41,4.23-5.1,7.94-8.08,11.07c3.08,2.31,5.97,4.96,8.66,7.94l-2.65,3.95c-2.98-3.7-5.97-6.69-9-9
				c-0.29,0.29-0.58,0.53-0.87,0.77c-3.71,3.32-8.85,6.16-15.49,8.61l-2.45-3.8c6.16-2.26,11.26-5,15.21-8.18
				c3.37-2.6,7.03-7.03,10.92-13.23L199.78,234.03z M188.9,217.86h11.6V222h-13.67c-1.06,2.69-2.69,5.49-4.81,8.37
				c2.31-0.1,4.43-0.19,6.35-0.34c1.01-1.54,2.07-3.27,3.13-5.2l3.75,1.88c-2.55,5.1-5.53,9.29-8.95,12.61
				c-2.84,2.79-6.74,5.24-11.74,7.31l-2.41-3.75c4.52-1.92,8.28-4.23,11.21-6.93c0.67-0.58,1.35-1.25,2.02-2.02
				c-3.18,0.29-7.31,0.58-12.32,0.87l-0.58-4.14c1.44,0,2.89-0.05,4.23-0.1c2.21-2.6,4.04-5.49,5.44-8.56h-8.9v-4.14h11.07
				c-0.63-1.44-1.3-2.84-2.02-4.14l4.67-0.53C187.65,214.59,188.28,216.13,188.9,217.86z"/>
			<path class="st0" d="M241.05,254.85c-3.31,3.91-7.73,5.77-13.24,5.77c-7.3,0-12.65-2.8-16.05-8.49
				c-2.72-4.5-4.08-10.44-4.08-17.75c0-20.89,6.79-31.33,20.38-31.33c11.04,0,16.64,5.26,16.98,15.79h-8.41
				c-0.42-5.6-3.23-8.41-8.41-8.41c-6.71,0-10.7,5.18-11.89,15.54c3.06-2.55,7.05-3.91,11.8-3.91c5.6,0,9.93,1.95,13.16,5.69
				c2.89,3.57,4.42,8.07,4.42,13.5C245.72,246.7,244.11,251.28,241.05,254.85z M235.02,233.28c-1.7-2.46-4.08-3.74-7.05-3.74
				c-3.4,0-6.11,1.19-8.07,3.57c-2.04,2.38-3.06,5.35-3.06,8.75c0,2.89,0.93,5.43,2.89,7.64c2.04,2.46,4.5,3.65,7.3,3.65
				c3.06,0,5.6-1.19,7.56-3.57c1.87-2.21,2.8-4.92,2.8-8.15C237.4,238.21,236.55,235.49,235.02,233.28z"/>
			<path class="st0" d="M270.73,225.56c0.29-2.6,0.43-5.49,0.43-8.61v-3.22h4.91v3.22c0,3.08-0.19,5.97-0.48,8.61h19.82v4.72h-14.53
				c1.06,4.91,2.6,8.9,4.62,11.98c2.65,4.09,6.21,7.41,10.68,10.01l-2.84,4.72c-5.34-3.66-9.33-7.7-11.93-12.22
				c-2.5-3.95-4.28-8.81-5.34-14.48h-1.25c-0.67,3.27-1.64,6.16-2.79,8.76c-2.6,5.82-7.55,11.74-14.97,17.76l-4.14-3.56
				c6.88-4.81,11.74-10.06,14.53-15.64c1.06-1.97,1.92-4.43,2.55-7.31h-16.12v-4.72H270.73z"/>
			<path class="st0" d="M307.44,217.33c-0.14,2.21-0.34,4.23-0.58,6.16h3.03v-10.3h4.52v10.3h4.52v4.14h10.3v-5.05h-8.81v-4.14h8.81
				v-5.24h4.52v5.24h9.77v4.14h-9.77v5.05h11.31v4.14h-4.72v4.72h4.72v4.14h-4.72v11.45c0,1.73-0.38,2.94-1.15,3.61
				c-0.72,0.72-2.02,1.11-3.95,1.11h-6.74l-0.96-4.72c2.6,0.29,4.72,0.39,6.4,0.39c1.25,0,1.88-0.34,1.88-1.11v-10.73h-15.98v-4.14
				h15.98v-4.72h-17.27v-3.95h-4.14v9.24c1.64-0.48,3.18-1.06,4.67-1.68v4.28c-1.49,0.63-3.03,1.2-4.67,1.73v15.98h-4.52v-14.44
				c-2.45,0.87-5,1.64-7.7,2.41l-1.15-4.91c3.03-0.48,5.97-1.15,8.85-1.97v-10.63h-3.61c-0.38,2.6-0.87,4.91-1.44,6.98l-4.33-1.35
				c1.59-5.15,2.65-10.63,3.18-16.5L307.44,217.33z M330.2,248.71l-4.33,2.98c-1.25-2.26-2.94-4.91-5.05-7.89l3.56-2.26
				C326.83,244.33,328.76,246.68,330.2,248.71z"/>
			<path class="st0" d="M368.16,213.72c-0.48,1.01-1.01,1.97-1.59,2.84h18.14v3.18c-2.6,2.69-5.2,4.96-7.89,6.78h13.14v15.4h-31.18
				v6.59c0,1.3,0.24,2.21,0.72,2.74c0.63,0.43,1.68,0.63,3.22,0.63h21.03c1.64,0,2.74-0.24,3.32-0.72c0.77-0.58,1.25-2.79,1.4-6.59
				l4.33,1.3c0,1.83-0.24,3.66-0.63,5.49c-0.48,1.49-1.15,2.65-2.02,3.42c-1.15,0.82-3.03,1.25-5.63,1.25h-23.48
				c-2.41,0-4.14-0.53-5.15-1.49c-1.25-1.11-1.83-3.08-1.83-6.01v-20.64c-0.82,0.48-1.64,0.91-2.45,1.3l-2.98-3.8
				c3.66-1.68,6.69-3.56,9.19-5.58c1.92-1.49,3.75-3.71,5.44-6.59L368.16,213.72z M369.94,226.52c2.65-1.64,5.39-3.61,8.23-6.01
				h-14.53c-0.67,0.67-1.3,1.3-1.88,1.83c-1.59,1.49-3.42,2.89-5.44,4.19H369.94z M358.78,237.78h10.49v-7.12h-10.49V237.78z
				 M373.79,237.78h11.45v-7.12h-11.45V237.78z"/>
		</g>
	</g>
	<g>
		<g>
			<path class="st0" d="M294.46,111.42c0-37.79-31.32-38.28-31.32-38.28c-28.54,0-35.58,22.73-36.73,27.42
				c-1.15-4.69-8.2-27.42-36.73-27.42c0,0-31.32,0.5-31.32,38.28c0,34.99,58.82,73.6,67.52,79.12l0,0.68c0,0,0.19-0.12,0.54-0.34
				c0.35,0.22,0.54,0.34,0.54,0.34l0-0.68C235.64,185.01,294.46,146.41,294.46,111.42z"/>
			<g>
				<defs>
					<path id="SVGID_1_" d="M294.46,111.42c0-37.79-31.32-38.28-31.32-38.28c-28.54,0-35.58,22.73-36.73,27.42
						c-1.15-4.69-8.2-27.42-36.73-27.42c0,0-31.32,0.5-31.32,38.28c0,34.99,58.82,73.6,67.52,79.12l0,0.68c0,0,0.19-0.12,0.54-0.34
						c0.35,0.22,0.54,0.34,0.54,0.34l0-0.68C235.64,185.01,294.46,146.41,294.46,111.42z"/>
				</defs>
				<clipPath id="SVGID_2_">
					<use xlink:href="#SVGID_1_"  style="overflow:visible;"/>
				</clipPath>
				<path class="st1" d="M152.35,133.04c5.42-2.53,10.84-6.39,15.68-10.2c4.63-3.64,9.48-6.81,13.59-11.16
					c1.77-1.88,2.43-2.82,3.12-5.21c0.58-2,1.82-4.15,2.85-6c1.01-1.82,1.73-3.46,2.76-5.29c0.96-1.7,2.6-4.29,4.41-5.11
					c0.67,1.55,0.87,3.29,1.1,4.91c0.09-1.42,1.8-2.2,2.95-2.89c0.33,4.84,0.89,9.67,1.13,14.59c2.76,0.14,5.79-0.57,8.03,1.25
					c1.98,1.61,4.81,4.25,5.8,6.5c1.19,2.71,0.03,4.96,1.83,7.45c1.65,2.3,3.42,3.67,5.89,5.08c2.18,1.25,4.47,2.6,6.72,3.75
					c3.21,1.63,3.29,3.34,1.06,6.32c-3.74,5.02-9.57,6.81-15.45,6.81c-6.36,0-10.9-0.03-15.89,4.16
					c-4.61,3.87-9.23,9.27-11.16,15.23c-0.45,1.4-0.58,2.8-1.09,4.19c-2.55-0.7-4.53-1.3-7.14-2.04c-2.73-0.78-5.09-2.86-7.66-4.3
					c-6.8-3.79-11.43-10.27-15.47-16.92c-1.3-2.14-2.47-4.18-3.24-6.55c-0.29-0.87-0.95-2.31-0.54-3.29c0.48-1.11-1.14-0.83,0-1.28"
					/>
				<path class="st1" d="M240.41,107.8c0.81-0.48,3.39-3.39,3.39-3.39c4.02-4.27,5.66-3.86,6.33-3.89c-0.12-0.1,0.17-0.09,0.6-0.95
					c0.81-1.61,0-7.58,1.77-7.9c1.77-0.32,4.52,7.9,4.52,7.9c7.15,2.47,7.86,10.17,8.39,12.42c1.67,7.15,8.26,10.11,11.13,11.78
					c1.33,0.77,9.52,1.45,12.74,15.6c3.23,14.15-2.58,20.86,1.45,29.57c4.03,8.71,0.64,14.03,0.64,14.03
					c-10.59,13.23-31.62,3.87-31.62,3.87c38.23,1.45,27.26-10.25,27.26-10.25c-13.98,1.6-28.39-0.32-28.39-0.32
					c-2.26-3.64,6.29-4.11,6.29-4.11c-2.26-5.65-4.84-6.29-4.84-6.29c-0.23,0.83-0.5,1.59-0.8,2.3c-0.88,2.37-2.1,5.17-3.45,6.52
					c-1.83,1.83-5.39,0.93-5.39,0.93c-1.02-0.02-1.01-0.88-0.36-1.8c0.4-0.56,3.01-2.61,3.06-6.66c1.13-19.84,0.65-20.16-4.84-28.07
					c-5.48-7.9-1.29-19.36-1.13-21.62c0.16-2.26-1.77-2.42-4.68-4.36c-2.9-1.94-2.9-4.84-2.9-4.84S239.6,108.28,240.41,107.8z"/>
			</g>
		</g>
		<g>
			<path class="st2" d="M229.43,172.52c0,0.9-0.73,1.62-1.62,1.62h-2.7c-0.9,0-1.62-0.73-1.62-1.62v-17.81
				c0-0.9,0.73-1.62,1.62-1.62h2.7c0.9,0,1.62,0.73,1.62,1.62V172.52z"/>
			<path class="st2" d="M236.93,165.02c0,0.9-0.73,1.62-1.62,1.62H217.5c-0.9,0-1.62-0.73-1.62-1.62v-2.7c0-0.9,0.73-1.62,1.62-1.62
				h17.81c0.9,0,1.62,0.73,1.62,1.62V165.02z"/>
		</g>
	</g>
	<g>
		<circle class="st3" cx="226.4" cy="229.19" r="209.11"/>
		<g>
			<circle class="st4" cx="226.4" cy="229.19" r="225"/>
		</g>
	</g>
</g>
</svg>
