<?xml version="1.0" encoding="utf-8"?>
<svg version="1.1" xmlns="http://www.w3.org/2000/svg" xmlns:xlink="http://www.w3.org/1999/xlink" x="0px" y="0px" width="127" height="115" viewBox="0 0 127 115" style="enable-background:new 0 0 127 115;" xml:space="preserve">
<style type="text/css">
	.st0{fill:#FFFFFF;}
	.st1{clip-path:url(#SVGID_2_);fill:#DE6C6E;}
	.st2{fill:#DE6C6E;}
</style>
<g>
	<path class="st0" d="M127.17,37.79c0-35.26-29.23-35.72-29.23-35.72c-26.63,0-33.2,21.21-34.27,25.58
		c-1.07-4.38-7.65-25.58-34.27-25.58c0,0-29.23,0.46-29.23,35.72c0,32.65,54.88,68.67,63,73.82l0,0.63c0,0,0.18-0.11,0.5-0.31
		c0.32,0.2,0.5,0.31,0.5,0.31l0-0.63C72.29,106.46,127.17,70.44,127.17,37.79z"/>
	<g>
		<defs>
			<path id="SVGID_1_" d="M127.17,37.79c0-35.26-29.23-35.72-29.23-35.72c-26.63,0-33.2,21.21-34.27,25.58
				c-1.07-4.38-7.65-25.58-34.27-25.58c0,0-29.23,0.46-29.23,35.72c0,32.65,54.88,68.67,63,73.82l0,0.63c0,0,0.18-0.11,0.5-0.31
				c0.32,0.2,0.5,0.31,0.5,0.31l0-0.63C72.29,106.46,127.17,70.44,127.17,37.79z"/>
		</defs>
		<clipPath id="SVGID_2_">
			<use xlink:href="#SVGID_1_"  style="overflow:visible;"/>
		</clipPath>
		<path class="st1" d="M-5.43,57.97c5.06-2.37,10.12-5.96,14.63-9.51c4.32-3.4,8.85-6.36,12.68-10.41c1.65-1.75,2.27-2.63,2.92-4.86
			c0.54-1.86,1.69-3.88,2.65-5.6c0.94-1.7,1.61-3.23,2.58-4.93c0.9-1.58,2.43-4,4.12-4.77c0.63,1.45,0.81,3.07,1.03,4.58
			c0.08-1.32,1.68-2.05,2.76-2.7c0.31,4.52,0.83,9.02,1.06,13.61c2.57,0.13,5.4-0.53,7.49,1.17c1.85,1.5,4.49,3.97,5.41,6.07
			c1.11,2.53,0.03,4.63,1.7,6.95c1.54,2.14,3.19,3.42,5.49,4.74c2.04,1.16,4.17,2.43,6.27,3.49c3,1.52,3.07,3.11,0.99,5.9
			c-3.49,4.68-8.93,6.35-14.42,6.35c-5.94,0-10.17-0.03-14.83,3.88c-4.3,3.61-8.61,8.65-10.41,14.21c-0.42,1.31-0.54,2.61-1.02,3.91
			c-2.38-0.65-4.22-1.21-6.66-1.9c-2.55-0.72-4.75-2.67-7.15-4.01C5.52,80.59,1.2,74.55-2.57,68.34c-1.21-1.99-2.3-3.9-3.03-6.11
			c-0.27-0.81-0.89-2.16-0.5-3.07c0.44-1.04-1.07-0.78,0-1.2"/>
		<path class="st1" d="M76.73,34.42c0.75-0.45,3.16-3.16,3.16-3.16c3.75-3.98,5.28-3.6,5.91-3.63c-0.11-0.1,0.16-0.08,0.56-0.88
			c0.75-1.51,0-7.07,1.66-7.38c1.66-0.3,4.21,7.38,4.21,7.38c6.67,2.31,7.34,9.49,7.83,11.59c1.56,6.67,7.7,9.43,10.39,10.99
			c1.24,0.72,8.88,1.35,11.89,14.55c3.01,13.2-2.41,19.46,1.36,27.59c3.76,8.13,0.6,13.09,0.6,13.09
			c-9.88,12.34-29.5,3.61-29.5,3.61c35.67,1.35,25.44-9.56,25.44-9.56c-13.04,1.5-26.49-0.3-26.49-0.3
			c-2.11-3.39,5.87-3.83,5.87-3.83c-2.11-5.27-4.51-5.87-4.51-5.87c-0.21,0.77-0.47,1.49-0.74,2.15c-0.82,2.21-1.96,4.83-3.22,6.08
			c-1.71,1.71-5.03,0.87-5.03,0.87c-0.95-0.02-0.94-0.82-0.33-1.68c0.37-0.52,2.81-2.44,2.85-6.22c1.05-18.51,0.6-18.81-4.52-26.19
			c-5.12-7.38-1.2-18.06-1.05-20.17c0.15-2.11-1.66-2.26-4.37-4.06c-2.71-1.81-2.71-4.52-2.71-4.52S75.98,34.87,76.73,34.42z"/>
	</g>
	<g>
		<path class="st2" d="M66.49,94.96c0,0.84-0.68,1.51-1.51,1.51h-2.52c-0.84,0-1.51-0.68-1.51-1.51V78.34
			c0-0.84,0.68-1.52,1.51-1.52h2.52c0.84,0,1.51,0.68,1.51,1.52V94.96z"/>
		<path class="st2" d="M73.49,87.96c0,0.84-0.68,1.51-1.51,1.51H55.35c-0.84,0-1.51-0.68-1.51-1.51v-2.52
			c0-0.84,0.68-1.51,1.51-1.51h16.62c0.84,0,1.51,0.68,1.51,1.51V87.96z"/>
	</g>
</g>
</svg>
