<?xml version="1.0" encoding="utf-8"?>
<svg version="1.1" xmlns="http://www.w3.org/2000/svg" xmlns:xlink="http://www.w3.org/1999/xlink" x="0px" y="0px" width="102" height="90" viewBox="0 0 102 90" style="enable-background:new 0 0 102 90;" xml:space="preserve">
<style type="text/css">
	.st0{fill:#DE6C6E;}
	.st1{clip-path:url(#SVGID_2_);fill:#FFFFFF;}
	.st2{fill:#FFFFFF;}
</style>
<g>
	<g>
		<path class="st0" d="M101.78,29.05c0-28.32-23.47-28.69-23.47-28.69c-21.39,0-26.67,17.03-27.53,20.55
			c-0.86-3.51-6.14-20.55-27.53-20.55c0,0-23.47,0.37-23.47,28.69c0,26.22,44.08,55.15,50.6,59.29l0,0.51c0,0,0.14-0.09,0.41-0.25
			c0.26,0.16,0.41,0.25,0.41,0.25l0-0.51C57.71,84.2,101.78,55.27,101.78,29.05z"/>
		<g>
			<defs>
				<path id="SVGID_1_" d="M101.78,29.05c0-28.32-23.47-28.69-23.47-28.69c-21.39,0-26.67,17.03-27.53,20.55
					c-0.86-3.51-6.14-20.55-27.53-20.55c0,0-23.47,0.37-23.47,28.69c0,26.22,44.08,55.15,50.6,59.29l0,0.51c0,0,0.14-0.09,0.41-0.25
					c0.26,0.16,0.41,0.25,0.41,0.25l0-0.51C57.71,84.2,101.78,55.27,101.78,29.05z"/>
			</defs>
			<clipPath id="SVGID_2_">
				<use xlink:href="#SVGID_1_"  style="overflow:visible;"/>
			</clipPath>
			<path class="st1" d="M-4.72,45.25c4.06-1.9,8.12-4.79,11.75-7.64c3.47-2.73,7.11-5.1,10.18-8.36c1.33-1.41,1.82-2.12,2.34-3.9
				c0.43-1.5,1.36-3.11,2.13-4.5c0.76-1.36,1.29-2.59,2.07-3.96c0.72-1.27,1.95-3.22,3.31-3.83c0.5,1.16,0.65,2.46,0.83,3.68
				c0.07-1.06,1.35-1.65,2.21-2.17c0.25,3.63,0.67,7.24,0.85,10.93c2.07,0.11,4.34-0.42,6.02,0.94c1.48,1.21,3.61,3.19,4.34,4.87
				c0.89,2.03,0.02,3.72,1.37,5.59c1.24,1.72,2.56,2.75,4.41,3.8c1.64,0.93,3.35,1.95,5.03,2.81c2.41,1.22,2.46,2.5,0.8,4.74
				c-2.8,3.76-7.17,5.1-11.58,5.1c-4.77,0-8.17-0.02-11.91,3.12c-3.45,2.9-6.92,6.95-8.36,11.41c-0.34,1.05-0.43,2.1-0.82,3.14
				c-1.91-0.52-3.39-0.97-5.35-1.53c-2.05-0.58-3.81-2.15-5.74-3.22c-5.09-2.84-8.56-7.69-11.59-12.68
				c-0.97-1.6-1.85-3.13-2.43-4.91c-0.21-0.65-0.71-1.73-0.4-2.46c0.36-0.83-0.86-0.62,0-0.96"/>
			<path class="st1" d="M61.27,26.33c0.6-0.36,2.54-2.54,2.54-2.54c3.01-3.2,4.24-2.89,4.75-2.92c-0.09-0.08,0.13-0.06,0.45-0.71
				c0.6-1.21,0-5.68,1.33-5.92c1.33-0.24,3.38,5.92,3.38,5.92c5.36,1.85,5.89,7.62,6.29,9.31c1.25,5.36,6.19,7.57,8.34,8.82
				c0.99,0.58,7.13,1.09,9.55,11.69c2.42,10.6-1.93,15.63,1.09,22.16c3.02,6.53,0.48,10.52,0.48,10.52
				c-7.94,9.91-23.69,2.9-23.69,2.9c28.65,1.09,20.43-7.68,20.43-7.68c-10.47,1.2-21.28-0.24-21.28-0.24
				c-1.69-2.73,4.71-3.08,4.71-3.08c-1.69-4.23-3.63-4.71-3.63-4.71c-0.17,0.62-0.37,1.19-0.6,1.72c-0.66,1.78-1.58,3.88-2.59,4.88
				c-1.37,1.37-4.04,0.7-4.04,0.7c-0.77-0.01-0.76-0.66-0.27-1.35c0.3-0.42,2.25-1.96,2.29-4.99c0.85-14.87,0.48-15.11-3.63-21.03
				c-4.11-5.92-0.97-14.51-0.85-16.2c0.12-1.69-1.33-1.81-3.51-3.26c-2.18-1.45-2.18-3.63-2.18-3.63S60.67,26.7,61.27,26.33z"/>
		</g>
	</g>
	<g>
		<path class="st2" d="M53.05,74.84c0,0.67-0.54,1.22-1.22,1.22h-2.02c-0.67,0-1.22-0.54-1.22-1.22V61.49
			c0-0.67,0.54-1.22,1.22-1.22h2.02c0.67,0,1.22,0.54,1.22,1.22V74.84z"/>
		<path class="st2" d="M58.67,69.21c0,0.67-0.54,1.22-1.22,1.22H44.11c-0.67,0-1.22-0.54-1.22-1.22v-2.02
			c0-0.67,0.55-1.22,1.22-1.22h13.35c0.67,0,1.22,0.54,1.22,1.22V69.21z"/>
	</g>
</g>
</svg>
