<?xml version="1.0" encoding="utf-8"?>
<svg version="1.1" xmlns="http://www.w3.org/2000/svg" xmlns:xlink="http://www.w3.org/1999/xlink" x="0px" y="0px" width="145" height="145"
	 viewBox="0 0 260 260" style="enable-background:new 0 0 260 260;" xml:space="preserve">
<style type="text/css">
	.st0{fill:#FAE2AC;}
	.st1{fill:#5E5756;}
	.st2{fill:#BB8544;}
	.st3{fill:#D09F5E;}
	.st4{fill:#231815;}
	.st5{fill:#DA463D;}
	.st6{fill:#BC8746;}
	.st7{fill:#73201B;}
	.st8{fill:#F4A11C;}
	.st9{fill:#24A0AC;}
	.st10{fill:#0B919C;}
	.st11{fill:#01263C;}
	.st12{fill:#E6EBF6;}
	.st13{fill:#DFDEE3;}
</style>
<g>
	<circle class="st0" cx="130.08" cy="130.26" r="130.15"/>
	<g>
		<path class="st1" d="M110.16,52.81H99.64v17.01h-3.43V37.09h13.95V52.81z M106.73,43.29v-3.32h-7.08v3.32H106.73z M106.73,49.89
			v-3.87h-7.08v3.87H106.73z M127.02,37.09v28.52c0,1.29-0.37,2.25-1.03,2.88c-0.59,0.59-1.59,0.89-2.99,0.89h-4.32l-0.74-3.47
			l4.46,0.15c0.85,0,1.29-0.55,1.33-1.59V52.81h-10.81V37.09h1.59H127.02z M123.74,43.29v-3.32h-7.49v3.32H123.74z M123.74,46.02
			h-7.49v3.87h7.49V46.02z"/>
		<path class="st1" d="M140.15,40.12h5.2v3.03h-13.98v-3.03h5.39c-0.52-1.33-1.07-2.58-1.66-3.76l3.47-0.41
			C139.12,37.2,139.63,38.57,140.15,40.12z M143.91,45.58v0.48c3.28-2.58,6.46-5.9,9.48-10h2.88c2.51,3.69,5.46,7.01,8.82,9.96
			l-1.59,3.62c-3.62-3.76-6.53-7.27-8.67-10.52c-3.62,4.8-6.83,8.3-9.63,10.52l-1.29-3.1v1.92h-11.4v-2.88H143.91z M143.91,50.93
			v2.88h-11.4v-2.88H143.91z M143.91,67.05h-8.08v2.62h-3.32V56.39h11.4V67.05z M140.59,64.02v-4.61h-4.76v4.61H140.59z
			 M162.36,51.37c-2.44,3.03-4.58,5.2-6.46,6.6c-2.14,1.55-4.98,2.95-8.56,4.21l-1.99-2.77c3.84-1.25,6.79-2.69,8.85-4.32
			c1.62-1.18,3.39-3.06,5.24-5.61L162.36,51.37z M165.64,57.57c-2.21,3.17-4.87,5.76-7.9,7.82c-2.44,1.73-5.87,3.25-10.26,4.54
			l-2.03-3.03c4.1-1.14,7.45-2.55,10.07-4.17c2.25-1.33,4.65-3.58,7.23-6.75L165.64,57.57z M158.89,45.87
			c-1.62,2.07-3.17,3.65-4.61,4.76c-1.73,1.37-3.95,2.69-6.64,4.02l-1.73-3.03c2.03-0.74,3.98-1.81,5.83-3.25
			c1.44-1.07,2.88-2.47,4.28-4.24L158.89,45.87z"/>
	</g>
	<g>
		<g>
			<path class="st2" d="M135.76,190.92c0.67,0.78,0.74,1.64,0.56,2.65c-0.86,4.75-0.6,9.55-0.69,14.34
				c-0.05,2.71,1.3,4.58,2.87,6.77c-1.57,0.08-2.82,0.15-4.07,0.21c-0.69,0.62-1.49,0.55-2.31,0.4c-1.8-0.72-3.69-0.97-5.63-0.99
				c-0.49-0.06-0.96-0.19-1.41-0.37c-1.05-0.42-2.09-1.02-1.92-2.27c0.19-1.36,1.45-1.77,2.63-1.89c2.7-0.26,5.43,0.34,8.12-0.35
				c0.3-0.59,0.16-1.18-0.02-1.77c-0.53-0.72-0.49-1.71-1.16-2.37c-0.37-0.43-0.74-0.87-1.1-1.3c-1.03-0.53-2.05-1.09-3.09-1.62
				c-2.05-0.38-3.85-1.4-5.61-2.42c-5.54-3.19-4.74-6.98-2.69-11.89c0.66-1.57,1.68-3.06,2.93-4.37c2.47-2.61,4.15-2.79,6.68-0.28
				C132.12,185.68,134.1,188.17,135.76,190.92z"/>
			<path class="st2" d="M174.98,212.95c-2.98,0.5-5.72,2.08-8.84,1.9c-0.67-0.06-1.34-0.13-2.24-0.21c2.38-2.97,2.61-5.85,1.21-9.24
				c-1.22-2.97-1.64-6.26-2.45-9.4c-0.34-1.32,1.5-1.89,1.02-3.22c2.08-4.46,4.92-8.38,8.34-11.91c0.78-0.61,1.59-0.66,2.42-0.12
				c2.74,1.29,4.29,3.76,6.01,6.06c0.77,1.12,1.19,2.4,1.65,3.66c0.97,5.82-3.09,8.46-8.31,10.62c-0.75,0.48-1.72,0.52-2.38,1.17
				c-0.74,0.46-1.4,1-1.77,1.82l0,0c-1.87,1.35-1.85,3.32-1.77,5.32c0.55,0.71,1.15,0.67,1.79,0.13c0.59-0.02,1.18-0.05,1.77-0.07
				c1.98,0.47,3.95,0.45,5.93,0.03c0.53-0.08,0.97,0.06,1.26,0.54c0.06,0.94-0.47,1.46-1.28,1.78
				C176.59,212.24,175.68,212.38,174.98,212.95z"/>
			<path class="st2" d="M179.47,108.85c0,0,0.92-1.06,0.84-1.61c-0.09-0.59-3.35-1.78-3.35-1.78l-3.98,4.26l4.61,1.05L179.47,108.85
				z"/>
			<path class="st3" d="M135.62,132.82c0,0-11.74,36.46-9.6,40.91s9.78,14.94,9.25,16.9s-7.29,26.15,2.13,28.99
				c9.43,2.85,4.8,4.8,4.8,4.8s-12.63,7.11-19.21,1.07c-6.58-6.05-12.09-6.4-11.74-4.09s0.71,10.49,6.05,9.96
				c0,0-6.76,2.31-2.31,4.27s10.85,0.36,10.85,0.36s-4.8,2.13-1.96,2.85c2.85,0.71,15.12-0.89,18.5-4.62c0,0,0.36,4.8,2.67,1.96
				s3.56-13.52,3.56-13.52s-0.36-2.13,2.49-2.49s18.26,1.08,15.09-13.15c-3.17-14.24-3.35-19.75-0.86-23.31
				c2.49-3.56,5.69-12.09,5.69-14.23s-6.23-37.71-9.25-38.95C158.74,129.26,149.67,116.46,135.62,132.82z"/>
			<g>
				<path class="st3" d="M137.93,125.17l0.23-10.21c0,0-15.96-4.6-14.65-7.75s14.33-1.84,14.33-1.84s0.94-6.19,5.93-7.8
					c0,0-7.26-9.19-4.74-10.81c2.52-1.62,12.56,8.32,12.56,8.32s14.5,5.63,20.19,1.84c5.69-3.79,13.58-1.53,11.34,2.88
					s-6.37,9.77-15.72,12.81c0,0,11.31-2,12.96-5.39c0,0-0.01,4.86-6.13,6.38c-6.13,1.52-13.69,5.47-15.13,10.41
					c0,0-4.75,1.93-13.78,2.85C138.79,127.52,137.93,125.17,137.93,125.17z"/>
				<path class="st2" d="M137.26,107.76c0,0-8.33-1.47-9.22,0.32c-0.9,1.78,10.02,4.79,10.02,4.79L137.26,107.76z"/>
				
					<ellipse transform="matrix(0.3848 -0.923 0.923 0.3848 21.3685 223.7355)" class="st4" cx="178.53" cy="95.84" rx="3.56" ry="3.34"/>
				
					<ellipse transform="matrix(0.3848 -0.923 0.923 0.3848 -2.6664 207.6799)" class="st4" cx="154.46" cy="105.84" rx="2.2" ry="2.07"/>
			</g>
			<path class="st5" d="M167.4,112.62c0,0,6.36-1.26,6.72-1.28c1.12-0.08,2.12,0.28,2.54,1.42c0.42,1.13,3.12,0.11,2.05-1.34
				c-1.07-1.45-3.2-3.19-4.16-2.25C173.72,109.99,167.4,112.62,167.4,112.62z"/>
			<path class="st6" d="M153.31,99.69c-0.68,0.67-1.36,1.25-2.36,1.15c-0.27-0.03-0.64-0.19-0.5-0.52c0.35-0.81,1.06-1.28,1.84-1.64
				c0.05-0.02,0.09-0.06,0.14-0.09c0.55-0.36,1.32-1.03,1.76-0.46C154.68,98.78,153.62,99.19,153.31,99.69z"/>
			<path class="st7" d="M136.5,132.2l0.27-7.47c0,0,15.12-7.65,23.83-1.51l0.62,6.85C161.23,130.06,145.75,122.68,136.5,132.2z"/>
			<ellipse class="st8" cx="142.62" cy="125.6" rx="1.18" ry="1.23"/>
			<ellipse class="st8" cx="149.68" cy="124.31" rx="1.18" ry="1.23"/>
			<ellipse class="st8" cx="156.58" cy="125.49" rx="1.18" ry="1.23"/>
		</g>
		<g>
			<path class="st9" d="M97.74,157.57c-0.93,0.24-1.64,1.03-1.64,2.05v17.7c0,0.67-0.02,1.33,0.07,2c0.17,1.27,0.74,2.4,1.57,3.28
				V157.57z"/>
			<path class="st10" d="M138.81,165.11c-0.05-1.15-0.93-2.12-2.12-2.12h-14.2c-2.16,0-4.7-0.32-6.64,0.8
				c-1.93,1.1-2.99,3.19-2.99,5.38v9.15c0,0.07,0,0.14,0,0.21c0,0.08-0.01,0.16-0.01,0.23c-0.03,0.11-0.05,0.22-0.08,0.33
				c-0.01,0.03-0.02,0.07-0.04,0.1c-0.04,0.08-0.08,0.16-0.12,0.23c-0.02,0.04-0.1,0.15-0.14,0.21c-0.02,0.02-0.03,0.03-0.04,0.04
				c-0.08,0.09-0.17,0.16-0.26,0.24c-0.02,0.02-0.04,0.03-0.05,0.04c-0.1,0.06-0.2,0.12-0.3,0.17c-0.13,0.03-0.25,0.08-0.38,0.11
				c-0.01,0-0.01,0-0.02,0c-0.1,0-0.21,0.02-0.3,0.02c-0.02,0-0.03,0-0.05,0c-0.12,0-0.24,0-0.36,0h-8.03c-0.36,0-0.72,0-1.08,0
				c-0.02,0-0.04,0-0.06,0c-0.07,0-0.13,0-0.2-0.01c-0.01,0-0.02,0-0.03,0c-0.11-0.03-0.22-0.05-0.33-0.08c-0.01,0-0.01,0-0.02-0.01
				c-0.08-0.05-0.19-0.08-0.26-0.12c-0.05-0.03-0.2-0.14-0.26-0.17c-0.02-0.01-0.03-0.03-0.04-0.04c-0.08-0.08-0.16-0.16-0.23-0.24
				c-0.06-0.11-0.14-0.21-0.2-0.32c-0.01-0.09-0.09-0.24-0.11-0.31c-0.02-0.08-0.03-0.17-0.05-0.25c0-0.04-0.01-0.08-0.01-0.13
				c0-0.14,0-0.29,0-0.43v-18.54c0-1.08-0.92-2.11-2.02-2.12v25.63c1.03,0.84,2.35,1.35,3.76,1.37c0.84,0.01,1.68,0,2.52,0
				c2.37,0,4.75,0.05,7.12,0c1.51-0.03,2.92-0.61,4.03-1.62c1.12-1.02,1.7-2.43,1.86-3.9c0.09-0.87,0.03-1.77,0.03-2.64
				c0-2.45-0.03-4.9,0-7.35c0-0.1,0.02-0.21,0.02-0.32c0-0.01,0-0.01,0-0.02c0.03-0.13,0.08-0.25,0.11-0.38
				c0.06-0.1,0.11-0.2,0.17-0.3c0.01-0.02,0.03-0.04,0.05-0.07c0.06-0.07,0.12-0.14,0.19-0.2c0.02-0.02,0.05-0.05,0.09-0.08
				c0.06-0.04,0.16-0.11,0.2-0.14c0.06-0.03,0.12-0.06,0.18-0.09c0.06-0.02,0.12-0.05,0.16-0.06c0.11-0.03,0.22-0.06,0.33-0.08
				c0.08,0,0.17-0.01,0.25-0.01c0.59-0.01,1.19,0,1.78,0h16.06C137.8,167.23,138.86,166.25,138.81,165.11z"/>
			<path class="st9" d="M97.74,154.28c-2.05,0-4.1,0-6.16,0c-1.52,0-3.05-0.03-4.57-0.17c-0.2-0.02-0.41-0.04-0.61-0.06
				c-0.03,0-0.06-0.01-0.09-0.01c-0.01,0-0.03,0-0.04-0.01c-0.4-0.06-0.81-0.13-1.21-0.21c-0.7-0.14-1.4-0.32-2.08-0.55
				c-0.27-0.09-0.53-0.19-0.8-0.29c-0.03-0.01-0.05-0.02-0.08-0.04c-0.15-0.07-0.3-0.14-0.45-0.21c-0.55-0.27-1.08-0.58-1.59-0.93
				c-0.13-0.09-0.25-0.18-0.38-0.27c-0.01-0.01-0.02-0.02-0.04-0.03c-0.25-0.21-0.49-0.42-0.73-0.65c-0.2-0.2-0.39-0.4-0.57-0.61
				c-0.07-0.08-0.13-0.17-0.21-0.26c-0.05-0.07-0.09-0.13-0.14-0.2c-0.16-0.23-0.3-0.47-0.43-0.71c-0.08-0.14-0.15-0.29-0.22-0.44
				c0-0.01-0.02-0.05-0.04-0.09c0.03,0.07,0.04,0.13-0.01-0.02c-0.02-0.04-0.04-0.08-0.04-0.08c0,0,0.01,0.02,0.02,0.05
				c0,0,0-0.01,0-0.01c-0.24-0.69-0.42-1.39-0.55-2.11c0-0.03-0.01-0.05-0.01-0.07c0-0.01,0-0.02,0-0.04
				c-0.02-0.2-0.04-0.39-0.06-0.59c-0.03-0.37-0.05-0.74-0.06-1.11c-0.03-0.74-0.03-1.49-0.03-2.23c0-3.28,0-6.56,0-9.83l0-9.83
				c0-1.65,0-3.31,0-4.96c0-1.54-0.02-3.09,0.15-4.63c0-0.03,0-0.06,0.01-0.1c0-0.01,0-0.02,0.01-0.04c0.03-0.2,0.06-0.41,0.1-0.61
				c0.07-0.38,0.16-0.75,0.26-1.12c0.08-0.29,0.17-0.57,0.28-0.85c0.03-0.07,0.06-0.15,0.09-0.22c0.03-0.07,0.06-0.13,0.09-0.2
				c0.26-0.54,0.56-1.07,0.91-1.56c0.07-0.11,0.15-0.21,0.22-0.31c0,0,0-0.01,0.01-0.01c0.2-0.24,0.4-0.48,0.62-0.71
				c0.4-0.42,0.82-0.8,1.27-1.17c0,0,0.01-0.01,0.01-0.01c0.13-0.09,0.25-0.18,0.38-0.27c0.24-0.16,0.49-0.32,0.74-0.47
				c0.25-0.15,0.51-0.29,0.77-0.42c0.12-0.06,0.24-0.12,0.36-0.17c0.03-0.01,0.05-0.03,0.07-0.03c0.56-0.22,1.12-0.4,1.7-0.54
				c0.26-0.06,0.52-0.11,0.79-0.16c0.02,0,0.04-0.01,0.06-0.01c0.12-0.01,0.25-0.03,0.37-0.04c0.58-0.04,1.16-0.04,1.74,0.01
				c1.11,0.09,2.17-1.04,2.12-2.12c-0.05-1.22-0.93-2.02-2.12-2.12c-5.43-0.43-10.99,2.81-13.51,7.6c-1.55,2.95-1.74,6.24-1.74,9.52
				c0,3.4,0,6.8,0,10.19l0,10.3c0,1.69,0,3.37,0,5.06c0,1.7,0.05,3.38,0.33,5.06c0.53,3.18,2.35,5.75,4.91,7.63
				c2.49,1.83,5.53,2.65,8.55,3.03c3.5,0.44,7.09,0.27,10.61,0.27c0.33,0,0.66,0,0.98,0V154.28z M76.75,112.95
				c0-0.04,0.01-0.09,0.02-0.12C76.77,112.84,76.76,112.9,76.75,112.95z M86.27,154.03c-0.04,0-0.09-0.01-0.13-0.02
				C86.15,154.01,86.21,154.02,86.27,154.03z"/>
			<path class="st10" d="M123.13,121.92c0-3.41,0.2-6.89-0.34-10.28c-0.89-5.57-5.41-10.2-10.88-11.46
				c-1.31-0.3-2.68-0.44-4.02-0.33c-1.1,0.09-2.17,0.91-2.12,2.12c0.05,1.07,0.93,2.21,2.12,2.12c0.58-0.05,1.16-0.05,1.74-0.01
				c0.12,0.01,0.23,0.02,0.35,0.03c0.03,0,0.06,0.01,0.08,0.01c0.29,0.05,0.57,0.11,0.85,0.17c0.55,0.13,1.08,0.32,1.61,0.52
				c0.03,0.01,0.07,0.03,0.1,0.04c0.12,0.06,0.24,0.11,0.36,0.17c0.28,0.14,0.56,0.29,0.83,0.45c0.23,0.14,0.46,0.28,0.68,0.43
				c0.13,0.09,0.26,0.18,0.38,0.27c0.01,0.01,0.01,0.01,0.02,0.01c0.01,0.01,0.02,0.02,0.03,0.02c0.45,0.37,0.88,0.76,1.28,1.19
				c0.2,0.21,0.39,0.43,0.57,0.66c0,0,0.01,0.01,0.01,0.01c0.1,0.14,0.2,0.28,0.3,0.42c0.32,0.48,0.61,0.99,0.86,1.51
				c0.02,0.05,0.04,0.09,0.06,0.14c0.03,0.07,0.06,0.15,0.09,0.22c0.11,0.31,0.21,0.62,0.3,0.94c0.09,0.34,0.17,0.68,0.24,1.03
				c0.04,0.2,0.07,0.4,0.1,0.61c0.01,0.04,0.01,0.07,0.01,0.08c0,0.05,0,0.1,0.01,0.15c0.16,1.57,0.14,3.15,0.14,4.72
				c0,3.25,0,6.49,0,9.74c0,3.28,0,6.56,0,9.83c0,1.65,0,3.31,0,4.96c0,0.74,0,1.48-0.03,2.22c-0.01,0.34-0.03,0.68-0.06,1.02
				c-0.01,0.18-0.03,0.36-0.05,0.54c0-0.01-0.03,0.2-0.04,0.24c-0.12,0.73-0.33,1.41-0.56,2.11c0,0.01-0.01,0.03-0.01,0.04
				c-0.02,0.04-0.04,0.07-0.05,0.1c-0.06,0.13-0.12,0.25-0.19,0.37c-0.14,0.26-0.3,0.52-0.47,0.77c-0.03,0.05-0.07,0.1-0.1,0.15
				c-0.07,0.08-0.13,0.17-0.2,0.25c-0.21,0.25-0.44,0.48-0.67,0.71c-0.2,0.19-0.41,0.37-0.63,0.56c-0.02,0.01-0.03,0.02-0.04,0.03
				c-0.01,0.01-0.02,0.02-0.03,0.02c-0.13,0.1-0.27,0.19-0.4,0.28c-0.51,0.34-1.04,0.65-1.59,0.92c-0.13,0.06-0.26,0.12-0.39,0.18
				c-0.03,0.02-0.07,0.03-0.1,0.04c-0.28,0.1-0.56,0.21-0.84,0.31c-0.69,0.23-1.39,0.4-2.1,0.54c-0.37,0.07-0.75,0.13-1.12,0.19
				c-0.02,0-0.03,0-0.04,0.01c-0.03,0-0.06,0-0.09,0.01c-0.23,0.03-0.46,0.05-0.7,0.07c-3.21,0.29-6.48,0.16-9.7,0.16
				c-0.3,0-0.61,0-0.91,0v4.24c2.28,0,4.56,0.01,6.83,0c3.22-0.03,6.58-0.21,9.62-1.37c2.78-1.06,5.27-2.76,6.94-5.27
				c1.85-2.79,1.97-6.2,1.97-9.44c0-3.4,0-6.81,0-10.21L123.13,121.92z M118.71,112.82c0.02,0.05,0.02,0.12,0.03,0.18
				C118.73,112.94,118.71,112.83,118.71,112.82z M109.21,154.03c0.06-0.01,0.12-0.02,0.13-0.02
				C109.3,154.02,109.26,154.02,109.21,154.03z M118.18,148.52c0.01-0.02,0.02-0.04,0.02-0.06
				C118.2,148.49,118.19,148.5,118.18,148.52z"/>
			<g>
				<path class="st11" d="M88.29,108.91h-1.45c-0.62,0-1.13-0.51-1.13-1.13V96.66c0-0.62,0.51-1.13,1.13-1.13h1.45
					c2.39,0,4.35,1.96,4.35,4.35v4.69C92.64,106.95,90.68,108.91,88.29,108.91z"/>
			</g>
			<g>
				<path class="st11" d="M107.16,108.91h1.45c0.62,0,1.13-0.51,1.13-1.13V96.66c0-0.62-0.51-1.13-1.13-1.13h-1.45
					c-2.39,0-4.35,1.96-4.35,4.35v4.69C102.82,106.95,104.77,108.91,107.16,108.91z"/>
			</g>
			<g>
				<path class="st12" d="M97.74,156.16h-5.09c-0.62,0-1.13,0.51-1.13,1.13v1.45c0,2.39,1.96,4.35,4.35,4.35h1.87V156.16z"/>
			</g>
			<g>
				<path class="st13" d="M103.24,156.16h-5.47v6.93h2.25c2.39,0,4.35-1.96,4.35-4.35v-1.45
					C104.37,156.67,103.86,156.16,103.24,156.16z"/>
			</g>
			<g>
				<circle class="st12" cx="136.69" cy="165.37" r="6.73"/>
			</g>
			<g>
				<circle class="st11" cx="136.74" cy="165.27" r="3.6"/>
			</g>
			<path class="st12" d="M84.58,106.42H82.9c-0.62,0-1.13-0.51-1.13-1.13v-6.02c0-0.62,0.51-1.13,1.13-1.13h1.68
				c0.62,0,1.13,0.51,1.13,1.13v6.02C85.71,105.91,85.2,106.42,84.58,106.42z"/>
			<path class="st12" d="M112.56,106.42h-1.68c-0.62,0-1.13-0.51-1.13-1.13v-6.02c0-0.62,0.51-1.13,1.13-1.13h1.68
				c0.62,0,1.13,0.51,1.13,1.13v6.02C113.69,105.91,113.18,106.42,112.56,106.42z"/>
		</g>
	</g>
</g>
</svg>
