<?xml version="1.0" encoding="utf-8"?>
<svg version="1.1" xmlns="http://www.w3.org/2000/svg" xmlns:xlink="http://www.w3.org/1999/xlink" x="0px" y="0px" width="145" height="145"
	 viewBox="0 0 260 260" style="enable-background:new 0 0 260 260;" xml:space="preserve">
<style type="text/css">
	.st0{fill:#8FE0D5;}
	.st1{fill:#5E5756;}
	.st2{fill:#4DB6AC;}
	.st3{fill:#009688;}
	.st4{fill:#FFFFFF;}
	.st5{fill:#F44336;}
	.st6{fill:#E6E6E6;}
	.st7{fill:#F1F1F1;}
	.st8{fill:#DEDEDE;}
	.st9{fill:#DDDCDD;}
	.st10{fill:#DBDBDB;}
	.st11{fill:#331917;}
	.st12{fill:#ECB1BE;}
	.st13{fill:#F7FAF9;}
</style>
<g>
	<circle class="st0" cx="130.08" cy="130.26" r="130.15"/>
	<g>
		<path class="st1" d="M105.29,43.05c-0.96,2.91-1.92,5.39-2.88,7.45v24.83h-3.32v-19.3c-0.96,1.4-2.03,2.77-3.17,4.17l-1.18-4.06
			c1.55-1.99,2.88-4.02,4.06-6.12c1.18-1.92,2.36-4.65,3.47-8.26L105.29,43.05z M119.38,47.22l-2.18,2.18h10.4v3.28h-9.67v6.79h8.52
			v3.17h-8.52v8.49h10.55v3.32h-24.94v-3.32h10.81v-8.49h-8.38v-3.17h8.38v-6.79h-9.81V49.4h11.92c-1.37-1.55-3.17-3.17-5.42-4.91
			l2.44-2.32C115.81,43.86,117.76,45.56,119.38,47.22z"/>
		<path class="st1" d="M144.32,43.2v2.58c-0.81,2.8-1.7,5.79-2.73,8.93c0.92,1.7,1.59,3.21,1.99,4.54c0.48,1.4,0.74,2.58,0.74,3.54
			c-0.07,1.92-0.44,3.32-1.18,4.13c-0.81,1-2.58,1.48-5.31,1.48l-1-3.47c0.59,0.11,1.18,0.15,1.73,0.15c0.74,0,1.29-0.15,1.66-0.52
			c0.41-0.26,0.63-0.85,0.63-1.77c0-1.11-0.18-2.14-0.52-3.14c-0.41-1.25-1.14-2.73-2.21-4.5c1.25-3.47,2.18-6.38,2.73-8.78h-4.61
			v29.26h-3.43V43.2H144.32z M165.24,58.33v3.17h-6.94v9.37c0,0.77,0.41,1.14,1.29,1.14h1.44c0.37,0,0.67-0.18,0.89-0.55
			c0.22-0.37,0.37-2.18,0.44-5.35l3.14,1c-0.26,3.91-0.66,6.16-1.25,6.86c-0.52,0.7-1.44,1.07-2.77,1.07h-3.17
			c-1.03,0-1.81-0.3-2.4-0.85c-0.63-0.59-0.92-1.37-0.92-2.32V61.5h-2.36c-0.22,3.54-0.81,6.31-1.84,8.3
			c-1.03,2.14-3.32,4.1-6.86,5.94l-2.32-2.88c2.8-1.25,4.72-2.62,5.72-4.1c1.11-1.55,1.77-3.98,1.99-7.27h-4.39v-3.17H165.24z
			 M156.42,45.19h8.23v8.08h-1.88V55h-16.12v-1.73h-2.18v-8.08h8.23c-0.48-1-1-1.96-1.59-2.88l3.73-0.55
			C155.35,42.79,155.9,43.94,156.42,45.19z M161.33,51.83v-3.47h-13.54v3.47H161.33z"/>
	</g>
	<g>
		<g>
			<g>
				<polygon class="st2" points="201.12,209.78 89.45,209.78 89.45,127.98 145.29,92.92 201.12,127.98 				"/>
			</g>
			<polygon class="st3" points="145.29,89.4 86.25,126.47 89.55,131.72 145.29,96.73 201.03,131.72 204.32,126.47 			"/>
			<path class="st4" d="M176.31,160.15c0,17.13-13.89,31.02-31.02,31.02c-17.13,0-31.02-13.89-31.02-31.02
				c0-17.13,13.89-31.02,31.02-31.02C162.42,129.14,176.31,143.02,176.31,160.15z"/>
			<rect x="139.08" y="141.54" class="st5" width="12.41" height="37.22"/>
			<rect x="126.68" y="153.95" class="st5" width="37.22" height="12.41"/>
		</g>
		<g>
			<path class="st6" d="M101.78,175.34c0,0,5.12-15.41-2.74-19.4s-30.81,4.12-30.81,4.12s-11.62,10.45-7.4,18.23
				c4.22,7.78,9.62,8.85,9.62,8.85S90.88,189.91,101.78,175.34z"/>
			<g>
				<path class="st6" d="M89.6,150.07c0.11,0.14,0.26,0.15,0.42,0.15c1.7,0,3.36,0.29,4.98,0.78c1.11,0.34,2.15,0.81,2.99,1.66
					c1.07,1.09,1.21,2.39,0.92,3.78c-0.39,1.83-1.8,2.73-3.35,3.44c-0.79,0.37-1.64,0.58-2.49,0.78c-0.59,0.14-1.15,0.09-1.71-0.21
					c-2.39-1.29-4.79-2.57-6.94-4.26c-1.05-0.82-2.04-1.7-2.66-2.94c-0.63-1.27-0.26-1.92,0.76-2.79c0.22-0.19,0.5-0.25,0.8-0.24
					c0.46,0.01,0.93,0,1.39,0c0.2,0,0.42,0.04,0.57-0.15C86.72,150.07,88.16,150.07,89.6,150.07z"/>
				<path class="st4" d="M92.46,161.02c-0.43,0-0.84-0.11-1.24-0.32l-0.16-0.09c-2.31-1.25-4.7-2.53-6.82-4.19
					c-0.97-0.76-2.07-1.69-2.74-3.03c-0.71-1.42-0.25-2.2,0.83-3.13c0.25-0.21,0.58-0.32,0.98-0.31c0.41,0.01,0.83,0,1.23,0l0.15,0
					c0.04,0,0.07,0,0.11,0c0.17,0,0.21,0,0.24-0.05l0.08-0.11h4.6l0.08,0.11c0.02,0.02,0.04,0.04,0.19,0.04c0.01,0,0.02,0,0.02,0
					c1.63,0,3.28,0.26,5.05,0.79c1.38,0.42,2.34,0.95,3.11,1.73c1.03,1.04,1.35,2.36,0.99,4.04c-0.42,1.96-1.93,2.91-3.5,3.64
					c-0.82,0.38-1.71,0.6-2.54,0.8C92.9,160.99,92.68,161.02,92.46,161.02z M83.27,150.5c-0.25,0-0.43,0.06-0.57,0.17
					c-0.99,0.85-1.24,1.35-0.69,2.46c0.62,1.24,1.66,2.12,2.58,2.84c2.08,1.63,4.45,2.91,6.74,4.14l0.16,0.09
					c0.47,0.25,0.97,0.31,1.52,0.19c0.81-0.19,1.67-0.4,2.43-0.76c1.66-0.77,2.84-1.62,3.19-3.25c0.32-1.5,0.05-2.62-0.84-3.53
					c-0.7-0.71-1.59-1.2-2.88-1.59c-1.71-0.52-3.31-0.77-4.88-0.77c-0.01,0-0.02,0-0.03,0c-0.12,0-0.34,0-0.52-0.15h-4.09
					c-0.2,0.16-0.43,0.16-0.59,0.15c-0.03,0-0.06,0-0.09,0l-0.15,0c-0.41,0-0.83,0.01-1.25,0C83.3,150.5,83.28,150.5,83.27,150.5z"
					/>
			</g>
			<path class="st7" d="M94.23,182.18c0.68,1.99,1.09,4.05,1.5,6.12c0.05,0.27,0.03,0.56,0.05,0.83c-0.23,0.08-0.4-0.05-0.56-0.17
				c-0.82-0.58-1.65-0.45-2.47,0c-1.81,0.99-2.36,2.68-2.47,4.59c-0.17,3.1,0.52,6.07,1.42,9c0.8,2.6,1.74,5.16,2.86,7.64
				c0.17,0.37,0.34,0.75,0.28,1.18c-0.75,1.47-1.92,2.36-3.58,2.51c-0.68,0.06-1.36,0.33-2.04,0.05c-0.44-0.52-0.45-1.19-0.59-1.8
				c-0.74-3.18-1.33-6.38-1.42-9.66c-0.04-1.54-0.17-3.08-0.55-4.58c-0.03-0.1-0.05-0.2-0.08-0.3c-0.66-2.43-2.66-2.99-4.54-1.26
				c-0.99,0.91-1.46,2.11-1.73,3.38c-0.58,2.67-0.79,5.37-0.57,8.11c0.16,2.07,0.33,4.14,0.61,6.21c0.08,0.61-0.16,0.93-0.74,1.04
				c-3.89,0.73-7.73,0.52-11.49-0.72c-1.6-0.53-3.1-1.25-4.34-2.43c-0.4-0.38-0.9-0.58-1.35-0.86c0.12-0.17,0.32-0.12,0.54-0.19
				c-0.31-0.55-0.55-1.09-1.16-1.33c-0.34-1.22-0.85-2.4-0.91-3.69c-0.03-0.56-0.1-1.11,0-1.67c0.34-0.7,0.42-0.73,1.08-0.33
				c1.26,0.78,2.58,1.33,4.08,1.5c2.09,0.24,3.99-0.26,5.72-1.38c2.94-1.9,4.38-4.67,4.5-8.14c0.1-2.92-0.87-5.44-2.89-7.55
				c-0.16-0.17-0.34-0.32-0.35-0.58c0.29-0.42,0.74-0.3,1.13-0.29c4.42,0.14,8.67-0.73,12.83-2.16c2.22-0.76,4.32-1.78,6.39-2.85
				C93.64,182.24,93.89,181.97,94.23,182.18z"/>
			<path class="st8" d="M94.23,182.18c-0.98,0.49-1.96,0.99-2.95,1.48c-3.16,1.56-6.49,2.62-9.94,3.33
				c-1.08,0.22-2.17,0.31-3.25,0.47c-1.48,0.22-2.97,0.09-4.45,0.14c-0.2,0.01-0.42-0.04-0.57,0.15c-0.84,0.08-1.64-0.12-2.43-0.33
				c-0.12-0.03-0.21-0.13-0.19-0.28c0.17-0.12,0.1-0.27,0.03-0.41c-0.34-0.77-0.14-1.5,0.12-2.24c0.32-0.91,0.89-1.67,1.46-2.42
				c0.2-0.26,0.06-0.34-0.08-0.48c0.2-0.22,0.48-0.12,0.73-0.16c0.49-0.06,0.96-0.14,1.41-0.37c1.09-0.54,1.33-1.12,0.96-2.26
				c0.53-0.16,0.87-0.6,1.28-0.92c1.55-1.2,3.14-2.34,4.89-3.25c0.11,1.43,1.22,1.76,2.31,2.06c0.68,0.19,1.03,0.6,1.19,1.26
				c0.21,0.89-0.03,1.6-0.71,2.03c-0.71,0.44-1.58,0.29-2.3-0.4c0.81,1.04,2.22,1.01,2.91-0.14c0.34-0.57,0.58-0.73,1.24-0.46
				c1.27,0.51,2.33-0.28,2.41-1.69c-0.24,1.25-0.84,1.77-1.93,1.7c-0.86-0.06-1.65-0.89-1.66-1.75c0-0.23,0.11-0.38,0.25-0.54
				c0.47-0.55,0.73-1.24,1.14-1.83c0.51-0.74,0.03-1.3-0.25-1.91c1.63-0.34,3.26-0.57,4.93-0.69c0.95-0.07,1.89-0.09,2.84-0.1
				c0.63,1.24,1.64,1.52,3.05,0.86c0.36-0.17,0.64-0.55,1.11-0.42c1.27,0.24,2.48,0.61,3.39,1.61c0.1,0.11,0.21,0.23,0.29,0.35
				c0.44,0.69,0.44,0.94-0.06,1.58c-1.01,1.29-2.21,2.39-3.48,3.43C96.74,180.54,95.47,181.33,94.23,182.18z"/>
			<path class="st9" d="M101.04,211.81c-0.68,0.07-1.27-0.22-1.88-0.43c-0.11-0.2-0.34-0.29-0.44-0.52
				c-0.09,0.17,0.07,0.34-0.01,0.49c-0.25,0-0.33,0.2-0.44,0.37c-0.44,0.65-1.07,0.79-1.79,0.68c-0.72-0.11-1.33-0.42-1.78-1.02
				c-0.04-0.77-0.47-1.41-0.75-2.08c-1.28-3.02-2.37-6.1-3.17-9.29c-0.55-2.22-0.88-4.47-0.7-6.76c0.13-1.67,0.62-3.22,2.15-4.21
				c1.42-0.92,2.33-0.96,3.54,0.1c1.7,2.11,2.45,4.65,3.21,7.18c0.29,0.96,0.69,1.87,1.09,2.79c0.86,1.98,1.74,3.94,2.75,5.85
				c0.18,0.34,0.33,0.72,0.59,0.98c0.55,0.53,0.6,1.18,0.52,1.85c-0.08,0.61-0.3,1.19-0.61,1.73c-0.22,0.38-0.4,0.4-0.74,0.12
				c-0.27-0.22-0.54-0.45-0.79-0.66c-0.06,0.19,0.05,0.43,0.1,0.68c0.15,0.72,0.09,1.39-0.62,1.82
				C101.15,211.54,101.03,211.63,101.04,211.81z"/>
			<path class="st9" d="M70.45,187.13c0.38,0.23,0.81,0.26,1.23,0.3c0.49,0.04,0.95,0.14,1.4,0.32c1.51,1.28,2.49,2.9,3.01,4.8
				c0.74,2.67,0.53,5.28-0.73,7.75c-1.41,2.77-3.69,4.49-6.71,5.14c-1.84,0.4-3.65,0.15-5.37-0.67c-0.53-0.25-1.06-0.52-1.55-0.85
				c-0.39-0.26-0.4-0.25-0.7,0.19c-0.19-0.15-0.23-0.36-0.21-0.58c0.07-0.15,0.27-0.07,0.35-0.19c0.07-1.29,0.4-2.52,0.77-3.74
				c0.78-2.59,1.93-5.01,3.23-7.38c0.91-1.67,1.94-3.26,2.98-4.84c0.52-0.8,0.53-0.79,1.41-0.52
				C69.87,186.94,70.16,187.04,70.45,187.13z"/>
			<g>
				<path class="st6" d="M68.29,161.38c0.05,1.2-0.18,2.33-0.42,3.46c-0.49,2.31-1.22,4.55-2.04,6.76c-0.13,0.35-0.33,0.6-0.64,0.82
					c-1.15,0.82-2.42,1.36-3.78,1.67c-1.65,0.37-3.19,0.15-4.45-1.14c-1.29-1.31-1.48-2.81-0.88-4.47c0.51-1.42,1.33-2.65,2.29-3.8
					c0.86-1.02,1.69-2.07,2.68-2.96c1.31-1.18,2.58-2.43,4.03-3.43c0.98-0.68,2.25-0.33,2.82,0.73
					C68.3,159.78,68.32,160.59,68.29,161.38z"/>
				<path class="st4" d="M60.04,174.53c-1.29,0-2.36-0.46-3.27-1.39c-1.29-1.31-1.61-2.91-0.95-4.76c0.47-1.3,1.21-2.53,2.34-3.88
					l0.3-0.36c0.75-0.9,1.52-1.83,2.41-2.63c0.27-0.25,0.54-0.49,0.82-0.74c1.02-0.94,2.08-1.9,3.25-2.71
					c0.53-0.37,1.15-0.49,1.76-0.34c0.62,0.15,1.15,0.57,1.47,1.16c0.44,0.83,0.45,1.72,0.42,2.49c0.05,1.21-0.16,2.31-0.42,3.51
					c-0.44,2.05-1.09,4.21-2.05,6.8c-0.15,0.4-0.38,0.7-0.74,0.96c-1.14,0.81-2.44,1.39-3.88,1.71
					C60.97,174.48,60.49,174.53,60.04,174.53z M66.18,158.22c-0.33,0-0.65,0.1-0.93,0.3c-1.14,0.79-2.18,1.74-3.19,2.67
					c-0.27,0.25-0.54,0.5-0.82,0.75c-0.86,0.77-1.62,1.69-2.35,2.57l-0.3,0.36c-1.09,1.3-1.8,2.48-2.24,3.71
					c-0.59,1.65-0.32,3.01,0.82,4.18c1.08,1.1,2.46,1.45,4.19,1.06c1.36-0.31,2.6-0.85,3.68-1.62c0.27-0.19,0.43-0.4,0.54-0.69
					c0.95-2.57,1.6-4.7,2.03-6.72c0.25-1.17,0.46-2.24,0.41-3.39l0-0.01l0-0.01c0.03-0.7,0.03-1.5-0.35-2.22
					c-0.24-0.45-0.64-0.77-1.1-0.88C66.43,158.24,66.3,158.22,66.18,158.22z"/>
			</g>
			<path class="st10" d="M60.88,203.5c0.11,0.19,0.18,0.39,0.16,0.61c-0.01,1.68,0.16,3.33,0.87,4.89c0.06,0.13,0.34,0.44-0.11,0.52
				c-3.63-1.36-7.18-2.88-10.42-5.05c-0.88-0.59-1.67-1.29-2.34-2.11c-1.13-1.38-0.89-2.85,0.62-3.78c0.57-0.35,1.19-0.23,1.78-0.04
				c1.44,0.45,2.72,1.22,3.88,2.15c1.41,1.13,2.96,1.91,4.65,2.49c0.19,0.07,0.39,0.11,0.59,0.17
				C60.65,203.44,60.81,203.38,60.88,203.5z"/>
			<path class="st11" d="M85.86,172.95c0.85,0.69,0.95,1.12,0.39,2.04c-0.41,0.68-0.67,1.45-1.31,1.98
				c-0.05,0.04-0.07,0.14-0.07,0.21c0,0.82,0.82,1.65,1.64,1.67c0.91,0.03,1.56-0.62,1.58-1.61c0-0.05,0-0.1-0.01-0.15
				c-0.04-0.22,0.04-0.36,0.26-0.38c0.23-0.02,0.2,0.19,0.21,0.33c0.1,0.75-0.13,1.38-0.72,1.85c-0.61,0.49-1.31,0.58-2.03,0.3
				c-0.21-0.08-0.4-0.22-0.63-0.34c-0.09,0.21-0.17,0.43-0.28,0.63c-0.72,1.33-2.64,1.42-3.46,0.16c-0.1-0.15-0.32-0.34-0.05-0.51
				c0.2-0.12,0.32,0.05,0.42,0.21c0.32,0.49,0.77,0.74,1.37,0.72c0.85-0.03,1.49-0.7,1.49-1.55c0-0.43-0.19-0.79-0.32-1.18
				c-0.06-0.18-0.22-0.19-0.36-0.24c-0.55-0.2-1.1-0.42-1.65-0.63c-1.04-0.41-1.21-0.7-1.07-1.81c0.26-0.37,0.61-0.58,1.04-0.72
				c0.79-0.26,1.58-0.53,2.37-0.82C85.06,172.93,85.45,172.88,85.86,172.95z"/>
			<path class="st11" d="M76.14,169.11c0.02,1.17-0.96,2.18-2.12,2.2c-1.14,0.01-2.11-0.93-2.14-2.08
				c-0.04-1.21,0.87-2.18,2.07-2.21C75.13,166.98,76.11,167.92,76.14,169.11z"/>
			<path class="st11" d="M89.78,164.88c-0.01,1.22-0.94,2.14-2.14,2.12c-1.17-0.03-2.07-0.94-2.08-2.12
				c-0.01-1.23,0.9-2.1,2.12-2.15C88.64,162.69,89.88,163.57,89.78,164.88z"/>
			<path class="st12" d="M97.78,172.61c-0.16,0.09-0.32,0.16-0.47,0.26c-0.71,0.52-1.49,0.72-2.37,0.67
				c-0.91-0.05-1.32-0.46-1.32-1.38c0.85-1.2,2.03-1.66,3.47-1.57c1.06,0.07,1.42,0.75,0.86,1.68
				C97.89,172.38,97.84,172.5,97.78,172.61z"/>
			<path class="st12" d="M75.09,178.8c0.63,0.55,0.64,1.07,0.09,1.68c-0.86,0.96-1.96,1.22-3.19,1.1c-0.12-0.04-0.25-0.06-0.36-0.11
				c-0.75-0.38-0.88-1-0.3-1.61C72.35,178.74,73.61,178.37,75.09,178.8z"/>
			<path class="st7" d="M60.88,203.5c-0.13-0.01-0.24-0.04-0.31-0.16c0.21,0,0.41,0,0.62-0.01
				C61.12,203.47,61.01,203.49,60.88,203.5z"/>
			<path class="st9" d="M89.29,213.85c-0.21,0.18-0.45,0.33-0.55,0.61c-0.08,0.25-0.27,0.43-0.45,0.61
				c-0.68,0.71-0.82,0.69-1.27-0.22c-0.04-0.09-0.02-0.21-0.18-0.26c-0.06,0.32-0.19,0.64-0.17,0.95c0.04,0.61-0.39,0.78-0.8,0.99
				c-0.47,0.24-0.94,0.25-1.35-0.13c-0.34-0.31-0.67-0.63-0.82-1.09c-0.08,0.06-0.13,0.08-0.15,0.11c-0.3,0.5-0.57,1.12-1.29,1.01
				c-0.8-0.13-1.65-0.3-1.94-1.24c-0.14-0.46-0.51-0.21-0.77-0.29c0.64-0.29,0.57-0.28,0.51-1.06c-0.09-1.12-0.26-2.23-0.38-3.35
				c-0.11-1.07-0.12-2.14-0.23-3.21c-0.12-1.14-0.13-2.3,0.05-3.45c0.12-0.75,0.07-1.53,0.2-2.29c0.28-1.65,0.56-3.29,1.56-4.69
				c0.89-1.25,2.12-1.82,3.66-1.69c0.63,0.05,1,0.49,1.3,0.98c0.55,0.89,0.74,1.91,0.89,2.92c0.23,1.57,0.32,3.15,0.34,4.74
				c0.01,0.91,0.17,1.83,0.32,2.74c0.23,1.44,0.48,2.87,0.75,4.3c0.12,0.63,0.19,1.28,0.5,1.84
				C89.24,213.06,88.96,213.52,89.29,213.85z"/>
			<path class="st13" d="M98.71,211.35c-0.34-0.23-0.16-0.51-0.07-0.8c0.07,0.35,0.64,0.36,0.52,0.83
				C99.01,211.37,98.86,211.36,98.71,211.35z"/>
		</g>
	</g>
</g>
</svg>
