<?xml version="1.0" encoding="utf-8"?>
<svg version="1.1" xmlns="http://www.w3.org/2000/svg" xmlns:xlink="http://www.w3.org/1999/xlink" x="0px" y="0px" width="145" height="145"
	 viewBox="0 0 260 260" style="enable-background:new 0 0 260 260;" xml:space="preserve">
<style type="text/css">
	.st0{fill:#DE6C6E;}
	.st1{fill:#FFFFFF;}
	.st2{fill:#AEC6BE;}
	.st3{fill:#0AA095;}
	.st4{fill:#525252;}
	.st5{fill:#6E7E7A;}
	.st6{fill:none;stroke:#6E7E7A;stroke-width:3.848;stroke-miterlimit:10;}
</style>
<g>
	<circle class="st0" cx="130.08" cy="130.26" r="130.15"/>
	<g>
		<path class="st1" d="M109.75,43.3v-2.62h3.43v2.62h14.28v3.03h-14.28v10.81h15.02v3.17h-14.46c0.92,2.1,1.92,3.8,3.03,5.13
			c2.29-1,4.46-2.58,6.53-4.72l2.58,2.47c-1.99,1.92-4.21,3.47-6.64,4.57c1.62,1.29,4.61,2.18,8.96,2.62l-1.18,3.47
			c-5.05-0.96-8.67-2.44-10.81-4.39c-2.14-1.96-4.13-5.02-5.94-9.15h-5.57v8.93c2.43-0.44,4.91-1,7.49-1.73v3.32
			c-4.76,1.25-10.04,2.25-15.87,3.03l-0.41-3.47c1.77-0.11,3.58-0.29,5.46-0.59v-9.48h-6.35v-3.17h14.72V46.33H95.92V43.3H109.75z
			 M107.28,48.17v7.23H96.92v-7.23H107.28z M104.4,50.64h-4.61v2.29h4.61V50.64z M126.17,48.17v7.23h-10.66v-7.23H126.17z
			 M123.29,50.64h-4.91v2.29h4.91V50.64z"/>
		<path class="st1" d="M140.15,42.56v-2.29h3.32v2.29h4.17v2.88h-4.17v1.88h-3.32v-1.88h-8.52v-2.88H140.15z M164.94,48.17v2.77
			h-10.96v2.95c3.32-0.18,6.2-0.85,8.63-1.96l1.44,2.44c-2.58,1.33-5.94,2.03-10.07,2.14v1.62c0,0.66,0.41,1,1.29,1h5.05
			c0.44,0,0.81-0.11,1.03-0.33c0.26-0.18,0.44-1.18,0.55-2.99l3.32,1.03c-0.3,2.47-0.78,3.91-1.4,4.35c-0.59,0.48-1.59,0.7-3.06,0.7
			h-6.79c-1.07,0-1.92-0.26-2.51-0.77c-0.66-0.52-0.96-1.25-0.96-2.14v-8.04h-7.53c-0.44,0.66-0.92,1.25-1.4,1.73h7.79v2.29
			c-1.44,2.14-3.06,3.8-4.87,5.02c-2.32,1.62-6.05,2.95-11.14,4.06l-1.14-2.88c2.58-0.33,4.8-0.85,6.68-1.51
			c-0.7-1.07-1.48-2.21-2.36-3.47c-0.81,0.44-1.7,0.85-2.58,1.22l-1.59-2.73c2.8-0.96,4.83-1.85,6.01-2.69
			c0.48-0.29,0.92-0.63,1.33-1.03h-7.64v-2.77H164.94z M141.74,64.77v-2.32h3.47v2.32h8.04V62.6h3.47v2.18h8.23v2.73h-8.23V74h-3.47
			V67.5h-8.08c-0.22,1.81-1.14,3.21-2.84,4.32c-1.7,1.03-4.43,1.84-8.23,2.44l-1.88-3.03c3.65-0.41,6.12-0.89,7.45-1.51
			c1.25-0.59,1.92-1.33,2.03-2.21h-9.48v-2.73H141.74z M141.55,58.43c0.18-0.07,0.37-0.18,0.52-0.3c1.29-0.66,2.47-1.66,3.5-3.03
			h-6.75C139.93,56.36,140.81,57.47,141.55,58.43z M153.25,42.56v-2.29h3.47v2.29h8.23v2.88h-8.23v1.88h-3.47v-1.88h-3.87v-2.88
			H153.25z"/>
	</g>
	<g>
		<g>
			<g>
				<path class="st2" d="M162.85,114.91c0.11-1.03,0.02,0.78-0.02-0.28c-0.32-9.42-9.92-26.81-30.48-26.81
					c-19.24,0-30.48,15.63-30.48,26.81c0,1.06-0.12-0.75-0.02,0.28h-8.04v21.58h77.61v-21.58H162.85z"/>
				<path class="st2" d="M155.73,121.05c0.08-0.79,0.12-1.59,0.12-2.41c0-12.97-10.52-23.49-23.49-23.49s-23.49,10.52-23.49,23.49
					c0,0.81,0.04,1.62,0.12,2.41h-8.95v77.93h64.63v-77.93H155.73z"/>
				<rect x="90.53" y="193.48" class="st2" width="83.66" height="9.86"/>
				<rect x="86.74" y="197.6" class="st3" width="91.22" height="6.53"/>
				<rect x="81.82" y="201.67" class="st3" width="101.08" height="11.52"/>
				<rect x="76.77" y="210.67" class="st3" width="111.16" height="3.9"/>
			</g>
			<g>
				<rect x="67.43" y="210.77" class="st4" width="5.5" height="3.9"/>
				<rect x="60.5" y="210.96" class="st4" width="5.33" height="3.52"/>
				<rect x="55.3" y="212.13" class="st4" width="3.7" height="2.32"/>
			</g>
			<rect x="100.04" y="140.3" class="st5" width="6.02" height="4.93"/>
			<rect x="100.04" y="149.17" class="st5" width="6.02" height="4.93"/>
			<rect x="158.66" y="140.3" class="st5" width="6.02" height="4.93"/>
			<rect x="158.66" y="149.17" class="st5" width="6.02" height="4.93"/>
			<polygon class="st6" points="149.64,128.21 136.15,128.21 136.15,116.48 129.1,116.48 129.1,128.21 115.61,128.21 115.61,135.11 
				129.1,135.11 129.1,164.62 136.15,164.62 136.15,135.11 149.64,135.11 			"/>
			<g>
				
					<rect x="191.4" y="210.77" transform="matrix(-1 -4.563384e-11 4.563384e-11 -1 388.3107 425.4371)" class="st4" width="5.5" height="3.9"/>
				
					<rect x="198.51" y="210.96" transform="matrix(-1 -4.335122e-11 4.335122e-11 -1 402.349 425.4371)" class="st4" width="5.33" height="3.52"/>
				
					<rect x="205.34" y="212.13" transform="matrix(-1 -4.626445e-11 4.626445e-11 -1 414.3819 426.5831)" class="st4" width="3.7" height="2.32"/>
			</g>
		</g>
		<g>
			<path class="st4" d="M112.31,169.31c0.65,0.21,1.38,0.07,2.01-0.38c0.58-0.42,1.04-1.06,1.28-1.82c0.24-0.76,0.25-1.55,0.01-2.23
				c-0.25-0.73-0.77-1.26-1.42-1.47c-0.65-0.21-1.38-0.07-2.01,0.38c-0.58,0.42-1.04,1.06-1.28,1.82c-0.24,0.76-0.25,1.55-0.01,2.23
				C111.14,168.57,111.66,169.11,112.31,169.31z"/>
			<path class="st4" d="M117.48,170.96c0.65,0.21,1.38,0.07,2.01-0.38c0.58-0.42,1.04-1.06,1.28-1.82c0.24-0.76,0.25-1.55,0.01-2.23
				c-0.25-0.73-0.77-1.26-1.42-1.47c-0.65-0.21-1.38-0.07-2.01,0.38c-0.58,0.42-1.04,1.06-1.28,1.82c-0.24,0.76-0.25,1.55-0.01,2.23
				C116.31,170.22,116.83,170.76,117.48,170.96z"/>
			<path class="st4" d="M124.65,170.5c-0.22-0.63-0.67-1.1-1.24-1.28s-1.21-0.06-1.76,0.33c-0.5,0.36-0.9,0.91-1.1,1.57
				c-0.21,0.65-0.21,1.33-0.01,1.92c0.22,0.63,0.67,1.1,1.24,1.28c0.57,0.18,1.21,0.06,1.76-0.33c0.5-0.36,0.9-0.91,1.1-1.57
				C124.85,171.77,124.85,171.09,124.65,170.5z"/>
			<path class="st4" d="M108.62,169.22c0.5-0.36,0.9-0.91,1.1-1.57c0.21-0.65,0.21-1.33,0.01-1.92c-0.22-0.63-0.67-1.1-1.24-1.28
				c-0.57-0.18-1.21-0.06-1.76,0.33c-0.5,0.36-0.9,0.91-1.1,1.57c-0.21,0.65-0.21,1.33-0.01,1.92c0.22,0.63,0.67,1.1,1.24,1.28
				C107.43,169.73,108.07,169.61,108.62,169.22z"/>
			<path class="st4" d="M114.39,171.71c-2.16-0.69-4.45-0.5-6.46,0.54s-3.5,2.8-4.19,4.95c-0.22,0.68-0.23,1.4-0.04,2.08
				c0.33,1.19,1.23,2.13,2.41,2.51c0.97,0.31,1.8,0.33,2.6,0.34c0.75,0.02,1.46,0.03,2.26,0.29c0.81,0.26,1.39,0.66,2.01,1.08
				c0.66,0.45,1.35,0.92,2.31,1.22c1.18,0.38,2.46,0.13,3.42-0.65c0.55-0.45,0.96-1.04,1.17-1.72c0.69-2.16,0.5-4.45-0.54-6.46
				C118.3,173.89,116.54,172.4,114.39,171.71z"/>
		</g>
		<g>
			<path class="st4" d="M149.35,181.4c0.47-0.15,0.85-0.54,1.03-1.06c0.17-0.49,0.17-1.06,0-1.62c-0.17-0.55-0.5-1.02-0.92-1.32
				c-0.45-0.33-0.98-0.43-1.46-0.28c-0.47,0.15-0.85,0.54-1.03,1.06c-0.17,0.49-0.17,1.07,0,1.62c0.17,0.55,0.5,1.02,0.93,1.32
				C148.35,181.44,148.88,181.55,149.35,181.4z"/>
			<path class="st4" d="M153.11,180.21c0.47-0.15,0.85-0.54,1.03-1.06c0.17-0.49,0.17-1.07,0-1.62c-0.17-0.55-0.5-1.02-0.93-1.32
				c-0.45-0.33-0.98-0.43-1.46-0.28s-0.85,0.54-1.03,1.06c-0.17,0.49-0.17,1.07,0,1.62c0.17,0.55,0.5,1.02,0.93,1.32
				C152.11,180.26,152.64,180.36,153.11,180.21z"/>
			<path class="st4" d="M157.17,176.94c-0.4-0.28-0.86-0.37-1.28-0.24c-0.41,0.13-0.74,0.47-0.91,0.93c-0.15,0.42-0.15,0.92,0,1.39
				c0.15,0.47,0.43,0.88,0.8,1.14c0.4,0.28,0.86,0.37,1.28,0.24c0.41-0.13,0.74-0.47,0.91-0.93c0.15-0.42,0.15-0.92,0-1.39
				C157.82,177.61,157.54,177.2,157.17,176.94z"/>
			<path class="st4" d="M147.12,182.89c0.15-0.42,0.15-0.92,0-1.39c-0.15-0.47-0.43-0.88-0.8-1.14c-0.4-0.28-0.86-0.37-1.28-0.24
				c-0.41,0.13-0.74,0.47-0.91,0.93c-0.15,0.42-0.15,0.92,0,1.39c0.15,0.47,0.43,0.88,0.8,1.14c0.4,0.28,0.86,0.37,1.28,0.24
				C146.63,183.68,146.96,183.35,147.12,182.89z"/>
			<path class="st4" d="M151.59,181.95c-1.57,0.49-2.85,1.57-3.61,3.03s-0.91,3.12-0.41,4.69c0.16,0.49,0.45,0.93,0.85,1.25
				c0.7,0.57,1.62,0.75,2.48,0.48c0.7-0.22,1.2-0.56,1.68-0.88c0.45-0.3,0.88-0.59,1.46-0.78c0.59-0.18,1.1-0.19,1.64-0.2
				c0.58-0.01,1.18-0.02,1.89-0.24c0.86-0.27,1.51-0.95,1.76-1.81c0.14-0.5,0.13-1.02-0.02-1.51c-0.49-1.57-1.57-2.85-3.03-3.61
				C154.82,181.6,153.16,181.46,151.59,181.95z"/>
		</g>
	</g>
</g>
</svg>
