<?xml version="1.0" encoding="utf-8"?>
<svg version="1.1" xmlns="http://www.w3.org/2000/svg" xmlns:xlink="http://www.w3.org/1999/xlink" x="0px" y="0px" width="145" height="145"
	 viewBox="0 0 260 260" style="enable-background:new 0 0 260 260;" xml:space="preserve">
<style type="text/css">
	.st0{fill:#FACFBC;}
	.st1{fill:#5E5756;}
	.st2{fill-rule:evenodd;clip-rule:evenodd;fill:#FFFFFF;}
	.st3{fill-rule:evenodd;clip-rule:evenodd;fill:#CBCBCB;}
	.st4{fill-rule:evenodd;clip-rule:evenodd;fill:#989898;}
	.st5{fill-rule:evenodd;clip-rule:evenodd;fill:#E0D989;}
	.st6{fill-rule:evenodd;clip-rule:evenodd;fill:#FFED9D;}
	.st7{fill-rule:evenodd;clip-rule:evenodd;fill:#EDEDED;}
	.st8{fill:#F99C38;}
	.st9{fill:#FCAC42;}
	.st10{fill:#FFBA55;}
	.st11{fill:#FFAF45;}
	.st12{fill:#F93D03;}
	.st13{fill:#FF6022;}
	.st14{fill:#1E0903;}
	.st15{fill:#F4A11C;}
	.st16{fill:#FF941F;}
	.st17{fill:#E2870E;}
	.st18{fill:#76CAE2;}
	.st19{fill:#FFFFFF;}
	.st20{fill:#F2FEF2;}
	.st21{fill:#FF5823;}
	.st22{fill:#D6510C;}
	.st23{fill:#EFEFEF;}
	.st24{fill:#7CC7DE;}
</style>
<g>
	<circle class="st0" cx="130.08" cy="130.26" r="130.15"/>
	<g>
		<path class="st1" d="M127.17,45.77c-3.73,0.96-8.04,1.7-12.95,2.14V53h12.25v3.43h-12.25v5.2h14.28v3.62h-14.28v6.6
			c0,1.4-0.33,2.4-0.92,2.99c-0.59,0.59-1.62,0.92-3.14,0.92h-5.9l-0.85-3.91c2.33,0.22,4.24,0.29,5.76,0.29
			c0.96,0,1.44-0.26,1.44-0.85v-6.05H94.48v-3.62h16.12v-5.2H96.91V53h13.69v-4.76c-4.17,0.29-8.67,0.44-13.54,0.44l-1.14-3.47
			c11.51,0,21.33-0.85,29.41-2.62L127.17,45.77z"/>
		<path class="st1" d="M140.85,44.77c-1.96,2.58-4.39,4.87-7.34,6.94l-2.14-2.92c2.66-1.62,5.05-3.62,7.2-6.05L140.85,44.77z
			 M140.59,52.85c-0.81,1.88-1.62,3.47-2.47,4.8v18.71h-3.17v-14.8c-0.77,0.81-1.59,1.62-2.43,2.4l-1.14-3.91
			c1.25-1.18,2.4-2.36,3.43-3.62c1-1.11,1.96-2.73,2.92-4.87L140.59,52.85z M144.17,55.73c-0.11,5.94-0.7,11.55-1.73,16.86
			l-3.03-0.74c1.14-5.5,1.73-10.92,1.73-16.27L144.17,55.73z M145.61,49.38v-6.9h3.17v6.9h5.5v3.03h-5.5v23.95h-3.17V52.41h-4.87
			v-3.03H145.61z M154.28,47.35l-2.88,1.33c-0.63-1.7-1.29-3.17-2.03-4.5l2.88-0.85C152.99,44.59,153.69,45.95,154.28,47.35z
			 M153.25,55.58v10.81c0,0.66,0.37,1,1.18,1h1.44v2.88h-2.18c-1.11,0-1.96-0.22-2.55-0.66c-0.63-0.44-0.92-1.18-0.92-2.21V55.58
			H153.25z M165.39,54.73v3.28h-3.32v14.43c0,1.33-0.29,2.25-0.88,2.77c-0.52,0.55-1.48,0.85-2.88,0.85h-3.17l-0.7-3.62
			c1.18,0.22,2.21,0.29,3.03,0.29c0.85,0,1.29-0.29,1.29-0.89V58.02h-3.91v-3.28H165.39z M164.65,44.62v3.32h-9.37v-3.32H164.65z"/>
	</g>
	<g>
		<g>
			<g>
				<path class="st2" d="M69.43,160.61h14.6c1.57,0,2.85-1.27,2.85-2.85v-0.36c0-1.57-1.27-2.85-2.85-2.85h-14.6
					c-1.57,0-2.85,1.27-2.85,2.85v0.36C66.58,159.34,67.86,160.61,69.43,160.61z"/>
				<g>
					<rect x="194.06" y="176.2" class="st3" width="5.31" height="40.95"/>
					<g>
						
							<ellipse transform="matrix(0.9995 -0.0312 0.0312 0.9995 -6.418 6.24)" class="st2" cx="196.71" cy="208.75" rx="9.74" ry="9.74"/>
						
							<ellipse transform="matrix(0.2298 -0.9732 0.9732 0.2298 -51.6452 352.2404)" class="st4" cx="196.71" cy="208.75" rx="4.47" ry="4.47"/>
					</g>
				</g>
				<g>
					<rect x="65.61" y="176.2" class="st3" width="5.31" height="40.95"/>
					<g>
						
							<ellipse transform="matrix(0.9993 -0.0376 0.0376 0.9993 -7.7931 2.7117)" class="st2" cx="68.27" cy="208.75" rx="9.74" ry="9.74"/>
						
							<ellipse transform="matrix(0.2268 -0.9739 0.9739 0.2268 -150.5247 227.8898)" class="st4" cx="68.27" cy="208.75" rx="4.47" ry="4.47"/>
					</g>
				</g>
				<path class="st2" d="M202.7,191.66h0.42c1.84,0,3.33-1.49,3.33-3.33v-56.03c0-1.84-1.49-3.33-3.33-3.33h-0.42
					c-1.84,0-3.33,1.49-3.33,3.33v56.03C199.37,190.16,200.86,191.66,202.7,191.66z"/>
				<path class="st2" d="M61.86,177.1h0.42c1.84,0,3.33-1.49,3.33-3.33v-56.03c0-1.84-1.49-3.33-3.33-3.33h-0.42
					c-1.84,0-3.33,1.49-3.33,3.33v56.03C58.52,175.6,60.01,177.1,61.86,177.1z"/>
				
					<rect x="65.61" y="157.78" transform="matrix(-1 -1.224647e-16 1.224647e-16 -1 264.9823 321.5092)" class="st5" width="133.76" height="5.94"/>
				<path class="st6" d="M125.79,157.78h73.58v-1c0-8.67-7.03-15.7-15.7-15.7h-57.89V157.78z"/>
				<g>
					<rect x="58.52" y="163.72" class="st7" width="147.94" height="28.96"/>
					
						<rect x="90.72" y="172.72" transform="matrix(-1 -1.224647e-16 1.224647e-16 -1 269.914 357.0976)" class="st3" width="88.48" height="11.66"/>
				</g>
			</g>
			<g id="XMLID_225_">
				<g id="XMLID_227_">
					<path id="XMLID_293_" class="st8" d="M97.25,139.82l-1.67,20.35l6.48,0.73c4.26-6.28,7.31-13.73,9.48-21.03
						C106.82,141.54,101.68,141.98,97.25,139.82z"/>
					<g id="XMLID_228_">
						<path id="XMLID_292_" class="st9" d="M129.47,158.03c-2.52-1.59-5.46-2.82-8.42-2.42c-3.25,0.43-5.9,2.71-8.35,4.89
							c-0.59,0.53-1.19,1.06-1.78,1.59l26.59,1.2c-0.2-0.1-0.4-0.2-0.61-0.3C134.27,161.6,132,159.62,129.47,158.03z"/>
						<path id="XMLID_291_" class="st10" d="M154.69,140.27c-0.5-5.52-2.33-10.91-5.27-15.6c-5.35-1.18-11.27,0.03-16.28,2.48
							c-5.97,2.91-11.03,7.4-16.85,10.59c-1.5,0.82-3.1,1.55-4.75,2.13c-2.17,7.3-5.63,14.92-9.89,21.2l9.27,1.02
							c0.59-0.53,1.19-1.06,1.78-1.59c2.45-2.18,5.1-4.46,8.35-4.89c2.95-0.39,5.9,0.83,8.42,2.42c2.52,1.59,4.8,3.57,7.43,4.96
							c0.2,0.11,0.4,0.21,0.61,0.3l2.53,0.11c3.64-0.23,7.37,0.51,10.78-0.07c0.22-0.62,0.44-1.25,0.65-1.87
							C153.78,154.65,155.34,147.44,154.69,140.27z"/>
						<path id="XMLID_290_" class="st9" d="M153.87,126.3c-1.41-0.76-2.9-1.29-4.44-1.63c2.94,4.69,4.77,10.08,5.27,15.6
							c0.65,7.17-0.92,14.37-3.22,21.19c-0.21,0.63-0.43,1.25-0.65,1.87c4.58-0.77,8.59-3.91,11.04-14.93
							C163.7,140.07,161.39,130.33,153.87,126.3z"/>
						<g id="XMLID_285_">
							<path id="XMLID_289_" class="st10" d="M108.95,147.36c-12.07,18.78-6.79,24.55-4,33.55c0.82,2.64,3.96,6.25,4.89,7.32
								c0.39,0.45,1.07,0.85,1.54,0.49c0.2-0.15,0.3-0.4,0.38-0.64c0.97-2.94-2.25-12.64-2.47-15.73
								c-0.54-7.64,3.68-7.33,2.87-14.95"/>
							<g id="XMLID_286_">
								<path id="XMLID_287_" class="st9" d="M108.64,147.19c-3.48,5.43-6.89,11.5-7.53,18.04c-0.4,4.04,0.65,7.81,2.02,11.56
									c0.33,0.91,0.67,1.81,0.99,2.72c0.39,1.13,0.72,2.25,1.29,3.31c0.78,1.43,1.77,2.75,2.79,4.02c0.64,0.8,1.59,2.38,2.74,2.38
									c2.21-0.01,1.17-4.87,0.97-6.03c-0.5-2.86-1.27-5.66-1.88-8.49c-0.56-2.61-0.68-5.3,0.28-7.84c0.4-1.05,0.96-2.03,1.39-3.07
									c0.5-1.19,0.8-2.43,0.88-3.72c0.06-0.89,0.01-1.77-0.08-2.65c-0.04-0.45-0.75-0.45-0.7,0c0.15,1.54,0.16,3.1-0.23,4.6
									c-0.28,1.07-0.76,2.05-1.23,3.04c-1.15,2.39-1.65,4.83-1.4,7.48c0.22,2.32,0.94,4.61,1.46,6.88
									c0.56,2.44,1.29,5.06,1.17,7.59c-0.02,0.46-0.08,1.61-0.81,1.48c-0.51-0.09-1.02-0.89-1.35-1.28
									c-0.98-1.16-1.91-2.35-2.73-3.63c-1.24-1.92-1.81-4.1-2.6-6.23c-1.28-3.48-2.47-6.97-2.36-10.73
									c0.2-6.91,3.9-13.41,7.53-19.07C109.5,147.16,108.89,146.81,108.64,147.19L108.64,147.19z"/>
							</g>
						</g>
						<g id="XMLID_280_">
							<path id="XMLID_284_" class="st10" d="M142.28,142.17c-1.08-0.9-2.71-0.49-3.98,0.11c-2.48,1.16-4.7,2.86-6.47,4.94
								c-0.96,1.13-1.81,2.43-2.02,3.89c-0.39,2.73,1.47,5.22,3.23,7.35c0.86,1.04,1.72,2.09,2.58,3.13
								c0.76,0.92,1.55,2.23,0.87,3.21c-0.79,1.14-3.29,0.39-3.12,3.49c0.09,1.6,10.45-1.2,15.36-3.19c0.2-0.08,0.42-0.18,0.5-0.38
								c0.08-0.2-0.09-0.49-0.3-0.42"/>
							<g id="XMLID_282_">
								<path id="XMLID_283_" class="st9" d="M142.45,141.87c-1.88-1.42-4.5,0.08-6.19,1.11c-2.04,1.25-3.9,2.88-5.33,4.8
									c-1.51,2.03-1.95,4.34-0.96,6.71c0.99,2.34,2.84,4.27,4.44,6.21c0.72,0.88,2.23,2.23,1.94,3.51
									c-0.17,0.74-0.92,0.88-1.53,1.12c-0.54,0.21-1.04,0.49-1.38,0.97c-0.37,0.54-0.61,1.51-0.42,2.15
									c0.24,0.8,1.47,0.69,2.1,0.65c1.58-0.11,3.16-0.46,4.7-0.84c2.14-0.52,4.25-1.14,6.34-1.85c0.89-0.3,1.79-0.6,2.65-0.97
									c0.36-0.15,0.75-0.36,0.77-0.8c0.02-0.41-0.26-0.67-0.66-0.69c-0.45-0.02-0.45,0.68,0,0.7c-0.3-0.01-0.82,0.31-1.11,0.43
									c-0.35,0.13-0.69,0.26-1.04,0.38c-0.76,0.27-1.53,0.53-2.31,0.77c-1.62,0.51-3.26,0.98-4.91,1.37
									c-1.36,0.33-2.74,0.64-4.14,0.77c-0.44,0.04-0.91,0.09-1.35,0.01c-0.45-0.08-0.38-0.14-0.36-0.59
									c0.08-1.52,1.19-1.63,2.32-2.19c1.48-0.73,1.13-2.42,0.35-3.58c-1.29-1.91-2.99-3.53-4.34-5.4
									c-1.32-1.83-2.43-4.03-1.68-6.32c0.78-2.39,3.01-4.43,4.99-5.87c0.98-0.71,2.02-1.34,3.12-1.84
									c1.14-0.52,2.54-0.93,3.63-0.11C142.46,142.75,142.81,142.14,142.45,141.87L142.45,141.87z"/>
							</g>
						</g>
						<g id="XMLID_278_">
							<path id="XMLID_279_" class="st9" d="M113.88,139.17c1.65,3.08,1.73,6.62,1.39,10.03c-0.37,3.71-1.06,7.41-1.63,11.1
								c-0.07,0.44,0.61,0.63,0.68,0.19c0.59-3.83,1.32-7.66,1.68-11.52c0.32-3.46,0.16-7.02-1.51-10.14
								C114.27,138.42,113.67,138.77,113.88,139.17L113.88,139.17z"/>
						</g>
						<g id="XMLID_276_">
							<path id="XMLID_277_" class="st9" d="M118.09,137.16c2.71,6.14,3.23,13.13,1.47,19.61c-0.12,0.44,0.56,0.62,0.68,0.19
								c1.81-6.67,1.25-13.83-1.54-20.15C118.51,136.4,117.91,136.75,118.09,137.16L118.09,137.16z"/>
						</g>
						<g id="XMLID_273_">
							<path id="XMLID_275_" class="st9" d="M122.91,133.91c2.05,3.34,2.84,7.17,3.15,11.03c0.33,4.02,0.06,8.07-0.76,12.01
								c-0.09,0.44,0.59,0.63,0.68,0.19c0.85-4.1,1.13-8.3,0.76-12.47c-0.34-3.9-1.16-7.75-3.23-11.12
								C123.28,133.17,122.67,133.52,122.91,133.91L122.91,133.91z"/>
						</g>
						<g id="XMLID_271_">
							<path id="XMLID_272_" class="st9" d="M129.24,130.48c2.86,3.95,4.2,8.81,3.79,13.67c-0.04,0.45,0.67,0.45,0.7,0
								c0.42-4.97-0.97-9.99-3.89-14.03C129.58,129.76,128.97,130.11,129.24,130.48L129.24,130.48z"/>
						</g>
						<g id="XMLID_269_">
							<path id="XMLID_270_" class="st9" d="M137.84,127.54c0.91,0.55,1.38,1.5,1.77,2.45c0.42,1.01,0.74,2.06,0.98,3.12
								c0.5,2.19,0.6,4.44,0.35,6.67c-0.05,0.45,0.65,0.45,0.7,0c0.27-2.46,0.11-4.95-0.5-7.35c-0.48-1.9-1.17-4.42-2.96-5.5
								C137.81,126.7,137.45,127.31,137.84,127.54L137.84,127.54z"/>
						</g>
						<g id="XMLID_266_">
							<path id="XMLID_268_" class="st9" d="M145.64,126.99c2.19,3.02,3.36,6.65,3.32,10.38c0,0.45,0.7,0.45,0.7,0
								c0.04-3.85-1.15-7.62-3.41-10.74C145.98,126.27,145.37,126.62,145.64,126.99L145.64,126.99z"/>
						</g>
						<path id="XMLID_265_" class="st9" d="M221.56,139.72c-2.44,2.29-9.76,10.01-19.99,10.13c-8.48,0.1-17.96-1.19-26.48-4.15
							c-6.24-2.17-16.58-10.23-19.99-12.18l-0.62,8.38c8.07,7.14,15.56,9.59,24.87,12.7c7.89,2.63,17.59,2.47,24.53,2.08
							c9.18-0.51,18.08-4.45,25.31-8.55c1.01-0.57,1.99-1.23,2.88-1.97c-0.47-0.96-1.06-1.85-1.77-2.65
							C228.14,141.04,224.81,139.6,221.56,139.72z"/>
						<g id="XMLID_229_">
							<g id="XMLID_262_">
								<path id="XMLID_264_" class="st10" d="M88.68,137.69c-9.33,0-16.89,5.68-16.89,12.7c0,0.76,0.09,1.51,0.26,2.23
									c1.96,1.71,4.26,3.04,6.68,4.01c3,1.21,6.22,1.9,9.45,1.9c5.39-0.02,10.63-1.99,15.23-4.79c0.65-0.4,1.29-0.81,1.93-1.24
									c0.15-0.68,0.23-1.38,0.23-2.1C105.57,143.38,98.01,137.69,88.68,137.69z"/>
								<path id="XMLID_263_" class="st11" d="M88.18,158.52c-3.23,0.01-6.45-0.69-9.45-1.9c-2.42-0.97-4.72-2.3-6.68-4.01
									c1.4,5.95,5.5,5.42,16.79,7.37c8.25,1.42,15.16-1.49,16.49-7.5c-0.63,0.43-1.27,0.84-1.93,1.24
									C98.81,156.53,93.57,158.51,88.18,158.52z"/>
							</g>
							<g id="XMLID_230_">
								<g id="XMLID_240_">
									<path id="XMLID_261_" class="st12" d="M96.23,145.89c-1.59,0-2.88,1.29-2.88,2.88c0,0.23,0.03,0.45,0.08,0.66
										c1.09-0.51,2.25-0.86,3.45-0.9c0.75-0.03,1.51,0.09,2.22,0.34c0-0.03,0-0.06,0-0.1C99.11,147.18,97.82,145.89,96.23,145.89
										z"/>
									<g id="XMLID_241_">
										<path id="XMLID_259_" class="st13" d="M91.26,154.13l-1.53,1.53c-0.37,0.37-0.97,0.37-1.34,0l-1.53-1.53
											c-0.6-0.6-0.17-1.62,0.67-1.62h3.06C91.44,152.51,91.86,153.53,91.26,154.13z"/>
										<path id="XMLID_258_" class="st13" d="M96.88,148.53c-1.2,0.04-2.36,0.4-3.45,0.9c0.3,1.27,1.44,2.22,2.8,2.22
											c1.56,0,2.82-1.24,2.88-2.78C98.4,148.61,97.63,148.5,96.88,148.53z"/>
										<circle id="XMLID_257_" class="st14" cx="95.56" cy="149.2" r="1.09"/>
										<ellipse id="XMLID_256_" class="st14" cx="80.85" cy="150.37" rx="1.09" ry="0.79"/>
										<g id="XMLID_254_">
											<path id="XMLID_255_" class="st13" d="M88.64,155.93c0.09,0.86,0.17,1.72,0.26,2.58c0.04,0.45,0.75,0.45,0.7,0
												c-0.09-0.86-0.17-1.72-0.26-2.58C89.3,155.49,88.6,155.48,88.64,155.93L88.64,155.93z"/>
										</g>
										<g id="XMLID_252_">
											<path id="XMLID_253_" class="st13" d="M78.02,148.98c1.31,1.9,4.15,1.76,5.15-0.37c0.19-0.41-0.41-0.76-0.61-0.35
												c-0.76,1.61-2.9,1.87-3.94,0.37C78.37,148.25,77.76,148.6,78.02,148.98L78.02,148.98z"/>
										</g>
										<g id="XMLID_247_">
											<g id="XMLID_250_">
												<path id="XMLID_251_" class="st15" d="M73.75,153.96c-2.85,1.01-5.74,1.91-8.67,2.69c-0.44,0.12-0.25,0.79,0.19,0.68
													c2.92-0.78,5.82-1.68,8.67-2.69C74.36,154.49,74.18,153.81,73.75,153.96L73.75,153.96z"/>
											</g>
											<g id="XMLID_248_">
												<path id="XMLID_249_" class="st15" d="M74.49,156.04c-2,1.33-3.92,2.77-5.76,4.33c-0.35,0.29,0.15,0.79,0.5,0.5
													c1.79-1.51,3.66-2.92,5.62-4.22C75.22,156.4,74.87,155.79,74.49,156.04L74.49,156.04z"/>
											</g>
										</g>
										<g id="XMLID_242_">
											<g id="XMLID_245_">
												<path id="XMLID_246_" class="st15" d="M101.03,154.83c2.85,1.01,5.74,1.91,8.67,2.69c0.44,0.12,0.62-0.56,0.19-0.68
													c-2.92-0.78-5.82-1.68-8.67-2.69C100.79,154,100.61,154.68,101.03,154.83L101.03,154.83z"/>
											</g>
											<g id="XMLID_243_">
												<path id="XMLID_244_" class="st15" d="M100.13,156.84c1.95,1.3,3.83,2.7,5.62,4.22c0.34,0.29,0.84-0.2,0.5-0.5
													c-1.84-1.55-3.76-3-5.76-4.33C100.11,155.98,99.75,156.59,100.13,156.84L100.13,156.84z"/>
											</g>
										</g>
									</g>
								</g>
								<g id="XMLID_235_">
									<path id="XMLID_239_" class="st10" d="M96.91,139.09c1.69-1.8,3.77-3.22,6.06-4.14c0.05,3.82-1.18,5.86-1.22,8.39"/>
									<path id="XMLID_238_" class="st10" d="M77.41,142.67c-0.78-2.13-1.37-4.33-1.76-6.57c3.27,0.9,6.36,2.44,9.06,4.51"/>
									<path id="XMLID_237_" class="st16" d="M97.76,140.61c0.89-0.91,1.87-1.73,2.92-2.44c-0.34,1.29-0.68,2.58-1.03,3.88"/>
									<path id="XMLID_236_" class="st16" d="M78.5,141.24c-0.54-0.87-0.7-1.95-0.45-2.94c1.12,0.57,2.07,1.5,2.66,2.61"/>
								</g>
								<g id="XMLID_233_">
									<path id="XMLID_234_" class="st17" d="M87.89,140.35c0.13,0.75-0.25,1.48-0.89,1.85c-0.39,0.23-0.04,0.83,0.35,0.61
										c0.94-0.54,1.4-1.59,1.22-2.64C88.5,139.71,87.82,139.9,87.89,140.35L87.89,140.35z"/>
								</g>
								<g id="XMLID_231_">
									<path id="XMLID_232_" class="st17" d="M89.39,140.55c0.58,0.68,0.64,1.63,0.19,2.4c-0.23,0.39,0.38,0.75,0.61,0.35
										c0.61-1.05,0.48-2.33-0.3-3.25C89.59,139.71,89.1,140.21,89.39,140.55L89.39,140.55z"/>
								</g>
							</g>
						</g>
					</g>
				</g>
				<path id="XMLID_226_" class="st12" d="M235.38,142.18c1.32-2.58,1.49-5.87-0.09-8.3c-1.58-2.43-5.08-3.59-7.58-2.13
					c-2.24,1.3-3.09,4.05-4.57,6.17c-0.46,0.66-0.99,1.26-1.57,1.81c3.25-0.12,6.58,1.31,8.76,3.77c0.71,0.8,1.3,1.7,1.77,2.65
					C233.43,145.04,234.59,143.72,235.38,142.18z"/>
			</g>
		</g>
		<g>
			<polygon class="st18" points="163.1,115.64 153.33,130.48 156.9,130.42 165.56,117.26 			"/>
			<path class="st19" d="M181.44,90.81l-5.65-3.72c-1.38-0.91-3.24-0.53-4.14,0.85l-16.01,24.31c-0.91,1.38-0.53,3.24,0.85,4.14
				l5.65,3.72L181.44,90.81z"/>
			<path class="st20" d="M182.09,89.82l-12.39-8.15c-0.55-0.36-1.28-0.21-1.64,0.34c-0.36,0.55-0.21,1.28,0.34,1.64l12.39,8.16
				L182.09,89.82z"/>
			
				<rect x="177.85" y="82.88" transform="matrix(0.55 -0.8352 0.8352 0.55 11.2852 190.8938)" class="st20" width="9.85" height="4.19"/>
			<path class="st20" d="M187.92,80.97l-6.64-4.37c-0.58-0.38-1.35-0.22-1.73,0.36c-0.38,0.58-0.22,1.35,0.36,1.73l6.64,4.37
				L187.92,80.97z"/>
			<path class="st20" d="M181.44,90.81l5.65,3.72c1.38,0.91,1.76,2.76,0.85,4.14l-16.01,24.31c-0.91,1.38-2.76,1.76-4.14,0.85
				l-5.65-3.72L181.44,90.81z"/>
			<path class="st21" d="M176.44,113.56l-5,7.6c-0.78,1.18-2.36,1.5-3.54,0.73l-4.83-3.18l-4.83-3.18c-1.18-0.78-1.5-2.36-0.73-3.54
				l5-7.6L176.44,113.56z"/>
			<path class="st22" d="M163.08,118.71l4.83,3.18c1.18,0.78,2.76,0.45,3.54-0.73l5-7.6l-6.96-4.58L163.08,118.71z"/>
			<path class="st23" d="M182.09,89.82l12.39,8.16c0.55,0.36,0.7,1.09,0.34,1.64c-0.36,0.55-1.09,0.7-1.64,0.34l-12.39-8.16
				L182.09,89.82z"/>
			
				<rect x="181.35" y="85.18" transform="matrix(0.5499 -0.8353 0.8353 0.5499 10.9488 194.8782)" class="st23" width="9.85" height="4.19"/>
			<path class="st23" d="M187.92,80.97l6.64,4.37c0.58,0.38,0.73,1.15,0.36,1.73c-0.38,0.57-1.15,0.73-1.73,0.36l-6.65-4.38
				L187.92,80.97z"/>
			
				<rect x="169.88" y="92.07" transform="matrix(0.5499 -0.8353 0.8353 0.5499 -2.6813 185.3114)" class="st24" width="1.41" height="6.15"/>
			
				<rect x="167.26" y="96.05" transform="matrix(0.5499 -0.8352 0.8352 0.5499 -7.1937 184.9071)" class="st24" width="1.41" height="6.15"/>
			
				<rect x="164.51" y="100.22" transform="matrix(0.5499 -0.8352 0.8352 0.5499 -11.9063 184.4918)" class="st24" width="1.41" height="6.15"/>
			
				<rect x="161.98" y="104.07" transform="matrix(0.5498 -0.8353 0.8353 0.5498 -16.2607 184.1185)" class="st24" width="1.41" height="6.15"/>
			
				<rect x="160.99" y="106.93" transform="matrix(0.5499 -0.8352 0.8352 0.5499 -20.4906 185.3131)" class="st24" width="1.41" height="9.47"/>
			
				<rect x="173.44" y="88.02" transform="matrix(0.5499 -0.8352 0.8352 0.5499 0.9142 187.2035)" class="st24" width="1.41" height="9.47"/>
		</g>
	</g>
</g>
</svg>
