<?xml version="1.0" encoding="utf-8"?>
<svg version="1.1" xmlns="http://www.w3.org/2000/svg" xmlns:xlink="http://www.w3.org/1999/xlink" x="0px" y="0px" width="270" height="150"
	 viewBox="0 0 537 298" style="enable-background:new 0 0 537 298;" xml:space="preserve">
<style type="text/css">
	.st0{fill:#DE6C6E;}
	.st1{clip-path:url(#SVGID_2_);fill:#FFFFFF;}
	.st2{fill:#FFFFFF;}
</style>
<g>
	<path class="st0" d="M37.62,279.19H15.77v6.63H8.12v-62.14h29.5V279.19z M30.06,247.31v-15.98H15.77v15.98H30.06z M30.06,271.54
		v-17H15.77v17H30.06z M45.27,221.73h35.87v65.71c0,2.72-0.76,4.85-2.21,6.38c-1.36,1.27-3.15,1.96-5.44,1.96h-13.6l-1.62-7.99
		l11.9,0.68c1.7-0.17,2.64-1.28,2.64-3.32v-14.96H52.24c-0.68,3.15-1.53,5.95-2.55,8.42c-2.47,6.21-7.23,12.41-14.37,18.79
		l-6.97-5.95c6.38-4.76,10.88-9.95,13.52-15.56c2.21-4.51,3.4-11.39,3.4-20.66v-5.95V221.73z M72.81,262.53v-13.26H53.6v5.95
		c0,2.64-0.17,5.1-0.34,7.31H72.81z M72.81,241.62v-12.24H53.6v12.24H72.81z"/>
	<path class="st0" d="M130.19,221.39c-5.44,10.37-11.05,18.87-16.75,25.42c1.7,0.17,3.15,0.17,4.17,0.17
		c12.75,0,25.42-1.02,38.08-3.06c-3.15-4.25-6.63-8.5-10.54-12.92l6.04-5.61c7.99,8.93,14.71,17.77,20.23,26.52l-6.29,6.29
		c-1.36-2.38-2.89-4.85-4.42-7.23c-16.83,2.55-37.4,3.91-61.71,3.91l-1.62-9.27c2.89,0.34,5.53,0.51,7.91,0.68
		c5.44-6.72,11.14-15.98,17-27.88L130.19,221.39z M164.78,297.04h-8.33v-5.27h-45.14v5.02h-8.33v-35.87h61.8V297.04z M156.45,284.46
		v-16.24h-45.14v16.24H156.45z"/>
	<path class="st0" d="M227.6,223.68h32.73v11.31h-7.99v-4.68h-59.08v5.7h-7.99v-12.33h33.58c-0.85-1.27-1.7-2.46-2.72-3.66
		l8.67-1.27C225.73,220.28,226.66,221.9,227.6,223.68z M208.22,238.3h13.6v5.95h-4.08c-0.85,2.38-1.79,4.59-2.98,6.63h8.33v6.04
		H185.6v-6.04h8.84c-0.85-2.38-1.79-4.59-2.81-6.63h-4.08v-5.95h13.09c-0.68-1.53-1.36-2.98-2.12-4.34l7.65-0.94
		C206.86,234.65,207.54,236.43,208.22,238.3z M220.12,288.8c0,2.04-0.68,3.66-2.04,4.76c-1.19,1.02-2.81,1.53-4.93,1.53h-6.97
		l-1.27-5.95l5.61,0.34c1.53-0.17,2.3-1.02,2.3-2.72v-2.29h-16.58v11.65h-7.31v-35.87h31.2V288.8z M212.81,269.84v-3.66h-16.58v3.66
		H212.81z M212.81,279.19v-4h-16.58v4H212.81z M207.11,250.88c1.27-2.12,2.29-4.33,3.15-6.63h-11.05c0.77,2.13,1.53,4.34,2.38,6.63
		H207.11z M232.1,244.93h25.25v13.6H232.1v3.66h25.59v5.02H232.1v2.98h25.59v5.36H232.1v3.31h26.52v5.27h-2.64l6.29,2.04
		c-0.76,4.17-1.96,6.63-3.66,7.4c-1.44,0.76-4.08,1.19-7.91,1.19H232.1c-2.38,0-4.25-0.51-5.61-1.53c-1.36-1.19-2.04-2.64-2.04-4.42
		v-35.53h25.59v-2.98h-25.59v-17.26h7.65v3.31h23.89v5.61H232.1V244.93z M232.1,284.12v2.98c0,1.36,0.94,2.04,2.98,2.04h14.62
		c1.62,0,2.81-0.17,3.49-0.51c0.85-0.34,1.45-1.87,1.79-4.51H232.1z"/>
	<path class="st0" d="M284.12,226.06c-0.25,3.74-0.51,7.31-0.85,10.63h5.19v-17.94h7.99v17.94h7.65v6.04
		c2.12-2.89,3.83-5.7,5.02-8.59c1.7-3.83,3.15-8.93,4.25-15.39l7.99,1.27c-0.77,3.83-1.53,7.14-2.38,9.95h30.6
		c0,30.69-0.42,48.88-1.27,54.49c-0.68,4.42-1.96,7.31-3.83,8.76c-2.21,1.7-6.12,2.55-11.82,2.55c-1.96,0-4.17-0.17-6.63-0.34
		l-1.36-8.67c2.55,0.51,5.27,0.68,7.99,0.68c4.59,0,7.14-1.79,7.65-5.53c0.85-4.59,1.45-19.55,1.62-44.97h-2.13
		c-2.12,14.11-5.1,25.16-8.93,33.24c-4.42,8.84-10.97,16.66-19.81,23.55l-5.36-6.63c7.74-6.12,13.77-13.09,18.11-20.83
		c3.66-7.23,6.46-17,8.33-29.33h-3.49c-2.21,8.08-4.42,14.37-6.72,18.96c-2.89,6.29-7.74,12.92-14.54,19.89l-5.36-6.63
		c5.7-5.36,9.95-10.71,12.75-15.98c2.38-4.17,4.42-9.61,6.04-16.24h-4.25c-0.08,0.25-0.17,0.43-0.17,0.51
		c-1.87,5.1-5.1,10.46-9.69,16.15l-5.61-6.97c0.68-0.77,1.27-1.53,1.87-2.38h-6.55v16.66c2.72-0.85,5.36-1.87,7.99-2.98v7.57
		c-2.63,1.1-5.27,2.12-7.99,3.06v28.22h-7.99v-25.42c-4.25,1.45-8.67,2.81-13.26,4.17l-2.04-8.67c5.1-0.85,10.2-1.96,15.3-3.49
		v-19.13h-6.12c-0.68,4.68-1.53,8.93-2.47,12.67l-7.65-2.38c2.64-9.1,4.42-18.79,5.27-29.16L284.12,226.06z"/>
	<path class="st0" d="M386.38,222.07c-2.46,7.82-5.02,14.28-7.65,19.38v54.66h-7.65v-42.5c-1.96,2.81-4.08,5.53-6.29,8.25
		l-2.64-9.27c3.49-4.59,6.55-9.35,9.27-14.28c2.72-4.42,5.44-10.88,7.99-19.3L386.38,222.07z M432.53,222.66v27.63h-17.26v7.31
		h24.91v7.57h-18.28c1.87,3.4,4.17,6.63,6.72,9.61c2.98,3.4,7.14,7.06,12.5,11.05l-5.27,6.63c-5.78-4.76-10.46-9.61-13.94-14.54
		c-2.55-3.31-4.76-7.14-6.63-11.48v30.35h-7.99v-31.62h-0.25c-1.79,4.42-3.57,7.91-5.36,10.46c-3.4,5.44-9.01,11.22-16.66,17.17
		l-4.34-7.31c5.44-3.91,9.78-7.82,12.92-11.65c2.04-2.38,4-5.27,5.87-8.67h-16.75v-7.57h24.57v-7.31h-17.6v-27.63H432.53z
		 M424.54,229.97h-26.86v13.01h26.86V229.97z"/>
	<path class="st0" d="M479.96,222.07v5.95c-0.94,3.06-1.87,6.04-2.81,9.1c5.87-2.72,10.46-5.44,13.69-8.25
		c2.81-2.38,5.78-5.61,9.01-9.86h7.31c3.23,4.51,6.55,8.08,10.12,10.63c2.55,2.21,6.8,4.59,12.75,7.31l-4.59,6.97
		c-2.98-1.19-5.87-2.72-8.59-4.76c-0.08,0-0.08-0.09-0.08-0.09v4.25h-26.52v-4.68c-3.06,2.12-6.55,4.25-10.63,6.29l-3.06-6.12
		c-1.1,3.23-2.21,6.55-3.31,9.78c2.12,3.91,3.66,7.4,4.68,10.46c1.1,3.23,1.7,5.95,1.7,8.16c-0.17,4.42-1.1,7.65-2.72,9.52
		c-1.79,2.3-5.61,3.4-11.56,3.4l-2.38-7.99c1.45,0.25,2.81,0.34,4,0.34c1.53,0,2.72-0.34,3.4-1.19c0.85-0.6,1.27-1.96,1.27-4.08
		c0-2.55-0.42-4.93-1.19-7.23c-0.94-2.89-2.64-6.29-5.1-10.37c3.06-7.99,5.27-14.71,6.63-20.23h-9.95v67.41h-7.99v-74.72H479.96z
		 M500.87,248.59v23.29h-11.65l4.93,1.96c-0.68,1.87-1.36,3.4-1.96,4.76c3.48,3.15,6.46,6.21,9.01,9.18l-5.02,5.02
		c-1.87-2.64-4.17-5.27-6.89-8.08c-0.34,0.68-0.68,1.27-1.02,1.79c-1.61,2.89-4.42,6.29-8.33,10.29l-5.7-5.02
		c3.4-3.23,6.21-6.29,8.33-9.35c1.79-2.89,3.32-6.46,4.68-10.54h-6.38v-23.29H500.87z M494.5,254.88h-7.31v10.63h7.31V254.88z
		 M513.71,236.69c-3.48-2.89-6.89-6.38-10.2-10.63c-3.49,4.08-6.8,7.4-10.03,10.12c-0.25,0.26-0.51,0.43-0.68,0.51H513.71z
		 M526.03,248.59v23.29h-12.5l4.93,1.96c-0.85,2.38-1.62,4.42-2.3,6.12c4.51,3.74,8.33,7.48,11.56,11.14l-5.02,5.02
		c-2.38-3.23-5.44-6.63-9.35-10.12c-0.08,0.17-0.17,0.34-0.25,0.51c-1.53,2.89-4.08,6.29-7.65,10.29l-5.61-5.02
		c3.06-3.23,5.61-6.29,7.48-9.35c1.7-2.89,3.15-6.46,4.34-10.54h-6.89v-23.29H526.03z M519.4,254.88h-7.91v10.63h7.91V254.88z"/>
</g>
<g>
	<g>
		<path class="st0" d="M381.87,66.29c0-62.34-51.68-63.16-51.68-63.16c-47.09,0-58.71,37.5-60.61,45.24
			c-1.9-7.74-13.52-45.24-60.61-45.24c0,0-51.68,0.82-51.68,63.16c0,57.73,97.04,121.44,111.4,130.55l0,1.12c0,0,0.32-0.2,0.89-0.56
			c0.57,0.36,0.89,0.56,0.89,0.56l0-1.12C284.83,187.73,381.87,124.03,381.87,66.29z"/>
		<g>
			<defs>
				<path id="SVGID_1_" d="M381.87,66.29c0-62.34-51.68-63.16-51.68-63.16c-47.09,0-58.71,37.5-60.61,45.24
					c-1.9-7.74-13.52-45.24-60.61-45.24c0,0-51.68,0.82-51.68,63.16c0,57.73,97.04,121.44,111.4,130.55l0,1.12
					c0,0,0.32-0.2,0.89-0.56c0.57,0.36,0.89,0.56,0.89,0.56l0-1.12C284.83,187.73,381.87,124.03,381.87,66.29z"/>
			</defs>
			<clipPath id="SVGID_2_">
				<use xlink:href="#SVGID_1_"  style="overflow:visible;"/>
			</clipPath>
			<path class="st1" d="M147.39,101.97c8.95-4.18,17.89-10.54,25.87-16.82c7.64-6.01,15.65-11.24,22.42-18.41
				c2.93-3.1,4.01-4.66,5.15-8.59c0.96-3.29,3-6.85,4.69-9.91c1.67-3,2.85-5.71,4.56-8.72c1.59-2.8,4.29-7.08,7.28-8.44
				c1.11,2.56,1.43,5.42,1.82,8.09c0.15-2.34,2.98-3.63,4.87-4.77c0.55,7.99,1.47,15.95,1.87,24.07c4.55,0.24,9.56-0.93,13.25,2.07
				c3.27,2.65,7.94,7.02,9.56,10.73c1.96,4.47,0.05,8.19,3.01,12.3c2.73,3.79,5.65,6.05,9.72,8.37c3.6,2.06,7.37,4.29,11.08,6.18
				c5.3,2.69,5.42,5.5,1.76,10.43c-6.16,8.28-15.79,11.23-25.5,11.23c-10.5,0-17.99-0.05-26.22,6.87
				c-7.6,6.39-15.23,15.3-18.41,25.12c-0.75,2.31-0.95,4.61-1.8,6.91c-4.21-1.15-7.47-2.14-11.78-3.36
				c-4.51-1.28-8.4-4.72-12.64-7.09c-11.22-6.25-18.86-16.94-25.52-27.91c-2.14-3.52-4.07-6.89-5.35-10.81
				c-0.47-1.44-1.57-3.82-0.89-5.42c0.78-1.84-1.88-1.37,0-2.11"/>
			<path class="st1" d="M292.69,60.32c1.33-0.8,5.59-5.59,5.59-5.59c6.63-7.04,9.34-6.36,10.45-6.42c-0.2-0.17,0.29-0.14,0.99-1.56
				c1.33-2.66,0-12.51,2.93-13.04c2.93-0.53,7.45,13.04,7.45,13.04c11.8,4.08,12.98,16.78,13.84,20.49
				c2.75,11.8,13.62,16.67,18.37,19.43c2.19,1.27,15.71,2.4,21.03,25.74c5.32,23.34-4.26,34.42,2.4,48.79
				c6.65,14.37,1.06,23.16,1.06,23.16c-17.48,21.83-52.17,6.39-52.17,6.39c63.08,2.4,44.98-16.91,44.98-16.91
				c-23.06,2.65-46.85-0.53-46.85-0.53c-3.73-6,10.38-6.78,10.38-6.78c-3.73-9.31-7.98-10.38-7.98-10.38
				c-0.38,1.36-0.82,2.63-1.32,3.8c-1.45,3.91-3.47,8.53-5.69,10.75c-3.02,3.02-8.89,1.54-8.89,1.54c-1.69-0.03-1.67-1.45-0.59-2.97
				c0.66-0.92,4.96-4.31,5.04-10.99c1.86-32.74,1.06-33.27-7.99-46.31c-9.05-13.04-2.13-31.94-1.86-35.67
				c0.27-3.73-2.93-3.99-7.72-7.19c-4.79-3.19-4.79-7.98-4.79-7.98S291.36,61.12,292.69,60.32z"/>
		</g>
	</g>
	<g>
		<path class="st2" d="M274.57,167.12c0,1.48-1.2,2.68-2.68,2.68h-4.45c-1.48,0-2.68-1.2-2.68-2.68v-29.39
			c0-1.48,1.2-2.68,2.68-2.68h4.45c1.48,0,2.68,1.2,2.68,2.68V167.12z"/>
		<path class="st2" d="M286.96,154.73c0,1.48-1.2,2.68-2.68,2.68h-29.39c-1.48,0-2.68-1.2-2.68-2.68v-4.45
			c0-1.48,1.2-2.68,2.68-2.68h29.39c1.48,0,2.68,1.2,2.68,2.68V154.73z"/>
	</g>
</g>
</svg>
