<?xml version="1.0" encoding="utf-8"?>
<svg version="1.1" xmlns="http://www.w3.org/2000/svg" xmlns:xlink="http://www.w3.org/1999/xlink" x="0px" y="0px" width="65" height="71"
	 viewBox="0 0 65 71" style="enable-background:new 0 0 65 71;" xml:space="preserve">
<style type="text/css">
	.st0{fill:#DE6C6E;}
</style>
<g>
	<path class="st0" d="M41.74,63.68c0,2.77-2.24,5.01-5.01,5.01h-8.32c-2.77,0-5.01-2.24-5.01-5.01V8.7c0-2.77,2.24-5.01,5.01-5.01
		h8.32c2.77,0,5.01,2.24,5.01,5.01V63.68z"/>
	<path class="st0" d="M64.9,40.52c0,2.76-2.24,5.01-5.01,5.01H4.91c-2.76,0-5.01-2.24-5.01-5.01v-8.32c0-2.77,2.24-5.01,5.01-5.01
		h54.98c2.77,0,5.01,2.24,5.01,5.01V40.52z"/>
</g>
</svg>
