<?xml version="1.0" encoding="utf-8"?>
<svg version="1.1" xmlns="http://www.w3.org/2000/svg" xmlns:xlink="http://www.w3.org/1999/xlink" x="0px" y="0px" width="20" height="20" viewBox="0 0 20 20" style="enable-background:new 0 0 20 20;" xml:space="preserve">
<style type="text/css">
	.st0{fill:#46B3A3;}
	.st1{fill:#FFFFFF;}
</style>
<g>
	<circle class="st0" cx="10" cy="10.19" r="9.67"/>
	<g>
		<path class="st1" d="M11.18,10.91c-0.38,0.34-0.65,0.61-0.78,0.81c-0.19,0.28-0.28,0.59-0.28,0.92v0.63H8.78v-1
			c0-0.35,0.2-0.78,0.63-1.29c0.07-0.08,0.43-0.44,1.09-1.12c0.58-0.57,0.88-1.08,0.88-1.51c0-0.74-0.66-1.12-1.98-1.12
			c-0.43,0-1,0.09-1.7,0.27V6.14c0.61-0.16,1.24-0.24,1.91-0.24c0.86,0,1.58,0.19,2.14,0.54c0.65,0.43,0.98,1.06,0.98,1.89
			C12.74,9.15,12.22,10.02,11.18,10.91z M8.62,15.58v-1.64h1.64v1.64H8.62z"/>
	</g>
</g>
</svg>
