<?xml version="1.0" encoding="utf-8"?>
<svg version="1.1" xmlns="http://www.w3.org/2000/svg" xmlns:xlink="http://www.w3.org/1999/xlink" x="0px" y="0px"
	 viewBox="0 0 700 149" style="enable-background:new 0 0 700 149;" xml:space="preserve">
<style type="text/css">
	.st0{fill:#DE6C6E;}
	.st1{fill:#46B3A3;}
	.st2{fill:#818EC7;}
	.st3{fill:#FFFFFF;}
	.st4{fill:#605249;}
	.st5{fill:#F4DFCC;}
	.st6{fill:#F7F7F7;}
	.st7{fill:#736357;}
	.st8{fill:#4D4D4D;}
	.st9{fill:#D6D6D6;}
	.st10{fill:#50C2C1;}
	.st11{fill:#4D4D4B;}
	.st12{fill:#65C6CB;}
	.st13{fill:#331917;}
	.st14{fill:#C7C7C7;}
	.st15{fill:#D19C61;}
	.st16{fill:#F4C0B3;}
	.st17{fill:#F9CD8B;}
	.st18{fill:#E06C72;}
	.st19{fill:#D6A26C;}
	.st20{fill:#302821;}
	.st21{fill:#0F0B08;}
	.st22{fill:#EFBBA3;}
	.st23{fill:#E5896A;}
</style>
<path class="st0" d="M225.9,148.92H0.68v-29.68c0-19.05,15.45-34.5,34.5-34.5h162.99c15.32,0,27.74,12.42,27.74,27.74V148.92z"/>
<path class="st1" d="M464.41,148.92H239.18v-29.68c0-19.05,15.45-34.5,34.5-34.5h162.99c15.32,0,27.74,12.42,27.74,27.74V148.92z"/>
<path class="st2" d="M700.68,148.92H475.45v-29.68c0-19.05,15.45-34.5,34.5-34.5h162.99c15.32,0,27.74,12.42,27.74,27.74V148.92z"/>
<g>
	<g>
		<path class="st3" d="M52.4,113.91h7.1v2.44h-9.48c-0.04,0.85-0.1,1.63-0.2,2.36h8.11l-0.12,3.91c-0.12,3.11-0.58,5-1.37,5.73
			c-0.65,0.61-1.77,0.93-3.39,0.93h-2.36l-0.65-2.76c1.65,0.12,2.64,0.16,3,0.16c0.71,0,1.19-0.16,1.43-0.52
			c0.32-0.48,0.5-1.73,0.54-3.75l0.06-1.39H49.4c-0.24,1.01-0.56,1.94-0.95,2.74c-1.05,2.12-2.78,4.03-5.18,5.77L41.61,127
			c1.71-1.09,3.07-2.44,4.05-4.05c0.95-1.61,1.43-3.63,1.47-6.09v-0.5h-4.88v-2.44h7.2c-0.24-0.91-0.52-1.71-0.83-2.44l3.15-0.32
			C52.02,112.08,52.22,112.99,52.4,113.91z"/>
		<path class="st3" d="M69.87,122.67v-0.95h2.52v0.95h7.56v1.88h-5.65c1.73,0.97,3.81,1.71,6.27,2.22l-1.33,2.12
			c-1.39-0.32-2.94-1.03-4.64-2.08c-0.83-0.5-1.57-1.03-2.22-1.59v4.23h-2.52v-4.19c-0.48,0.5-1.01,0.95-1.59,1.31
			c-1.33,0.87-2.98,1.59-4.94,2.24l-1.65-2.12c1.75-0.34,3.29-0.81,4.6-1.39c0.52-0.22,0.97-0.46,1.35-0.75h-5.32v-1.88H69.87z
			 M72.71,112.26h7.08v2.76h-2.52v-0.79h-7.16l1.41,0.22c-0.26,0.38-0.52,0.75-0.81,1.11h8.69v1.9h-2.96
			c-0.44,0.67-0.95,1.23-1.47,1.71c1.55,0.32,3.13,0.69,4.74,1.05l-1.33,1.88c-1.73-0.54-3.61-1.05-5.59-1.53
			c-0.2,0.1-0.38,0.18-0.54,0.24c-2.22,0.85-5.16,1.37-8.83,1.53l-0.79-2.04c2.86-0.02,5.06-0.18,6.63-0.5
			c-1.53-0.28-3.09-0.56-4.68-0.85c0.58-0.48,1.15-0.97,1.67-1.49h-3.49v-1.9h5.2c0.34-0.44,0.67-0.89,0.99-1.33h-3.89v0.79h-2.52
			v-2.76h7.12c-0.12-0.4-0.22-0.77-0.34-1.11l3.15-0.3C72.55,111.33,72.63,111.8,72.71,112.26z M69.06,117.46
			c-0.18,0.2-0.36,0.38-0.52,0.54c1.25,0.2,2.54,0.4,3.83,0.65c0.52-0.32,0.99-0.71,1.43-1.19H69.06z"/>
		<path class="st3" d="M88.26,128.69v-12.16c-0.67,0.39-1.75,0.85-3.25,1.42v-3.56c1.7-0.7,3.09-1.57,4.18-2.6h2.6v16.91H88.26z"/>
		<path class="st3" d="M102.79,114h1.55v1.81c-0.32,1.27-0.85,2.54-1.57,3.83v0.62c0.65-0.5,1.21-1.07,1.65-1.69l0.87,0.58v-2.8
			h4.26v-1.09h-4.56v-2.22h4.56v-2.04h2.36v2.04h1.69c-0.32-0.54-0.67-1.01-1.05-1.41l1.88-0.56c0.48,0.38,1.01,0.91,1.57,1.59
			l-1.07,0.38h1.88v2.22h-4.9v1.09h4.26v11.27c0,1.21-0.67,1.81-1.96,1.81h-1.57l-0.4-2.3c0.73,0.06,1.13,0.08,1.25,0.08
			c0.26,0,0.4-0.14,0.4-0.46v-1.19h-1.98v3.55h-2.36v-3.55h-1.9v3.95h-2.36v-6.76l-1.09,1.71c-0.44-0.65-0.91-1.25-1.43-1.82v6.92
			h-2.36v-6.49c-0.36,0.44-0.75,0.89-1.11,1.31l-1.17-2.6c1.79-1.57,3.02-3.43,3.69-5.53h-3.47V114h2.04
			c-0.16-0.81-0.36-1.63-0.61-2.44l2.36-0.48C102.39,111.92,102.61,112.91,102.79,114z M105.29,120.63
			c-0.32,0.3-0.67,0.56-1.03,0.79c0.4,0.34,0.75,0.65,1.03,0.93V120.63z M109.55,119.98v-1.57h-1.9v1.57H109.55z M109.55,123.61
			v-1.65h-1.9v1.65H109.55z M111.91,119.98h1.98v-1.57h-1.98V119.98z M111.91,123.61h1.98v-1.65h-1.98V123.61z"/>
		<path class="st3" d="M124.25,111.88c-0.08,0.32-0.18,0.62-0.26,0.93h1.41c-0.2-0.32-0.44-0.67-0.69-1.01l2.38-0.48
			c0.32,0.44,0.58,0.95,0.79,1.49h0.93v-1.65h2.52v1.65h0.91c0.36-0.46,0.71-0.99,0.99-1.57l2.3,0.56c-0.22,0.4-0.44,0.73-0.67,1.01
			h1.92v4.03h-1.57v1.96h-9.92v-1.96h-1.57v-3.11c-0.24,0.75-0.5,1.45-0.79,2.12v13.51h-2.3v-9.3c-0.34,0.52-0.71,1.01-1.09,1.49
			l-0.95-2.84c1.47-2.02,2.54-4.52,3.23-7.48L124.25,111.88z M136.07,119.36v7.56h-2.32c1.07,0.2,2.16,0.42,3.27,0.71l-0.65,1.96
			c-1.82-0.61-3.69-1.05-5.67-1.33l0.63-1.33h-2.6l0.56,1.25c-1.31,0.73-3.05,1.17-5.2,1.35l-0.63-2.06
			c1.25-0.02,2.56-0.2,3.93-0.54h-2.98v-7.56H136.07z M134.58,115.19v-0.65h-8.67v0.65H134.58z M133.63,121.56v-0.62h-6.78v0.62
			H133.63z M133.63,123.45v-0.63h-6.78v0.63H133.63z M133.63,124.7h-6.78v0.65h6.78V124.7z M132.92,116.68h-5.36v0.63h5.36V116.68z"
			/>
		<path class="st3" d="M150.77,127.14c-1.13,1.29-2.65,1.91-4.56,1.91c-1.8,0-3.25-0.44-4.3-1.34c-1.08-0.88-1.73-2.14-1.93-3.79
			h3.61c0.15,0.67,0.44,1.16,0.8,1.42c0.36,0.31,0.9,0.44,1.68,0.44c0.8,0,1.44-0.28,1.93-0.85c0.46-0.57,0.7-1.26,0.7-2.14
			c0-0.82-0.23-1.47-0.67-1.98c-0.46-0.49-1.08-0.75-1.88-0.75c-1.42,0-2.24,0.54-2.47,1.62h-3.4l0.46-9.92h10.77V115h-7.32
			l-0.08,2.5c0.67-0.46,1.47-0.7,2.35-0.7c1.8,0,3.25,0.64,4.38,1.88c1.01,1.13,1.52,2.53,1.52,4.12
			C152.35,124.54,151.81,125.98,150.77,127.14z"/>
		<path class="st3" d="M167.63,125.98c-1.13,2.06-2.94,3.09-5.39,3.09c-2.47,0-4.25-1.03-5.36-3.09c-0.82-1.5-1.21-3.35-1.21-5.62
			c0-2.24,0.39-4.12,1.21-5.64c1.11-2.11,2.89-3.17,5.36-3.17c2.45,0,4.25,1.06,5.39,3.17c0.8,1.52,1.21,3.4,1.21,5.64
			C168.84,122.63,168.43,124.49,167.63,125.98z M162.24,114.67c-1.93,0-2.89,1.91-2.89,5.7c0,3.71,0.95,5.57,2.89,5.57
			c1.91,0,2.89-1.86,2.89-5.57C165.13,116.57,164.15,114.67,162.24,114.67z"/>
		<path class="st3" d="M177.33,120.15c-0.65,0.77-1.53,1.13-2.62,1.13c-1.11,0-1.98-0.36-2.62-1.13c-0.58-0.65-0.87-1.41-0.87-2.34
			c0-0.89,0.28-1.67,0.87-2.34c0.65-0.75,1.51-1.13,2.62-1.13c1.09,0,1.98,0.38,2.62,1.13c0.56,0.67,0.87,1.45,0.87,2.34
			C178.19,118.73,177.89,119.5,177.33,120.15z M175.35,116.92c-0.18-0.22-0.4-0.34-0.65-0.34c-0.26,0-0.48,0.12-0.65,0.34
			c-0.18,0.24-0.26,0.52-0.26,0.89c0,0.36,0.08,0.67,0.26,0.89c0.16,0.24,0.38,0.36,0.65,0.36c0.24,0,0.46-0.12,0.65-0.36
			c0.16-0.22,0.26-0.52,0.26-0.89C175.61,117.44,175.51,117.16,175.35,116.92z M176.28,127.87h-2.24l7.68-13.73h2.24L176.28,127.87z
			 M185.96,126.44c-0.65,0.77-1.53,1.13-2.62,1.13c-1.11,0-1.98-0.36-2.62-1.13c-0.58-0.65-0.87-1.41-0.87-2.34
			c0-0.89,0.28-1.67,0.87-2.34c0.65-0.75,1.51-1.13,2.62-1.13c1.09,0,1.98,0.38,2.62,1.13c0.56,0.67,0.87,1.45,0.87,2.34
			C186.83,125.03,186.52,125.79,185.96,126.44z M183.98,123.21c-0.18-0.24-0.4-0.36-0.65-0.36c-0.26,0-0.48,0.12-0.65,0.36
			c-0.18,0.24-0.26,0.52-0.26,0.89c0,0.36,0.08,0.67,0.26,0.89c0.16,0.24,0.38,0.36,0.65,0.36c0.24,0,0.46-0.12,0.65-0.36
			c0.16-0.22,0.26-0.52,0.26-0.89C184.24,123.74,184.14,123.45,183.98,123.21z"/>
	</g>
</g>
<g>
	<g>
		<path class="st3" d="M292.14,113.91h7.1v2.44h-9.48c-0.04,0.85-0.1,1.63-0.2,2.36h8.11l-0.12,3.91c-0.12,3.11-0.58,5-1.37,5.73
			c-0.65,0.61-1.77,0.93-3.39,0.93h-2.36l-0.65-2.76c1.65,0.12,2.64,0.16,3,0.16c0.71,0,1.19-0.16,1.43-0.52
			c0.32-0.48,0.5-1.73,0.54-3.75l0.06-1.39h-5.69c-0.24,1.01-0.56,1.94-0.95,2.74c-1.05,2.12-2.78,4.03-5.18,5.77l-1.65-2.52
			c1.71-1.09,3.07-2.44,4.05-4.05c0.95-1.61,1.43-3.63,1.47-6.09v-0.5H282v-2.44h7.2c-0.24-0.91-0.52-1.71-0.83-2.44l3.15-0.32
			C291.76,112.08,291.96,112.99,292.14,113.91z"/>
		<path class="st3" d="M309.61,122.67v-0.95h2.52v0.95h7.56v1.88h-5.65c1.73,0.97,3.81,1.71,6.27,2.22l-1.33,2.12
			c-1.39-0.32-2.94-1.03-4.64-2.08c-0.83-0.5-1.57-1.03-2.22-1.59v4.23h-2.52v-4.19c-0.48,0.5-1.01,0.95-1.59,1.31
			c-1.33,0.87-2.98,1.59-4.94,2.24l-1.65-2.12c1.75-0.34,3.29-0.81,4.6-1.39c0.52-0.22,0.97-0.46,1.35-0.75h-5.32v-1.88H309.61z
			 M312.45,112.26h7.08v2.76h-2.52v-0.79h-7.16l1.41,0.22c-0.26,0.38-0.52,0.75-0.81,1.11h8.69v1.9h-2.96
			c-0.44,0.67-0.95,1.23-1.47,1.71c1.55,0.32,3.13,0.69,4.74,1.05l-1.33,1.88c-1.73-0.54-3.61-1.05-5.59-1.53
			c-0.2,0.1-0.38,0.18-0.54,0.24c-2.22,0.85-5.16,1.37-8.83,1.53l-0.79-2.04c2.86-0.02,5.06-0.18,6.63-0.5
			c-1.53-0.28-3.09-0.56-4.68-0.85c0.58-0.48,1.15-0.97,1.67-1.49h-3.49v-1.9h5.2c0.34-0.44,0.67-0.89,0.99-1.33h-3.89v0.79h-2.52
			v-2.76h7.12c-0.12-0.4-0.22-0.77-0.34-1.11l3.15-0.3C312.29,111.33,312.37,111.8,312.45,112.26z M308.8,117.46
			c-0.18,0.2-0.36,0.38-0.52,0.54c1.25,0.2,2.54,0.4,3.83,0.65c0.52-0.32,0.99-0.71,1.43-1.19H308.8z"/>
		<path class="st3" d="M323.18,128.71v-2.81c2.22-1.91,3.99-3.61,5.34-5.1c1.75-1.96,2.63-3.4,2.63-4.36c0-1.08-0.72-1.65-2.14-1.65
			c-1.31,0-1.98,0.77-1.98,2.27h-3.79c0.05-1.75,0.57-3.12,1.6-4.1c1.01-0.95,2.42-1.44,4.23-1.44c1.65,0,2.99,0.41,4.05,1.19
			c1.13,0.88,1.73,2.09,1.73,3.66c0,2.24-2.14,5.28-6.37,9.1h6.55v3.25H323.18z"/>
		<path class="st3" d="M342.53,114h1.55v1.81c-0.32,1.27-0.85,2.54-1.57,3.83v0.62c0.65-0.5,1.21-1.07,1.65-1.69l0.87,0.58v-2.8
			h4.26v-1.09h-4.56v-2.22h4.56v-2.04h2.36v2.04h1.69c-0.32-0.54-0.67-1.01-1.05-1.41l1.88-0.56c0.48,0.38,1.01,0.91,1.57,1.59
			l-1.07,0.38h1.88v2.22h-4.9v1.09h4.26v11.27c0,1.21-0.67,1.81-1.96,1.81h-1.57l-0.4-2.3c0.73,0.06,1.13,0.08,1.25,0.08
			c0.26,0,0.4-0.14,0.4-0.46v-1.19h-1.98v3.55h-2.36v-3.55h-1.9v3.95h-2.36v-6.76l-1.09,1.71c-0.44-0.65-0.91-1.25-1.43-1.82v6.92
			h-2.36v-6.49c-0.36,0.44-0.75,0.89-1.11,1.31l-1.17-2.6c1.8-1.57,3.02-3.43,3.69-5.53h-3.47V114h2.04
			c-0.16-0.81-0.36-1.63-0.61-2.44l2.36-0.48C342.13,111.92,342.35,112.91,342.53,114z M345.03,120.63
			c-0.32,0.3-0.67,0.56-1.03,0.79c0.4,0.34,0.75,0.65,1.03,0.93V120.63z M349.29,119.98v-1.57h-1.9v1.57H349.29z M349.29,123.61
			v-1.65h-1.9v1.65H349.29z M351.65,119.98h1.98v-1.57h-1.98V119.98z M351.65,123.61h1.98v-1.65h-1.98V123.61z"/>
		<path class="st3" d="M363.99,111.88c-0.08,0.32-0.18,0.62-0.26,0.93h1.41c-0.2-0.32-0.44-0.67-0.69-1.01l2.38-0.48
			c0.32,0.44,0.58,0.95,0.79,1.49h0.93v-1.65h2.52v1.65h0.91c0.36-0.46,0.71-0.99,0.99-1.57l2.3,0.56c-0.22,0.4-0.44,0.73-0.67,1.01
			h1.92v4.03h-1.57v1.96h-9.92v-1.96h-1.57v-3.11c-0.24,0.75-0.5,1.45-0.79,2.12v13.51h-2.3v-9.3c-0.34,0.52-0.71,1.01-1.09,1.49
			l-0.95-2.84c1.47-2.02,2.54-4.52,3.23-7.48L363.99,111.88z M375.81,119.36v7.56h-2.32c1.07,0.2,2.16,0.42,3.27,0.71l-0.65,1.96
			c-1.81-0.61-3.69-1.05-5.67-1.33l0.62-1.33h-2.6l0.56,1.25c-1.31,0.73-3.05,1.17-5.2,1.35l-0.63-2.06
			c1.25-0.02,2.56-0.2,3.93-0.54h-2.98v-7.56H375.81z M374.32,115.19v-0.65h-8.67v0.65H374.32z M373.37,121.56v-0.62h-6.78v0.62
			H373.37z M373.37,123.45v-0.63h-6.78v0.63H373.37z M373.37,124.7h-6.78v0.65h6.78V124.7z M372.66,116.68h-5.36v0.63h5.36V116.68z"
			/>
		<path class="st3" d="M385.44,128.69h-3.97l6.21-13.66h-7.78v-3.25h12.01v2.27L385.44,128.69z"/>
		<path class="st3" d="M407.37,125.98c-1.13,2.06-2.94,3.09-5.39,3.09c-2.47,0-4.25-1.03-5.36-3.09c-0.83-1.5-1.21-3.35-1.21-5.62
			c0-2.24,0.39-4.12,1.21-5.64c1.11-2.11,2.89-3.17,5.36-3.17c2.45,0,4.25,1.06,5.39,3.17c0.8,1.52,1.21,3.4,1.21,5.64
			C408.58,122.63,408.17,124.49,407.37,125.98z M401.98,114.67c-1.93,0-2.89,1.91-2.89,5.7c0,3.71,0.95,5.57,2.89,5.57
			c1.91,0,2.89-1.86,2.89-5.57C404.87,116.57,403.89,114.67,401.98,114.67z"/>
		<path class="st3" d="M417.07,120.15c-0.65,0.77-1.53,1.13-2.62,1.13c-1.11,0-1.98-0.36-2.62-1.13c-0.58-0.65-0.87-1.41-0.87-2.34
			c0-0.89,0.28-1.67,0.87-2.34c0.65-0.75,1.51-1.13,2.62-1.13c1.09,0,1.98,0.38,2.62,1.13c0.56,0.67,0.87,1.45,0.87,2.34
			C417.93,118.73,417.63,119.5,417.07,120.15z M415.09,116.92c-0.18-0.22-0.4-0.34-0.65-0.34c-0.26,0-0.48,0.12-0.65,0.34
			c-0.18,0.24-0.26,0.52-0.26,0.89c0,0.36,0.08,0.67,0.26,0.89c0.16,0.24,0.38,0.36,0.65,0.36c0.24,0,0.46-0.12,0.65-0.36
			c0.16-0.22,0.26-0.52,0.26-0.89C415.35,117.44,415.25,117.16,415.09,116.92z M416.02,127.87h-2.24l7.68-13.73h2.24L416.02,127.87z
			 M425.7,126.44c-0.65,0.77-1.53,1.13-2.62,1.13c-1.11,0-1.98-0.36-2.62-1.13c-0.58-0.65-0.87-1.41-0.87-2.34
			c0-0.89,0.28-1.67,0.87-2.34c0.65-0.75,1.51-1.13,2.62-1.13c1.09,0,1.98,0.38,2.62,1.13c0.56,0.67,0.87,1.45,0.87,2.34
			C426.57,125.03,426.26,125.79,425.7,126.44z M423.72,123.21c-0.18-0.24-0.4-0.36-0.65-0.36c-0.26,0-0.48,0.12-0.65,0.36
			c-0.18,0.24-0.26,0.52-0.26,0.89c0,0.36,0.08,0.67,0.26,0.89c0.16,0.24,0.38,0.36,0.65,0.36c0.24,0,0.46-0.12,0.65-0.36
			c0.16-0.22,0.26-0.52,0.26-0.89C423.98,123.74,423.88,123.45,423.72,123.21z"/>
	</g>
</g>
<g>
	<g>
		<path class="st3" d="M529.64,113.91h7.1v2.44h-9.48c-0.04,0.85-0.1,1.63-0.2,2.36h8.11l-0.12,3.91c-0.12,3.11-0.58,5-1.37,5.73
			c-0.65,0.61-1.77,0.93-3.39,0.93h-2.36l-0.65-2.76c1.65,0.12,2.64,0.16,3,0.16c0.71,0,1.19-0.16,1.43-0.52
			c0.32-0.48,0.5-1.73,0.54-3.75l0.06-1.39h-5.69c-0.24,1.01-0.56,1.94-0.95,2.74c-1.05,2.12-2.78,4.03-5.18,5.77l-1.65-2.52
			c1.71-1.09,3.07-2.44,4.05-4.05c0.95-1.61,1.43-3.63,1.47-6.09v-0.5h-4.88v-2.44h7.2c-0.24-0.91-0.52-1.71-0.83-2.44l3.15-0.32
			C529.26,112.08,529.46,112.99,529.64,113.91z"/>
		<path class="st3" d="M547.11,122.67v-0.95h2.52v0.95h7.56v1.88h-5.65c1.73,0.97,3.81,1.71,6.27,2.22l-1.33,2.12
			c-1.39-0.32-2.94-1.03-4.64-2.08c-0.83-0.5-1.57-1.03-2.22-1.59v4.23h-2.52v-4.19c-0.48,0.5-1.01,0.95-1.59,1.31
			c-1.33,0.87-2.98,1.59-4.94,2.24l-1.65-2.12c1.75-0.34,3.29-0.81,4.6-1.39c0.52-0.22,0.97-0.46,1.35-0.75h-5.32v-1.88H547.11z
			 M549.95,112.26h7.08v2.76h-2.52v-0.79h-7.16l1.41,0.22c-0.26,0.38-0.52,0.75-0.81,1.11h8.69v1.9h-2.96
			c-0.44,0.67-0.95,1.23-1.47,1.71c1.55,0.32,3.13,0.69,4.74,1.05l-1.33,1.88c-1.73-0.54-3.61-1.05-5.59-1.53
			c-0.2,0.1-0.38,0.18-0.54,0.24c-2.22,0.85-5.16,1.37-8.83,1.53l-0.79-2.04c2.86-0.02,5.06-0.18,6.63-0.5
			c-1.53-0.28-3.09-0.56-4.68-0.85c0.58-0.48,1.15-0.97,1.67-1.49h-3.49v-1.9h5.2c0.34-0.44,0.67-0.89,0.99-1.33h-3.89v0.79h-2.52
			v-2.76h7.12c-0.12-0.4-0.22-0.77-0.34-1.11l3.15-0.3C549.79,111.33,549.87,111.8,549.95,112.26z M546.3,117.46
			c-0.18,0.2-0.36,0.38-0.52,0.54c1.25,0.2,2.54,0.4,3.83,0.65c0.52-0.32,0.99-0.71,1.43-1.19H546.3z"/>
		<path class="st3" d="M570.98,127.81c-1.16,0.85-2.6,1.26-4.36,1.26c-1.88,0-3.38-0.44-4.48-1.34c-1.24-0.95-1.88-2.35-1.93-4.2
			h3.69c0.21,1.55,1.11,2.29,2.73,2.29c0.8,0,1.44-0.18,1.93-0.59c0.46-0.41,0.7-0.95,0.7-1.65c0-1.31-0.98-1.98-2.91-1.98
			c-0.15,0-0.7,0.08-1.62,0.18v-3.56c0.83,0.1,1.44,0.13,1.83,0.13c0.75,0,1.34-0.15,1.8-0.49c0.44-0.33,0.67-0.8,0.67-1.42
			c0-1.11-0.83-1.68-2.45-1.68c-1.52,0-2.37,0.72-2.53,2.11h-3.58c0.05-1.65,0.64-2.99,1.78-3.97c1.08-0.93,2.47-1.39,4.23-1.39
			c1.8,0,3.27,0.39,4.36,1.11c1.24,0.88,1.88,2.14,1.88,3.84c0,1.39-0.59,2.55-1.73,3.43c1.31,0.98,1.98,2.27,1.98,3.87
			C572.97,125.52,572.3,126.86,570.98,127.81z"/>
		<path class="st3" d="M580.03,114h1.55v1.81c-0.32,1.27-0.85,2.54-1.57,3.83v0.62c0.65-0.5,1.21-1.07,1.65-1.69l0.87,0.58v-2.8
			h4.26v-1.09h-4.56v-2.22h4.56v-2.04h2.36v2.04h1.69c-0.32-0.54-0.67-1.01-1.05-1.41l1.88-0.56c0.48,0.38,1.01,0.91,1.57,1.59
			l-1.07,0.38h1.88v2.22h-4.9v1.09h4.26v11.27c0,1.21-0.67,1.81-1.96,1.81h-1.57l-0.4-2.3c0.73,0.06,1.13,0.08,1.25,0.08
			c0.26,0,0.4-0.14,0.4-0.46v-1.19h-1.98v3.55h-2.36v-3.55h-1.9v3.95h-2.36v-6.76l-1.09,1.71c-0.44-0.65-0.91-1.25-1.43-1.82v6.92
			h-2.36v-6.49c-0.36,0.44-0.75,0.89-1.11,1.31l-1.17-2.6c1.8-1.57,3.02-3.43,3.69-5.53h-3.47V114h2.04
			c-0.16-0.81-0.36-1.63-0.61-2.44l2.36-0.48C579.63,111.92,579.85,112.91,580.03,114z M582.53,120.63
			c-0.32,0.3-0.67,0.56-1.03,0.79c0.4,0.34,0.75,0.65,1.03,0.93V120.63z M586.78,119.98v-1.57h-1.9v1.57H586.78z M586.78,123.61
			v-1.65h-1.9v1.65H586.78z M589.14,119.98h1.98v-1.57h-1.98V119.98z M589.14,123.61h1.98v-1.65h-1.98V123.61z"/>
		<path class="st3" d="M601.49,111.88c-0.08,0.32-0.18,0.62-0.26,0.93h1.41c-0.2-0.32-0.44-0.67-0.69-1.01l2.38-0.48
			c0.32,0.44,0.58,0.95,0.79,1.49h0.93v-1.65h2.52v1.65h0.91c0.36-0.46,0.71-0.99,0.99-1.57l2.3,0.56c-0.22,0.4-0.44,0.73-0.67,1.01
			h1.92v4.03h-1.57v1.96h-9.92v-1.96h-1.57v-3.11c-0.24,0.75-0.5,1.45-0.79,2.12v13.51h-2.3v-9.3c-0.34,0.52-0.71,1.01-1.09,1.49
			l-0.95-2.84c1.47-2.02,2.54-4.52,3.23-7.48L601.49,111.88z M613.31,119.36v7.56h-2.32c1.07,0.2,2.16,0.42,3.27,0.71l-0.65,1.96
			c-1.81-0.61-3.69-1.05-5.67-1.33l0.62-1.33h-2.6l0.56,1.25c-1.31,0.73-3.05,1.17-5.2,1.35l-0.63-2.06
			c1.25-0.02,2.56-0.2,3.93-0.54h-2.98v-7.56H613.31z M611.81,115.19v-0.65h-8.67v0.65H611.81z M610.86,121.56v-0.62h-6.78v0.62
			H610.86z M610.86,123.45v-0.63h-6.78v0.63H610.86z M610.86,124.7h-6.78v0.65h6.78V124.7z M610.16,116.68h-5.36v0.63h5.36V116.68z"
			/>
		<path class="st3" d="M628.01,127.76c-1.19,0.88-2.73,1.29-4.64,1.29c-1.91,0-3.45-0.44-4.61-1.31c-1.29-0.95-1.91-2.32-1.91-4.07
			c0-1.44,0.67-2.68,2.01-3.66c-1.19-0.93-1.78-2.06-1.78-3.4c0-1.65,0.64-2.94,1.98-3.87c1.16-0.8,2.6-1.21,4.3-1.21
			c1.7,0,3.12,0.41,4.3,1.21c1.31,0.93,1.98,2.22,1.98,3.87c0,1.34-0.59,2.47-1.75,3.4c1.34,0.98,2.04,2.22,2.04,3.66
			C629.94,125.44,629.3,126.81,628.01,127.76z M623.37,121.63c-1.91,0-2.84,0.7-2.84,2.04c0,1.44,0.93,2.14,2.84,2.14
			c1.91,0,2.89-0.7,2.89-2.14C626.26,122.32,625.28,121.63,623.37,121.63z M623.37,114.8c-1.73,0-2.58,0.62-2.58,1.8
			s0.85,1.78,2.58,1.78c1.75,0,2.63-0.59,2.63-1.78S625.13,114.8,623.37,114.8z"/>
		<path class="st3" d="M644.87,125.98c-1.13,2.06-2.94,3.09-5.39,3.09c-2.47,0-4.25-1.03-5.36-3.09c-0.83-1.5-1.21-3.35-1.21-5.62
			c0-2.24,0.39-4.12,1.21-5.64c1.11-2.11,2.89-3.17,5.36-3.17c2.45,0,4.25,1.06,5.39,3.17c0.8,1.52,1.21,3.4,1.21,5.64
			C646.08,122.63,645.67,124.49,644.87,125.98z M639.48,114.67c-1.93,0-2.89,1.91-2.89,5.7c0,3.71,0.95,5.57,2.89,5.57
			c1.91,0,2.89-1.86,2.89-5.57C642.37,116.57,641.39,114.67,639.48,114.67z"/>
		<path class="st3" d="M654.57,120.15c-0.65,0.77-1.53,1.13-2.62,1.13c-1.11,0-1.98-0.36-2.62-1.13c-0.58-0.65-0.87-1.41-0.87-2.34
			c0-0.89,0.28-1.67,0.87-2.34c0.65-0.75,1.51-1.13,2.62-1.13c1.09,0,1.98,0.38,2.62,1.13c0.56,0.67,0.87,1.45,0.87,2.34
			C655.43,118.73,655.13,119.5,654.57,120.15z M652.59,116.92c-0.18-0.22-0.4-0.34-0.65-0.34c-0.26,0-0.48,0.12-0.65,0.34
			c-0.18,0.24-0.26,0.52-0.26,0.89c0,0.36,0.08,0.67,0.26,0.89c0.16,0.24,0.38,0.36,0.65,0.36c0.24,0,0.46-0.12,0.65-0.36
			c0.16-0.22,0.26-0.52,0.26-0.89C652.85,117.44,652.75,117.16,652.59,116.92z M653.52,127.87h-2.24l7.68-13.73h2.24L653.52,127.87z
			 M663.2,126.44c-0.65,0.77-1.53,1.13-2.62,1.13c-1.11,0-1.98-0.36-2.62-1.13c-0.58-0.65-0.87-1.41-0.87-2.34
			c0-0.89,0.28-1.67,0.87-2.34c0.65-0.75,1.51-1.13,2.62-1.13c1.09,0,1.98,0.38,2.62,1.13c0.56,0.67,0.87,1.45,0.87,2.34
			C664.06,125.03,663.76,125.79,663.2,126.44z M661.22,123.21c-0.18-0.24-0.4-0.36-0.65-0.36c-0.26,0-0.48,0.12-0.65,0.36
			c-0.18,0.24-0.26,0.52-0.26,0.89c0,0.36,0.08,0.67,0.26,0.89c0.16,0.24,0.38,0.36,0.65,0.36c0.24,0,0.46-0.12,0.65-0.36
			c0.16-0.22,0.26-0.52,0.26-0.89C661.48,123.74,661.38,123.45,661.22,123.21z"/>
	</g>
</g>
<g>
	<path class="st4" d="M161.2,42.78l-6.2,6.43l-23-28.5c0,0,6.51-3.6,7.48-3.07"/>
	<path class="st4" d="M66.68,45.16l6.68,5.93L94.09,20.9c0,0-6.77-3.09-7.69-2.48"/>
	<g>
		<path class="st5" d="M129.27,19.86c1.94-2.95,3.29-6.3,3.86-9.78c-2.29,3.94-6.49,6.69-11,7.26c-0.23-0.06-0.46-0.13-0.69-0.18
			c2.24-3.45,1.85-7.98,1.36-12.1c-0.97,3.07-3.69,5.1-6.28,7.02c-2.4,1.77-4.95,4.5-8.16,4.62c-11.72,0.46-20.91,8.54-22.71,11.22
			c-7.66,7.78-12.81,18.69-12.63,30.72c0.35,23.43,18.78,34.94,41.86,34.59c23.08-0.35,42.07-12.43,41.72-35.86
			C156.34,40.48,143.9,26.39,129.27,19.86z"/>
	</g>
	
		<ellipse transform="matrix(0.0261 -0.9997 0.9997 0.0261 37.9345 188.0106)" class="st6" cx="115.46" cy="74.54" rx="14.24" ry="21.78"/>
	<path class="st7" d="M86.4,18.42c0,0,16.14,21.63,7.99,27.37s-23.62,1.79-23.62,1.79s-4.33,0.09-4.1-3.57
		C66.89,40.36,66.92,22.02,86.4,18.42z"/>
	<path class="st7" d="M139.47,17.64c0,0-14.43,22.81-5.85,27.91c8.57,5.1,23.69-0.04,23.69-0.04s4.33-0.24,3.81-3.87
		C160.61,38.01,159.18,19.73,139.47,17.64z"/>
	<path class="st5" d="M80.14,78.16c0,0-8.28-2.48-10.14,7.24c-1.81,9.43,22.35,9.38,22.35,0.41C92.35,77.54,82.83,76.1,80.14,78.16z
		"/>
	<g>
		<path class="st7" d="M76.35,84.26c-1.04,2.36-1.6,5.34-0.21,7.67c0.68,1.14,2.47,0.1,1.79-1.04c-0.68-1.14-0.63-2.49-0.35-3.75
			c0.1-0.44,0.22-0.87,0.36-1.29c0.04-0.13,0.29-0.76,0.2-0.54C78.67,84.1,76.89,83.05,76.35,84.26L76.35,84.26z"/>
	</g>
	<g>
		<path class="st7" d="M83.38,84.68c-1.14,2.05-1.46,4.53-0.93,6.8c0.3,1.3,2.3,0.75,2-0.55c-0.4-1.72-0.14-3.65,0.72-5.2
			C85.82,84.56,84.03,83.51,83.38,84.68L83.38,84.68z"/>
	</g>
	<path class="st5" d="M149.65,79.09c0,0,8.28-2.48,10.14,7.24c1.81,9.43-22.35,9.38-22.35,0.41
		C137.44,78.47,146.96,77.02,149.65,79.09z"/>
	<g>
		<path class="st7" d="M152.55,85.71c0,0,1.86,4.14,0.21,6.62"/>
		<g>
			<path class="st7" d="M151.65,86.23c-0.09-0.21,0.12,0.32,0.16,0.44c0.16,0.45,0.29,0.92,0.4,1.39c0.28,1.26,0.33,2.61-0.35,3.75
				c-0.69,1.15,1.1,2.19,1.79,1.04c1.39-2.32,0.83-5.31-0.21-7.67C152.9,83.97,151.12,85.02,151.65,86.23L151.65,86.23z"/>
		</g>
	</g>
	<g>
		<path class="st7" d="M145.51,86.12c0,0,1.66,2.9,0.83,6"/>
		<g>
			<path class="st7" d="M144.62,86.64c0.87,1.55,1.12,3.49,0.72,5.2c-0.3,1.3,1.69,1.85,2,0.55c0.53-2.27,0.21-4.75-0.93-6.8
				C145.76,84.44,143.97,85.48,144.62,86.64L144.62,86.64z"/>
		</g>
	</g>
	<g>
		<path class="st8" d="M106.01,52.71c-0.42,2.2-2.54,3.64-4.74,3.22c-2.2-0.42-3.64-2.54-3.22-4.74c0.42-2.2,2.54-3.64,4.74-3.22
			C104.99,48.38,106.43,50.51,106.01,52.71z"/>
		<path class="st8" d="M132.56,51.39c-0.42,2.2-2.54,3.64-4.74,3.22c-2.2-0.42-3.64-2.54-3.22-4.74c0.42-2.2,2.54-3.64,4.74-3.22
			C131.54,47.07,132.98,49.19,132.56,51.39z"/>
		<path class="st8" d="M116.35,72.67c-0.23,1.95-0.81,3.92-2.23,5.33c-1.35,1.34-3.52,2.53-5.44,2.32c-0.46-0.05-0.45,0.67,0,0.72
			c2.12,0.23,4.46-1.06,5.95-2.53c1.57-1.55,2.19-3.7,2.44-5.84C117.12,72.21,116.41,72.21,116.35,72.67L116.35,72.67z"/>
		<path class="st8" d="M116.82,72.71c0.22,1.95,0.79,3.92,2.21,5.34c1.34,1.35,3.51,2.55,5.43,2.35c0.46-0.05,0.45,0.67,0,0.72
			c-2.12,0.22-4.46-1.09-5.93-2.56c-1.56-1.56-2.17-3.71-2.42-5.85C116.05,72.25,116.77,72.26,116.82,72.71L116.82,72.71z"/>
		<path class="st8" d="M122.07,68.7c-0.1,1.83-2.72,4.66-5.77,4.5c-3.05-0.16-5.37-3.24-5.27-5.07c0.09-1.83,2.64-3.19,5.7-3.03
			C119.77,65.26,122.17,66.87,122.07,68.7z"/>
	</g>
</g>
<g>
	<g>
		<path class="st9" d="M570.15,83.1c-0.01-0.51-0.35-0.76-0.76-0.95c-2.66-1.21-5.08-2.83-7.23-4.77
			c-4.14-3.73-6.64-8.32-6.08-14.05c0.28-2.91,1.56-5.54,3.28-7.95c1.5-2.11,3.48-3.64,5.54-5.11c1.44-1.03,1.4-0.95,0.39-2.36
			c-2.68-3.75-4.7-7.83-5.54-12.4c-0.64-3.48-0.55-6.99-0.14-10.49c0.07-0.56-0.01-0.96-0.39-1.34c-0.22-0.22-0.42-0.46-0.66-0.66
			c-2.63-2.14-3.57-5.13-3.99-8.29c-0.26-1.99,0.41-3.94,1.22-5.73c0.84-1.86,2.24-3.3,3.9-4.59c2.68-2.09,8.57-2.22,11.16,0.02
			c0.89,0.77,1.72,1,2.89,0.17c3.02-2.14,6.55-3.12,10.11-3.88c1.25-0.27,2.59-0.63,3.99-0.2c0.85,0.26,1.91,0.27,2.75,0.01
			c1.4-0.43,2.74-0.07,4,0.18c3.88,0.77,7.6,2.07,10.94,4.28c1.41,0.93,1.45,0.93,2.6-0.24c1.91-1.95,4.28-2.99,6.95-2.99
			c4.17-0.01,7.26,2.03,9.33,5.63c3.1,5.39,1.43,13.02-4.64,16.31c-0.66,0.36-0.88,0.67-0.79,1.56c0.54,5.77,0.35,11.46-2.33,16.8
			c-1.22,2.43-2.43,4.85-4.39,6.97c1.41,1.14,2.93,2.05,4.28,3.18c2.68,2.24,4.52,5.01,5.61,8.3c2.01,6.09-0.17,11.13-4.09,15.65
			c-1.41,1.63-3.22,2.87-5.05,4c-0.91,0.56-1.43,1.12-1.28,2.18c-1-0.14-1.9,0.02-2.84,0.47c-4.8,2.27-9.9,3.3-15.18,3.81
			C585.54,87.39,577.75,85.98,570.15,83.1z"/>
		<path class="st3" d="M589.07,45.55c11.11-0.17,20.23,9.08,20.07,20.07c-0.17,10.98-8.49,19.12-19.64,19.94
			c-12.16-0.62-20.2-8.68-20.32-20.16C569.06,54.37,577.95,45.56,589.07,45.55z"/>
		<path class="st10" d="M599.85,19.09c-1.43,1.55-3.21,2.49-5.23,2.94c-2.4,0.53-3.26-0.08-3.76-2.49c-0.58-2.8-0.05-5.51,0.71-8.18
			c0.43-1.51,1.05-1.73,2.49-0.95c2.28,1.23,4.37,2.75,6.22,4.57C600.41,16.38,600.17,17.74,599.85,19.09z"/>
		<path class="st10" d="M605.06,15.1c1.89-1.06,3.87-1.92,5.97-2.44c1.69-0.42,2.14-0.08,2.23,1.64c0.14,2.74-0.16,5.43-1.19,7.99
			c-0.89,2.22-1.87,2.61-4.05,1.66c-1.91-0.83-3.46-2.12-4.47-3.99c0.51-1.36,1.31-2.64,0.96-4.21
			C604.43,15.44,604.81,15.26,605.06,15.1z"/>
		<path class="st11" d="M605.73,36.26c-0.04,2.18-1.95,4-4.12,3.93c-2.12-0.07-3.89-1.87-3.9-3.97c-0.01-2.18,1.85-4.03,4.03-4.02
			C603.92,32.21,605.77,34.09,605.73,36.26z"/>
		<path class="st11" d="M581.7,36.27c-0.03,2.23-1.87,4-4.07,3.92c-2.16-0.08-3.83-1.81-3.83-3.98c-0.01-2.23,1.78-4.03,3.98-4.02
			C579.99,32.21,581.74,34.03,581.7,36.27z"/>
		<path class="st12" d="M605.06,15.1c-0.13,0.33-0.37,0.64-0.21,1.04c0.63,1.63,0,2.84-1.3,3.82c-1.33,0.14-2.55-0.2-3.7-0.87
			c-0.52-1.44-0.12-2.78,0.43-4.11C601.89,14.33,603.47,14.95,605.06,15.1z"/>
		<path class="st13" d="M589.9,71.37c-1.39,1.92-3.07,3.01-5.41,2.81c-2.52-0.21-4.75-2.11-5.09-4.39c-0.06-0.4-0.26-0.93,0.32-1.1
			c0.65-0.19,0.82,0.26,0.93,0.81c0.53,2.6,3.43,3.98,5.57,3.21c1.67-0.6,2.78-1.91,2.92-3.68c0-0.06,0-0.12,0.01-0.19
			c0.17-2.07,0.16-3.98-2.14-5.12c-1.13-0.56-2.01-1.62-2.99-2.48c-1.31-1.16-1.71-2.43-1.21-3.77c0.47-1.27,1.56-1.94,3.26-1.95
			c2.66,0,5.32-0.02,7.98,0.07c2.24,0.07,3.52,1.55,3.31,3.58c-0.1,0.93-0.6,1.61-1.31,2.15c-1.66,1.27-3.09,2.87-4.96,3.85
			c-0.42,0.22-0.46,0.51-0.46,0.89c0,0.87-0.02,1.73,0.02,2.6c0.13,2.3,1.69,4,3.88,4.28c2.04,0.27,3.92-1.04,4.61-3.19
			c0.06-0.17,0.05-0.37,0.1-0.54c0.14-0.44,0.49-0.52,0.89-0.44c0.5,0.11,0.47,0.49,0.39,0.87c-0.42,2.02-1.5,3.51-3.49,4.22
			c-2.09,0.75-4.02,0.43-5.72-1C590.82,72.47,590.44,71.96,589.9,71.37z"/>
	</g>
	<g>
		<path class="st14" d="M560.14,77.21c0,0-8.28-2.48-10.14,7.24c-1.81,9.43,22.35,9.38,22.35,0.41
			C572.35,76.59,562.83,75.14,560.14,77.21z"/>
		<g>
			<path class="st7" d="M556.35,83.31c-1.04,2.36-1.6,5.34-0.21,7.67c0.68,1.14,2.47,0.1,1.79-1.04c-0.68-1.14-0.63-2.49-0.35-3.75
				c0.1-0.44,0.22-0.87,0.36-1.29c0.04-0.13,0.29-0.76,0.2-0.54C558.67,83.15,556.89,82.09,556.35,83.31L556.35,83.31z"/>
		</g>
		<g>
			<path class="st7" d="M563.38,83.73c-1.14,2.05-1.46,4.53-0.93,6.8c0.3,1.3,2.3,0.75,2-0.55c-0.4-1.72-0.14-3.65,0.72-5.2
				C565.82,83.61,564.03,82.56,563.38,83.73L563.38,83.73z"/>
		</g>
	</g>
	<g>
		<path class="st14" d="M616.35,79.35c0,0,8.28-2.48,10.14,7.24c1.81,9.43-22.35,9.38-22.35,0.41
			C604.14,78.73,613.66,77.29,616.35,79.35z"/>
		<g>
			<path class="st7" d="M619.24,85.98c0,0,1.86,4.14,0.21,6.62"/>
			<g>
				<path class="st7" d="M618.35,86.5c-0.09-0.21,0.12,0.32,0.16,0.44c0.16,0.45,0.29,0.92,0.4,1.39c0.28,1.26,0.33,2.61-0.35,3.75
					c-0.69,1.15,1.1,2.19,1.79,1.04c1.39-2.32,0.83-5.31-0.21-7.67C619.6,84.24,617.82,85.29,618.35,86.5L618.35,86.5z"/>
			</g>
		</g>
		<g>
			<path class="st7" d="M612.21,86.39c0,0,1.66,2.9,0.83,6"/>
			<g>
				<path class="st7" d="M611.31,86.91c0.87,1.55,1.12,3.49,0.72,5.2c-0.3,1.3,1.69,1.85,2,0.55c0.53-2.27,0.21-4.75-0.93-6.8
					C612.45,84.7,610.66,85.75,611.31,86.91L611.31,86.91z"/>
			</g>
		</g>
	</g>
</g>
<g>
	<g>
		<g>
			<path class="st15" d="M357.9,14.71c0,0,16.62-12.76,22.37-10.6c5.74,2.15-0.06,22.05,0.65,25.54
				C381.62,33.14,353.95,25.91,357.9,14.71z"/>
			<path class="st16" d="M366.9,21.58c0,0,10.54-9.23,12.28-10.05c1.85-0.87-0.31,8.78-2.17,15.82S365.86,23.52,366.9,21.58z"/>
			<path class="st15" d="M331.07,17.17c0,0-19.62-7.36-24.48-3.63c-4.87,3.73,6.49,21.08,6.82,24.63
				C313.74,41.72,338.11,26.74,331.07,17.17z"/>
			<path class="st16" d="M314.15,35.85c0,0-5.26-12.98-5.47-14.9c-0.22-2.03,8.19,3.17,14.24,7.24
				C328.97,32.26,315.65,37.48,314.15,35.85z"/>
			<path class="st17" d="M379.68,27.72c-3.18-4.05-6.97-7.33-11.12-9.8c0.1,0.75,0.18,1.51,0.21,2.29
				c-0.05,1.59-0.51,2.99-0.97,4.39c-2.5,5.07-7.7,2.41-10.51-0.83c0.02,1.02-0.4,2.13-0.79,2.96c-4.01,6.78-10.02-1.21-14.86-2.08
				c-1.84-0.37-3.79,3.76-6.92,4.4c-2.07,0.33-3.62-1.31-3.66-3.35c-0.13-2.79-0.05-5.74-1.16-8.28c-1.4,0.82-2.76,1.74-4.06,2.77
				c-16.38,12.85-18.82,37.07-5.47,54.08s37.46,20.4,53.83,7.55C390.59,68.95,393.04,44.74,379.68,27.72z"/>
			<path class="st15" d="M334.73,29.03c3.13-0.64,5.08-4.76,6.92-4.4c4.83,0.87,10.84,8.86,14.86,2.08
				c0.39-0.82,0.81-1.94,0.79-2.96c2.81,3.24,8.01,5.91,10.51,0.83c0.46-1.4,0.92-2.8,0.97-4.39c-0.03-0.78-0.11-1.54-0.21-2.29
				c-11.89-7.08-26.72-7.53-38.65-0.52c1.11,2.54,1.03,5.49,1.16,8.28C331.11,27.72,332.66,29.36,334.73,29.03z"/>
			<path class="st18" d="M346.93,66.64c-0.01,0.17-0.01,0.35-0.01,0.52c0.03,3.01,1.34,4.19,2.78,4.18s2.48-1.22,2.45-4.23
				c0-0.18-0.17-0.24-0.18-0.41l-2.64-4.59L346.93,66.64z"/>
			<g>
				<g>
					
						<ellipse transform="matrix(0.0154 -0.9999 0.9999 0.0154 276.698 384.3162)" class="st19" cx="333.48" cy="51.67" rx="7.61" ry="10.81"/>
					<path class="st20" d="M344.29,51.83c-0.06,0.59-0.37,1.12-0.68,1.61c-0.31,0.5-0.68,0.97-1.06,1.41
						c-0.77,0.89-1.63,1.72-2.59,2.44c-1.88,1.46-4.18,2.55-6.74,2.7c-2.52,0.12-5.1-0.6-7.28-1.97c-1.08-0.7-2.09-1.52-2.96-2.54
						c-0.82-1.05-1.7-2.16-1.75-4.11c0.06-1.04,0.44-1.66,0.78-2.31c0.36-0.61,0.78-1.15,1.24-1.63c0.9-0.97,1.95-1.75,3.05-2.41
						c2.21-1.31,4.83-1.93,7.36-1.7c2.52,0.28,4.82,1.33,6.69,2.82c0.95,0.73,1.79,1.58,2.52,2.51
						C343.55,49.59,344.24,50.64,344.29,51.83z M344.29,51.83c-0.07-1.19-0.78-2.22-1.53-3.1c-0.77-0.88-1.69-1.62-2.67-2.24
						c-1.97-1.24-4.29-1.83-6.48-1.7c-2.19,0.19-4.25,1.06-5.96,2.35c-0.87,0.62-1.65,1.37-2.3,2.16c-0.34,0.39-0.61,0.81-0.85,1.21
						c-0.21,0.38-0.39,0.84-0.37,1c-0.03,0.44,0.42,1.46,1.04,2.23c0.61,0.82,1.36,1.59,2.2,2.24c1.67,1.34,3.7,2.29,5.89,2.57
						c1.08,0.11,2.21,0.04,3.31-0.23c1.1-0.28,2.17-0.75,3.16-1.35c0.99-0.61,1.92-1.33,2.74-2.17c0.4-0.43,0.79-0.87,1.12-1.36
						C343.91,52.94,344.23,52.42,344.29,51.83z"/>
				</g>
				<circle class="st21" cx="333.4" cy="51.89" r="6.17"/>
				<circle class="st3" cx="330.15" cy="50.4" r="1.22"/>
			</g>
			<g>
				<path class="st22" d="M349.83,61.1c-0.29,1.96-0.96,3.84-1.82,5.66c-0.89,1.8-2.09,3.51-3.65,4.93c-0.4,0.34-0.79,0.7-1.21,1.04
					l-1.34,0.91c-0.46,0.29-0.98,0.46-1.49,0.66c-0.26,0.08-0.51,0.2-0.78,0.25l-0.81,0.11c-2.16,0.33-4.33-0.23-6.1-1.3l0.06-0.29
					c0.52-0.16,1.01-0.24,1.49-0.34c0.48-0.08,0.94-0.11,1.39-0.26c0.45-0.13,0.89-0.2,1.32-0.3c0.43-0.08,0.84-0.27,1.25-0.38
					c1.59-0.55,3.31-0.87,4.77-1.94c1.45-1.02,2.75-2.35,3.86-3.86c1.12-1.5,2.06-3.2,2.78-4.98L349.83,61.1z"/>
			</g>
			<g>
				<path class="st22" d="M349.78,61.22c0.64,1.81,1.49,3.55,2.55,5.11c1.04,1.56,2.27,2.95,3.68,4.04
					c1.41,1.13,3.11,1.54,4.68,2.16c0.41,0.13,0.8,0.34,1.23,0.44c0.43,0.12,0.86,0.21,1.31,0.36c0.44,0.16,0.91,0.21,1.38,0.32
					c0.47,0.12,0.96,0.23,1.47,0.41l0.04,0.29c-1.82,0.98-4.01,1.44-6.16,1.01l-0.8-0.15c-0.26-0.07-0.51-0.19-0.77-0.29
					c-0.5-0.23-1.01-0.42-1.46-0.73l-1.3-0.97c-0.4-0.35-0.78-0.73-1.16-1.09c-1.49-1.49-2.61-3.25-3.42-5.1
					c-0.77-1.86-1.35-3.77-1.55-5.74L349.78,61.22z"/>
			</g>
			<g>
				<g>
					
						<ellipse transform="matrix(0.9978 -0.0656 0.0656 0.9978 -2.5213 24.1601)" class="st19" cx="366.52" cy="50.46" rx="10.81" ry="7.61"/>
					<path class="st20" d="M355.74,51.17c0.01-0.59,0.28-1.15,0.55-1.66c0.27-0.52,0.6-1.02,0.95-1.5c0.7-0.95,1.48-1.85,2.38-2.64
						c1.75-1.6,3.96-2.88,6.5-3.24c2.51-0.33,5.14,0.18,7.42,1.37c1.13,0.61,2.21,1.35,3.16,2.3c0.9,0.98,1.87,2.01,2.08,3.95
						c0.02,1.04-0.3,1.69-0.59,2.36c-0.31,0.64-0.69,1.21-1.1,1.73c-0.82,1.04-1.8,1.9-2.85,2.65c-2.1,1.48-4.66,2.31-7.19,2.29
						c-2.54-0.08-4.91-0.94-6.89-2.27c-1-0.65-1.91-1.43-2.71-2.3C356.66,53.34,355.89,52.36,355.74,51.17z M355.74,51.17
						c0.17,1.18,0.96,2.15,1.77,2.97c0.84,0.82,1.82,1.48,2.84,2.02c2.06,1.08,4.42,1.48,6.6,1.17c2.17-0.37,4.15-1.4,5.75-2.82
						c0.82-0.69,1.53-1.5,2.12-2.34c0.31-0.41,0.54-0.86,0.74-1.28c0.18-0.39,0.32-0.87,0.29-1.02c0-0.44-0.54-1.42-1.22-2.14
						c-0.67-0.76-1.48-1.47-2.37-2.06c-1.77-1.2-3.87-1.98-6.07-2.08c-1.09-0.02-2.2,0.14-3.28,0.5c-1.07,0.37-2.1,0.92-3.04,1.6
						c-0.93,0.69-1.81,1.48-2.56,2.39c-0.36,0.46-0.72,0.93-1,1.45C356.03,50.03,355.75,50.58,355.74,51.17z"/>
				</g>
				<circle class="st21" cx="366.59" cy="50.23" r="6.17"/>
				<circle class="st3" cx="369.95" cy="51.46" r="1.22"/>
			</g>
			<path class="st23" d="M345.99,58.53c0,0,3.99,0.07,6.17-0.77s2.1,3.15-1.05,5.26C347.95,65.12,343.26,59.44,345.99,58.53z"/>
		</g>
	</g>
	<g>
		<path class="st15" d="M323.2,79.05c0,0-8.28-2.48-10.14,7.24c-1.81,9.43,22.35,9.38,22.35,0.41
			C335.41,78.43,325.89,76.98,323.2,79.05z"/>
		<g>
			<path class="st7" d="M319.41,85.15c-1.04,2.36-1.6,5.34-0.21,7.67c0.68,1.14,2.47,0.1,1.79-1.04c-0.68-1.14-0.63-2.49-0.35-3.75
				c0.1-0.44,0.22-0.87,0.36-1.29c0.04-0.13,0.29-0.76,0.2-0.54C321.73,84.99,319.95,83.93,319.41,85.15L319.41,85.15z"/>
		</g>
		<g>
			<path class="st7" d="M326.45,85.56c-1.14,2.05-1.46,4.53-0.93,6.8c0.3,1.3,2.3,0.75,2-0.55c-0.4-1.72-0.14-3.65,0.72-5.2
				C328.88,85.44,327.1,84.4,326.45,85.56L326.45,85.56z"/>
		</g>
	</g>
	<g>
		<path class="st15" d="M379.41,81.19c0,0,8.28-2.48,10.14,7.24c1.81,9.43-22.35,9.38-22.35,0.41
			C367.2,80.57,376.72,79.12,379.41,81.19z"/>
		<g>
			<path class="st7" d="M382.31,87.81c0,0,1.86,4.14,0.21,6.62"/>
			<g>
				<path class="st7" d="M381.41,88.34c-0.09-0.21,0.12,0.32,0.16,0.44c0.16,0.45,0.29,0.92,0.4,1.39c0.28,1.26,0.33,2.61-0.35,3.75
					c-0.69,1.15,1.1,2.19,1.79,1.04c1.39-2.32,0.83-5.31-0.21-7.67C382.66,86.08,380.88,87.13,381.41,88.34L381.41,88.34z"/>
			</g>
		</g>
		<g>
			<path class="st7" d="M375.27,88.23c0,0,1.66,2.9,0.83,6"/>
			<g>
				<path class="st7" d="M374.38,88.75c0.87,1.55,1.12,3.49,0.72,5.2c-0.3,1.3,1.69,1.85,2,0.55c0.53-2.27,0.21-4.75-0.93-6.8
					C375.51,86.54,373.73,87.59,374.38,88.75L374.38,88.75z"/>
			</g>
		</g>
	</g>
</g>
</svg>
