<svg version="1.1" xmlns="http://www.w3.org/2000/svg" xmlns:xlink="http://www.w3.org/1999/xlink" x="0px" y="0px"
	 width="90.242px" height="78.607px" viewBox="0 0 90.242 78.607" enable-background="new 0 0 90.242 78.607" xml:space="preserve">
<g class="backhand">
	
		<path fill="#FFFFFF" stroke="#000000" stroke-width="4" stroke-linecap="round" stroke-linejoin="round" stroke-miterlimit="10" d="
		M82.483,42.648c7.831,0,7.523-33.467,0-33.467c-3.953,0-9.066,0.018-15.016,0.018c-5.951,0-8.502-0.66-8.502,6.053
		s0,16.628,0,20.879s1.701,6.517,7.367,6.517C72.001,42.648,78.224,42.648,82.483,42.648z"/>
	<g>
		
			<path fill="#FFFFFF" stroke="#000000" stroke-width="4" stroke-linecap="round" stroke-linejoin="round" stroke-miterlimit="10" d="
			M23.806,42.054c0,0-3.15-0.332-4-1.93c-0.753-1.415-0.123-3.373,1.803-3.876c0.707-0.187,2.925-0.11,2.925-0.11
			c1.013-0.051,0.982-0.921-0.081-1.037l-3.875-0.063c-1.326-0.041-3.522-1.562-3.466-3.397c0.061-1.955,2.098-3.584,3.174-3.551
			c0,0,4.211,0.045,5.557,0.144c0.702,0.05,0.852-1.239-0.75-1.23l-5.275-0.133c-1.606-0.049-4.056-2.003-3.995-4
			c0.06-2.005,2.38-3.127,3.987-3.078l6.058,0.263c0.748-0.15,0.789-1.205-0.014-1.229l-6.404-0.314L5.877,18.018
			c-1.606-0.049-3.937-0.914-3.876-2.949c0.067-2.213,2.323-3.19,3.845-3.379l28.945,0.098l-2.423-2.724L27.75,8.442
			c0,0-5.034-0.696-5.517-2.665c-0.238-0.965,0.319-2.252,1.281-2.944c0.911-0.654,5.936-0.417,5.936-0.417L35.513,2
			c4.384,1.021,8.022,3.239,8.022,3.239c2.421,1.195,5.979,3.625,7.945,4.708c5.896,3.251,11.105,5.666,11.105,5.666
			c1.736,1.466,1.555,1.882,1.992,6.868l0.174,5.311l-0.994,5.025l-1.786,3.538c-12.218,5.681-24.247,5.569-24.247,5.569
			L23.806,42.054z"/>
	</g>
	
		<circle fill="none" stroke="#000000" stroke-width="2" stroke-linecap="round" stroke-linejoin="round" stroke-miterlimit="10" cx="74.72" cy="17.89" r="3.256"/>
</g>
<g class="backtext">
	<path d="M29.138,59.992c0-1.045,0.718-1.633,1.72-1.633h4.181c2.264,0,4.093,1.523,4.093,3.832c0,1.523-0.631,2.547-2.025,3.201
		v0.043c1.851,0.262,3.31,1.808,3.31,3.701c0,3.07-2.047,4.726-5.051,4.726H30.88c-1.001,0-1.742-0.632-1.742-1.655V59.992z
		 M32.404,64.5h1.698c1.067,0,1.764-0.633,1.764-1.721c0-1.023-0.806-1.546-1.764-1.546h-1.698V64.5z M32.404,70.988h2.569
		c1.176,0,2.047-0.676,2.047-1.895c0-1.023-0.784-1.721-2.308-1.721h-2.308V70.988z"/>
	<path d="M52.704,71.946c0,0.806,0,2.047-1.503,2.047c-0.914,0-1.284-0.501-1.502-1.329c-0.806,0.959-1.786,1.459-2.983,1.459
		c-2.939,0-5.182-2.504-5.182-6.031c0-3.439,2.308-6.074,5.182-6.074c1.154,0,2.287,0.457,2.983,1.437
		c0.087-0.763,0.74-1.306,1.502-1.306c1.503,0,1.503,1.24,1.503,2.046V71.946z M47.151,71.25c1.633,0,2.417-1.655,2.417-3.158
		c0-1.502-0.763-3.201-2.417-3.201c-1.72,0-2.482,1.699-2.482,3.201C44.669,69.594,45.453,71.25,47.151,71.25z"/>
	<path d="M62.751,65.5c-0.784,0-1.48-0.61-2.482-0.61c-1.785,0-2.635,1.59-2.635,3.201c0,1.547,0.936,3.158,2.635,3.158
		c0.783,0,1.959-0.654,2.33-0.654c0.74,0,1.35,0.632,1.35,1.372c0,1.611-2.7,2.155-3.832,2.155c-3.375,0-5.618-2.765-5.618-6.031
		c0-3.179,2.308-6.074,5.618-6.074c1.24,0,3.832,0.457,3.832,1.98C63.948,64.652,63.491,65.5,62.751,65.5z"/>
	<path d="M65.585,58.837c0-1.045,0.654-1.742,1.568-1.742s1.568,0.697,1.568,1.742v7.316l3.439-3.332
		c0.501-0.479,1.002-0.674,1.416-0.674c0.783,0,1.328,0.718,1.328,1.414c0,0.458-0.152,0.828-0.609,1.242l-2.787,2.482l3.68,4.311
		c0.283,0.326,0.392,0.697,0.392,1.045c0,0.828-0.653,1.48-1.48,1.48c-0.566,0-1.002-0.348-1.503-0.957l-3.832-4.726h-0.043v3.811
		c0,1.046-0.654,1.742-1.568,1.742s-1.568-0.696-1.568-1.742V58.837z"/>
</g>
</svg>
