<svg version="1.2" baseProfile="tiny"
	 xmlns="http://www.w3.org/2000/svg" xmlns:xlink="http://www.w3.org/1999/xlink" x="0px" y="0px" width="22.677px"
	 height="22.677px" viewBox="0 0 22.677 22.677" xml:space="preserve">
<g>
	<path fill="#F2D6A7" d="M21.26,18.425c0,1.56-1.275,2.835-2.835,2.835H4.252c-1.559,0-2.834-1.275-2.834-2.835V4.252
		c0-1.559,1.275-2.834,2.834-2.834h14.173c1.56,0,2.835,1.275,2.835,2.834V18.425z"/>
	<path fill="none" stroke="#000000" stroke-width="2.8346" stroke-miterlimit="10" d="M21.26,18.425c0,1.56-1.275,2.835-2.835,2.835
		H4.252c-1.559,0-2.834-1.275-2.834-2.835V4.252c0-1.559,1.275-2.834,2.834-2.834h14.173c1.56,0,2.835,1.275,2.835,2.834V18.425z"/>
</g>
</svg>
