<svg version="1.2" baseProfile="tiny"
	 xmlns="http://www.w3.org/2000/svg" xmlns:xlink="http://www.w3.org/1999/xlink" x="0px" y="0px" width="251.61px"
	 height="32.178px" viewBox="0 0 251.61 32.178" xml:space="preserve">
<g>
	<g>
		<path stroke="#FFFFFF" stroke-width="0.66" d="M17.346,1.844c0,0.086,0.043,0.129,0.129,0.129h10.989
			c0.408,0,0.752,0.141,1.031,0.42s0.419,0.617,0.419,1.016c0,0.396-0.14,0.734-0.419,1.014s-0.623,0.42-1.031,0.42H17.539
			c-0.129,0-0.193,0.064-0.193,0.193v0.289c0,0.129,0.064,0.193,0.193,0.193h8.153c0.387,0,0.709,0.129,0.967,0.387
			s0.387,0.576,0.387,0.951c0,0.377-0.129,0.693-0.387,0.951s-0.58,0.387-0.967,0.387H4.423c-0.365,0-0.677-0.129-0.935-0.387
			S3.102,7.232,3.102,6.855c0-0.375,0.129-0.693,0.387-0.951s0.569-0.387,0.935-0.387h7.863c0.129,0,0.193-0.064,0.193-0.193V5.035
			c0-0.129-0.064-0.193-0.193-0.193H1.78c-0.408,0-0.752-0.141-1.031-0.42S0.33,3.805,0.33,3.408c0-0.398,0.14-0.736,0.419-1.016
			s0.623-0.42,1.031-0.42h10.57c0.086,0,0.129-0.043,0.129-0.129c0-0.387,0.14-0.719,0.419-0.998s0.612-0.42,0.999-0.42h2.03
			c0.387,0,0.72,0.141,0.999,0.42S17.346,1.457,17.346,1.844z M2.779,19.859c-0.623,0-1.155-0.221-1.595-0.66
			c-0.441-0.441-0.661-0.973-0.661-1.596V16.99c0-0.623,0.22-1.154,0.661-1.594c0.439-0.441,0.972-0.662,1.595-0.662H27.4
			c0.623,0,1.154,0.221,1.595,0.662c0.44,0.439,0.661,0.971,0.661,1.594v0.613c0,0.623-0.221,1.154-0.661,1.596
			c-0.44,0.439-0.972,0.66-1.595,0.66h-1.772c-0.043,0-0.064,0.021-0.064,0.064c0,0.236-0.075,0.43-0.226,0.58
			s-0.344,0.225-0.58,0.225h-0.612c-0.021,0-0.032,0.021-0.032,0.064c0.387,0.258,0.784,0.527,1.192,0.807
			c0.451,0.322,0.682,0.768,0.693,1.338c0.01,0.568-0.21,1.035-0.661,1.4l-0.29,0.227c-0.021,0.021-0.032,0.043-0.032,0.064
			s0.021,0.031,0.064,0.031h0.258c0.365,0,0.682,0.135,0.95,0.404c0.269,0.268,0.403,0.584,0.403,0.949s-0.135,0.684-0.403,0.951
			c-0.269,0.27-0.585,0.402-0.95,0.402h-7.799c-0.129,0-0.193,0.064-0.193,0.193v0.322c0,0.129,0.064,0.193,0.193,0.193h10.474
			c0.43,0,0.795,0.15,1.096,0.451s0.451,0.672,0.451,1.113c0,0.439-0.15,0.811-0.451,1.111s-0.666,0.451-1.096,0.451H2.296
			c-0.451,0-0.827-0.15-1.128-0.451s-0.451-0.672-0.451-1.111c0-0.441,0.15-0.812,0.451-1.113s0.677-0.451,1.128-0.451h9.99
			c0.129,0,0.193-0.064,0.193-0.193v-0.322c0-0.129-0.064-0.193-0.193-0.193H5.325c-0.365,0-0.683-0.133-0.951-0.402
			c-0.269-0.268-0.402-0.586-0.402-0.951s0.134-0.682,0.402-0.949c0.269-0.27,0.586-0.404,0.951-0.404h6.961
			c0.129,0,0.193-0.064,0.193-0.193v-0.225c0-0.129-0.064-0.193-0.193-0.193c-2.879,0.064-5.5,0.096-7.863,0.096
			c-0.387,0-0.72-0.129-0.999-0.387s-0.43-0.58-0.451-0.967c-0.021-0.365,0.091-0.682,0.339-0.949
			c0.246-0.27,0.553-0.404,0.918-0.404l3.319,0.033c0.129,0,0.226-0.064,0.29-0.193l0.097-0.193l0.097-0.162
			c0.021-0.043,0.021-0.086,0-0.129s-0.054-0.064-0.097-0.064H4.938c-0.236,0-0.43-0.074-0.58-0.225s-0.226-0.344-0.226-0.58
			c0-0.043-0.021-0.064-0.064-0.064H2.779z M4.165,11.158c0-0.623,0.22-1.154,0.66-1.596c0.44-0.439,0.973-0.66,1.596-0.66h17.563
			c0.623,0,1.154,0.221,1.595,0.66c0.44,0.441,0.661,0.973,0.661,1.596v0.611c0,0.623-0.221,1.156-0.661,1.596
			c-0.44,0.441-0.972,0.66-1.595,0.66H6.421c-0.623,0-1.155-0.219-1.596-0.66c-0.44-0.439-0.66-0.973-0.66-1.596V11.158z
			 M25.145,17.828c0-0.129-0.064-0.193-0.193-0.193H5.003c-0.129,0-0.193,0.064-0.193,0.193v0.258c0,0.129,0.064,0.193,0.193,0.193
			h19.948c0.129,0,0.193-0.064,0.193-0.193V17.828z M21.374,11.834c0.129,0,0.193-0.064,0.193-0.193v-0.354
			c0-0.129-0.064-0.193-0.193-0.193H8.741c-0.129,0-0.193,0.064-0.193,0.193v0.354c0,0.129,0.064,0.193,0.193,0.193H21.374z
			 M17.765,20.729h-4.351c-0.129,0-0.236,0.055-0.322,0.162s-0.204,0.246-0.354,0.418c-0.021,0.043-0.021,0.082,0,0.113
			c0.021,0.033,0.043,0.049,0.064,0.049h6.059c0.021,0,0.032-0.021,0.032-0.064c-0.43-0.236-0.806-0.441-1.128-0.613
			C17.743,20.771,17.743,20.75,17.765,20.729z M17.346,24.467c0,0.129,0.064,0.193,0.193,0.193h5.962
			c0.021,0,0.037-0.016,0.049-0.047c0.01-0.033,0.005-0.061-0.017-0.082c-0.215-0.193-0.44-0.375-0.677-0.547
			c-0.107-0.086-0.226-0.129-0.354-0.129l-4.963,0.129c-0.129,0-0.193,0.064-0.193,0.193V24.467z"/>
		<path stroke="#FFFFFF" stroke-width="0.66" d="M37.511,8c0.15,0,0.226-0.064,0.226-0.193V3.23c0-0.623,0.22-1.154,0.66-1.596
			c0.44-0.439,0.973-0.66,1.596-0.66h0.483c0.623,0,1.154,0.221,1.595,0.66c0.44,0.441,0.661,0.973,0.661,1.596v25.941
			c0,0.623-0.221,1.154-0.661,1.596c-0.44,0.439-0.972,0.66-1.595,0.66h-0.483c-0.623,0-1.155-0.221-1.596-0.66
			c-0.44-0.441-0.66-0.973-0.66-1.596v-3.996c0-0.043-0.021-0.074-0.064-0.096s-0.086-0.033-0.129-0.033
			c-0.494,0.215-1.944,0.828-4.351,1.838c-0.58,0.236-1.155,0.236-1.724,0c-0.57-0.236-0.983-0.635-1.241-1.193l-0.354-0.838
			c-0.236-0.537-0.226-1.074,0.032-1.611s0.677-0.891,1.257-1.062c1.74-0.537,3.867-1.236,6.381-2.096
			c0.129-0.043,0.193-0.129,0.193-0.258v-6.863c0-0.129-0.075-0.193-0.226-0.193h-4.995c-0.623,0-1.155-0.221-1.596-0.66
			c-0.44-0.441-0.66-0.973-0.66-1.596v-0.258c0-0.623,0.22-1.154,0.66-1.596C31.36,8.221,31.893,8,32.516,8H37.511z M52.367,26.529
			h2.61c0.559,0,0.924-0.418,1.096-1.256c0.129-0.559,0.236-1.568,0.322-3.029c0.043-0.494,0.284-0.859,0.726-1.096
			c0.439-0.236,0.886-0.236,1.337,0c0.086,0.043,0.172,0.08,0.258,0.113c0.086,0.031,0.183,0.068,0.29,0.111
			c0.623,0.279,1.117,0.688,1.482,1.225s0.505,1.129,0.419,1.773c-0.258,2.191-0.688,3.803-1.289,4.834
			c-0.773,1.375-2.138,2.062-4.093,2.062h-3.932c-2.084,0-3.508-0.49-4.27-1.467c-0.764-0.979-1.145-2.799-1.145-5.463V3.262
			c0-0.623,0.22-1.154,0.66-1.594c0.44-0.441,0.973-0.662,1.596-0.662h0.483c0.623,0,1.154,0.221,1.595,0.662
			c0.44,0.439,0.661,0.971,0.661,1.594v6.865c0,0.043,0.017,0.074,0.048,0.096c0.033,0.021,0.07,0.021,0.113,0
			c1.268-0.838,2.621-1.836,4.061-2.996c0.494-0.387,1.047-0.543,1.66-0.467c0.611,0.074,1.111,0.348,1.498,0.82l0.645,0.838
			c0.365,0.473,0.494,1.006,0.387,1.596c-0.107,0.592-0.419,1.037-0.935,1.338c-2.17,1.289-4.608,2.621-7.315,3.996
			c-0.107,0.064-0.161,0.16-0.161,0.289v8.766c0,0.945,0.064,1.537,0.193,1.773S51.83,26.529,52.367,26.529z"/>
		<path stroke="#FFFFFF" stroke-width="0.66" d="M91.955,6.871c0,0.623-0.221,1.156-0.661,1.596c-0.44,0.441-0.972,0.66-1.595,0.66
			H79.193C79.064,9.127,79,9.191,79,9.32v2.482c0,0.129,0.064,0.193,0.193,0.193h7.896c0.623,0,1.154,0.221,1.596,0.66
			c0.439,0.441,0.66,0.973,0.66,1.596v8.701c0,1.16-0.145,2.068-0.436,2.723c-0.289,0.656-0.8,1.166-1.53,1.531
			c-0.773,0.365-1.987,0.602-3.642,0.709c-0.623,0.043-1.192-0.141-1.708-0.549s-0.881-0.934-1.096-1.578
			c-0.043-0.15-0.097-0.301-0.161-0.451c-0.172-0.473-0.118-0.924,0.161-1.354s0.677-0.635,1.192-0.613c0.451,0,0.945,0,1.482,0
			c0.494,0,0.741-0.172,0.741-0.516v-5.994c0-0.129-0.064-0.193-0.193-0.193h-4.963c-0.129,0-0.193,0.064-0.193,0.193v12.73
			c0,0.623-0.221,1.154-0.661,1.596c-0.44,0.439-0.972,0.66-1.595,0.66h-0.516c-0.623,0-1.155-0.221-1.595-0.66
			c-0.441-0.441-0.661-0.973-0.661-1.596v-12.73c0-0.129-0.064-0.193-0.193-0.193h-4.383c-0.129,0-0.193,0.064-0.193,0.193v8.799
			c0,0.623-0.221,1.154-0.661,1.596c-0.44,0.439-0.972,0.66-1.595,0.66h-0.354c-0.623,0-1.155-0.221-1.596-0.66
			c-0.44-0.441-0.66-0.973-0.66-1.596V14.252c0-0.623,0.22-1.154,0.66-1.596c0.44-0.439,0.973-0.66,1.596-0.66h7.187
			c0.129,0,0.193-0.064,0.193-0.193V9.32c0-0.129-0.064-0.193-0.193-0.193H63.596c-0.623,0-1.155-0.219-1.595-0.66
			C61.56,8.027,61.34,7.494,61.34,6.871V6.678c0-0.623,0.22-1.154,0.661-1.594c0.439-0.441,0.972-0.662,1.595-0.662h10.119
			c0.129,0,0.193-0.064,0.193-0.193V2.586c0-0.623,0.22-1.154,0.661-1.596c0.439-0.439,0.972-0.66,1.595-0.66h0.677
			c0.623,0,1.154,0.221,1.596,0.66c0.439,0.441,0.66,0.973,0.66,1.596v1.643c0,0.129,0.064,0.193,0.193,0.193h10.409
			c0.623,0,1.154,0.221,1.595,0.662c0.44,0.439,0.661,0.971,0.661,1.594V6.871z"/>
		<path stroke="#FFFFFF" stroke-width="0.66" d="M105.992,17.635c0.473,0.43,0.735,0.967,0.79,1.611
			c0.053,0.645-0.113,1.225-0.5,1.74l-0.193,0.291c-0.344,0.451-0.795,0.676-1.354,0.676s-1.021-0.225-1.386-0.676
			c-0.236-0.301-0.494-0.623-0.773-0.967c-0.021-0.021-0.048-0.027-0.081-0.016c-0.031,0.01-0.048,0.025-0.048,0.047v9.25
			c0,0.623-0.221,1.154-0.661,1.596c-0.44,0.439-0.972,0.66-1.595,0.66h-0.258c-0.623,0-1.155-0.221-1.595-0.66
			c-0.441-0.441-0.661-0.973-0.661-1.596v-8.186c0-0.021-0.017-0.043-0.048-0.064c-0.033-0.021-0.07-0.021-0.113,0
			c-0.473,0.43-0.967,0.826-1.482,1.191c-0.473,0.344-0.978,0.43-1.515,0.258s-0.935-0.525-1.192-1.062
			c-0.043-0.129-0.097-0.258-0.161-0.387c-0.021-0.043-0.054-0.098-0.097-0.162c-0.279-0.559-0.338-1.133-0.178-1.723
			c0.162-0.592,0.489-1.059,0.983-1.402c1.01-0.666,1.977-1.461,2.9-2.385c1.504-1.418,2.75-2.955,3.738-4.609
			c0.021-0.043,0.021-0.086,0-0.129s-0.054-0.064-0.097-0.064H95.39c-0.602,0-1.111-0.209-1.531-0.627
			c-0.418-0.42-0.628-0.93-0.628-1.531s0.21-1.111,0.628-1.531c0.42-0.418,0.93-0.629,1.531-0.629h2.095
			c0.129,0,0.193-0.064,0.193-0.193V2.779c0-0.623,0.22-1.154,0.661-1.596c0.439-0.439,0.972-0.66,1.595-0.66h0.258
			c0.623,0,1.154,0.221,1.595,0.66c0.44,0.441,0.661,0.973,0.661,1.596v3.576c0,0.129,0.064,0.193,0.193,0.193h0.451
			c0.043,0,0.086,0,0.129,0c0.516-0.107,0.988-0.021,1.418,0.258l0.677,0.451c0.408,0.258,0.682,0.607,0.822,1.049
			c0.139,0.439,0.112,0.875-0.081,1.305c-0.795,1.826-1.772,3.609-2.933,5.35c-0.086,0.107-0.075,0.203,0.032,0.289
			C104.252,16.152,105.197,16.947,105.992,17.635z M117.433,25.982c0,0.129,0.064,0.193,0.193,0.193h4.254
			c0.623,0,1.154,0.221,1.596,0.66c0.439,0.441,0.66,0.973,0.66,1.596v0.225c0,0.623-0.221,1.154-0.66,1.596
			c-0.441,0.439-0.973,0.66-1.596,0.66h-14.373c-0.623,0-1.155-0.221-1.596-0.66c-0.44-0.441-0.66-0.973-0.66-1.596v-0.225
			c0-0.623,0.22-1.154,0.66-1.596c0.44-0.439,0.973-0.66,1.596-0.66h4.77c0.129,0,0.193-0.064,0.193-0.193V15.186
			c0-0.129-0.064-0.193-0.193-0.193h-3.384c-0.623,0-1.155-0.219-1.595-0.66c-0.441-0.439-0.661-0.973-0.661-1.596v-0.096
			c0-0.623,0.22-1.154,0.661-1.596c0.439-0.439,0.972-0.66,1.595-0.66h3.384c0.129,0,0.193-0.064,0.193-0.193v-7.09
			c0-0.623,0.22-1.154,0.66-1.596c0.44-0.439,0.973-0.66,1.596-0.66h0.451c0.623,0,1.154,0.221,1.596,0.66
			c0.439,0.441,0.66,0.973,0.66,1.596v7.09c0,0.129,0.064,0.193,0.193,0.193h3.416c0.623,0,1.154,0.221,1.596,0.66
			c0.439,0.441,0.66,0.973,0.66,1.596v0.096c0,0.623-0.221,1.156-0.66,1.596c-0.441,0.441-0.973,0.66-1.596,0.66h-3.416
			c-0.129,0-0.193,0.064-0.193,0.193V25.982z"/>
		<path stroke="#FFFFFF" stroke-width="0.66" d="M131.262,13.252c0.623,0,1.154,0.221,1.596,0.662
			c0.439,0.439,0.66,0.971,0.66,1.594v7.896c0,0.129,0.032,0.246,0.097,0.354c1.16,1.762,3.362,2.707,6.606,2.836
			c1.912,0.086,4.544,0.098,7.896,0.033c2.32-0.043,4.372-0.119,6.155-0.227c0.516-0.021,0.924,0.172,1.225,0.58
			s0.365,0.859,0.193,1.354c-0.064,0.215-0.129,0.42-0.193,0.613c-0.193,0.645-0.543,1.182-1.047,1.611
			c-0.506,0.43-1.08,0.654-1.725,0.676c-4.426,0.193-8.626,0.193-12.601,0c-2.041-0.086-3.749-0.396-5.124-0.934
			c-1.289-0.494-2.449-1.311-3.48-2.449c-0.086-0.107-0.183-0.119-0.29-0.033c-0.902,0.795-1.772,1.547-2.61,2.256
			c-0.451,0.365-0.951,0.484-1.498,0.355c-0.549-0.129-0.951-0.463-1.209-1l-0.419-0.902c-0.258-0.58-0.29-1.176-0.097-1.787
			c0.193-0.613,0.559-1.092,1.096-1.436c0.816-0.494,1.536-0.955,2.159-1.385c0.107-0.086,0.161-0.193,0.161-0.322v-5.736
			c0-0.129-0.075-0.193-0.226-0.193h-0.967c-0.602,0-1.117-0.215-1.547-0.645s-0.645-0.951-0.645-1.562
			c0-0.613,0.215-1.135,0.645-1.564s0.945-0.645,1.547-0.645H131.262z M132.744,4.486c0.451,0.43,0.649,0.957,0.596,1.58
			s-0.327,1.139-0.821,1.547l-0.322,0.258c-0.494,0.387-1.037,0.547-1.628,0.482s-1.101-0.332-1.53-0.805
			c-0.236-0.236-0.483-0.494-0.741-0.773c-0.43-0.43-0.859-0.838-1.289-1.225s-0.645-0.871-0.645-1.451s0.226-1.053,0.677-1.418
			l0.032-0.031c0.537-0.43,1.133-0.65,1.789-0.66c0.654-0.012,1.24,0.188,1.756,0.596C131.434,3.252,132.143,3.885,132.744,4.486z
			 M134.355,11.867c0-0.537,0.188-0.994,0.564-1.369c0.375-0.377,0.821-0.564,1.337-0.564c0.021,0,0.037-0.012,0.048-0.033
			s0.006-0.043-0.016-0.064c-0.387-0.215-0.752-0.418-1.096-0.611c-0.473-0.258-0.752-0.66-0.838-1.209
			c-0.086-0.547,0.043-1.025,0.387-1.434c0.408-0.494,0.784-1.043,1.128-1.645c0.408-0.688,0.784-1.385,1.128-2.094
			c0.258-0.58,0.666-1.025,1.225-1.338c0.559-0.311,1.149-0.402,1.772-0.273l0.129,0.031c0.58,0.129,1.01,0.451,1.289,0.967
			s0.301,1.031,0.064,1.547c-0.043,0.129,0,0.193,0.129,0.193h1.063c0.15,0,0.226-0.064,0.226-0.193V2.715
			c0-0.623,0.22-1.154,0.661-1.596c0.439-0.439,0.972-0.66,1.595-0.66h0.226c0.623,0,1.154,0.221,1.596,0.66
			c0.439,0.441,0.66,0.973,0.66,1.596v1.062c0,0.129,0.064,0.193,0.193,0.193h4.608c0.559,0,1.036,0.199,1.435,0.598
			c0.396,0.396,0.596,0.869,0.596,1.418c0,0.547-0.199,1.02-0.596,1.418C153.471,7.801,152.993,8,152.435,8h-4.608
			c-0.129,0-0.193,0.064-0.193,0.193V9.74c0,0.129,0.064,0.193,0.193,0.193h5.962c0.559,0,1.031,0.193,1.418,0.58
			s0.58,0.859,0.58,1.418s-0.193,1.031-0.58,1.418s-0.859,0.58-1.418,0.58h-17.435c-0.559,0-1.031-0.193-1.418-0.58
			s-0.58-0.859-0.58-1.418V11.867z M154.014,22.855c0,0.623-0.221,1.156-0.66,1.596c-0.441,0.441-0.973,0.66-1.596,0.66h-12.665
			c-0.623,0-1.155-0.219-1.595-0.66c-0.441-0.439-0.661-0.973-0.661-1.596v-5.316c0-0.623,0.22-1.154,0.661-1.596
			c0.439-0.439,0.972-0.66,1.595-0.66h12.665c0.623,0,1.154,0.221,1.596,0.66c0.439,0.441,0.66,0.973,0.66,1.596V22.855z
			 M142.896,8.193c0-0.129-0.075-0.193-0.226-0.193h-3.319c-0.129,0-0.236,0.053-0.322,0.16c-0.279,0.43-0.677,0.967-1.192,1.611
			c-0.021,0.043-0.027,0.082-0.016,0.113c0.01,0.033,0.037,0.049,0.08,0.049h4.77c0.15,0,0.226-0.064,0.226-0.193V8.193z
			 M141.735,19.053c-0.129,0-0.193,0.064-0.193,0.193v1.934c0,0.129,0.064,0.193,0.193,0.193h7.025c0.15,0,0.226-0.064,0.226-0.193
			v-1.934c0-0.129-0.075-0.193-0.226-0.193H141.735z"/>
		<path stroke="#FFFFFF" stroke-width="0.66" d="M161.756,25.369c-0.043-0.172-0.006-0.326,0.113-0.467
			c0.117-0.139,0.263-0.221,0.435-0.242l0.773-0.096c0.408-0.043,0.773,0.053,1.096,0.289s0.516,0.559,0.58,0.967
			c0.15,0.988,0.247,1.945,0.29,2.869c0.043,0.43-0.08,0.805-0.371,1.127c-0.289,0.322-0.649,0.506-1.079,0.549
			c-0.408,0.064-0.757-0.039-1.048-0.307c-0.289-0.27-0.445-0.607-0.467-1.016c-0.021-0.881-0.097-1.879-0.226-2.996
			c0-0.021-0.011-0.033-0.032-0.033s-0.032,0.012-0.032,0.033c-0.365,1.783-0.816,3.223-1.354,4.318
			c-0.215,0.451-0.569,0.734-1.063,0.854c-0.494,0.117-0.967,0.059-1.418-0.178c-0.387-0.193-0.634-0.51-0.741-0.949
			c-0.107-0.441-0.054-0.855,0.161-1.242c0.344-0.645,0.634-1.363,0.87-2.158c0.172-0.58,0.516-1.021,1.031-1.322
			s1.053-0.365,1.611-0.193l0.806,0.227c0.021,0.021,0.037,0.027,0.049,0.016C161.75,25.408,161.756,25.391,161.756,25.369z
			 M187.408,7.742c0.43,0.43,0.645,0.645,0.645,0.645s0,0.311,0,0.934s-0.215,1.15-0.645,1.58s-0.956,0.645-1.579,0.645h-3.609
			c-0.129,0-0.193,0.064-0.193,0.193v4.092c0,0.129,0.064,0.193,0.193,0.193h2.546c0.623,0,1.154,0.221,1.596,0.662
			c0.439,0.439,0.66,0.971,0.66,1.594v11.119c0,0.623-0.221,1.154-0.66,1.596c-0.441,0.439-0.973,0.66-1.596,0.66h-1.418
			c-0.236,0-0.446-0.092-0.629-0.273c-0.183-0.184-0.273-0.393-0.273-0.629c0-0.064-0.032-0.098-0.097-0.098h-4.705
			c-0.064,0-0.097,0.033-0.097,0.098c0,0.279-0.103,0.52-0.307,0.725c-0.204,0.203-0.445,0.307-0.725,0.307h-1.128
			c-0.602,0-1.112-0.209-1.53-0.629c-0.42-0.418-0.629-0.93-0.629-1.531v-0.645c0-0.043-0.021-0.074-0.064-0.096
			s-0.086-0.033-0.129-0.033l-0.419,0.193c-0.559,0.215-1.102,0.188-1.628-0.08c-0.526-0.27-0.896-0.682-1.111-1.24
			c-0.15-0.43-0.333-0.859-0.548-1.289c-0.258-0.537-0.279-1.086-0.064-1.645s0.602-0.934,1.16-1.127l0.419-0.162
			c0.021,0,0.026-0.01,0.016-0.031s-0.026-0.033-0.048-0.033c-5.479,0.258-9.303,0.441-11.473,0.549
			c-0.559,0.021-1.037-0.156-1.435-0.531c-0.397-0.377-0.606-0.844-0.628-1.402s0.155-1.037,0.532-1.434
			c0.375-0.398,0.843-0.598,1.401-0.598c1.053-0.021,2.245-0.043,3.577-0.064c0.129,0,0.193-0.064,0.193-0.193v-0.645
			c0-0.129-0.075-0.193-0.226-0.193h-2.868c-0.494,0-0.913-0.176-1.257-0.531c-0.344-0.354-0.516-0.768-0.516-1.24
			c0-0.494,0.177-0.918,0.532-1.273c0.354-0.354,0.768-0.531,1.24-0.531h2.868c0.15,0,0.226-0.064,0.226-0.193v-0.549
			c0-0.129-0.075-0.193-0.226-0.193h-2.61c-0.623,0-1.155-0.219-1.596-0.66c-0.44-0.439-0.66-0.973-0.66-1.596V3.617
			c0-0.623,0.22-1.154,0.66-1.596c0.44-0.439,0.973-0.66,1.596-0.66h10.087c0.623,0,1.154,0.221,1.595,0.66
			c0.44,0.441,0.661,0.973,0.661,1.596v8.539c0,0.623-0.221,1.156-0.661,1.596c-0.44,0.441-0.972,0.66-1.595,0.66h-2.868
			c-0.129,0-0.193,0.064-0.193,0.193v0.549c0,0.129,0.064,0.193,0.193,0.193h3.062c0.494,0,0.919,0.178,1.272,0.531
			c0.355,0.355,0.532,0.773,0.532,1.258c0,0.482-0.177,0.902-0.532,1.256c-0.354,0.355-0.778,0.531-1.272,0.531h-3.062
			c-0.129,0-0.193,0.064-0.193,0.193v0.516c0,0.129,0.064,0.193,0.193,0.193c0.473-0.021,1.654-0.064,3.545-0.129
			c0.516-0.021,0.951,0.146,1.305,0.5c0.355,0.355,0.521,0.779,0.5,1.273v0.418c0,0.408-0.145,0.764-0.436,1.064
			c-0.289,0.301-0.639,0.461-1.047,0.482c-0.086,0-0.107,0.033-0.064,0.098c0.859,1.375,1.525,2.729,1.998,4.061
			c0,0.021,0.021,0.021,0.064,0v-9.314c0-0.623,0.22-1.154,0.66-1.594c0.44-0.441,0.973-0.662,1.596-0.662h1.676
			c0.15,0,0.226-0.064,0.226-0.193V2.779c0-0.623,0.22-1.154,0.661-1.596c0.439-0.439,0.972-0.66,1.595-0.66h0.129
			c0.623,0,1.154,0.221,1.595,0.66c0.44,0.441,0.661,0.973,0.661,1.596v4.125c0,0.129,0.064,0.193,0.193,0.193h3.609
			C186.452,7.098,186.979,7.312,187.408,7.742z M163.689,4.68c0-0.129-0.075-0.193-0.226-0.193h-1.869
			c-0.129,0-0.193,0.064-0.193,0.193v0.871c0,0.086,0.043,0.117,0.129,0.096c0.365-0.129,0.726-0.096,1.079,0.098
			c0.355,0.193,0.586,0.473,0.693,0.838c0.15,0.559,0.269,1.041,0.354,1.449h0.032V4.68z M161.434,7.291h-0.032v3.77
			c0,0.129,0.064,0.193,0.193,0.193h1.869c0.15,0,0.226-0.064,0.226-0.193v-1.031c0-0.107-0.054-0.139-0.161-0.096
			c-0.408,0.129-0.795,0.074-1.16-0.162s-0.58-0.568-0.645-0.998C161.659,8.322,161.562,7.828,161.434,7.291z M165.43,25.982
			c-0.107-0.365-0.06-0.709,0.145-1.031s0.489-0.516,0.854-0.58c0.387-0.064,0.757,0.01,1.112,0.225
			c0.354,0.215,0.585,0.516,0.692,0.902c0.279,0.967,0.505,1.869,0.677,2.707c0.064,0.408-0.021,0.785-0.258,1.129
			s-0.569,0.559-0.999,0.645c-0.387,0.086-0.736,0.01-1.048-0.227s-0.499-0.559-0.563-0.967
			C165.892,27.926,165.688,26.992,165.43,25.982z M168.685,5.68c0.086,0.021,0.129-0.012,0.129-0.098V4.68
			c0-0.129-0.075-0.193-0.226-0.193h-1.901c-0.129,0-0.193,0.064-0.193,0.193v3.738c0.043,0.021,0.064,0.021,0.064,0
			c0.193-0.645,0.354-1.246,0.483-1.805c0.086-0.365,0.29-0.645,0.612-0.838S168.319,5.551,168.685,5.68z M166.493,11.061
			c0,0.129,0.064,0.193,0.193,0.193h1.901c0.15,0,0.226-0.064,0.226-0.193V8.129c0-0.021-0.011-0.033-0.032-0.033
			s-0.032,0.012-0.032,0.033c-0.086,0.193-0.183,0.418-0.29,0.676c-0.064,0.172-0.118,0.334-0.161,0.484
			c-0.15,0.322-0.387,0.553-0.709,0.693c-0.322,0.139-0.655,0.133-0.999-0.018c-0.064-0.021-0.097,0.012-0.097,0.098V11.061z
			 M182.22,26.336c0.15,0,0.226-0.064,0.226-0.193v-5.607c0-0.129-0.075-0.193-0.226-0.193h-4.479c-0.129,0-0.193,0.064-0.193,0.193
			v5.607c0,0.129,0.064,0.193,0.193,0.193H182.22z"/>
		<path stroke="#FFFFFF" stroke-width="0.66" d="M197.333,19.086c0,0.043,0.021,0.074,0.064,0.096s0.086,0.033,0.129,0.033
			l0.483-0.227c0.516-0.215,1.031-0.193,1.547,0.064s0.838,0.656,0.967,1.193c0.172,0.623,0.123,1.225-0.145,1.805
			c-0.27,0.58-0.683,1.02-1.241,1.32c-2.256,1.139-4.415,2.191-6.478,3.158c-0.537,0.279-1.091,0.307-1.66,0.082
			c-0.569-0.227-0.972-0.629-1.208-1.209l-0.258-0.613c-0.236-0.58-0.226-1.148,0.032-1.707s0.677-0.945,1.257-1.16
			c0.021,0,0.043,0,0.064,0c0.816-0.322,1.407-0.559,1.772-0.709c0.129-0.043,0.193-0.129,0.193-0.258v-8.283
			c0-0.129-0.064-0.193-0.193-0.193h-1.16c-0.623,0-1.155-0.219-1.596-0.66c-0.44-0.439-0.66-0.973-0.66-1.596
			s0.22-1.154,0.66-1.594c0.44-0.441,0.973-0.662,1.596-0.662h1.16c0.129,0,0.193-0.064,0.193-0.193V3.23
			c0-0.623,0.22-1.154,0.66-1.596c0.44-0.439,0.967-0.66,1.58-0.66c0.611,0,1.138,0.221,1.578,0.66
			c0.44,0.441,0.661,0.973,0.661,1.596v4.543c0,0.129,0.064,0.193,0.193,0.193h0.612c0.623,0,1.154,0.221,1.596,0.662
			c0.439,0.439,0.66,0.971,0.66,1.594s-0.221,1.156-0.66,1.596c-0.441,0.441-0.973,0.66-1.596,0.66h-0.612
			c-0.129,0-0.193,0.064-0.193,0.193V19.086z M208.709,26.98h5.543c0.838,0,1.396-0.246,1.676-0.74
			c0.129-0.193,0.247-0.484,0.354-0.871c0.107-0.494,0.397-0.859,0.87-1.096s0.956-0.258,1.45-0.064
			c0.623,0.258,1.112,0.65,1.466,1.178c0.355,0.525,0.457,1.09,0.307,1.691c-0.322,1.225-0.773,2.148-1.354,2.771
			c-0.859,0.924-2.299,1.385-4.318,1.385h-6.445c-2.471,0-4.136-0.445-4.995-1.336c-0.859-0.893-1.289-2.617-1.289-5.174v-7.379
			c0-0.086-0.032-0.107-0.097-0.064c-0.344,0.129-0.683,0.129-1.016,0s-0.574-0.365-0.725-0.709l-0.387-0.902
			c-0.236-0.58-0.236-1.16,0-1.74s0.634-0.988,1.192-1.225l0.838-0.355c0.129-0.064,0.193-0.16,0.193-0.289V6.002
			c0-0.623,0.22-1.154,0.661-1.596c0.439-0.439,0.972-0.66,1.595-0.66h0.032c0.623,0,1.154,0.221,1.596,0.66
			c0.439,0.441,0.66,0.973,0.66,1.596v4.125c0,0.043,0.021,0.074,0.064,0.096s0.086,0.021,0.129,0l1.418-0.58
			c0.129-0.064,0.193-0.16,0.193-0.289V2.715c0-0.623,0.22-1.154,0.66-1.596c0.44-0.439,0.967-0.66,1.58-0.66
			c0.611,0,1.138,0.221,1.578,0.66c0.44,0.441,0.661,0.973,0.661,1.596V7.42c0,0.043,0.021,0.074,0.064,0.096s0.086,0.021,0.129,0
			l1.45-0.611l0.741-0.484l0.032-0.031c0.537-0.365,1.106-0.441,1.708-0.227l1.772,0.613c0.193,0.086,0.338,0.221,0.436,0.402
			c0.096,0.184,0.123,0.371,0.08,0.564c0,0.043,0,0.086,0,0.129c0,5.564-0.064,9.27-0.193,11.117
			c-0.064,1.547-0.612,2.568-1.644,3.062c-0.365,0.193-0.816,0.344-1.354,0.451c-0.623,0.107-1.177-0.043-1.659-0.451
			c-0.484-0.408-0.812-0.945-0.983-1.611c-0.129-0.537-0.29-1.031-0.483-1.482c-0.021-0.021-0.043-0.033-0.064-0.033
			s-0.032,0.012-0.032,0.033v2.771c0,0.602-0.221,1.123-0.661,1.562c-0.44,0.441-0.967,0.66-1.578,0.66
			c-0.613,0-1.14-0.219-1.58-0.66c-0.44-0.439-0.66-0.961-0.66-1.562v-7.09c0-0.043-0.021-0.076-0.064-0.098s-0.086-0.021-0.129,0
			l-1.418,0.58c-0.129,0.064-0.193,0.162-0.193,0.291v9.312c0,0.988,0.123,1.611,0.371,1.869
			C207.135,26.852,207.742,26.98,208.709,26.98z M214.639,11.867c0-0.043-0.021-0.076-0.064-0.098s-0.086-0.021-0.129,0l-1.45,0.613
			c-0.129,0.064-0.193,0.16-0.193,0.289v5.834c0,0.129,0.064,0.193,0.193,0.193c0.279,0.021,0.623,0.031,1.031,0.031
			c0.301,0,0.483-0.203,0.548-0.611C214.617,17.861,214.639,15.777,214.639,11.867z"/>
		<path stroke="#FFFFFF" stroke-width="0.66" d="M222.47,3.713c0-0.623,0.22-1.154,0.66-1.594c0.44-0.441,0.973-0.662,1.596-0.662
			h24.299c0.623,0,1.154,0.221,1.596,0.662c0.439,0.439,0.66,0.971,0.66,1.594v25.846c0,0.623-0.221,1.154-0.66,1.596
			c-0.441,0.439-0.973,0.66-1.596,0.66h-1.482c-0.258,0-0.479-0.092-0.66-0.273c-0.184-0.184-0.274-0.402-0.274-0.66
			c0-0.064-0.032-0.098-0.097-0.098h-19.529c-0.064,0-0.097,0.033-0.097,0.098c0,0.258-0.092,0.477-0.274,0.66
			c-0.183,0.182-0.402,0.273-0.66,0.273h-1.289c-0.602,0-1.117-0.215-1.547-0.645s-0.645-0.955-0.645-1.578V3.713z M226.885,26.691
			c0,0.129,0.064,0.193,0.193,0.193h19.336c0.129,0,0.193-0.064,0.193-0.193V5.551c0-0.129-0.064-0.193-0.193-0.193h-19.336
			c-0.129,0-0.193,0.064-0.193,0.193V26.691z M238.583,11.996c0,0.129,0.064,0.193,0.193,0.193h5.865
			c0.344,0,0.639,0.123,0.887,0.371c0.246,0.246,0.37,0.537,0.37,0.869c0,0.334-0.124,0.623-0.37,0.871
			c-0.248,0.246-0.543,0.369-0.887,0.369h-15.662c-0.344,0-0.64-0.123-0.887-0.369c-0.247-0.248-0.37-0.537-0.37-0.871
			c0-0.332,0.123-0.623,0.37-0.869c0.247-0.248,0.543-0.371,0.887-0.371h5.414c0.129,0,0.193-0.064,0.193-0.193v-0.322
			c0-0.129-0.064-0.193-0.193-0.193h-2.095c-0.623,0-1.155-0.221-1.595-0.66c-0.441-0.441-0.661-0.973-0.661-1.596V8.387
			c0-0.623,0.22-1.154,0.661-1.596c0.439-0.439,0.972-0.66,1.595-0.66h8.83c0.623,0,1.154,0.221,1.595,0.66
			c0.44,0.441,0.661,0.973,0.661,1.596v0.838c0,0.623-0.221,1.154-0.661,1.596c-0.44,0.439-0.972,0.66-1.595,0.66h-2.353
			c-0.129,0-0.193,0.064-0.193,0.193V11.996z M231.139,26.143c-0.623,0-1.155-0.219-1.595-0.66
			c-0.441-0.439-0.661-0.973-0.661-1.596v-6.252c0-0.623,0.22-1.154,0.661-1.594c0.439-0.441,0.972-0.662,1.595-0.662h11.183
			c0.623,0,1.154,0.221,1.596,0.662c0.439,0.439,0.66,0.971,0.66,1.594v6.252c0,0.623-0.221,1.156-0.66,1.596
			c-0.441,0.441-0.973,0.66-1.596,0.66H231.139z M232.686,17.861c-0.129,0-0.193,0.064-0.193,0.193v5.381
			c0,0.129,0.064,0.193,0.193,0.193h7.863c0.129,0,0.193-0.064,0.193-0.193v-5.381c0-0.129-0.064-0.193-0.193-0.193H232.686z
			 M235.554,22.92c-0.602,0-1.111-0.209-1.531-0.627c-0.418-0.42-0.628-0.93-0.628-1.531s0.21-1.111,0.628-1.531
			c0.42-0.418,0.93-0.629,1.531-0.629h2.224c0.602,0,1.112,0.211,1.53,0.629c0.42,0.42,0.629,0.93,0.629,1.531
			s-0.209,1.111-0.629,1.531c-0.418,0.418-0.929,0.627-1.53,0.627H235.554z M234.007,8.387c-0.129,0-0.193,0.064-0.193,0.193v0.451
			c0,0.129,0.064,0.193,0.193,0.193h5.188c0.129,0,0.193-0.064,0.193-0.193V8.58c0-0.129-0.064-0.193-0.193-0.193H234.007z
			 M236.005,20.439c-0.129,0-0.193,0.064-0.193,0.193v0.225c0,0.129,0.064,0.193,0.193,0.193h1.128c0.129,0,0.193-0.064,0.193-0.193
			v-0.225c0-0.129-0.064-0.193-0.193-0.193H236.005z"/>
	</g>
</g>
</svg>
