<svg version="1.2" baseProfile="tiny"
	 xmlns="http://www.w3.org/2000/svg" xmlns:xlink="http://www.w3.org/1999/xlink" x="0px" y="0px" width="250.22px"
	 height="30.873px" viewBox="0 0 250.22 30.873" xml:space="preserve">
<g>
	<path d="M23.05,3.094c0.408-0.107,0.795-0.043,1.16,0.193l0.869,0.549c0.387,0.258,0.629,0.611,0.727,1.062
		c0.096,0.451,0.016,0.859-0.242,1.225c-1.654,2.234-3.836,4.287-6.543,6.156c-0.021,0.043-0.031,0.086-0.031,0.129
		s0.021,0.074,0.064,0.096c2.922,1.246,6.025,2.203,9.312,2.869c0.473,0.086,0.791,0.359,0.951,0.82
		c0.162,0.463,0.102,0.898-0.178,1.307c-0.387,0.559-0.881,0.973-1.482,1.24c-0.602,0.27-1.213,0.328-1.836,0.178
		c-0.193-0.043-0.43-0.098-0.709-0.162c-0.129-0.043-0.193,0-0.193,0.129v9.732c0,0.58-0.205,1.074-0.613,1.482
		s-0.902,0.613-1.482,0.613h-1.127c-0.279,0-0.516-0.098-0.709-0.291s-0.291-0.43-0.291-0.709c0-0.064-0.031-0.096-0.096-0.096H8.87
		c-0.064,0-0.098,0.031-0.098,0.096c0,0.322-0.107,0.592-0.322,0.807s-0.482,0.322-0.805,0.322H6.774
		c-0.559,0-1.031-0.193-1.418-0.58s-0.58-0.859-0.58-1.418v-9.99c0-0.129-0.064-0.172-0.193-0.129
		c-0.602,0.15-1.139,0.289-1.611,0.418c-0.537,0.15-1.062,0.092-1.578-0.178c-0.516-0.268-0.914-0.66-1.193-1.176
		c-0.236-0.43-0.264-0.863-0.08-1.305c0.182-0.439,0.5-0.715,0.951-0.822c3.545-0.773,6.863-1.848,9.957-3.223
		c0.043-0.021,0.07-0.059,0.082-0.113c0.01-0.053-0.006-0.09-0.049-0.111c-1.225-0.945-2.428-2.01-3.609-3.191
		C7.345,8.916,7.237,8.906,7.13,8.992c-0.816,0.752-1.74,1.492-2.771,2.223c-0.473,0.322-0.994,0.447-1.562,0.371
		c-0.57-0.074-1.07-0.328-1.5-0.758c-0.344-0.365-0.494-0.795-0.451-1.289S1.124,8.67,1.554,8.412
		c1.461-0.924,2.863-2.01,4.207-3.256C7.103,3.91,8.247,2.611,9.192,1.258c0.344-0.473,0.783-0.807,1.32-1s1.074-0.193,1.611,0
		c0.473,0.172,0.791,0.494,0.951,0.967c0.162,0.473,0.102,0.914-0.178,1.322c-0.086,0.15-0.172,0.289-0.258,0.418
		c-0.021,0.021-0.027,0.055-0.016,0.098c0.01,0.043,0.049,0.064,0.113,0.064h10.184C22.964,3.127,23.007,3.115,23.05,3.094z
		 M5.679,18.402c-0.021,0-0.027,0.01-0.016,0.031c0.01,0.021,0.027,0.033,0.049,0.033h18.143c0.021,0,0.033-0.012,0.033-0.033
		s-0.012-0.031-0.033-0.031c-3.309-0.988-6.219-2.191-8.732-3.609c-0.129-0.064-0.248-0.064-0.355,0
		C12.188,16.168,9.159,17.371,5.679,18.402z M8.772,25.975c0,0.129,0.076,0.193,0.227,0.193h11.504c0.129,0,0.193-0.064,0.193-0.193
		v-3.738c0-0.129-0.064-0.193-0.193-0.193H8.999c-0.15,0-0.227,0.064-0.227,0.193V25.975z M19.858,6.639
		c0.021-0.043,0.027-0.08,0.018-0.113c-0.012-0.031-0.039-0.047-0.082-0.047h-9.699c-0.043,0-0.076,0.016-0.098,0.047
		c-0.021,0.033-0.01,0.07,0.033,0.113c1.16,1.16,2.738,2.375,4.736,3.643c0.107,0.064,0.227,0.064,0.355,0
		C17.12,9.035,18.698,7.82,19.858,6.639z"/>
	<path d="M41.229,15.469c0.086,0.494-0.012,0.957-0.291,1.387s-0.654,0.719-1.127,0.869l-1.289,0.387
		c-0.15,0.043-0.227,0.129-0.227,0.258v8.283c0,1.719-0.439,2.814-1.32,3.287c-0.58,0.344-1.461,0.568-2.643,0.676
		c-0.494,0.043-0.941-0.102-1.338-0.436c-0.398-0.332-0.682-0.768-0.854-1.305c-0.107-0.408-0.043-0.789,0.193-1.145
		c0.236-0.354,0.568-0.531,0.998-0.531c0.301,0,0.613,0,0.936,0c0.344,0,0.516-0.182,0.516-0.547V19.4
		c0-0.129-0.064-0.172-0.193-0.129c-0.193,0.043-0.506,0.129-0.936,0.258c-0.494,0.129-0.967,0.064-1.418-0.193
		s-0.74-0.645-0.869-1.16c-0.129-0.494-0.061-0.967,0.209-1.418c0.268-0.451,0.66-0.74,1.176-0.869c0.021,0,0.076-0.012,0.162-0.033
		c0.752-0.193,1.311-0.332,1.676-0.418c0.129-0.043,0.193-0.129,0.193-0.258V9.99c0-0.129-0.064-0.193-0.193-0.193h-1.322
		c-0.494,0-0.918-0.178-1.271-0.531c-0.355-0.355-0.533-0.779-0.533-1.273s0.178-0.918,0.533-1.273
		c0.354-0.354,0.777-0.531,1.271-0.531h1.322c0.129,0,0.193-0.064,0.193-0.193V1.74c0-0.473,0.172-0.881,0.516-1.225
		S36.058,0,36.54,0c0.484,0,0.896,0.172,1.24,0.516s0.516,0.752,0.516,1.225v4.254c0,0.129,0.076,0.193,0.227,0.193h0.58
		c0.494,0,0.918,0.178,1.273,0.531c0.354,0.355,0.531,0.779,0.531,1.273s-0.178,0.918-0.531,1.273
		c-0.355,0.354-0.779,0.531-1.273,0.531h-0.58c-0.15,0-0.227,0.064-0.227,0.193v4.223c0,0.129,0.076,0.172,0.227,0.129l0.709-0.193
		c0.473-0.107,0.906-0.033,1.305,0.225C40.933,14.631,41.165,14.996,41.229,15.469z M45.321,8.477c-0.15,0-0.225,0.064-0.225,0.193
		v6.832c0,5.951-0.838,10.516-2.514,13.695c-0.215,0.408-0.555,0.645-1.016,0.709c-0.463,0.064-0.887-0.043-1.273-0.322
		c-0.365-0.258-0.602-0.611-0.709-1.062s-0.053-0.881,0.162-1.289c0.666-1.289,1.139-2.729,1.418-4.318
		c0.365-2.213,0.547-4.684,0.547-7.412V7.348c0-0.451,0.166-0.842,0.5-1.176c0.332-0.332,0.736-0.5,1.209-0.5h1.676v0.033h3.609
		c0.129,0,0.193-0.064,0.193-0.193V1.902c0-0.516,0.182-0.957,0.547-1.322s0.807-0.547,1.322-0.547h0.387
		c0.408,0,0.758,0.145,1.047,0.434c0.291,0.291,0.436,0.65,0.436,1.08c0,0.086,0.053,0.129,0.16,0.129h6.123
		c0.365,0,0.682,0.135,0.951,0.402c0.268,0.27,0.402,0.586,0.402,0.951S60.14,3.713,59.872,3.98c-0.27,0.27-0.586,0.402-0.951,0.402
		h-6.059c-0.15,0-0.225,0.064-0.225,0.193v0.936c0,0.129,0.074,0.193,0.225,0.193h5.479c0-0.021,0.012-0.033,0.033-0.033h0.451
		c0.021,0,0.053,0,0.096,0c0.322-0.064,0.656-0.064,1,0l0.676,0.129c0.344,0.086,0.602,0.27,0.773,0.549s0.227,0.58,0.162,0.902
		c-0.279,1.031-0.57,1.986-0.871,2.867c-0.15,0.408-0.414,0.709-0.789,0.902c-0.377,0.193-0.768,0.248-1.176,0.162
		c-0.387-0.086-0.678-0.301-0.871-0.645s-0.246-0.709-0.16-1.096c0.064-0.236,0.129-0.494,0.193-0.773
		c0.021-0.129-0.033-0.193-0.162-0.193h-5.414c-0.15,0-0.225,0.064-0.225,0.193v0.773c0,0.129,0.074,0.182,0.225,0.16l3.094-0.289
		c0.301-0.021,0.564,0.064,0.791,0.258c0.225,0.193,0.354,0.434,0.387,0.725c0.031,0.289-0.045,0.553-0.227,0.789
		c-0.184,0.236-0.424,0.365-0.725,0.387l-3.32,0.291c-0.15,0.021-0.225,0.096-0.225,0.225c0.021,0.365,0.107,0.592,0.258,0.678
		c0.15,0.107,0.504,0.16,1.062,0.16h3.514c0.408,0,0.688-0.086,0.838-0.258h0.031c0.408-0.559,0.838-0.752,1.289-0.58
		c0.086,0.021,0.162,0.043,0.227,0.064c0.408,0.129,0.719,0.355,0.934,0.678s0.248,0.654,0.098,0.998
		c-0.15,0.365-0.344,0.645-0.58,0.838c-0.494,0.387-1.289,0.58-2.385,0.58h-4.352c-1.611,0-2.695-0.215-3.254-0.645
		c-0.516-0.408-0.795-1.16-0.838-2.256c-0.021-0.129-0.098-0.182-0.227-0.16l-1.869,0.193c-0.301,0.021-0.568-0.064-0.805-0.258
		s-0.371-0.441-0.402-0.742c-0.033-0.301,0.047-0.568,0.24-0.805s0.441-0.365,0.742-0.387l2.094-0.162
		c0.129-0.021,0.193-0.096,0.193-0.225V8.67c0-0.129-0.064-0.193-0.193-0.193H45.321z M58.599,19.82c0.279-0.258,0.613-0.398,1-0.42
		s0.73,0.086,1.031,0.322c0.279,0.236,0.418,0.527,0.418,0.871s-0.139,0.623-0.418,0.838c-0.559,0.43-1.268,0.934-2.127,1.514
		c-0.129,0.086-0.15,0.184-0.064,0.291c0.752,1.246,1.633,2.244,2.643,2.996c0.344,0.236,0.541,0.564,0.596,0.982
		c0.053,0.42-0.049,0.791-0.307,1.113c-0.301,0.387-0.666,0.627-1.096,0.725c-0.43,0.096-0.826,0.016-1.191-0.242
		c-2.449-2.084-4.189-5.5-5.221-10.248c-0.043-0.129-0.119-0.15-0.227-0.064c-0.537,0.43-1.031,0.785-1.482,1.064
		c-0.107,0.064-0.117,0.139-0.031,0.225c1.182,1.01,2.029,2.203,2.545,3.578c0.537,1.418,0.721,2.701,0.549,3.85
		c-0.172,1.15-0.559,2.004-1.16,2.562c-0.666,0.688-1.559,1.053-2.676,1.096c-0.086,0-0.16,0-0.225,0
		c-0.387,0-0.736-0.139-1.047-0.418c-0.312-0.279-0.521-0.623-0.629-1.031c-0.064-0.301-0.012-0.58,0.16-0.838
		s0.42-0.387,0.742-0.387c0.129,0,0.268,0,0.418,0c0.344,0,0.613-0.055,0.807-0.162c0.236-0.129,0.43-0.365,0.58-0.709
		c0.15-0.365,0.215-0.869,0.193-1.514c0-0.043-0.021-0.076-0.064-0.098s-0.076-0.021-0.098,0c-1.912,1.439-3.932,2.621-6.059,3.545
		c-0.322,0.129-0.645,0.129-0.967,0s-0.58-0.332-0.773-0.611c-0.172-0.236-0.221-0.494-0.145-0.773
		c0.074-0.279,0.252-0.473,0.531-0.58c1.096-0.365,2.213-0.838,3.352-1.418c1.439-0.73,2.6-1.482,3.48-2.256
		c0.107-0.086,0.119-0.193,0.033-0.322c-0.043-0.086-0.098-0.193-0.162-0.322c-0.086-0.129-0.182-0.15-0.289-0.064
		c-1.268,0.902-2.654,1.664-4.158,2.287c-0.322,0.107-0.627,0.107-0.918,0c-0.289-0.107-0.531-0.301-0.725-0.58
		c-0.15-0.215-0.184-0.451-0.098-0.709s0.258-0.43,0.516-0.516c1.611-0.473,3.029-1.105,4.254-1.9
		c0.107-0.086,0.119-0.172,0.033-0.258l-0.291-0.227c-0.107-0.086-0.215-0.096-0.322-0.031c-0.795,0.344-1.547,0.633-2.256,0.869
		c-0.279,0.086-0.568,0.064-0.869-0.064s-0.527-0.332-0.678-0.611c-0.129-0.236-0.145-0.479-0.047-0.727
		c0.096-0.246,0.273-0.412,0.531-0.498c1.482-0.408,2.836-0.945,4.061-1.611c0.021-0.021,0.025-0.043,0.016-0.064
		c-0.012-0.021-0.027-0.033-0.049-0.033h-3.254c-0.344,0-0.641-0.123-0.887-0.371c-0.248-0.246-0.371-0.541-0.371-0.885
		s0.123-0.639,0.371-0.887c0.246-0.246,0.543-0.371,0.887-0.371h13.535c0.344,0,0.639,0.125,0.887,0.371
		c0.246,0.248,0.369,0.543,0.369,0.887s-0.123,0.639-0.369,0.885c-0.248,0.248-0.543,0.371-0.887,0.371h-3.9
		c-0.15,0-0.203,0.064-0.16,0.193c0.172,0.623,0.418,1.396,0.74,2.32c0.043,0.129,0.129,0.15,0.258,0.064
		C57.825,20.496,58.212,20.164,58.599,19.82z"/>
	<path d="M66.038,29.682c-0.193,0.365-0.5,0.59-0.92,0.676c-0.418,0.086-0.799,0.021-1.143-0.193
		c-0.322-0.172-0.527-0.445-0.613-0.822c-0.086-0.375-0.031-0.734,0.162-1.078c0.537-0.902,0.945-2.01,1.225-3.32
		c0.086-0.365,0.279-0.645,0.58-0.838s0.633-0.236,0.998-0.129c0.365,0.086,0.656,0.297,0.871,0.629
		c0.215,0.334,0.279,0.693,0.193,1.08C67.048,27.34,66.597,28.672,66.038,29.682z M65.265,22.752
		c-0.451,0.043-0.85-0.09-1.193-0.402c-0.344-0.311-0.525-0.697-0.547-1.16c-0.021-0.461,0.123-0.859,0.434-1.193
		c0.312-0.332,0.693-0.498,1.145-0.498c0.988-0.043,2.332-0.086,4.029-0.129c0.15,0,0.225-0.064,0.225-0.193v-1.193
		c0-0.129-0.074-0.193-0.225-0.193h-3.385c-0.408,0-0.758-0.145-1.047-0.436c-0.291-0.289-0.436-0.645-0.436-1.062
		c0-0.42,0.145-0.773,0.436-1.064c0.289-0.289,0.639-0.434,1.047-0.434h3.385c0.15,0,0.225-0.064,0.225-0.193v-1
		c0-0.129-0.074-0.193-0.225-0.193h-2.578c-0.623,0-1.156-0.219-1.596-0.66c-0.441-0.439-0.66-0.973-0.66-1.596V3.223
		c0-0.623,0.219-1.154,0.66-1.596c0.439-0.439,0.973-0.66,1.596-0.66h9.506c0.623,0,1.154,0.221,1.596,0.66
		c0.439,0.441,0.66,0.973,0.66,1.596v7.928c0,0.623-0.221,1.156-0.66,1.596c-0.441,0.441-0.973,0.66-1.596,0.66h-3.061
		c-0.129,0-0.193,0.064-0.193,0.193v1c0,0.129,0.064,0.193,0.193,0.193h3.609c0.43,0,0.789,0.145,1.078,0.434
		c0.291,0.291,0.436,0.645,0.436,1.064c0,0.418-0.145,0.773-0.436,1.062c-0.289,0.291-0.648,0.436-1.078,0.436h-3.609
		c-0.129,0-0.193,0.064-0.193,0.193v1.064c0,0.129,0.064,0.193,0.193,0.193c0.645-0.021,1.557-0.055,2.738-0.098
		c0.516-0.021,0.979-0.043,1.387-0.064s0.762,0.113,1.062,0.402c0.301,0.291,0.451,0.65,0.451,1.08
		c-0.021,0.43-0.182,0.795-0.482,1.096s-0.666,0.473-1.096,0.516C72.806,22.387,68.874,22.58,65.265,22.752z M67.229,5.285
		c0-0.021-0.01-0.021-0.031,0v5.35c0,0.129,0.064,0.193,0.193,0.193h2.287c0.15,0,0.227-0.064,0.227-0.193V3.803
		c0-0.129-0.076-0.193-0.227-0.193h-2.287c-0.129,0-0.193,0.064-0.193,0.193v1.064c0,0.086,0.043,0.117,0.129,0.096
		c0.408-0.129,0.795-0.09,1.16,0.113c0.365,0.205,0.602,0.51,0.709,0.918c0.258,0.859,0.439,1.654,0.547,2.385
		c0.043,0.258-0.01,0.5-0.16,0.725c-0.15,0.227-0.355,0.383-0.613,0.469c-0.236,0.064-0.451,0.027-0.645-0.113
		c-0.193-0.139-0.311-0.328-0.354-0.564C67.864,7.756,67.616,6.553,67.229,5.285z M68.101,24.977
		c-0.043-0.322,0.031-0.617,0.225-0.887c0.193-0.268,0.451-0.424,0.773-0.467c0.344-0.043,0.656,0.037,0.936,0.24
		c0.279,0.205,0.451,0.469,0.516,0.791c0.193,1.139,0.322,2.234,0.387,3.287c0,0.365-0.113,0.682-0.34,0.949
		c-0.225,0.27-0.52,0.436-0.885,0.5c-0.322,0.043-0.607-0.043-0.855-0.258c-0.246-0.215-0.381-0.494-0.402-0.838
		C68.411,27.285,68.294,26.18,68.101,24.977z M71.548,24.783c-0.086-0.301-0.053-0.592,0.098-0.871s0.387-0.451,0.709-0.516
		s0.633-0.01,0.934,0.162s0.506,0.418,0.613,0.74c0.387,1.139,0.676,2.191,0.869,3.158c0.064,0.344,0,0.66-0.193,0.951
		c-0.193,0.289-0.461,0.479-0.805,0.564c-0.322,0.086-0.619,0.031-0.887-0.162c-0.27-0.193-0.436-0.451-0.5-0.773
		C72.214,27.092,71.935,26.008,71.548,24.783z M75.126,5.027c0.107,0.043,0.16,0.012,0.16-0.096V3.803
		c0-0.129-0.074-0.193-0.225-0.193H72.45c-0.129,0-0.193,0.064-0.193,0.193v4.996c0,0.021,0.006,0.031,0.016,0.031
		c0.012,0,0.027-0.01,0.049-0.031c0.322-0.988,0.592-1.869,0.807-2.643c0.107-0.451,0.359-0.785,0.756-1
		C74.282,4.941,74.696,4.898,75.126,5.027z M72.257,10.635c0,0.129,0.064,0.193,0.193,0.193h2.611c0.15,0,0.225-0.064,0.225-0.193
		v-4.77c0-0.021-0.01-0.031-0.031-0.031s-0.043,0.01-0.064,0.031l-1.096,2.74c-0.129,0.344-0.365,0.59-0.709,0.74
		s-0.688,0.15-1.031,0c-0.064-0.021-0.098,0.012-0.098,0.098V10.635z M74.997,24.492c-0.172-0.301-0.205-0.605-0.098-0.918
		c0.107-0.311,0.312-0.521,0.613-0.629c0.344-0.129,0.691-0.139,1.047-0.031c0.354,0.107,0.629,0.322,0.822,0.645
		c0.602,0.967,1.084,1.891,1.449,2.771c0.15,0.365,0.145,0.725-0.016,1.078c-0.162,0.355-0.424,0.607-0.789,0.758
		c-0.322,0.15-0.645,0.15-0.967,0s-0.549-0.396-0.678-0.74C76.06,26.523,75.599,25.545,74.997,24.492z M93.413,7.332
		c0.355,0.354,0.533,0.779,0.533,1.273s-0.178,0.918-0.533,1.271c-0.354,0.355-0.777,0.533-1.271,0.533h-4.416
		c-0.129,0-0.193,0.064-0.193,0.193v4.705c0,0.129,0.064,0.193,0.193,0.193h2.9c0.623,0,1.154,0.221,1.596,0.66
		c0.439,0.441,0.66,0.973,0.66,1.596v11.053c0,0.516-0.182,0.957-0.547,1.322s-0.807,0.547-1.322,0.547h-0.74
		c-0.322,0-0.586-0.107-0.791-0.322c-0.203-0.215-0.305-0.473-0.305-0.773c0-0.064-0.033-0.096-0.098-0.096h-6.025
		c-0.064,0-0.098,0.043-0.098,0.129c0,0.322-0.123,0.605-0.371,0.854c-0.246,0.246-0.541,0.371-0.885,0.371h-0.516
		c-0.494,0-0.914-0.172-1.258-0.516s-0.516-0.764-0.516-1.258V17.758c0-0.623,0.221-1.154,0.66-1.596
		c0.441-0.439,0.973-0.66,1.596-0.66h1.838c0.15,0,0.225-0.064,0.225-0.193V1.934c0-0.516,0.188-0.961,0.564-1.338
		c0.375-0.375,0.822-0.562,1.338-0.562s0.961,0.188,1.336,0.562c0.377,0.377,0.564,0.822,0.564,1.338v4.674
		c0,0.129,0.064,0.193,0.193,0.193h4.416C92.636,6.801,93.06,6.977,93.413,7.332z M88.95,25.975c0.15,0,0.227-0.064,0.227-0.193
		v-6.51c0-0.129-0.076-0.193-0.227-0.193h-5.801c-0.129,0-0.193,0.064-0.193,0.193v6.51c0,0.129,0.064,0.193,0.193,0.193H88.95z"/>
	<path d="M112.267,25.717c0,0.129,0.064,0.193,0.193,0.193h10.57c0.516,0,0.961,0.189,1.338,0.564
		c0.375,0.377,0.562,0.828,0.562,1.354s-0.188,0.977-0.562,1.354c-0.377,0.375-0.822,0.564-1.338,0.564H97.313
		c-0.537,0-0.994-0.189-1.369-0.564c-0.377-0.377-0.564-0.828-0.564-1.354s0.188-0.977,0.564-1.354
		c0.375-0.375,0.832-0.564,1.369-0.564h10.408c0.129,0,0.193-0.064,0.193-0.193v-5.994c0-0.129-0.064-0.193-0.193-0.193h-7.283
		c-0.516,0-0.961-0.188-1.336-0.564c-0.377-0.375-0.564-0.82-0.564-1.336s0.188-0.961,0.564-1.338
		c0.375-0.375,0.82-0.564,1.336-0.564h7.283c0.129,0,0.193-0.064,0.193-0.193v-5.316c0-0.129-0.064-0.193-0.193-0.193h-9.055
		c-0.516,0-0.963-0.188-1.338-0.564c-0.377-0.375-0.564-0.826-0.564-1.354c0-0.525,0.188-0.977,0.564-1.354
		c0.375-0.375,0.822-0.564,1.338-0.564h11.117c0.021,0,0.043-0.016,0.064-0.049c0.021-0.031,0.012-0.059-0.031-0.08
		c-0.773-0.752-1.848-1.654-3.223-2.707c-0.387-0.301-0.576-0.693-0.564-1.176c0.01-0.484,0.221-0.854,0.629-1.111
		c0.494-0.344,1.035-0.521,1.627-0.533c0.59-0.01,1.133,0.156,1.627,0.5c1.268,0.859,2.354,1.688,3.256,2.482
		c0.387,0.344,0.559,0.779,0.516,1.305c-0.043,0.527-0.27,0.951-0.678,1.273c-0.021,0-0.027,0.016-0.016,0.047
		c0.01,0.033,0.027,0.049,0.049,0.049h8.379c0.516,0,0.961,0.189,1.338,0.564c0.375,0.377,0.562,0.828,0.562,1.354
		c0,0.527-0.188,0.979-0.562,1.354c-0.377,0.377-0.822,0.564-1.338,0.564h-8.959c-0.129,0-0.193,0.064-0.193,0.193v5.316
		c0,0.129,0.064,0.193,0.193,0.193h7.348c0.516,0,0.961,0.189,1.338,0.564c0.375,0.377,0.562,0.822,0.562,1.338
		s-0.188,0.961-0.562,1.336c-0.377,0.377-0.822,0.564-1.338,0.564h-7.348c-0.129,0-0.193,0.064-0.193,0.193V25.717z"/>
	<path d="M136.423,22.43c-0.15,0-0.225,0.064-0.225,0.193v3.545c0,0.129,0.064,0.215,0.193,0.258c1.611,0.43,3.975,0.645,7.09,0.645
		c5.758,0,9.818-0.021,12.182-0.064c0.387-0.021,0.682,0.135,0.887,0.467c0.203,0.334,0.24,0.684,0.111,1.049
		c-0.193,0.494-0.488,0.902-0.885,1.225c-0.398,0.322-0.855,0.482-1.371,0.482h-10.957c-3.373,0-6.047-0.279-8.023-0.838
		c-1.934-0.559-3.502-1.633-4.705-3.223c-0.021-0.021-0.055-0.031-0.098-0.031s-0.064,0.021-0.064,0.064
		c-0.344,1.311-0.795,2.438-1.354,3.383c-0.215,0.365-0.525,0.537-0.934,0.516s-0.752-0.193-1.031-0.516
		c-0.322-0.365-0.516-0.789-0.58-1.273c-0.064-0.482,0-0.939,0.193-1.369c0.365-0.752,0.645-1.611,0.838-2.578
		c0.236-1.311,0.396-2.836,0.482-4.576c0.021-0.451,0.193-0.826,0.516-1.127s0.699-0.451,1.129-0.451s0.795,0.156,1.096,0.467
		c0.301,0.312,0.439,0.682,0.418,1.111c-0.021,0.623-0.053,1.246-0.096,1.869c-0.021,0.129,0,0.258,0.064,0.387
		c0.365,0.816,0.859,1.547,1.482,2.191c0.021,0.043,0.049,0.055,0.08,0.033c0.033-0.021,0.049-0.043,0.049-0.064V17.08
		c0-0.129-0.064-0.193-0.193-0.193h-4.48c-0.408,0-0.752-0.139-1.031-0.418s-0.418-0.617-0.418-1.016
		c0-0.396,0.139-0.736,0.418-1.016s0.623-0.418,1.031-0.418h11.988c0.387,0,0.721,0.139,1,0.418s0.418,0.619,0.418,1.016
		c0,0.398-0.139,0.736-0.418,1.016s-0.613,0.418-1,0.418h-3.803c-0.15,0-0.225,0.064-0.225,0.193v2.289
		c0,0.129,0.074,0.193,0.225,0.193h3.223c0.387,0,0.721,0.139,1,0.418s0.418,0.619,0.418,1.016c0,0.398-0.139,0.736-0.418,1.016
		s-0.613,0.418-1,0.418H136.423z M137.905,1.258c0.623,0,1.154,0.221,1.596,0.66c0.439,0.441,0.66,0.973,0.66,1.596v6.412
		c0,0.623-0.221,1.156-0.66,1.596c-0.441,0.441-0.973,0.66-1.596,0.66h-7.379c-0.623,0-1.156-0.219-1.596-0.66
		c-0.441-0.439-0.66-0.973-0.66-1.596V3.514c0-0.623,0.219-1.154,0.66-1.596c0.439-0.439,0.973-0.66,1.596-0.66H137.905z
		 M136.327,5.479c0.129,0,0.193-0.064,0.193-0.193V4.094c0-0.129-0.064-0.193-0.193-0.193h-4.352c-0.15,0-0.225,0.064-0.225,0.193
		v1.191c0,0.129,0.074,0.193,0.225,0.193H136.327z M136.327,9.539c0.129,0,0.193-0.064,0.193-0.193V8.09
		c0-0.129-0.064-0.193-0.193-0.193h-4.352c-0.15,0-0.225,0.064-0.225,0.193v1.256c0,0.129,0.074,0.193,0.225,0.193H136.327z
		 M143.868,22.27c0.902-0.773,1.836-1,2.803-0.678c0.408,0.15,0.666,0.42,0.773,0.807s0.021,0.73-0.258,1.031
		c-0.945,1.01-2.041,1.922-3.287,2.738c-0.43,0.258-0.885,0.35-1.369,0.273c-0.482-0.074-0.908-0.283-1.273-0.627
		c-0.279-0.279-0.396-0.617-0.354-1.016c0.043-0.396,0.236-0.693,0.58-0.887C142.386,23.396,143.181,22.85,143.868,22.27z
		 M142.417,8.121c0-0.623,0.221-1.154,0.662-1.596c0.439-0.439,0.971-0.66,1.594-0.66h1.773c0.129,0,0.215-0.064,0.258-0.193
		c0.107-0.322,0.246-0.762,0.418-1.32c0.021-0.129-0.031-0.193-0.16-0.193h-4.158c-0.387,0-0.715-0.135-0.982-0.404
		c-0.27-0.268-0.402-0.596-0.402-0.982s0.133-0.713,0.402-0.982c0.268-0.268,0.596-0.402,0.982-0.402h12.375
		c0.387,0,0.715,0.135,0.984,0.402c0.268,0.27,0.402,0.596,0.402,0.982s-0.135,0.715-0.402,0.982
		c-0.27,0.27-0.598,0.404-0.984,0.404h-4.221c-0.15,0-0.248,0.064-0.291,0.193c-0.086,0.15-0.182,0.354-0.289,0.611
		c-0.129,0.279-0.236,0.516-0.322,0.709c-0.021,0.043-0.021,0.086,0,0.129s0.064,0.064,0.129,0.064h3.158
		c0.623,0,1.154,0.221,1.596,0.66c0.439,0.441,0.66,0.973,0.66,1.596v10.506c0,0.623-0.221,1.156-0.66,1.596
		c-0.441,0.441-0.973,0.66-1.596,0.66h-0.58c-0.043,0-0.07,0.016-0.08,0.049c-0.012,0.031,0.004,0.059,0.047,0.08
		c1.375,0.967,2.525,1.902,3.449,2.805c0.301,0.301,0.418,0.66,0.354,1.078c-0.064,0.42-0.279,0.736-0.645,0.951
		c-0.408,0.258-0.844,0.35-1.305,0.273c-0.463-0.074-0.854-0.295-1.176-0.66c-0.58-0.602-1.203-1.191-1.869-1.771
		c-0.408-0.344-0.596-0.779-0.564-1.307c0.033-0.525,0.273-0.918,0.725-1.176l0.387-0.225c0.021,0,0.027-0.018,0.018-0.049
		c-0.012-0.033-0.027-0.049-0.049-0.049h-7.381c-0.623,0-1.154-0.219-1.594-0.66c-0.441-0.439-0.662-0.973-0.662-1.596V8.121z
		 M151.763,10.055c0.129,0,0.193-0.064,0.193-0.193V8.734c0-0.129-0.064-0.193-0.193-0.193h-5.639c-0.15,0-0.227,0.064-0.227,0.193
		v1.127c0,0.129,0.076,0.193,0.227,0.193H151.763z M151.763,14.115c0.129,0,0.193-0.064,0.193-0.193v-1.127
		c0-0.129-0.064-0.193-0.193-0.193h-5.639c-0.15,0-0.227,0.064-0.227,0.193v1.127c0,0.129,0.076,0.193,0.227,0.193H151.763z
		 M151.763,18.209c0.129,0,0.193-0.064,0.193-0.193v-1.193c0-0.129-0.064-0.193-0.193-0.193h-5.639c-0.15,0-0.227,0.064-0.227,0.193
		v1.193c0,0.129,0.076,0.193,0.227,0.193H151.763z"/>
	<path d="M186.599,19.756c0.516,0,0.951,0.176,1.305,0.531c0.355,0.354,0.531,0.785,0.531,1.289c0,0.506-0.176,0.934-0.531,1.289
		c-0.354,0.354-0.789,0.531-1.305,0.531h-7.123c-0.021,0-0.031,0.012-0.031,0.033s0.01,0.043,0.031,0.064
		c2.729,1.289,4.975,2.416,6.736,3.383c0.473,0.258,0.725,0.656,0.758,1.193c0.031,0.537-0.168,0.967-0.598,1.289l-0.031,0.031
		c-0.537,0.408-1.145,0.617-1.82,0.629c-0.678,0.01-1.307-0.156-1.887-0.5c-1.697-1.074-3.416-2.062-5.156-2.965
		c-0.494-0.258-0.779-0.648-0.854-1.176c-0.076-0.525,0.08-0.982,0.467-1.369l0.516-0.484c0.043-0.021,0.055-0.049,0.033-0.08
		c-0.021-0.033-0.043-0.049-0.064-0.049h-9.475c-0.021,0-0.039,0.016-0.049,0.049c-0.012,0.031-0.006,0.059,0.016,0.08l0.936,0.645
		c0.451,0.301,0.67,0.725,0.66,1.273c-0.012,0.547-0.242,0.961-0.693,1.24c-1.891,1.182-3.91,2.268-6.059,3.256
		c-0.559,0.236-1.127,0.295-1.707,0.176c-0.58-0.117-1.096-0.381-1.547-0.789c-0.322-0.322-0.447-0.703-0.371-1.145
		c0.074-0.439,0.316-0.746,0.725-0.918c0.881-0.408,1.805-0.859,2.771-1.354c1.547-0.838,2.869-1.633,3.965-2.385
		c0.021-0.021,0.025-0.049,0.016-0.08c-0.012-0.033-0.027-0.049-0.049-0.049h-6.734c-0.516,0-0.951-0.178-1.305-0.531
		c-0.355-0.355-0.533-0.783-0.533-1.289c0-0.504,0.178-0.936,0.533-1.289c0.354-0.355,0.789-0.531,1.305-0.531h1.096
		c0.129,0,0.193-0.064,0.193-0.193l-0.484-15.34c-0.021-0.516,0.178-0.939,0.598-1.273c0.418-0.332,0.885-0.436,1.4-0.307
		c0.129,0.043,0.248,0.033,0.355-0.031c0.645-0.344,1.256-0.699,1.836-1.064c0.537-0.365,1.133-0.52,1.789-0.467
		c0.654,0.055,1.209,0.307,1.66,0.758l0.74,0.676c0.021,0.021,0.049,0.027,0.082,0.016c0.031-0.01,0.047-0.037,0.047-0.08V1.998
		c0-0.473,0.162-0.869,0.484-1.191s0.713-0.484,1.176-0.484c0.461,0,0.854,0.162,1.176,0.484s0.484,0.719,0.484,1.191v1.064
		c0,0.129,0.064,0.193,0.193,0.193h3.287c0.451,0,0.832,0.156,1.145,0.467c0.311,0.312,0.467,0.693,0.467,1.145
		s-0.156,0.832-0.467,1.143c-0.312,0.312-0.693,0.469-1.145,0.469h-3.287c-0.129,0-0.193,0.064-0.193,0.193v1.869
		c0,0.129,0.064,0.193,0.193,0.193h1.385c0-0.021,0.012-0.033,0.033-0.033h1.611c0.451,0,0.838,0.162,1.16,0.484
		s0.482,0.709,0.482,1.16v9.217c0,0.129,0.064,0.193,0.193,0.193h3.803c0.129,0,0.193-0.064,0.193-0.193
		c0.021-0.473,0.076-1.225,0.162-2.256c0-0.129-0.064-0.193-0.193-0.193h-1.322c-0.451,0-0.832-0.156-1.143-0.469
		c-0.312-0.311-0.469-0.691-0.469-1.143s0.156-0.832,0.469-1.145c0.311-0.311,0.691-0.467,1.143-0.467h1.451
		c0.129,0,0.193-0.064,0.193-0.193c0-0.301,0.01-0.699,0.031-1.193s0.043-0.891,0.064-1.191c0-0.129-0.064-0.193-0.193-0.193h-1.547
		c-0.43,0-0.805-0.162-1.127-0.484s-0.484-0.703-0.484-1.145c0-0.439,0.162-0.82,0.484-1.143s0.697-0.484,1.127-0.484h1.611
		c0.129,0,0.193-0.064,0.193-0.193c0.021-0.559,0.033-1.289,0.033-2.191c0-0.129-0.064-0.193-0.193-0.193h-1.998
		c-0.451,0-0.844-0.166-1.176-0.5c-0.334-0.332-0.5-0.729-0.5-1.191c0-0.461,0.166-0.859,0.5-1.193
		c0.332-0.332,0.725-0.498,1.176-0.498h2.191c0-0.021,0.01-0.033,0.031-0.033h1.773c0.494,0,0.918,0.178,1.273,0.531
		c0.354,0.355,0.531,0.779,0.531,1.273c-0.064,6.037-0.215,11.334-0.451,15.889c0,0.129,0.064,0.193,0.193,0.193H186.599z
		 M164.878,17.08c-0.129,0-0.193,0.064-0.193,0.193l0.096,2.289c0,0.129,0.064,0.193,0.193,0.193h4.061
		c0.129,0,0.193-0.064,0.193-0.193v-5.125c0-0.43,0.15-0.795,0.451-1.096s0.666-0.451,1.096-0.451s0.795,0.15,1.096,0.451
		s0.451,0.666,0.451,1.096v5.125c0,0.129,0.064,0.193,0.193,0.193h1.482c0.129,0,0.193-0.064,0.193-0.193v-7.574
		c0-0.129-0.064-0.193-0.193-0.193h-2.449c-0.623,0-1.154-0.219-1.594-0.66c-0.441-0.439-0.662-0.973-0.662-1.596V3.48
		c0-0.043-0.021-0.074-0.064-0.096s-0.086-0.021-0.129,0c-1.525,0.795-3.039,1.482-4.543,2.062
		c-0.129,0.043-0.193,0.129-0.193,0.258l0.064,1.965c0,0.129,0.064,0.193,0.193,0.193h1.998c0.43,0,0.805,0.162,1.127,0.484
		s0.484,0.703,0.484,1.143c0,0.441-0.162,0.822-0.484,1.145s-0.697,0.484-1.127,0.484h-1.902c-0.129,0-0.193,0.064-0.193,0.193
		l0.064,2.352c0,0.129,0.064,0.193,0.193,0.193h1.869c0.451,0,0.832,0.156,1.145,0.467c0.311,0.312,0.467,0.693,0.467,1.145
		s-0.156,0.834-0.467,1.145c-0.312,0.312-0.693,0.467-1.145,0.467H164.878z"/>
	<path d="M195.071,11.666c0.473,0.236,0.773,0.613,0.902,1.129s0.043,0.998-0.258,1.449c-0.301,0.43-0.719,0.705-1.256,0.822
		c-0.537,0.119-1.043,0.037-1.516-0.242c-0.752-0.451-1.719-0.998-2.9-1.643c-0.408-0.236-0.666-0.586-0.773-1.049
		c-0.107-0.461-0.021-0.885,0.258-1.271c0.301-0.408,0.703-0.678,1.209-0.807c0.504-0.129,0.994-0.074,1.467,0.162
		C193.386,10.797,194.341,11.279,195.071,11.666z M193.364,28.617c-0.279,0.473-0.699,0.758-1.258,0.854
		c-0.559,0.098-1.062-0.037-1.514-0.402s-0.721-0.844-0.807-1.434s0.033-1.145,0.355-1.66c1.504-2.256,2.9-4.564,4.189-6.928
		c0.236-0.43,0.596-0.682,1.08-0.758c0.482-0.074,0.896,0.049,1.24,0.371c0.43,0.387,0.697,0.865,0.805,1.434
		c0.107,0.57,0.021,1.111-0.258,1.627C195.952,24.127,194.675,26.426,193.364,28.617z M196.683,2.676
		c0.451,0.258,0.73,0.65,0.838,1.176c0.107,0.527,0,1.004-0.322,1.434s-0.756,0.693-1.305,0.789
		c-0.547,0.098-1.047-0.004-1.498-0.305c-0.73-0.43-1.666-0.979-2.805-1.645c-0.408-0.236-0.654-0.59-0.74-1.062
		s0.01-0.893,0.289-1.258c0.322-0.408,0.742-0.67,1.258-0.789c0.516-0.117,1.01-0.049,1.482,0.209
		C194.997,1.805,195.931,2.289,196.683,2.676z M218.501,10.088c0.365,0.365,0.547,0.805,0.547,1.32s-0.182,0.957-0.547,1.322
		s-0.807,0.547-1.322,0.547h-6.316c-0.129,0-0.193,0.064-0.193,0.193v3.771c0,0.129,0.064,0.193,0.193,0.193h4.287
		c0.623,0,1.154,0.221,1.596,0.66c0.439,0.441,0.66,0.973,0.66,1.596v9.055c0,0.516-0.184,0.957-0.549,1.322
		s-0.805,0.547-1.32,0.547h-0.773c-0.301,0-0.559-0.107-0.773-0.322s-0.322-0.473-0.322-0.773c0-0.064-0.033-0.096-0.098-0.096
		h-9.732c-0.064,0-0.096,0.043-0.096,0.129c0,0.322-0.125,0.605-0.371,0.854c-0.248,0.246-0.543,0.371-0.887,0.371h-0.516
		c-0.494,0-0.912-0.172-1.256-0.516s-0.516-0.764-0.516-1.258v-9.312c0-0.623,0.219-1.154,0.66-1.596
		c0.439-0.439,0.973-0.66,1.596-0.66h4.285c0.129,0,0.193-0.064,0.193-0.193v-3.771c0-0.129-0.064-0.193-0.193-0.193h-6.703
		c-0.516,0-0.955-0.182-1.32-0.547s-0.549-0.807-0.549-1.322s0.184-0.955,0.549-1.32s0.805-0.549,1.32-0.549h6.703
		c0.129,0,0.193-0.064,0.193-0.193v-3.48c0-0.129-0.064-0.182-0.193-0.16c-1.332,0.172-2.814,0.344-4.447,0.516
		c-0.494,0.064-0.945-0.055-1.354-0.355s-0.688-0.688-0.838-1.16c-0.15-0.43-0.111-0.832,0.113-1.209
		c0.227-0.375,0.553-0.584,0.982-0.627c4.727-0.537,8.584-1.268,11.57-2.191c0.623-0.193,1.262-0.221,1.918-0.082
		c0.654,0.141,1.207,0.447,1.658,0.92c0.365,0.365,0.488,0.795,0.371,1.289c-0.119,0.494-0.424,0.816-0.918,0.967
		c-1.461,0.451-3.105,0.848-4.932,1.191c-0.129,0.021-0.193,0.098-0.193,0.227v4.156c0,0.129,0.064,0.193,0.193,0.193h6.316
		C217.694,9.539,218.136,9.723,218.501,10.088z M213.474,25.879c0.129,0,0.193-0.064,0.193-0.193v-4.48
		c0-0.129-0.064-0.193-0.193-0.193h-9.539c-0.129,0-0.193,0.064-0.193,0.193v4.48c0,0.129,0.064,0.193,0.193,0.193H213.474z"/>
	<path d="M243.581,7.252c0,0.129,0.064,0.193,0.193,0.193h4.221c0.623,0,1.15,0.221,1.58,0.66c0.43,0.441,0.645,0.973,0.645,1.596
		c-0.15,6.617-0.334,11.268-0.549,13.953c-0.236,2.729-0.611,4.459-1.127,5.189c-0.365,0.516-0.752,0.891-1.16,1.127
		s-0.914,0.408-1.516,0.516c-0.494,0.086-1.203,0.129-2.127,0.129c-0.516,0.021-0.977-0.15-1.385-0.516s-0.699-0.826-0.871-1.385
		c-0.129-0.408-0.074-0.791,0.162-1.145c0.236-0.355,0.559-0.531,0.967-0.531c0.451,0.021,0.934,0.031,1.449,0.031
		s0.893-0.182,1.129-0.547c0.365-0.43,0.633-1.795,0.805-4.094c0.193-2.299,0.334-6.025,0.42-11.182
		c0-0.129-0.064-0.193-0.193-0.193h-2.547c-0.129,0-0.193,0.064-0.193,0.193c-0.258,4.877-0.912,8.895-1.965,12.053
		c-0.838,2.471-2.127,4.598-3.867,6.381c-0.43,0.408-0.936,0.58-1.516,0.516s-1.084-0.334-1.514-0.807
		c-0.279-0.279-0.58-0.547-0.902-0.805c-0.107-0.086-0.227-0.119-0.355-0.098c-4.705,0.473-8.379,0.838-11.021,1.096
		c-0.451,0.043-0.859-0.08-1.225-0.371c-0.365-0.289-0.58-0.66-0.645-1.111c-0.086-0.451,0.016-0.848,0.307-1.191
		c0.289-0.344,0.65-0.537,1.08-0.58c2.32-0.15,3.932-0.258,4.834-0.322c0.129-0.021,0.193-0.098,0.193-0.227v-1.578
		c0-0.129-0.064-0.193-0.193-0.193h-4.223c-0.408,0-0.746-0.135-1.016-0.404c-0.268-0.268-0.402-0.6-0.402-0.998
		c0-0.396,0.135-0.73,0.402-1c0.27-0.268,0.607-0.402,1.016-0.402h4.223c0.129,0,0.193-0.064,0.193-0.193v-0.805
		c0-0.129-0.064-0.193-0.193-0.193h-3.223c-0.623,0-1.156-0.221-1.596-0.662c-0.441-0.439-0.66-0.971-0.66-1.594v-5.705
		c0-0.623,0.219-1.154,0.66-1.596c0.439-0.439,0.973-0.66,1.596-0.66h3.223c0.129,0,0.193-0.064,0.193-0.193V8.67
		c0-0.129-0.064-0.193-0.193-0.193h-4.898c-0.387,0-0.721-0.141-1-0.42s-0.418-0.611-0.418-0.998s0.139-0.721,0.418-1
		s0.613-0.418,1-0.418h4.898c0.129,0,0.193-0.064,0.193-0.193V4.609c0-0.129-0.064-0.184-0.193-0.162
		c-1.225,0.086-2.568,0.162-4.029,0.227c-0.387,0.021-0.746-0.098-1.08-0.355c-0.332-0.258-0.562-0.602-0.691-1.031
		c-0.107-0.344-0.064-0.666,0.129-0.967s0.461-0.461,0.805-0.482c4.469-0.279,8.176-0.699,11.119-1.258
		c0.516-0.086,1.01-0.031,1.482,0.162s0.848,0.504,1.127,0.934c0.215,0.344,0.242,0.709,0.08,1.096
		c-0.16,0.387-0.445,0.613-0.854,0.678c-1.246,0.236-2.643,0.439-4.189,0.611c-0.129,0.021-0.193,0.098-0.193,0.227v1.16
		c0,0.129,0.064,0.193,0.193,0.193h4.48c0.451,0,0.838,0.16,1.16,0.482s0.482,0.709,0.482,1.16c0,0.107,0.055,0.162,0.162,0.162
		h2.771c0.129,0,0.193-0.064,0.193-0.193c0.021-1.139,0.031-2.74,0.031-4.803c0-0.516,0.184-0.955,0.549-1.32
		s0.811-0.549,1.336-0.549c0.527,0,0.973,0.184,1.338,0.549s0.549,0.816,0.549,1.354C243.624,3.814,243.603,5.404,243.581,7.252z
		 M224.503,12.246c-0.129,0-0.193,0.064-0.193,0.193v1.096c0,0.129,0.064,0.193,0.193,0.193h2.191c0.129,0,0.193-0.064,0.193-0.193
		v-1.096c0-0.129-0.064-0.193-0.193-0.193H224.503z M224.31,17.371c0,0.129,0.064,0.193,0.193,0.193h2.191
		c0.129,0,0.193-0.064,0.193-0.193v-1.129c0-0.129-0.064-0.193-0.193-0.193h-2.191c-0.129,0-0.193,0.064-0.193,0.193V17.371z
		 M230.593,24.01c-0.129,0-0.193,0.064-0.193,0.193v1.289c0,0.129,0.064,0.182,0.193,0.16c0.623-0.064,1.516-0.139,2.676-0.225
		s2.062-0.162,2.707-0.227c0.129,0,0.236-0.053,0.322-0.16c1.139-1.676,1.965-3.609,2.48-5.801c0.494-2.213,0.816-4.877,0.967-7.992
		c0-0.129-0.064-0.193-0.193-0.193h-0.58c-0.623,0-1.154-0.221-1.596-0.662c-0.439-0.439-0.66-0.971-0.66-1.594V8.67
		c0-0.129-0.064-0.193-0.193-0.193h-5.93c-0.129,0-0.193,0.064-0.193,0.193v0.934c0,0.129,0.064,0.193,0.193,0.193h3.449
		c0.623,0,1.154,0.221,1.594,0.66c0.441,0.441,0.662,0.973,0.662,1.596v5.705c0,0.623-0.221,1.154-0.662,1.594
		c-0.439,0.441-0.971,0.662-1.594,0.662h-3.449c-0.129,0-0.193,0.064-0.193,0.193v0.805c0,0.129,0.064,0.193,0.193,0.193h4.576
		c0.387,0,0.715,0.135,0.982,0.402c0.27,0.27,0.404,0.604,0.404,1c0,0.398-0.135,0.73-0.404,0.998
		c-0.268,0.27-0.596,0.404-0.982,0.404H230.593z M230.399,13.535c0,0.129,0.064,0.193,0.193,0.193h2.256
		c0.129,0,0.193-0.064,0.193-0.193v-1.096c0-0.129-0.064-0.193-0.193-0.193h-2.256c-0.129,0-0.193,0.064-0.193,0.193V13.535z
		 M233.042,16.242c0-0.129-0.064-0.193-0.193-0.193h-2.256c-0.129,0-0.193,0.064-0.193,0.193v1.129c0,0.129,0.064,0.193,0.193,0.193
		h2.256c0.129,0,0.193-0.064,0.193-0.193V16.242z"/>
</g>
</svg>
