<?xml version="1.0" encoding="utf-8"?>
<svg version="1.1" xmlns="http://www.w3.org/2000/svg" xmlns:xlink="http://www.w3.org/1999/xlink" x="0px" y="0px"
	 viewBox="0 0 332.4 76.5" style="enable-background:new 0 0 332.4 76.5;" xml:space="preserve">
<g>
	<path d="M12,39.5c0-2.8,1.8-4.3,4.1-4.3s4.1,1.5,4.1,4.3v19.2c0,5.1,3.2,9.1,8.5,9.1c5,0,8.4-4.2,8.4-9.1V39.5
		c0-2.8,1.8-4.3,4.1-4.3c2.4,0,4.1,1.5,4.1,4.3v19.6c0,9.2-7.6,16.2-16.7,16.2c-9.2,0-16.7-6.9-16.7-16.2C12,59.1,12,39.5,12,39.5z"
		/>
	<path d="M51.1,39.8c0-2.6,1.5-4.3,4.2-4.3H65c8.5,0,13.7,3.8,13.7,12.4c0,6-4.6,9.5-10.2,10.4l9.3,10c0.8,0.8,1.1,1.6,1.1,2.4
		c0,2.1-1.7,4.2-4.1,4.2c-1,0-2.3-0.4-3.2-1.4L59.4,58.8h-0.1v11.9c0,2.7-1.8,4.3-4.1,4.3s-4.1-1.5-4.1-4.3L51.1,39.8L51.1,39.8z
		 M59.3,52.8H65c3,0,5.1-1.8,5.1-4.9c0-3.1-2.1-4.8-5.1-4.8h-5.7V52.8z"/>
	<path d="M105.3,39.8c0-2.6,1.5-4.3,4.3-4.3h9.7c8.1,0,14.1,5.3,14.1,13.1c0,8-6.2,13-13.7,13h-6.1v9c0,2.7-1.8,4.3-4.1,4.3
		s-4.1-1.5-4.1-4.3L105.3,39.8L105.3,39.8z M113.5,54.4h5.6c3.5,0,5.7-2.5,5.7-5.8s-2.2-5.8-5.7-5.8h-5.6
		C113.5,42.8,113.5,54.4,113.5,54.4z"/>
	<path d="M142.9,39.4c0.9-2.5,3.1-4.6,5.9-4.6c2.9,0,4.9,1.9,5.9,4.6l10.8,29.9c0.3,0.9,0.4,1.6,0.4,2c0,2.1-1.8,3.6-3.8,3.6
		c-2.3,0-3.5-1.2-4-2.9l-1.6-5.2h-15.3l-1.6,5.1c-0.6,1.7-1.7,2.9-4,2.9c-2.2,0-4.1-1.7-4.1-3.8c0-0.9,0.3-1.5,0.4-1.8L142.9,39.4z
		 M143.5,59.4h10.4l-5.1-15.9h-0.1L143.5,59.4z"/>
	<path d="M168.7,39.8c0-2.6,1.5-4.3,4.2-4.3h9.7c8.5,0,13.7,3.8,13.7,12.4c0,6-4.6,9.5-10.2,10.4l9.4,10c0.8,0.8,1.1,1.6,1.1,2.4
		c0,2.1-1.7,4.2-4.1,4.2c-1,0-2.3-0.4-3.2-1.4L177,58.8h-0.1v11.9c0,2.7-1.8,4.3-4.1,4.3c-2.4,0-4.1-1.5-4.1-4.3L168.7,39.8
		L168.7,39.8z M176.9,52.8h5.7c3,0,5.1-1.8,5.1-4.9c0-3.1-2.1-4.8-5.1-4.8h-5.7V52.8z"/>
	<path d="M206.7,43.1h-6c-2.6,0-3.7-1.9-3.7-3.8c0-1.9,1.4-3.8,3.7-3.8H221c2.4,0,3.7,1.9,3.7,3.8c0,1.9-1.1,3.8-3.7,3.8h-6v27.6
		c0,2.7-1.8,4.3-4.1,4.3c-2.4,0-4.1-1.5-4.1-4.3V43.1z"/>
	<path d="M227,39.5c0-2.8,1.8-4.3,4.1-4.3c1,0,2.7,0.8,3.5,1.8L252,60.3h0.1V39.5c0-2.8,1.8-4.3,4.1-4.3c2.4,0,4.1,1.5,4.1,4.3v31.2
		c0,2.7-1.8,4.3-4.1,4.3c-1,0-2.7-0.8-3.5-1.8l-17.4-23h-0.1v20.5c0,2.7-1.8,4.3-4.1,4.3c-2.4,0-4.1-1.5-4.1-4.3V39.5z"/>
	<path d="M266.2,40.3c0-2.8,1.4-4.8,4.3-4.8h13.6c2.6,0,3.9,1.9,3.9,3.8c0,1.9-1.3,3.8-3.9,3.8h-9.7v8h9c2.7,0,4,1.9,4,3.8
		c0,1.9-1.4,3.8-4,3.8h-9v8.4h10.2c2.6,0,3.9,1.9,3.9,3.8c0,1.9-1.3,3.8-3.9,3.8h-14.2c-2.4,0-4.2-1.6-4.2-4.1L266.2,40.3
		L266.2,40.3z"/>
	<path d="M292.5,39.8c0-2.6,1.5-4.3,4.2-4.3h9.7c8.5,0,13.7,3.8,13.7,12.4c0,6-4.6,9.5-10.2,10.4l9.3,10c0.8,0.8,1.1,1.6,1.1,2.4
		c0,2.1-1.7,4.2-4.1,4.2c-1,0-2.3-0.4-3.2-1.4l-12.2-14.8h-0.1v11.9c0,2.7-1.8,4.3-4.1,4.3s-4.1-1.5-4.1-4.3L292.5,39.8L292.5,39.8z
		 M300.8,52.8h5.7c3,0,5.1-1.8,5.1-4.9c0-3.1-2.1-4.8-5.1-4.8h-5.7V52.8z"/>
</g>
<g>
	<path d="M152.4,9c0.4,0,0.7,0.1,1,0.4c0.3,0.3,0.4,0.6,0.4,1v2.2c0,0.5-0.1,0.9-0.2,1.2s-0.4,0.5-0.8,0.6c-0.5,0.2-1.4,0.3-2.7,0.3
		c0,0,0,0,0,0s0,0,0,0c1.3,0.7,2.7,1.2,4.2,1.5c0.3,0.1,0.5,0.2,0.6,0.5s0.1,0.5-0.1,0.8c-0.2,0.3-0.5,0.6-0.9,0.7s-0.7,0.2-1.1,0
		c-2-0.7-3.8-1.6-5.4-2.9c0,0,0,0-0.1,0s0,0,0,0.1v2.6c0,0.4-0.1,0.7-0.4,1s-0.6,0.4-1,0.4c-0.4,0-0.7-0.1-1-0.4s-0.4-0.6-0.4-1
		v-2.7c0,0,0,0,0,0c0,0,0,0-0.1,0c-1.6,1.4-3.5,2.4-5.6,3.1c-0.4,0.1-0.7,0.1-1.1,0s-0.6-0.4-0.9-0.7c-0.2-0.2-0.2-0.5-0.1-0.8
		c0.1-0.3,0.3-0.5,0.5-0.5c1.3-0.3,2.5-0.8,3.7-1.4c1.5-0.7,2.6-1.6,3.5-2.5c0.1-0.1,0.1-0.1,0.1-0.2v-1.2c0-0.1,0-0.1-0.1-0.1h-3.8
		c-0.1,0-0.1,0-0.1,0.1v2.3c0,0.4-0.1,0.7-0.4,0.9s-0.6,0.4-0.9,0.4c-0.4,0-0.7-0.1-0.9-0.4s-0.4-0.6-0.4-0.9v-3.1
		c0-0.4,0.1-0.7,0.4-1c0.3-0.3,0.6-0.4,1-0.4h5.1c0.1,0,0.1,0,0.1-0.1V8.1c0-0.1,0-0.1-0.1-0.1h-6.8c-0.3,0-0.6-0.1-0.8-0.3
		c-0.2-0.2-0.3-0.5-0.3-0.8s0.1-0.5,0.3-0.8c0.2-0.2,0.5-0.3,0.8-0.3h3.2c0.1,0,0.1,0,0.1-0.1c-0.2-0.6-0.5-1.2-1-2
		c0-0.1-0.1-0.1-0.2-0.1h-0.1c-0.1,0-0.1,0-0.2,0.1c-0.3,0.4-0.5,0.7-0.8,1.1c-0.2,0.3-0.5,0.4-0.9,0.4c-0.4,0-0.7-0.1-1-0.3
		c-0.2-0.2-0.4-0.4-0.4-0.7c0-0.3,0.1-0.6,0.3-0.8c0.7-0.7,1.3-1.6,1.8-2.6c0.1-0.3,0.4-0.6,0.7-0.7c0.3-0.2,0.6-0.2,1-0.1l0.1,0
		c0.3,0.1,0.5,0.3,0.6,0.5s0.1,0.5,0,0.8c0,0.1,0,0.1,0.1,0.1h3c0.4,0,0.7,0.1,1,0.4c0.3,0.3,0.4,0.6,0.4,1v0.2c0,0,0,0,0,0
		c0,0,0,0,0.1,0c0.5-0.6,1-1.4,1.4-2.2c0.2-0.3,0.4-0.6,0.7-0.7c0.3-0.2,0.7-0.2,1-0.1l0.1,0c0.3,0.1,0.5,0.3,0.7,0.5
		c0.1,0.3,0.1,0.6,0,0.8c0,0.1,0,0.1,0.1,0.1h4.7c0.3,0,0.5,0.1,0.7,0.3s0.3,0.4,0.3,0.7s-0.1,0.5-0.3,0.7s-0.4,0.3-0.7,0.3h-2.3
		c0,0,0,0-0.1,0s0,0.1,0,0.1c0.1,0.1,0.1,0.2,0.2,0.3c0.1,0.3,0.2,0.6,0,0.8s-0.3,0.5-0.6,0.6c-0.3,0.1-0.6,0.1-0.9-0.1
		c-0.3-0.1-0.5-0.4-0.7-0.7c-0.1-0.3-0.3-0.6-0.6-1c0-0.1-0.1-0.1-0.2-0.1h-0.8c-0.1,0-0.1,0-0.2,0.1c-0.2,0.3-0.5,0.7-0.8,1
		c-0.1,0.1-0.1,0.1-0.1,0.2v0.7c0,0.1,0,0.1,0.1,0.1h6.4c0.3,0,0.5,0.1,0.7,0.3c0.2,0.2,0.3,0.5,0.3,0.8s-0.1,0.5-0.3,0.8
		c-0.2,0.2-0.5,0.3-0.7,0.3h-6.4c-0.1,0-0.1,0-0.1,0.1v0.8c0,0.1,0,0.1,0.1,0.1H152.4z M141.5,5.8C141.5,5.8,141.5,5.8,141.5,5.8
		C141.5,5.8,141.5,5.8,141.5,5.8l3.1,0c0.1,0,0.1,0,0.1-0.1V5c0-0.1,0-0.2,0.1-0.2c0.1-0.1,0.1-0.1,0.2-0.1v0c0,0,0,0,0,0
		c-0.1-0.1-0.2-0.2-0.2-0.4c0-0.2,0-0.3,0.2-0.4c0.1-0.1,0.1-0.1,0.2-0.2c0,0,0,0,0,0c0,0,0,0,0,0h-2.4c0,0,0,0-0.1,0s0,0.1,0,0.1
		c0,0,0,0,0,0.1c0.2,0.3,0.2,0.7,0,1.1s-0.4,0.6-0.8,0.7L141.5,5.8z M147.4,11.1c-0.1,0-0.1,0-0.1,0.1v1.6c0,0.1,0,0.1,0.1,0.2
		c0.6,0.5,1.4,1.1,2.4,1.6c0,0,0.1,0,0.1,0c0,0,0,0,0-0.1c0-0.1-0.1-0.3-0.2-0.5c-0.1-0.3-0.1-0.6,0.1-0.9c0.2-0.3,0.4-0.4,0.7-0.4
		c0.1,0,0.2,0,0.3,0c0.2,0,0.3-0.1,0.3-0.3v-1.4c0-0.1,0-0.1-0.1-0.1H147.4z"/>
	<path d="M173,1.9c0.2-0.1,0.5,0,0.7,0.1l0.5,0.2c0.2,0.1,0.4,0.3,0.5,0.5s0.1,0.5,0,0.7C174,5.2,173,6.7,171.8,8
		c-0.1,0.1,0,0.1,0,0.2c1,0.8,2.1,1.4,3.3,1.9c0.3,0.1,0.5,0.3,0.5,0.6c0.1,0.3,0,0.6-0.2,0.8c-0.2,0.3-0.4,0.6-0.6,0.9
		c-0.1,0.1-0.2,0.1-0.3,0.1c0,0,0,0,0,0v5.7c0,0.3-0.1,0.6-0.4,0.9c-0.2,0.2-0.5,0.4-0.9,0.4h-0.6c-0.2,0-0.4-0.1-0.5-0.2
		c-0.1-0.1-0.2-0.3-0.2-0.5c0,0,0-0.1-0.1-0.1h-4.2c0,0-0.1,0-0.1,0.1c0,0.2-0.1,0.4-0.2,0.5c-0.1,0.1-0.3,0.2-0.5,0.2h-0.5
		c-0.3,0-0.6-0.1-0.8-0.3c-0.2-0.2-0.3-0.5-0.3-0.8v-5.7c0,0,0,0,0,0c-0.1,0.1-0.3,0.1-0.4,0s-0.2-0.1-0.3-0.3
		c-0.1-0.2-0.2-0.4-0.3-0.5c0,0,0,0,0,0s0,0,0,0v1.9c0,0.4-0.1,0.7-0.4,1c-0.3,0.3-0.6,0.4-1,0.4h-3.9c-0.1,0-0.1,0-0.1,0.1v0.7
		c0,0.2-0.1,0.5-0.3,0.6s-0.4,0.3-0.6,0.3c-0.3,0-0.5-0.1-0.6-0.3s-0.3-0.4-0.3-0.6V2.6c0-0.4,0.1-0.7,0.4-1c0.3-0.3,0.6-0.4,1-0.4
		h4.4c0.4,0,0.7,0.1,1,0.4c0.3,0.3,0.4,0.6,0.4,1V5c0,0,0,0,0,0c0,0,0,0,0.1,0c1.2-1.2,2.2-2.5,3-4.1c0.2-0.3,0.4-0.5,0.7-0.7
		c0.3-0.1,0.6-0.2,1-0.1c0.3,0.1,0.5,0.3,0.7,0.6c0.1,0.3,0.1,0.6,0,0.9c0,0.1-0.1,0.2-0.1,0.3c0,0,0,0.1,0,0.1s0,0,0.1,0h3
		c0,0,0,0,0,0L173,1.9C173,1.9,173,1.9,173,1.9z M159.7,3.4c0-0.1,0-0.1-0.1-0.1h-0.7c-0.1,0-0.1,0-0.1,0.1v3.5c0,0.1,0,0.1,0.1,0.1
		h0.7c0.1,0,0.1,0,0.1-0.1V3.4z M158.9,9c-0.1,0-0.1,0-0.1,0.1v3.9c0,0.1,0,0.1,0.1,0.1h0.7c0.1,0,0.1,0,0.1-0.1V9.2
		c0-0.1,0-0.1-0.1-0.1H158.9z M162.2,7c0.1,0,0.1,0,0.1-0.1V3.4c0-0.1,0-0.1-0.1-0.1h-0.8c-0.1,0-0.1,0-0.1,0.1v3.5
		c0,0.1,0,0.1,0.1,0.1H162.2z M161.3,13.1c0,0.1,0,0.1,0.1,0.1h0.8c0.1,0,0.1,0,0.1-0.1V9.2c0-0.1,0-0.1-0.1-0.1h-0.8
		c-0.1,0-0.1,0-0.1,0.1V13.1z M164.3,6.6C164.3,6.6,164.3,6.6,164.3,6.6C164.2,6.6,164.2,6.7,164.3,6.6l-0.1,3.9c0,0,0,0,0,0.1
		s0.1,0,0.1,0c1.4-0.6,2.7-1.4,3.9-2.4c0.1-0.1,0.1-0.1,0-0.2c-0.5-0.6-1-1.3-1.4-1.9c0-0.1-0.1-0.1-0.1,0c-0.2,0.2-0.4,0.4-0.6,0.6
		c-0.2,0.2-0.5,0.4-0.9,0.3S164.6,6.9,164.3,6.6z M167.3,11.6C167.3,11.6,167.3,11.7,167.3,11.6C167.3,11.7,167.3,11.7,167.3,11.6
		l5.4,0.1c0,0,0,0,0,0c0,0,0,0,0,0c-1-0.6-1.8-1.2-2.6-1.8c-0.1-0.1-0.1-0.1-0.2,0C169.1,10.5,168.3,11.1,167.3,11.6z M167.7,16.5
		c0,0.1,0,0.1,0.1,0.1h4.1c0.1,0,0.1,0,0.1-0.1V14c0-0.1,0-0.1-0.1-0.1h-4.1c-0.1,0-0.1,0-0.1,0.1V16.5z M171.7,4.1
		C171.7,4.1,171.7,4.1,171.7,4.1c0-0.1,0-0.1-0.1-0.1h-3.3c-0.1,0-0.1,0-0.2,0.1c0,0.1-0.1,0.1,0,0.2c0.5,0.7,1,1.4,1.7,2.1
		c0.1,0.1,0.1,0.1,0.2,0C170.7,5.7,171.2,5,171.7,4.1z"/>
	<path d="M176.8,17.3c-0.3-0.3-0.4-0.6-0.4-1s0.1-0.7,0.4-1c0.3-0.3,0.6-0.4,1-0.4h15.8c0.4,0,0.7,0.1,1,0.4c0.3,0.3,0.4,0.6,0.4,1
		s-0.1,0.7-0.4,1c-0.3,0.3-0.6,0.4-1,0.4h-15.8C177.4,17.8,177.1,17.6,176.8,17.3z M178.5,5.1c-0.3-0.3-0.4-0.6-0.4-1
		c0-0.4,0.1-0.7,0.4-1c0.3-0.3,0.6-0.4,1-0.4h12.4c0.4,0,0.7,0.1,1,0.4c0.3,0.3,0.4,0.6,0.4,1c0,0.4-0.1,0.7-0.4,1
		c-0.3,0.3-0.6,0.4-1,0.4h-12.4C179.1,5.5,178.8,5.4,178.5,5.1z"/>
</g>
</svg>
