<svg version="1.1" xmlns="http://www.w3.org/2000/svg" xmlns:xlink="http://www.w3.org/1999/xlink" x="0px" y="0px"
	 width="218.902px" height="30.938px" viewBox="0 0 218.902 30.938" enable-background="new 0 0 218.902 30.938"
	 xml:space="preserve">
<g>
	<path d="M23.049,3.158c0.408-0.107,0.795-0.043,1.16,0.193l0.87,0.547c0.387,0.258,0.628,0.613,0.726,1.064
		c0.096,0.451,0.016,0.859-0.242,1.225c-1.654,2.234-3.835,4.285-6.542,6.154c-0.021,0.044-0.032,0.086-0.032,0.129
		c0,0.044,0.021,0.076,0.064,0.098c2.922,1.246,6.026,2.202,9.313,2.867c0.473,0.086,0.79,0.36,0.95,0.822
		c0.162,0.463,0.103,0.897-0.177,1.305c-0.387,0.56-0.881,0.973-1.482,1.241s-1.214,0.327-1.837,0.177
		c-0.193-0.043-0.43-0.096-0.709-0.16c-0.129-0.043-0.193,0-0.193,0.129v9.732c0,0.58-0.204,1.074-0.612,1.482
		c-0.408,0.407-0.902,0.611-1.482,0.611h-1.128c-0.279,0-0.516-0.096-0.709-0.289s-0.29-0.431-0.29-0.709
		c0-0.064-0.032-0.098-0.097-0.098H8.869c-0.064,0-0.097,0.033-0.097,0.098c0,0.322-0.107,0.59-0.322,0.805
		s-0.483,0.322-0.806,0.322h-0.87c-0.559,0-1.031-0.193-1.418-0.58s-0.58-0.859-0.58-1.418v-9.99c0-0.129-0.064-0.172-0.193-0.129
		c-0.602,0.15-1.139,0.291-1.611,0.42c-0.537,0.15-1.063,0.092-1.579-0.178c-0.516-0.269-0.913-0.66-1.192-1.176
		c-0.236-0.43-0.264-0.865-0.081-1.306s0.5-0.714,0.951-0.821c3.545-0.773,6.864-1.848,9.958-3.223
		c0.043-0.021,0.069-0.06,0.081-0.113c0.01-0.053-0.006-0.092-0.049-0.113c-1.225-0.945-2.428-2.008-3.609-3.189
		C7.344,8.98,7.236,8.97,7.129,9.055c-0.816,0.753-1.74,1.494-2.771,2.225c-0.473,0.322-0.994,0.445-1.562,0.37
		c-0.57-0.075-1.069-0.327-1.499-0.757c-0.344-0.365-0.494-0.795-0.451-1.289s0.279-0.871,0.709-1.129
		C3.015,7.552,4.416,6.467,5.76,5.221c1.342-1.246,2.486-2.547,3.432-3.9c0.344-0.472,0.784-0.805,1.321-0.998s1.074-0.193,1.611,0
		c0.473,0.172,0.79,0.494,0.95,0.967c0.162,0.473,0.103,0.913-0.177,1.32c-0.086,0.15-0.172,0.291-0.258,0.42
		c-0.021,0.021-0.027,0.053-0.017,0.096c0.011,0.044,0.049,0.064,0.113,0.064H22.92C22.963,3.189,23.006,3.18,23.049,3.158z
		 M5.679,18.465c-0.021,0-0.027,0.012-0.017,0.033s0.027,0.031,0.049,0.031h18.144c0.021,0,0.032-0.01,0.032-0.031
		s-0.011-0.033-0.032-0.033c-3.309-0.987-6.22-2.191-8.733-3.609c-0.129-0.064-0.247-0.064-0.354,0
		C12.188,16.23,9.159,17.434,5.679,18.465z M8.772,26.039c0,0.129,0.075,0.193,0.226,0.193h11.505c0.129,0,0.193-0.064,0.193-0.193
		v-3.738c0-0.129-0.064-0.193-0.193-0.193H8.998c-0.15,0-0.226,0.064-0.226,0.193V26.039z M19.858,6.703
		c0.021-0.043,0.026-0.081,0.017-0.113c-0.012-0.032-0.038-0.049-0.081-0.049h-9.7c-0.043,0-0.075,0.017-0.097,0.049
		s-0.011,0.07,0.032,0.113c1.16,1.16,2.739,2.373,4.737,3.641c0.107,0.064,0.226,0.064,0.354,0
		C17.119,9.099,18.698,7.885,19.858,6.703z"/>
	<path d="M41.229,15.533c0.086,0.494-0.011,0.955-0.29,1.385c-0.279,0.431-0.655,0.721-1.128,0.871l-1.289,0.387
		c-0.15,0.043-0.226,0.129-0.226,0.258v8.281c0,1.719-0.44,2.814-1.321,3.287c-0.58,0.344-1.461,0.569-2.643,0.678
		c-0.494,0.043-0.94-0.103-1.338-0.436c-0.397-0.334-0.682-0.769-0.854-1.305c-0.107-0.408-0.043-0.79,0.193-1.145
		s0.569-0.531,0.999-0.531c0.301,0,0.612,0,0.935,0c0.344,0,0.516-0.183,0.516-0.549v-7.25c0-0.129-0.064-0.172-0.193-0.129
		c-0.193,0.043-0.505,0.129-0.935,0.258c-0.494,0.129-0.967,0.064-1.418-0.193s-0.741-0.645-0.87-1.16
		c-0.129-0.494-0.06-0.967,0.209-1.418s0.661-0.742,1.177-0.871c0.021,0,0.075-0.01,0.161-0.031c0.752-0.193,1.311-0.334,1.676-0.42
		c0.129-0.043,0.193-0.129,0.193-0.258v-5.188c0-0.129-0.064-0.193-0.193-0.193h-1.321c-0.494,0-0.919-0.178-1.272-0.532
		c-0.355-0.354-0.532-0.778-0.532-1.272s0.177-0.919,0.532-1.273c0.354-0.354,0.778-0.531,1.272-0.531h1.321
		c0.129,0,0.193-0.064,0.193-0.193V1.805c0-0.473,0.172-0.881,0.516-1.225s0.758-0.516,1.24-0.516c0.484,0,0.897,0.172,1.241,0.516
		s0.516,0.752,0.516,1.225v4.254c0,0.129,0.075,0.193,0.226,0.193h0.58c0.494,0,0.918,0.177,1.273,0.531
		c0.354,0.354,0.531,0.779,0.531,1.273s-0.178,0.918-0.531,1.272c-0.355,0.354-0.779,0.532-1.273,0.532h-0.58
		c-0.15,0-0.226,0.064-0.226,0.193v4.221c0,0.129,0.075,0.173,0.226,0.129l0.709-0.193c0.473-0.107,0.907-0.031,1.305,0.227
		S41.164,15.061,41.229,15.533z M45.321,8.539c-0.15,0-0.226,0.064-0.226,0.193v6.832c0,5.951-0.838,10.518-2.514,13.697
		c-0.215,0.407-0.554,0.645-1.016,0.709s-0.886-0.044-1.272-0.322c-0.365-0.258-0.602-0.613-0.709-1.064s-0.054-0.881,0.161-1.289
		c0.666-1.289,1.139-2.728,1.418-4.318c0.365-2.212,0.548-4.684,0.548-7.412V7.412c0-0.451,0.166-0.844,0.499-1.177
		s0.736-0.499,1.209-0.499h1.676v0.031h3.609c0.129,0,0.193-0.064,0.193-0.193V1.965c0-0.516,0.183-0.955,0.548-1.32
		s0.806-0.549,1.321-0.549h0.387c0.408,0,0.758,0.146,1.047,0.436c0.291,0.29,0.436,0.65,0.436,1.08
		c0,0.086,0.054,0.129,0.161,0.129h6.123c0.365,0,0.682,0.134,0.95,0.402c0.269,0.27,0.403,0.586,0.403,0.951
		s-0.135,0.682-0.403,0.95s-0.585,0.403-0.95,0.403h-6.059c-0.15,0-0.226,0.064-0.226,0.193v0.934c0,0.129,0.075,0.193,0.226,0.193
		h5.479c0-0.021,0.011-0.031,0.032-0.031h0.451c0.021,0,0.054,0,0.097,0c0.322-0.064,0.655-0.064,0.999,0l0.677,0.129
		c0.344,0.086,0.602,0.269,0.773,0.547c0.172,0.279,0.226,0.58,0.161,0.902c-0.279,1.031-0.569,1.988-0.87,2.869
		c-0.15,0.408-0.414,0.709-0.79,0.902s-0.768,0.246-1.176,0.16c-0.387-0.085-0.677-0.301-0.87-0.645
		c-0.193-0.343-0.247-0.709-0.161-1.096c0.064-0.236,0.129-0.494,0.193-0.773c0.021-0.129-0.032-0.193-0.161-0.193h-5.414
		c-0.15,0-0.226,0.064-0.226,0.193v0.773c0,0.129,0.075,0.184,0.226,0.162l3.094-0.291c0.301-0.021,0.563,0.064,0.79,0.258
		c0.225,0.193,0.354,0.436,0.387,0.726c0.031,0.29-0.044,0.554-0.227,0.79s-0.424,0.365-0.725,0.387l-3.319,0.289
		c-0.15,0.021-0.226,0.098-0.226,0.227c0.021,0.365,0.107,0.591,0.258,0.676c0.15,0.108,0.505,0.162,1.063,0.162h3.513
		c0.408,0,0.688-0.086,0.838-0.258h0.032c0.408-0.559,0.838-0.752,1.289-0.58c0.086,0.021,0.161,0.043,0.226,0.064
		c0.408,0.129,0.72,0.354,0.935,0.676s0.247,0.656,0.097,1c-0.15,0.365-0.344,0.645-0.58,0.838c-0.494,0.387-1.289,0.58-2.385,0.58
		h-4.351c-1.611,0-2.696-0.215-3.255-0.645c-0.516-0.408-0.795-1.16-0.838-2.256c-0.021-0.129-0.097-0.183-0.226-0.162l-1.869,0.193
		c-0.301,0.021-0.569-0.064-0.806-0.258s-0.371-0.439-0.402-0.74c-0.033-0.301,0.048-0.569,0.241-0.807
		c0.193-0.236,0.44-0.365,0.741-0.387l2.095-0.16c0.129-0.021,0.193-0.098,0.193-0.227V8.732c0-0.129-0.064-0.193-0.193-0.193
		H45.321z M58.599,19.883c0.279-0.258,0.612-0.396,0.999-0.418s0.73,0.086,1.031,0.322c0.279,0.236,0.419,0.526,0.419,0.869
		c0,0.344-0.14,0.624-0.419,0.838c-0.559,0.431-1.268,0.936-2.127,1.516c-0.129,0.086-0.15,0.182-0.064,0.289
		c0.752,1.246,1.633,2.246,2.643,2.998c0.344,0.236,0.542,0.563,0.596,0.982s-0.048,0.789-0.306,1.111
		c-0.301,0.387-0.666,0.629-1.096,0.726s-0.827,0.017-1.192-0.241c-2.449-2.084-4.189-5.5-5.221-10.248
		c-0.043-0.129-0.118-0.15-0.226-0.064c-0.537,0.43-1.031,0.784-1.482,1.062c-0.107,0.064-0.118,0.141-0.032,0.227
		c1.182,1.01,2.03,2.202,2.546,3.576c0.537,1.418,0.72,2.703,0.548,3.852s-0.559,2.003-1.16,2.562
		c-0.666,0.688-1.558,1.052-2.675,1.096c-0.086,0-0.161,0-0.226,0c-0.387,0-0.736-0.141-1.047-0.42
		c-0.312-0.279-0.521-0.623-0.629-1.031c-0.064-0.301-0.011-0.58,0.161-0.838s0.419-0.387,0.741-0.387c0.129,0,0.269,0,0.419,0
		c0.344,0,0.612-0.053,0.806-0.16c0.236-0.129,0.43-0.365,0.58-0.709c0.15-0.365,0.215-0.871,0.193-1.516
		c0-0.043-0.021-0.074-0.064-0.096s-0.075-0.021-0.097,0c-1.912,1.439-3.932,2.621-6.059,3.545c-0.322,0.129-0.645,0.129-0.967,0
		s-0.58-0.334-0.773-0.613c-0.172-0.236-0.221-0.494-0.146-0.773c0.075-0.278,0.253-0.472,0.532-0.58
		c1.096-0.365,2.213-0.838,3.352-1.418c1.439-0.729,2.6-1.482,3.48-2.256c0.107-0.085,0.118-0.193,0.032-0.322
		c-0.043-0.085-0.097-0.193-0.161-0.322c-0.086-0.129-0.183-0.149-0.29-0.064c-1.268,0.902-2.653,1.666-4.157,2.289
		c-0.322,0.107-0.628,0.107-0.919,0c-0.289-0.107-0.531-0.301-0.725-0.58c-0.15-0.215-0.183-0.451-0.097-0.709
		s0.258-0.43,0.516-0.516c1.611-0.473,3.029-1.107,4.254-1.902c0.107-0.085,0.118-0.172,0.032-0.258l-0.29-0.225
		c-0.107-0.086-0.215-0.098-0.322-0.033c-0.795,0.344-1.547,0.635-2.256,0.871c-0.279,0.086-0.569,0.064-0.87-0.064
		s-0.526-0.334-0.677-0.613c-0.129-0.236-0.146-0.478-0.048-0.725c0.096-0.246,0.273-0.414,0.531-0.5
		c1.482-0.407,2.836-0.945,4.061-1.611c0.021-0.021,0.026-0.043,0.016-0.064c-0.011-0.021-0.026-0.031-0.048-0.031h-3.255
		c-0.344,0-0.64-0.124-0.887-0.371c-0.247-0.246-0.37-0.543-0.37-0.887c0-0.343,0.123-0.639,0.37-0.886s0.543-0.37,0.887-0.37H60.5
		c0.344,0,0.639,0.123,0.887,0.37c0.246,0.247,0.37,0.543,0.37,0.886c0,0.344-0.124,0.641-0.37,0.887
		c-0.248,0.247-0.543,0.371-0.887,0.371h-3.899c-0.15,0-0.204,0.064-0.161,0.193c0.172,0.623,0.419,1.396,0.741,2.32
		c0.043,0.129,0.129,0.15,0.258,0.064C57.825,20.561,58.212,20.227,58.599,19.883z"/>
	<path d="M66.037,29.744c-0.193,0.365-0.499,0.592-0.919,0.678c-0.418,0.085-0.8,0.021-1.144-0.193
		c-0.322-0.173-0.526-0.447-0.612-0.822c-0.086-0.376-0.032-0.736,0.161-1.08c0.537-0.902,0.945-2.008,1.225-3.318
		c0.086-0.365,0.279-0.645,0.58-0.838s0.634-0.236,0.999-0.129c0.365,0.086,0.655,0.295,0.87,0.628s0.279,0.692,0.193,1.079
		C67.047,27.403,66.596,28.734,66.037,29.744z M65.264,22.816c-0.451,0.043-0.849-0.092-1.192-0.403s-0.526-0.698-0.548-1.16
		s0.123-0.858,0.435-1.192c0.312-0.333,0.693-0.5,1.145-0.5c0.988-0.043,2.331-0.085,4.028-0.129c0.15,0,0.226-0.064,0.226-0.193
		v-1.191c0-0.129-0.075-0.193-0.226-0.193h-3.384c-0.408,0-0.758-0.146-1.047-0.436c-0.291-0.29-0.436-0.645-0.436-1.063
		s0.145-0.773,0.436-1.063c0.289-0.29,0.639-0.436,1.047-0.436h3.384c0.15,0,0.226-0.064,0.226-0.193v-0.998
		c0-0.129-0.075-0.193-0.226-0.193h-2.578c-0.623,0-1.155-0.221-1.595-0.661c-0.441-0.44-0.661-0.972-0.661-1.595V3.287
		c0-0.623,0.22-1.155,0.661-1.596c0.439-0.439,0.972-0.66,1.595-0.66h9.507c0.623,0,1.154,0.221,1.596,0.66
		c0.439,0.44,0.66,0.973,0.66,1.596v7.928c0,0.623-0.221,1.154-0.66,1.595c-0.441,0.44-0.973,0.661-1.596,0.661h-3.062
		c-0.129,0-0.193,0.064-0.193,0.193v0.998c0,0.129,0.064,0.193,0.193,0.193h3.609c0.43,0,0.79,0.146,1.079,0.436
		c0.291,0.29,0.436,0.645,0.436,1.063s-0.145,0.773-0.436,1.063c-0.289,0.29-0.649,0.436-1.079,0.436h-3.609
		c-0.129,0-0.193,0.064-0.193,0.193v1.062c0,0.129,0.064,0.193,0.193,0.193c0.645-0.021,1.558-0.053,2.739-0.096
		c0.516-0.021,0.978-0.043,1.386-0.064s0.763,0.112,1.063,0.402s0.451,0.65,0.451,1.08c-0.021,0.43-0.183,0.795-0.483,1.096
		s-0.666,0.473-1.096,0.516C72.805,22.451,68.873,22.645,65.264,22.816z M67.229,5.35c0-0.021-0.011-0.021-0.032,0v5.35
		c0,0.129,0.064,0.193,0.193,0.193h2.288c0.15,0,0.226-0.064,0.226-0.193V3.867c0-0.129-0.075-0.193-0.226-0.193h-2.288
		c-0.129,0-0.193,0.064-0.193,0.193V4.93c0,0.086,0.043,0.119,0.129,0.098c0.408-0.129,0.795-0.092,1.16,0.112
		s0.602,0.511,0.709,0.919c0.258,0.859,0.44,1.654,0.548,2.385c0.043,0.258-0.011,0.499-0.161,0.725S69.228,9.55,68.97,9.635
		c-0.236,0.064-0.451,0.027-0.645-0.112s-0.312-0.327-0.354-0.563C67.863,7.82,67.616,6.617,67.229,5.35z M68.1,25.039
		c-0.043-0.322,0.032-0.617,0.226-0.886s0.451-0.424,0.773-0.468c0.344-0.043,0.655,0.038,0.935,0.242
		c0.279,0.205,0.451,0.467,0.516,0.789c0.193,1.14,0.322,2.235,0.387,3.287c0,0.365-0.112,0.682-0.339,0.951
		c-0.225,0.269-0.521,0.436-0.886,0.5c-0.322,0.043-0.607-0.044-0.854-0.258c-0.247-0.215-0.381-0.495-0.402-0.838
		C68.411,27.35,68.293,26.243,68.1,25.039z M71.548,24.846c-0.086-0.301-0.054-0.59,0.097-0.869s0.387-0.451,0.709-0.516
		s0.634-0.012,0.935,0.16c0.301,0.173,0.505,0.42,0.612,0.742c0.387,1.139,0.677,2.191,0.87,3.158c0.064,0.344,0,0.66-0.193,0.95
		s-0.462,0.478-0.806,0.563c-0.322,0.086-0.618,0.033-0.886-0.16c-0.27-0.193-0.436-0.451-0.5-0.773
		C72.214,27.156,71.935,26.07,71.548,24.846z M75.125,5.092c0.107,0.043,0.161,0.011,0.161-0.098V3.867
		c0-0.129-0.075-0.193-0.226-0.193h-2.61c-0.129,0-0.193,0.064-0.193,0.193v4.994c0,0.021,0.005,0.033,0.016,0.033
		s0.027-0.012,0.049-0.033c0.322-0.987,0.591-1.869,0.806-2.643c0.107-0.451,0.359-0.783,0.757-0.998S74.695,4.963,75.125,5.092z
		 M72.257,10.699c0,0.129,0.064,0.193,0.193,0.193h2.61c0.15,0,0.226-0.064,0.226-0.193V5.93c0-0.021-0.011-0.033-0.032-0.033
		s-0.043,0.012-0.064,0.033l-1.096,2.738c-0.129,0.344-0.365,0.592-0.709,0.742s-0.688,0.15-1.031,0
		c-0.064-0.021-0.097,0.011-0.097,0.096V10.699z M74.996,24.557c-0.172-0.301-0.204-0.607-0.097-0.919s0.312-0.521,0.612-0.628
		c0.344-0.129,0.692-0.141,1.048-0.033c0.354,0.108,0.628,0.322,0.821,0.645c0.602,0.967,1.085,1.891,1.45,2.771
		c0.15,0.366,0.145,0.726-0.016,1.08c-0.162,0.354-0.425,0.607-0.79,0.758c-0.322,0.149-0.645,0.149-0.967,0
		c-0.322-0.15-0.548-0.398-0.677-0.742C76.06,26.586,75.598,25.609,74.996,24.557z M93.413,7.396
		c0.355,0.354,0.532,0.778,0.532,1.272c0,0.495-0.177,0.919-0.532,1.273c-0.354,0.354-0.778,0.531-1.272,0.531h-4.415
		c-0.129,0-0.193,0.064-0.193,0.193v4.705c0,0.129,0.064,0.193,0.193,0.193h2.9c0.623,0,1.154,0.221,1.596,0.661
		c0.439,0.44,0.66,0.972,0.66,1.595v11.055c0,0.516-0.183,0.955-0.548,1.32s-0.806,0.549-1.321,0.549h-0.741
		c-0.322,0-0.586-0.108-0.79-0.322c-0.204-0.215-0.306-0.473-0.306-0.773c0-0.064-0.032-0.098-0.097-0.098h-6.026
		c-0.064,0-0.097,0.043-0.097,0.129c0,0.322-0.124,0.607-0.371,0.854s-0.542,0.37-0.886,0.37h-0.516
		c-0.494,0-0.913-0.172-1.257-0.516s-0.516-0.762-0.516-1.256V17.82c0-0.623,0.22-1.154,0.66-1.595s0.973-0.661,1.596-0.661h1.837
		c0.15,0,0.226-0.064,0.226-0.193V1.998c0-0.516,0.188-0.962,0.564-1.338c0.375-0.375,0.821-0.564,1.337-0.564
		s0.961,0.189,1.337,0.564c0.376,0.376,0.564,0.822,0.564,1.338V6.67c0,0.129,0.064,0.193,0.193,0.193h4.415
		C92.635,6.863,93.06,7.041,93.413,7.396z M88.95,26.039c0.15,0,0.226-0.064,0.226-0.193v-6.51c0-0.129-0.075-0.193-0.226-0.193
		h-5.801c-0.129,0-0.193,0.064-0.193,0.193v6.51c0,0.129,0.064,0.193,0.193,0.193H88.95z"/>
	<path d="M112.184,26.199c0,0.129,0.064,0.193,0.193,0.193h10.538c0.494,0,0.913,0.173,1.257,0.516
		c0.344,0.344,0.516,0.764,0.516,1.258s-0.172,0.912-0.516,1.256s-0.763,0.516-1.257,0.516h-25.33c-0.494,0-0.913-0.172-1.257-0.516
		s-0.516-0.762-0.516-1.256s0.172-0.914,0.516-1.258c0.344-0.343,0.763-0.516,1.257-0.516h10.377c0.129,0,0.193-0.064,0.193-0.193
		v-4.543c0-0.129-0.064-0.193-0.193-0.193h-6.929c-0.473,0-0.881-0.172-1.225-0.516s-0.516-0.752-0.516-1.225
		s0.172-0.881,0.516-1.225s0.752-0.516,1.225-0.516h19.014c0.473,0,0.881,0.172,1.225,0.516s0.516,0.752,0.516,1.225
		s-0.172,0.881-0.516,1.225s-0.752,0.516-1.225,0.516h-7.67c-0.129,0-0.193,0.064-0.193,0.193V26.199z M111.861,6.768
		c0-0.129-0.064-0.193-0.193-0.193h-2.804c-0.129,0-0.204,0.064-0.226,0.193c-0.15,1.396-0.397,2.589-0.741,3.576
		c-0.344,1.031-0.902,2.025-1.676,2.981s-1.848,1.768-3.223,2.433c-0.902,0.451-1.955,0.85-3.158,1.193
		c-0.537,0.15-1.063,0.102-1.579-0.146s-0.945-0.628-1.289-1.144c-0.236-0.365-0.279-0.758-0.129-1.177s0.43-0.682,0.838-0.79
		c0.924-0.214,1.729-0.461,2.417-0.74c1.139-0.451,2.015-1.01,2.626-1.676c0.613-0.666,1.048-1.354,1.306-2.062
		c0.258-0.645,0.451-1.461,0.58-2.449c0.021-0.129-0.032-0.193-0.161-0.193h-4.157c-0.129,0-0.193,0.064-0.193,0.193v1.707
		c0,0.537-0.188,0.994-0.563,1.37c-0.377,0.376-0.833,0.563-1.37,0.563s-0.994-0.188-1.37-0.563s-0.563-0.833-0.563-1.37V5.285
		c0-0.623,0.22-1.155,0.661-1.596c0.439-0.439,0.972-0.66,1.595-0.66h9.475c0.129,0,0.193-0.064,0.193-0.193V2.062
		c0-0.537,0.198-1.004,0.597-1.402c0.396-0.397,0.869-0.596,1.418-0.596c0.547,0,1.02,0.198,1.418,0.596
		c0.396,0.398,0.596,0.865,0.596,1.402v0.773c0,0.129,0.064,0.193,0.193,0.193h9.7c0.623,0,1.154,0.221,1.595,0.66
		c0.44,0.44,0.661,0.973,0.661,1.596V7.83c0,0.56-0.199,1.037-0.597,1.435s-0.875,0.597-1.434,0.597s-1.037-0.199-1.434-0.597
		c-0.398-0.397-0.597-0.875-0.597-1.435V6.768c0-0.129-0.064-0.193-0.193-0.193h-4.157c-0.129,0-0.193,0.064-0.193,0.193v5.059
		c0,0.451,0.069,0.736,0.209,0.854s0.479,0.177,1.016,0.177h2.868c0.451,0,0.752-0.139,0.902-0.418
		c0.021-0.064,0.043-0.129,0.064-0.193c0.107-0.408,0.344-0.709,0.709-0.902s0.741-0.215,1.128-0.064
		c0.494,0.193,0.892,0.504,1.192,0.934c0.301,0.431,0.376,0.882,0.226,1.354c-0.215,0.795-0.494,1.375-0.838,1.74
		c-0.602,0.624-1.59,0.936-2.965,0.936h-3.867c-1.805,0-3.008-0.307-3.609-0.919s-0.902-1.767-0.902-3.464V6.768z"/>
	<path d="M140.144,11.086c0,0.623-0.221,1.154-0.66,1.595c-0.441,0.44-0.973,0.661-1.596,0.661h-6.413
		c-0.129,0-0.193,0.064-0.193,0.193v15.436c0,0.537-0.188,0.994-0.563,1.37c-0.377,0.376-0.833,0.563-1.37,0.563
		s-0.994-0.188-1.37-0.563s-0.563-0.833-0.563-1.37V3.609c0-0.623,0.22-1.155,0.661-1.596c0.439-0.439,0.972-0.66,1.595-0.66h8.218
		c0.623,0,1.154,0.221,1.596,0.66c0.439,0.44,0.66,0.973,0.66,1.596V11.086z M136.47,4.383c0-0.129-0.064-0.193-0.193-0.193h-4.802
		c-0.129,0-0.193,0.064-0.193,0.193v1.32c0,0.129,0.064,0.193,0.193,0.193h4.802c0.129,0,0.193-0.064,0.193-0.193V4.383z
		 M131.281,10.312c0,0.129,0.064,0.193,0.193,0.193h4.802c0.129,0,0.193-0.064,0.193-0.193V8.766c0-0.129-0.064-0.193-0.193-0.193
		h-4.802c-0.129,0-0.193,0.064-0.193,0.193V10.312z M152.97,1.354c0.623,0,1.154,0.221,1.596,0.66c0.439,0.44,0.66,0.973,0.66,1.596
		v22.59c0,1.096-0.129,1.945-0.387,2.547c-0.258,0.601-0.709,1.052-1.354,1.354c-0.688,0.343-1.944,0.559-3.771,0.645
		c-0.645,0.043-1.225-0.141-1.74-0.549s-0.881-0.934-1.096-1.578c-0.043-0.173-0.107-0.366-0.193-0.58
		c-0.043-0.129-0.129-0.193-0.258-0.193h-7.831c-0.107,0-0.161,0.053-0.161,0.16c0,0.43-0.156,0.801-0.468,1.112
		s-0.682,0.468-1.111,0.468h-0.193c-0.494,0-0.918-0.178-1.273-0.532c-0.354-0.354-0.531-0.778-0.531-1.272V17.467
		c0-0.623,0.22-1.155,0.66-1.596c0.44-0.439,0.973-0.66,1.596-0.66h8.282c0.623,0,1.154,0.221,1.595,0.66
		c0.44,0.44,0.661,0.973,0.661,1.596v9.184c0,0.129,0.064,0.193,0.193,0.193c0.494,0.021,1.375,0.033,2.643,0.033
		c0.301-0.021,0.505-0.081,0.612-0.178s0.161-0.273,0.161-0.531V13.631c0-0.129-0.064-0.193-0.193-0.193h-6.542
		c-0.623,0-1.155-0.22-1.596-0.66c-0.44-0.439-0.66-0.972-0.66-1.596V3.609c0-0.623,0.22-1.155,0.66-1.596
		c0.44-0.439,0.973-0.66,1.596-0.66H152.97z M143.946,18.305c0-0.129-0.064-0.193-0.193-0.193h-5.124
		c-0.129,0-0.193,0.064-0.193,0.193v1.547c0,0.129,0.064,0.193,0.193,0.193h5.124c0.129,0,0.193-0.064,0.193-0.193V18.305z
		 M138.436,24.75c0,0.129,0.064,0.193,0.193,0.193h5.124c0.129,0,0.193-0.064,0.193-0.193v-1.676c0-0.129-0.064-0.193-0.193-0.193
		h-5.124c-0.129,0-0.193,0.064-0.193,0.193V24.75z M151.262,4.383c0-0.129-0.064-0.193-0.193-0.193h-4.898
		c-0.129,0-0.193,0.064-0.193,0.193v1.32c0,0.129,0.064,0.193,0.193,0.193h4.898c0.129,0,0.193-0.064,0.193-0.193V4.383z
		 M145.977,10.408c0,0.129,0.064,0.193,0.193,0.193h4.898c0.129,0,0.193-0.064,0.193-0.193V8.766c0-0.129-0.064-0.193-0.193-0.193
		h-4.898c-0.129,0-0.193,0.064-0.193,0.193V10.408z"/>
	<path d="M169.651,21.494c0.365,0.431,0.542,0.93,0.532,1.499c-0.012,0.569-0.199,1.069-0.564,1.499
		c-0.322,0.344-0.725,0.499-1.209,0.467c-0.482-0.032-0.854-0.252-1.111-0.66c-0.645-0.924-1.386-1.945-2.224-3.062
		c-0.021-0.021-0.054-0.031-0.097-0.031s-0.075,0.021-0.097,0.064c-0.795,3.158-2.116,5.725-3.964,7.701
		c-0.365,0.365-0.806,0.527-1.321,0.484c-0.516-0.044-0.956-0.258-1.321-0.645c-0.344-0.366-0.516-0.795-0.516-1.289
		s0.172-0.924,0.516-1.289c2.062-2.191,3.287-5.457,3.674-9.797c0.021-0.129-0.032-0.193-0.161-0.193h-2.643
		c-0.494,0-0.913-0.172-1.257-0.516s-0.516-0.763-0.516-1.258c0-0.494,0.172-0.912,0.516-1.256s0.763-0.516,1.257-0.516h2.771
		c0.129,0,0.193-0.064,0.193-0.193v-0.322V8.732c0-0.129-0.064-0.193-0.193-0.193h-2.353c-0.473,0-0.876-0.166-1.209-0.499
		s-0.499-0.741-0.499-1.225s0.166-0.892,0.499-1.225s0.736-0.499,1.209-0.499h2.353c0.129,0,0.193-0.064,0.193-0.193V2.191
		c0-0.494,0.183-0.924,0.548-1.289s0.8-0.549,1.305-0.549s0.94,0.184,1.306,0.549s0.548,0.795,0.548,1.289v2.707
		c0,0.129,0.064,0.193,0.193,0.193h2.256c0.473,0,0.875,0.166,1.209,0.499c0.332,0.333,0.499,0.741,0.499,1.225
		s-0.167,0.892-0.499,1.225c-0.334,0.333-0.736,0.499-1.209,0.499h-2.256c-0.129,0-0.193,0.064-0.193,0.193v3.48v0.291
		c0,0.129,0.064,0.193,0.193,0.193h2.707c0.494,0,0.913,0.172,1.257,0.516s0.516,0.762,0.516,1.256c0,0.495-0.172,0.914-0.516,1.258
		s-0.763,0.516-1.257,0.516h-2.868c-0.129,0-0.193,0.064-0.193,0.193l-0.064,0.451c0,0.129,0.054,0.246,0.161,0.354
		C166.848,18.315,168.147,19.733,169.651,21.494z M183.058,26.844h1.063c0.15,0,0.263-0.043,0.338-0.129
		c0.075-0.085,0.146-0.268,0.21-0.547s0.107-0.666,0.129-1.16c0-0.107,0-0.215,0-0.322c0.021-0.387,0.204-0.672,0.548-0.854
		s0.698-0.198,1.063-0.048c0.494,0.215,0.886,0.537,1.177,0.967c0.289,0.43,0.402,0.891,0.338,1.385
		c-0.193,1.354-0.473,2.31-0.838,2.869c-0.494,0.816-1.343,1.225-2.546,1.225h-2.127c-1.418,0-2.358-0.302-2.819-0.902
		c-0.463-0.602-0.693-1.729-0.693-3.385v-5.639c0-0.129-0.064-0.193-0.193-0.193h-1.354c-0.129,0-0.204,0.064-0.226,0.193
		c-0.15,1.246-0.354,2.342-0.612,3.287c-0.301,0.988-0.73,1.961-1.289,2.916c-0.559,0.956-1.332,1.81-2.32,2.562
		c-0.559,0.407-1.192,0.794-1.901,1.16c-0.473,0.214-0.945,0.236-1.418,0.064c-0.473-0.173-0.87-0.473-1.192-0.902
		c-0.258-0.344-0.338-0.73-0.242-1.16c0.098-0.43,0.339-0.73,0.726-0.902c1.354-0.645,2.353-1.418,2.997-2.32
		c0.838-1.225,1.375-2.805,1.611-4.738c0.021-0.107-0.021-0.16-0.129-0.16c-0.537,0-0.994-0.188-1.369-0.564
		c-0.377-0.375-0.564-0.832-0.564-1.369V3.447c0-0.623,0.22-1.154,0.66-1.595s0.973-0.661,1.596-0.661h10.184
		c0.623,0,1.154,0.221,1.596,0.661c0.439,0.44,0.66,0.972,0.66,1.595v14.406c0,0.623-0.221,1.154-0.66,1.595
		c-0.441,0.44-0.973,0.661-1.596,0.661h-1.16c-0.129,0-0.193,0.064-0.193,0.193v5.574c0,0.431,0.032,0.699,0.097,0.807
		S182.821,26.844,183.058,26.844z M175.259,4.641c-0.129,0-0.193,0.064-0.193,0.193v1.514c0,0.129,0.064,0.193,0.193,0.193h6.864
		c0.129,0,0.193-0.064,0.193-0.193V4.834c0-0.129-0.064-0.193-0.193-0.193H175.259z M175.259,9.699
		c-0.129,0-0.193,0.064-0.193,0.193v1.516c0,0.129,0.064,0.193,0.193,0.193h6.864c0.129,0,0.193-0.064,0.193-0.193V9.893
		c0-0.129-0.064-0.193-0.193-0.193H175.259z M175.259,14.695c-0.129,0-0.193,0.064-0.193,0.193v1.578
		c0,0.129,0.064,0.193,0.193,0.193h6.864c0.129,0,0.193-0.064,0.193-0.193v-1.578c0-0.129-0.064-0.193-0.193-0.193H175.259z"/>
	<path d="M204.175,1.771c0.623,0,1.154,0.221,1.595,0.661s0.661,0.972,0.661,1.595v0.807c0,0.086,0.043,0.129,0.129,0.129h0.226
		c0.344,0,0.634,0.117,0.87,0.354c0.236,0.237,0.354,0.521,0.354,0.854s-0.118,0.618-0.354,0.854s-0.526,0.354-0.87,0.354h-0.226
		c-0.086,0-0.129,0.044-0.129,0.129v0.936c0,0.623-0.221,1.154-0.661,1.595s-0.972,0.661-1.595,0.661h-3.706
		c-0.129,0-0.193,0.064-0.193,0.193v0.547c0,0.129,0.064,0.193,0.193,0.193h5.156c0.279,0,0.526,0.108,0.741,0.322
		c0.215,0.215,0.322,0.468,0.322,0.758s-0.107,0.543-0.322,0.758s-0.462,0.322-0.741,0.322h-5.156c-0.129,0-0.193,0.064-0.193,0.193
		v0.58c0,0.129,0.064,0.193,0.193,0.193h6.188c0.344,0,0.639,0.123,0.887,0.37c0.246,0.247,0.37,0.537,0.37,0.87
		c0,0.334-0.124,0.623-0.37,0.87c-0.248,0.247-0.543,0.37-0.887,0.37h-15.855c-0.344,0-0.64-0.123-0.887-0.37s-0.37-0.536-0.37-0.87
		c0-0.333,0.123-0.623,0.37-0.87s0.543-0.37,0.887-0.37h5.769c0.129,0,0.193-0.064,0.193-0.193v-0.58
		c0-0.129-0.064-0.193-0.193-0.193h-4.544c-0.279,0-0.526-0.107-0.741-0.322s-0.322-0.468-0.322-0.758s0.107-0.543,0.322-0.758
		c0.215-0.214,0.462-0.322,0.741-0.322h4.544c0.129,0,0.193-0.064,0.193-0.193v-0.547c0-0.129-0.064-0.193-0.193-0.193h-4.479
		c-0.301,0-0.554-0.102-0.758-0.307c-0.204-0.204-0.306-0.451-0.306-0.741s0.102-0.536,0.306-0.741
		c0.204-0.204,0.457-0.307,0.758-0.307h4.479c0.129,0,0.193-0.064,0.193-0.193V7.572c0-0.129-0.064-0.193-0.193-0.193h-6.026
		c-0.322,0-0.602-0.117-0.838-0.354s-0.354-0.521-0.354-0.854s0.118-0.617,0.354-0.854c0.236-0.236,0.516-0.354,0.838-0.354h6.026
		c0.129,0,0.193-0.064,0.193-0.193V4.061c0-0.129-0.064-0.193-0.193-0.193h-4.351c-0.301,0-0.554-0.102-0.758-0.307
		c-0.204-0.204-0.306-0.451-0.306-0.741s0.102-0.536,0.306-0.741c0.204-0.204,0.457-0.307,0.758-0.307h4.383
		c0.107,0,0.161-0.053,0.161-0.16c0-0.43,0.161-0.807,0.483-1.129S197.944,0,198.374,0h0.29c0.43,0,0.806,0.16,1.128,0.482
		s0.483,0.699,0.483,1.129c0,0.107,0.054,0.16,0.161,0.16H204.175z M191.188,30.035c-0.43,0.021-0.806-0.113-1.128-0.403
		s-0.505-0.649-0.548-1.079c-0.043-0.431,0.08-0.801,0.371-1.112c0.289-0.312,0.639-0.468,1.047-0.468
		c3.867-0.129,9.034-0.311,15.501-0.547c0.408-0.021,0.752,0.107,1.031,0.387s0.419,0.623,0.419,1.031
		c0,0.407-0.15,0.762-0.451,1.062s-0.655,0.463-1.063,0.484c-2.342,0.107-5.296,0.236-8.862,0.387
		C194.646,29.885,192.541,29.971,191.188,30.035z M191.091,20.432c0-0.623,0.22-1.155,0.661-1.596
		c0.439-0.439,0.972-0.66,1.595-0.66h10.925c0.623,0,1.154,0.221,1.596,0.66c0.439,0.44,0.66,0.973,0.66,1.596v3.061
		c0,0.624-0.221,1.156-0.66,1.596c-0.441,0.44-0.973,0.66-1.596,0.66h-10.925c-0.623,0-1.155-0.22-1.595-0.66
		c-0.441-0.439-0.661-0.972-0.661-1.596V20.432z M194.313,19.98c-0.129,0-0.193,0.064-0.193,0.193v0.74
		c0,0.129,0.064,0.193,0.193,0.193h2.643c0.129,0,0.193-0.064,0.193-0.193v-0.74c0-0.129-0.064-0.193-0.193-0.193H194.313z
		 M194.313,22.783c-0.129,0-0.193,0.064-0.193,0.193v0.742c0,0.129,0.064,0.193,0.193,0.193h2.643c0.129,0,0.193-0.064,0.193-0.193
		v-0.742c0-0.129-0.064-0.193-0.193-0.193H194.313z M200.469,3.867c-0.129,0-0.193,0.064-0.193,0.193V4.77
		c0,0.129,0.064,0.193,0.193,0.193h2.481c0.129,0,0.193-0.064,0.193-0.193V4.061c0-0.129-0.064-0.193-0.193-0.193H200.469z
		 M202.95,8.604c0.129,0,0.193-0.064,0.193-0.193V7.572c0-0.129-0.064-0.193-0.193-0.193h-2.481c-0.129,0-0.193,0.064-0.193,0.193
		V8.41c0,0.129,0.064,0.193,0.193,0.193H202.95z M203.176,21.107c0.129,0,0.193-0.064,0.193-0.193v-0.74
		c0-0.129-0.064-0.193-0.193-0.193h-2.578c-0.129,0-0.193,0.064-0.193,0.193v0.74c0,0.129,0.064,0.193,0.193,0.193H203.176z
		 M203.176,23.912c0.129,0,0.193-0.064,0.193-0.193v-0.742c0-0.129-0.064-0.193-0.193-0.193h-2.578
		c-0.129,0-0.193,0.064-0.193,0.193v0.742c0,0.129,0.064,0.193,0.193,0.193H203.176z M209.541,4.592
		c0.354-0.354,0.773-0.531,1.256-0.531c0.484,0,0.902,0.177,1.258,0.531c0.354,0.354,0.531,0.779,0.531,1.273v14.953
		c0,0.473-0.178,0.886-0.531,1.24c-0.355,0.354-0.773,0.531-1.258,0.531c-0.482,0-0.902-0.177-1.256-0.531
		c-0.355-0.354-0.532-0.768-0.532-1.24V5.865C209.009,5.371,209.186,4.946,209.541,4.592z M215.229,2.545
		c0-0.516,0.178-0.95,0.531-1.305c0.355-0.354,0.79-0.531,1.306-0.531s0.95,0.177,1.306,0.531c0.354,0.354,0.531,0.789,0.531,1.305
		v23.752c0,1.031-0.118,1.825-0.354,2.385c-0.236,0.559-0.655,0.977-1.257,1.256c-0.752,0.387-1.944,0.623-3.577,0.709
		c-0.559,0.021-1.059-0.15-1.499-0.516s-0.757-0.826-0.95-1.385c-0.129-0.431-0.07-0.838,0.177-1.225s0.607-0.569,1.08-0.549
		c0.602,0,1.257,0,1.966,0c0.494-0.021,0.741-0.258,0.741-0.709V2.545z"/>
</g>
</svg>
