<?xml version="1.0" encoding="utf-8"?>
<!-- Generator: Adobe Illustrator 21.1.0, SVG Export Plug-In . SVG Version: 6.00 Build 0)  -->
<svg version="1.1" id="圖層_1" xmlns="http://www.w3.org/2000/svg" xmlns:xlink="http://www.w3.org/1999/xlink" x="0px" y="0px"
	 viewBox="0 0 332.4 76.5" style="enable-background:new 0 0 332.4 76.5;" xml:space="preserve">
<g>
	<g>
		<path d="M117.8,39.6c0-2.8,1.8-4.3,4.1-4.3c2.4,0,4.1,1.5,4.1,4.3v19.2c0,5.1,3.2,9.1,8.5,9.1c5,0,8.4-4.2,8.4-9.1V39.6
			c0-2.8,1.8-4.3,4.1-4.3c2.4,0,4.1,1.5,4.1,4.3v19.6c0,9.2-7.6,16.2-16.7,16.2c-9.2,0-16.7-6.9-16.7-16.2
			C117.8,59.3,117.8,39.6,117.8,39.6z"/>
		<path d="M156.8,39.9c0-2.6,1.5-4.3,4.2-4.3h9.7c8.5,0,13.7,3.8,13.7,12.4c0,6-4.6,9.5-10.2,10.4l9.3,10c0.8,0.8,1.1,1.6,1.1,2.4
			c0,2.1-1.7,4.2-4.1,4.2c-1,0-2.3-0.4-3.2-1.4l-12.2-14.8h-0.1v11.9c0,2.7-1.8,4.3-4.1,4.3c-2.4,0-4.1-1.5-4.1-4.3V39.9z M165.1,53
			h5.7c3,0,5.1-1.8,5.1-4.9c0-3.1-2.1-4.8-5.1-4.8h-5.7V53z"/>
		<path d="M211.7,40.5c0,2.1-1.4,4.1-3.7,4.1c-2.3,0-4-1.6-7.3-1.6c-2.4,0-4.5,1.3-4.5,3.6c0,5.7,18.4,2,18.4,16.2
			c0,7.9-6.5,12.8-14.1,12.8c-4.2,0-13.4-1-13.4-6.2c0-2.1,1.4-3.9,3.7-3.9c2.6,0,5.7,2.1,9.2,2.1c3.6,0,5.6-2,5.6-4.7
			c0-6.5-18.4-2.6-18.4-15.3c0-7.7,6.3-12.5,13.6-12.5C204.1,35,211.7,36.2,211.7,40.5z"/>
	</g>
</g>
<g>
	<path d="M152.5,9c0.4,0,0.7,0.1,1,0.4c0.3,0.3,0.4,0.6,0.4,1v2.2c0,0.5-0.1,0.9-0.2,1.2c-0.1,0.3-0.4,0.5-0.8,0.6
		c-0.5,0.2-1.4,0.3-2.7,0.3c0,0,0,0,0,0s0,0,0,0c1.3,0.7,2.7,1.2,4.2,1.5c0.3,0.1,0.5,0.2,0.6,0.5s0.1,0.5-0.1,0.8
		c-0.2,0.3-0.5,0.6-0.9,0.7c-0.4,0.2-0.7,0.2-1.1,0c-2-0.7-3.8-1.6-5.4-2.9c0,0,0,0-0.1,0s0,0,0,0.1v2.6c0,0.4-0.1,0.7-0.4,1
		s-0.6,0.4-1,0.4c-0.4,0-0.7-0.1-1-0.4c-0.3-0.3-0.4-0.6-0.4-1v-2.7c0,0,0,0,0,0c0,0,0,0-0.1,0c-1.6,1.4-3.5,2.4-5.6,3.1
		c-0.4,0.1-0.7,0.1-1.1,0c-0.4-0.1-0.7-0.4-0.9-0.7c-0.2-0.2-0.2-0.5-0.1-0.8c0.1-0.3,0.3-0.5,0.5-0.5c1.3-0.3,2.5-0.8,3.7-1.4
		c1.5-0.7,2.6-1.6,3.5-2.5c0.1-0.1,0.1-0.1,0.1-0.2v-1.2c0-0.1,0-0.1-0.1-0.1h-3.8c-0.1,0-0.1,0-0.1,0.1v2.3c0,0.4-0.1,0.7-0.4,0.9
		c-0.3,0.3-0.6,0.4-0.9,0.4c-0.4,0-0.7-0.1-0.9-0.4c-0.3-0.3-0.4-0.6-0.4-0.9v-3.1c0-0.4,0.1-0.7,0.4-1c0.3-0.3,0.6-0.4,1-0.4h5.1
		c0.1,0,0.1,0,0.1-0.1V8.1c0-0.1,0-0.1-0.1-0.1h-6.8c-0.3,0-0.6-0.1-0.8-0.3c-0.2-0.2-0.3-0.5-0.3-0.8s0.1-0.5,0.3-0.8
		c0.2-0.2,0.5-0.3,0.8-0.3h3.2c0.1,0,0.1,0,0.1-0.1c-0.2-0.6-0.5-1.2-1-2c0-0.1-0.1-0.1-0.2-0.1h-0.1c-0.1,0-0.1,0-0.2,0.1
		c-0.3,0.4-0.5,0.7-0.8,1.1c-0.2,0.3-0.5,0.4-0.9,0.4c-0.4,0-0.7-0.1-1-0.3c-0.2-0.2-0.4-0.4-0.4-0.7c0-0.3,0.1-0.6,0.3-0.8
		c0.7-0.7,1.3-1.6,1.8-2.6c0.1-0.3,0.4-0.6,0.7-0.7c0.3-0.2,0.6-0.2,1-0.1l0.1,0c0.3,0.1,0.5,0.3,0.6,0.5c0.1,0.3,0.1,0.5,0,0.8
		c0,0.1,0,0.1,0.1,0.1h3c0.4,0,0.7,0.1,1,0.4c0.3,0.3,0.4,0.6,0.4,1v0.2c0,0,0,0,0,0c0,0,0,0,0.1,0c0.5-0.6,1-1.4,1.4-2.2
		c0.2-0.3,0.4-0.6,0.7-0.7c0.3-0.2,0.7-0.2,1-0.1l0.1,0c0.3,0.1,0.5,0.3,0.7,0.5c0.1,0.3,0.1,0.6,0,0.8c0,0.1,0,0.1,0.1,0.1h4.7
		c0.3,0,0.5,0.1,0.7,0.3c0.2,0.2,0.3,0.4,0.3,0.7s-0.1,0.5-0.3,0.7c-0.2,0.2-0.4,0.3-0.7,0.3H152c0,0,0,0-0.1,0c0,0,0,0.1,0,0.1
		c0.1,0.1,0.1,0.2,0.2,0.3c0.2,0.3,0.2,0.6,0,0.8s-0.3,0.5-0.6,0.6c-0.3,0.1-0.6,0.1-0.9-0.1c-0.3-0.1-0.5-0.4-0.7-0.7
		c-0.2-0.3-0.3-0.6-0.6-1c0-0.1-0.1-0.1-0.2-0.1h-0.8c-0.1,0-0.1,0-0.2,0.1c-0.2,0.3-0.5,0.7-0.8,1c-0.1,0.1-0.1,0.1-0.1,0.2v0.7
		c0,0.1,0,0.1,0.1,0.1h6.4c0.3,0,0.5,0.1,0.7,0.3c0.2,0.2,0.3,0.5,0.3,0.8s-0.1,0.5-0.3,0.8c-0.2,0.2-0.5,0.3-0.7,0.3h-6.4
		c-0.1,0-0.1,0-0.1,0.1v0.8c0,0.1,0,0.1,0.1,0.1L152.5,9L152.5,9z M141.6,5.8C141.6,5.8,141.6,5.8,141.6,5.8
		C141.6,5.8,141.6,5.8,141.6,5.8l3.1,0c0.1,0,0.1,0,0.1-0.1V5c0-0.1,0-0.2,0.1-0.2c0.1-0.1,0.1-0.1,0.2-0.1v0c0,0,0,0,0,0
		c-0.1-0.1-0.2-0.2-0.2-0.4c0-0.2,0-0.3,0.2-0.4c0.1-0.1,0.1-0.1,0.2-0.2c0,0,0,0,0,0c0,0,0,0,0,0h-2.4c0,0,0,0-0.1,0
		c0,0,0,0.1,0,0.1c0,0,0,0,0,0.1c0.2,0.3,0.2,0.7,0,1.1s-0.4,0.6-0.8,0.7L141.6,5.8z M147.5,11.1c-0.1,0-0.1,0-0.1,0.1v1.6
		c0,0.1,0,0.1,0.1,0.2c0.6,0.5,1.4,1.1,2.4,1.6c0,0,0.1,0,0.1,0c0,0,0,0,0-0.1c0-0.1-0.1-0.3-0.2-0.5c-0.1-0.3-0.1-0.6,0.1-0.9
		c0.2-0.3,0.4-0.4,0.7-0.4c0.1,0,0.2,0,0.3,0c0.2,0,0.3-0.1,0.3-0.3v-1.4c0-0.1,0-0.1-0.1-0.1L147.5,11.1L147.5,11.1z"/>
	<path d="M173.1,1.9c0.2-0.1,0.5,0,0.7,0.1l0.5,0.2c0.2,0.1,0.4,0.3,0.5,0.5c0.1,0.2,0.1,0.5,0,0.7c-0.7,1.6-1.7,3.1-2.9,4.5
		c-0.1,0.1,0,0.1,0,0.2c1,0.8,2.1,1.4,3.3,1.9c0.3,0.1,0.5,0.3,0.5,0.6c0.1,0.3,0,0.6-0.2,0.8c-0.2,0.3-0.4,0.6-0.6,0.9
		c-0.1,0.1-0.2,0.1-0.3,0.1c0,0,0,0,0,0v5.7c0,0.3-0.1,0.6-0.4,0.9c-0.2,0.2-0.5,0.4-0.9,0.4h-0.6c-0.2,0-0.4-0.1-0.5-0.2
		c-0.1-0.1-0.2-0.3-0.2-0.5c0,0,0-0.1-0.1-0.1h-4.2c0,0-0.1,0-0.1,0.1c0,0.2-0.1,0.4-0.2,0.5c-0.1,0.1-0.3,0.2-0.5,0.2h-0.5
		c-0.3,0-0.6-0.1-0.8-0.3c-0.2-0.2-0.3-0.5-0.3-0.8v-5.7c0,0,0,0,0,0c-0.1,0.1-0.3,0.1-0.4,0c-0.1,0-0.2-0.1-0.3-0.3
		c-0.1-0.2-0.2-0.4-0.3-0.5c0,0,0,0,0,0c0,0,0,0,0,0v1.9c0,0.4-0.1,0.7-0.4,1c-0.3,0.3-0.6,0.4-1,0.4H159c-0.1,0-0.1,0-0.1,0.1v0.7
		c0,0.2-0.1,0.5-0.3,0.6c-0.2,0.2-0.4,0.3-0.6,0.3c-0.3,0-0.5-0.1-0.6-0.3s-0.3-0.4-0.3-0.6V2.6c0-0.4,0.1-0.7,0.4-1
		c0.3-0.3,0.6-0.4,1-0.4h4.4c0.4,0,0.7,0.1,1,0.4c0.3,0.3,0.4,0.6,0.4,1V5c0,0,0,0,0,0c0,0,0,0,0.1,0c1.2-1.2,2.2-2.5,3-4.1
		c0.2-0.3,0.4-0.5,0.7-0.7c0.3-0.1,0.6-0.2,1-0.1c0.3,0.1,0.5,0.3,0.7,0.6c0.1,0.3,0.1,0.6,0,0.9c0,0.1-0.1,0.2-0.1,0.3
		c0,0,0,0.1,0,0.1c0,0,0,0,0.1,0h3c0,0,0,0,0,0H173.1C173.1,1.9,173.1,1.9,173.1,1.9z M159.8,3.4c0-0.1,0-0.1-0.1-0.1H159
		c-0.1,0-0.1,0-0.1,0.1v3.5c0,0.1,0,0.1,0.1,0.1h0.7c0.1,0,0.1,0,0.1-0.1V3.4z M159,9c-0.1,0-0.1,0-0.1,0.1v3.9c0,0.1,0,0.1,0.1,0.1
		h0.7c0.1,0,0.1,0,0.1-0.1V9.2c0-0.1,0-0.1-0.1-0.1H159z M162.3,7c0.1,0,0.1,0,0.1-0.1V3.4c0-0.1,0-0.1-0.1-0.1h-0.8
		c-0.1,0-0.1,0-0.1,0.1v3.5c0,0.1,0,0.1,0.1,0.1C161.5,7,162.3,7,162.3,7z M161.4,13.1c0,0.1,0,0.1,0.1,0.1h0.8c0.1,0,0.1,0,0.1-0.1
		V9.2c0-0.1,0-0.1-0.1-0.1h-0.8c-0.1,0-0.1,0-0.1,0.1C161.4,9.2,161.4,13.1,161.4,13.1z M164.4,6.6C164.4,6.6,164.4,6.6,164.4,6.6
		C164.3,6.6,164.3,6.7,164.4,6.6l-0.1,3.9c0,0,0,0,0,0.1c0,0,0.1,0,0.1,0c1.4-0.6,2.7-1.4,3.9-2.4c0.1-0.1,0.1-0.1,0-0.2
		c-0.5-0.6-1-1.3-1.4-1.9c0-0.1-0.1-0.1-0.1,0c-0.2,0.2-0.4,0.4-0.6,0.6C166,7,165.7,7.1,165.3,7S164.7,6.9,164.4,6.6z M167.4,11.6
		C167.4,11.6,167.4,11.7,167.4,11.6C167.4,11.7,167.4,11.7,167.4,11.6l5.4,0.1c0,0,0,0,0,0c0,0,0,0,0,0c-1-0.6-1.8-1.2-2.6-1.8
		c-0.1-0.1-0.1-0.1-0.2,0C169.2,10.5,168.4,11.1,167.4,11.6z M167.9,16.5c0,0.1,0,0.1,0.1,0.1h4.1c0.1,0,0.1,0,0.1-0.1V14
		c0-0.1,0-0.1-0.1-0.1H168c-0.1,0-0.1,0-0.1,0.1V16.5z M171.8,4.1C171.8,4.1,171.8,4.1,171.8,4.1c0-0.1,0-0.1-0.1-0.1h-3.3
		c-0.1,0-0.1,0-0.2,0.1c0,0.1-0.1,0.1,0,0.2c0.5,0.7,1,1.4,1.7,2.1c0.1,0.1,0.1,0.1,0.2,0C170.8,5.7,171.3,5,171.8,4.1z"/>
	<path d="M177.2,10.4c-0.3-0.3-0.4-0.6-0.4-1s0.1-0.7,0.4-1c0.3-0.3,0.6-0.4,1-0.4h16.6c0.4,0,0.7,0.1,1,0.4c0.3,0.3,0.4,0.6,0.4,1
		s-0.1,0.7-0.4,1c-0.3,0.3-0.6,0.4-1,0.4h-16.6C177.8,10.8,177.4,10.7,177.2,10.4z"/>
</g>
</svg>
