<svg version="1.1" xmlns="http://www.w3.org/2000/svg" xmlns:xlink="http://www.w3.org/1999/xlink" x="0px" y="0px"
	 width="526.09px" height="88.826px" viewBox="0 0 526.09 88.826" enable-background="new 0 0 526.09 88.826" xml:space="preserve">
<g>
	<path d="M253.584,17.041h-24.602c-0.367,0-0.49-0.184-0.367-0.551c0.856-2.692,1.591-5.324,2.203-7.895
		c0.428-1.591,0.198-3.06-0.688-4.406c-0.888-1.346-2.144-2.157-3.764-2.433c-1.622-0.275-3.106,0.046-4.452,0.964
		c-1.347,0.918-2.203,2.173-2.57,3.764c-2.51,10.71-6.09,19.584-10.74,26.621c-0.062,0.062-0.138,0.077-0.229,0.046
		c-0.092-0.03-0.138-0.076-0.138-0.138V14.287c0-1.774-0.629-3.289-1.882-4.544c-1.255-1.254-2.77-1.882-4.544-1.882h-22.857
		c-1.408,0-2.616,0.505-3.626,1.515s-1.515,2.219-1.515,3.626c0,1.408,0.505,2.616,1.515,3.626s2.218,1.515,3.626,1.515h17.992
		c0.367,0,0.551,0.184,0.551,0.551V31.82c0,0.367-0.184,0.551-0.551,0.551h-16.707c-1.775,0-3.291,0.628-4.544,1.882
		c-1.255,1.255-1.882,2.77-1.882,4.544v22.582c0,5.447,0.918,9.134,2.754,11.062s5.324,2.892,10.465,2.892h11.934
		c4.283,0,7.312-1.132,9.088-3.396c1.224-1.469,2.172-3.916,2.846-7.344c0.244-1.407-0.062-2.754-0.918-4.039
		c-0.857-1.285-2.02-2.264-3.488-2.938c-1.163-0.428-2.281-0.367-3.351,0.184c-1.071,0.551-1.668,1.438-1.79,2.662
		c-0.184,1.285-0.367,2.173-0.551,2.662c-0.429,1.163-1.377,1.744-2.846,1.744H188.5c-1.714,0-2.8-0.198-3.259-0.597
		c-0.459-0.397-0.688-1.423-0.688-3.075V43.02c0-0.367,0.184-0.551,0.551-0.551h18.266c2.583,0,3.859-1.451,4.167-2.018
		c0.116-0.215,0.166,1.25,1.167,2.167c1.479,1.354,2.746,1.779,4.398,1.595s2.906-0.918,3.764-2.203
		c0.244-0.367,0.489-0.734,0.734-1.102c0.061-0.122,0.138-0.184,0.229-0.184s0.168,0.062,0.229,0.184
		c2.325,8.262,5.049,15.33,8.17,21.205c0.184,0.367,0.152,0.704-0.092,1.01c-4.835,5.631-11.047,10.159-18.635,13.586
		c-1.347,0.612-2.219,1.622-2.616,3.029c-0.399,1.407-0.169,2.723,0.688,3.947c0.979,1.469,2.264,2.463,3.855,2.983
		c1.591,0.52,3.182,0.413,4.773-0.321c7.221-3.611,13.341-8.108,18.359-13.494c0.244-0.306,0.489-0.306,0.734,0
		c3.916,4.835,8.506,8.873,13.77,12.117c1.529,0.856,3.121,1.056,4.773,0.597s3.06-1.393,4.223-2.8
		c0.918-1.225,1.254-2.57,1.01-4.039c-0.245-1.469-1.041-2.57-2.387-3.305c-5.631-3.182-10.404-7.252-14.32-12.209
		c-0.245-0.306-0.275-0.611-0.092-0.918c5.141-8.751,8.904-20.134,11.291-34.148c0.061-0.367,0.275-0.551,0.643-0.551h1.377
		c1.407,0,2.631-0.52,3.672-1.561c1.04-1.04,1.561-2.279,1.561-3.718c0-1.438-0.521-2.677-1.561-3.718
		C256.215,17.562,254.991,17.041,253.584,17.041z M240.09,28.148c-1.469,9.303-3.642,17.014-6.518,23.133
		c-0.062,0.123-0.153,0.184-0.275,0.184c-0.123,0-0.215-0.061-0.275-0.184c-3.183-6.486-5.723-14.197-7.619-23.133
		c-0.062-0.367,0.092-0.551,0.459-0.551h13.77C239.998,27.598,240.15,27.781,240.09,28.148z M452.948,21.499
		c4.271,0,7.73-3.461,7.73-7.731s-3.46-7.731-7.73-7.731c-4.269,0-7.73,3.461-7.73,7.731S448.68,21.499,452.948,21.499z
		 M342.144,75.516c-4.896,0.245-10.526,0.429-16.891,0.551c-9.058,0.184-16.31,0.153-21.756-0.092
		c-9.792-0.489-16.523-3.427-20.195-8.812c-0.184-0.306-0.275-0.643-0.275-1.01V43.57c0-1.774-0.628-3.289-1.882-4.544
		c-1.255-1.254-2.77-1.882-4.544-1.882h-10.281c-1.408,0-2.616,0.505-3.626,1.515s-1.515,2.219-1.515,3.626
		c0,1.408,0.505,2.616,1.515,3.626s2.218,1.515,3.626,1.515h5.232c0.367,0,0.551,0.184,0.551,0.551v18.727
		c0,0.367-0.153,0.674-0.459,0.918c-2.143,1.652-4.438,3.274-6.885,4.865c-1.53,1.041-2.54,2.433-3.029,4.177
		c-0.49,1.744-0.367,3.442,0.367,5.095c0.734,1.469,1.912,2.387,3.534,2.754c1.621,0.367,3.044,0.03,4.269-1.01
		c2.387-2.081,4.957-4.375,7.711-6.885c0.306-0.244,0.581-0.214,0.826,0.092c2.938,3.305,6.303,5.722,10.098,7.252
		c4.039,1.591,8.996,2.509,14.871,2.754c11.076,0.489,22.826,0.489,35.25,0c1.713-0.062,3.228-0.658,4.544-1.79
		c1.315-1.133,2.218-2.556,2.708-4.269c0.428-1.285,0.244-2.479-0.551-3.58C344.561,75.975,343.489,75.455,342.144,75.516z
		 M273.013,25.932c5.57,0,10.084-4.516,10.084-10.084c0-5.569-4.514-10.084-10.084-10.084c-5.567,0-10.084,4.515-10.084,10.084
		C262.929,21.416,267.445,25.932,273.013,25.932z M452.948,43.395c4.271,0,7.73-3.461,7.73-7.731s-3.46-7.731-7.73-7.731
		c-4.269,0-7.73,3.461-7.73,7.731S448.68,43.395,452.948,43.395z M341.776,28.607h-19.186c-0.367,0-0.551-0.184-0.551-0.551v-6.885
		c0-0.367,0.184-0.551,0.551-0.551h14.329c1.346,0,2.479-0.459,3.396-1.377s1.377-2.034,1.377-3.351
		c0-1.315-0.459-2.433-1.377-3.351s-2.051-1.377-3.396-1.377h-14.329c-0.367,0-0.551-0.184-0.551-0.551V6.209
		c0-1.529-0.536-2.83-1.606-3.901c-1.071-1.07-2.372-1.606-3.901-1.606c-1.53,0-2.831,0.536-3.901,1.606
		c-1.071,1.071-1.606,2.372-1.606,3.901v4.406c0,0.367-0.184,0.551-0.551,0.551h-5.6c-0.123,0-0.215-0.061-0.275-0.184
		c-0.062-0.122-0.062-0.244,0-0.367c0.244-0.551,0.489-1.102,0.734-1.652c0.551-1.285,0.489-2.555-0.184-3.81
		c-0.674-1.254-1.714-2.065-3.121-2.433c-1.408-0.306-2.785-0.106-4.131,0.597c-1.347,0.704-2.295,1.79-2.846,3.259
		c-1.959,4.651-4.314,8.69-7.068,12.117c-1.041,1.225-1.454,2.616-1.239,4.177c0.214,1.561,0.964,2.77,2.249,3.626
		c0.856,0.551,1.805,1.163,2.846,1.836c0.061,0.062,0.076,0.123,0.046,0.184c-0.031,0.062-0.077,0.092-0.138,0.092h-1.193
		c-1.225,0-2.295,0.459-3.213,1.377s-1.377,2.005-1.377,3.259c0,1.255,0.459,2.341,1.377,3.259s1.988,1.377,3.213,1.377h51.223
		c1.224,0,2.295-0.459,3.213-1.377s1.377-2.004,1.377-3.259c0-1.254-0.459-2.341-1.377-3.259S343,28.607,341.776,28.607z
		 M311.024,28.057c0,0.367-0.184,0.551-0.551,0.551h-16.982c-0.062,0-0.123-0.046-0.184-0.138c-0.062-0.092-0.062-0.198,0-0.321
		c1.836-1.896,3.672-4.253,5.508-7.068c0.244-0.306,0.551-0.459,0.918-0.459h10.74c0.367,0,0.551,0.184,0.551,0.551V28.057z
		 M466.972,56.743c-0.275-1.561-1.025-2.86-2.249-3.901c-0.979-0.918-2.143-1.254-3.488-1.01c-1.347,0.245-2.356,0.949-3.029,2.111
		c-4.284,7.711-8.69,14.871-13.219,21.48c-0.918,1.408-1.255,2.923-1.01,4.544c0.244,1.621,1.01,2.922,2.295,3.901
		c1.224,0.979,2.631,1.331,4.223,1.056c1.591-0.275,2.784-1.087,3.58-2.433c4.161-6.67,8.23-13.77,12.209-21.297
		C467.018,59.788,467.247,58.304,466.972,56.743z M524.987,70.1c-0.888-1.285-2.065-2.264-3.534-2.938
		c-1.102-0.489-2.173-0.443-3.213,0.138c-1.041,0.582-1.592,1.454-1.652,2.616c-0.123,2.57-0.307,4.346-0.551,5.324
		c-0.307,1.652-0.888,2.479-1.744,2.479h-3.947c-0.796,0-1.301-0.198-1.515-0.597c-0.215-0.397-0.321-1.361-0.321-2.892V45.498
		c0-0.367,0.184-0.551,0.551-0.551h5.691c1.774,0,3.289-0.627,4.544-1.882c1.254-1.254,1.882-2.769,1.882-4.544V11.166
		c0-1.774-0.628-3.289-1.882-4.544c-1.255-1.254-2.77-1.882-4.544-1.882h-36.994c-1.775,0-3.29,0.628-4.544,1.882
		c-1.255,1.255-1.882,2.77-1.882,4.544v27.355c0,1.775,0.627,3.29,1.882,4.544c1.254,1.255,2.769,1.882,4.544,1.882h0.826
		c0.367,0,0.551,0.184,0.551,0.551c-0.123,3.183-0.275,5.814-0.459,7.895c-0.123,2.143-0.398,4.483-0.826,7.022
		c-0.429,2.54-1.041,4.651-1.836,6.334c-0.796,1.684-1.852,3.382-3.167,5.095c-1.316,1.714-2.953,3.213-4.911,4.498
		c-0.551,0.307-1.133,0.643-1.744,1.01c-1.163,0.674-1.882,1.668-2.157,2.983s-0.016,2.524,0.78,3.626
		c0.979,1.346,2.188,2.264,3.626,2.754c1.438,0.489,2.86,0.367,4.269-0.367c1.652-0.979,3.151-2.02,4.498-3.121
		c2.631-2.203,4.728-4.513,6.288-6.931c1.561-2.417,2.814-5.385,3.764-8.904c0.948-3.519,1.606-6.931,1.974-10.235
		c0.367-3.182,0.643-7.068,0.826-11.658c0-0.367,0.184-0.551,0.551-0.551h6.15c0.367,0,0.551,0.184,0.551,0.551v28.916
		c0,5.08,0.749,8.552,2.249,10.419c1.499,1.866,4.452,2.8,8.858,2.8h6.977c3.855,0,6.548-1.316,8.078-3.947
		c1.162-1.897,2.02-5.049,2.57-9.455C526.227,72.762,525.874,71.385,524.987,70.1z M482.715,34.666
		c-0.367,0-0.551-0.184-0.551-0.551V15.572c0-0.367,0.184-0.551,0.551-0.551h26.346c0.367,0,0.551,0.184,0.551,0.551v18.543
		c0,0.367-0.184,0.551-0.551,0.551H482.715z M434.156,70.1c-1.041-0.428-2.051-0.382-3.029,0.138
		c-0.979,0.521-1.53,1.331-1.652,2.433c-0.062,1.775-0.184,3.061-0.367,3.855c-0.307,1.285-0.888,1.928-1.744,1.928h-3.488
		c-0.796,0-1.301-0.168-1.515-0.505c-0.215-0.336-0.321-1.178-0.321-2.524V57.34c0-0.367,0.184-0.551,0.551-0.551h4.865
		c1.774,0,3.289-0.627,4.544-1.882c1.254-1.254,1.882-2.769,1.882-4.544V10.707c0-1.774-0.628-3.289-1.882-4.544
		c-1.255-1.254-2.77-1.882-4.544-1.882h-33.23c-1.775,0-3.29,0.628-4.544,1.882c-1.255,1.255-1.882,2.77-1.882,4.544v39.656
		c0,1.775,0.611,3.29,1.836,4.544c1.224,1.255,2.723,1.882,4.498,1.882c0.428,0,0.611,0.184,0.551,0.551
		c-0.307,2.877-0.766,5.294-1.377,7.252c-0.674,2.081-1.76,4.162-3.259,6.242c-1.5,2.081-3.626,3.855-6.38,5.324
		c-1.469,0.734-3.152,1.438-5.049,2.111c-1.225,0.367-2.02,1.179-2.387,2.433s-0.184,2.433,0.551,3.534
		c0.918,1.407,2.126,2.433,3.626,3.075c1.499,0.643,2.952,0.657,4.36,0.046c2.692-1.041,5.049-2.203,7.068-3.488
		c3.365-2.081,5.981-4.559,7.849-7.436c1.866-2.876,3.228-5.813,4.085-8.812c0.795-2.876,1.407-6.303,1.836-10.281
		c0.061-0.367,0.275-0.551,0.643-0.551h4.406c0.428,0,0.643,0.184,0.643,0.551v18.176c0,4.773,0.719,8.047,2.157,9.822
		c1.438,1.774,4.269,2.662,8.491,2.662h6.701c3.549,0,6.059-1.133,7.527-3.396c1.04-1.592,1.805-4.192,2.295-7.803
		c0.184-1.407-0.138-2.723-0.964-3.947C436.681,71.63,435.563,70.712,434.156,70.1z M398.264,13.92c0-0.367,0.184-0.551,0.551-0.551
		h23.5c0.428,0,0.643,0.184,0.643,0.551v4.682c0,0.367-0.215,0.551-0.643,0.551h-23.5c-0.367,0-0.551-0.184-0.551-0.551V13.92z
		 M398.264,28.24c0-0.367,0.184-0.551,0.551-0.551h23.5c0.428,0,0.643,0.184,0.643,0.551v4.59c0,0.367-0.215,0.551-0.643,0.551
		h-23.5c-0.367,0-0.551-0.184-0.551-0.551V28.24z M398.814,47.701c-0.367,0-0.551-0.184-0.551-0.551v-4.773
		c0-0.367,0.184-0.551,0.551-0.551h23.5c0.428,0,0.643,0.184,0.643,0.551v4.773c0,0.367-0.215,0.551-0.643,0.551H398.814z
		 M334.616,70.283c1.774,0,3.289-0.627,4.544-1.882c1.254-1.254,1.882-2.769,1.882-4.544v-14.32c0-1.774-0.628-3.289-1.882-4.544
		c-1.255-1.254-2.77-1.882-4.544-1.882h-34.607c-1.775,0-3.29,0.628-4.544,1.882c-1.255,1.255-1.882,2.77-1.882,4.544v14.32
		c0,1.775,0.627,3.29,1.882,4.544c1.254,1.255,2.769,1.882,4.544,1.882H334.616z M304.507,52.475c0-0.367,0.184-0.551,0.551-0.551
		h23.867c0.367,0,0.551,0.184,0.551,0.551v8.445c0,0.367-0.184,0.551-0.551,0.551h-23.867c-0.367,0-0.551-0.184-0.551-0.551V52.475z
		 M384.586,64.179c0.734-1.193,1.01-2.463,0.826-3.81c-0.245-1.346-0.903-2.371-1.974-3.075c-1.071-0.703-2.249-0.902-3.534-0.597
		l-5.967,1.561c-0.367,0.123-0.551,0-0.551-0.367V43.02c0-0.367,0.184-0.551,0.551-0.551h4.406c1.407,0,2.616-0.505,3.626-1.515
		s1.515-2.203,1.515-3.58s-0.505-2.57-1.515-3.58s-2.219-1.515-3.626-1.515h-4.406c-0.367,0-0.551-0.184-0.551-0.551V16.49
		c0-0.367,0.184-0.551,0.551-0.551h5.324c1.469,0,2.708-0.505,3.718-1.515s1.515-2.233,1.515-3.672c0-1.438-0.505-2.662-1.515-3.672
		s-2.249-1.515-3.718-1.515h-22.766c-1.408,0-2.616,0.505-3.626,1.515s-1.515,2.234-1.515,3.672c0,1.438,0.505,2.662,1.515,3.672
		s2.218,1.515,3.626,1.515h5.508c0.428,0,0.643,0.184,0.643,0.551v15.238c0,0.367-0.215,0.551-0.643,0.551h-4.865
		c-1.347,0-2.524,0.505-3.534,1.515s-1.515,2.219-1.515,3.626c0,1.347,0.489,2.524,1.469,3.534c0.979,1.01,2.172,1.515,3.58,1.515
		h4.865c0.428,0,0.643,0.184,0.643,0.551v17.717c0,0.367-0.215,0.612-0.643,0.734c-3.121,0.796-5.691,1.438-7.711,1.928
		c-1.469,0.367-2.57,1.193-3.305,2.479s-0.903,2.647-0.505,4.085c0.397,1.438,1.239,2.51,2.524,3.213
		c1.285,0.704,2.631,0.872,4.039,0.505c9.363-2.692,17.502-5.079,24.418-7.16C382.811,66.152,383.852,65.372,384.586,64.179z"/>
	<g>
		<path d="M74,38.062c0.367-1.346,1.147-2.417,2.341-3.213c1.193-0.795,2.493-1.07,3.901-0.826c1.346,0.245,2.401,0.949,3.167,2.111
			c0.765,1.163,0.933,2.418,0.505,3.764c-2.938,10.648-6.671,19.614-11.199,26.896c-0.184,0.307-0.245,0.643-0.184,1.01
			c1.529,6.12,3.151,9.18,4.865,9.18c1.102,0,1.836-3.029,2.203-9.088c0.061-0.918,0.52-1.545,1.377-1.882
			c0.856-0.336,1.652-0.229,2.387,0.321c2.814,2.203,4.008,4.651,3.58,7.344c-0.674,4.529-1.622,7.771-2.846,9.73
			c-1.652,2.631-4.314,3.947-7.986,3.947c-4.223,0-7.803-3.305-10.74-9.914c-0.123-0.367-0.337-0.397-0.643-0.092
			c-2.448,2.815-5.264,5.477-8.445,7.986c-1.225,0.918-2.586,1.285-4.085,1.102c-1.5-0.184-2.8-0.826-3.901-1.928
			c-0.918-0.857-1.347-1.943-1.285-3.259c0.061-1.315,0.611-2.341,1.652-3.075c4.834-3.488,9.057-7.649,12.668-12.484
			c0.244-0.306,0.306-0.643,0.184-1.01c-2.081-9.975-3.488-23.408-4.223-40.299c0-0.367-0.215-0.551-0.643-0.551H39.484
			c-0.367,0-0.551,0.184-0.551,0.551v8.996c0,0.367,0.184,0.551,0.551,0.551h9.73c1.713,0,3.197,0.628,4.452,1.882
			c1.254,1.255,1.851,2.77,1.79,4.544c-0.123,9.73-0.337,16.646-0.643,20.746c-0.307,4.406-0.888,7.222-1.744,8.445
			c-1.285,1.836-3.029,2.938-5.232,3.305c-0.49,0.123-1.041,0.215-1.652,0.275c-1.775,0.184-3.351-0.336-4.728-1.561
			c-1.377-1.224-2.372-2.784-2.983-4.682c-0.245-0.673-0.49-1.315-0.734-1.928c-0.062-0.122-0.138-0.168-0.229-0.138
			c-0.092,0.031-0.138,0.077-0.138,0.138c-1.347,7.895-3.764,14.412-7.252,19.553c-0.734,1.162-1.836,1.774-3.305,1.836
			c-1.469,0.061-2.724-0.367-3.764-1.285c-1.102-0.979-1.744-2.173-1.928-3.58s0.092-2.692,0.826-3.855
			c1.896-2.938,3.305-6.211,4.223-9.822c0.061-0.122,0.046-0.214-0.046-0.275c-0.092-0.061-0.199-0.092-0.321-0.092
			c-2.999,1.225-7.1,2.938-12.301,5.141c-2.265,0.918-4.254,1.714-5.967,2.387c-1.469,0.612-2.923,0.582-4.36-0.092
			C1.74,74.2,0.776,73.099,0.287,71.568c-0.49-1.529-0.353-3.014,0.413-4.452c0.765-1.438,1.912-2.401,3.442-2.892
			c1.04-0.306,2.233-0.673,3.58-1.102c0.367-0.122,0.551-0.367,0.551-0.734V33.84c0-0.367-0.215-0.551-0.643-0.551H5.244
			c-1.408,0-2.616-0.505-3.626-1.515s-1.515-2.233-1.515-3.672c0-1.438,0.505-2.662,1.515-3.672s2.218-1.515,3.626-1.515h2.387
			c0.428,0,0.643-0.184,0.643-0.551V7.035c0-1.407,0.505-2.616,1.515-3.626s2.233-1.515,3.672-1.515
			c1.438,0,2.662,0.505,3.672,1.515s1.515,2.219,1.515,3.626v15.33c0,0.367,0.184,0.551,0.551,0.551h1.561
			c1.469,0,2.708,0.505,3.718,1.515s1.515,2.234,1.515,3.672c0,1.438-0.505,2.662-1.515,3.672s-2.249,1.515-3.718,1.515h-1.561
			c-0.367,0-0.551,0.184-0.551,0.551v24.877c0,0.367,0.184,0.49,0.551,0.367l0.643-0.275c1.591-0.551,3.105-0.397,4.544,0.459
			c1.438,0.857,2.31,2.111,2.616,3.764c0.061,0,0.152,0,0.275,0c0.918-4.773,1.377-10.832,1.377-18.176V20.07
			c0-1.774,0.627-3.289,1.882-4.544c1.254-1.254,2.769-1.882,4.544-1.882h21.297c0.428,0,0.643-0.184,0.643-0.551
			c-0.062-2.754-0.123-5.171-0.184-7.252c0-1.469,0.505-2.708,1.515-3.718s2.233-1.515,3.672-1.515c1.438,0,2.662,0.505,3.672,1.515
			s1.515,2.249,1.515,3.718c0,2.448,0.03,4.865,0.092,7.252c0,0.367,0.184,0.551,0.551,0.551H74c0.122,0,4.894-0.042,6.609-0.042
			c1.516,0,2.57,0.501,3.488,1.419s1.377,2.02,1.377,3.305v0.459c0,1.347-0.505,2.524-1.515,3.534s-2.219,1.515-3.626,1.515H68.033
			c-0.367,0-0.551,0.184-0.551,0.551c0.489,9.792,1.193,18.482,2.111,26.07c0,0.062,0.046,0.092,0.138,0.092s0.138-0.03,0.138-0.092
			C71.398,46.906,72.775,42.775,74,38.062z M46.369,43.479c0-0.367-0.215-0.551-0.643-0.551h-6.242
			c-0.367,0-0.551,0.184-0.551,0.551v1.377c0,7.038-0.429,13.28-1.285,18.727c-0.062,0.367,0.092,0.582,0.459,0.643
			c1.407,0.123,2.938,0.184,4.59,0.184c1.04,0,1.836-0.367,2.387-1.102C45.695,62.145,46.124,55.535,46.369,43.479z"/>
		<path d="M167.937,14.517c1.07,1.071,1.606,2.356,1.606,3.855c0,1.5-0.536,2.785-1.606,3.855c-1.071,1.071-2.341,1.606-3.81,1.606
			h-29.393c-0.367,0-0.551,0.184-0.551,0.551v8.629c0,0.367,0.184,0.551,0.551,0.551h22.674c1.774,0,3.289,0.628,4.544,1.882
			c1.254,1.255,1.882,2.77,1.882,4.544v25.52c0,2.815-0.383,5.049-1.147,6.701c-0.766,1.652-2.065,2.877-3.901,3.672
			c-2.265,0.918-5.814,1.469-10.648,1.652c-1.652,0.062-3.152-0.428-4.498-1.469c-1.347-1.04-2.326-2.417-2.938-4.131
			c-0.49-1.224-0.367-2.401,0.367-3.534c0.734-1.132,1.774-1.667,3.121-1.606c1.774,0,3.764,0,5.967,0
			c1.346-0.061,2.02-0.551,2.02-1.469V45.039c0-0.367-0.184-0.551-0.551-0.551h-16.891c-0.367,0-0.551,0.184-0.551,0.551v38.004
			c0,1.591-0.566,2.952-1.698,4.085c-1.133,1.132-2.494,1.698-4.085,1.698c-1.592,0-2.953-0.566-4.085-1.698
			c-1.133-1.133-1.698-2.494-1.698-4.085V45.039c0-0.367-0.184-0.551-0.551-0.551h-15.422c-0.367,0-0.551,0.184-0.551,0.551v27.896
			c0,1.531-0.551,2.846-1.652,3.947s-2.418,1.652-3.947,1.652c-1.53,0-2.846-0.551-3.947-1.652s-1.652-2.416-1.652-3.947V39.99
			c0-1.774,0.627-3.289,1.882-4.544c1.254-1.254,2.769-1.882,4.544-1.882h20.746c0.367,0,0.551-0.184,0.551-0.551v-8.629
			c0-0.367-0.184-0.551-0.551-0.551H94.593c-1.53,0-2.831-0.535-3.901-1.606c-1.071-1.07-1.606-2.355-1.606-3.855
			c0-1.499,0.535-2.784,1.606-3.855c1.07-1.07,2.371-1.606,3.901-1.606h27.382c0.367,0,0.551-0.184,0.551-0.551V6.668
			c0-1.652,0.581-3.06,1.744-4.223c1.162-1.162,2.57-1.744,4.223-1.744s3.06,0.582,4.223,1.744c1.162,1.163,1.744,2.57,1.744,4.223
			v5.691c0,0.367,0.184,0.551,0.551,0.551h29.117C165.596,12.91,166.865,13.446,167.937,14.517z"/>
	</g>
	<circle cx="77.025" cy="5.923" r="5.923"/>
</g>
</svg>
