<svg version="1.2" baseProfile="tiny"
	 xmlns="http://www.w3.org/2000/svg" xmlns:xlink="http://www.w3.org/1999/xlink" x="0px" y="0px" width="186.553px"
	 height="30.84px" viewBox="0 0 186.553 30.84" xml:space="preserve">
<g>
	<path d="M1.965,27.908c-0.537,0-0.998-0.193-1.385-0.58S0,26.479,0,25.941s0.193-0.998,0.58-1.385s0.848-0.58,1.385-0.58h2.611
		c0.129,0,0.193-0.064,0.193-0.193V9.281c0-0.129-0.064-0.193-0.193-0.193H2.287c-0.408,0-0.762-0.15-1.062-0.451
		S0.773,7.98,0.773,7.572c0-0.43,0.139-0.816,0.418-1.16s0.635-0.568,1.064-0.676c0.816-0.215,1.568-0.494,2.256-0.838
		c1.246-0.58,2.352-0.871,3.318-0.871c0.494,0,0.914,0.172,1.258,0.516s0.516,0.764,0.516,1.258v17.982
		c0,0.129,0.064,0.193,0.193,0.193h1.934c0.537,0,0.998,0.193,1.385,0.58s0.58,0.848,0.58,1.385s-0.193,1-0.58,1.387
		s-0.848,0.58-1.385,0.58H1.965z"/>
	<path d="M16.607,27.908c-0.387,0-0.715-0.135-0.984-0.402c-0.268-0.27-0.402-0.598-0.402-0.984c0-0.924,0.312-1.729,0.936-2.416
		c2.449-2.814,4.275-5.156,5.479-7.025c1.354-2.105,2.029-4.115,2.029-6.027c0-1.16-0.215-2.057-0.645-2.689
		c-0.43-0.635-1.041-0.951-1.836-0.951c-0.709,0-1.43,0.301-2.16,0.902c-0.408,0.344-0.865,0.525-1.369,0.547
		c-0.506,0.021-0.951-0.139-1.338-0.482c-0.387-0.387-0.58-0.844-0.58-1.369c0-0.527,0.193-0.973,0.58-1.338
		c0.602-0.516,1.203-0.945,1.805-1.289c1.074-0.559,2.311-0.838,3.707-0.838c1.955,0,3.527,0.666,4.721,1.998
		c1.191,1.332,1.789,3.082,1.789,5.252c0,1.912-0.57,3.922-1.709,6.027c-1.117,2.062-2.717,4.436-4.801,7.121
		c-0.021,0.021-0.021,0.055,0,0.098s0.043,0.053,0.064,0.031c1.418-0.129,2.523-0.193,3.318-0.193h2.062
		c0.537,0,1.004,0.199,1.402,0.598c0.396,0.396,0.596,0.869,0.596,1.418c0,0.547-0.199,1.02-0.596,1.418
		c-0.398,0.396-0.865,0.596-1.402,0.596H16.607z"/>
	<path d="M53.113,26.908c0,0.129,0.064,0.193,0.193,0.193h5.93c0.451,0,0.826,0.15,1.127,0.451s0.451,0.672,0.451,1.113
		c0,0.439-0.15,0.811-0.451,1.111s-0.676,0.451-1.127,0.451H42.51c-0.43,0-0.795-0.15-1.096-0.451s-0.451-0.672-0.451-1.111
		c0-0.441,0.15-0.812,0.451-1.113s0.666-0.451,1.096-0.451h6.607c0.15,0,0.225-0.064,0.225-0.193v-1.062
		c0-0.129-0.074-0.193-0.225-0.193h-4.834c-0.408,0-0.758-0.145-1.047-0.436c-0.291-0.289-0.436-0.645-0.436-1.062
		c0-0.42,0.145-0.773,0.436-1.064c0.289-0.289,0.639-0.436,1.047-0.436h4.834c0.15,0,0.225-0.064,0.225-0.193v-1.062
		c0-0.129-0.074-0.193-0.225-0.193h-3.836c-0.623,0-1.154-0.221-1.594-0.66c-0.441-0.441-0.662-0.973-0.662-1.596v-0.451
		c0-0.021-0.016-0.037-0.047-0.049c-0.033-0.01-0.061-0.006-0.082,0.016L42.221,19.4c-0.301,0.408-0.715,0.596-1.24,0.564
		c-0.527-0.033-0.93-0.275-1.209-0.727c-0.236-0.365-0.506-0.783-0.807-1.256c0-0.021-0.016-0.027-0.047-0.016
		c-0.033,0.01-0.049,0.025-0.049,0.047v10.764c0,0.516-0.189,0.961-0.564,1.338c-0.377,0.375-0.828,0.564-1.354,0.564
		c-0.527,0-0.973-0.189-1.338-0.564c-0.365-0.377-0.547-0.822-0.547-1.338v-9.539c0-0.021-0.012-0.031-0.033-0.031
		s-0.043,0.01-0.064,0.031c-0.752,1.74-1.492,3.223-2.223,4.447c-0.258,0.387-0.613,0.559-1.064,0.516s-0.783-0.268-0.998-0.676
		c-0.279-0.559-0.398-1.15-0.355-1.773s0.248-1.203,0.613-1.74c1.311-1.891,2.492-4.199,3.545-6.928
		c0.043-0.129-0.012-0.193-0.162-0.193H32.23c-0.516,0-0.951-0.178-1.305-0.531c-0.355-0.355-0.533-0.791-0.533-1.307
		s0.178-0.949,0.533-1.305c0.354-0.354,0.789-0.531,1.305-0.531h2.609c0.15,0,0.227-0.064,0.227-0.193V5.574
		c0-0.129-0.064-0.182-0.193-0.16c-0.816,0.15-1.58,0.279-2.289,0.387c-0.43,0.064-0.832-0.027-1.207-0.273
		C31,5.279,30.727,4.93,30.555,4.479c-0.129-0.365-0.104-0.725,0.08-1.078c0.182-0.355,0.467-0.564,0.854-0.629
		c2.557-0.451,4.77-1,6.639-1.645c0.623-0.236,1.268-0.279,1.934-0.129s1.225,0.473,1.676,0.967l1,1.129
		c0.021,0.021,0.037,0.027,0.049,0.016c0.01-0.01,0.016-0.027,0.016-0.049c-0.107-0.322-0.064-0.627,0.129-0.918
		c0.193-0.289,0.461-0.436,0.805-0.436c4.963-0.193,9.088-0.568,12.375-1.127c0.559-0.086,1.102-0.033,1.629,0.16
		c0.525,0.193,0.961,0.516,1.305,0.967c0.258,0.322,0.316,0.678,0.178,1.064c-0.141,0.387-0.414,0.611-0.822,0.676
		c-1.504,0.236-3.201,0.451-5.092,0.645c-0.129,0.021-0.193,0.098-0.193,0.227V5.51c0,0.129,0.064,0.193,0.193,0.193h5.381
		c0.408,0,0.764,0.15,1.064,0.451s0.451,0.656,0.451,1.064s-0.15,0.762-0.451,1.062s-0.656,0.451-1.064,0.451h-5.381
		c-0.129,0-0.193,0.064-0.193,0.193v0.967c0,0.129,0.064,0.193,0.193,0.193h4.156c0.623,0,1.154,0.221,1.596,0.662
		c0.439,0.439,0.66,0.971,0.66,1.594v6.607c0,0.623-0.221,1.154-0.66,1.596c-0.441,0.439-0.973,0.66-1.596,0.66h-4.156
		c-0.129,0-0.193,0.064-0.193,0.193v1.062c0,0.129,0.064,0.193,0.193,0.193h4.77c0.43,0,0.789,0.146,1.08,0.436
		c0.289,0.291,0.434,0.645,0.434,1.064c0,0.418-0.145,0.773-0.434,1.062c-0.291,0.291-0.65,0.436-1.08,0.436h-4.77
		c-0.129,0-0.193,0.064-0.193,0.193V26.908z M39.062,12.891c-0.129,0-0.193,0.064-0.193,0.193v0.482c0,0.129,0.053,0.236,0.16,0.322
		c0.902,0.752,2.191,2.062,3.867,3.932c0.021,0.043,0.049,0.055,0.082,0.033c0.031-0.021,0.047-0.043,0.047-0.064v-5.447
		c0-0.623,0.221-1.154,0.662-1.594c0.439-0.441,0.971-0.662,1.594-0.662h3.836c0.15,0,0.225-0.064,0.225-0.193V8.926
		c0-0.129-0.074-0.193-0.225-0.193h-5.672c-0.408,0-0.764-0.15-1.064-0.451S41.93,7.627,41.93,7.219s0.15-0.764,0.451-1.064
		s0.656-0.451,1.064-0.451h5.672c0.15,0,0.225-0.064,0.225-0.193V4.607c0-0.129-0.074-0.193-0.225-0.193
		c-1.418,0.086-2.977,0.15-4.674,0.193c-0.365,0.021-0.691-0.086-0.982-0.322c-0.289-0.236-0.479-0.537-0.564-0.902
		c-0.021-0.086-0.074-0.117-0.16-0.096c-1.225,0.494-2.449,0.891-3.674,1.191c-0.129,0.043-0.193,0.129-0.193,0.258v4.287
		c0,0.129,0.064,0.193,0.193,0.193h1.578c0.516,0,0.951,0.178,1.307,0.531c0.354,0.355,0.531,0.789,0.531,1.305
		s-0.178,0.951-0.531,1.307c-0.355,0.354-0.791,0.531-1.307,0.531H39.062z M49.117,14.469c0.15,0,0.225-0.064,0.225-0.193V13.02
		c0-0.129-0.074-0.193-0.225-0.193h-2.482c-0.129,0-0.193,0.064-0.193,0.193v1.256c0,0.129,0.064,0.193,0.193,0.193H49.117z
		 M46.441,18.305c0,0.129,0.064,0.193,0.193,0.193h2.482c0.15,0,0.225-0.064,0.225-0.193v-1.289c0-0.129-0.074-0.193-0.225-0.193
		h-2.482c-0.129,0-0.193,0.064-0.193,0.193V18.305z M56.174,13.02c0-0.129-0.074-0.193-0.225-0.193h-2.643
		c-0.129,0-0.193,0.064-0.193,0.193v1.256c0,0.129,0.064,0.193,0.193,0.193h2.643c0.15,0,0.225-0.064,0.225-0.193V13.02z
		 M55.949,18.498c0.15,0,0.225-0.064,0.225-0.193v-1.289c0-0.129-0.074-0.193-0.225-0.193h-2.643c-0.129,0-0.193,0.064-0.193,0.193
		v1.289c0,0.129,0.064,0.193,0.193,0.193H55.949z"/>
	<path d="M79.275,26.135c0,0.129,0.064,0.193,0.193,0.193h10.537c0.494,0,0.914,0.172,1.258,0.516s0.516,0.764,0.516,1.258
		s-0.172,0.912-0.516,1.256s-0.764,0.516-1.258,0.516h-25.33c-0.494,0-0.912-0.172-1.256-0.516s-0.516-0.762-0.516-1.256
		s0.172-0.914,0.516-1.258s0.762-0.516,1.256-0.516h10.377c0.129,0,0.193-0.064,0.193-0.193v-4.543c0-0.129-0.064-0.193-0.193-0.193
		h-6.928c-0.473,0-0.881-0.172-1.225-0.516s-0.516-0.752-0.516-1.225s0.172-0.881,0.516-1.225s0.752-0.516,1.225-0.516h19.014
		c0.473,0,0.881,0.172,1.225,0.516s0.516,0.752,0.516,1.225s-0.172,0.881-0.516,1.225s-0.752,0.516-1.225,0.516h-7.67
		c-0.129,0-0.193,0.064-0.193,0.193V26.135z M78.953,6.703c0-0.129-0.064-0.193-0.193-0.193h-2.805
		c-0.129,0-0.203,0.064-0.225,0.193c-0.15,1.396-0.398,2.588-0.742,3.576c-0.344,1.031-0.902,2.025-1.676,2.982
		c-0.773,0.955-1.848,1.766-3.223,2.432c-0.902,0.451-1.955,0.85-3.158,1.193c-0.537,0.15-1.062,0.102-1.578-0.145
		c-0.516-0.248-0.945-0.629-1.289-1.145c-0.236-0.365-0.279-0.758-0.129-1.176c0.15-0.42,0.43-0.684,0.838-0.791
		c0.924-0.215,1.729-0.461,2.416-0.74c1.139-0.451,2.016-1.01,2.627-1.676c0.613-0.666,1.047-1.354,1.305-2.062
		c0.258-0.645,0.451-1.461,0.58-2.449c0.021-0.129-0.031-0.193-0.16-0.193h-4.158c-0.129,0-0.193,0.064-0.193,0.193V8.41
		c0,0.537-0.188,0.994-0.562,1.371c-0.377,0.375-0.834,0.562-1.371,0.562s-0.994-0.188-1.369-0.562
		c-0.377-0.377-0.564-0.834-0.564-1.371V5.221c0-0.623,0.221-1.154,0.662-1.596c0.439-0.439,0.971-0.66,1.594-0.66h9.475
		c0.129,0,0.193-0.064,0.193-0.193V1.998c0-0.537,0.199-1.004,0.598-1.402C76.24,0.199,76.713,0,77.262,0
		c0.547,0,1.02,0.199,1.418,0.596c0.396,0.398,0.596,0.865,0.596,1.402v0.773c0,0.129,0.064,0.193,0.193,0.193h9.699
		c0.623,0,1.154,0.221,1.596,0.66c0.439,0.441,0.66,0.973,0.66,1.596v2.545c0,0.559-0.199,1.037-0.596,1.436
		c-0.398,0.396-0.875,0.596-1.434,0.596s-1.037-0.199-1.434-0.596c-0.398-0.398-0.598-0.877-0.598-1.436V6.703
		c0-0.129-0.064-0.193-0.193-0.193h-4.156c-0.129,0-0.193,0.064-0.193,0.193v5.059c0,0.451,0.068,0.736,0.209,0.855
		c0.139,0.117,0.479,0.176,1.016,0.176h2.867c0.451,0,0.752-0.139,0.902-0.418c0.021-0.064,0.043-0.129,0.064-0.193
		c0.107-0.408,0.344-0.709,0.709-0.902s0.742-0.215,1.129-0.064c0.494,0.193,0.891,0.504,1.191,0.934s0.377,0.881,0.227,1.354
		c-0.215,0.795-0.494,1.375-0.838,1.74c-0.602,0.623-1.59,0.936-2.965,0.936h-3.867c-1.805,0-3.008-0.307-3.609-0.918
		c-0.602-0.613-0.902-1.768-0.902-3.465V6.703z"/>
	<path d="M107.234,11.021c0,0.623-0.221,1.154-0.66,1.596c-0.441,0.439-0.973,0.66-1.596,0.66h-6.412
		c-0.129,0-0.193,0.064-0.193,0.193v15.436c0,0.537-0.189,0.994-0.564,1.371c-0.377,0.375-0.832,0.562-1.369,0.562
		s-0.994-0.188-1.371-0.562c-0.375-0.377-0.562-0.834-0.562-1.371V3.545c0-0.623,0.219-1.154,0.66-1.596
		c0.439-0.439,0.973-0.66,1.596-0.66h8.217c0.623,0,1.154,0.221,1.596,0.66c0.439,0.441,0.66,0.973,0.66,1.596V11.021z
		 M103.561,4.318c0-0.129-0.064-0.193-0.193-0.193h-4.801c-0.129,0-0.193,0.064-0.193,0.193v1.32c0,0.129,0.064,0.193,0.193,0.193
		h4.801c0.129,0,0.193-0.064,0.193-0.193V4.318z M98.373,10.248c0,0.129,0.064,0.193,0.193,0.193h4.801
		c0.129,0,0.193-0.064,0.193-0.193V8.701c0-0.129-0.064-0.193-0.193-0.193h-4.801c-0.129,0-0.193,0.064-0.193,0.193V10.248z
		 M120.061,1.289c0.623,0,1.154,0.221,1.596,0.66c0.439,0.441,0.66,0.973,0.66,1.596v22.59c0,1.096-0.129,1.945-0.387,2.547
		s-0.709,1.053-1.354,1.354c-0.688,0.344-1.943,0.559-3.77,0.645c-0.645,0.043-1.225-0.141-1.74-0.549s-0.881-0.934-1.096-1.578
		c-0.043-0.172-0.107-0.365-0.193-0.58c-0.043-0.129-0.129-0.193-0.258-0.193h-7.832c-0.107,0-0.16,0.053-0.16,0.16
		c0,0.43-0.156,0.801-0.469,1.113c-0.311,0.311-0.682,0.467-1.111,0.467h-0.193c-0.494,0-0.918-0.178-1.273-0.531
		c-0.354-0.355-0.531-0.779-0.531-1.273V17.402c0-0.623,0.221-1.154,0.66-1.596c0.441-0.439,0.973-0.66,1.596-0.66h8.283
		c0.623,0,1.154,0.221,1.594,0.66c0.441,0.441,0.662,0.973,0.662,1.596v9.184c0,0.129,0.064,0.193,0.193,0.193
		c0.494,0.021,1.375,0.033,2.643,0.033c0.301-0.021,0.504-0.08,0.611-0.178c0.107-0.096,0.162-0.273,0.162-0.531V13.566
		c0-0.129-0.064-0.193-0.193-0.193h-6.543c-0.623,0-1.154-0.219-1.596-0.66c-0.439-0.439-0.66-0.973-0.66-1.596V3.545
		c0-0.623,0.221-1.154,0.66-1.596c0.441-0.439,0.973-0.66,1.596-0.66H120.061z M111.037,18.24c0-0.129-0.064-0.193-0.193-0.193
		h-5.123c-0.129,0-0.193,0.064-0.193,0.193v1.547c0,0.129,0.064,0.193,0.193,0.193h5.123c0.129,0,0.193-0.064,0.193-0.193V18.24z
		 M105.527,24.686c0,0.129,0.064,0.193,0.193,0.193h5.123c0.129,0,0.193-0.064,0.193-0.193V23.01c0-0.129-0.064-0.193-0.193-0.193
		h-5.123c-0.129,0-0.193,0.064-0.193,0.193V24.686z M118.354,4.318c0-0.129-0.064-0.193-0.193-0.193h-4.898
		c-0.129,0-0.193,0.064-0.193,0.193v1.32c0,0.129,0.064,0.193,0.193,0.193h4.898c0.129,0,0.193-0.064,0.193-0.193V4.318z
		 M113.068,10.344c0,0.129,0.064,0.193,0.193,0.193h4.898c0.129,0,0.193-0.064,0.193-0.193V8.701c0-0.129-0.064-0.193-0.193-0.193
		h-4.898c-0.129,0-0.193,0.064-0.193,0.193V10.344z"/>
	<path d="M145.221,5.736c-0.086-0.107-0.193-0.162-0.322-0.162h-1.449c-0.129,0-0.236,0.055-0.322,0.162
		c-0.408,0.537-0.807,1.02-1.193,1.449c-0.365,0.43-0.838,0.666-1.418,0.709s-1.117-0.086-1.611-0.387
		c-0.15-0.107-0.301-0.203-0.451-0.289c-0.279-0.172-0.43-0.42-0.451-0.742s0.086-0.59,0.322-0.805
		c0.021-0.021,0.027-0.043,0.016-0.064c-0.01-0.021-0.025-0.033-0.047-0.033h-3.738c-0.086,0-0.107,0.043-0.064,0.129
		c0.193,0.365,0.209,0.742,0.047,1.129c-0.16,0.387-0.445,0.645-0.854,0.773l-1.225,0.387v0.031h0.227
		c0.365,0,0.682,0.135,0.949,0.404c0.27,0.268,0.404,0.584,0.404,0.949c0,0.086,0.043,0.129,0.129,0.129h4.285
		c0.387,0,0.721,0.141,1,0.42s0.418,0.611,0.418,0.998s-0.139,0.721-0.418,1s-0.613,0.418-1,0.418h-4.221
		c-0.129,0-0.193,0.064-0.193,0.193v0.902c0,0.129,0.064,0.193,0.193,0.193h2.836c0.623,0,1.154,0.221,1.594,0.662
		c0.441,0.439,0.662,0.971,0.662,1.594v5.092c0,0.623-0.221,1.156-0.662,1.596c-0.439,0.441-0.971,0.66-1.594,0.66h-2.836
		c-0.129,0-0.193,0.064-0.193,0.193v0.967c0,0.129,0.064,0.193,0.193,0.193h4.479c0.408,0,0.752,0.141,1.031,0.42
		s0.42,0.623,0.42,1.031s-0.141,0.752-0.42,1.031s-0.623,0.418-1.031,0.418h-4.479c-0.129,0-0.193,0.064-0.193,0.193v1.482
		c0,0.451-0.162,0.838-0.484,1.16s-0.709,0.484-1.16,0.484s-0.838-0.162-1.16-0.484s-0.482-0.709-0.482-1.16v-1.482
		c0-0.129-0.064-0.193-0.193-0.193h-4.383c-0.408,0-0.752-0.139-1.031-0.418s-0.42-0.623-0.42-1.031s0.141-0.752,0.42-1.031
		s0.623-0.42,1.031-0.42h4.383c0.129,0,0.193-0.064,0.193-0.193v-0.967c0-0.129-0.064-0.193-0.193-0.193h-2.676
		c-0.623,0-1.154-0.219-1.596-0.66c-0.439-0.439-0.66-0.973-0.66-1.596v-5.092c0-0.623,0.221-1.154,0.66-1.594
		c0.441-0.441,0.973-0.662,1.596-0.662h2.676c0.129,0,0.193-0.064,0.193-0.193v-0.902c0-0.129-0.064-0.193-0.193-0.193h-4.125
		c-0.387,0-0.721-0.139-1-0.418s-0.418-0.613-0.418-1s0.139-0.719,0.418-0.998s0.613-0.42,1-0.42h4.189
		c0.086,0,0.129-0.043,0.129-0.129V8.926c0-0.236,0.09-0.445,0.273-0.627c0.182-0.184,0.393-0.275,0.629-0.275
		c0.064,0,0.086-0.021,0.064-0.064c-0.15-0.473-0.516-1.203-1.096-2.191c-0.064-0.129-0.162-0.193-0.291-0.193h-0.225
		c-0.129,0-0.236,0.055-0.322,0.162c-0.43,0.58-0.871,1.139-1.322,1.676c-0.344,0.387-0.789,0.596-1.338,0.629
		c-0.547,0.031-1.035-0.113-1.465-0.436c-0.387-0.279-0.598-0.656-0.629-1.129c-0.033-0.473,0.113-0.881,0.436-1.225
		c0.494-0.516,0.977-1.096,1.449-1.74c0.494-0.666,0.936-1.342,1.322-2.029c0.258-0.494,0.633-0.859,1.127-1.096
		s0.988-0.291,1.482-0.162l0.227,0.064c0.43,0.107,0.734,0.355,0.918,0.742c0.182,0.387,0.166,0.773-0.049,1.16
		c-0.043,0.086-0.01,0.129,0.098,0.129h5.252c0.58,0,1.074,0.203,1.482,0.611s0.613,0.902,0.613,1.482
		c0,0.021,0.016,0.039,0.047,0.049c0.033,0.012,0.061,0.016,0.082,0.016c0.816-0.945,1.514-1.934,2.094-2.965
		c0.258-0.494,0.629-0.863,1.111-1.111c0.484-0.246,0.994-0.316,1.531-0.209l0.193,0.064c0.43,0.107,0.742,0.354,0.936,0.74
		s0.182,0.785-0.033,1.193c-0.043,0.086-0.01,0.129,0.098,0.129h7.701c0.43,0,0.807,0.16,1.129,0.482s0.482,0.705,0.482,1.145
		c0,0.441-0.16,0.822-0.482,1.145s-0.699,0.482-1.129,0.482h-3.705c-0.043,0-0.076,0.018-0.098,0.049
		c-0.021,0.033-0.01,0.07,0.033,0.113c0.064,0.107,0.129,0.203,0.193,0.289c0.258,0.408,0.305,0.834,0.145,1.273
		c-0.162,0.441-0.479,0.736-0.951,0.887c-0.473,0.172-0.955,0.156-1.449-0.049c-0.494-0.203-0.881-0.543-1.16-1.016
		C145.898,6.691,145.586,6.23,145.221,5.736z M128.883,15.951c-0.129,0-0.193,0.064-0.193,0.193v0.967
		c0,0.129,0.064,0.193,0.193,0.193h1.676c0.129,0,0.193-0.064,0.193-0.193v-0.967c0-0.129-0.064-0.193-0.193-0.193H128.883z
		 M128.689,20.721c0,0.129,0.064,0.193,0.193,0.193h1.676c0.129,0,0.193-0.064,0.193-0.193v-0.998c0-0.129-0.064-0.193-0.193-0.193
		h-1.676c-0.129,0-0.193,0.064-0.193,0.193V20.721z M136.102,16.145c0-0.129-0.064-0.193-0.193-0.193h-1.676
		c-0.129,0-0.193,0.064-0.193,0.193v0.967c0,0.129,0.064,0.193,0.193,0.193h1.676c0.129,0,0.193-0.064,0.193-0.193V16.145z
		 M135.908,20.914c0.129,0,0.193-0.064,0.193-0.193v-0.998c0-0.129-0.064-0.193-0.193-0.193h-1.676
		c-0.129,0-0.193,0.064-0.193,0.193v0.998c0,0.129,0.064,0.193,0.193,0.193H135.908z M146.221,26.779h4.125
		c0.58,0,0.967-0.246,1.16-0.74c0.107-0.279,0.203-0.742,0.289-1.387c0.043-0.408,0.252-0.709,0.629-0.902
		c0.375-0.193,0.758-0.203,1.145-0.031c0.494,0.215,0.891,0.537,1.191,0.967s0.398,0.902,0.291,1.418
		c-0.236,1.332-0.58,2.299-1.031,2.9c-0.645,0.859-1.762,1.289-3.352,1.289h-4.963c-1.848,0-3.105-0.35-3.771-1.047
		c-0.666-0.699-0.998-2.047-0.998-4.045V11.408c0-0.623,0.219-1.154,0.66-1.596c0.439-0.439,0.973-0.66,1.596-0.66h8.152
		c0.623,0,1.154,0.221,1.596,0.66c0.439,0.441,0.66,0.973,0.66,1.596v7.219c0,1.74-0.494,2.846-1.482,3.318
		c-0.58,0.301-1.449,0.506-2.609,0.613c-0.559,0.043-1.064-0.107-1.516-0.451s-0.773-0.795-0.967-1.354
		c-0.15-0.43-0.107-0.828,0.129-1.193s0.58-0.547,1.031-0.547c0.516,0.021,0.893,0.021,1.129,0c0.365,0,0.547-0.15,0.547-0.451
		v-5.834c0-0.129-0.064-0.193-0.193-0.193h-4.834c-0.129,0-0.193,0.064-0.193,0.193v12.439c0,0.709,0.086,1.156,0.258,1.338
		C145.07,26.689,145.512,26.779,146.221,26.779z"/>
	<path d="M173.727,25.91c0,0.129,0.064,0.193,0.193,0.193h10.828c0.494,0,0.918,0.178,1.273,0.531
		c0.354,0.355,0.531,0.779,0.531,1.273s-0.178,0.918-0.531,1.273c-0.355,0.354-0.779,0.531-1.273,0.531h-26.137
		c-0.494,0-0.918-0.178-1.271-0.531c-0.355-0.355-0.533-0.779-0.533-1.273s0.178-0.918,0.533-1.273
		c0.354-0.354,0.777-0.531,1.271-0.531h10.926c0.129,0,0.193-0.064,0.193-0.193v-2.256c0-0.129-0.064-0.193-0.193-0.193h-7.574
		c-0.494,0-0.918-0.178-1.271-0.531c-0.355-0.355-0.533-0.773-0.533-1.258c0-0.482,0.178-0.902,0.533-1.256
		c0.354-0.355,0.777-0.533,1.271-0.533h7.541c0.129,0,0.193-0.064,0.193-0.193v-1.676c0-0.129-0.064-0.193-0.193-0.193
		c-0.623,0-1.154-0.219-1.594-0.66c-0.441-0.439-0.662-0.973-0.662-1.596v-3.898c0-0.129-0.064-0.193-0.193-0.193h-2.643
		c-0.129,0-0.203,0.064-0.225,0.193c-0.537,2.514-1.73,4.512-3.578,5.994c-0.451,0.301-0.93,0.408-1.434,0.322
		c-0.506-0.086-0.951-0.334-1.338-0.742c-0.322-0.344-0.461-0.74-0.418-1.191s0.246-0.816,0.611-1.096
		c1.16-0.902,1.955-1.998,2.385-3.287c0.043-0.129,0-0.193-0.129-0.193h-1.418c-0.494,0-0.908-0.166-1.24-0.5
		c-0.334-0.332-0.5-0.74-0.5-1.225c0-0.482,0.166-0.891,0.5-1.225c0.332-0.332,0.746-0.5,1.24-0.5h1.805
		c0.129,0,0.193-0.064,0.193-0.193V4.736c0-0.129-0.064-0.193-0.193-0.193h-0.709c-0.473,0-0.875-0.166-1.207-0.498
		c-0.334-0.334-0.5-0.736-0.5-1.209s0.166-0.875,0.5-1.209c0.332-0.332,0.734-0.5,1.207-0.5h11.57c0.473,0,0.875,0.168,1.209,0.5
		c0.332,0.334,0.498,0.736,0.498,1.209s-0.166,0.875-0.498,1.209c-0.334,0.332-0.736,0.498-1.209,0.498h-0.451
		c-0.129,0-0.193,0.064-0.193,0.193V7.83c0,0.129,0.064,0.193,0.193,0.193h1.191c0.494,0,0.908,0.168,1.242,0.5
		c0.332,0.334,0.498,0.742,0.498,1.225c0,0.484-0.166,0.893-0.498,1.225c-0.334,0.334-0.748,0.5-1.242,0.5h-1.191
		c-0.129,0-0.193,0.064-0.193,0.193v5.381c0,0.129,0.064,0.193,0.193,0.193h0.387c0.623,0,1.154,0.221,1.596,0.662
		c0.439,0.439,0.66,0.971,0.66,1.594v0.193c0,0.129,0.064,0.193,0.193,0.193h7.572c0.473,0,0.887,0.178,1.242,0.533
		c0.354,0.354,0.531,0.773,0.531,1.256c0,0.484-0.178,0.902-0.531,1.258c-0.355,0.354-0.77,0.531-1.242,0.531h-7.572
		c-0.129,0-0.193,0.064-0.193,0.193V25.91z M164.477,7.83c0,0.129,0.064,0.193,0.193,0.193h2.385c0.129,0,0.193-0.064,0.193-0.193
		V4.736c0-0.129-0.064-0.193-0.193-0.193h-2.385c-0.129,0-0.193,0.064-0.193,0.193V7.83z M175.934,2.369
		c0.355-0.355,0.773-0.533,1.258-0.533c0.482,0,0.902,0.178,1.256,0.533c0.355,0.354,0.531,0.768,0.531,1.24v7.605
		c0,0.473-0.176,0.887-0.531,1.24c-0.354,0.355-0.773,0.531-1.256,0.531c-0.484,0-0.902-0.176-1.258-0.531
		c-0.354-0.354-0.531-0.768-0.531-1.24V3.609C175.402,3.137,175.58,2.723,175.934,2.369z M181.943,0.869
		c0.365-0.365,0.807-0.547,1.322-0.547s0.955,0.182,1.32,0.547s0.549,0.807,0.549,1.322v12.213c0,0.945-0.113,1.672-0.338,2.176
		c-0.227,0.506-0.641,0.887-1.242,1.145c-0.688,0.301-1.805,0.494-3.352,0.58c-0.516,0.021-0.982-0.135-1.4-0.467
		c-0.42-0.334-0.715-0.758-0.887-1.273c-0.15-0.387-0.107-0.758,0.129-1.111c0.236-0.355,0.568-0.521,0.998-0.5
		c0.73,0,1.311-0.012,1.74-0.033c0.408-0.021,0.613-0.215,0.613-0.58V2.191C181.396,1.676,181.578,1.234,181.943,0.869z"/>
</g>
</svg>
