<svg version="1.2" baseProfile="tiny"
	 xmlns="http://www.w3.org/2000/svg" xmlns:xlink="http://www.w3.org/1999/xlink" x="0px" y="0px" width="381.701px"
	 height="31.004px" viewBox="0 0 381.701 31.004" xml:space="preserve">
<g>
	<path d="M16.34,1.611c0,0.086,0.043,0.129,0.129,0.129h11.504c0.344,0,0.635,0.118,0.871,0.354s0.354,0.526,0.354,0.87
		s-0.117,0.634-0.354,0.87s-0.527,0.354-0.871,0.354H16.533c-0.129,0-0.193,0.064-0.193,0.193v0.645
		c0,0.129,0.064,0.193,0.193,0.193h8.797c0.301,0,0.564,0.113,0.789,0.338c0.227,0.227,0.34,0.495,0.34,0.807
		s-0.113,0.58-0.34,0.805c-0.225,0.227-0.488,0.339-0.789,0.339H3.738c-0.301,0-0.564-0.112-0.789-0.339
		C2.723,6.945,2.611,6.677,2.611,6.365s0.111-0.58,0.338-0.807c0.225-0.225,0.488-0.338,0.789-0.338h8.477
		c0.129,0,0.193-0.064,0.193-0.193V4.383c0-0.129-0.064-0.193-0.193-0.193H1.225c-0.344,0-0.633-0.118-0.869-0.354S0,3.309,0,2.965
		s0.119-0.634,0.355-0.87S0.881,1.74,1.225,1.74h11.055c0.086,0,0.129-0.043,0.129-0.129c0-0.43,0.15-0.795,0.451-1.096
		s0.666-0.451,1.096-0.451h0.838c0.43,0,0.795,0.15,1.096,0.451S16.34,1.182,16.34,1.611z M16.533,26.49
		c-0.129,0-0.193,0.064-0.193,0.193v0.709c0,0.129,0.064,0.193,0.193,0.193h11.053c0.365,0,0.678,0.129,0.936,0.387
		s0.387,0.569,0.387,0.935s-0.129,0.677-0.387,0.935s-0.57,0.387-0.936,0.387H1.547c-0.365,0-0.676-0.129-0.934-0.387
		s-0.387-0.569-0.387-0.935s0.129-0.677,0.387-0.935s0.568-0.387,0.934-0.387h10.668c0.129,0,0.193-0.064,0.193-0.193v-0.709
		c0-0.129-0.064-0.193-0.193-0.193H4.576c-0.322,0-0.596-0.113-0.822-0.338c-0.225-0.227-0.338-0.5-0.338-0.822
		s0.113-0.596,0.338-0.822c0.227-0.225,0.5-0.338,0.822-0.338h7.639c0.129,0,0.193-0.064,0.193-0.193v-0.612
		c0-0.129-0.064-0.193-0.193-0.193c-1.396,0.021-3.191,0.043-5.383,0.064c-1.311,0.021-2.33,0.043-3.061,0.064
		c-0.322,0-0.602-0.112-0.838-0.339c-0.236-0.225-0.377-0.499-0.42-0.821c-0.021-0.322,0.08-0.597,0.307-0.821
		c0.225-0.227,0.488-0.328,0.789-0.307c0.902,0,2.074,0,3.514,0c0.129,0,0.236-0.054,0.322-0.161
		c0.15-0.215,0.332-0.494,0.547-0.838c0.021-0.021,0.021-0.054,0-0.097s-0.053-0.064-0.096-0.064H4.094
		c-0.107,0-0.193-0.032-0.258-0.097s-0.098-0.15-0.098-0.258c0-0.021-0.01-0.032-0.031-0.032H2.611c-0.623,0-1.156-0.22-1.596-0.66
		c-0.441-0.44-0.66-0.973-0.66-1.596v-0.58c0-0.623,0.219-1.154,0.66-1.596c0.439-0.439,0.973-0.66,1.596-0.66h23.783
		c0.623,0,1.154,0.221,1.594,0.66c0.441,0.441,0.662,0.973,0.662,1.596v0.999c0,0.516-0.178,0.95-0.533,1.306
		c-0.354,0.354-0.783,0.531-1.289,0.531c-0.504,0-0.934-0.178-1.289-0.531c-0.354-0.355-0.531-0.779-0.531-1.273v-0.645
		c0-0.129-0.064-0.193-0.193-0.193H4.029c-0.129,0-0.193,0.064-0.193,0.193v0.58c0,0.129,0.064,0.193,0.193,0.193h19.723
		c0.279,0,0.52,0.103,0.725,0.307c0.203,0.204,0.307,0.445,0.307,0.725s-0.104,0.521-0.307,0.725
		c-0.205,0.205-0.445,0.307-0.725,0.307h-1c-0.021,0-0.037,0.011-0.049,0.032c-0.01,0.021-0.004,0.043,0.018,0.064
		c0.795,0.451,1.504,0.87,2.127,1.257c0.494,0.322,0.752,0.773,0.773,1.354s-0.193,1.063-0.645,1.45l-0.129,0.097
		c0,0.021,0,0.038,0,0.049s0.01,0.016,0.031,0.016c0.301,0,0.553,0.103,0.758,0.307c0.203,0.204,0.307,0.456,0.307,0.757v0.097
		c0,0.322-0.113,0.596-0.34,0.822c-0.225,0.225-0.498,0.338-0.82,0.338H16.533z M3.803,10.731c0-0.623,0.221-1.154,0.66-1.595
		c0.441-0.44,0.973-0.661,1.596-0.661h17.113c0.623,0,1.154,0.221,1.594,0.661c0.441,0.44,0.662,0.972,0.662,1.595v0.516
		c0,0.623-0.221,1.155-0.662,1.595c-0.439,0.441-0.971,0.661-1.594,0.661H6.059c-0.623,0-1.154-0.22-1.596-0.661
		c-0.439-0.439-0.66-0.972-0.66-1.595V10.731z M21.367,11.602c0.129,0,0.193-0.064,0.193-0.193V10.57
		c0-0.129-0.064-0.193-0.193-0.193H7.605c-0.129,0-0.193,0.064-0.193,0.193v0.838c0,0.129,0.064,0.193,0.193,0.193H21.367z
		 M17.693,19.884v-0.032h-5.125c-0.129,0-0.236,0.054-0.322,0.161c-0.107,0.107-0.236,0.247-0.387,0.419
		c-0.129,0.172-0.246,0.312-0.354,0.419c-0.021,0.043-0.021,0.081,0,0.112c0.021,0.033,0.043,0.049,0.064,0.049h7.412
		c0.021,0,0.031-0.021,0.031-0.064c-0.451-0.258-0.869-0.483-1.256-0.677c-0.086-0.043-0.135-0.107-0.146-0.193
		C17.602,19.991,17.629,19.927,17.693,19.884z M16.533,23.106c-0.129,0-0.193,0.064-0.193,0.193v0.677
		c0,0.129,0.064,0.193,0.193,0.193h7.314c0.021,0,0.037-0.016,0.049-0.049c0.01-0.031,0.006-0.059-0.016-0.08
		c-0.365-0.322-0.773-0.623-1.225-0.902c-0.107-0.086-0.227-0.129-0.355-0.129L16.533,23.106z"/>
	<path d="M37.58,7.896c0.15,0,0.225-0.064,0.225-0.193V2.707c0-0.559,0.199-1.036,0.598-1.434c0.396-0.397,0.879-0.597,1.449-0.597
		c0.568,0,1.053,0.199,1.451,0.597c0.396,0.397,0.596,0.875,0.596,1.434v25.781c0,0.58-0.199,1.068-0.596,1.467
		c-0.398,0.396-0.883,0.596-1.451,0.596c-0.57,0-1.053-0.199-1.449-0.596c-0.398-0.398-0.598-0.887-0.598-1.467v-4.544
		c0-0.043-0.021-0.075-0.064-0.097s-0.086-0.021-0.129,0c-0.988,0.408-2.664,1.117-5.027,2.127
		c-0.559,0.236-1.117,0.242-1.676,0.016c-0.559-0.225-0.955-0.617-1.191-1.176c-0.215-0.537-0.205-1.068,0.031-1.596
		c0.236-0.525,0.635-0.886,1.193-1.079c2.041-0.666,4.264-1.439,6.67-2.32c0.129-0.043,0.193-0.129,0.193-0.258v-7.541
		c0-0.129-0.074-0.193-0.225-0.193h-5.641c-0.537,0-0.998-0.193-1.385-0.58s-0.58-0.849-0.58-1.386s0.193-0.999,0.58-1.386
		s0.848-0.58,1.385-0.58H37.58z M51.502,26.361h3.318c0.623,0,1.043-0.419,1.258-1.257c0.15-0.602,0.268-1.697,0.354-3.287
		c0.043-0.451,0.264-0.778,0.662-0.983c0.396-0.203,0.799-0.198,1.207,0.017c0.58,0.279,1.043,0.666,1.387,1.16
		s0.482,1.031,0.418,1.611c-0.236,2.17-0.611,3.738-1.127,4.705c-0.688,1.268-1.934,1.901-3.738,1.901h-4.318
		c-1.891,0-3.174-0.419-3.852-1.257c-0.676-0.838-1.016-2.406-1.016-4.705V2.707c0-0.559,0.199-1.036,0.598-1.434
		c0.396-0.397,0.875-0.597,1.434-0.597s1.035,0.199,1.434,0.597c0.396,0.397,0.596,0.875,0.596,1.434v7.702
		c0,0.043,0.018,0.075,0.049,0.097c0.033,0.021,0.07,0.021,0.113,0c1.74-1.117,3.361-2.277,4.865-3.48
		c0.473-0.387,1.021-0.553,1.645-0.5c0.623,0.055,1.139,0.317,1.547,0.79c0.387,0.451,0.541,0.978,0.467,1.579
		c-0.076,0.602-0.359,1.063-0.854,1.386c-2.191,1.396-4.748,2.857-7.67,4.383c-0.107,0.064-0.162,0.161-0.162,0.29v9.346
		c0,0.924,0.076,1.498,0.227,1.725C50.492,26.248,50.879,26.361,51.502,26.361z"/>
	<path d="M90.445,4.85c0.375,0.377,0.562,0.828,0.562,1.354c0,0.527-0.188,0.979-0.562,1.354c-0.377,0.377-0.822,0.564-1.338,0.564
		H78.086c-0.129,0-0.193,0.064-0.193,0.193v3.029c0,0.129,0.064,0.193,0.193,0.193h7.959c0.623,0,1.154,0.221,1.596,0.66
		c0.439,0.441,0.66,0.973,0.66,1.596v8.959c0,0.988-0.135,1.772-0.402,2.353c-0.27,0.58-0.725,1.01-1.369,1.289
		c-0.795,0.322-2.041,0.516-3.738,0.58c-0.58,0.021-1.107-0.15-1.58-0.516s-0.816-0.849-1.031-1.45
		c-0.172-0.43-0.129-0.843,0.129-1.24s0.623-0.586,1.096-0.564c0.623,0,1.322,0,2.096,0c0.473-0.021,0.709-0.193,0.709-0.516v-7.122
		c0-0.129-0.064-0.193-0.193-0.193h-5.93c-0.129,0-0.193,0.064-0.193,0.193v13.342c0,0.559-0.199,1.036-0.596,1.435
		c-0.398,0.396-0.877,0.596-1.436,0.596s-1.037-0.199-1.434-0.596c-0.398-0.398-0.596-0.876-0.596-1.435V15.565
		c0-0.129-0.064-0.193-0.193-0.193h-5.414c-0.129,0-0.193,0.064-0.193,0.193v9.442c0,0.537-0.193,0.999-0.58,1.386
		s-0.85,0.58-1.387,0.58s-0.998-0.193-1.385-0.58s-0.58-0.849-0.58-1.386V13.793c0-0.623,0.219-1.154,0.66-1.596
		c0.439-0.439,0.973-0.66,1.596-0.66h7.283c0.129,0,0.193-0.064,0.193-0.193V8.314c0-0.129-0.064-0.193-0.193-0.193H62.939
		c-0.537,0-0.994-0.188-1.369-0.564c-0.377-0.375-0.564-0.826-0.564-1.354c0-0.525,0.188-0.977,0.564-1.354
		c0.375-0.375,0.832-0.563,1.369-0.563h10.666c0.129,0,0.193-0.064,0.193-0.193V2.095c0-0.58,0.205-1.074,0.613-1.482
		S75.314,0,75.895,0s1.074,0.204,1.482,0.612s0.611,0.902,0.611,1.482v1.998c0,0.129,0.064,0.193,0.193,0.193h10.926
		C89.623,4.286,90.068,4.475,90.445,4.85z"/>
	<path d="M102.527,19.787c0.451-0.107,0.865-0.037,1.24,0.209c0.377,0.248,0.607,0.607,0.693,1.08
		c0.064,0.473-0.031,0.918-0.289,1.338c-0.258,0.418-0.623,0.692-1.096,0.821c-2.428,0.73-5.285,1.568-8.572,2.514
		c-0.494,0.129-0.967,0.07-1.418-0.177s-0.748-0.623-0.887-1.129c-0.141-0.504-0.08-0.982,0.178-1.434s0.645-0.741,1.16-0.87
		c0.709-0.172,1.611-0.397,2.707-0.677c0.15-0.043,0.225-0.129,0.225-0.258v-6.22c0-0.129-0.074-0.193-0.225-0.193h-1.709
		c-0.494,0-0.912-0.177-1.256-0.532c-0.344-0.354-0.516-0.768-0.516-1.24c0-0.494,0.176-0.918,0.531-1.273
		c0.354-0.354,0.768-0.531,1.24-0.531h1.709c0.15,0,0.225-0.064,0.225-0.193v-5.35c0-0.129-0.074-0.193-0.225-0.193h-1.934
		c-0.494,0-0.92-0.178-1.273-0.531c-0.355-0.355-0.531-0.784-0.531-1.289s0.176-0.936,0.531-1.289
		c0.354-0.355,0.779-0.532,1.273-0.532h7.992c0.516,0,0.949,0.177,1.305,0.532c0.354,0.354,0.531,0.784,0.531,1.289
		s-0.178,0.934-0.531,1.289c-0.355,0.354-0.789,0.531-1.305,0.531h-1.869c-0.129,0-0.193,0.064-0.193,0.193v5.35
		c0,0.129,0.064,0.193,0.193,0.193h1.547c0.494,0,0.918,0.178,1.271,0.531c0.355,0.355,0.533,0.773,0.533,1.258
		c0,0.482-0.178,0.902-0.533,1.256c-0.354,0.355-0.777,0.532-1.271,0.532h-1.547c-0.129,0-0.193,0.064-0.193,0.193v5.221
		c0,0.129,0.064,0.172,0.193,0.129L102.527,19.787z M117.965,27.425h1.225c0.301,0,0.504-0.226,0.611-0.677
		c0.064-0.279,0.107-0.73,0.129-1.354c0.043-0.387,0.236-0.671,0.58-0.854s0.699-0.199,1.064-0.049
		c0.494,0.215,0.885,0.537,1.176,0.967c0.289,0.43,0.402,0.892,0.338,1.386c-0.172,1.268-0.439,2.181-0.805,2.739
		c-0.516,0.795-1.396,1.192-2.643,1.192h-2.354c-1.482,0-2.477-0.312-2.98-0.935c-0.506-0.623-0.758-1.772-0.758-3.448v-6.381
		c0-0.129-0.074-0.193-0.225-0.193h-1.547c-0.129,0-0.205,0.064-0.227,0.193c-0.15,1.396-0.365,2.6-0.645,3.609
		c-0.301,1.053-0.779,2.084-1.434,3.094c-0.656,1.01-1.574,1.88-2.756,2.61c-0.709,0.451-1.535,0.859-2.48,1.225
		c-0.494,0.215-1.006,0.209-1.531-0.016c-0.527-0.227-0.951-0.586-1.273-1.08c-0.258-0.387-0.322-0.801-0.193-1.24
		c0.129-0.44,0.408-0.726,0.838-0.854c0.666-0.236,1.258-0.483,1.773-0.741c0.967-0.516,1.713-1.139,2.238-1.869
		c0.527-0.73,0.908-1.461,1.145-2.191c0.215-0.688,0.377-1.536,0.484-2.546c0.021-0.129-0.043-0.193-0.193-0.193
		c-0.623,0-1.15-0.22-1.58-0.661c-0.43-0.439-0.645-0.972-0.645-1.595V3.642c0-0.623,0.221-1.154,0.66-1.595
		c0.441-0.44,0.973-0.661,1.596-0.661h11.666c0.623,0,1.154,0.221,1.596,0.661c0.439,0.44,0.66,0.972,0.66,1.595v13.922
		c0,0.623-0.221,1.155-0.66,1.595c-0.441,0.441-0.973,0.661-1.596,0.661h-1.707c-0.129,0-0.193,0.064-0.193,0.193v6.349
		c0,0.473,0.037,0.769,0.111,0.887C117.508,27.366,117.686,27.425,117.965,27.425z M109.166,4.576c-0.129,0-0.193,0.064-0.193,0.193
		v1.644c0,0.129,0.064,0.193,0.193,0.193h8.25c0.15,0,0.227-0.064,0.227-0.193V4.77c0-0.129-0.076-0.193-0.227-0.193H109.166z
		 M109.166,9.604c-0.129,0-0.193,0.064-0.193,0.193v1.611c0,0.129,0.064,0.193,0.193,0.193h8.25c0.15,0,0.227-0.064,0.227-0.193
		V9.797c0-0.129-0.076-0.193-0.227-0.193H109.166z M109.166,14.566c-0.129,0-0.193,0.064-0.193,0.193v1.676
		c0,0.129,0.064,0.193,0.193,0.193h8.25c0.15,0,0.227-0.064,0.227-0.193V14.76c0-0.129-0.076-0.193-0.227-0.193H109.166z"/>
	<path d="M153.229,5.897c0,0.516-0.178,0.95-0.531,1.306c-0.355,0.354-0.789,0.531-1.305,0.531h-15.598
		c-0.15,0-0.248,0.064-0.291,0.193c-0.279,0.602-0.654,1.343-1.127,2.224c-0.043,0.043-0.049,0.086-0.018,0.129
		c0.033,0.043,0.07,0.064,0.113,0.064h12.795c0.623,0,1.154,0.221,1.594,0.661c0.441,0.44,0.662,0.972,0.662,1.595v14.051
		c0,1.01-0.125,1.794-0.371,2.353c-0.248,0.559-0.693,0.978-1.338,1.257c-0.666,0.322-1.955,0.526-3.867,0.612
		c-0.559,0.021-1.059-0.15-1.498-0.516c-0.441-0.365-0.746-0.827-0.918-1.386c-0.15-0.451-0.092-0.865,0.176-1.241
		c0.27-0.375,0.629-0.563,1.08-0.563c0.666,0.021,1.387,0.032,2.16,0.032c0.494-0.021,0.74-0.236,0.74-0.645V24.75
		c0-0.129-0.064-0.193-0.193-0.193h-11.473c-0.15,0-0.225,0.064-0.225,0.193v4.189c0,0.537-0.189,0.993-0.564,1.369
		c-0.377,0.376-0.838,0.564-1.387,0.564c-0.547,0-1.01-0.188-1.385-0.564c-0.377-0.376-0.564-0.832-0.564-1.369V16.726
		c0-0.021-0.016-0.043-0.049-0.064c-0.031-0.021-0.059-0.011-0.08,0.032c-0.859,0.924-1.74,1.751-2.643,2.481
		c-0.43,0.344-0.908,0.473-1.434,0.387c-0.527-0.086-0.973-0.344-1.338-0.773c-0.344-0.387-0.494-0.832-0.451-1.337
		s0.27-0.93,0.678-1.273c2.578-2.084,4.748-4.834,6.51-8.25c0.021-0.043,0.021-0.086,0-0.129s-0.055-0.064-0.098-0.064h-5.221
		c-0.494,0-0.924-0.178-1.289-0.531c-0.365-0.355-0.547-0.79-0.547-1.306s0.182-0.95,0.547-1.306
		c0.365-0.354,0.795-0.531,1.289-0.531h6.865c0.129,0,0.225-0.064,0.289-0.193c0.236-0.645,0.441-1.246,0.613-1.805
		c0.193-0.559,0.537-0.988,1.031-1.289s1.02-0.387,1.578-0.258s0.979,0.436,1.258,0.918c0.279,0.484,0.322,0.983,0.129,1.499
		c-0.107,0.322-0.215,0.634-0.322,0.935c-0.064,0.129-0.021,0.193,0.129,0.193h14.051c0.516,0,0.949,0.178,1.305,0.531
		C153.051,4.947,153.229,5.382,153.229,5.897z M145.494,15.888c0.129,0,0.193-0.064,0.193-0.193v-1.708
		c0-0.129-0.064-0.193-0.193-0.193h-11.473c-0.15,0-0.225,0.064-0.225,0.193v1.708c0,0.129,0.074,0.193,0.225,0.193H145.494z
		 M133.797,21.108c0,0.129,0.074,0.193,0.225,0.193h11.473c0.129,0,0.193-0.064,0.193-0.193v-1.74c0-0.129-0.064-0.193-0.193-0.193
		h-11.473c-0.15,0-0.225,0.064-0.225,0.193V21.108z"/>
	<path d="M169.189,24.417c1.539,0,2.729,0.7,2.729,2.31c0,1.61-1.189,2.311-2.52,2.311h-11.691c-1.539,0-2.73-0.7-2.73-2.311
		c0-0.734,0.455-1.365,0.805-1.785c2.906-3.465,6.057-6.615,8.717-10.466c0.631-0.91,1.225-1.995,1.225-3.255
		c0-1.436-1.084-2.695-2.52-2.695c-4.025,0-2.1,5.67-5.461,5.67c-1.68,0-2.555-1.189-2.555-2.555c0-4.411,3.92-7.946,8.225-7.946
		c4.307,0,7.771,2.835,7.771,7.281c0,4.865-5.426,9.695-8.4,13.441H169.189z"/>
	<path d="M174.098,23.542c-1.715,0-2.449-1.155-2.449-2.065c0-0.771,0.279-1.19,0.488-1.54l7.842-14.212
		c0.77-1.4,1.75-2.03,3.57-2.03c2.029,0,4.025,1.295,4.025,4.48v10.746h0.596c1.365,0,2.449,0.91,2.449,2.311
		s-1.084,2.311-2.449,2.311h-0.596v2.975c0,1.855-0.734,2.73-2.52,2.73s-2.521-0.875-2.521-2.73v-2.975H174.098z M182.533,9.155
		h-0.07l-4.725,9.766h4.795V9.155z"/>
	<path d="M207.699,17.531l0.838,0.226c0.279,0.064,0.494,0.221,0.645,0.468s0.193,0.51,0.129,0.789
		c-0.537,2.621-1.406,4.812-2.609,6.574c-0.086,0.107-0.076,0.193,0.031,0.258c1.762,1.096,4.33,1.644,7.703,1.644
		c1.848,0.043,4.297,0.043,7.348,0c0.387,0,0.676,0.161,0.869,0.483s0.236,0.666,0.129,1.031c-0.172,0.473-0.451,0.864-0.838,1.176
		s-0.816,0.468-1.289,0.468h-6.381c-4.318,0-7.52-0.806-9.604-2.417c-0.107-0.086-0.215-0.086-0.322,0
		c-1.01,0.881-2.201,1.644-3.576,2.288c-0.408,0.172-0.816,0.177-1.225,0.017c-0.408-0.162-0.742-0.436-1-0.822
		c-0.215-0.322-0.268-0.672-0.16-1.047c0.107-0.377,0.332-0.64,0.676-0.79c1.203-0.494,2.277-1.16,3.223-1.998
		c0.107-0.086,0.119-0.183,0.033-0.29c-0.43-0.73-0.773-1.396-1.031-1.998c-0.021-0.043-0.049-0.064-0.08-0.064
		c-0.033,0-0.07,0.011-0.113,0.032c-0.344,0.408-0.773,0.607-1.289,0.597s-0.967-0.21-1.354-0.597
		c-0.086-0.086-0.141-0.075-0.162,0.032c-0.408,2.17-1.01,4.082-1.805,5.736c-0.193,0.43-0.537,0.682-1.031,0.758
		c-0.494,0.074-0.934-0.049-1.32-0.371c-0.408-0.322-0.684-0.741-0.822-1.257c-0.141-0.516-0.102-1.021,0.113-1.515
		c1.332-3.115,1.998-7.509,1.998-13.181V7.992c0-0.537,0.188-0.993,0.564-1.369c0.375-0.376,0.82-0.564,1.336-0.564h0.193
		c0-0.043,0.021-0.064,0.064-0.064h7.961c0.15,0,0.225-0.064,0.225-0.193V2.062c0-0.559,0.188-1.025,0.564-1.402
		c0.375-0.375,0.832-0.563,1.369-0.563h0.355c0.451,0,0.832,0.156,1.145,0.468c0.311,0.312,0.467,0.682,0.467,1.111
		c0,0.107,0.043,0.161,0.129,0.161h9.152c0.387,0,0.713,0.135,0.982,0.403c0.268,0.269,0.402,0.596,0.402,0.982
		s-0.135,0.715-0.402,0.982c-0.27,0.27-0.596,0.403-0.982,0.403h-9.088c-0.129,0-0.193,0.064-0.193,0.193v0.999
		c0,0.129,0.064,0.193,0.193,0.193h10.021c0.021,0,0.043,0,0.064,0c0.172-0.043,0.344-0.043,0.516,0l1.129,0.258
		c0.387,0.107,0.676,0.328,0.869,0.66c0.193,0.334,0.227,0.683,0.098,1.048c-0.344,1.117-0.73,2.148-1.16,3.094
		c-0.215,0.451-0.549,0.769-1,0.95c-0.451,0.184-0.912,0.199-1.385,0.049c-0.43-0.129-0.742-0.397-0.936-0.806
		s-0.215-0.827-0.064-1.257c0.107-0.279,0.205-0.559,0.291-0.838c0.043-0.129-0.012-0.193-0.162-0.193h-8.475
		c-0.129,0-0.193,0.064-0.193,0.193v0.967c0,0.129,0.064,0.193,0.193,0.193l5.832-0.322c0.344-0.021,0.639,0.08,0.887,0.307
		c0.246,0.225,0.381,0.505,0.402,0.838s-0.074,0.623-0.289,0.869c-0.215,0.248-0.494,0.382-0.838,0.403l-5.994,0.322
		c-0.129,0-0.193,0.064-0.193,0.193c0,0.451,0.129,0.736,0.387,0.854s0.838,0.177,1.74,0.177h5.703c0.623,0,1.043-0.097,1.258-0.29
		c0.021-0.043,0.043-0.075,0.064-0.097c0.494-0.666,1.031-0.902,1.611-0.709c0.086,0.021,0.172,0.054,0.258,0.097
		c0.451,0.129,0.805,0.382,1.062,0.758s0.301,0.757,0.129,1.144c-0.193,0.516-0.461,0.902-0.805,1.16
		c-0.623,0.451-1.688,0.677-3.191,0.677h-6.445c-2.17,0-3.631-0.258-4.383-0.773c-0.709-0.494-1.074-1.429-1.096-2.804
		c0-0.129-0.074-0.193-0.225-0.193l-3.996,0.226c-0.322,0.021-0.613-0.08-0.871-0.307c-0.258-0.225-0.396-0.504-0.418-0.838
		c-0.021-0.332,0.08-0.622,0.307-0.869c0.225-0.247,0.498-0.382,0.82-0.403l4.158-0.226c0.15,0,0.225-0.064,0.225-0.193v-1.16
		c0-0.129-0.074-0.193-0.225-0.193h-6.221c-0.129,0-0.193,0.064-0.193,0.193v4.608c0,2.75-0.172,5.339-0.516,7.767
		c0,0.021,0.012,0.038,0.033,0.049s0.043,0.005,0.064-0.017c1.311-1.482,2.363-3.169,3.158-5.06c0.15-0.387,0.412-0.682,0.789-0.887
		c0.375-0.203,0.768-0.252,1.176-0.145c0.408,0.086,0.709,0.312,0.902,0.677s0.215,0.73,0.064,1.096
		c-0.021,0.043-0.043,0.086-0.064,0.129c-0.043,0.086-0.01,0.129,0.098,0.129h2.545c0.021,0,0.033,0.011,0.033,0.032
		C207.518,17.51,207.613,17.51,207.699,17.531z M203.574,20.142c-0.129,0-0.225,0.064-0.289,0.193l-0.129,0.161
		c-0.064,0.129-0.076,0.258-0.033,0.387c0.279,0.795,0.666,1.601,1.16,2.417c0.021,0.021,0.055,0.032,0.098,0.032
		s0.074-0.011,0.096-0.032c0.537-0.902,0.988-1.891,1.354-2.965c0.043-0.129-0.01-0.193-0.16-0.193H203.574z M220.107,26.49h-1.516
		c-0.902,0-1.611-0.236-2.127-0.709c-0.451-0.473-0.676-1.493-0.676-3.062v-2.095c0-0.129-0.076-0.193-0.227-0.193h-1.611
		c-0.129,0-0.193,0.064-0.193,0.193c-0.129,2.213-0.773,3.996-1.934,5.35c-0.322,0.322-0.697,0.473-1.127,0.451
		s-0.828-0.193-1.193-0.516c-0.301-0.279-0.457-0.623-0.467-1.031c-0.012-0.408,0.113-0.763,0.371-1.063
		c0.859-1.053,1.289-2.363,1.289-3.932v-0.838c0-0.387,0.139-0.72,0.418-0.999s0.613-0.419,1-0.419h0.129
		c0-0.043,0.021-0.064,0.064-0.064h5.479c0.043,0,0.064,0.021,0.064,0.064h0.096c0.301,0,0.559,0.107,0.773,0.322
		s0.322,0.473,0.322,0.773v3.964c0,0.365,0.012,0.623,0.033,0.773c0.021,0.129,0.074,0.215,0.16,0.258
		c0.043,0.021,0.107,0.032,0.193,0.032h0.516c0.172,0,0.301-0.032,0.387-0.097c0.107-0.064,0.193-0.29,0.258-0.677
		c0.021-0.15,0.043-0.462,0.064-0.935c0.021-0.279,0.166-0.488,0.436-0.629c0.268-0.139,0.531-0.134,0.789,0.017
		c0.387,0.193,0.693,0.462,0.92,0.806c0.225,0.344,0.316,0.709,0.273,1.096c-0.086,0.816-0.193,1.386-0.322,1.708
		c-0.215,0.559-0.57,0.945-1.064,1.16C221.299,26.394,220.773,26.49,220.107,26.49z"/>
	<path d="M234.393,17.273c-0.043-0.107-0.117-0.15-0.225-0.129l-1.225,0.097c-0.15,0.021-0.227,0.097-0.227,0.226v11.73
		c0,0.473-0.16,0.875-0.482,1.209c-0.322,0.332-0.721,0.499-1.193,0.499s-0.875-0.167-1.207-0.499c-0.334-0.334-0.5-0.736-0.5-1.209
		V17.692c0-0.129-0.064-0.183-0.193-0.161l-2.676,0.226c-0.494,0.021-0.924-0.118-1.289-0.419s-0.58-0.688-0.645-1.16
		c-0.043-0.451,0.086-0.854,0.387-1.209c0.301-0.354,0.688-0.553,1.16-0.596c0.129,0,0.258-0.011,0.387-0.032
		c0.129,0,0.236-0.054,0.322-0.161c0.602-0.73,1.031-1.289,1.289-1.676c0.064-0.107,0.064-0.215,0-0.322
		c-0.688-1.053-1.535-2.138-2.545-3.255c-0.301-0.344-0.463-0.741-0.484-1.192s0.098-0.859,0.355-1.225l0.451-0.58
		c0.15-0.193,0.338-0.301,0.564-0.322c0.225-0.021,0.434,0.043,0.627,0.193c0.021,0.043,0.055,0.043,0.098,0
		c0.666-1.311,1.246-2.632,1.74-3.964c0.172-0.451,0.482-0.784,0.934-0.999s0.902-0.236,1.354-0.064
		c0.451,0.193,0.758,0.516,0.92,0.967c0.16,0.451,0.133,0.892-0.082,1.321c-1.139,2.084-2.062,3.674-2.771,4.77
		c-0.086,0.107-0.074,0.215,0.033,0.322c0.279,0.344,0.537,0.677,0.773,0.999c0.043,0.043,0.09,0.064,0.145,0.064
		c0.053,0,0.092-0.021,0.113-0.064c0.709-1.139,1.396-2.331,2.062-3.577c0.236-0.43,0.584-0.72,1.047-0.87
		c0.461-0.15,0.908-0.118,1.338,0.097c0.43,0.193,0.703,0.511,0.822,0.95c0.117,0.441,0.047,0.854-0.211,1.241
		c-1.805,2.729-3.469,5.06-4.994,6.993c-0.021,0.021-0.021,0.054,0,0.097s0.053,0.064,0.096,0.064l2.418-0.193
		c0.129,0,0.172-0.064,0.129-0.193c-0.086-0.193-0.172-0.376-0.258-0.548c-0.172-0.365-0.193-0.741-0.064-1.128
		s0.375-0.655,0.74-0.806c0.408-0.172,0.811-0.188,1.209-0.049c0.396,0.141,0.703,0.393,0.918,0.758
		c1.053,2.041,1.783,3.835,2.191,5.382c0.021,0.129,0.086,0.15,0.193,0.064l0.227-0.193c0.516-0.408,1.105-0.606,1.771-0.597
		c0.666,0.012,1.236,0.242,1.709,0.693c0.365,0.365,0.709,0.72,1.031,1.063c0.322,0.387,0.455,0.833,0.402,1.337
		c-0.055,0.506-0.273,0.93-0.66,1.273c-0.365,0.301-0.785,0.419-1.258,0.354s-0.859-0.29-1.16-0.677
		c-0.623-0.773-1.428-1.633-2.416-2.578c-0.107-0.086-0.215-0.097-0.322-0.032l-0.613,0.258c-0.43,0.215-0.869,0.215-1.32,0
		S234.564,17.768,234.393,17.273z M225.596,20.947c0.064-0.43,0.262-0.773,0.596-1.031c0.332-0.258,0.715-0.354,1.145-0.29
		s0.783,0.274,1.062,0.628c0.279,0.355,0.387,0.758,0.322,1.209c-0.279,2.062-0.697,3.899-1.256,5.511
		c-0.15,0.387-0.426,0.65-0.822,0.79c-0.398,0.14-0.789,0.102-1.176-0.113c-0.387-0.193-0.656-0.488-0.807-0.887
		c-0.15-0.396-0.16-0.811-0.031-1.24C225.037,24.299,225.359,22.773,225.596,20.947z M241.709,22.204
		c0.344-0.215,0.709-0.263,1.096-0.146c0.387,0.119,0.654,0.371,0.805,0.758c0.172,0.408,0.199,0.838,0.082,1.289
		c-0.119,0.451-0.35,0.816-0.693,1.096c-1.182,0.924-2.482,1.912-3.9,2.965c-0.408,0.301-0.865,0.392-1.369,0.273
		c-0.506-0.118-0.887-0.402-1.145-0.854l-0.258-0.483c-0.193-0.344-0.236-0.692-0.129-1.048c0.107-0.354,0.322-0.617,0.645-0.789
		v-0.032l-0.193,0.064c-0.559,0.172-1.078,0.107-1.562-0.193c-0.482-0.301-0.789-0.741-0.918-1.321
		c-0.172-0.773-0.398-1.568-0.678-2.385c-0.129-0.365-0.107-0.72,0.064-1.063s0.441-0.569,0.807-0.677
		c0.387-0.129,0.762-0.107,1.127,0.064s0.623,0.451,0.773,0.838c0.537,1.439,0.902,2.836,1.096,4.189
		c0.021,0.129,0.098,0.161,0.227,0.097C239.023,23.944,240.398,23.063,241.709,22.204z M251.119,17.016
		c0.344-0.387,0.773-0.602,1.289-0.645s0.967,0.086,1.354,0.387c0.387,0.322,0.584,0.73,0.596,1.225
		c0.01,0.494-0.166,0.902-0.531,1.225c-0.967,0.838-1.934,1.622-2.9,2.353c-0.107,0.086-0.119,0.183-0.033,0.29
		c0.967,1.375,2.031,2.492,3.191,3.352c0.408,0.301,0.648,0.693,0.725,1.176c0.074,0.484-0.037,0.93-0.338,1.338
		c-0.322,0.451-0.736,0.735-1.24,0.854c-0.506,0.118-0.973,0.017-1.402-0.306c-1.482-1.289-2.783-3.008-3.9-5.156
		c0-0.021-0.016-0.032-0.047-0.032c-0.033,0-0.049,0.011-0.049,0.032v4.222c0,0.881-0.098,1.558-0.291,2.03
		s-0.559,0.838-1.096,1.096c-0.58,0.279-1.535,0.462-2.867,0.548c-0.494,0.021-0.93-0.124-1.305-0.436
		c-0.377-0.312-0.641-0.714-0.791-1.208c-0.129-0.387-0.074-0.747,0.162-1.079c0.236-0.333,0.559-0.5,0.967-0.5
		c0.344,0,0.719,0,1.127,0c0.344,0,0.516-0.172,0.516-0.516V15.243c0-0.129-0.064-0.193-0.193-0.193h-5.445
		c-0.473,0-0.871-0.161-1.193-0.483s-0.482-0.714-0.482-1.176s0.16-0.854,0.482-1.177s0.721-0.483,1.193-0.483h8.732
		c0.129,0,0.215-0.064,0.258-0.193l0.258-1.16c0.021-0.129-0.031-0.193-0.16-0.193h-5.736c-0.064,0-0.098,0.021-0.098,0.064
		c-0.064,0.215-0.193,0.387-0.387,0.516s-0.396,0.172-0.611,0.129l-1.031-0.161c-0.473-0.086-0.834-0.333-1.08-0.741
		c-0.248-0.408-0.307-0.838-0.178-1.289c0.602-1.955,1.193-4.222,1.773-6.8c0.107-0.494,0.375-0.896,0.805-1.208
		s0.902-0.436,1.418-0.371c0.473,0.043,0.85,0.264,1.129,0.66c0.279,0.398,0.365,0.833,0.258,1.306c0,0.021,0,0.064,0,0.129
		c-0.043,0.107,0,0.161,0.129,0.161h5.092c0-0.021,0.01-0.032,0.031-0.032h0.355c0.021,0,0.043,0,0.064,0h0.031
		c0.344-0.107,0.699-0.129,1.064-0.064l0.805,0.129c0.365,0.043,0.662,0.215,0.887,0.516c0.227,0.301,0.307,0.634,0.242,0.999
		c-0.279,1.676-0.742,4.146-1.387,7.412c-0.043,0.129,0.012,0.193,0.162,0.193h1.934c0.451,0,0.838,0.161,1.16,0.483
		s0.482,0.715,0.482,1.177s-0.16,0.854-0.482,1.176s-0.709,0.483-1.16,0.483h-5.254c-0.15,0-0.203,0.064-0.16,0.193
		c0.301,1.117,0.697,2.267,1.191,3.448c0.043,0.129,0.119,0.15,0.227,0.064C250.023,18.133,250.604,17.553,251.119,17.016z
		 M242.771,7.058c-0.043,0.129,0.012,0.193,0.162,0.193h5.316c0.129,0,0.205-0.064,0.227-0.193l0.225-1.321
		c0.021-0.129-0.031-0.193-0.16-0.193h-5.156c-0.15,0-0.236,0.064-0.258,0.193L242.771,7.058z"/>
	<path d="M273.723,25.942c0,0.129,0.064,0.193,0.193,0.193h10.668c0.537,0,0.992,0.188,1.369,0.563
		c0.375,0.377,0.564,0.828,0.564,1.354c0,0.526-0.189,0.978-0.564,1.354c-0.377,0.376-0.832,0.564-1.369,0.564h-25.846
		c-0.516,0-0.963-0.188-1.338-0.564c-0.377-0.376-0.564-0.827-0.564-1.354c0-0.525,0.188-0.977,0.564-1.354
		c0.375-0.375,0.822-0.563,1.338-0.563h10.666c0.129,0,0.193-0.064,0.193-0.193V19.69c0-0.129-0.064-0.193-0.193-0.193h-6.863
		c-0.516,0-0.963-0.188-1.338-0.563c-0.377-0.376-0.564-0.822-0.564-1.338s0.188-0.961,0.564-1.338
		c0.375-0.375,0.822-0.563,1.338-0.563h6.863c0.129,0,0.193-0.064,0.193-0.193v-5.414c0-0.129-0.064-0.193-0.193-0.193h-6.445
		c-0.129,0-0.225,0.064-0.289,0.193c-0.602,1.096-1.182,2.062-1.74,2.9c-0.322,0.473-0.779,0.752-1.369,0.838
		c-0.592,0.086-1.123-0.043-1.596-0.387c-0.451-0.301-0.725-0.72-0.822-1.257c-0.096-0.537,0.016-1.031,0.338-1.482
		c0.752-1.031,1.451-2.213,2.096-3.545c0.73-1.504,1.342-3.051,1.836-4.641c0.193-0.559,0.537-0.988,1.031-1.289
		s1.021-0.387,1.58-0.258s0.977,0.436,1.256,0.918c0.279,0.484,0.334,0.994,0.162,1.531c-0.236,0.73-0.527,1.547-0.871,2.449
		c-0.043,0.129,0,0.193,0.129,0.193h4.705c0.129,0,0.193-0.064,0.193-0.193V2.191c0-0.58,0.199-1.068,0.598-1.467
		c0.396-0.396,0.885-0.596,1.465-0.596s1.068,0.199,1.467,0.596c0.396,0.398,0.596,0.887,0.596,1.467v3.674
		c0,0.129,0.064,0.193,0.193,0.193h9.023c0.516,0,0.961,0.188,1.338,0.564c0.375,0.376,0.564,0.827,0.564,1.354
		s-0.189,0.978-0.564,1.354c-0.377,0.376-0.832,0.563-1.369,0.563h-8.992c-0.129,0-0.193,0.064-0.193,0.193v5.414
		c0,0.129,0.064,0.193,0.193,0.193h7.768c0.516,0,0.961,0.188,1.338,0.563c0.375,0.377,0.562,0.822,0.562,1.338
		s-0.188,0.962-0.562,1.338c-0.377,0.376-0.822,0.563-1.338,0.563h-7.768c-0.129,0-0.193,0.064-0.193,0.193V25.942z"/>
	<path d="M294.213,11.795c0.473,0.236,0.773,0.612,0.902,1.128s0.043,0.999-0.258,1.45c-0.301,0.43-0.721,0.704-1.258,0.822
		s-1.041,0.037-1.514-0.242c-0.752-0.451-1.719-0.999-2.9-1.644c-0.408-0.236-0.666-0.585-0.773-1.048
		c-0.107-0.461-0.021-0.886,0.258-1.272c0.301-0.408,0.703-0.677,1.207-0.806c0.506-0.129,0.994-0.075,1.467,0.161
		C292.525,10.925,293.482,11.408,294.213,11.795z M292.504,28.746c-0.279,0.473-0.697,0.758-1.256,0.854
		c-0.559,0.098-1.064-0.037-1.516-0.402s-0.719-0.844-0.805-1.434c-0.086-0.591,0.031-1.145,0.354-1.66
		c1.504-2.256,2.9-4.565,4.189-6.929c0.236-0.43,0.596-0.682,1.08-0.757c0.482-0.075,0.896,0.048,1.24,0.37
		c0.43,0.387,0.699,0.865,0.807,1.435s0.021,1.111-0.258,1.627C295.094,24.256,293.814,26.555,292.504,28.746z M295.824,2.804
		c0.451,0.258,0.73,0.65,0.838,1.177s0,1.004-0.322,1.434s-0.758,0.693-1.307,0.789c-0.547,0.098-1.047-0.005-1.498-0.306
		c-0.73-0.43-1.664-0.978-2.803-1.644c-0.408-0.236-0.656-0.591-0.742-1.063s0.012-0.892,0.291-1.257
		c0.322-0.408,0.74-0.671,1.256-0.789s1.01-0.049,1.482,0.209C294.137,1.934,295.072,2.417,295.824,2.804z M317.641,10.216
		c0.365,0.365,0.549,0.806,0.549,1.321s-0.184,0.956-0.549,1.321s-0.805,0.548-1.32,0.548h-6.316c-0.129,0-0.193,0.064-0.193,0.193
		v3.771c0,0.129,0.064,0.193,0.193,0.193h4.285c0.623,0,1.154,0.221,1.596,0.661c0.439,0.44,0.66,0.972,0.66,1.595v9.056
		c0,0.516-0.182,0.956-0.547,1.321s-0.807,0.548-1.322,0.548h-0.773c-0.301,0-0.559-0.107-0.773-0.322s-0.322-0.473-0.322-0.773
		c0-0.064-0.031-0.097-0.096-0.097h-9.732c-0.064,0-0.098,0.043-0.098,0.129c0,0.322-0.123,0.606-0.371,0.854
		c-0.246,0.246-0.541,0.37-0.885,0.37h-0.516c-0.494,0-0.914-0.172-1.258-0.516s-0.516-0.763-0.516-1.257v-9.313
		c0-0.623,0.221-1.154,0.66-1.595c0.441-0.44,0.973-0.661,1.596-0.661h4.287c0.129,0,0.193-0.064,0.193-0.193V13.6
		c0-0.129-0.064-0.193-0.193-0.193h-6.703c-0.516,0-0.957-0.183-1.322-0.548s-0.547-0.806-0.547-1.321s0.182-0.956,0.547-1.321
		s0.807-0.548,1.322-0.548h6.703c0.129,0,0.193-0.064,0.193-0.193v-3.48c0-0.129-0.064-0.183-0.193-0.161
		c-1.332,0.172-2.814,0.344-4.447,0.516c-0.494,0.064-0.945-0.054-1.354-0.354s-0.688-0.688-0.838-1.16
		c-0.15-0.43-0.113-0.832,0.111-1.209c0.227-0.375,0.555-0.585,0.984-0.628c4.727-0.537,8.582-1.268,11.568-2.191
		c0.623-0.193,1.262-0.22,1.918-0.081c0.654,0.141,1.209,0.446,1.66,0.919c0.365,0.365,0.488,0.795,0.369,1.289
		c-0.117,0.494-0.424,0.816-0.918,0.967c-1.461,0.451-3.104,0.849-4.93,1.192c-0.129,0.021-0.193,0.097-0.193,0.226v4.157
		c0,0.129,0.064,0.193,0.193,0.193h6.316C316.836,9.668,317.275,9.851,317.641,10.216z M312.613,26.007
		c0.129,0,0.193-0.064,0.193-0.193v-4.479c0-0.129-0.064-0.193-0.193-0.193h-9.539c-0.129,0-0.193,0.064-0.193,0.193v4.479
		c0,0.129,0.064,0.193,0.193,0.193H312.613z"/>
	<path d="M328.984,15.598c0.086,0.494-0.012,0.956-0.291,1.386s-0.654,0.72-1.127,0.87l-1.289,0.387
		c-0.15,0.043-0.227,0.129-0.227,0.258v8.282c0,1.719-0.439,2.814-1.32,3.287c-0.58,0.344-1.461,0.569-2.643,0.677
		c-0.494,0.043-0.941-0.103-1.338-0.436c-0.398-0.333-0.682-0.768-0.854-1.305c-0.107-0.408-0.043-0.789,0.193-1.145
		c0.236-0.354,0.568-0.531,0.998-0.531c0.301,0,0.613,0,0.936,0c0.344,0,0.516-0.183,0.516-0.548v-7.251
		c0-0.129-0.064-0.172-0.193-0.129c-0.193,0.043-0.506,0.129-0.936,0.258c-0.494,0.129-0.967,0.064-1.418-0.193
		s-0.74-0.645-0.869-1.16c-0.129-0.494-0.061-0.967,0.209-1.418c0.268-0.451,0.66-0.741,1.176-0.87c0.021,0,0.076-0.011,0.162-0.032
		c0.752-0.193,1.311-0.333,1.676-0.419c0.129-0.043,0.193-0.129,0.193-0.258v-5.188c0-0.129-0.064-0.193-0.193-0.193h-1.322
		c-0.494,0-0.918-0.178-1.271-0.531c-0.355-0.355-0.533-0.779-0.533-1.273s0.178-0.918,0.533-1.273
		c0.354-0.354,0.777-0.531,1.271-0.531h1.322c0.129,0,0.193-0.064,0.193-0.193V1.869c0-0.473,0.172-0.881,0.516-1.225
		s0.758-0.516,1.24-0.516c0.484,0,0.896,0.172,1.24,0.516s0.516,0.752,0.516,1.225v4.254c0,0.129,0.076,0.193,0.227,0.193h0.58
		c0.494,0,0.918,0.178,1.273,0.531c0.354,0.355,0.531,0.779,0.531,1.273s-0.178,0.918-0.531,1.273
		c-0.355,0.354-0.779,0.531-1.273,0.531h-0.58c-0.15,0-0.227,0.064-0.227,0.193v4.222c0,0.129,0.076,0.172,0.227,0.129l0.709-0.193
		c0.473-0.107,0.906-0.032,1.305,0.226C328.688,14.76,328.92,15.125,328.984,15.598z M333.076,8.604
		c-0.15,0-0.225,0.064-0.225,0.193v6.832c0,5.951-0.838,10.517-2.514,13.696c-0.215,0.408-0.555,0.645-1.016,0.709
		c-0.463,0.064-0.887-0.043-1.273-0.322c-0.365-0.258-0.602-0.612-0.709-1.063s-0.053-0.881,0.162-1.289
		c0.666-1.289,1.139-2.729,1.418-4.318c0.365-2.213,0.547-4.684,0.547-7.412V7.477c0-0.451,0.166-0.843,0.5-1.176
		c0.332-0.333,0.736-0.5,1.209-0.5h1.676v0.032h3.609c0.129,0,0.193-0.064,0.193-0.193V2.03c0-0.516,0.182-0.956,0.547-1.321
		s0.807-0.548,1.322-0.548h0.387c0.408,0,0.758,0.146,1.047,0.435c0.291,0.291,0.436,0.65,0.436,1.08
		c0,0.086,0.053,0.129,0.16,0.129h6.123c0.365,0,0.682,0.135,0.951,0.402c0.268,0.27,0.402,0.586,0.402,0.951
		s-0.135,0.683-0.402,0.951c-0.27,0.269-0.586,0.402-0.951,0.402h-6.059c-0.15,0-0.225,0.064-0.225,0.193V5.64
		c0,0.129,0.074,0.193,0.225,0.193h5.479c0-0.021,0.012-0.032,0.033-0.032h0.451c0.021,0,0.053,0,0.096,0
		c0.322-0.064,0.656-0.064,1,0l0.676,0.129c0.344,0.086,0.602,0.269,0.773,0.548s0.227,0.58,0.162,0.902
		c-0.279,1.031-0.57,1.987-0.871,2.868c-0.15,0.408-0.414,0.709-0.789,0.902c-0.377,0.193-0.768,0.247-1.176,0.161
		c-0.387-0.086-0.678-0.301-0.871-0.645s-0.246-0.709-0.16-1.096c0.064-0.236,0.129-0.494,0.193-0.773
		c0.021-0.129-0.033-0.193-0.162-0.193h-5.414c-0.15,0-0.225,0.064-0.225,0.193v0.773c0,0.129,0.074,0.183,0.225,0.161l3.094-0.29
		c0.301-0.021,0.564,0.064,0.791,0.258c0.225,0.193,0.354,0.435,0.387,0.726c0.031,0.289-0.045,0.553-0.227,0.789
		c-0.184,0.236-0.424,0.365-0.725,0.387l-3.32,0.29c-0.15,0.021-0.225,0.097-0.225,0.226c0.021,0.365,0.107,0.591,0.258,0.677
		c0.15,0.107,0.504,0.161,1.062,0.161h3.514c0.408,0,0.688-0.086,0.838-0.258h0.031c0.408-0.559,0.838-0.752,1.289-0.58
		c0.086,0.021,0.162,0.043,0.227,0.064c0.408,0.129,0.719,0.354,0.934,0.677s0.248,0.655,0.098,0.999
		c-0.15,0.365-0.344,0.645-0.58,0.838c-0.494,0.387-1.289,0.58-2.385,0.58h-4.352c-1.611,0-2.695-0.215-3.254-0.645
		c-0.516-0.408-0.795-1.16-0.838-2.256c-0.021-0.129-0.098-0.183-0.227-0.161l-1.869,0.193c-0.301,0.021-0.568-0.064-0.805-0.258
		s-0.371-0.44-0.402-0.741c-0.033-0.301,0.047-0.569,0.24-0.806s0.441-0.365,0.742-0.387l2.094-0.161
		c0.129-0.021,0.193-0.097,0.193-0.226V8.798c0-0.129-0.064-0.193-0.193-0.193H333.076z M346.354,19.948
		c0.279-0.258,0.613-0.397,1-0.419s0.73,0.086,1.031,0.322c0.279,0.236,0.418,0.526,0.418,0.87s-0.139,0.623-0.418,0.838
		c-0.559,0.43-1.268,0.935-2.127,1.515c-0.129,0.086-0.15,0.183-0.064,0.29c0.752,1.246,1.633,2.245,2.643,2.997
		c0.344,0.236,0.541,0.564,0.596,0.982c0.053,0.42-0.049,0.79-0.307,1.112c-0.301,0.387-0.666,0.628-1.096,0.726
		c-0.43,0.096-0.826,0.016-1.191-0.242c-2.449-2.084-4.189-5.5-5.221-10.248c-0.043-0.129-0.119-0.15-0.227-0.064
		c-0.537,0.43-1.031,0.784-1.482,1.063c-0.107,0.064-0.117,0.14-0.031,0.226c1.182,1.01,2.029,2.202,2.545,3.577
		c0.537,1.418,0.721,2.702,0.549,3.851c-0.172,1.149-0.559,2.004-1.16,2.562c-0.666,0.688-1.559,1.053-2.676,1.096
		c-0.086,0-0.16,0-0.225,0c-0.387,0-0.736-0.14-1.047-0.419c-0.312-0.279-0.521-0.623-0.629-1.031
		c-0.064-0.301-0.012-0.58,0.16-0.838s0.42-0.387,0.742-0.387c0.129,0,0.268,0,0.418,0c0.344,0,0.613-0.054,0.807-0.161
		c0.236-0.129,0.43-0.365,0.58-0.709c0.15-0.365,0.215-0.87,0.193-1.515c0-0.043-0.021-0.075-0.064-0.097s-0.076-0.021-0.098,0
		c-1.912,1.439-3.932,2.621-6.059,3.545c-0.322,0.129-0.645,0.129-0.967,0s-0.58-0.333-0.773-0.612
		c-0.172-0.236-0.221-0.494-0.145-0.773c0.074-0.279,0.252-0.473,0.531-0.58c1.096-0.365,2.213-0.838,3.352-1.418
		c1.439-0.73,2.6-1.482,3.48-2.256c0.107-0.086,0.119-0.193,0.033-0.322c-0.043-0.086-0.098-0.193-0.162-0.322
		c-0.086-0.129-0.182-0.15-0.289-0.064c-1.268,0.902-2.654,1.665-4.158,2.288c-0.322,0.107-0.627,0.107-0.918,0
		c-0.289-0.107-0.531-0.301-0.725-0.58c-0.15-0.215-0.184-0.451-0.098-0.709s0.258-0.43,0.516-0.516
		c1.611-0.473,3.029-1.106,4.254-1.901c0.107-0.086,0.119-0.172,0.033-0.258l-0.291-0.226c-0.107-0.086-0.215-0.097-0.322-0.032
		c-0.795,0.344-1.547,0.634-2.256,0.87c-0.279,0.086-0.568,0.064-0.869-0.064s-0.527-0.333-0.678-0.612
		c-0.129-0.236-0.145-0.478-0.047-0.726c0.096-0.246,0.273-0.413,0.531-0.499c1.482-0.408,2.836-0.945,4.061-1.611
		c0.021-0.021,0.025-0.043,0.016-0.064c-0.012-0.021-0.027-0.032-0.049-0.032h-3.254c-0.344,0-0.641-0.123-0.887-0.371
		c-0.248-0.246-0.371-0.542-0.371-0.886s0.123-0.639,0.371-0.886c0.246-0.247,0.543-0.371,0.887-0.371h13.535
		c0.344,0,0.639,0.124,0.887,0.371c0.246,0.247,0.369,0.542,0.369,0.886s-0.123,0.64-0.369,0.886
		c-0.248,0.248-0.543,0.371-0.887,0.371h-3.9c-0.15,0-0.203,0.064-0.16,0.193c0.172,0.623,0.418,1.396,0.74,2.32
		c0.043,0.129,0.129,0.15,0.258,0.064C345.58,20.625,345.967,20.292,346.354,19.948z"/>
	<path d="M353.793,29.81c-0.193,0.365-0.5,0.591-0.92,0.677c-0.418,0.086-0.799,0.021-1.143-0.193
		c-0.322-0.172-0.527-0.446-0.613-0.822s-0.031-0.735,0.162-1.079c0.537-0.902,0.945-2.009,1.225-3.319
		c0.086-0.365,0.279-0.645,0.58-0.838s0.633-0.236,0.998-0.129c0.365,0.086,0.656,0.296,0.871,0.629s0.279,0.692,0.193,1.079
		C354.803,27.468,354.352,28.8,353.793,29.81z M353.02,22.881c-0.451,0.043-0.85-0.091-1.193-0.402s-0.525-0.698-0.547-1.16
		s0.123-0.859,0.434-1.193c0.312-0.332,0.693-0.499,1.145-0.499c0.988-0.043,2.332-0.086,4.029-0.129
		c0.15,0,0.225-0.064,0.225-0.193v-1.192c0-0.129-0.074-0.193-0.225-0.193h-3.385c-0.408,0-0.758-0.145-1.047-0.436
		c-0.291-0.289-0.436-0.645-0.436-1.062c0-0.42,0.145-0.773,0.436-1.064c0.289-0.289,0.639-0.435,1.047-0.435h3.385
		c0.15,0,0.225-0.064,0.225-0.193v-0.999c0-0.129-0.074-0.193-0.225-0.193h-2.578c-0.623,0-1.156-0.22-1.596-0.66
		c-0.441-0.44-0.66-0.973-0.66-1.596V3.352c0-0.623,0.219-1.154,0.66-1.596c0.439-0.439,0.973-0.66,1.596-0.66h9.506
		c0.623,0,1.154,0.221,1.596,0.66c0.439,0.441,0.66,0.973,0.66,1.596v7.928c0,0.623-0.221,1.155-0.66,1.596
		c-0.441,0.44-0.973,0.66-1.596,0.66h-3.061c-0.129,0-0.193,0.064-0.193,0.193v0.999c0,0.129,0.064,0.193,0.193,0.193h3.609
		c0.43,0,0.789,0.146,1.078,0.435c0.291,0.291,0.436,0.645,0.436,1.064c0,0.418-0.145,0.773-0.436,1.062
		c-0.289,0.291-0.648,0.436-1.078,0.436h-3.609c-0.129,0-0.193,0.064-0.193,0.193v1.063c0,0.129,0.064,0.193,0.193,0.193
		c0.645-0.021,1.557-0.054,2.738-0.097c0.516-0.021,0.979-0.043,1.387-0.064s0.762,0.113,1.062,0.402
		c0.301,0.291,0.451,0.65,0.451,1.08c-0.021,0.43-0.182,0.795-0.482,1.096s-0.666,0.473-1.096,0.516
		C360.561,22.516,356.629,22.709,353.02,22.881z M354.984,5.414c0-0.021-0.01-0.021-0.031,0v5.35c0,0.129,0.064,0.193,0.193,0.193
		h2.287c0.15,0,0.227-0.064,0.227-0.193V3.932c0-0.129-0.076-0.193-0.227-0.193h-2.287c-0.129,0-0.193,0.064-0.193,0.193v1.063
		c0,0.086,0.043,0.118,0.129,0.097c0.408-0.129,0.795-0.091,1.16,0.113s0.602,0.51,0.709,0.918c0.258,0.859,0.439,1.654,0.547,2.385
		c0.043,0.258-0.01,0.5-0.16,0.725c-0.15,0.227-0.355,0.382-0.613,0.468c-0.236,0.064-0.451,0.027-0.645-0.112
		s-0.311-0.328-0.354-0.564C355.619,7.885,355.371,6.682,354.984,5.414z M355.855,25.104c-0.043-0.322,0.031-0.617,0.225-0.886
		s0.451-0.425,0.773-0.468c0.344-0.043,0.656,0.038,0.936,0.241c0.279,0.205,0.451,0.468,0.516,0.79
		c0.193,1.139,0.322,2.234,0.387,3.287c0,0.365-0.113,0.682-0.34,0.95c-0.225,0.269-0.52,0.436-0.885,0.5
		c-0.322,0.043-0.607-0.043-0.855-0.258c-0.246-0.215-0.381-0.494-0.402-0.838C356.166,27.414,356.049,26.308,355.855,25.104z
		 M359.303,24.911c-0.086-0.301-0.053-0.591,0.098-0.87s0.387-0.451,0.709-0.516s0.633-0.011,0.934,0.161s0.506,0.419,0.613,0.741
		c0.387,1.139,0.676,2.191,0.869,3.158c0.064,0.344,0,0.66-0.193,0.951c-0.193,0.289-0.461,0.478-0.805,0.563
		c-0.322,0.086-0.619,0.032-0.887-0.161c-0.27-0.193-0.436-0.451-0.5-0.773C359.969,27.221,359.689,26.136,359.303,24.911z
		 M362.881,5.156c0.107,0.043,0.16,0.011,0.16-0.097V3.932c0-0.129-0.074-0.193-0.225-0.193h-2.611
		c-0.129,0-0.193,0.064-0.193,0.193v4.995c0,0.021,0.006,0.032,0.016,0.032c0.012,0,0.027-0.011,0.049-0.032
		c0.322-0.988,0.592-1.869,0.807-2.643c0.107-0.451,0.359-0.784,0.756-0.999C362.037,5.07,362.451,5.027,362.881,5.156z
		 M360.012,10.764c0,0.129,0.064,0.193,0.193,0.193h2.611c0.15,0,0.225-0.064,0.225-0.193v-4.77c0-0.021-0.01-0.032-0.031-0.032
		s-0.043,0.011-0.064,0.032l-1.096,2.739c-0.129,0.344-0.365,0.591-0.709,0.741s-0.688,0.15-1.031,0
		c-0.064-0.021-0.098,0.011-0.098,0.097V10.764z M362.752,24.621c-0.172-0.301-0.205-0.606-0.098-0.918s0.312-0.521,0.613-0.629
		c0.344-0.129,0.691-0.14,1.047-0.032c0.354,0.107,0.629,0.322,0.822,0.645c0.602,0.967,1.084,1.891,1.449,2.771
		c0.15,0.365,0.145,0.726-0.016,1.079c-0.162,0.355-0.424,0.607-0.789,0.758c-0.322,0.15-0.645,0.15-0.967,0
		s-0.549-0.397-0.678-0.741C363.814,26.651,363.354,25.674,362.752,24.621z M381.168,7.461c0.355,0.354,0.533,0.778,0.533,1.272
		s-0.178,0.919-0.533,1.272c-0.354,0.355-0.777,0.532-1.271,0.532h-4.416c-0.129,0-0.193,0.064-0.193,0.193v4.705
		c0,0.129,0.064,0.193,0.193,0.193h2.9c0.623,0,1.154,0.221,1.596,0.661c0.439,0.44,0.66,0.972,0.66,1.595v11.054
		c0,0.516-0.182,0.956-0.547,1.321s-0.807,0.548-1.322,0.548h-0.74c-0.322,0-0.586-0.107-0.791-0.322
		c-0.203-0.215-0.305-0.473-0.305-0.773c0-0.064-0.033-0.097-0.098-0.097h-6.025c-0.064,0-0.098,0.043-0.098,0.129
		c0,0.322-0.123,0.606-0.371,0.854c-0.246,0.246-0.541,0.37-0.885,0.37h-0.516c-0.494,0-0.914-0.172-1.258-0.516
		s-0.516-0.763-0.516-1.257V17.886c0-0.623,0.221-1.154,0.66-1.595c0.441-0.44,0.973-0.661,1.596-0.661h1.838
		c0.15,0,0.225-0.064,0.225-0.193V2.062c0-0.516,0.188-0.961,0.564-1.338c0.375-0.375,0.822-0.563,1.338-0.563
		s0.961,0.188,1.336,0.563c0.377,0.377,0.564,0.822,0.564,1.338v4.673c0,0.129,0.064,0.193,0.193,0.193h4.416
		C380.391,6.929,380.814,7.105,381.168,7.461z M376.705,26.104c0.15,0,0.227-0.064,0.227-0.193V19.4
		c0-0.129-0.076-0.193-0.227-0.193h-5.801c-0.129,0-0.193,0.064-0.193,0.193v6.51c0,0.129,0.064,0.193,0.193,0.193H376.705z"/>
</g>
</svg>
