<?xml version="1.0" encoding="utf-8"?>
<!-- Generator: Adobe Illustrator 21.1.0, SVG Export Plug-In . SVG Version: 6.00 Build 0)  -->
<svg version="1.1" id="圖層_1" xmlns="http://www.w3.org/2000/svg" xmlns:xlink="http://www.w3.org/1999/xlink" x="0px" y="0px"
	 viewBox="0 0 332.4 80" style="enable-background:new 0 0 332.4 80;" xml:space="preserve">
<g>
	<path d="M116.9,59.4c0.6,0.5,1,1.2,1,2c0.1,0.8-0.1,1.6-0.6,2.2c-0.4,0.6-1,0.8-1.7,0.8c-0.7,0-1.3-0.3-1.8-0.8
		c-0.7-0.8-1.5-1.7-2.4-2.7c0-0.1-0.1-0.1-0.1,0c0,0-0.1,0.1-0.1,0.1v15.1c0,0.8-0.3,1.4-0.8,2s-1.2,0.8-1.9,0.8
		c-0.8,0-1.4-0.3-2-0.8c-0.5-0.5-0.8-1.2-0.8-2V62.6c0,0,0-0.1-0.1-0.1c-0.1,0-0.1,0-0.1,0c-1.1,1-2.1,1.8-3.2,2.6
		c-0.6,0.4-1.3,0.5-2,0.3c-0.7-0.2-1.3-0.7-1.6-1.4c-0.4-0.7-0.5-1.4-0.3-2.2c0.2-0.8,0.6-1.4,1.2-1.8c1.7-1.2,3.4-2.6,5-4.1
		c2.3-2.3,4.2-4.7,5.8-7.4c0-0.1,0-0.1,0-0.2c0-0.1-0.1-0.1-0.1-0.1h-8.6c-0.7,0-1.3-0.3-1.8-0.8c-0.5-0.5-0.8-1.1-0.8-1.8
		s0.3-1.3,0.8-1.8c0.5-0.5,1.1-0.8,1.8-0.8h3.9c0.2,0,0.3-0.1,0.3-0.3v-5.7c0-0.7,0.3-1.4,0.8-1.9c0.5-0.5,1.2-0.8,1.9-0.8
		c0.8,0,1.4,0.3,1.9,0.8s0.8,1.2,0.8,1.9v5.7c0,0.2,0.1,0.3,0.3,0.3h1.8c0.1,0,0.1,0,0.1,0c0.6-0.2,1.2-0.1,1.7,0.3L116,44
		c0.5,0.3,0.8,0.7,1,1.3c0.2,0.5,0.1,1-0.1,1.5c-1.3,2.8-2.8,5.6-4.7,8.2c-0.1,0.2-0.1,0.3,0,0.4C114.1,56.9,115.7,58.2,116.9,59.4z
		 M132.6,71.6c0,0.2,0.1,0.3,0.3,0.3h7.1c0.7,0,1.4,0.3,1.9,0.8c0.5,0.5,0.8,1.2,0.8,1.9c0,0.7-0.3,1.4-0.8,1.9
		c-0.5,0.5-1.2,0.8-1.9,0.8h-21.4c-0.7,0-1.4-0.3-1.9-0.8c-0.5-0.5-0.8-1.2-0.8-1.9c0-0.7,0.3-1.4,0.8-1.9c0.5-0.5,1.2-0.8,1.9-0.8
		h7.8c0.2,0,0.3-0.1,0.3-0.3V54.8c0-0.2-0.1-0.3-0.3-0.3h-5.9c-0.7,0-1.4-0.3-1.9-0.8s-0.8-1.2-0.8-1.9c0-0.7,0.3-1.4,0.8-1.9
		c0.5-0.5,1.2-0.8,1.9-0.8h5.9c0.2,0,0.3-0.1,0.3-0.3v-11c0-0.8,0.3-1.4,0.9-2c0.6-0.6,1.3-0.9,2-0.9s1.5,0.3,2,0.9
		c0.6,0.6,0.9,1.2,0.9,2v11c0,0.2,0.1,0.3,0.3,0.3h5.9c0.7,0,1.4,0.3,1.9,0.8c0.5,0.5,0.8,1.2,0.8,1.9c0,0.7-0.3,1.4-0.8,1.9
		s-1.2,0.8-1.9,0.8h-5.9c-0.2,0-0.3,0.1-0.3,0.3V71.6z"/>
	<path d="M152.6,52.8c0.9,0,1.7,0.3,2.3,1c0.6,0.6,1,1.4,1,2.3v11.4c0,0.2,0,0.4,0.1,0.5c1.9,2.7,5.3,4.2,10.2,4.5
		c2.8,0.1,6.4,0.1,11,0c3.2-0.1,6.1-0.2,8.5-0.3c0.7,0,1.2,0.2,1.6,0.8c0.4,0.6,0.5,1.2,0.3,1.8c-0.2,0.9-0.7,1.6-1.4,2.2
		c-0.7,0.6-1.4,0.9-2.3,0.9c-6.3,0.2-12.2,0.2-17.8,0c-3-0.1-5.5-0.6-7.5-1.4c-1.9-0.8-3.6-2-5.1-3.7c-0.1-0.2-0.3-0.2-0.4,0
		c-1.4,1.3-2.7,2.4-3.9,3.5c-0.6,0.5-1.3,0.7-2.2,0.5c-0.8-0.2-1.4-0.6-1.8-1.4c-0.4-0.8-0.4-1.7-0.2-2.6c0.2-0.9,0.8-1.6,1.5-2.1
		c1.2-0.8,2.4-1.6,3.5-2.5c0.2-0.1,0.2-0.3,0.2-0.5v-9.5c0-0.2-0.1-0.3-0.3-0.3h-2.6c-0.7,0-1.3-0.3-1.8-0.8
		c-0.5-0.5-0.8-1.1-0.8-1.8s0.3-1.3,0.8-1.8c0.5-0.5,1.1-0.8,1.8-0.8C147.4,52.8,152.6,52.8,152.6,52.8z M155.3,40.6
		c0.6,0.6,0.8,1.3,0.7,2.1c-0.1,0.8-0.5,1.5-1.1,2c-0.6,0.5-1.3,0.7-2,0.6c-0.8-0.1-1.4-0.5-1.9-1c-1-1.1-2.3-2.4-3.8-3.7
		c-0.5-0.4-0.8-1-0.8-1.7c0-0.7,0.3-1.3,0.8-1.7c0.6-0.5,1.3-0.7,2.1-0.8c0.8,0,1.5,0.2,2.1,0.7C152.9,38.4,154.2,39.5,155.3,40.6z
		 M158.1,52.5c-0.5-0.5-0.7-1-0.7-1.6c0-0.6,0.2-1.2,0.7-1.6c0.5-0.5,1-0.7,1.6-0.7h0.6c0,0,0.1,0,0.1,0c0,0,0-0.1,0-0.1
		c-0.5-0.3-1-0.6-1.4-0.9c-0.6-0.4-1-1-1.1-1.8c-0.1-0.8,0.1-1.5,0.6-2.1c1.4-1.7,2.6-3.8,3.6-6.1c0.3-0.7,0.8-1.3,1.4-1.6
		c0.7-0.4,1.4-0.5,2.1-0.3c0.7,0.2,1.2,0.6,1.6,1.2c0.3,0.6,0.4,1.3,0.1,1.9c-0.1,0.3-0.2,0.6-0.4,0.8c0,0.1,0,0.1,0,0.2
		c0,0.1,0.1,0.1,0.1,0.1h2.8c0.2,0,0.3-0.1,0.3-0.3v-2.2c0-0.8,0.3-1.4,0.8-2s1.2-0.8,2-0.8s1.4,0.3,2,0.8c0.5,0.5,0.8,1.2,0.8,2
		v2.2c0,0.2,0.1,0.3,0.3,0.3h7.7c0.7,0,1.3,0.2,1.7,0.7c0.5,0.5,0.7,1,0.7,1.7s-0.2,1.2-0.7,1.7c-0.5,0.5-1,0.7-1.7,0.7h-7.7
		c-0.2,0-0.3,0.1-0.3,0.3v3.5c0,0.2,0.1,0.3,0.3,0.3h9.7c0.6,0,1.2,0.2,1.6,0.7c0.5,0.5,0.7,1,0.7,1.6c0,0.6-0.2,1.2-0.7,1.6
		c-0.5,0.5-1,0.7-1.6,0.7h-25.9C159.1,53.2,158.5,53,158.1,52.5z M170,44.8c0-0.2-0.1-0.3-0.3-0.3h-5.4c-0.2,0-0.3,0.1-0.5,0.2
		c-0.9,1.4-1.9,2.6-2.8,3.6c0,0.1,0,0.1,0,0.2c0,0,0.1,0.1,0.1,0.1h8.6c0.2,0,0.3-0.1,0.3-0.3V44.8z M185.2,66.3
		c0,0.9-0.3,1.7-1,2.3c-0.6,0.6-1.4,1-2.3,1h-17.5c-0.9,0-1.7-0.3-2.3-1c-0.6-0.6-0.9-1.4-0.9-2.3v-7.2c0-0.9,0.3-1.7,0.9-2.3
		c0.6-0.6,1.4-1,2.3-1h17.5c0.9,0,1.7,0.3,2.3,1c0.6,0.6,1,1.4,1,2.3C185.2,59.1,185.2,66.3,185.2,66.3z M167,60.3
		c-0.2,0-0.3,0.1-0.3,0.3v4.3c0,0.2,0.1,0.3,0.3,0.3h12.1c0.2,0,0.3-0.1,0.3-0.3v-4.3c0-0.2-0.1-0.3-0.3-0.3H167z"/>
	<path d="M194,77.1c-0.3,0.5-0.7,0.9-1.3,1c-0.6,0.1-1.2,0-1.6-0.3c-0.5-0.2-0.8-0.6-0.9-1.2c-0.1-0.5,0-1.1,0.2-1.6
		c0.8-1.3,1.4-2.9,1.8-4.8c0.1-0.5,0.4-0.9,0.8-1.2c0.4-0.3,0.9-0.3,1.4-0.2c0.5,0.1,0.9,0.4,1.3,0.9c0.3,0.5,0.4,1,0.3,1.6
		C195.4,73.8,194.8,75.7,194,77.1z M192.9,67.2c-0.7,0.1-1.2-0.1-1.7-0.6c-0.5-0.4-0.8-1-0.8-1.7c0-0.7,0.2-1.2,0.6-1.7
		c0.4-0.5,1-0.7,1.6-0.7c1.4-0.1,3.4-0.1,5.8-0.2c0.2,0,0.3-0.1,0.3-0.3v-1.7c0-0.2-0.1-0.3-0.3-0.3h-4.9c-0.6,0-1.1-0.2-1.5-0.6
		c-0.4-0.4-0.6-0.9-0.6-1.5s0.2-1.1,0.6-1.5c0.4-0.4,0.9-0.6,1.5-0.6h4.9c0.2,0,0.3-0.1,0.3-0.3V54c0-0.2-0.1-0.3-0.3-0.3h-3.7
		c-0.9,0-1.7-0.3-2.3-1s-1-1.4-1-2.3V39.1c0-0.9,0.3-1.7,1-2.3s1.4-1,2.3-1h13.7c0.9,0,1.7,0.3,2.3,1c0.6,0.6,0.9,1.4,0.9,2.3v11.4
		c0,0.9-0.3,1.7-0.9,2.3c-0.6,0.6-1.4,1-2.3,1H204c-0.2,0-0.3,0.1-0.3,0.3v1.4c0,0.2,0.1,0.3,0.3,0.3h5.2c0.6,0,1.1,0.2,1.6,0.6
		c0.4,0.4,0.6,0.9,0.6,1.5c0,0.6-0.2,1.1-0.6,1.5c-0.4,0.4-0.9,0.6-1.6,0.6H204c-0.2,0-0.3,0.1-0.3,0.3v1.5c0,0.2,0.1,0.3,0.3,0.3
		c0.9,0,2.2-0.1,3.9-0.1c0.7,0,1.4-0.1,2-0.1c0.6,0,1.1,0.2,1.5,0.6c0.4,0.4,0.6,0.9,0.6,1.6c0,0.6-0.3,1.1-0.7,1.6
		c-0.4,0.4-1,0.7-1.6,0.7C203.7,66.6,198.1,66.9,192.9,67.2z M195.7,42C195.7,42,195.7,42,195.7,42l0,7.7c0,0.2,0.1,0.3,0.3,0.3h3.3
		c0.2,0,0.3-0.1,0.3-0.3v-9.8c0-0.2-0.1-0.3-0.3-0.3h-3.3c-0.2,0-0.3,0.1-0.3,0.3v1.5c0,0.1,0.1,0.2,0.2,0.1
		c0.6-0.2,1.1-0.1,1.7,0.2c0.5,0.3,0.9,0.7,1,1.3c0.4,1.2,0.6,2.4,0.8,3.4c0.1,0.4,0,0.7-0.2,1c-0.2,0.3-0.5,0.5-0.9,0.7
		c-0.3,0.1-0.6,0-0.9-0.2c-0.3-0.2-0.4-0.5-0.5-0.8C196.6,45.6,196.3,43.9,195.7,42z M196.9,70.4c-0.1-0.5,0-0.9,0.3-1.3
		c0.3-0.4,0.6-0.6,1.1-0.7c0.5-0.1,0.9,0.1,1.3,0.3c0.4,0.3,0.7,0.7,0.7,1.1c0.3,1.6,0.5,3.2,0.6,4.7c0,0.5-0.2,1-0.5,1.4
		c-0.3,0.4-0.8,0.6-1.3,0.7c-0.5,0.1-0.9-0.1-1.2-0.4c-0.4-0.3-0.6-0.7-0.6-1.2C197.4,73.7,197.2,72.1,196.9,70.4z M201.9,70.1
		c-0.1-0.4-0.1-0.9,0.1-1.3c0.2-0.4,0.6-0.6,1-0.7c0.5-0.1,0.9,0,1.3,0.2c0.4,0.2,0.7,0.6,0.9,1.1c0.6,1.6,1,3.2,1.3,4.5
		c0.1,0.5,0,1-0.3,1.4c-0.3,0.4-0.7,0.7-1.2,0.8c-0.5,0.1-0.9,0-1.3-0.2s-0.6-0.6-0.7-1.1C202.9,73.4,202.5,71.9,201.9,70.1z
		 M207.1,41.7c0.2,0.1,0.2,0,0.2-0.1v-1.6c0-0.2-0.1-0.3-0.3-0.3h-3.8c-0.2,0-0.3,0.1-0.3,0.3v7.2c0,0,0,0,0,0s0,0,0.1,0
		c0.5-1.4,0.9-2.7,1.2-3.8c0.2-0.6,0.5-1.1,1.1-1.4C205.8,41.5,206.4,41.5,207.1,41.7z M202.9,49.7c0,0.2,0.1,0.3,0.3,0.3h3.8
		c0.2,0,0.3-0.1,0.3-0.3v-6.9c0,0,0,0,0,0c0,0-0.1,0-0.1,0l-1.6,3.9c-0.2,0.5-0.5,0.9-1,1.1c-0.5,0.2-1,0.2-1.5,0
		c-0.1,0-0.1,0-0.1,0.1V49.7z M206.9,69.7c-0.2-0.4-0.3-0.9-0.1-1.3c0.2-0.4,0.4-0.7,0.9-0.9c0.5-0.2,1-0.2,1.5,0
		c0.5,0.2,0.9,0.5,1.2,0.9c0.9,1.4,1.6,2.7,2.1,4c0.2,0.5,0.2,1,0,1.6c-0.2,0.5-0.6,0.9-1.1,1.1c-0.5,0.2-0.9,0.2-1.4,0
		c-0.5-0.2-0.8-0.6-1-1.1C208.4,72.6,207.7,71.2,206.9,69.7z M233.4,45c0.5,0.5,0.8,1.1,0.8,1.8s-0.3,1.3-0.8,1.8
		c-0.5,0.5-1.1,0.8-1.8,0.8h-6.4c-0.2,0-0.3,0.1-0.3,0.3v6.8c0,0.2,0.1,0.3,0.3,0.3h4.2c0.9,0,1.7,0.3,2.3,1
		c0.6,0.6,0.9,1.4,0.9,2.3v15.9c0,0.7-0.3,1.4-0.8,1.9c-0.5,0.5-1.2,0.8-1.9,0.8h-1.1c-0.5,0-0.8-0.2-1.1-0.5
		c-0.3-0.3-0.4-0.7-0.4-1.1c0-0.1,0-0.1-0.1-0.1h-8.7c-0.1,0-0.1,0.1-0.1,0.2c0,0.5-0.2,0.9-0.5,1.2c-0.4,0.4-0.8,0.5-1.3,0.5h-0.7
		c-0.7,0-1.3-0.2-1.8-0.7c-0.5-0.5-0.7-1.1-0.7-1.8V60c0-0.9,0.3-1.7,1-2.3c0.6-0.6,1.4-1,2.3-1h2.6c0.2,0,0.3-0.1,0.3-0.3V37.2
		c0-0.7,0.3-1.4,0.8-1.9c0.5-0.5,1.2-0.8,1.9-0.8s1.4,0.3,1.9,0.8c0.5,0.5,0.8,1.2,0.8,1.9v6.7c0,0.2,0.1,0.3,0.3,0.3h6.4
		C232.3,44.2,232.9,44.5,233.4,45z M227,71.8c0.2,0,0.3-0.1,0.3-0.3v-9.4c0-0.2-0.1-0.3-0.3-0.3h-8.3c-0.2,0-0.3,0.1-0.3,0.3v9.4
		c0,0.2,0.1,0.3,0.3,0.3H227z"/>
</g>
<g>
	<path d="M153.1,9c0.4,0,0.7,0.1,1,0.4c0.3,0.3,0.4,0.6,0.4,1v2.2c0,0.5-0.1,0.9-0.2,1.2c-0.1,0.3-0.4,0.5-0.8,0.6
		c-0.5,0.2-1.4,0.3-2.7,0.3c0,0,0,0,0,0s0,0,0,0c1.3,0.7,2.7,1.2,4.2,1.5c0.3,0.1,0.5,0.2,0.6,0.5c0.1,0.3,0.1,0.5-0.1,0.8
		c-0.2,0.3-0.5,0.6-0.9,0.7s-0.7,0.2-1.1,0c-2-0.7-3.8-1.6-5.4-2.9c0,0,0,0-0.1,0c0,0,0,0,0,0.1v2.6c0,0.4-0.1,0.7-0.4,1
		s-0.6,0.4-1,0.4c-0.4,0-0.7-0.1-1-0.4c-0.3-0.3-0.4-0.6-0.4-1v-2.7c0,0,0,0,0,0c0,0,0,0-0.1,0c-1.6,1.4-3.5,2.4-5.6,3.1
		c-0.4,0.1-0.7,0.1-1.1,0c-0.4-0.1-0.6-0.4-0.9-0.7c-0.2-0.2-0.2-0.5-0.1-0.8c0.1-0.3,0.3-0.5,0.5-0.5c1.3-0.3,2.5-0.8,3.7-1.4
		c1.5-0.7,2.6-1.6,3.5-2.5c0.1-0.1,0.1-0.1,0.1-0.2v-1.2c0-0.1,0-0.1-0.1-0.1h-3.8c-0.1,0-0.1,0-0.1,0.1v2.3c0,0.4-0.1,0.7-0.4,0.9
		c-0.3,0.3-0.6,0.4-0.9,0.4c-0.4,0-0.7-0.1-0.9-0.4c-0.3-0.3-0.4-0.6-0.4-0.9v-3.1c0-0.4,0.1-0.7,0.4-1c0.3-0.3,0.6-0.4,1-0.4h5.1
		c0.1,0,0.1,0,0.1-0.1V8.1c0-0.1,0-0.1-0.1-0.1h-6.8c-0.3,0-0.6-0.1-0.8-0.3c-0.2-0.2-0.3-0.5-0.3-0.8c0-0.3,0.1-0.5,0.3-0.8
		c0.2-0.2,0.5-0.3,0.8-0.3h3.2c0.1,0,0.1,0,0.1-0.1c-0.2-0.6-0.5-1.2-1-2c0-0.1-0.1-0.1-0.2-0.1h-0.1c-0.1,0-0.1,0-0.2,0.1
		c-0.3,0.4-0.5,0.7-0.8,1.1c-0.2,0.3-0.5,0.4-0.9,0.4c-0.4,0-0.7-0.1-1-0.3c-0.2-0.2-0.4-0.4-0.4-0.7c0-0.3,0.1-0.6,0.3-0.8
		c0.7-0.7,1.3-1.6,1.8-2.6c0.2-0.3,0.4-0.6,0.7-0.7c0.3-0.2,0.6-0.2,1-0.1l0.1,0c0.3,0.1,0.5,0.3,0.6,0.5c0.1,0.3,0.1,0.5,0,0.8
		c0,0.1,0,0.1,0.1,0.1h3c0.4,0,0.7,0.1,1,0.4c0.3,0.3,0.4,0.6,0.4,1v0.2c0,0,0,0,0,0c0,0,0,0,0.1,0c0.5-0.6,1-1.4,1.4-2.2
		c0.2-0.3,0.4-0.6,0.7-0.7c0.3-0.2,0.7-0.2,1-0.1l0.1,0c0.3,0.1,0.5,0.3,0.7,0.5c0.1,0.3,0.1,0.6,0,0.8c0,0.1,0,0.1,0.1,0.1h4.7
		c0.3,0,0.5,0.1,0.7,0.3s0.3,0.4,0.3,0.7c0,0.3-0.1,0.5-0.3,0.7s-0.4,0.3-0.7,0.3h-2.3c0,0,0,0-0.1,0s0,0.1,0,0.1
		c0.1,0.1,0.1,0.2,0.2,0.3c0.1,0.3,0.2,0.6,0,0.8c-0.1,0.3-0.3,0.5-0.6,0.6c-0.3,0.1-0.6,0.1-0.9-0.1c-0.3-0.1-0.5-0.4-0.7-0.7
		c-0.1-0.3-0.3-0.6-0.6-1c0-0.1-0.1-0.1-0.2-0.1H149c-0.1,0-0.1,0-0.2,0.1c-0.2,0.3-0.5,0.7-0.8,1C148,4.8,148,4.9,148,4.9v0.7
		c0,0.1,0,0.1,0.1,0.1h6.4c0.3,0,0.5,0.1,0.8,0.3c0.2,0.2,0.3,0.5,0.3,0.8c0,0.3-0.1,0.5-0.3,0.8C155,7.8,154.8,8,154.5,8h-6.4
		C148,8,148,8,148,8.1v0.8c0,0.1,0,0.1,0.1,0.1H153.1z M142.2,5.8C142.2,5.8,142.2,5.8,142.2,5.8C142.2,5.8,142.2,5.8,142.2,5.8
		l3.1,0c0.1,0,0.1,0,0.1-0.1V5c0-0.1,0-0.2,0.1-0.2c0.1-0.1,0.1-0.1,0.2-0.1v0c0,0,0,0,0,0c-0.1-0.1-0.2-0.2-0.2-0.4
		c0-0.2,0-0.3,0.2-0.4c0.1-0.1,0.1-0.1,0.2-0.2c0,0,0,0,0,0c0,0,0,0,0,0h-2.4c0,0,0,0-0.1,0s0,0.1,0,0.1c0,0,0,0,0,0.1
		c0.2,0.3,0.2,0.7,0,1.1c-0.1,0.4-0.4,0.6-0.8,0.7L142.2,5.8z M148.1,11.1c-0.1,0-0.1,0-0.1,0.1v1.6c0,0.1,0,0.1,0.1,0.2
		c0.6,0.5,1.4,1.1,2.4,1.6c0,0,0.1,0,0.1,0c0,0,0,0,0-0.1c0-0.1-0.1-0.3-0.2-0.5c-0.1-0.3-0.1-0.6,0.1-0.9c0.2-0.3,0.4-0.4,0.7-0.4
		c0.1,0,0.2,0,0.3,0c0.2,0,0.3-0.1,0.3-0.3v-1.4c0-0.1,0-0.1-0.1-0.1L148.1,11.1L148.1,11.1z"/>
	<path d="M173.7,1.9c0.2-0.1,0.5,0,0.7,0.1l0.5,0.2c0.2,0.1,0.4,0.3,0.5,0.5c0.1,0.2,0.1,0.5,0,0.7c-0.7,1.6-1.7,3.1-2.9,4.5
		c-0.1,0.1,0,0.1,0,0.2c1,0.8,2.1,1.4,3.3,1.9c0.3,0.1,0.5,0.3,0.5,0.6c0.1,0.3,0,0.6-0.2,0.8c-0.2,0.3-0.4,0.6-0.6,0.9
		c-0.1,0.1-0.2,0.1-0.3,0.1c0,0,0,0,0,0v5.7c0,0.3-0.1,0.6-0.4,0.9c-0.2,0.2-0.5,0.4-0.9,0.4h-0.6c-0.2,0-0.4-0.1-0.5-0.2
		c-0.1-0.1-0.2-0.3-0.2-0.5c0,0,0-0.1-0.1-0.1h-4.2c0,0-0.1,0-0.1,0.1c0,0.2-0.1,0.4-0.2,0.5c-0.1,0.1-0.3,0.2-0.5,0.2h-0.5
		c-0.3,0-0.6-0.1-0.8-0.3c-0.2-0.2-0.3-0.5-0.3-0.8v-5.7c0,0,0,0,0,0c-0.1,0.1-0.3,0.1-0.4,0c-0.1,0-0.2-0.1-0.3-0.3
		c-0.1-0.2-0.2-0.4-0.3-0.5c0,0,0,0,0,0c0,0,0,0,0,0v1.9c0,0.4-0.1,0.7-0.4,1c-0.3,0.3-0.6,0.4-1,0.4h-3.9c-0.1,0-0.1,0-0.1,0.1v0.7
		c0,0.2-0.1,0.5-0.3,0.6c-0.2,0.2-0.4,0.3-0.6,0.3c-0.3,0-0.5-0.1-0.6-0.3c-0.2-0.2-0.3-0.4-0.3-0.6V2.6c0-0.4,0.1-0.7,0.4-1
		c0.3-0.3,0.6-0.4,1-0.4h4.4c0.4,0,0.7,0.1,1,0.4c0.3,0.3,0.4,0.6,0.4,1V5c0,0,0,0,0,0c0,0,0,0,0.1,0c1.2-1.2,2.2-2.5,3-4.1
		c0.2-0.3,0.4-0.5,0.7-0.7c0.3-0.1,0.6-0.2,1-0.1c0.3,0.1,0.5,0.3,0.7,0.6c0.1,0.3,0.1,0.6,0,0.9c0,0.1-0.1,0.2-0.1,0.3
		c0,0,0,0.1,0,0.1c0,0,0,0,0.1,0h3c0,0,0,0,0,0H173.7C173.7,1.9,173.7,1.9,173.7,1.9z M160.4,3.4c0-0.1,0-0.1-0.1-0.1h-0.7
		c-0.1,0-0.1,0-0.1,0.1v3.5c0,0.1,0,0.1,0.1,0.1h0.7c0.1,0,0.1,0,0.1-0.1V3.4z M159.6,9c-0.1,0-0.1,0-0.1,0.1v3.9
		c0,0.1,0,0.1,0.1,0.1h0.7c0.1,0,0.1,0,0.1-0.1V9.2c0-0.1,0-0.1-0.1-0.1H159.6z M162.9,7c0.1,0,0.1,0,0.1-0.1V3.4
		c0-0.1,0-0.1-0.1-0.1h-0.8c-0.1,0-0.1,0-0.1,0.1v3.5c0,0.1,0,0.1,0.1,0.1C162.1,7,162.9,7,162.9,7z M162,13.1c0,0.1,0,0.1,0.1,0.1
		h0.8c0.1,0,0.1,0,0.1-0.1V9.2c0-0.1,0-0.1-0.1-0.1h-0.8c-0.1,0-0.1,0-0.1,0.1V13.1z M165,6.6C165,6.6,165,6.6,165,6.6
		C164.9,6.6,164.9,6.7,165,6.6l-0.1,3.9c0,0,0,0,0,0.1c0,0,0.1,0,0.1,0c1.4-0.6,2.7-1.4,3.9-2.4C169,8.1,169,8,169,8
		c-0.5-0.6-1-1.3-1.4-1.9c0-0.1-0.1-0.1-0.1,0c-0.2,0.2-0.4,0.4-0.6,0.6c-0.2,0.2-0.5,0.4-0.9,0.3C165.6,7,165.3,6.9,165,6.6z
		 M168,11.6C168,11.6,168,11.7,168,11.6C168,11.7,168,11.7,168,11.6l5.4,0.1c0,0,0,0,0,0c0,0,0,0,0,0c-1-0.6-1.8-1.2-2.6-1.8
		c-0.1-0.1-0.1-0.1-0.2,0C169.8,10.5,168.9,11.1,168,11.6z M168.4,16.5c0,0.1,0,0.1,0.1,0.1h4.1c0.1,0,0.1,0,0.1-0.1V14
		c0-0.1,0-0.1-0.1-0.1h-4.1c-0.1,0-0.1,0-0.1,0.1V16.5z M172.4,4.1C172.4,4.1,172.4,4.1,172.4,4.1c0-0.1,0-0.1-0.1-0.1h-3.3
		c-0.1,0-0.1,0-0.2,0.1c0,0.1-0.1,0.1,0,0.2c0.5,0.7,1,1.4,1.7,2.1c0.1,0.1,0.1,0.1,0.2,0C171.3,5.7,171.9,5,172.4,4.1z"/>
	<path d="M177.5,17.9c-0.2-0.2-0.4-0.5-0.4-0.9s0.1-0.7,0.4-0.9s0.5-0.4,0.9-0.4h15.6c0.4,0,0.7,0.1,0.9,0.4s0.4,0.5,0.4,0.9
		s-0.1,0.7-0.4,0.9s-0.5,0.4-0.9,0.4h-15.6C178.1,18.2,177.8,18.1,177.5,17.9z M178.7,4.1c-0.2-0.2-0.4-0.5-0.4-0.9
		c0-0.3,0.1-0.6,0.4-0.9s0.5-0.4,0.9-0.4H193c0.4,0,0.7,0.1,0.9,0.4c0.2,0.2,0.4,0.5,0.4,0.9c0,0.3-0.1,0.6-0.4,0.9
		s-0.5,0.4-0.9,0.4h-13.4C179.3,4.4,179,4.3,178.7,4.1z M180.2,10.8c-0.2-0.2-0.4-0.5-0.4-0.9s0.1-0.7,0.4-0.9s0.5-0.4,0.9-0.4h10.2
		c0.4,0,0.7,0.1,0.9,0.4s0.4,0.5,0.4,0.9s-0.1,0.7-0.4,0.9s-0.5,0.4-0.9,0.4h-10.2C180.7,11.2,180.4,11,180.2,10.8z"/>
</g>
</svg>
