<?xml version="1.0" encoding="utf-8"?>
<!-- Generator: Adobe Illustrator 21.1.0, SVG Export Plug-In . SVG Version: 6.00 Build 0)  -->
<svg version="1.1" id="圖層_1" xmlns="http://www.w3.org/2000/svg" xmlns:xlink="http://www.w3.org/1999/xlink" x="0px" y="0px"
	 viewBox="0 0 332.4 76.5" style="enable-background:new 0 0 332.4 76.5;" xml:space="preserve">
<g>
	<path d="M29,42.1c0,2.1-1.4,4-3.6,4c-2.2,0-3.9-1.6-7.2-1.6c-2.3,0-4.4,1.2-4.4,3.5c0,5.6,18.1,2,18.1,16c0,7.7-6.4,12.5-13.8,12.5
		c-4.2,0-13.1-1-13.1-6.1c0-2.1,1.4-3.8,3.6-3.8c2.5,0,5.6,2.1,9.1,2.1c3.6,0,5.5-2,5.5-4.7C23.1,57.6,5,61.5,5,48.9
		c0-7.6,6.2-12.3,13.4-12.3C21.4,36.7,29,37.8,29,42.1z"/>
	<path d="M35.8,41.5c0-2.5,1.5-4.2,4.2-4.2h9.6c8,0,13.8,5.2,13.8,12.9c0,7.9-6.1,12.8-13.5,12.8h-6v8.9c0,2.7-1.7,4.2-4.1,4.2
		c-2.3,0-4.1-1.5-4.1-4.2C35.8,71.9,35.8,41.5,35.8,41.5z M44,55.9h5.5c3.4,0,5.6-2.5,5.6-5.7s-2.2-5.7-5.6-5.7H44V55.9z"/>
	<path d="M72.9,41.1c0.9-2.5,3-4.5,5.8-4.5c2.9,0,4.9,1.9,5.8,4.5l10.6,29.4c0.3,0.9,0.4,1.6,0.4,2c0,2.1-1.7,3.6-3.7,3.6
		c-2.3,0-3.4-1.2-3.9-2.8l-1.6-5.1h-15l-1.6,5c-0.5,1.7-1.7,2.9-3.9,2.9c-2.2,0-4-1.6-4-3.8c0-0.9,0.3-1.5,0.4-1.8L72.9,41.1z
		 M73.5,60.8h10.3l-5-15.7h-0.1L73.5,60.8z"/>
	<path d="M114.3,36.7c3.9,0,11.6,1.3,11.6,6.1c0,1.9-1.4,3.6-3.4,3.6c-2.2,0-3.7-1.9-8.3-1.9c-6.7,0-10.2,5.7-10.2,12.3
		c0,6.4,3.5,12,10.2,12c4.5,0,6.4-2.3,8.6-2.3c2.4,0,3.6,2.4,3.6,3.7c0,5.2-8.2,6.4-12.2,6.4c-11,0-18.6-8.7-18.6-19.9
		C95.7,45.3,103.3,36.7,114.3,36.7z"/>
	<path d="M130.3,42c0-2.7,1.4-4.7,4.2-4.7h13.4c2.6,0,3.8,1.8,3.8,3.7c0,1.8-1.3,3.7-3.8,3.7h-9.5v7.9h8.9c2.7,0,3.9,1.8,3.9,3.7
		c0,1.8-1.4,3.7-3.9,3.7h-8.9v8.2h10c2.6,0,3.8,1.8,3.8,3.7c0,1.8-1.3,3.7-3.8,3.7h-14c-2.4,0-4.2-1.6-4.2-4.1V42z"/>
	<path d="M194.8,42.1c0,2.1-1.4,4-3.6,4c-2.2,0-3.9-1.6-7.2-1.6c-2.3,0-4.4,1.2-4.4,3.5c0,5.6,18.1,2,18.1,16
		c0,7.7-6.4,12.5-13.8,12.5c-4.2,0-13.1-1-13.1-6.1c0-2.1,1.4-3.8,3.6-3.8c2.5,0,5.6,2.1,9.1,2.1c3.6,0,5.5-2,5.5-4.7
		c0-6.4-18.1-2.5-18.1-15.1c0-7.6,6.2-12.3,13.4-12.3C187.2,36.7,194.8,37.8,194.8,42.1z"/>
	<path d="M201.6,41.2c0-2.7,1.7-4.2,4.1-4.2c2.3,0,4.1,1.5,4.1,4.2v11.5h17V41.2c0-2.7,1.7-4.2,4.1-4.2s4.1,1.5,4.1,4.2v30.7
		c0,2.7-1.7,4.2-4.1,4.2s-4.1-1.5-4.1-4.2V60.1h-17v11.8c0,2.7-1.7,4.2-4.1,4.2c-2.3,0-4.1-1.5-4.1-4.2V41.2z"/>
	<path d="M248.9,41.1c0.9-2.5,3-4.5,5.8-4.5c2.9,0,4.9,1.9,5.8,4.5l10.6,29.4c0.3,0.9,0.4,1.6,0.4,2c0,2.1-1.7,3.6-3.7,3.6
		c-2.3,0-3.4-1.2-3.9-2.8l-1.6-5.1h-15l-1.6,5c-0.5,1.7-1.7,2.9-3.9,2.9c-2.2,0-4-1.6-4-3.8c0-0.9,0.3-1.5,0.4-1.8L248.9,41.1z
		 M249.5,60.8h10.3l-5-15.7h-0.1L249.5,60.8z"/>
	<path d="M274.3,41.5c0-2.6,1.5-4.2,4.2-4.2h9.5c8.3,0,13.5,3.7,13.5,12.2c0,5.9-4.5,9.4-10,10.2l9.2,9.8c0.8,0.8,1.1,1.6,1.1,2.4
		c0,2.1-1.7,4.2-4.1,4.2c-1,0-2.3-0.4-3.1-1.4l-12-14.6h-0.1v11.7c0,2.7-1.7,4.2-4.1,4.2c-2.3,0-4.1-1.5-4.1-4.2V41.5L274.3,41.5z
		 M282.4,54.3h5.6c3,0,5-1.8,5-4.8c0-3.1-2.1-4.8-5-4.8h-5.6V54.3z"/>
	<path d="M305.6,42c0-2.7,1.4-4.7,4.2-4.7h13.4c2.6,0,3.8,1.8,3.8,3.7c0,1.8-1.3,3.7-3.8,3.7h-9.5v7.9h8.9c2.7,0,3.9,1.8,3.9,3.7
		c0,1.8-1.4,3.7-3.9,3.7h-8.9v8.2h10c2.6,0,3.8,1.8,3.8,3.7c0,1.8-1.3,3.7-3.8,3.7h-14c-2.4,0-4.2-1.6-4.2-4.1L305.6,42L305.6,42
		L305.6,42z"/>
</g>
<g>
	<path d="M155.1,9c0.4,0,0.7,0.1,1,0.4c0.3,0.3,0.4,0.6,0.4,1v2.2c0,0.5-0.1,0.9-0.2,1.2c-0.1,0.3-0.4,0.5-0.8,0.6
		c-0.5,0.2-1.4,0.3-2.7,0.3c0,0,0,0,0,0s0,0,0,0c1.3,0.7,2.7,1.2,4.2,1.5c0.3,0.1,0.5,0.2,0.6,0.5c0.1,0.3,0.1,0.5-0.1,0.8
		c-0.2,0.3-0.5,0.6-0.9,0.7c-0.4,0.2-0.7,0.2-1.1,0c-2-0.7-3.8-1.6-5.4-2.9c0,0,0,0-0.1,0c0,0,0,0,0,0.1v2.6c0,0.4-0.1,0.7-0.4,1
		c-0.3,0.3-0.6,0.4-1,0.4c-0.4,0-0.7-0.1-1-0.4c-0.3-0.3-0.4-0.6-0.4-1v-2.7c0,0,0,0,0,0c0,0,0,0-0.1,0c-1.6,1.4-3.5,2.4-5.6,3.1
		c-0.4,0.1-0.7,0.1-1.1,0c-0.4-0.1-0.6-0.4-0.9-0.7c-0.2-0.2-0.2-0.5-0.1-0.8c0.1-0.3,0.3-0.5,0.5-0.5c1.3-0.3,2.5-0.8,3.7-1.4
		c1.5-0.7,2.6-1.6,3.5-2.5c0.1-0.1,0.1-0.1,0.1-0.2v-1.2c0-0.1,0-0.1-0.1-0.1h-3.8c-0.1,0-0.1,0-0.1,0.1v2.3c0,0.4-0.1,0.7-0.4,0.9
		c-0.3,0.3-0.6,0.4-0.9,0.4c-0.4,0-0.7-0.1-0.9-0.4c-0.3-0.3-0.4-0.6-0.4-0.9v-3.1c0-0.4,0.1-0.7,0.4-1c0.3-0.3,0.6-0.4,1-0.4h5.1
		c0.1,0,0.1,0,0.1-0.1V8.1c0-0.1,0-0.1-0.1-0.1h-6.8c-0.3,0-0.6-0.1-0.8-0.3c-0.2-0.2-0.3-0.5-0.3-0.8c0-0.3,0.1-0.5,0.3-0.8
		c0.2-0.2,0.5-0.3,0.8-0.3h3.2c0.1,0,0.1,0,0.1-0.1c-0.2-0.6-0.5-1.2-1-2c0-0.1-0.1-0.1-0.2-0.1h-0.1c-0.1,0-0.2,0-0.2,0.1
		c-0.3,0.4-0.5,0.7-0.8,1.1c-0.2,0.3-0.5,0.4-0.9,0.4c-0.4,0-0.7-0.1-1-0.3c-0.2-0.2-0.4-0.4-0.4-0.7c0-0.3,0.1-0.6,0.3-0.8
		c0.7-0.7,1.3-1.6,1.8-2.6c0.1-0.3,0.4-0.6,0.7-0.7c0.3-0.2,0.6-0.2,1-0.1l0.1,0c0.3,0.1,0.5,0.3,0.6,0.5c0.1,0.3,0.1,0.5,0,0.8
		c0,0.1,0,0.1,0.1,0.1h3c0.4,0,0.7,0.1,1,0.4c0.3,0.3,0.4,0.6,0.4,1v0.2c0,0,0,0,0,0c0,0,0,0,0.1,0c0.5-0.6,1-1.4,1.4-2.2
		c0.2-0.3,0.4-0.6,0.7-0.7c0.3-0.2,0.7-0.2,1-0.1l0.1,0c0.3,0.1,0.5,0.3,0.7,0.5c0.1,0.3,0.1,0.6,0,0.8c0,0.1,0,0.1,0.1,0.1h4.7
		c0.3,0,0.5,0.1,0.7,0.3s0.3,0.4,0.3,0.7c0,0.3-0.1,0.5-0.3,0.7s-0.4,0.3-0.7,0.3h-2.3c0,0,0,0-0.1,0s0,0.1,0,0.1
		c0.1,0.1,0.1,0.2,0.2,0.3c0.1,0.3,0.2,0.6,0,0.8c-0.1,0.3-0.3,0.5-0.6,0.6c-0.3,0.1-0.6,0.1-0.9-0.1c-0.3-0.1-0.5-0.4-0.7-0.7
		c-0.1-0.3-0.3-0.6-0.6-1c0-0.1-0.1-0.1-0.2-0.1h-0.8c-0.1,0-0.1,0-0.2,0.1c-0.2,0.3-0.5,0.7-0.8,1c-0.1,0.1-0.1,0.1-0.1,0.2v0.7
		c0,0.1,0,0.1,0.1,0.1h6.4c0.3,0,0.5,0.1,0.7,0.3c0.2,0.2,0.3,0.5,0.3,0.8c0,0.3-0.1,0.5-0.3,0.8c-0.2,0.2-0.5,0.3-0.7,0.3h-6.4
		c-0.1,0-0.1,0-0.1,0.1v0.8c0,0.1,0,0.1,0.1,0.1L155.1,9L155.1,9L155.1,9z M144.2,5.8C144.2,5.8,144.2,5.8,144.2,5.8
		C144.2,5.8,144.2,5.8,144.2,5.8l3.1,0c0.1,0,0.1,0,0.1-0.1V5c0-0.1,0-0.2,0.1-0.2c0.1-0.1,0.1-0.1,0.2-0.1v0c0,0,0,0,0,0
		c-0.1-0.1-0.2-0.2-0.2-0.4s0-0.3,0.2-0.4c0.1-0.1,0.1-0.1,0.2-0.2c0,0,0,0,0,0c0,0,0,0,0,0h-2.4c0,0,0,0-0.1,0s0,0.1,0,0.1
		c0,0,0,0,0,0.1c0.2,0.3,0.2,0.7,0,1.1c-0.1,0.4-0.4,0.6-0.8,0.7L144.2,5.8z M150.2,11.1c-0.1,0-0.1,0-0.1,0.1v1.6
		c0,0.1,0,0.1,0.1,0.2c0.6,0.5,1.4,1.1,2.4,1.6c0,0,0.1,0,0.1,0c0,0,0,0,0-0.1c0-0.1-0.1-0.3-0.2-0.5c-0.1-0.3-0.1-0.6,0.1-0.9
		c0.2-0.3,0.4-0.4,0.7-0.4c0.1,0,0.2,0,0.3,0c0.2,0,0.3-0.1,0.3-0.3v-1.4c0-0.1,0-0.1-0.1-0.1L150.2,11.1L150.2,11.1z"/>
	<path d="M175.8,1.9c0.2-0.1,0.5,0,0.7,0.1l0.5,0.2c0.2,0.1,0.4,0.3,0.5,0.5c0.1,0.2,0.1,0.5,0,0.7c-0.7,1.6-1.7,3.1-2.9,4.5
		c-0.1,0.1,0,0.1,0,0.2c1,0.8,2.1,1.4,3.3,1.9c0.3,0.1,0.5,0.3,0.5,0.6c0.1,0.3,0,0.6-0.2,0.8c-0.2,0.3-0.4,0.6-0.6,0.9
		c-0.1,0.1-0.2,0.1-0.3,0.1c0,0,0,0,0,0v5.7c0,0.3-0.1,0.6-0.4,0.9c-0.2,0.2-0.5,0.4-0.9,0.4h-0.6c-0.2,0-0.4-0.1-0.5-0.2
		c-0.1-0.1-0.2-0.3-0.2-0.5c0,0,0-0.1-0.1-0.1h-4.2c0,0-0.1,0-0.1,0.1c0,0.2-0.1,0.4-0.2,0.5c-0.1,0.1-0.3,0.2-0.5,0.2h-0.5
		c-0.3,0-0.6-0.1-0.8-0.3c-0.2-0.2-0.3-0.5-0.3-0.8v-5.7c0,0,0,0,0,0c-0.1,0.1-0.3,0.1-0.4,0c-0.1,0-0.2-0.1-0.3-0.3
		c-0.1-0.2-0.2-0.4-0.3-0.5c0,0,0,0,0,0c0,0,0,0,0,0v1.9c0,0.4-0.1,0.7-0.4,1c-0.3,0.3-0.6,0.4-1,0.4h-3.9c-0.1,0-0.1,0-0.1,0.1v0.7
		c0,0.2-0.1,0.5-0.3,0.6c-0.2,0.2-0.4,0.3-0.6,0.3c-0.3,0-0.5-0.1-0.6-0.3c-0.2-0.2-0.3-0.4-0.3-0.6V2.6c0-0.4,0.1-0.7,0.4-1
		c0.3-0.3,0.6-0.4,1-0.4h4.4c0.4,0,0.7,0.1,1,0.4c0.3,0.3,0.4,0.6,0.4,1V5c0,0,0,0,0,0c0,0,0,0,0.1,0c1.2-1.2,2.2-2.5,3-4.1
		c0.2-0.3,0.4-0.5,0.7-0.7c0.3-0.1,0.6-0.2,1-0.1c0.3,0.1,0.5,0.3,0.7,0.6c0.1,0.3,0.1,0.6,0,0.9c0,0.1-0.1,0.2-0.1,0.3
		c0,0,0,0.1,0,0.1c0,0,0,0,0.1,0h3c0,0,0,0,0,0L175.8,1.9C175.7,1.9,175.7,1.9,175.8,1.9z M162.5,3.4c0-0.1,0-0.1-0.1-0.1h-0.7
		c-0.1,0-0.1,0-0.1,0.1v3.5c0,0.1,0,0.1,0.1,0.1h0.7c0.1,0,0.1,0,0.1-0.1V3.4z M161.6,9c-0.1,0-0.1,0-0.1,0.1v3.9
		c0,0.1,0,0.1,0.1,0.1h0.7c0.1,0,0.1,0,0.1-0.1V9.2c0-0.1,0-0.1-0.1-0.1H161.6z M165,7c0.1,0,0.1,0,0.1-0.1V3.4c0-0.1,0-0.1-0.1-0.1
		h-0.8c-0.1,0-0.1,0-0.1,0.1v3.5c0,0.1,0,0.1,0.1,0.1L165,7L165,7z M164,13.1c0,0.1,0,0.1,0.1,0.1h0.8c0.1,0,0.1,0,0.1-0.1V9.2
		c0-0.1,0-0.1-0.1-0.1h-0.8c-0.1,0-0.1,0-0.1,0.1V13.1z M167,6.6C167,6.6,167,6.6,167,6.6C167,6.6,167,6.7,167,6.6l-0.1,3.9
		c0,0,0,0,0,0.1c0,0,0.1,0,0.1,0c1.4-0.6,2.7-1.4,3.9-2.4c0.1-0.1,0.1-0.1,0-0.2c-0.5-0.6-1-1.3-1.4-1.9c0-0.1-0.1-0.1-0.1,0
		c-0.2,0.2-0.4,0.4-0.6,0.6c-0.2,0.2-0.5,0.4-0.9,0.3C167.6,7,167.3,6.9,167,6.6z M170.1,11.6C170.1,11.6,170,11.7,170.1,11.6
		C170.1,11.7,170.1,11.7,170.1,11.6l5.4,0.1c0,0,0,0,0,0c0,0,0,0,0,0c-1-0.6-1.8-1.2-2.6-1.8c-0.1-0.1-0.1-0.1-0.2,0
		C171.9,10.5,171,11.1,170.1,11.6z M170.5,16.5c0,0.1,0,0.1,0.1,0.1h4.1c0.1,0,0.1,0,0.1-0.1V14c0-0.1,0-0.1-0.1-0.1h-4.1
		c-0.1,0-0.1,0-0.1,0.1V16.5z M174.5,4.1C174.5,4.1,174.5,4.1,174.5,4.1c0-0.1,0-0.1-0.1-0.1h-3.3c-0.1,0-0.1,0-0.2,0.1
		c0,0.1-0.1,0.1,0,0.2c0.5,0.7,1,1.4,1.7,2.1c0.1,0.1,0.1,0.1,0.2,0C173.4,5.7,174,5,174.5,4.1z"/>
	<path d="M194.5,15.9c0,0.1,0,0.1,0.1,0.1h2c0.3,0,0.6,0.1,0.9,0.4c0.2,0.2,0.4,0.5,0.4,0.9c0,0.4-0.1,0.6-0.4,0.9
		c-0.2,0.2-0.5,0.4-0.9,0.4h-16.3c-0.3,0-0.6-0.1-0.9-0.4c-0.2-0.2-0.4-0.5-0.4-0.9c0-0.3,0.1-0.6,0.4-0.9c0.2-0.2,0.5-0.4,0.9-0.4
		h3.1c0.1,0,0.1,0,0.2-0.1c0.5-1.9,0.9-3.7,1.2-5.4c0-0.1,0-0.1-0.1-0.1h-2.4c-0.3,0-0.6-0.1-0.9-0.4c-0.2-0.2-0.4-0.5-0.4-0.9
		c0-0.3,0.1-0.6,0.4-0.9c0.2-0.2,0.5-0.4,0.9-0.4h2.9c0.1,0,0.1,0,0.1-0.1c0.3-1.4,0.5-2.6,0.6-3.4c0-0.1,0-0.1-0.1-0.1h-4.2
		c-0.3,0-0.6-0.1-0.9-0.4c-0.2-0.2-0.4-0.5-0.4-0.9s0.1-0.6,0.4-0.9c0.2-0.2,0.5-0.4,0.9-0.4h13.6c0.3,0,0.6,0.1,0.9,0.4
		c0.2,0.2,0.4,0.5,0.4,0.9s-0.1,0.6-0.4,0.9c-0.2,0.2-0.5,0.4-0.9,0.4h-6.4c-0.1,0-0.1,0-0.1,0.1c-0.3,1.8-0.6,3-0.7,3.4
		c0,0.1,0,0.1,0.1,0.1h4.9c0.4,0,0.7,0.1,1,0.4c0.3,0.3,0.4,0.6,0.4,1L194.5,15.9L194.5,15.9z M191.9,10.5c0-0.1,0-0.1-0.1-0.1h-4.1
		c-0.1,0-0.1,0-0.1,0.1c-0.4,2.2-0.8,4-1.2,5.4c0,0.1,0,0.1,0.1,0.1h5.3c0.1,0,0.1,0,0.1-0.1L191.9,10.5L191.9,10.5z"/>
</g>
</svg>
