<svg version="1.1" xmlns="http://www.w3.org/2000/svg" xmlns:xlink="http://www.w3.org/1999/xlink" x="0px" y="0px"
	 width="876.617px" height="517.496px" viewBox="0 0 876.617 517.496" enable-background="new 0 0 876.617 517.496"
	 xml:space="preserve">
<g class="area urs23">
	<g>
		<rect class="rect urs1" x="315.888" y="158.48" fill="#40B8ED" width="58.442" height="25.502"/>
		<rect class="rect urs1" x="281.46" y="161.668" fill="#40B8ED" width="37.828" height="36.129"/>
		<rect class="rect urs2" x="259.358" y="183.982" fill="#B2E2EE" width="22.102" height="13.814"/>
		<rect class="rect urs3" x="259.358" y="197.797" fill="#F1555C" width="15.514" height="16.15"/>
		<rect class="rect" x="319.288" y="180.795" fill="#FFFFFF" width="44.417" height="14.664"/>
		<path fill="none" stroke="#000000" stroke-miterlimit="10" d="M402.808,224.998c0,0.936-0.766,1.701-1.701,1.701h-159.6
			c-0.936,0-1.466-0.729-1.178-1.618l30.404-94.098c0.288-0.89,1.289-1.618,2.225-1.618h128.147c0.937,0,1.701,0.766,1.701,1.701
			L402.808,224.998L402.808,224.998z"/>
		<path fill="none" stroke="#000000" stroke-width="3" stroke-miterlimit="10" d="M374.331,160.182c0-0.936-0.766-1.701-1.7-1.701
			H317.59c-0.937,0-1.701,0.717-1.701,1.594s-0.767,1.594-1.701,1.594h-31.025c-0.936,0-1.701,0.766-1.701,1.701v18.912
			c0,0.936-0.766,1.701-1.7,1.701h-18.7c-0.937,0-1.701,0.766-1.701,1.701v26.562c0,0.936,0.766,1.701,1.701,1.701h12.11
			c0.937,0,1.701-0.766,1.701-1.701v-12.748c0-0.936,0.767-1.701,1.701-1.701h41.015c0.936,0,1.7-0.526,1.7-1.169
			s0.767-1.169,1.701-1.169h41.016c0.936,0,1.7-0.766,1.7-1.701v-8.074c0-0.936,0.767-1.701,1.701-1.701h7.225
			c0.936,0,1.7-0.766,1.7-1.701V160.182L374.331,160.182z"/>
	</g>
	<g>
		<g>
			<g>
				<rect x="260.068" y="90.475" fill="#231F20" width="2.542" height="18.193"/>
				<path fill="#231F20" d="M269.713,101.432c2.1-0.838,3.096-2.49,3.096-5.268c0-4.012-1.94-5.689-5.951-5.689h-2.438v2.412h2.438
					c2.254,0,3.328,1.074,3.328,3.33c0,2.096-0.838,3.486-3.303,3.486h-2.465v2.408h2.778l2.91,6.557h2.804L269.713,101.432z"/>
			</g>
			<g>
				<path fill="#231F20" d="M253.989,90.475v12.529c0,2.209-1.161,3.119-3.028,3.338v2.52c3.633-0.244,5.598-1.943,5.598-5.857
					v-12.53H253.989z"/>
				<path fill="#231F20" d="M249.154,106.359c-1.867-0.195-3.055-1.092-3.055-3.355V90.475h-2.543v12.529
					c0,3.947,1.993,5.646,5.598,5.867V106.359L249.154,106.359z"/>
			</g>
			<g>
				<path fill="#231F20" d="M282.629,90.197v2.465c1.729,0.107,4.224,0.406,4.224,0.406l0.208-2.307
					C287.06,90.762,284.604,90.328,282.629,90.197z"/>
				<path fill="#231F20" d="M280.576,106.441c-1.89-0.088-4.441-0.424-4.441-0.424l-0.263,2.307c0,0,2.707,0.459,4.704,0.576
					V106.441z"/>
				<path fill="#231F20" d="M282.266,98.287c-3.093-0.76-4.166-1.182-4.166-3.119c0-1.527,0.934-2.307,2.723-2.486v-2.477
					c-3.271,0.234-5.292,1.848-5.292,5.014c0,3.383,1.758,4.457,5.607,5.35c2.829,0.654,3.748,1.203,3.748,2.934
					c0,1.811-0.831,2.664-2.504,2.893v2.482c3.101-0.281,5.045-1.959,5.045-5.455C287.427,100.227,285.959,99.254,282.266,98.287z"
					/>
			</g>
		</g>
		<g>
			<path d="M293.115,109.019v-2.8l4.547-4.52c2.302-2.356,3.633-3.826,3.633-5.767c0-1.774-1.081-2.551-3.301-2.551
				c-1.885,0-4.547,0.499-4.547,0.499l-0.222-2.745c0,0,2.994-0.721,5.518-0.721c3.771,0,5.768,1.663,5.768,5.102
				c0,2.855-1.109,4.491-3.659,7.042l-3.66,3.549h7.68v2.911L293.115,109.019L293.115,109.019z"/>
			<path d="M312.44,90.416c4.325,0,6.045,1.58,6.045,4.907c0,2.356-1.358,3.354-2.356,4.021c1.664,0.748,2.744,1.607,2.744,4.271
				c0,3.798-1.969,5.711-6.017,5.711c-2.717,0-5.961-0.638-5.961-0.638l0.306-2.661c0,0,3.188,0.388,5.239,0.388
				c2.08,0,3.217-0.942,3.217-2.717c0-1.83-1.248-2.523-2.994-2.578h-3.576V98.4h3.549c1.331,0,2.634-1.247,2.634-2.605
				c0-1.747-1.164-2.468-3.05-2.468c-2.245,0-4.796,0.416-4.796,0.416l-0.307-2.634C307.117,91.109,310.14,90.416,312.44,90.416z"/>
		</g>
	</g>
</g>
<g class="area urs27m">
	<g>
		<path fill="none" stroke="#000000" stroke-miterlimit="10" d="M649.688,131.066c0-0.936-0.766-1.701-1.701-1.701H489.592
			c-0.937,0-1.701,0.766-1.701,1.701v64.604c0,0.936,0.766,1.701,1.701,1.701h22.95c0.936,0,1.7,0.766,1.7,1.701v20.967
			c0,0.936,0.767,1.701,1.701,1.701h17.851c0.936,0,1.7,0.766,1.7,1.701v0.848c0,0.936,0.767,1.701,1.701,1.701h12.466
			c0.937,0,1.701,0.766,1.701,1.701v1.982c0,0.936,0.766,1.701,1.701,1.701h43.92c0.936,0,1.701-0.766,1.701-1.701v-30.602
			c0-0.936,0.766-1.701,1.701-1.701h47.601c0.937,0,1.701-0.766,1.701-1.701L649.688,131.066L649.688,131.066z"/>
		<polygon class="rect urs1" fill="#40B8ED" points="598.968,170.17 598.968,176.119 543.713,176.119 543.713,196.521 560.43,196.521 560.43,216.924 
			572.614,216.924 572.614,202.756 597.833,202.756 597.833,216.924 644.021,216.924 644.021,170.17 		"/>
		<rect class="rect urs3" x="572.614" y="202.756" fill="#F1555C" width="17.001" height="14.168"/>
		<rect class="rect urs3" x="543.713" y="196.521" fill="#F1555C" width="16.718" height="20.402"/>
		<polygon class="rect urs2" fill="#B2E2EE" points="487.89,124.832 487.89,163.369 514.808,163.369 514.808,146.367 535.21,146.367 535.21,124.832 		
			"/>
		<path fill="none" stroke="#000000" stroke-width="3" stroke-miterlimit="10" d="M489.592,124.832
			c-0.937,0-1.701,0.766-1.701,1.701v35.135c0,0.936,0.766,1.701,1.701,1.701h23.516c0.937,0,1.701-0.766,1.701-1.701v-13.6
			c0-0.936,0.766-1.701,1.701-1.701h16.999c0.936,0,1.701-0.766,1.701-1.701v-18.133c0-0.936-0.767-1.701-1.701-1.701H489.592
			L489.592,124.832z"/>
		<path fill="none" stroke="#000000" stroke-width="3" stroke-miterlimit="10" d="M600.669,170.17c-0.937,0-1.701,0.766-1.701,1.701
			v2.547c0,0.936-0.767,1.701-1.701,1.701h-51.854c-0.936,0-1.7,0.766-1.7,1.701v37.402c0,0.936,0.766,1.701,1.7,1.701h96.056
			c0.936,0,1.701-0.766,1.701-1.701V171.87c0-0.936-0.767-1.701-1.701-1.701L600.669,170.17L600.669,170.17z"/>
	</g>
	<g>
		<g>
			<g>
				<rect x="504.401" y="90.475" fill="#231F20" width="2.542" height="18.193"/>
				<path fill="#231F20" d="M514.047,101.432c2.099-0.838,3.096-2.49,3.096-5.268c0-4.012-1.94-5.689-5.952-5.689h-2.438v2.412
					h2.438c2.254,0,3.328,1.074,3.328,3.33c0,2.096-0.837,3.486-3.302,3.486h-2.464v2.408h2.777l2.909,6.557h2.805L514.047,101.432z
					"/>
			</g>
			<g>
				<path fill="#231F20" d="M498.322,90.475v12.529c0,2.209-1.16,3.119-3.027,3.338v2.52c3.632-0.244,5.597-1.943,5.597-5.857
					v-12.53H498.322z"/>
				<path fill="#231F20" d="M493.487,106.359c-1.866-0.195-3.055-1.092-3.055-3.355V90.475h-2.543v12.529
					c0,3.947,1.994,5.646,5.598,5.867V106.359z"/>
			</g>
			<g>
				<path fill="#231F20" d="M526.964,90.197v2.465c1.728,0.107,4.222,0.406,4.222,0.406l0.209-2.307
					C531.394,90.762,528.938,90.328,526.964,90.197z"/>
				<path fill="#231F20" d="M524.909,106.441c-1.889-0.088-4.439-0.424-4.439-0.424l-0.264,2.307c0,0,2.706,0.459,4.703,0.576
					V106.441z"/>
				<path fill="#231F20" d="M526.599,98.287c-3.091-0.76-4.165-1.182-4.165-3.119c0-1.527,0.933-2.307,2.723-2.486v-2.477
					c-3.271,0.234-5.292,1.848-5.292,5.014c0,3.383,1.757,4.457,5.606,5.35c2.831,0.654,3.748,1.203,3.748,2.934
					c0,1.811-0.831,2.664-2.503,2.893v2.482c3.1-0.281,5.044-1.959,5.044-5.455C531.76,100.227,530.292,99.254,526.599,98.287z"/>
			</g>
		</g>
		<g>
			<path d="M537.449,109.019v-2.8l4.547-4.52c2.302-2.356,3.633-3.826,3.633-5.767c0-1.774-1.081-2.551-3.301-2.551
				c-1.885,0-4.547,0.499-4.547,0.499l-0.222-2.745c0,0,2.994-0.721,5.518-0.721c3.771,0,5.768,1.663,5.768,5.102
				c0,2.855-1.109,4.491-3.659,7.042l-3.66,3.549h7.681v2.911L537.449,109.019L537.449,109.019z"/>
			<path d="M551.016,89.693h11.257v3.798l-6.654,14.972l-2.911-0.859l6.351-14.167v-0.805h-8.041L551.016,89.693L551.016,89.693z"/>
			<path d="M564.892,89.833h5.13l4.354,14.999l4.381-14.999h5.046v19.186h-3.078V93.465h-0.388l-4.354,14.777h-3.217l-4.38-14.777
				h-0.416v15.554h-3.078V89.833z"/>
		</g>
	</g>
</g>
<g class="area urs127">
	<g>
		<g>
			<g>
				<path d="M339.867,372.474h-0.88c-0.553,0-1.001-0.448-1.001-1.001s0.448-1.002,1.001-1.002h2.132c0.553,0,1.001,0.446,1.002,0.999
		c0,0.021-0.001,0.042-0.001,0.063v8.539c0.058,0.622-0.398,1.173-1.02,1.232c-0.622,0.059-1.174-0.397-1.233-1.02
		c-0.006-0.072-0.006-0.143,0-0.213V372.474z"/>
				<path d="M344.493,371.542c-0.023-0.623,0.465-1.148,1.089-1.17c0.027-0.002,0.055-0.002,0.082,0h3.843
					c0.572,0,1.037,0.463,1.037,1.036c0,0.571-0.464,1.035-1.037,1.035h-2.762v2.192h2.332c0.551-0.045,1.034,0.367,1.078,0.918
					c0.002,0.027,0.003,0.055,0.003,0.082c0.001,0.553-0.445,1.004-0.998,1.005c-0.028,0-0.056-0.001-0.083-0.003h-2.332v3.273
					c0.058,0.622-0.398,1.174-1.02,1.232c-0.622,0.058-1.174-0.398-1.232-1.021c-0.007-0.07-0.007-0.142,0-0.212V371.542z"/>
				<rect x="18.785" y="344.523" fill="#231F20" width="2.542" height="18.19"/>
				<path fill="#231F20" d="M28.43,355.48c2.1-0.838,3.096-2.49,3.096-5.269c0-4.012-1.94-5.688-5.952-5.688h-2.438v2.412h2.438
					c2.254,0,3.328,1.073,3.328,3.33c0,2.096-0.837,3.485-3.302,3.485h-2.466v2.408h2.779l2.91,6.555h2.804L28.43,355.48z"/>
			</g>
			<g>
				<path fill="#231F20" d="M12.706,344.523v12.528c0,2.207-1.161,3.119-3.027,3.339v2.52c3.632-0.244,5.597-1.943,5.597-5.857
					v-12.529H12.706L12.706,344.523z"/>
				<path fill="#231F20" d="M7.871,360.408c-1.867-0.195-3.055-1.092-3.055-3.355v-12.529H2.274v12.529
					c0,3.947,1.994,5.646,5.597,5.867V360.408z"/>
			</g>
			<g>
				<path fill="#231F20" d="M41.346,344.246v2.465c1.729,0.107,4.223,0.406,4.223,0.406l0.209-2.307
					C45.777,344.811,43.321,344.377,41.346,344.246z"/>
				<path fill="#231F20" d="M39.293,360.49c-1.889-0.088-4.44-0.424-4.44-0.424l-0.263,2.307c0,0,2.706,0.459,4.703,0.574V360.49z"
					/>
				<path fill="#231F20" d="M40.982,352.336c-3.092-0.76-4.166-1.182-4.166-3.119c0-1.527,0.934-2.307,2.724-2.486v-2.477
					c-3.271,0.234-5.292,1.848-5.292,5.014c0,3.383,1.758,4.455,5.606,5.351c2.831,0.653,3.748,1.203,3.748,2.935
					c0,1.811-0.831,2.663-2.503,2.893v2.482c3.1-0.281,5.044-1.96,5.044-5.455C46.144,354.275,44.676,353.303,40.982,352.336z"/>
			</g>
		</g>
		<g>
			<path d="M57.543,344.771h2.911v18.299H57.35v-14.723l-4.131,2.801l-1.442-2.439L57.543,344.771z"/>
			<path d="M63.963,363.068v-2.801l4.547-4.52c2.302-2.355,3.633-3.826,3.633-5.766c0-1.775-1.082-2.551-3.3-2.551
				c-1.886,0-4.547,0.498-4.547,0.498l-0.222-2.744c0,0,2.995-0.722,5.518-0.722c3.771,0,5.768,1.662,5.768,5.103
				c0,2.854-1.109,4.49-3.66,7.041l-3.66,3.549h7.68v2.912H63.963L63.963,363.068z"/>
			<path d="M77.531,344.743h11.257v3.797l-6.654,14.974l-2.91-0.859l6.349-14.168v-0.805h-8.04L77.531,344.743L77.531,344.743z"/>
		</g>
	</g>
	<g>
		<g>
			<polygon class="rect urs3" fill="#F1555C" points="1.5,491.344 1.5,515.996 71.205,515.996 71.205,500.695 104.075,500.695 104.075,491.344 			"/>
			<path fill="none" stroke="#000000" stroke-miterlimit="10" d="M299.31,497.295c-0.937,0-1.701-0.766-1.701-1.701v-2.549
				c0-0.936-0.766-1.701-1.701-1.701H3.201c-0.935,0-1.701,0.767-1.701,1.701v21.25c0,0.937,0.767,1.701,1.701,1.701h344.277
				c0.936,0,1.86-0.749,2.054-1.664l3.263-15.373c0.192-0.915-0.413-1.664-1.35-1.664H299.31L299.31,497.295z"/>
		</g>
		<g>
			<rect class="rect urs1" x="1.5" y="437.221" fill="#40B8ED" width="69.705" height="24.652"/>
			<polygon class="rect urs3" fill="#F1555C" points="71.205,437.221 71.205,445.225 106.13,445.225 106.13,461.164 169.742,461.164 169.742,437.221 
							"/>
			<path fill="none" stroke="#000000" stroke-miterlimit="10" d="M299.31,443.17c-0.937,0-1.701-0.766-1.701-1.701v-2.547
				c0-0.936-0.766-1.701-1.701-1.701H3.201c-0.935,0-1.701,0.767-1.701,1.701v21.25c0,0.937,0.767,1.701,1.701,1.701h344.277
				c0.936,0,1.86-0.749,2.054-1.664l3.263-15.375c0.192-0.915-0.413-1.664-1.35-1.664H299.31z"/>
		</g>
		<g>
			<polygon class="rect urs4" fill="#FFF340" points="66.105,383.098 66.105,389.049 48.82,389.049 48.82,383.098 17.086,383.098 17.086,406.617 
				71.205,406.617 71.205,383.098 			"/>
			<rect class="rect urs3" x="71.205" y="383.098" fill="#F1555C" width="51.854" height="9.068"/>
			<rect class="rect urs1" x="105.492" y="383.098" fill="#40B8ED" width="83.307" height="24.652"/>
			<path fill="none" stroke="#000000" stroke-miterlimit="10" d="M299.31,389.049c-0.937,0-1.701-0.766-1.701-1.701v-2.549
				c0-0.936-0.766-1.701-1.701-1.701H3.201c-0.935,0-1.701,0.767-1.701,1.701v21.25c0,0.936,0.767,1.701,1.701,1.701h344.277
				c0.936,0,1.86-0.749,2.054-1.664l3.263-15.373c0.192-0.915-0.413-1.664-1.35-1.664H299.31z"/>
		</g>
		<path fill="none" stroke="#000000" stroke-width="3" stroke-miterlimit="10" d="M188.799,406.05c0,0.937-0.765,1.7-1.699,1.7H3.2
			c-0.935,0-1.7-0.766-1.7-1.7v-21.252c0-0.937,0.766-1.7,1.7-1.7h183.898c0.936,0,1.699,0.766,1.699,1.7L188.799,406.05
			L188.799,406.05z"/>
		<path fill="none" stroke="#000000" stroke-width="3" stroke-miterlimit="10" d="M188.799,460.173c0,0.937-0.765,1.7-1.699,1.7H3.2
			c-0.935,0-1.7-0.765-1.7-1.7v-21.252c0-0.936,0.766-1.7,1.7-1.7h183.898c0.936,0,1.699,0.766,1.699,1.7L188.799,460.173
			L188.799,460.173z"/>
		<path fill="none" stroke="#000000" stroke-width="3" stroke-miterlimit="10" d="M188.799,514.296c0,0.937-0.765,1.7-1.699,1.7H3.2
			c-0.935,0-1.7-0.765-1.7-1.7v-21.252c0-0.936,0.766-1.7,1.7-1.7h183.898c0.936,0,1.699,0.766,1.699,1.7L188.799,514.296
			L188.799,514.296z"/>
		<path d="M343.169,435.465c0.659,0,1.17,0.3,1.17,0.989s-0.511,0.99-1.08,0.99h-5.011c-0.659,0-1.17-0.301-1.17-0.99
			c0-0.314,0.195-0.585,0.346-0.765c1.245-1.485,2.595-2.836,3.734-4.484c0.271-0.391,0.525-0.855,0.525-1.396
			c0-0.614-0.465-1.154-1.08-1.154c-1.725,0-0.9,2.431-2.34,2.431c-0.72,0-1.095-0.511-1.095-1.096c0-1.891,1.68-3.404,3.524-3.404
			s3.33,1.215,3.33,3.12c0,2.085-2.325,4.154-3.6,5.76H343.169z"/>
		<path d="M346.214,427.935c0-0.614,0.42-1.17,1.17-1.17h3.84c0.66,0,1.005,0.511,1.005,1.035c0,0.51-0.33,1.035-1.005,1.035h-2.76
			v2.189h2.324c0.721,0,1.08,0.51,1.08,1.021c0,0.524-0.359,1.05-1.08,1.05h-2.324v3.271c0,0.75-0.48,1.17-1.125,1.17
			c-0.646,0-1.125-0.42-1.125-1.17V427.935z"/>
		<path d="M343.664,483.159c0,0.943-0.404,1.77-1.229,2.295c1.08,0.494,1.83,1.5,1.83,2.685c0,1.801-1.65,3.314-3.78,3.314
			c-2.22,0-3.6-1.635-3.6-2.819c0-0.585,0.614-1.005,1.154-1.005c1.021,0,0.78,1.755,2.476,1.755c0.78,0,1.41-0.601,1.41-1.396
			c0-2.101-2.551-0.556-2.551-2.324c0-1.575,2.131-0.511,2.131-2.176c0-0.569-0.405-1.005-1.08-1.005
			c-1.426,0-1.23,1.471-2.25,1.471c-0.615,0-0.976-0.556-0.976-1.11c0-1.17,1.605-2.43,3.271-2.43
			C342.629,480.414,343.664,481.989,343.664,483.159z"/>
		<path d="M346.206,481.764c0-0.614,0.421-1.17,1.171-1.17h3.84c0.66,0,1.005,0.51,1.005,1.035c0,0.51-0.33,1.035-1.005,1.035
			h-2.761v2.188h2.325c0.721,0,1.08,0.511,1.08,1.021c0,0.524-0.359,1.05-1.08,1.05h-2.325v3.271c0,0.75-0.479,1.17-1.125,1.17
			c-0.645,0-1.125-0.42-1.125-1.17V481.764z"/>
	</g>
</g>
<g class="area urs27w">
	<g>
		<g>
			<g>
				<rect x="751.281" y="90.475" fill="#231F20" width="2.542" height="18.193"/>
				<path fill="#231F20" d="M760.927,101.432c2.099-0.838,3.095-2.49,3.095-5.268c0-4.012-1.939-5.689-5.951-5.689h-2.438v2.412
					h2.438c2.254,0,3.328,1.074,3.328,3.33c0,2.096-0.838,3.486-3.302,3.486h-2.465v2.408h2.778l2.909,6.557h2.805L760.927,101.432z
					"/>
			</g>
			<g>
				<path fill="#231F20" d="M745.202,90.475v12.529c0,2.209-1.159,3.119-3.027,3.338v2.52c3.632-0.244,5.597-1.943,5.597-5.857
					v-12.53H745.202z"/>
				<path fill="#231F20" d="M740.367,106.359c-1.866-0.195-3.055-1.092-3.055-3.355V90.475h-2.543v12.529
					c0,3.947,1.994,5.646,5.598,5.867V106.359z"/>
			</g>
			<g>
				<path fill="#231F20" d="M773.843,90.197v2.465c1.728,0.107,4.223,0.406,4.223,0.406l0.208-2.307
					C778.272,90.762,775.817,90.328,773.843,90.197z"/>
				<path fill="#231F20" d="M771.789,106.441c-1.89-0.088-4.44-0.424-4.44-0.424l-0.262,2.307c0,0,2.705,0.459,4.702,0.576V106.441z
					"/>
				<path fill="#231F20" d="M773.479,98.287c-3.092-0.76-4.166-1.182-4.166-3.119c0-1.527,0.934-2.307,2.724-2.486v-2.477
					c-3.271,0.234-5.293,1.848-5.293,5.014c0,3.383,1.759,4.457,5.607,5.35c2.831,0.654,3.748,1.203,3.748,2.934
					c0,1.811-0.831,2.664-2.503,2.893v2.482c3.1-0.281,5.044-1.959,5.044-5.455C778.64,100.227,777.173,99.254,773.479,98.287z"/>
			</g>
		</g>
		<g>
			<path d="M784.329,109.019v-2.8l4.547-4.52c2.302-2.356,3.633-3.826,3.633-5.767c0-1.774-1.081-2.551-3.301-2.551
				c-1.885,0-4.547,0.499-4.547,0.499l-0.222-2.745c0,0,2.994-0.721,5.519-0.721c3.771,0,5.767,1.663,5.767,5.102
				c0,2.855-1.109,4.491-3.659,7.042l-3.66,3.549h7.681v2.911L784.329,109.019L784.329,109.019z"/>
			<path d="M797.896,89.693h11.257v3.798l-6.654,14.972l-2.91-0.859l6.35-14.167v-0.805h-8.041L797.896,89.693L797.896,89.693z"/>
			<path d="M814.311,89.833l3.05,16.386h0.555l3.217-16.108h3.549l3.217,16.108h0.582l3.021-16.386h3.243l-3.881,19.186h-5.13
				l-2.854-14.777l-2.772,14.777h-5.129l-3.938-19.186H814.311z"/>
		</g>
	</g>
	<g>
		<g>
			<polygon class="rect urs1" fill="#40B8ED" points="800.509,150.053 825.162,150.053 825.162,133.617 751.205,133.617 751.205,158.838 
				800.509,158.838 			"/>
			<path fill="none" stroke="#000000" stroke-width="3" stroke-miterlimit="10" d="M826.013,117.184
				c-0.937,0-1.701,0.766-1.701,1.701v12.184c0,0.936-0.766,1.701-1.701,1.701h-86.14c-0.937,0-1.701,0.766-1.701,1.701v22.666
				c0,0.936,0.766,1.701,1.701,1.701h113.625c0.936,0,1.701-0.766,1.701-1.701v-38.252c0-0.936-0.767-1.701-1.701-1.701H826.013z"/>
		</g>
		<g>
			<rect class="rect urs3" x="808.727" y="197.088" fill="#F1555C" width="16.436" height="25.221"/>
			<polygon class="rect urs1" fill="#40B8ED" points="784.925,213.523 808.727,213.523 808.727,197.088 734.77,197.088 734.77,222.309 
				784.925,222.309 			"/>
			<path fill="none" stroke="#000000" stroke-width="3" stroke-miterlimit="10" d="M826.013,180.654
				c-0.937,0-1.701,0.766-1.701,1.701v12.184c0,0.936-0.766,1.701-1.701,1.701h-86.14c-0.937,0-1.701,0.766-1.701,1.701v22.666
				c0,0.936,0.766,1.701,1.701,1.701h113.625c0.936,0,1.701-0.766,1.701-1.701v-38.252c0-0.936-0.767-1.701-1.701-1.701
				L826.013,180.654L826.013,180.654z"/>
		</g>
		<path d="M863.072,126.26h-0.885c-0.72,0-1.021-0.525-1.021-1.035c0-0.525,0.375-1.035,1.021-1.035h2.131
			c0.646,0,1.004,0.465,1.004,1.065v8.534c0,0.75-0.479,1.17-1.125,1.17c-0.645,0-1.125-0.42-1.125-1.17V126.26z"/>
		<path d="M867.691,125.359c0-0.615,0.42-1.17,1.17-1.17h3.84c0.66,0,1.006,0.51,1.006,1.035c0,0.51-0.329,1.035-1.006,1.035h-2.76
			v2.189h2.325c0.72,0,1.079,0.51,1.079,1.021c0,0.524-0.359,1.05-1.079,1.05h-2.325v3.27c0,0.75-0.479,1.17-1.125,1.17
			c-0.645,0-1.125-0.42-1.125-1.17V125.359z"/>
		<path d="M867.558,191.376c0.66,0,1.17,0.3,1.17,0.989c0,0.69-0.51,0.99-1.08,0.99h-5.01c-0.659,0-1.17-0.3-1.17-0.99
			c0-0.314,0.194-0.585,0.345-0.765c1.246-1.485,2.596-2.835,3.735-4.484c0.271-0.391,0.523-0.855,0.523-1.396
			c0-0.615-0.465-1.155-1.08-1.155c-1.725,0-0.898,2.431-2.34,2.431c-0.719,0-1.094-0.511-1.094-1.096
			c0-1.89,1.68-3.404,3.523-3.404c1.845,0,3.329,1.215,3.329,3.12c0,2.085-2.324,4.154-3.6,5.76H867.558z"/>
		<path d="M870.603,183.846c0-0.615,0.42-1.17,1.17-1.17h3.84c0.66,0,1.005,0.51,1.005,1.035c0,0.51-0.33,1.035-1.005,1.035h-2.76
			v2.189h2.325c0.72,0,1.08,0.51,1.08,1.021c0,0.524-0.36,1.05-1.08,1.05h-2.325v3.27c0,0.75-0.479,1.17-1.125,1.17
			s-1.125-0.42-1.125-1.17V183.846z"/>
	</g>
</g>
<g class="area urs44">
	<g>
		<g>
			<g>
				<rect x="18.785" y="90.475" fill="#231F20" width="2.542" height="18.193"/>
				<path fill="#231F20" d="M28.43,101.432c2.1-0.838,3.096-2.49,3.096-5.268c0-4.012-1.94-5.689-5.952-5.689h-2.438v2.412h2.438
					c2.254,0,3.328,1.074,3.328,3.33c0,2.096-0.837,3.486-3.302,3.486h-2.466v2.408h2.779l2.91,6.557h2.804L28.43,101.432z"/>
			</g>
			<g>
				<path fill="#231F20" d="M12.706,90.475v12.529c0,2.209-1.161,3.119-3.027,3.338v2.52c3.632-0.244,5.597-1.943,5.597-5.857
					v-12.53H12.706z"/>
				<path fill="#231F20" d="M7.871,106.359c-1.867-0.195-3.055-1.092-3.055-3.355V90.475H2.274v12.529
					c0,3.947,1.994,5.646,5.597,5.867V106.359z"/>
			</g>
			<g>
				<path fill="#231F20" d="M41.346,90.197v2.465c1.729,0.107,4.223,0.406,4.223,0.406l0.209-2.307
					C45.777,90.762,43.321,90.328,41.346,90.197z"/>
				<path fill="#231F20" d="M39.293,106.441c-1.889-0.088-4.44-0.424-4.44-0.424l-0.263,2.307c0,0,2.706,0.459,4.703,0.576V106.441z
					"/>
				<path fill="#231F20" d="M40.982,98.287c-3.092-0.76-4.166-1.182-4.166-3.119c0-1.527,0.934-2.307,2.724-2.486v-2.477
					c-3.271,0.234-5.292,1.848-5.292,5.014c0,3.383,1.758,4.457,5.606,5.35c2.831,0.654,3.748,1.203,3.748,2.934
					c0,1.811-0.831,2.664-2.503,2.893v2.482c3.1-0.281,5.044-1.959,5.044-5.455C46.144,100.227,44.676,99.254,40.982,98.287z"/>
			</g>
		</g>
		<g>
			<path d="M59.235,105.886h-8.041v-2.495l4.963-12.671h3.382l-4.824,12.255h4.521v-5.213h3.104v5.213h1.913v2.911H62.34v3.354
				h-3.104V105.886z"/>
			<path d="M73.657,105.886h-8.041v-2.495l4.963-12.671h3.382l-4.823,12.255h4.52v-5.213h3.105v5.213h1.912v2.911h-1.912v3.354
				h-3.105V105.886z"/>
		</g>
	</g>
	<g>
		<rect class="rect urs3" x="67.381" y="138.93" fill="#F1555C" width="20.4" height="27.414"/>
		<rect class="rect urs1" x="1.5" y="138.93" fill="#40B8ED" width="65.881" height="27.414"/>
		<polygon class="rect urs1" fill="#40B8ED" points="136.873,166.344 87.781,166.344 87.781,138.93 120.509,138.93 136.873,156.568 		"/>
		<path fill="none" stroke="#000000" stroke-width="3" stroke-miterlimit="10" d="M154.725,164.643c0,0.936-0.767,1.701-1.701,1.701
			H3.201c-0.936,0-1.701-0.766-1.701-1.701v-33.576c0-0.936,0.767-1.701,1.701-1.701h130.271c0.936,0,2.251,0.532,2.924,1.183
			l17.105,16.549c0.673,0.65,1.224,1.948,1.224,2.884V164.643z"/>
		<polygon class="rect urs2" fill="#B2E2EE" points="135.173,190.354 87.781,190.354 87.781,227.332 154.725,227.332 154.725,209.268 		"/>
		<polygon class="rect urs3" fill="#F1555C" points="1.5,190.354 1.5,227.332 46.129,227.332 46.129,206.506 70.567,206.506 70.567,190.354 		"/>
		<path fill="none" stroke="#000000" stroke-width="3" stroke-miterlimit="10" d="M154.725,225.631c0,0.936-0.767,1.701-1.701,1.701
			H3.201c-0.935,0-1.701-0.766-1.701-1.701v-33.576c0-0.936,0.767-1.701,1.701-1.701h130.271c0.936,0,2.251,0.532,2.924,1.183
			l17.105,16.549c0.673,0.65,1.224,1.948,1.224,2.884V225.631z"/>
		<rect class="rect urs2" x="1.5" y="251.34" fill="#B2E2EE" width="44.629" height="36.979"/>
		<polygon class="rect urs3" fill="#F1555C" points="135.173,251.34 87.781,251.34 87.781,288.318 154.725,288.318 154.725,270.254 		"/>
		<rect class="rect urs3" x="46.129" y="251.34" fill="#F1555C" width="24.438" height="16.15"/>
		<path fill="none" stroke="#000000" stroke-width="3" stroke-miterlimit="10" d="M154.725,286.617c0,0.936-0.767,1.701-1.701,1.701
			H3.201c-0.935,0-1.701-0.767-1.701-1.701v-33.576c0-0.936,0.767-1.701,1.701-1.701h130.271c0.936,0,2.251,0.532,2.924,1.183
			l17.105,16.549c0.673,0.65,1.224,1.947,1.224,2.884V286.617z"/>
		<path d="M154.162,126.26h-0.885c-0.72,0-1.021-0.525-1.021-1.035c0-0.525,0.375-1.035,1.021-1.035h2.13
			c0.646,0,1.005,0.465,1.005,1.065v8.534c0,0.75-0.479,1.17-1.125,1.17c-0.645,0-1.125-0.42-1.125-1.17V126.26L154.162,126.26z"/>
		<path d="M158.78,125.359c0-0.615,0.42-1.17,1.17-1.17h3.84c0.66,0,1.005,0.51,1.005,1.035c0,0.51-0.33,1.035-1.005,1.035h-2.76
			v2.189h2.325c0.72,0,1.08,0.51,1.08,1.021c0,0.524-0.36,1.05-1.08,1.05h-2.325v3.27c0,0.75-0.48,1.17-1.125,1.17
			c-0.646,0-1.125-0.42-1.125-1.17V125.359z"/>
		<path d="M158.646,191.376c0.66,0,1.17,0.3,1.17,0.989c0,0.69-0.51,0.99-1.08,0.99h-5.01c-0.66,0-1.17-0.3-1.17-0.99
			c0-0.314,0.194-0.585,0.345-0.765c1.245-1.485,2.595-2.835,3.735-4.484c0.27-0.391,0.524-0.855,0.524-1.396
			c0-0.615-0.465-1.155-1.08-1.155c-1.725,0-0.899,2.431-2.34,2.431c-0.72,0-1.095-0.511-1.095-1.096c0-1.89,1.68-3.404,3.524-3.404
			c1.846,0,3.33,1.215,3.33,3.12c0,2.085-2.325,4.154-3.6,5.76H158.646z"/>
		<path d="M161.691,183.846c0-0.615,0.42-1.17,1.17-1.17h3.84c0.66,0,1.005,0.51,1.005,1.035c0,0.51-0.33,1.035-1.005,1.035h-2.76
			v2.189h2.325c0.72,0,1.08,0.51,1.08,1.021c0,0.524-0.36,1.05-1.08,1.05h-2.325v3.27c0,0.75-0.48,1.17-1.125,1.17
			c-0.646,0-1.125-0.42-1.125-1.17V183.846z"/>
		<path d="M159.142,246.228c0,0.944-0.405,1.77-1.23,2.295c1.08,0.494,1.83,1.5,1.83,2.685c0,1.8-1.65,3.314-3.78,3.314
			c-2.22,0-3.6-1.635-3.6-2.819c0-0.585,0.615-1.005,1.155-1.005c1.02,0,0.779,1.755,2.475,1.755c0.78,0,1.41-0.601,1.41-1.396
			c0-2.1-2.55-0.555-2.55-2.324c0-1.575,2.13-0.511,2.13-2.176c0-0.569-0.405-1.005-1.08-1.005c-1.425,0-1.23,1.471-2.25,1.471
			c-0.615,0-0.975-0.556-0.975-1.11c0-1.17,1.604-2.43,3.27-2.43C158.106,243.482,159.142,245.058,159.142,246.228z"/>
		<path d="M161.684,244.832c0-0.615,0.42-1.17,1.17-1.17h3.84c0.66,0,1.005,0.51,1.005,1.035c0,0.51-0.33,1.035-1.005,1.035h-2.76
			v2.189h2.324c0.721,0,1.08,0.51,1.08,1.021c0,0.524-0.359,1.05-1.08,1.05h-2.324v3.27c0,0.75-0.48,1.17-1.125,1.17
			c-0.646,0-1.125-0.42-1.125-1.17V244.832z"/>
	</g>
</g>
<g class="area urs329">
	<g>
		<rect x="727.866" y="344.129" fill="#231F20" width="2.546" height="18.207"/>
		<path fill="#231F20" d="M737.528,355.1c2.102-0.841,3.093-2.492,3.093-5.276c0-4.003-1.943-5.694-6.006-5.694h-2.444v2.412h2.444
			c2.263,0,3.334,1.071,3.334,3.333c0,2.102-0.841,3.483-3.306,3.483h-2.473v2.413h2.784l2.913,6.556h2.813L737.528,355.1z"/>
		<path fill="#231F20" d="M721.82,344.129v12.542c0,2.212-1.16,3.123-3.002,3.343v2.522c3.633-0.239,5.605-1.942,5.605-5.865
			v-12.532L721.82,344.129z"/>
		<path fill="#231F20" d="M716.946,360.034c-1.871-0.2-3.063-1.092-3.063-3.353v-12.553h-2.542v12.542
			c0,3.953,2.004,5.655,5.605,5.875V360.034z"/>
		<path fill="#231F20" d="M750.449,343.858v2.463c1.733,0.109,4.224,0.41,4.224,0.41l0.211-2.313
			C754.884,344.418,752.434,343.987,750.449,343.858z"/>
		<path fill="#231F20" d="M748.396,360.114c-1.891-0.09-4.441-0.42-4.441-0.42l-0.263,2.312c0,0,2.712,0.461,4.704,0.57V360.114z"/>
		<path fill="#231F20" d="M750.09,351.957c-3.092-0.762-4.175-1.182-4.175-3.124c0-1.531,0.93-2.312,2.724-2.491v-2.483
			c-3.273,0.23-5.295,1.853-5.295,5.005c0,3.383,1.76,4.454,5.614,5.355c2.833,0.65,3.755,1.2,3.755,2.932
			c0.187,1.398-0.792,2.684-2.191,2.871c-0.104,0.014-0.207,0.021-0.311,0.022v2.483c3.101-0.281,5.004-2.003,5.004-5.456
			C755.255,353.889,753.783,352.917,750.09,351.957z"/>
		<path d="M766.555,344.078c4.336,0,6.006,1.582,6.006,4.915c0.026,1.673-0.887,3.217-2.36,4.005c1.661,0.75,2.74,1.61,2.74,4.273
			c0,3.804-2.001,5.715-6.006,5.715c-2.015-0.048-4.024-0.262-6.005-0.641l0.311-2.661c0,0,3.193,0.39,5.246,0.39
			s3.221-0.941,3.221-2.722c0-1.782-1.249-2.523-3.002-2.584h-3.582v-2.723h3.553c1.414-0.064,2.551-1.188,2.632-2.603
			c0-1.752-1.16-2.472-3.003-2.472c-1.609,0.029-3.213,0.17-4.806,0.421l-0.308-2.633
			C762.953,344.366,764.75,344.139,766.555,344.078z"/>
		<path d="M774.965,362.697v-2.803l4.555-4.524c2.3-2.353,3.633-3.834,3.633-5.775c0-1.772-1.082-2.554-3.305-2.554
			c-1.526,0.055-3.049,0.222-4.552,0.501l-0.222-2.742c1.813-0.424,3.665-0.665,5.524-0.722c3.774,0,5.775,1.661,5.775,5.104
			c0,2.854-1.111,4.496-3.662,7.008l-3.665,3.553h7.69v2.914L774.965,362.697z"/>
		<path d="M789.288,359.704c1.626,0.257,3.268,0.403,4.914,0.44c2.692,0,4.085-1.771,4.105-5.005
			c-1.267,0.435-2.582,0.714-3.915,0.831c-3.634,0-6.006-1.892-6.006-5.806s2.772-6.076,6.438-6.076
			c4.385,0,6.745,3.192,6.745,9.438c0,7.188-3.003,9.489-7.327,9.489c-1.741-0.067-3.478-0.262-5.193-0.58L789.288,359.704z
			 M798.296,352.567c0-3.385-1.14-5.656-3.553-5.656c-1.652-0.128-3.098,1.11-3.225,2.765c-0.011,0.159-0.011,0.319,0,0.479
			c0,2.052,1.192,3.003,3.104,3.003c1.259-0.046,2.505-0.244,3.714-0.59H798.296z"/>
	</g>
	<g>
		<rect class="rect urs4" x="815.573" y="382.747" fill="#FFF340" width="36.166" height="30.209"/>
		<polygon class="rect urs1" fill="#40B8ED" points="711.341,437.199 711.341,467.408 791.749,467.408 791.749,448.69 815.573,448.69 815.573,467.408 
			851.739,467.408 851.739,437.199 		"/>
		<path fill="none" stroke="#000000" stroke-width="3" stroke-miterlimit="10" d="M851.739,465.728
			c-0.006,0.937-0.766,1.697-1.701,1.701H713.043c-0.937-0.004-1.696-0.765-1.702-1.701v-26.825
			c0.006-0.939,0.766-1.697,1.702-1.703h136.995c0.936,0.006,1.695,0.764,1.701,1.703V465.728L851.739,465.728z"/>
		<path d="M863.031,373.638h-0.893c-0.553,0-0.999-0.448-0.999-1.001s0.446-1.002,0.999-1.002h2.133
			c0.553,0,1.002,0.446,1.002,0.999c0,0.021,0,0.042,0,0.063v8.539c0.058,0.622-0.4,1.173-1.021,1.232
			c-0.622,0.059-1.172-0.397-1.232-1.02c-0.006-0.072-0.006-0.143,0-0.213L863.031,373.638z"/>
		<path d="M867.654,372.706c-0.022-0.623,0.467-1.148,1.089-1.17c0.028-0.002,0.055-0.002,0.083,0h3.844
			c0.573,0,1.036,0.463,1.036,1.036c0,0.571-0.463,1.035-1.036,1.035h-2.764v2.192h2.323c0.55-0.045,1.033,0.367,1.076,0.918
			c0.003,0.027,0.003,0.055,0.003,0.082c0.003,0.553-0.443,1.004-0.996,1.005c-0.028,0-0.055-0.001-0.083-0.003h-2.323v3.273
			c0.061,0.622-0.397,1.174-1.02,1.232c-0.622,0.058-1.175-0.398-1.232-1.021c-0.006-0.07-0.006-0.142,0-0.212V372.706z"/>
		<path d="M867.525,435.168c0.659,0,1.172,0.299,1.172,1c0,0.553-0.446,1.004-1,1.005c-0.028,0-0.055-0.001-0.083-0.003h-5.004
			c-0.662,0-1.172-0.301-1.172-1.002c0.023-0.289,0.147-0.562,0.352-0.77c1.241-1.481,2.591-2.833,3.731-4.484
			c0.313-0.403,0.498-0.893,0.521-1.402c0.018-0.614-0.466-1.128-1.079-1.151c-1.722,0-0.901,2.433-2.344,2.433
			c-0.55,0.054-1.039-0.35-1.091-0.901c-0.006-0.065-0.006-0.134,0-0.199c0.065-1.899,1.623-3.405,3.523-3.403
			c1.716-0.121,3.204,1.17,3.325,2.885c0.006,0.079,0.009,0.158,0.009,0.239c0,2.081-2.323,4.152-3.604,5.765h2.752L867.525,435.168
			z"/>
		<path d="M870.568,427.62c-0.023-0.624,0.463-1.148,1.088-1.172c0.029,0,0.055,0,0.084,0h3.843c0.57,0,1.034,0.464,1.034,1.037
			c0,0.571-0.464,1.036-1.034,1.036h-2.764v2.172h2.332c0.553-0.044,1.034,0.366,1.08,0.917c0,0.027,0.003,0.057,0.003,0.084
			c0,0.553-0.446,1.002-0.999,1.005c-0.029,0-0.055-0.002-0.084-0.005h-2.332v3.273c0.058,0.622-0.397,1.175-1.019,1.232
			c-0.622,0.06-1.175-0.397-1.232-1.019c-0.009-0.071-0.009-0.143,0-0.214V427.62z"/>
		<polygon  class="rect urs1" fill="#40B8ED" points="763.313,382.747 763.313,394.229 739.489,394.229 739.489,382.747 727.798,382.747 
			727.798,412.946 758.326,412.946 758.326,401.465 782.15,401.465 782.15,412.946 791.749,412.946 791.749,394.229 
			815.573,394.229 815.573,382.747 		"/>
		<rect class="rect urs4" x="739.489" y="382.747" fill="#FFF340" width="23.824" height="11.491"/>
		<rect class="rect urs4" x="758.326" y="401.465" fill="#FFF340" width="23.824" height="11.491"/>
		<path fill="none" stroke="#000000" stroke-width="3" stroke-miterlimit="10" d="M851.739,411.244
			c-0.006,0.938-0.766,1.696-1.701,1.702H713.043c-0.937-0.006-1.696-0.765-1.702-1.702v-26.796
			c0.006-0.938,0.766-1.696,1.702-1.701h136.995c0.936,0.005,1.695,0.764,1.701,1.701V411.244L851.739,411.244z"/>
	</g>
</g>
<g class="area urs155">
	<g>
		<g>
			<g>
				<rect x="451.519" y="344.523" fill="#231F20" width="2.542" height="18.19"/>
				<path fill="#231F20" d="M461.163,355.48c2.1-0.838,3.096-2.49,3.096-5.269c0-4.012-1.939-5.688-5.951-5.688h-2.438v2.412h2.438
					c2.254,0,3.328,1.073,3.328,3.33c0,2.096-0.838,3.485-3.303,3.485h-2.465v2.408h2.779l2.909,6.555h2.805L461.163,355.48z"/>
			</g>
			<g>
				<path fill="#231F20" d="M445.439,344.523v12.528c0,2.207-1.16,3.119-3.028,3.339v2.52c3.633-0.244,5.598-1.943,5.598-5.857
					v-12.529H445.439L445.439,344.523z"/>
				<path fill="#231F20" d="M440.604,360.408c-1.867-0.195-3.055-1.092-3.055-3.355v-12.529h-2.543v12.529
					c0,3.947,1.994,5.646,5.598,5.867V360.408z"/>
			</g>
			<g>
				<path fill="#231F20" d="M474.08,344.246v2.465c1.729,0.107,4.223,0.406,4.223,0.406l0.208-2.307
					C478.51,344.811,476.055,344.377,474.08,344.246z"/>
				<path fill="#231F20" d="M472.026,360.49c-1.889-0.088-4.44-0.424-4.44-0.424l-0.263,2.307c0,0,2.706,0.459,4.703,0.574V360.49z"
					/>
				<path fill="#231F20" d="M473.717,352.336c-3.091-0.76-4.165-1.182-4.165-3.119c0-1.527,0.933-2.307,2.723-2.486v-2.477
					c-3.271,0.234-5.292,1.848-5.292,5.014c0,3.383,1.757,4.455,5.606,5.351c2.831,0.653,3.748,1.203,3.748,2.935
					c0,1.811-0.831,2.663-2.504,2.893v2.482c3.101-0.281,5.045-1.96,5.045-5.455C478.878,354.275,477.409,353.303,473.717,352.336z"
					/>
			</g>
		</g>
		<g>
			<path d="M490.277,344.771h2.911v18.299h-3.105v-14.723l-4.131,2.801l-1.44-2.439L490.277,344.771z"/>
			<path d="M508.583,344.743v2.938h-7.901l-0.443,4.547c0,0,1.857-0.722,3.105-0.722c3.576,0,5.878,1.58,5.878,5.574
				c0,4.271-2.44,6.293-6.101,6.293c-2.744,0-6.183-0.858-6.183-0.858l0.36-2.689c0,0,3.409,0.666,5.711,0.666
				c1.719,0,2.993-1.055,2.993-3.244c0-2.053-1.137-2.912-2.966-2.912c-1.83,0-3.3,0.693-3.3,0.693l-2.438-0.498l0.582-9.787
				L508.583,344.743L508.583,344.743z"/>
			<path d="M522.346,344.743v2.938h-7.902l-0.443,4.547c0,0,1.856-0.722,3.104-0.722c3.576,0,5.878,1.58,5.878,5.574
				c0,4.271-2.439,6.293-6.1,6.293c-2.745,0-6.184-0.858-6.184-0.858l0.36-2.689c0,0,3.41,0.666,5.711,0.666
				c1.719,0,2.994-1.055,2.994-3.244c0-2.053-1.137-2.912-2.966-2.912c-1.83,0-3.301,0.693-3.301,0.693l-2.438-0.498l0.582-9.787
				L522.346,344.743L522.346,344.743z"/>
		</g>
	</g>
	<g>
		<g>
			<rect x="435.008" y="435.664" fill="none" width="55.68" height="26.637"/>
			<rect class="rect urs2" x="543.957" y="435.381" fill="#B2E2EE" width="49.872" height="28.336"/>
			<path fill="none" stroke="#000000" stroke-width="3" stroke-miterlimit="10" d="M629.675,462.016
				c0,0.937-0.767,1.701-1.701,1.701H436.708c-0.936,0-1.7-0.766-1.7-1.701v-24.649c0-0.937,0.766-1.701,1.7-1.701h191.266
				c0.936,0,1.701,0.766,1.701,1.701V462.016z"/>
		</g>
		<g>
			<rect class="rect urs4" x="441.666" y="383.383" fill="#FFF340" width="49.021" height="26.637"/>
			<rect class="rect urs3" x="490.687" y="383.098" fill="#F1565C" width="20.402" height="10.203"/>
			<rect class="rect urs3" x="524.405" y="383.098" fill="#F1565C" width="19.553" height="10.203"/>
			<rect class="rect urs2" x="543.957" y="383.098" fill="#B2E2EE" width="64.323" height="28.338"/>
			<path fill="none" stroke="#000000" stroke-width="3" stroke-miterlimit="10" d="M629.675,409.734
				c0,0.936-0.767,1.701-1.701,1.701H436.708c-0.936,0-1.7-0.767-1.7-1.701v-24.65c0-0.936,0.766-1.701,1.7-1.701h191.266
				c0.936,0,1.701,0.766,1.701,1.701V409.734z"/>
		</g>
		<g>
			<rect class="rect urs3" x="558.408" y="487.66" fill="#F1565C" width="35.421" height="28.336"/>
			<path fill="none" stroke="#000000" stroke-width="3" stroke-miterlimit="10" d="M629.675,514.295
				c0,0.936-0.767,1.701-1.701,1.701H436.708c-0.936,0-1.7-0.766-1.7-1.701v-24.65c0-0.936,0.766-1.7,1.7-1.7h191.266
				c0.936,0,1.701,0.766,1.701,1.7V514.295z"/>
		</g>
		<path d="M638.41,373.971h-0.885c-0.721,0-1.02-0.525-1.02-1.035c0-0.525,0.375-1.035,1.02-1.035h2.13
			c0.646,0,1.005,0.465,1.005,1.064v8.534c0,0.75-0.479,1.17-1.125,1.17c-0.645,0-1.125-0.42-1.125-1.17V373.971z"/>
		<path d="M643.029,373.068c0-0.614,0.42-1.17,1.17-1.17h3.84c0.66,0,1.006,0.511,1.006,1.035c0,0.51-0.33,1.035-1.006,1.035h-2.76
			v2.189h2.324c0.721,0,1.08,0.51,1.08,1.021c0,0.523-0.359,1.049-1.08,1.049h-2.324v3.271c0,0.75-0.479,1.17-1.125,1.17
			s-1.125-0.42-1.125-1.17V373.068z"/>
		<path d="M642.895,435.465c0.66,0,1.17,0.3,1.17,0.989s-0.51,0.99-1.08,0.99h-5.01c-0.659,0-1.17-0.301-1.17-0.99
			c0-0.314,0.195-0.585,0.346-0.765c1.245-1.485,2.595-2.836,3.734-4.484c0.271-0.391,0.524-0.855,0.524-1.396
			c0-0.614-0.465-1.154-1.08-1.154c-1.725,0-0.899,2.431-2.34,2.431c-0.72,0-1.095-0.511-1.095-1.096
			c0-1.891,1.68-3.404,3.524-3.404c1.846,0,3.329,1.215,3.329,3.12c0,2.085-2.323,4.154-3.6,5.76H642.895z"/>
		<path d="M645.939,427.935c0-0.614,0.42-1.17,1.17-1.17h3.84c0.66,0,1.006,0.511,1.006,1.035c0,0.51-0.329,1.035-1.006,1.035h-2.76
			v2.189h2.326c0.719,0,1.079,0.51,1.079,1.021c0,0.524-0.36,1.05-1.079,1.05h-2.326v3.271c0,0.75-0.479,1.17-1.125,1.17
			c-0.645,0-1.125-0.42-1.125-1.17V427.935z"/>
		<path d="M643.391,483.159c0,0.943-0.406,1.77-1.23,2.295c1.08,0.494,1.83,1.5,1.83,2.685c0,1.801-1.649,3.314-3.779,3.314
			c-2.221,0-3.601-1.635-3.601-2.819c0-0.585,0.614-1.005,1.155-1.005c1.02,0,0.779,1.755,2.475,1.755
			c0.779,0,1.41-0.601,1.41-1.396c0-2.101-2.551-0.556-2.551-2.324c0-1.575,2.131-0.511,2.131-2.176c0-0.569-0.405-1.005-1.08-1.005
			c-1.426,0-1.229,1.471-2.25,1.471c-0.615,0-0.975-0.556-0.975-1.11c0-1.17,1.604-2.43,3.27-2.43
			C642.355,480.414,643.391,481.989,643.391,483.159z"/>
		<path d="M645.933,481.764c0-0.614,0.42-1.17,1.17-1.17h3.84c0.66,0,1.005,0.51,1.005,1.035c0,0.51-0.33,1.035-1.005,1.035h-2.76
			v2.188h2.325c0.72,0,1.08,0.511,1.08,1.021c0,0.524-0.36,1.05-1.08,1.05h-2.325v3.271c0,0.75-0.479,1.17-1.125,1.17
			c-0.646,0-1.125-0.42-1.125-1.17V481.764z"/>
	</g>
</g>
</svg>
