<svg version="1.2" baseProfile="tiny"
	 xmlns="http://www.w3.org/2000/svg" xmlns:xlink="http://www.w3.org/1999/xlink" x="0px" y="0px" width="848.506px"
	 height="79.613px" viewBox="0 0 848.506 79.613" xml:space="preserve">
<g>
	
		<line fill="none" stroke="#000000" stroke-width="5" stroke-linecap="round" stroke-miterlimit="10" x1="73.518" y1="39.807" x2="73.518" y2="39.807"/>
	
		<line fill="none" stroke="#000000" stroke-width="5" stroke-linecap="round" stroke-miterlimit="10" stroke-dasharray="0,13.3333" x1="86.851" y1="39.807" x2="106.851" y2="39.807"/>
	
		<line fill="none" stroke="#000000" stroke-width="5" stroke-linecap="round" stroke-miterlimit="10" x1="113.518" y1="39.807" x2="113.518" y2="39.807"/>
</g>
<g>
	
		<line fill="none" stroke="#000000" stroke-width="5" stroke-linecap="round" stroke-miterlimit="10" x1="184.518" y1="39.807" x2="184.518" y2="39.807"/>
	
		<line fill="none" stroke="#000000" stroke-width="5" stroke-linecap="round" stroke-miterlimit="10" stroke-dasharray="0,13.3333" x1="197.851" y1="39.807" x2="217.851" y2="39.807"/>
	
		<line fill="none" stroke="#000000" stroke-width="5" stroke-linecap="round" stroke-miterlimit="10" x1="224.518" y1="39.807" x2="224.518" y2="39.807"/>
</g>
<g>
	
		<line fill="none" stroke="#000000" stroke-width="5" stroke-linecap="round" stroke-miterlimit="10" x1="293.507" y1="39.807" x2="293.507" y2="39.807"/>
	
		<line fill="none" stroke="#000000" stroke-width="5" stroke-linecap="round" stroke-miterlimit="10" stroke-dasharray="0,13.3333" x1="306.84" y1="39.807" x2="326.84" y2="39.807"/>
	
		<line fill="none" stroke="#000000" stroke-width="5" stroke-linecap="round" stroke-miterlimit="10" x1="333.507" y1="39.807" x2="333.507" y2="39.807"/>
</g>
<g>
	
		<line fill="none" stroke="#000000" stroke-width="5" stroke-linecap="round" stroke-miterlimit="10" x1="403.614" y1="39.807" x2="403.614" y2="39.807"/>
	
		<line fill="none" stroke="#000000" stroke-width="5" stroke-linecap="round" stroke-miterlimit="10" stroke-dasharray="0,13.3333" x1="416.947" y1="39.807" x2="436.947" y2="39.807"/>
	
		<line fill="none" stroke="#000000" stroke-width="5" stroke-linecap="round" stroke-miterlimit="10" x1="443.614" y1="39.807" x2="443.614" y2="39.807"/>
</g>
<g>
	
		<line fill="none" stroke="#000000" stroke-width="5" stroke-linecap="round" stroke-miterlimit="10" x1="513.885" y1="39.807" x2="513.885" y2="39.807"/>
	
		<line fill="none" stroke="#000000" stroke-width="5" stroke-linecap="round" stroke-miterlimit="10" stroke-dasharray="0,13.3333" x1="527.218" y1="39.807" x2="547.218" y2="39.807"/>
	
		<line fill="none" stroke="#000000" stroke-width="5" stroke-linecap="round" stroke-miterlimit="10" x1="553.885" y1="39.807" x2="553.885" y2="39.807"/>
</g>
<g>
	
		<line fill="none" stroke="#000000" stroke-width="5" stroke-linecap="round" stroke-miterlimit="10" x1="623.889" y1="39.807" x2="623.889" y2="39.807"/>
	
		<line fill="none" stroke="#000000" stroke-width="5" stroke-linecap="round" stroke-miterlimit="10" stroke-dasharray="0,13.3333" x1="637.222" y1="39.807" x2="657.222" y2="39.807"/>
	
		<line fill="none" stroke="#000000" stroke-width="5" stroke-linecap="round" stroke-miterlimit="10" x1="663.889" y1="39.807" x2="663.889" y2="39.807"/>
</g>
<g>
	
		<line fill="none" stroke="#000000" stroke-width="5" stroke-linecap="round" stroke-miterlimit="10" x1="733.492" y1="39.807" x2="733.492" y2="39.807"/>
	
		<line fill="none" stroke="#000000" stroke-width="5" stroke-linecap="round" stroke-miterlimit="10" stroke-dasharray="0,13.3333" x1="746.825" y1="39.807" x2="766.825" y2="39.807"/>
	
		<line fill="none" stroke="#000000" stroke-width="5" stroke-linecap="round" stroke-miterlimit="10" x1="773.492" y1="39.807" x2="773.492" y2="39.807"/>
</g>
<g>
	<circle stroke="#000000" stroke-miterlimit="10" cx="38.806" cy="39.807" r="38.306"/>
	<g>
		<path fill="#FFFFFF" d="M36.454,45.359c1.012,0,1.794,0.46,1.794,1.518s-0.782,1.518-1.656,1.518h-7.68
			c-1.012,0-1.794-0.46-1.794-1.518c0-0.483,0.299-0.896,0.529-1.173c1.909-2.276,3.979-4.346,5.726-6.875
			c0.414-0.599,0.805-1.312,0.805-2.139c0-0.943-0.713-1.771-1.656-1.771c-2.645,0-1.379,3.725-3.587,3.725
			c-1.104,0-1.679-0.781-1.679-1.679c0-2.897,2.575-5.22,5.404-5.22c2.828,0,5.105,1.862,5.105,4.783
			c0,3.196-3.564,6.369-5.519,8.83H36.454z"/>
		<path fill="#FFFFFF" d="M50.157,35.954c0,1.449-0.621,2.714-1.885,3.519c1.655,0.759,2.805,2.3,2.805,4.116
			c0,2.759-2.529,5.082-5.794,5.082c-3.403,0-5.519-2.507-5.519-4.323c0-0.897,0.943-1.541,1.771-1.541
			c1.564,0,1.196,2.69,3.794,2.69c1.196,0,2.161-0.92,2.161-2.139c0-3.219-3.909-0.851-3.909-3.564c0-2.414,3.265-0.781,3.265-3.334
			c0-0.874-0.621-1.54-1.656-1.54c-2.185,0-1.886,2.253-3.449,2.253c-0.943,0-1.495-0.851-1.495-1.701
			c0-1.794,2.46-3.726,5.013-3.726C48.571,31.746,50.157,34.16,50.157,35.954z"/>
	</g>
</g>
<g>
	<circle fill="#FFFFFF" stroke="#000000" stroke-width="3" stroke-miterlimit="10" cx="148.791" cy="39.807" r="38.307"/>
	<g>
		<path d="M146.855,45.359c1.012,0,1.794,0.46,1.794,1.518s-0.782,1.518-1.656,1.518h-7.68c-1.012,0-1.794-0.46-1.794-1.518
			c0-0.483,0.299-0.896,0.529-1.173c1.909-2.276,3.979-4.346,5.726-6.875c0.414-0.599,0.805-1.312,0.805-2.139
			c0-0.943-0.713-1.771-1.656-1.771c-2.645,0-1.379,3.725-3.587,3.725c-1.104,0-1.679-0.781-1.679-1.679
			c0-2.897,2.575-5.22,5.404-5.22c2.828,0,5.105,1.862,5.105,4.783c0,3.196-3.564,6.369-5.519,8.83H146.855z"/>
		<path d="M157.348,35.195h-5.887c-1.242,0-1.702-0.805-1.702-1.587c0-0.805,0.437-1.586,1.702-1.586h8.324
			c1.173,0,1.656,1.058,1.656,1.655c0,0.46-0.253,0.942-0.529,1.518l-5.703,11.59c-0.644,1.287-0.897,1.747-1.932,1.747
			c-1.265,0-1.909-0.966-1.909-1.633c0-0.275,0.069-0.482,0.23-0.805L157.348,35.195z"/>
	</g>
</g>
<g>
	<circle fill="#FFFFFF" stroke="#000000" stroke-width="3" stroke-miterlimit="10" cx="258.775" cy="39.807" r="38.307"/>
	<g>
		<path d="M247.141,45.359c1.012,0,1.794,0.46,1.794,1.518s-0.782,1.518-1.656,1.518h-7.68c-1.012,0-1.794-0.46-1.794-1.518
			c0-0.483,0.299-0.896,0.529-1.173c1.909-2.276,3.979-4.346,5.726-6.875c0.414-0.599,0.805-1.312,0.805-2.139
			c0-0.943-0.713-1.771-1.656-1.771c-2.645,0-1.379,3.725-3.587,3.725c-1.104,0-1.679-0.781-1.679-1.679
			c0-2.897,2.575-5.22,5.404-5.22c2.828,0,5.105,1.862,5.105,4.783c0,3.196-3.564,6.369-5.519,8.83H247.141z"/>
		<path d="M257.633,35.195h-5.887c-1.242,0-1.702-0.805-1.702-1.587c0-0.805,0.437-1.586,1.702-1.586h8.324
			c1.173,0,1.656,1.058,1.656,1.655c0,0.46-0.253,0.942-0.529,1.518l-5.703,11.59c-0.644,1.287-0.897,1.747-1.932,1.747
			c-1.265,0-1.909-0.966-1.909-1.633c0-0.275,0.069-0.482,0.23-0.805L257.633,35.195z"/>
		<path d="M264.178,33.654c0.138-0.827,1.035-1.771,2.253-1.771c1.15,0,2.047,0.828,2.3,1.656l2.713,9.105h0.046l2.713-9.105
			c0.253-0.828,1.15-1.656,2.299-1.656c1.219,0,2.116,0.943,2.253,1.771l2.139,12.832c0.023,0.138,0.023,0.275,0.023,0.391
			c0,1.012-0.736,1.655-1.655,1.655c-1.173,0-1.633-0.528-1.794-1.609l-1.356-9.359h-0.046l-2.76,9.636
			c-0.161,0.552-0.598,1.333-1.839,1.333s-1.679-0.781-1.84-1.333l-2.759-9.636h-0.046l-1.357,9.359
			c-0.161,1.081-0.621,1.609-1.793,1.609c-0.92,0-1.656-0.644-1.656-1.655c0-0.115,0-0.253,0.023-0.391L264.178,33.654z"/>
	</g>
</g>
<g>
	<circle fill="#FFFFFF" stroke="#000000" stroke-width="3" stroke-miterlimit="10" cx="368.76" cy="39.807" r="38.307"/>
	<g>
		<path d="M356.068,45.359c1.012,0,1.794,0.46,1.794,1.518s-0.782,1.518-1.656,1.518h-7.68c-1.012,0-1.794-0.46-1.794-1.518
			c0-0.483,0.299-0.896,0.529-1.173c1.909-2.276,3.979-4.346,5.726-6.875c0.414-0.599,0.805-1.312,0.805-2.139
			c0-0.943-0.713-1.771-1.656-1.771c-2.645,0-1.379,3.725-3.587,3.725c-1.104,0-1.679-0.781-1.679-1.679
			c0-2.897,2.575-5.22,5.404-5.22c2.828,0,5.105,1.862,5.105,4.783c0,3.196-3.564,6.369-5.519,8.83H356.068z"/>
		<path d="M366.561,35.195h-5.887c-1.242,0-1.702-0.805-1.702-1.587c0-0.805,0.437-1.586,1.702-1.586h8.324
			c1.173,0,1.656,1.058,1.656,1.655c0,0.46-0.253,0.942-0.529,1.518l-5.703,11.59c-0.644,1.287-0.897,1.747-1.932,1.747
			c-1.265,0-1.909-0.966-1.909-1.633c0-0.275,0.069-0.482,0.23-0.805L366.561,35.195z"/>
		<path d="M371.91,34.184c-0.069-0.299-0.092-0.46-0.092-0.782c0-0.735,0.621-1.518,1.632-1.518c1.104,0,1.633,0.645,1.84,1.656
			l1.955,9.772h0.046l2.989-10.071c0.253-0.828,0.943-1.357,1.794-1.357c0.851,0,1.541,0.529,1.793,1.357l2.989,10.071h0.046
			l1.955-9.772c0.207-1.012,0.736-1.656,1.84-1.656c1.012,0,1.632,0.782,1.632,1.518c0,0.322-0.023,0.483-0.092,0.782l-2.92,12.556
			c-0.23,0.966-0.989,1.793-2.276,1.793c-1.127,0-2-0.735-2.276-1.679l-2.667-8.876h-0.046l-2.667,8.876
			c-0.276,0.943-1.15,1.679-2.277,1.679c-1.288,0-2.046-0.827-2.276-1.793L371.91,34.184z"/>
	</g>
</g>
<g>
	<circle fill="#FFFFFF" stroke="#000000" stroke-width="3" stroke-miterlimit="10" cx="478.745" cy="39.807" r="38.307"/>
	<g>
		<path d="M467.605,44.784c-1.127,0-1.609-0.759-1.609-1.356c0-0.506,0.184-0.782,0.321-1.012l5.151-9.336
			c0.506-0.92,1.149-1.334,2.345-1.334c1.334,0,2.645,0.851,2.645,2.943v7.06h0.392c0.896,0,1.609,0.598,1.609,1.518
			s-0.713,1.518-1.609,1.518h-0.392v1.955c0,1.219-0.482,1.793-1.655,1.793s-1.655-0.574-1.655-1.793v-1.955H467.605z
			 M473.147,35.333H473.1l-3.104,6.416h3.15V35.333z"/>
		<path d="M481.333,44.784c-1.127,0-1.609-0.759-1.609-1.356c0-0.506,0.184-0.782,0.321-1.012l5.151-9.336
			c0.506-0.92,1.149-1.334,2.345-1.334c1.334,0,2.645,0.851,2.645,2.943v7.06h0.392c0.896,0,1.609,0.598,1.609,1.518
			s-0.713,1.518-1.609,1.518h-0.392v1.955c0,1.219-0.482,1.793-1.655,1.793s-1.655-0.574-1.655-1.793v-1.955H481.333z
			 M486.875,35.333h-0.047l-3.104,6.416h3.15V35.333z"/>
	</g>
</g>
<g>
	<circle fill="#FFFFFF" stroke="#000000" stroke-width="3" stroke-miterlimit="10" cx="588.73" cy="39.807" r="38.307"/>
	<g>
		<path d="M575.711,35.195h-1.357c-1.104,0-1.563-0.805-1.563-1.587c0-0.805,0.575-1.586,1.563-1.586h3.266
			c0.988,0,1.541,0.713,1.541,1.632v13.085c0,1.149-0.736,1.793-1.725,1.793c-0.989,0-1.725-0.644-1.725-1.793V35.195z"/>
		<path d="M591.002,45.359c1.012,0,1.793,0.46,1.793,1.518s-0.781,1.518-1.655,1.518h-7.681c-1.012,0-1.793-0.46-1.793-1.518
			c0-0.483,0.299-0.896,0.528-1.173c1.909-2.276,3.979-4.346,5.726-6.875c0.414-0.599,0.805-1.312,0.805-2.139
			c0-0.943-0.713-1.771-1.655-1.771c-2.645,0-1.38,3.725-3.587,3.725c-1.104,0-1.679-0.781-1.679-1.679
			c0-2.897,2.575-5.22,5.403-5.22s5.105,1.862,5.105,4.783c0,3.196-3.564,6.369-5.52,8.83H591.002z"/>
		<path d="M601.495,35.195h-5.887c-1.241,0-1.701-0.805-1.701-1.587c0-0.805,0.438-1.586,1.701-1.586h8.324
			c1.174,0,1.656,1.058,1.656,1.655c0,0.46-0.253,0.942-0.529,1.518l-5.702,11.59c-0.644,1.287-0.897,1.747-1.932,1.747
			c-1.265,0-1.909-0.966-1.909-1.633c0-0.275,0.069-0.482,0.23-0.805L601.495,35.195z"/>
	</g>
</g>
<g>
	<circle fill="#FFFFFF" stroke="#000000" stroke-width="3" stroke-miterlimit="10" cx="698.714" cy="39.807" r="38.307"/>
	<g>
		<path d="M685.292,35.195h-1.356c-1.104,0-1.564-0.805-1.564-1.587c0-0.805,0.576-1.586,1.564-1.586h3.266
			c0.988,0,1.54,0.713,1.54,1.632v13.085c0,1.149-0.735,1.793-1.725,1.793s-1.725-0.644-1.725-1.793V35.195z"/>
		<path d="M695.665,37.633c0.553-0.115,1.15-0.229,1.725-0.229c2.783,0,4.76,2.207,4.76,4.897c0,3.84-2.115,6.37-6.093,6.37
			c-1.633,0-5.06-1.059-5.06-3.082c0-0.851,0.713-1.563,1.564-1.563c0.92,0,2.023,1.472,3.564,1.472
			c1.609,0,2.438-1.563,2.438-3.013c0-1.379-0.782-2.322-2.208-2.322c-1.334,0-1.54,0.759-2.714,0.759
			c-0.896,0-1.356-0.689-1.356-1.08c0-0.3,0.046-0.529,0.069-0.782l0.574-4.852c0.254-1.794,0.69-2.185,1.794-2.185h5.542
			c1.058,0,1.679,0.62,1.679,1.448c0,1.587-1.196,1.725-1.61,1.725h-4.322L695.665,37.633z"/>
		<path d="M708.526,37.633c0.553-0.115,1.15-0.229,1.725-0.229c2.783,0,4.76,2.207,4.76,4.897c0,3.84-2.115,6.37-6.093,6.37
			c-1.633,0-5.06-1.059-5.06-3.082c0-0.851,0.713-1.563,1.564-1.563c0.92,0,2.023,1.472,3.564,1.472
			c1.609,0,2.438-1.563,2.438-3.013c0-1.379-0.782-2.322-2.208-2.322c-1.334,0-1.54,0.759-2.714,0.759
			c-0.896,0-1.356-0.689-1.356-1.08c0-0.3,0.046-0.529,0.069-0.782l0.574-4.852c0.254-1.794,0.69-2.185,1.794-2.185h5.542
			c1.058,0,1.679,0.62,1.679,1.448c0,1.587-1.196,1.725-1.61,1.725h-4.322L708.526,37.633z"/>
	</g>
</g>
<g>
	<circle fill="#FFFFFF" stroke="#000000" stroke-width="3" stroke-miterlimit="10" cx="808.7" cy="39.807" r="38.307"/>
	<g>
		<path d="M800.756,35.95c0,1.449-0.62,2.714-1.885,3.519c1.655,0.759,2.805,2.3,2.805,4.116c0,2.759-2.529,5.082-5.795,5.082
			c-3.402,0-5.518-2.507-5.518-4.323c0-0.897,0.942-1.541,1.77-1.541c1.564,0,1.196,2.69,3.795,2.69c1.195,0,2.162-0.92,2.162-2.139
			c0-3.219-3.91-0.851-3.91-3.564c0-2.414,3.266-0.781,3.266-3.334c0-0.874-0.621-1.54-1.656-1.54c-2.184,0-1.885,2.253-3.449,2.253
			c-0.942,0-1.494-0.851-1.494-1.701c0-1.794,2.461-3.726,5.013-3.726C799.17,31.742,800.756,34.156,800.756,35.95z"/>
		<path d="M812.714,45.355c1.012,0,1.794,0.46,1.794,1.518s-0.782,1.518-1.656,1.518h-7.68c-1.012,0-1.794-0.46-1.794-1.518
			c0-0.483,0.299-0.896,0.528-1.173c1.909-2.276,3.979-4.346,5.727-6.875c0.414-0.599,0.805-1.312,0.805-2.139
			c0-0.943-0.713-1.771-1.656-1.771c-2.645,0-1.379,3.725-3.586,3.725c-1.104,0-1.68-0.781-1.68-1.679
			c0-2.897,2.576-5.22,5.404-5.22s5.105,1.862,5.105,4.783c0,3.196-3.564,6.369-5.52,8.83H812.714z"/>
		<path d="M827.625,37.445c0,3.472-3.519,8.347-5.841,10.509c-0.184,0.184-0.459,0.367-0.735,0.552
			c-0.253,0.161-0.506,0.161-0.69,0.161c-0.644,0-1.633-0.852-1.633-1.679c0-0.322,0.207-0.599,0.483-0.943
			c0.92-1.127,2.415-2.599,3.173-3.679l-0.045-0.046c-0.414,0.184-0.943,0.275-1.449,0.275c-2.76,0-4.807-2.438-4.807-5.15
			c0-2.989,2.369-5.703,5.772-5.703C825.394,31.742,827.625,34.387,827.625,37.445z M824.038,37.445
			c0-1.288-0.805-2.392-2.185-2.392c-1.311,0-2.185,1.058-2.185,2.392c0,1.219,0.736,2.392,2.185,2.392
			C823.164,39.837,824.038,38.802,824.038,37.445z"/>
	</g>
</g>
</svg>
